2024-10-13 19:14:51: control_change channel=1 control=35 value=65 time=0
2024-10-13 19:14:51: control_change channel=1 control=35 value=65 time=0
2024-10-13 19:14:51: control_change channel=1 control=35 value=65 time=0
2024-10-13 19:14:51: control_change channel=1 control=35 value=65 time=0
2024-10-13 19:14:51: control_change channel=1 control=35 value=65 time=0
2024-10-13 19:14:51: control_change channel=1 control=35 value=65 time=0
2024-10-13 19:14:51: control_change channel=1 control=35 value=65 time=0
2024-10-13 19:14:51: control_change channel=1 control=35 value=65 time=0
2024-10-13 19:14:51: control_change channel=1 control=35 value=65 time=0
2024-10-13 19:14:51: control_change channel=1 control=35 value=65 time=0
2024-10-13 19:14:51: control_change channel=1 control=35 value=65 time=0
2024-10-13 19:14:51: control_change channel=1 control=35 value=65 time=0
2024-10-13 19:14:51: control_change channel=1 control=35 value=65 time=0
2024-10-13 19:14:51: control_change channel=1 control=35 value=65 time=0
2024-10-13 19:14:51: control_change channel=1 control=35 value=65 time=0
2024-10-13 19:14:51: control_change channel=1 control=35 value=65 time=0
2024-10-13 19:14:51: control_change channel=1 control=35 value=65 time=0
2024-10-13 19:14:51: control_change channel=1 control=35 value=65 time=0
2024-10-13 19:14:51: control_change channel=1 control=35 value=65 time=0
2024-10-13 19:14:51: control_change channel=1 control=35 value=65 time=0
2024-10-13 19:14:51: control_change channel=1 control=35 value=65 time=0
2024-10-13 19:14:51: control_change channel=1 control=35 value=65 time=0
2024-10-13 19:14:51: control_change channel=1 control=35 value=65 time=0
2024-10-13 19:14:51: control_change channel=1 control=35 value=65 time=0
2024-10-13 19:14:51: control_change channel=1 control=35 value=65 time=0
2024-10-13 19:14:51: control_change channel=1 control=35 value=65 time=0
2024-10-13 19:14:51: control_change channel=1 control=35 value=65 time=0
2024-10-13 19:14:51: control_change channel=1 control=35 value=65 time=0
2024-10-13 19:14:51: control_change channel=1 control=35 value=65 time=0
2024-10-13 19:14:51: control_change channel=1 control=35 value=65 time=0
2024-10-13 19:14:51: control_change channel=1 control=35 value=65 time=0
2024-10-13 19:14:51: control_change channel=1 control=35 value=65 time=0
2024-10-13 19:14:51: control_change channel=1 control=35 value=65 time=0
2024-10-13 19:14:51: control_change channel=1 control=35 value=65 time=0
2024-10-13 19:14:51: control_change channel=1 control=35 value=65 time=0
2024-10-13 19:14:51: control_change channel=1 control=35 value=65 time=0
2024-10-13 19:14:51: control_change channel=1 control=35 value=65 time=0
2024-10-13 19:14:51: control_change channel=1 control=35 value=65 time=0
2024-10-13 19:14:51: control_change channel=1 control=35 value=65 time=0
2024-10-13 19:14:51: control_change channel=1 control=35 value=65 time=0
2024-10-13 19:14:52: control_change channel=1 control=35 value=65 time=0
2024-10-13 19:14:52: control_change channel=1 control=35 value=65 time=0
2024-10-13 19:14:52: control_change channel=1 control=35 value=65 time=0
2024-10-13 19:14:52: control_change channel=1 control=35 value=65 time=0
2024-10-13 19:14:52: control_change channel=1 control=35 value=65 time=0
2024-10-13 19:14:52: control_change channel=1 control=35 value=65 time=0
2024-10-13 19:14:52: control_change channel=1 control=35 value=65 time=0
2024-10-13 19:14:52: control_change channel=1 control=35 value=65 time=0
2024-10-13 19:14:52: control_change channel=1 control=35 value=65 time=0
2024-10-13 19:14:52: control_change channel=1 control=35 value=65 time=0
2024-10-13 19:14:52: control_change channel=1 control=35 value=65 time=0
2024-10-13 19:14:52: control_change channel=1 control=35 value=65 time=0
2024-10-13 19:14:52: control_change channel=1 control=35 value=65 time=0
2024-10-13 19:14:52: control_change channel=1 control=35 value=65 time=0
2024-10-13 19:14:52: control_change channel=1 control=35 value=65 time=0
2024-10-13 19:14:52: control_change channel=1 control=35 value=65 time=0
2024-10-13 19:14:52: control_change channel=1 control=35 value=65 time=0
2024-10-13 19:14:52: control_change channel=1 control=35 value=65 time=0
2024-10-13 19:14:52: control_change channel=1 control=35 value=65 time=0
2024-10-13 19:14:52: control_change channel=1 control=35 value=65 time=0
2024-10-13 19:14:52: control_change channel=1 control=35 value=65 time=0
2024-10-13 19:14:52: control_change channel=1 control=35 value=65 time=0
2024-10-13 19:14:52: control_change channel=1 control=35 value=65 time=0
2024-10-13 19:14:52: control_change channel=1 control=35 value=65 time=0
2024-10-13 19:14:52: control_change channel=1 control=35 value=65 time=0
2024-10-13 19:14:52: control_change channel=1 control=35 value=65 time=0
2024-10-13 19:14:52: control_change channel=1 control=35 value=65 time=0
2024-10-13 19:14:52: control_change channel=1 control=35 value=65 time=0
2024-10-13 19:14:52: control_change channel=1 control=35 value=65 time=0
2024-10-13 19:14:52: control_change channel=1 control=35 value=65 time=0
2024-10-13 19:14:52: control_change channel=1 control=35 value=65 time=0
2024-10-13 19:14:52: control_change channel=1 control=35 value=65 time=0
2024-10-13 19:14:52: control_change channel=1 control=35 value=65 time=0
2024-10-13 19:14:52: control_change channel=1 control=35 value=65 time=0
2024-10-13 19:14:52: control_change channel=1 control=35 value=65 time=0
2024-10-13 19:14:52: control_change channel=1 control=35 value=65 time=0
2024-10-13 19:14:52: control_change channel=1 control=35 value=65 time=0
2024-10-13 19:14:52: control_change channel=1 control=35 value=65 time=0
2024-10-13 19:14:52: control_change channel=1 control=35 value=65 time=0
2024-10-13 19:14:52: control_change channel=1 control=35 value=65 time=0
2024-10-13 19:14:52: control_change channel=1 control=35 value=65 time=0
2024-10-13 19:14:52: control_change channel=1 control=35 value=65 time=0
2024-10-13 19:14:52: control_change channel=1 control=35 value=65 time=0
2024-10-13 19:14:52: control_change channel=1 control=35 value=65 time=0
2024-10-13 19:14:52: control_change channel=1 control=35 value=65 time=0
2024-10-13 19:14:52: control_change channel=1 control=35 value=65 time=0
2024-10-13 19:14:52: control_change channel=1 control=35 value=65 time=0
2024-10-13 19:14:52: control_change channel=1 control=35 value=65 time=0
2024-10-13 19:14:52: control_change channel=1 control=35 value=65 time=0
2024-10-13 19:14:52: control_change channel=1 control=35 value=65 time=0
2024-10-13 19:14:52: control_change channel=1 control=35 value=65 time=0
2024-10-13 19:14:52: control_change channel=1 control=35 value=65 time=0
2024-10-13 19:14:52: control_change channel=1 control=35 value=65 time=0
2024-10-13 19:14:52: control_change channel=1 control=35 value=65 time=0
2024-10-13 19:14:52: control_change channel=1 control=35 value=65 time=0
2024-10-13 19:14:52: control_change channel=1 control=35 value=65 time=0
2024-10-13 19:14:52: control_change channel=1 control=35 value=65 time=0
2024-10-13 19:14:52: control_change channel=1 control=35 value=65 time=0
2024-10-13 19:14:52: control_change channel=1 control=35 value=65 time=0
2024-10-13 19:14:52: control_change channel=1 control=35 value=65 time=0
2024-10-13 19:14:52: control_change channel=1 control=35 value=65 time=0
2024-10-13 19:14:52: control_change channel=1 control=35 value=65 time=0
2024-10-13 19:14:52: control_change channel=1 control=35 value=65 time=0
2024-10-13 19:14:52: control_change channel=1 control=35 value=65 time=0
2024-10-13 19:14:52: control_change channel=1 control=35 value=65 time=0
2024-10-13 19:14:52: control_change channel=1 control=35 value=65 time=0
2024-10-13 19:14:52: control_change channel=1 control=35 value=65 time=0
2024-10-13 19:14:52: control_change channel=1 control=35 value=63 time=0
2024-10-13 19:14:52: control_change channel=1 control=35 value=63 time=0
2024-10-13 19:14:52: control_change channel=1 control=35 value=63 time=0
2024-10-13 19:14:52: control_change channel=1 control=35 value=63 time=0
2024-10-13 19:14:52: control_change channel=1 control=35 value=63 time=0
2024-10-13 19:14:52: control_change channel=1 control=35 value=63 time=0
2024-10-13 19:14:52: control_change channel=1 control=35 value=63 time=0
2024-10-13 19:14:52: control_change channel=1 control=35 value=63 time=0
2024-10-13 19:14:52: control_change channel=1 control=35 value=63 time=0
2024-10-13 19:14:52: control_change channel=1 control=35 value=63 time=0
2024-10-13 19:14:52: control_change channel=1 control=35 value=63 time=0
2024-10-13 19:14:52: control_change channel=1 control=35 value=63 time=0
2024-10-13 19:14:52: control_change channel=1 control=35 value=63 time=0
2024-10-13 19:14:52: control_change channel=1 control=35 value=63 time=0
2024-10-13 19:14:52: control_change channel=1 control=35 value=63 time=0
2024-10-13 19:14:52: control_change channel=1 control=35 value=63 time=0
2024-10-13 19:14:52: control_change channel=1 control=35 value=63 time=0
2024-10-13 19:14:52: control_change channel=1 control=35 value=63 time=0
2024-10-13 19:14:52: control_change channel=1 control=35 value=63 time=0
2024-10-13 19:14:52: control_change channel=1 control=35 value=63 time=0
2024-10-13 19:14:52: control_change channel=1 control=35 value=63 time=0
2024-10-13 19:14:52: control_change channel=1 control=35 value=63 time=0
2024-10-13 19:14:52: control_change channel=1 control=35 value=63 time=0
2024-10-13 19:14:52: control_change channel=1 control=35 value=63 time=0
2024-10-13 19:14:52: control_change channel=1 control=35 value=63 time=0
2024-10-13 19:14:52: control_change channel=1 control=35 value=63 time=0
2024-10-13 19:14:52: control_change channel=1 control=35 value=63 time=0
2024-10-13 19:14:52: control_change channel=1 control=35 value=63 time=0
2024-10-13 19:14:52: control_change channel=1 control=35 value=63 time=0
2024-10-13 19:14:52: control_change channel=1 control=35 value=63 time=0
2024-10-13 19:14:52: control_change channel=1 control=35 value=63 time=0
2024-10-13 19:14:52: control_change channel=1 control=35 value=63 time=0
2024-10-13 19:14:52: control_change channel=1 control=35 value=63 time=0
2024-10-13 19:14:52: control_change channel=1 control=35 value=63 time=0
2024-10-13 19:14:52: control_change channel=1 control=35 value=63 time=0
2024-10-13 19:14:52: control_change channel=1 control=35 value=63 time=0
2024-10-13 19:14:52: control_change channel=1 control=35 value=63 time=0
2024-10-13 19:14:52: control_change channel=1 control=35 value=63 time=0
2024-10-13 19:14:52: control_change channel=1 control=35 value=63 time=0
2024-10-13 19:14:52: control_change channel=1 control=35 value=63 time=0
2024-10-13 19:14:52: control_change channel=1 control=35 value=63 time=0
2024-10-13 19:14:52: control_change channel=1 control=35 value=63 time=0
2024-10-13 19:14:52: control_change channel=1 control=35 value=63 time=0
2024-10-13 19:14:52: control_change channel=1 control=35 value=63 time=0
2024-10-13 19:14:52: control_change channel=1 control=35 value=63 time=0
2024-10-13 19:14:52: control_change channel=1 control=35 value=63 time=0
2024-10-13 19:14:52: control_change channel=1 control=35 value=63 time=0
2024-10-13 19:14:52: control_change channel=1 control=35 value=63 time=0
2024-10-13 19:14:52: control_change channel=1 control=35 value=63 time=0
2024-10-13 19:14:52: control_change channel=1 control=35 value=63 time=0
2024-10-13 19:14:52: control_change channel=1 control=35 value=63 time=0
2024-10-13 19:14:52: control_change channel=1 control=35 value=63 time=0
2024-10-13 19:14:52: control_change channel=1 control=35 value=63 time=0
2024-10-13 19:14:52: control_change channel=1 control=35 value=63 time=0
2024-10-13 19:14:52: control_change channel=1 control=35 value=63 time=0
2024-10-13 19:14:52: control_change channel=1 control=35 value=63 time=0
2024-10-13 19:14:52: control_change channel=1 control=35 value=63 time=0
2024-10-13 19:14:52: control_change channel=1 control=35 value=63 time=0
2024-10-13 19:14:52: control_change channel=1 control=35 value=63 time=0
2024-10-13 19:14:52: control_change channel=1 control=35 value=63 time=0
2024-10-13 19:14:52: control_change channel=1 control=35 value=63 time=0
2024-10-13 19:14:52: control_change channel=1 control=35 value=63 time=0
2024-10-13 19:14:52: control_change channel=1 control=35 value=63 time=0
2024-10-13 19:14:52: control_change channel=1 control=35 value=63 time=0
2024-10-13 19:14:52: control_change channel=1 control=35 value=63 time=0
2024-10-13 19:14:52: control_change channel=1 control=35 value=63 time=0
2024-10-13 19:14:52: control_change channel=1 control=35 value=63 time=0
2024-10-13 19:14:52: control_change channel=1 control=35 value=63 time=0
2024-10-13 19:14:52: control_change channel=1 control=35 value=63 time=0
2024-10-13 19:14:52: control_change channel=1 control=35 value=63 time=0
2024-10-13 19:14:52: control_change channel=1 control=35 value=63 time=0
2024-10-13 19:14:52: control_change channel=1 control=35 value=63 time=0
2024-10-13 19:14:52: control_change channel=1 control=35 value=63 time=0
2024-10-13 19:14:52: control_change channel=1 control=35 value=63 time=0
2024-10-13 19:14:52: control_change channel=1 control=35 value=63 time=0
2024-10-13 19:14:52: control_change channel=1 control=35 value=63 time=0
2024-10-13 19:14:52: control_change channel=1 control=35 value=63 time=0
2024-10-13 19:14:52: control_change channel=1 control=35 value=63 time=0
2024-10-13 19:14:52: control_change channel=1 control=35 value=63 time=0
2024-10-13 19:14:52: control_change channel=1 control=35 value=63 time=0
2024-10-13 19:14:52: control_change channel=1 control=35 value=63 time=0
2024-10-13 19:14:52: control_change channel=1 control=35 value=63 time=0
2024-10-13 19:14:52: control_change channel=1 control=35 value=63 time=0
2024-10-13 19:14:52: control_change channel=1 control=35 value=63 time=0
2024-10-13 19:14:52: control_change channel=1 control=35 value=63 time=0
2024-10-13 19:14:52: control_change channel=1 control=35 value=63 time=0
2024-10-13 19:14:52: control_change channel=1 control=35 value=63 time=0
2024-10-13 19:14:52: control_change channel=1 control=35 value=63 time=0
2024-10-13 19:14:52: control_change channel=1 control=35 value=63 time=0
2024-10-13 19:14:52: control_change channel=1 control=35 value=63 time=0
2024-10-13 19:14:52: control_change channel=1 control=35 value=63 time=0
2024-10-13 19:14:52: control_change channel=1 control=35 value=63 time=0
2024-10-13 19:14:52: control_change channel=1 control=35 value=63 time=0
2024-10-13 19:14:52: control_change channel=1 control=35 value=63 time=0
2024-10-13 19:14:52: control_change channel=1 control=35 value=63 time=0
2024-10-13 19:14:52: control_change channel=1 control=35 value=63 time=0
2024-10-13 19:14:52: control_change channel=1 control=35 value=63 time=0
2024-10-13 19:14:52: control_change channel=1 control=35 value=63 time=0
2024-10-13 19:14:52: control_change channel=1 control=35 value=63 time=0
2024-10-13 19:14:52: control_change channel=1 control=35 value=63 time=0
2024-10-13 19:14:52: control_change channel=1 control=35 value=63 time=0
2024-10-13 19:14:52: control_change channel=1 control=35 value=63 time=0
2024-10-13 19:14:52: control_change channel=1 control=35 value=63 time=0
2024-10-13 19:14:52: control_change channel=1 control=35 value=63 time=0
2024-10-13 19:14:52: control_change channel=1 control=35 value=63 time=0
2024-10-13 19:14:52: control_change channel=1 control=35 value=63 time=0
2024-10-13 19:14:52: control_change channel=1 control=35 value=63 time=0
2024-10-13 19:14:52: control_change channel=1 control=35 value=63 time=0
2024-10-13 19:14:52: control_change channel=1 control=35 value=63 time=0
2024-10-13 19:14:52: control_change channel=1 control=35 value=63 time=0
2024-10-13 19:14:52: control_change channel=1 control=35 value=63 time=0
2024-10-13 19:14:52: control_change channel=1 control=35 value=63 time=0
2024-10-13 19:14:52: control_change channel=1 control=35 value=63 time=0
2024-10-13 19:14:52: control_change channel=1 control=35 value=63 time=0
2024-10-13 19:14:52: control_change channel=1 control=35 value=63 time=0
2024-10-13 19:14:52: control_change channel=1 control=35 value=63 time=0
2024-10-13 19:14:52: control_change channel=1 control=35 value=63 time=0
2024-10-13 19:14:52: control_change channel=1 control=35 value=63 time=0
2024-10-13 19:14:52: control_change channel=1 control=35 value=63 time=0
2024-10-13 19:14:52: control_change channel=1 control=35 value=63 time=0
2024-10-13 19:14:52: control_change channel=1 control=35 value=63 time=0
2024-10-13 19:14:52: control_change channel=1 control=35 value=63 time=0
2024-10-13 19:14:52: control_change channel=1 control=35 value=63 time=0
2024-10-13 19:14:52: control_change channel=1 control=35 value=63 time=0
2024-10-13 19:14:52: control_change channel=1 control=35 value=63 time=0
2024-10-13 19:14:52: control_change channel=1 control=35 value=63 time=0
2024-10-13 19:14:52: control_change channel=1 control=35 value=63 time=0
2024-10-13 19:14:52: control_change channel=1 control=35 value=63 time=0
2024-10-13 19:14:52: control_change channel=1 control=35 value=63 time=0
2024-10-13 19:14:52: control_change channel=1 control=35 value=63 time=0
2024-10-13 19:14:52: control_change channel=1 control=35 value=63 time=0
2024-10-13 19:14:52: control_change channel=1 control=35 value=63 time=0
2024-10-13 19:14:52: control_change channel=1 control=35 value=63 time=0
2024-10-13 19:14:52: control_change channel=1 control=35 value=63 time=0
2024-10-13 19:14:52: control_change channel=1 control=35 value=63 time=0
2024-10-13 19:14:52: control_change channel=1 control=35 value=63 time=0
2024-10-13 19:14:52: control_change channel=1 control=35 value=63 time=0
2024-10-13 19:14:52: control_change channel=1 control=35 value=63 time=0
2024-10-13 19:14:52: control_change channel=1 control=35 value=63 time=0
2024-10-13 19:14:52: control_change channel=1 control=35 value=63 time=0
2024-10-13 19:14:52: control_change channel=1 control=35 value=63 time=0
2024-10-13 19:14:52: control_change channel=1 control=35 value=63 time=0
2024-10-13 19:14:52: control_change channel=1 control=35 value=63 time=0
2024-10-13 19:14:52: control_change channel=1 control=35 value=63 time=0
2024-10-13 19:14:52: control_change channel=1 control=35 value=63 time=0
2024-10-13 19:14:52: control_change channel=1 control=35 value=63 time=0
2024-10-13 19:14:52: control_change channel=1 control=35 value=63 time=0
2024-10-13 19:14:52: control_change channel=1 control=35 value=63 time=0
2024-10-13 19:14:52: control_change channel=1 control=35 value=63 time=0
2024-10-13 19:14:52: control_change channel=1 control=35 value=63 time=0
2024-10-13 19:14:52: control_change channel=1 control=35 value=63 time=0
2024-10-13 19:14:52: control_change channel=1 control=35 value=63 time=0
2024-10-13 19:14:52: control_change channel=1 control=35 value=63 time=0
2024-10-13 19:14:52: control_change channel=1 control=35 value=63 time=0
2024-10-13 19:14:52: control_change channel=1 control=35 value=63 time=0
2024-10-13 19:14:52: control_change channel=1 control=35 value=63 time=0
2024-10-13 19:14:52: control_change channel=1 control=35 value=63 time=0
2024-10-13 19:14:52: control_change channel=1 control=35 value=63 time=0
2024-10-13 19:14:52: control_change channel=1 control=35 value=63 time=0
2024-10-13 19:14:52: control_change channel=1 control=35 value=63 time=0
2024-10-13 19:14:52: control_change channel=1 control=35 value=63 time=0
2024-10-13 19:14:52: control_change channel=1 control=35 value=63 time=0
2024-10-13 19:14:52: control_change channel=1 control=35 value=63 time=0
2024-10-13 19:14:52: control_change channel=1 control=35 value=63 time=0
2024-10-13 19:14:52: control_change channel=1 control=35 value=63 time=0
2024-10-13 19:14:52: control_change channel=1 control=35 value=63 time=0
2024-10-13 19:14:52: control_change channel=1 control=35 value=63 time=0
2024-10-13 19:14:52: control_change channel=1 control=35 value=63 time=0
2024-10-13 19:14:52: control_change channel=1 control=35 value=63 time=0
2024-10-13 19:14:52: control_change channel=1 control=35 value=63 time=0
2024-10-13 19:14:52: control_change channel=1 control=35 value=63 time=0
2024-10-13 19:14:52: control_change channel=1 control=35 value=63 time=0
2024-10-13 19:14:52: control_change channel=1 control=35 value=63 time=0
2024-10-13 19:14:52: control_change channel=1 control=35 value=63 time=0
2024-10-13 19:14:52: control_change channel=1 control=35 value=63 time=0
2024-10-13 19:14:52: control_change channel=1 control=35 value=63 time=0
2024-10-13 19:14:52: control_change channel=1 control=35 value=63 time=0
2024-10-13 19:14:52: control_change channel=1 control=35 value=63 time=0
2024-10-13 19:14:52: control_change channel=1 control=35 value=63 time=0
2024-10-13 19:14:52: control_change channel=1 control=35 value=63 time=0
2024-10-13 19:14:52: control_change channel=1 control=35 value=63 time=0
2024-10-13 19:14:52: control_change channel=1 control=35 value=63 time=0
2024-10-13 19:14:52: control_change channel=1 control=35 value=63 time=0
2024-10-13 19:14:52: control_change channel=1 control=35 value=63 time=0
2024-10-13 19:14:52: control_change channel=1 control=35 value=63 time=0
2024-10-13 19:14:52: control_change channel=1 control=35 value=63 time=0
2024-10-13 19:14:52: control_change channel=1 control=35 value=63 time=0
2024-10-13 19:14:52: control_change channel=1 control=35 value=63 time=0
2024-10-13 19:14:52: control_change channel=1 control=35 value=63 time=0
2024-10-13 19:14:52: control_change channel=1 control=35 value=63 time=0
2024-10-13 19:14:52: control_change channel=1 control=35 value=63 time=0
2024-10-13 19:14:52: control_change channel=1 control=35 value=63 time=0
2024-10-13 19:14:52: control_change channel=1 control=35 value=63 time=0
2024-10-13 19:14:52: control_change channel=1 control=35 value=63 time=0
2024-10-13 19:14:52: control_change channel=1 control=35 value=63 time=0
2024-10-13 19:14:52: control_change channel=1 control=35 value=63 time=0
2024-10-13 19:14:52: control_change channel=1 control=35 value=63 time=0
2024-10-13 19:14:52: control_change channel=1 control=35 value=63 time=0
2024-10-13 19:14:52: control_change channel=1 control=35 value=63 time=0
2024-10-13 19:14:52: control_change channel=1 control=35 value=63 time=0
2024-10-13 19:14:52: control_change channel=1 control=35 value=63 time=0
2024-10-13 19:14:52: control_change channel=1 control=35 value=63 time=0
2024-10-13 19:14:52: control_change channel=1 control=35 value=63 time=0
2024-10-13 19:14:52: control_change channel=1 control=35 value=63 time=0
2024-10-13 19:14:52: control_change channel=1 control=35 value=63 time=0
2024-10-13 19:14:52: control_change channel=1 control=35 value=63 time=0
2024-10-13 19:14:52: control_change channel=1 control=35 value=63 time=0
2024-10-13 19:14:52: control_change channel=1 control=35 value=63 time=0
2024-10-13 19:14:52: control_change channel=1 control=35 value=63 time=0
2024-10-13 19:14:52: control_change channel=1 control=35 value=63 time=0
2024-10-13 19:14:52: control_change channel=1 control=35 value=63 time=0
2024-10-13 19:14:52: control_change channel=1 control=35 value=63 time=0
2024-10-13 19:14:52: control_change channel=1 control=35 value=63 time=0
2024-10-13 19:14:52: control_change channel=1 control=35 value=63 time=0
2024-10-13 19:14:52: control_change channel=1 control=35 value=63 time=0
2024-10-13 19:14:52: control_change channel=1 control=35 value=63 time=0
2024-10-13 19:14:52: control_change channel=1 control=35 value=63 time=0
2024-10-13 19:14:52: control_change channel=1 control=35 value=63 time=0
2024-10-13 19:14:52: control_change channel=1 control=35 value=63 time=0
2024-10-13 19:14:52: control_change channel=1 control=35 value=63 time=0
2024-10-13 19:14:52: control_change channel=1 control=35 value=63 time=0
2024-10-13 19:14:52: control_change channel=1 control=35 value=63 time=0
2024-10-13 19:14:52: control_change channel=1 control=35 value=63 time=0
2024-10-13 19:14:52: control_change channel=1 control=35 value=63 time=0
2024-10-13 19:14:52: control_change channel=1 control=35 value=63 time=0
2024-10-13 19:14:52: control_change channel=1 control=35 value=63 time=0
2024-10-13 19:14:52: control_change channel=1 control=35 value=63 time=0
2024-10-13 19:14:52: control_change channel=1 control=35 value=63 time=0
2024-10-13 19:14:52: control_change channel=1 control=35 value=63 time=0
2024-10-13 19:14:52: control_change channel=1 control=35 value=63 time=0
2024-10-13 19:14:52: control_change channel=1 control=35 value=63 time=0
2024-10-13 19:14:52: control_change channel=1 control=35 value=63 time=0
2024-10-13 19:14:52: control_change channel=1 control=35 value=63 time=0
2024-10-13 19:14:52: control_change channel=1 control=35 value=63 time=0
2024-10-13 19:14:52: control_change channel=1 control=35 value=63 time=0
2024-10-13 19:14:52: control_change channel=1 control=35 value=63 time=0
2024-10-13 19:14:52: control_change channel=1 control=35 value=63 time=0
2024-10-13 19:14:52: control_change channel=1 control=35 value=63 time=0
2024-10-13 19:14:52: control_change channel=1 control=35 value=63 time=0
2024-10-13 19:14:52: control_change channel=1 control=35 value=63 time=0
2024-10-13 19:14:52: control_change channel=1 control=35 value=63 time=0
2024-10-13 19:14:52: control_change channel=1 control=35 value=63 time=0
2024-10-13 19:14:52: control_change channel=1 control=35 value=63 time=0
2024-10-13 19:14:52: control_change channel=1 control=35 value=63 time=0
2024-10-13 19:14:52: control_change channel=1 control=35 value=63 time=0
2024-10-13 19:14:52: control_change channel=1 control=35 value=63 time=0
2024-10-13 19:14:52: control_change channel=1 control=35 value=63 time=0
2024-10-13 19:14:52: control_change channel=1 control=35 value=63 time=0
2024-10-13 19:14:52: control_change channel=1 control=35 value=63 time=0
2024-10-13 19:14:52: control_change channel=1 control=35 value=63 time=0
2024-10-13 19:14:52: control_change channel=1 control=35 value=63 time=0
2024-10-13 19:14:52: control_change channel=1 control=35 value=63 time=0
2024-10-13 19:14:52: control_change channel=1 control=35 value=63 time=0
2024-10-13 19:14:52: control_change channel=1 control=35 value=63 time=0
2024-10-13 19:14:52: control_change channel=1 control=35 value=63 time=0
2024-10-13 19:14:52: control_change channel=1 control=35 value=63 time=0
2024-10-13 19:14:52: control_change channel=1 control=35 value=63 time=0
2024-10-13 19:14:52: control_change channel=1 control=35 value=63 time=0
2024-10-13 19:14:52: control_change channel=1 control=35 value=63 time=0
2024-10-13 19:14:52: control_change channel=1 control=35 value=63 time=0
2024-10-13 19:14:52: control_change channel=1 control=35 value=63 time=0
2024-10-13 19:14:52: control_change channel=1 control=35 value=63 time=0
2024-10-13 19:14:52: control_change channel=1 control=35 value=63 time=0
2024-10-13 19:14:52: control_change channel=1 control=35 value=63 time=0
2024-10-13 19:14:52: control_change channel=1 control=35 value=63 time=0
2024-10-13 19:14:52: control_change channel=1 control=35 value=63 time=0
2024-10-13 19:14:52: control_change channel=1 control=35 value=63 time=0
2024-10-13 19:14:52: control_change channel=1 control=35 value=63 time=0
2024-10-13 19:14:52: control_change channel=1 control=35 value=63 time=0
2024-10-13 19:14:52: control_change channel=1 control=35 value=63 time=0
2024-10-13 19:14:52: control_change channel=1 control=35 value=63 time=0
2024-10-13 19:14:52: control_change channel=1 control=35 value=63 time=0
2024-10-13 19:14:52: control_change channel=1 control=35 value=63 time=0
2024-10-13 19:14:52: control_change channel=1 control=35 value=63 time=0
2024-10-13 19:14:52: control_change channel=1 control=35 value=63 time=0
2024-10-13 19:14:52: control_change channel=1 control=35 value=63 time=0
2024-10-13 19:14:52: control_change channel=1 control=35 value=63 time=0
2024-10-13 19:14:52: control_change channel=1 control=35 value=63 time=0
2024-10-13 19:14:52: control_change channel=1 control=35 value=63 time=0
2024-10-13 19:14:52: control_change channel=1 control=35 value=63 time=0
2024-10-13 19:14:52: control_change channel=1 control=35 value=63 time=0
2024-10-13 19:14:52: control_change channel=1 control=35 value=63 time=0
2024-10-13 19:14:52: control_change channel=1 control=35 value=63 time=0
2024-10-13 19:14:52: control_change channel=1 control=35 value=63 time=0
2024-10-13 19:14:52: control_change channel=1 control=35 value=63 time=0
2024-10-13 19:14:52: control_change channel=1 control=35 value=63 time=0
2024-10-13 19:14:52: control_change channel=1 control=35 value=63 time=0
2024-10-13 19:14:52: control_change channel=1 control=35 value=63 time=0
2024-10-13 19:14:52: control_change channel=1 control=35 value=63 time=0
2024-10-13 19:14:52: control_change channel=1 control=35 value=63 time=0
2024-10-13 19:14:52: control_change channel=1 control=35 value=63 time=0
2024-10-13 19:14:52: control_change channel=1 control=35 value=63 time=0
2024-10-13 19:14:52: control_change channel=1 control=35 value=63 time=0
2024-10-13 19:14:52: control_change channel=1 control=35 value=63 time=0
2024-10-13 19:14:52: control_change channel=1 control=35 value=63 time=0
2024-10-13 19:14:52: control_change channel=1 control=35 value=63 time=0
2024-10-13 19:14:52: control_change channel=1 control=35 value=63 time=0
2024-10-13 19:14:52: control_change channel=1 control=35 value=63 time=0
2024-10-13 19:14:52: control_change channel=1 control=35 value=63 time=0
2024-10-13 19:14:52: control_change channel=1 control=35 value=63 time=0
2024-10-13 19:14:52: control_change channel=1 control=35 value=63 time=0
2024-10-13 19:14:52: control_change channel=1 control=35 value=63 time=0
2024-10-13 19:14:52: control_change channel=1 control=35 value=63 time=0
2024-10-13 19:14:52: control_change channel=1 control=35 value=63 time=0
2024-10-13 19:14:52: control_change channel=1 control=35 value=63 time=0
2024-10-13 19:14:52: control_change channel=1 control=35 value=63 time=0
2024-10-13 19:14:52: control_change channel=1 control=35 value=63 time=0
2024-10-13 19:14:52: control_change channel=1 control=35 value=63 time=0
2024-10-13 19:14:52: control_change channel=1 control=35 value=63 time=0
2024-10-13 19:14:52: control_change channel=1 control=35 value=63 time=0
2024-10-13 19:14:52: control_change channel=1 control=35 value=63 time=0
2024-10-13 19:14:52: control_change channel=1 control=35 value=63 time=0
2024-10-13 19:14:52: control_change channel=1 control=35 value=63 time=0
2024-10-13 19:14:52: control_change channel=1 control=35 value=63 time=0
2024-10-13 19:14:52: control_change channel=1 control=35 value=63 time=0
2024-10-13 19:14:52: control_change channel=1 control=35 value=63 time=0
2024-10-13 19:14:52: control_change channel=1 control=35 value=63 time=0
2024-10-13 19:14:53: control_change channel=1 control=35 value=63 time=0
2024-10-13 19:14:53: control_change channel=1 control=35 value=63 time=0
2024-10-13 19:14:53: control_change channel=1 control=35 value=63 time=0
2024-10-13 19:14:53: control_change channel=1 control=35 value=63 time=0
2024-10-13 19:14:53: control_change channel=1 control=35 value=63 time=0
2024-10-13 19:14:53: control_change channel=1 control=35 value=63 time=0
2024-10-13 19:14:53: control_change channel=1 control=35 value=63 time=0
2024-10-13 19:14:53: control_change channel=1 control=35 value=63 time=0
2024-10-13 19:14:53: control_change channel=1 control=35 value=63 time=0
2024-10-13 19:14:53: control_change channel=1 control=35 value=63 time=0
2024-10-13 19:14:53: control_change channel=1 control=35 value=63 time=0
2024-10-13 19:14:53: control_change channel=1 control=35 value=63 time=0
2024-10-13 19:14:53: control_change channel=1 control=35 value=63 time=0
2024-10-13 19:14:53: control_change channel=1 control=35 value=63 time=0
2024-10-13 19:14:53: control_change channel=1 control=35 value=63 time=0
2024-10-13 19:14:53: control_change channel=1 control=35 value=63 time=0
2024-10-13 19:14:53: control_change channel=1 control=35 value=63 time=0
2024-10-13 19:14:53: control_change channel=1 control=35 value=63 time=0
2024-10-13 19:14:53: control_change channel=1 control=35 value=63 time=0
2024-10-13 19:14:53: control_change channel=1 control=35 value=63 time=0
2024-10-13 19:14:53: control_change channel=1 control=35 value=63 time=0
2024-10-13 19:14:53: control_change channel=1 control=35 value=63 time=0
2024-10-13 19:14:53: control_change channel=1 control=35 value=63 time=0
2024-10-13 19:14:53: control_change channel=1 control=35 value=63 time=0
2024-10-13 19:14:53: control_change channel=1 control=35 value=63 time=0
2024-10-13 19:14:53: control_change channel=1 control=35 value=65 time=0
2024-10-13 19:14:54: control_change channel=0 control=35 value=65 time=0
2024-10-13 19:14:54: control_change channel=0 control=35 value=65 time=0
2024-10-13 19:14:54: control_change channel=0 control=35 value=65 time=0
2024-10-13 19:14:54: control_change channel=0 control=35 value=65 time=0
2024-10-13 19:14:54: control_change channel=0 control=35 value=65 time=0
2024-10-13 19:14:54: control_change channel=0 control=35 value=65 time=0
2024-10-13 19:14:54: control_change channel=0 control=35 value=65 time=0
2024-10-13 19:14:54: control_change channel=0 control=35 value=65 time=0
2024-10-13 19:14:54: control_change channel=0 control=35 value=65 time=0
2024-10-13 19:14:54: control_change channel=0 control=35 value=65 time=0
2024-10-13 19:14:54: control_change channel=0 control=35 value=65 time=0
2024-10-13 19:14:54: control_change channel=0 control=35 value=65 time=0
2024-10-13 19:14:54: control_change channel=0 control=35 value=65 time=0
2024-10-13 19:14:54: control_change channel=0 control=35 value=65 time=0
2024-10-13 19:14:54: control_change channel=0 control=35 value=65 time=0
2024-10-13 19:14:54: control_change channel=0 control=35 value=65 time=0
2024-10-13 19:14:54: control_change channel=0 control=35 value=65 time=0
2024-10-13 19:14:54: control_change channel=0 control=35 value=65 time=0
2024-10-13 19:14:54: control_change channel=0 control=35 value=65 time=0
2024-10-13 19:14:54: control_change channel=0 control=35 value=65 time=0
2024-10-13 19:14:54: control_change channel=0 control=35 value=65 time=0
2024-10-13 19:14:54: control_change channel=0 control=35 value=65 time=0
2024-10-13 19:14:54: control_change channel=0 control=35 value=65 time=0
2024-10-13 19:14:54: control_change channel=0 control=35 value=65 time=0
2024-10-13 19:14:54: control_change channel=0 control=35 value=65 time=0
2024-10-13 19:14:54: control_change channel=0 control=35 value=65 time=0
2024-10-13 19:14:54: control_change channel=0 control=35 value=65 time=0
2024-10-13 19:14:54: control_change channel=0 control=35 value=65 time=0
2024-10-13 19:14:54: control_change channel=0 control=35 value=65 time=0
2024-10-13 19:14:54: control_change channel=0 control=35 value=65 time=0
2024-10-13 19:14:54: control_change channel=0 control=35 value=65 time=0
2024-10-13 19:14:54: control_change channel=0 control=35 value=65 time=0
2024-10-13 19:14:54: control_change channel=0 control=35 value=65 time=0
2024-10-13 19:14:54: control_change channel=0 control=35 value=65 time=0
2024-10-13 19:14:54: control_change channel=0 control=35 value=65 time=0
2024-10-13 19:14:54: control_change channel=0 control=35 value=65 time=0
2024-10-13 19:14:54: control_change channel=0 control=35 value=65 time=0
2024-10-13 19:14:54: control_change channel=0 control=35 value=65 time=0
2024-10-13 19:14:54: control_change channel=0 control=35 value=65 time=0
2024-10-13 19:14:54: control_change channel=0 control=35 value=65 time=0
2024-10-13 19:14:54: control_change channel=0 control=35 value=65 time=0
2024-10-13 19:14:54: control_change channel=0 control=35 value=65 time=0
2024-10-13 19:14:54: control_change channel=0 control=35 value=65 time=0
2024-10-13 19:14:54: control_change channel=0 control=35 value=65 time=0
2024-10-13 19:14:54: control_change channel=0 control=35 value=65 time=0
2024-10-13 19:14:54: control_change channel=0 control=35 value=65 time=0
2024-10-13 19:14:54: control_change channel=0 control=35 value=65 time=0
2024-10-13 19:14:54: control_change channel=0 control=35 value=65 time=0
2024-10-13 19:14:54: control_change channel=0 control=35 value=65 time=0
2024-10-13 19:14:54: control_change channel=0 control=35 value=65 time=0
2024-10-13 19:14:54: control_change channel=0 control=35 value=65 time=0
2024-10-13 19:14:54: control_change channel=0 control=35 value=65 time=0
2024-10-13 19:14:54: control_change channel=0 control=35 value=65 time=0
2024-10-13 19:14:54: control_change channel=0 control=35 value=65 time=0
2024-10-13 19:14:54: control_change channel=0 control=35 value=65 time=0
2024-10-13 19:14:54: control_change channel=0 control=35 value=65 time=0
2024-10-13 19:14:54: control_change channel=0 control=35 value=65 time=0
2024-10-13 19:14:54: control_change channel=0 control=35 value=65 time=0
2024-10-13 19:14:54: control_change channel=0 control=35 value=65 time=0
2024-10-13 19:14:54: control_change channel=0 control=35 value=65 time=0
2024-10-13 19:14:54: control_change channel=0 control=35 value=65 time=0
2024-10-13 19:14:54: control_change channel=0 control=35 value=65 time=0
2024-10-13 19:14:54: control_change channel=0 control=35 value=65 time=0
2024-10-13 19:14:54: control_change channel=0 control=35 value=65 time=0
2024-10-13 19:14:54: control_change channel=0 control=35 value=65 time=0
2024-10-13 19:14:54: control_change channel=0 control=35 value=65 time=0
2024-10-13 19:14:54: control_change channel=0 control=35 value=65 time=0
2024-10-13 19:14:54: control_change channel=0 control=35 value=65 time=0
2024-10-13 19:14:54: control_change channel=0 control=35 value=65 time=0
2024-10-13 19:14:54: control_change channel=0 control=35 value=65 time=0
2024-10-13 19:14:54: control_change channel=0 control=35 value=65 time=0
2024-10-13 19:14:54: control_change channel=0 control=35 value=65 time=0
2024-10-13 19:14:54: control_change channel=0 control=35 value=65 time=0
2024-10-13 19:14:54: control_change channel=0 control=35 value=65 time=0
2024-10-13 19:14:54: control_change channel=0 control=35 value=65 time=0
2024-10-13 19:14:54: control_change channel=0 control=35 value=65 time=0
2024-10-13 19:14:54: control_change channel=0 control=35 value=65 time=0
2024-10-13 19:14:54: control_change channel=0 control=35 value=65 time=0
2024-10-13 19:14:54: control_change channel=0 control=35 value=66 time=0
2024-10-13 19:14:54: control_change channel=0 control=35 value=65 time=0
2024-10-13 19:14:54: control_change channel=0 control=35 value=65 time=0
2024-10-13 19:14:54: control_change channel=0 control=35 value=65 time=0
2024-10-13 19:14:54: control_change channel=0 control=35 value=65 time=0
2024-10-13 19:14:54: control_change channel=0 control=35 value=65 time=0
2024-10-13 19:14:54: control_change channel=0 control=35 value=65 time=0
2024-10-13 19:14:54: control_change channel=0 control=35 value=65 time=0
2024-10-13 19:14:54: control_change channel=0 control=35 value=65 time=0
2024-10-13 19:14:54: control_change channel=0 control=35 value=65 time=0
2024-10-13 19:14:54: control_change channel=0 control=35 value=65 time=0
2024-10-13 19:14:54: control_change channel=0 control=35 value=65 time=0
2024-10-13 19:14:54: control_change channel=0 control=35 value=65 time=0
2024-10-13 19:14:54: control_change channel=0 control=35 value=65 time=0
2024-10-13 19:14:54: control_change channel=0 control=35 value=65 time=0
2024-10-13 19:14:54: control_change channel=0 control=35 value=65 time=0
2024-10-13 19:14:54: control_change channel=0 control=35 value=65 time=0
2024-10-13 19:14:54: control_change channel=0 control=35 value=65 time=0
2024-10-13 19:14:54: control_change channel=0 control=35 value=65 time=0
2024-10-13 19:14:54: control_change channel=0 control=35 value=66 time=0
2024-10-13 19:14:54: control_change channel=0 control=35 value=65 time=0
2024-10-13 19:14:54: control_change channel=0 control=35 value=65 time=0
2024-10-13 19:14:54: control_change channel=0 control=35 value=65 time=0
2024-10-13 19:14:54: control_change channel=0 control=35 value=65 time=0
2024-10-13 19:14:54: control_change channel=0 control=35 value=65 time=0
2024-10-13 19:14:54: control_change channel=0 control=35 value=65 time=0
2024-10-13 19:14:54: control_change channel=0 control=35 value=65 time=0
2024-10-13 19:14:54: control_change channel=0 control=35 value=65 time=0
2024-10-13 19:14:54: control_change channel=0 control=35 value=65 time=0
2024-10-13 19:14:54: control_change channel=0 control=35 value=65 time=0
2024-10-13 19:14:54: control_change channel=0 control=35 value=65 time=0
2024-10-13 19:14:54: control_change channel=0 control=35 value=65 time=0
2024-10-13 19:14:54: control_change channel=0 control=35 value=65 time=0
2024-10-13 19:14:54: control_change channel=0 control=35 value=65 time=0
2024-10-13 19:14:54: control_change channel=0 control=35 value=65 time=0
2024-10-13 19:14:54: control_change channel=0 control=35 value=65 time=0
2024-10-13 19:14:54: control_change channel=0 control=35 value=65 time=0
2024-10-13 19:14:54: control_change channel=0 control=35 value=65 time=0
2024-10-13 19:14:54: control_change channel=0 control=35 value=65 time=0
2024-10-13 19:14:54: control_change channel=0 control=35 value=65 time=0
2024-10-13 19:14:54: control_change channel=0 control=35 value=65 time=0
2024-10-13 19:14:54: control_change channel=0 control=35 value=65 time=0
2024-10-13 19:14:54: control_change channel=0 control=35 value=65 time=0
2024-10-13 19:14:54: control_change channel=0 control=35 value=65 time=0
2024-10-13 19:14:54: control_change channel=0 control=35 value=65 time=0
2024-10-13 19:14:54: control_change channel=0 control=35 value=65 time=0
2024-10-13 19:14:54: control_change channel=0 control=35 value=65 time=0
2024-10-13 19:14:54: control_change channel=0 control=35 value=65 time=0
2024-10-13 19:14:54: control_change channel=0 control=35 value=65 time=0
2024-10-13 19:14:54: control_change channel=0 control=35 value=65 time=0
2024-10-13 19:14:54: control_change channel=0 control=35 value=65 time=0
2024-10-13 19:14:54: control_change channel=0 control=35 value=65 time=0
2024-10-13 19:14:54: control_change channel=0 control=35 value=65 time=0
2024-10-13 19:14:54: control_change channel=0 control=35 value=65 time=0
2024-10-13 19:14:54: control_change channel=0 control=35 value=65 time=0
2024-10-13 19:14:54: control_change channel=0 control=35 value=65 time=0
2024-10-13 19:14:54: control_change channel=0 control=35 value=65 time=0
2024-10-13 19:14:54: control_change channel=0 control=35 value=65 time=0
2024-10-13 19:14:54: control_change channel=0 control=35 value=65 time=0
2024-10-13 19:14:54: control_change channel=0 control=35 value=65 time=0
2024-10-13 19:14:54: control_change channel=0 control=35 value=65 time=0
2024-10-13 19:14:54: control_change channel=0 control=35 value=65 time=0
2024-10-13 19:14:54: control_change channel=0 control=35 value=65 time=0
2024-10-13 19:14:54: control_change channel=0 control=35 value=65 time=0
2024-10-13 19:14:54: control_change channel=0 control=35 value=65 time=0
2024-10-13 19:14:54: control_change channel=0 control=35 value=65 time=0
2024-10-13 19:14:54: control_change channel=0 control=35 value=65 time=0
2024-10-13 19:14:54: control_change channel=0 control=35 value=65 time=0
2024-10-13 19:14:54: control_change channel=0 control=35 value=65 time=0
2024-10-13 19:14:54: control_change channel=0 control=35 value=65 time=0
2024-10-13 19:14:54: control_change channel=0 control=35 value=65 time=0
2024-10-13 19:14:54: control_change channel=0 control=35 value=65 time=0
2024-10-13 19:14:54: control_change channel=0 control=35 value=65 time=0
2024-10-13 19:14:54: control_change channel=0 control=35 value=65 time=0
2024-10-13 19:14:54: control_change channel=0 control=35 value=65 time=0
2024-10-13 19:14:54: control_change channel=0 control=35 value=65 time=0
2024-10-13 19:14:54: control_change channel=0 control=35 value=65 time=0
2024-10-13 19:14:54: control_change channel=0 control=35 value=65 time=0
2024-10-13 19:14:54: control_change channel=0 control=35 value=65 time=0
2024-10-13 19:14:54: control_change channel=0 control=35 value=65 time=0
2024-10-13 19:14:54: control_change channel=0 control=35 value=65 time=0
2024-10-13 19:14:54: control_change channel=0 control=35 value=65 time=0
2024-10-13 19:14:54: control_change channel=0 control=35 value=65 time=0
2024-10-13 19:14:54: control_change channel=0 control=35 value=65 time=0
2024-10-13 19:14:54: control_change channel=0 control=35 value=65 time=0
2024-10-13 19:14:54: control_change channel=0 control=35 value=65 time=0
2024-10-13 19:14:54: control_change channel=0 control=35 value=65 time=0
2024-10-13 19:14:54: control_change channel=0 control=35 value=65 time=0
2024-10-13 19:14:54: control_change channel=0 control=35 value=65 time=0
2024-10-13 19:14:54: control_change channel=0 control=35 value=65 time=0
2024-10-13 19:14:54: control_change channel=0 control=35 value=65 time=0
2024-10-13 19:14:54: control_change channel=0 control=35 value=65 time=0
2024-10-13 19:14:54: control_change channel=0 control=35 value=65 time=0
2024-10-13 19:14:54: control_change channel=0 control=35 value=65 time=0
2024-10-13 19:14:54: control_change channel=0 control=35 value=65 time=0
2024-10-13 19:14:54: control_change channel=0 control=35 value=65 time=0
2024-10-13 19:14:54: control_change channel=0 control=35 value=65 time=0
2024-10-13 19:14:54: control_change channel=0 control=35 value=65 time=0
2024-10-13 19:14:54: control_change channel=0 control=35 value=65 time=0
2024-10-13 19:14:54: control_change channel=0 control=35 value=65 time=0
2024-10-13 19:14:54: control_change channel=0 control=35 value=65 time=0
2024-10-13 19:14:54: control_change channel=0 control=35 value=65 time=0
2024-10-13 19:14:54: control_change channel=0 control=35 value=65 time=0
2024-10-13 19:14:54: control_change channel=0 control=35 value=65 time=0
2024-10-13 19:14:54: control_change channel=0 control=35 value=65 time=0
2024-10-13 19:14:54: control_change channel=0 control=35 value=65 time=0
2024-10-13 19:14:54: control_change channel=0 control=35 value=65 time=0
2024-10-13 19:14:54: control_change channel=0 control=35 value=65 time=0
2024-10-13 19:14:54: control_change channel=0 control=35 value=65 time=0
2024-10-13 19:14:54: control_change channel=0 control=35 value=65 time=0
2024-10-13 19:14:54: control_change channel=0 control=35 value=65 time=0
2024-10-13 19:14:54: control_change channel=0 control=35 value=65 time=0
2024-10-13 19:14:54: control_change channel=0 control=35 value=65 time=0
2024-10-13 19:14:54: control_change channel=0 control=35 value=65 time=0
2024-10-13 19:14:54: control_change channel=0 control=35 value=65 time=0
2024-10-13 19:14:54: control_change channel=0 control=35 value=65 time=0
2024-10-13 19:14:54: control_change channel=0 control=35 value=65 time=0
2024-10-13 19:14:54: control_change channel=0 control=35 value=65 time=0
2024-10-13 19:14:54: control_change channel=0 control=35 value=65 time=0
2024-10-13 19:14:54: control_change channel=0 control=35 value=65 time=0
2024-10-13 19:14:54: control_change channel=0 control=35 value=65 time=0
2024-10-13 19:14:54: control_change channel=0 control=35 value=65 time=0
2024-10-13 19:14:54: control_change channel=0 control=35 value=65 time=0
2024-10-13 19:14:54: control_change channel=0 control=35 value=65 time=0
2024-10-13 19:14:54: control_change channel=0 control=35 value=65 time=0
2024-10-13 19:14:54: control_change channel=0 control=35 value=65 time=0
2024-10-13 19:14:54: control_change channel=0 control=35 value=65 time=0
2024-10-13 19:14:54: control_change channel=0 control=35 value=65 time=0
2024-10-13 19:14:54: control_change channel=0 control=35 value=65 time=0
2024-10-13 19:14:54: control_change channel=0 control=35 value=65 time=0
2024-10-13 19:14:54: control_change channel=0 control=35 value=65 time=0
2024-10-13 19:14:54: control_change channel=0 control=35 value=65 time=0
2024-10-13 19:14:54: control_change channel=0 control=35 value=65 time=0
2024-10-13 19:14:54: control_change channel=0 control=35 value=65 time=0
2024-10-13 19:14:54: control_change channel=0 control=35 value=65 time=0
2024-10-13 19:14:54: control_change channel=0 control=35 value=65 time=0
2024-10-13 19:14:54: control_change channel=0 control=35 value=65 time=0
2024-10-13 19:14:54: control_change channel=0 control=35 value=65 time=0
2024-10-13 19:14:54: control_change channel=0 control=35 value=65 time=0
2024-10-13 19:14:54: control_change channel=0 control=35 value=65 time=0
2024-10-13 19:14:54: control_change channel=0 control=35 value=65 time=0
2024-10-13 19:14:54: control_change channel=0 control=35 value=65 time=0
2024-10-13 19:14:54: control_change channel=0 control=35 value=65 time=0
2024-10-13 19:14:54: control_change channel=0 control=35 value=65 time=0
2024-10-13 19:14:54: control_change channel=0 control=35 value=65 time=0
2024-10-13 19:14:54: control_change channel=0 control=35 value=65 time=0
2024-10-13 19:14:54: control_change channel=0 control=35 value=65 time=0
2024-10-13 19:14:54: control_change channel=0 control=35 value=65 time=0
2024-10-13 19:14:54: control_change channel=0 control=35 value=65 time=0
2024-10-13 19:14:54: control_change channel=0 control=35 value=65 time=0
2024-10-13 19:14:54: control_change channel=0 control=35 value=65 time=0
2024-10-13 19:14:54: control_change channel=0 control=35 value=65 time=0
2024-10-13 19:14:54: control_change channel=0 control=35 value=65 time=0
2024-10-13 19:14:54: control_change channel=0 control=35 value=65 time=0
2024-10-13 19:14:54: control_change channel=0 control=35 value=65 time=0
2024-10-13 19:14:54: control_change channel=0 control=35 value=65 time=0
2024-10-13 19:14:54: control_change channel=0 control=35 value=65 time=0
2024-10-13 19:14:54: control_change channel=0 control=35 value=65 time=0
2024-10-13 19:14:54: control_change channel=0 control=35 value=65 time=0
2024-10-13 19:14:54: control_change channel=0 control=35 value=65 time=0
2024-10-13 19:14:54: control_change channel=0 control=35 value=65 time=0
2024-10-13 19:14:54: control_change channel=0 control=35 value=65 time=0
2024-10-13 19:14:54: control_change channel=0 control=35 value=65 time=0
2024-10-13 19:14:54: control_change channel=0 control=35 value=65 time=0
2024-10-13 19:14:54: control_change channel=0 control=35 value=65 time=0
2024-10-13 19:14:54: control_change channel=0 control=35 value=65 time=0
2024-10-13 19:14:54: control_change channel=0 control=35 value=65 time=0
2024-10-13 19:14:54: control_change channel=0 control=35 value=65 time=0
2024-10-13 19:14:54: control_change channel=0 control=35 value=65 time=0
2024-10-13 19:14:54: control_change channel=0 control=35 value=65 time=0
2024-10-13 19:14:54: control_change channel=0 control=35 value=65 time=0
2024-10-13 19:14:54: control_change channel=0 control=35 value=65 time=0
2024-10-13 19:14:54: control_change channel=0 control=35 value=65 time=0
2024-10-13 19:14:54: control_change channel=0 control=35 value=65 time=0
2024-10-13 19:14:54: control_change channel=0 control=35 value=65 time=0
2024-10-13 19:14:54: control_change channel=0 control=35 value=65 time=0
2024-10-13 19:14:54: control_change channel=0 control=35 value=65 time=0
2024-10-13 19:14:54: control_change channel=0 control=35 value=65 time=0
2024-10-13 19:14:54: control_change channel=0 control=35 value=65 time=0
2024-10-13 19:14:54: control_change channel=0 control=35 value=65 time=0
2024-10-13 19:14:54: control_change channel=0 control=35 value=65 time=0
2024-10-13 19:14:54: control_change channel=0 control=35 value=65 time=0
2024-10-13 19:14:54: control_change channel=0 control=35 value=65 time=0
2024-10-13 19:14:54: control_change channel=0 control=35 value=65 time=0
2024-10-13 19:14:54: control_change channel=0 control=35 value=65 time=0
2024-10-13 19:14:54: control_change channel=0 control=35 value=65 time=0
2024-10-13 19:14:54: control_change channel=0 control=35 value=65 time=0
2024-10-13 19:14:54: control_change channel=0 control=35 value=65 time=0
2024-10-13 19:14:54: control_change channel=0 control=35 value=65 time=0
2024-10-13 19:14:54: control_change channel=0 control=35 value=65 time=0
2024-10-13 19:14:54: control_change channel=0 control=35 value=65 time=0
2024-10-13 19:14:54: control_change channel=0 control=35 value=65 time=0
2024-10-13 19:14:54: control_change channel=0 control=35 value=63 time=0
2024-10-13 19:14:54: control_change channel=0 control=35 value=63 time=0
2024-10-13 19:14:54: control_change channel=0 control=35 value=63 time=0
2024-10-13 19:14:54: control_change channel=0 control=35 value=63 time=0
2024-10-13 19:14:54: control_change channel=0 control=35 value=63 time=0
2024-10-13 19:14:54: control_change channel=0 control=35 value=63 time=0
2024-10-13 19:14:54: control_change channel=0 control=35 value=63 time=0
2024-10-13 19:14:54: control_change channel=0 control=35 value=63 time=0
2024-10-13 19:14:54: control_change channel=0 control=35 value=63 time=0
2024-10-13 19:14:54: control_change channel=0 control=35 value=63 time=0
2024-10-13 19:14:54: control_change channel=0 control=35 value=63 time=0
2024-10-13 19:14:54: control_change channel=0 control=35 value=63 time=0
2024-10-13 19:14:54: control_change channel=0 control=35 value=63 time=0
2024-10-13 19:14:54: control_change channel=0 control=35 value=63 time=0
2024-10-13 19:14:54: control_change channel=0 control=35 value=63 time=0
2024-10-13 19:14:54: control_change channel=0 control=35 value=63 time=0
2024-10-13 19:14:54: control_change channel=0 control=35 value=63 time=0
2024-10-13 19:14:54: control_change channel=0 control=35 value=63 time=0
2024-10-13 19:14:54: control_change channel=0 control=35 value=63 time=0
2024-10-13 19:14:54: control_change channel=0 control=35 value=63 time=0
2024-10-13 19:14:54: control_change channel=0 control=35 value=63 time=0
2024-10-13 19:14:54: control_change channel=0 control=35 value=63 time=0
2024-10-13 19:14:54: control_change channel=0 control=35 value=63 time=0
2024-10-13 19:14:54: control_change channel=0 control=35 value=63 time=0
2024-10-13 19:14:54: control_change channel=0 control=35 value=63 time=0
2024-10-13 19:14:54: control_change channel=0 control=35 value=63 time=0
2024-10-13 19:14:54: control_change channel=0 control=35 value=63 time=0
2024-10-13 19:14:54: control_change channel=0 control=35 value=63 time=0
2024-10-13 19:14:54: control_change channel=0 control=35 value=63 time=0
2024-10-13 19:14:54: control_change channel=0 control=35 value=63 time=0
2024-10-13 19:14:54: control_change channel=0 control=35 value=63 time=0
2024-10-13 19:14:54: control_change channel=0 control=35 value=63 time=0
2024-10-13 19:14:54: control_change channel=0 control=35 value=63 time=0
2024-10-13 19:14:54: control_change channel=0 control=35 value=63 time=0
2024-10-13 19:14:54: control_change channel=0 control=35 value=63 time=0
2024-10-13 19:14:54: control_change channel=0 control=35 value=63 time=0
2024-10-13 19:14:54: control_change channel=0 control=35 value=63 time=0
2024-10-13 19:14:54: control_change channel=0 control=35 value=63 time=0
2024-10-13 19:14:54: control_change channel=0 control=35 value=63 time=0
2024-10-13 19:14:54: control_change channel=0 control=35 value=63 time=0
2024-10-13 19:14:54: control_change channel=0 control=35 value=63 time=0
2024-10-13 19:14:54: control_change channel=0 control=35 value=63 time=0
2024-10-13 19:14:54: control_change channel=0 control=35 value=63 time=0
2024-10-13 19:14:54: control_change channel=0 control=35 value=63 time=0
2024-10-13 19:14:54: control_change channel=0 control=35 value=63 time=0
2024-10-13 19:14:54: control_change channel=0 control=35 value=63 time=0
2024-10-13 19:14:54: control_change channel=0 control=35 value=63 time=0
2024-10-13 19:14:54: control_change channel=0 control=35 value=63 time=0
2024-10-13 19:14:54: control_change channel=0 control=35 value=63 time=0
2024-10-13 19:14:54: control_change channel=0 control=35 value=63 time=0
2024-10-13 19:14:54: control_change channel=0 control=35 value=63 time=0
2024-10-13 19:14:54: control_change channel=0 control=35 value=63 time=0
2024-10-13 19:14:54: control_change channel=0 control=35 value=63 time=0
2024-10-13 19:14:54: control_change channel=0 control=35 value=63 time=0
2024-10-13 19:14:54: control_change channel=0 control=35 value=63 time=0
2024-10-13 19:14:54: control_change channel=0 control=35 value=63 time=0
2024-10-13 19:14:54: control_change channel=0 control=35 value=63 time=0
2024-10-13 19:14:54: control_change channel=0 control=35 value=63 time=0
2024-10-13 19:14:54: control_change channel=0 control=35 value=63 time=0
2024-10-13 19:14:54: control_change channel=0 control=35 value=63 time=0
2024-10-13 19:14:54: control_change channel=0 control=35 value=63 time=0
2024-10-13 19:14:54: control_change channel=0 control=35 value=63 time=0
2024-10-13 19:14:54: control_change channel=0 control=35 value=63 time=0
2024-10-13 19:14:54: control_change channel=0 control=35 value=63 time=0
2024-10-13 19:14:54: control_change channel=0 control=35 value=63 time=0
2024-10-13 19:14:54: control_change channel=0 control=35 value=63 time=0
2024-10-13 19:14:54: control_change channel=0 control=35 value=63 time=0
2024-10-13 19:14:54: control_change channel=0 control=35 value=63 time=0
2024-10-13 19:14:54: control_change channel=0 control=35 value=63 time=0
2024-10-13 19:14:54: control_change channel=0 control=35 value=63 time=0
2024-10-13 19:14:54: control_change channel=0 control=35 value=63 time=0
2024-10-13 19:14:54: control_change channel=0 control=35 value=63 time=0
2024-10-13 19:14:54: control_change channel=0 control=35 value=63 time=0
2024-10-13 19:14:54: control_change channel=0 control=35 value=63 time=0
2024-10-13 19:14:54: control_change channel=0 control=35 value=63 time=0
2024-10-13 19:14:54: control_change channel=0 control=35 value=63 time=0
2024-10-13 19:14:54: control_change channel=0 control=35 value=63 time=0
2024-10-13 19:14:54: control_change channel=0 control=35 value=63 time=0
2024-10-13 19:14:54: control_change channel=0 control=35 value=63 time=0
2024-10-13 19:14:54: control_change channel=0 control=35 value=63 time=0
2024-10-13 19:14:54: control_change channel=0 control=35 value=63 time=0
2024-10-13 19:14:54: control_change channel=0 control=35 value=63 time=0
2024-10-13 19:14:54: control_change channel=0 control=35 value=63 time=0
2024-10-13 19:14:54: control_change channel=0 control=35 value=63 time=0
2024-10-13 19:14:54: control_change channel=0 control=35 value=63 time=0
2024-10-13 19:14:54: control_change channel=0 control=35 value=63 time=0
2024-10-13 19:14:54: control_change channel=0 control=35 value=63 time=0
2024-10-13 19:14:54: control_change channel=0 control=35 value=63 time=0
2024-10-13 19:14:54: control_change channel=0 control=35 value=63 time=0
2024-10-13 19:14:54: control_change channel=0 control=35 value=63 time=0
2024-10-13 19:14:54: control_change channel=0 control=35 value=63 time=0
2024-10-13 19:14:54: control_change channel=0 control=35 value=63 time=0
2024-10-13 19:14:54: control_change channel=0 control=35 value=63 time=0
2024-10-13 19:14:54: control_change channel=0 control=35 value=63 time=0
2024-10-13 19:14:54: control_change channel=0 control=35 value=63 time=0
2024-10-13 19:14:54: control_change channel=0 control=35 value=63 time=0
2024-10-13 19:14:54: control_change channel=0 control=35 value=63 time=0
2024-10-13 19:14:54: control_change channel=0 control=35 value=63 time=0
2024-10-13 19:14:54: control_change channel=0 control=35 value=63 time=0
2024-10-13 19:14:54: control_change channel=0 control=35 value=63 time=0
2024-10-13 19:14:54: control_change channel=0 control=35 value=63 time=0
2024-10-13 19:14:54: control_change channel=0 control=35 value=63 time=0
2024-10-13 19:14:54: control_change channel=0 control=35 value=63 time=0
2024-10-13 19:14:54: control_change channel=0 control=35 value=63 time=0
2024-10-13 19:14:54: control_change channel=0 control=35 value=63 time=0
2024-10-13 19:14:54: control_change channel=0 control=35 value=63 time=0
2024-10-13 19:14:54: control_change channel=0 control=35 value=63 time=0
2024-10-13 19:14:54: control_change channel=0 control=35 value=63 time=0
2024-10-13 19:14:54: control_change channel=0 control=35 value=63 time=0
2024-10-13 19:14:54: control_change channel=0 control=35 value=63 time=0
2024-10-13 19:14:54: control_change channel=0 control=35 value=63 time=0
2024-10-13 19:14:54: control_change channel=0 control=35 value=63 time=0
2024-10-13 19:14:54: control_change channel=0 control=35 value=62 time=0
2024-10-13 19:14:54: control_change channel=0 control=35 value=63 time=0
2024-10-13 19:14:54: control_change channel=0 control=35 value=63 time=0
2024-10-13 19:14:54: control_change channel=0 control=35 value=63 time=0
2024-10-13 19:14:54: control_change channel=0 control=35 value=63 time=0
2024-10-13 19:14:54: control_change channel=0 control=35 value=63 time=0
2024-10-13 19:14:54: control_change channel=0 control=35 value=63 time=0
2024-10-13 19:14:54: control_change channel=0 control=35 value=62 time=0
2024-10-13 19:14:54: control_change channel=0 control=35 value=63 time=0
2024-10-13 19:14:54: control_change channel=0 control=35 value=63 time=0
2024-10-13 19:14:54: control_change channel=0 control=35 value=63 time=0
2024-10-13 19:14:54: control_change channel=0 control=35 value=63 time=0
2024-10-13 19:14:54: control_change channel=0 control=35 value=63 time=0
2024-10-13 19:14:54: control_change channel=0 control=35 value=63 time=0
2024-10-13 19:14:54: control_change channel=0 control=35 value=63 time=0
2024-10-13 19:14:54: control_change channel=0 control=35 value=63 time=0
2024-10-13 19:14:54: control_change channel=0 control=35 value=63 time=0
2024-10-13 19:14:54: control_change channel=0 control=35 value=63 time=0
2024-10-13 19:14:54: control_change channel=0 control=35 value=63 time=0
2024-10-13 19:14:54: control_change channel=0 control=35 value=63 time=0
2024-10-13 19:14:54: control_change channel=0 control=35 value=63 time=0
2024-10-13 19:14:54: control_change channel=0 control=35 value=63 time=0
2024-10-13 19:14:54: control_change channel=0 control=35 value=63 time=0
2024-10-13 19:14:54: control_change channel=0 control=35 value=63 time=0
2024-10-13 19:14:54: control_change channel=0 control=35 value=63 time=0
2024-10-13 19:14:54: control_change channel=0 control=35 value=63 time=0
2024-10-13 19:14:54: control_change channel=0 control=35 value=63 time=0
2024-10-13 19:14:54: control_change channel=0 control=35 value=63 time=0
2024-10-13 19:14:54: control_change channel=0 control=35 value=63 time=0
2024-10-13 19:14:54: control_change channel=0 control=35 value=63 time=0
2024-10-13 19:14:54: control_change channel=0 control=35 value=63 time=0
2024-10-13 19:14:54: control_change channel=0 control=35 value=63 time=0
2024-10-13 19:14:54: control_change channel=0 control=35 value=63 time=0
2024-10-13 19:14:54: control_change channel=0 control=35 value=63 time=0
2024-10-13 19:14:54: control_change channel=0 control=35 value=63 time=0
2024-10-13 19:14:54: control_change channel=0 control=35 value=63 time=0
2024-10-13 19:14:54: control_change channel=0 control=35 value=63 time=0
2024-10-13 19:14:54: control_change channel=0 control=35 value=63 time=0
2024-10-13 19:14:54: control_change channel=0 control=35 value=62 time=0
2024-10-13 19:14:54: control_change channel=0 control=35 value=63 time=0
2024-10-13 19:14:54: control_change channel=0 control=35 value=63 time=0
2024-10-13 19:14:54: control_change channel=0 control=35 value=63 time=0
2024-10-13 19:14:54: control_change channel=0 control=35 value=63 time=0
2024-10-13 19:14:54: control_change channel=0 control=35 value=63 time=0
2024-10-13 19:14:54: control_change channel=0 control=35 value=63 time=0
2024-10-13 19:14:54: control_change channel=0 control=35 value=63 time=0
2024-10-13 19:14:54: control_change channel=0 control=35 value=63 time=0
2024-10-13 19:14:54: control_change channel=0 control=35 value=63 time=0
2024-10-13 19:14:54: control_change channel=0 control=35 value=63 time=0
2024-10-13 19:14:54: control_change channel=0 control=35 value=63 time=0
2024-10-13 19:14:54: control_change channel=0 control=35 value=63 time=0
2024-10-13 19:14:54: control_change channel=0 control=35 value=63 time=0
2024-10-13 19:14:54: control_change channel=0 control=35 value=63 time=0
2024-10-13 19:14:54: control_change channel=0 control=35 value=63 time=0
2024-10-13 19:14:54: control_change channel=0 control=35 value=63 time=0
2024-10-13 19:14:54: control_change channel=0 control=35 value=63 time=0
2024-10-13 19:14:54: control_change channel=0 control=35 value=63 time=0
2024-10-13 19:14:54: control_change channel=0 control=35 value=63 time=0
2024-10-13 19:14:54: control_change channel=0 control=35 value=63 time=0
2024-10-13 19:14:54: control_change channel=0 control=35 value=63 time=0
2024-10-13 19:14:54: control_change channel=0 control=35 value=63 time=0
2024-10-13 19:14:54: control_change channel=0 control=35 value=63 time=0
2024-10-13 19:14:54: control_change channel=0 control=35 value=63 time=0
2024-10-13 19:14:54: control_change channel=0 control=35 value=63 time=0
2024-10-13 19:14:54: control_change channel=0 control=35 value=63 time=0
2024-10-13 19:14:54: control_change channel=0 control=35 value=62 time=0
2024-10-13 19:14:54: control_change channel=0 control=35 value=63 time=0
2024-10-13 19:14:54: control_change channel=0 control=35 value=63 time=0
2024-10-13 19:14:54: control_change channel=0 control=35 value=62 time=0
2024-10-13 19:14:54: control_change channel=0 control=35 value=63 time=0
2024-10-13 19:14:54: control_change channel=0 control=35 value=63 time=0
2024-10-13 19:14:54: control_change channel=0 control=35 value=62 time=0
2024-10-13 19:14:54: control_change channel=0 control=35 value=63 time=0
2024-10-13 19:14:54: control_change channel=0 control=35 value=63 time=0
2024-10-13 19:14:54: control_change channel=0 control=35 value=63 time=0
2024-10-13 19:14:54: control_change channel=0 control=35 value=63 time=0
2024-10-13 19:14:54: control_change channel=0 control=35 value=63 time=0
2024-10-13 19:14:54: control_change channel=0 control=35 value=63 time=0
2024-10-13 19:14:54: control_change channel=0 control=35 value=63 time=0
2024-10-13 19:14:54: control_change channel=0 control=35 value=63 time=0
2024-10-13 19:14:54: control_change channel=0 control=35 value=63 time=0
2024-10-13 19:14:54: control_change channel=0 control=35 value=63 time=0
2024-10-13 19:14:54: control_change channel=0 control=35 value=63 time=0
2024-10-13 19:14:54: control_change channel=0 control=35 value=63 time=0
2024-10-13 19:14:54: control_change channel=0 control=35 value=63 time=0
2024-10-13 19:14:54: control_change channel=0 control=35 value=63 time=0
2024-10-13 19:14:54: control_change channel=0 control=35 value=63 time=0
2024-10-13 19:14:54: control_change channel=0 control=35 value=63 time=0
2024-10-13 19:14:54: control_change channel=0 control=35 value=63 time=0
2024-10-13 19:14:54: control_change channel=0 control=35 value=63 time=0
2024-10-13 19:14:54: control_change channel=0 control=35 value=63 time=0
2024-10-13 19:14:54: control_change channel=0 control=35 value=63 time=0
2024-10-13 19:14:54: control_change channel=0 control=35 value=63 time=0
2024-10-13 19:14:54: control_change channel=0 control=35 value=63 time=0
2024-10-13 19:14:54: control_change channel=0 control=35 value=63 time=0
2024-10-13 19:14:54: control_change channel=0 control=35 value=63 time=0
2024-10-13 19:14:54: control_change channel=0 control=35 value=63 time=0
2024-10-13 19:14:54: control_change channel=0 control=35 value=63 time=0
2024-10-13 19:14:54: control_change channel=0 control=35 value=63 time=0
2024-10-13 19:14:54: control_change channel=0 control=35 value=63 time=0
2024-10-13 19:14:54: control_change channel=0 control=35 value=63 time=0
2024-10-13 19:14:54: control_change channel=0 control=35 value=63 time=0
2024-10-13 19:14:54: control_change channel=0 control=35 value=63 time=0
2024-10-13 19:14:54: control_change channel=0 control=35 value=63 time=0
2024-10-13 19:14:54: control_change channel=0 control=35 value=63 time=0
2024-10-13 19:14:54: control_change channel=0 control=35 value=63 time=0
2024-10-13 19:14:54: control_change channel=0 control=35 value=63 time=0
2024-10-13 19:14:54: control_change channel=0 control=35 value=63 time=0
2024-10-13 19:14:54: control_change channel=0 control=35 value=63 time=0
2024-10-13 19:14:54: control_change channel=0 control=35 value=63 time=0
2024-10-13 19:14:54: control_change channel=0 control=35 value=63 time=0
2024-10-13 19:14:54: control_change channel=0 control=35 value=63 time=0
2024-10-13 19:14:54: control_change channel=0 control=35 value=63 time=0
2024-10-13 19:14:54: control_change channel=0 control=35 value=63 time=0
2024-10-13 19:14:54: control_change channel=0 control=35 value=63 time=0
2024-10-13 19:14:54: control_change channel=0 control=35 value=63 time=0
2024-10-13 19:14:54: control_change channel=0 control=35 value=63 time=0
2024-10-13 19:14:54: control_change channel=0 control=35 value=63 time=0
2024-10-13 19:14:54: control_change channel=0 control=35 value=63 time=0
2024-10-13 19:14:54: control_change channel=0 control=35 value=63 time=0
2024-10-13 19:14:54: control_change channel=0 control=35 value=63 time=0
2024-10-13 19:14:54: control_change channel=0 control=35 value=63 time=0
2024-10-13 19:14:55: control_change channel=0 control=35 value=63 time=0
2024-10-13 19:14:55: control_change channel=0 control=35 value=63 time=0
2024-10-13 19:14:55: control_change channel=0 control=35 value=63 time=0
2024-10-13 19:14:55: control_change channel=0 control=35 value=63 time=0
2024-10-13 19:14:55: control_change channel=0 control=35 value=63 time=0
2024-10-13 19:14:55: control_change channel=0 control=35 value=63 time=0
2024-10-13 19:14:55: control_change channel=0 control=35 value=63 time=0
2024-10-13 19:14:55: control_change channel=0 control=35 value=63 time=0
2024-10-13 19:14:55: control_change channel=0 control=35 value=63 time=0
2024-10-13 19:14:55: control_change channel=0 control=35 value=63 time=0
2024-10-13 19:14:55: control_change channel=0 control=35 value=63 time=0
2024-10-13 19:14:55: control_change channel=0 control=35 value=63 time=0
2024-10-13 19:14:55: control_change channel=0 control=35 value=63 time=0
2024-10-13 19:14:55: control_change channel=0 control=35 value=63 time=0
2024-10-13 19:14:55: control_change channel=0 control=35 value=63 time=0
2024-10-13 19:14:55: control_change channel=0 control=35 value=63 time=0
2024-10-13 19:14:55: control_change channel=0 control=35 value=63 time=0
2024-10-13 19:14:55: control_change channel=0 control=35 value=63 time=0
2024-10-13 19:14:55: control_change channel=0 control=35 value=63 time=0
2024-10-13 19:14:55: control_change channel=0 control=35 value=63 time=0
2024-10-13 19:14:55: control_change channel=0 control=35 value=63 time=0
2024-10-13 19:14:55: control_change channel=0 control=35 value=63 time=0
2024-10-13 19:14:55: control_change channel=0 control=35 value=63 time=0
2024-10-13 19:14:55: control_change channel=0 control=35 value=63 time=0
2024-10-13 19:14:55: control_change channel=0 control=35 value=63 time=0
2024-10-13 19:14:55: control_change channel=0 control=35 value=63 time=0
2024-10-13 19:14:55: control_change channel=0 control=35 value=63 time=0
2024-10-13 19:14:55: control_change channel=0 control=35 value=63 time=0
2024-10-13 19:14:55: control_change channel=0 control=35 value=63 time=0
2024-10-13 19:14:55: control_change channel=0 control=35 value=63 time=0
2024-10-13 19:14:55: control_change channel=0 control=35 value=63 time=0
2024-10-13 19:14:55: control_change channel=0 control=35 value=65 time=0
2024-10-13 19:14:55: control_change channel=0 control=35 value=63 time=0
2024-10-13 19:14:55: control_change channel=0 control=35 value=63 time=0
2024-10-13 19:14:55: control_change channel=0 control=35 value=63 time=0
2024-10-13 19:14:55: control_change channel=0 control=35 value=63 time=0
2024-10-13 19:14:55: control_change channel=0 control=35 value=63 time=0
2024-10-13 19:14:55: control_change channel=0 control=35 value=63 time=0
2024-10-13 19:14:55: control_change channel=0 control=35 value=63 time=0
2024-10-13 19:14:55: control_change channel=0 control=35 value=63 time=0
2024-10-13 19:14:55: control_change channel=0 control=35 value=63 time=0
2024-10-13 19:14:55: control_change channel=0 control=35 value=63 time=0
2024-10-13 19:14:55: control_change channel=0 control=33 value=65 time=0
2024-10-13 19:14:56: control_change channel=0 control=15 value=42 time=0
2024-10-13 19:14:56: control_change channel=0 control=47 value=39 time=0
2024-10-13 19:14:56: control_change channel=0 control=15 value=42 time=0
2024-10-13 19:14:56: control_change channel=0 control=47 value=91 time=0
2024-10-13 19:14:56: control_change channel=0 control=15 value=44 time=0
2024-10-13 19:14:56: control_change channel=0 control=47 value=6 time=0
2024-10-13 19:14:56: control_change channel=0 control=15 value=46 time=0
2024-10-13 19:14:56: control_change channel=0 control=47 value=7 time=0
2024-10-13 19:14:56: control_change channel=0 control=15 value=46 time=0
2024-10-13 19:14:56: control_change channel=0 control=47 value=127 time=0
2024-10-13 19:14:56: control_change channel=0 control=15 value=49 time=0
2024-10-13 19:14:56: control_change channel=0 control=47 value=0 time=0
2024-10-13 19:14:56: control_change channel=0 control=15 value=50 time=0
2024-10-13 19:14:56: control_change channel=0 control=47 value=78 time=0
2024-10-13 19:14:56: control_change channel=0 control=15 value=52 time=0
2024-10-13 19:14:56: control_change channel=0 control=47 value=10 time=0
2024-10-13 19:14:56: control_change channel=0 control=15 value=53 time=0
2024-10-13 19:14:56: control_change channel=0 control=47 value=2 time=0
2024-10-13 19:14:56: control_change channel=0 control=15 value=53 time=0
2024-10-13 19:14:56: control_change channel=0 control=47 value=88 time=0
2024-10-13 19:14:56: control_change channel=0 control=15 value=54 time=0
2024-10-13 19:14:56: control_change channel=0 control=47 value=80 time=0
2024-10-13 19:14:56: control_change channel=0 control=15 value=56 time=0
2024-10-13 19:14:56: control_change channel=0 control=47 value=12 time=0
2024-10-13 19:14:56: control_change channel=0 control=15 value=57 time=0
2024-10-13 19:14:56: control_change channel=0 control=47 value=39 time=0
2024-10-13 19:14:56: control_change channel=0 control=15 value=58 time=0
2024-10-13 19:14:56: control_change channel=0 control=47 value=82 time=0
2024-10-13 19:14:56: control_change channel=0 control=15 value=59 time=0
2024-10-13 19:14:56: control_change channel=0 control=47 value=5 time=0
2024-10-13 19:14:56: control_change channel=0 control=15 value=59 time=0
2024-10-13 19:14:56: control_change channel=0 control=47 value=125 time=0
2024-10-13 19:14:56: control_change channel=0 control=15 value=60 time=0
2024-10-13 19:14:56: control_change channel=0 control=47 value=100 time=0
2024-10-13 19:14:56: control_change channel=0 control=15 value=61 time=0
2024-10-13 19:14:56: control_change channel=0 control=47 value=109 time=0
2024-10-13 19:14:56: control_change channel=0 control=15 value=63 time=0
2024-10-13 19:14:56: control_change channel=0 control=47 value=25 time=0
2024-10-13 19:14:56: control_change channel=0 control=15 value=64 time=0
2024-10-13 19:14:56: control_change channel=0 control=47 value=0 time=0
2024-10-13 19:14:56: control_change channel=0 control=15 value=64 time=0
2024-10-13 19:14:56: control_change channel=0 control=47 value=85 time=0
2024-10-13 19:14:56: control_change channel=0 control=15 value=66 time=0
2024-10-13 19:14:56: control_change channel=0 control=47 value=1 time=0
2024-10-13 19:14:56: control_change channel=0 control=15 value=68 time=0
2024-10-13 19:14:56: control_change channel=0 control=47 value=36 time=0
2024-10-13 19:14:56: control_change channel=0 control=15 value=70 time=0
2024-10-13 19:14:56: control_change channel=0 control=47 value=20 time=0
2024-10-13 19:14:56: control_change channel=0 control=15 value=71 time=0
2024-10-13 19:14:56: control_change channel=0 control=47 value=97 time=0
2024-10-13 19:14:56: control_change channel=0 control=15 value=73 time=0
2024-10-13 19:14:56: control_change channel=0 control=47 value=47 time=0
2024-10-13 19:14:56: control_change channel=0 control=15 value=74 time=0
2024-10-13 19:14:56: control_change channel=0 control=47 value=22 time=0
2024-10-13 19:14:56: control_change channel=0 control=15 value=75 time=0
2024-10-13 19:14:56: control_change channel=0 control=47 value=82 time=0
2024-10-13 19:14:56: control_change channel=0 control=15 value=77 time=0
2024-10-13 19:14:56: control_change channel=0 control=47 value=32 time=0
2024-10-13 19:14:56: control_change channel=0 control=15 value=78 time=0
2024-10-13 19:14:56: control_change channel=0 control=47 value=93 time=0
2024-10-13 19:14:56: control_change channel=0 control=15 value=80 time=0
2024-10-13 19:14:56: control_change channel=0 control=47 value=8 time=0
2024-10-13 19:14:56: control_change channel=0 control=15 value=80 time=0
2024-10-13 19:14:56: control_change channel=0 control=47 value=94 time=0
2024-10-13 19:14:56: control_change channel=0 control=15 value=82 time=0
2024-10-13 19:14:56: control_change channel=0 control=47 value=9 time=0
2024-10-13 19:14:56: control_change channel=0 control=15 value=83 time=0
2024-10-13 19:14:56: control_change channel=0 control=47 value=18 time=0
2024-10-13 19:14:56: control_change channel=0 control=15 value=83 time=0
2024-10-13 19:14:56: control_change channel=0 control=47 value=121 time=0
2024-10-13 19:14:56: control_change channel=0 control=15 value=84 time=0
2024-10-13 19:14:56: control_change channel=0 control=47 value=44 time=0
2024-10-13 19:14:56: control_change channel=0 control=15 value=84 time=0
2024-10-13 19:14:56: control_change channel=0 control=47 value=96 time=0
2024-10-13 19:14:56: control_change channel=0 control=15 value=85 time=0
2024-10-13 19:14:56: control_change channel=0 control=47 value=19 time=0
2024-10-13 19:14:56: control_change channel=0 control=15 value=85 time=0
2024-10-13 19:14:56: control_change channel=0 control=47 value=88 time=0
2024-10-13 19:14:56: control_change channel=0 control=15 value=86 time=0
2024-10-13 19:14:56: control_change channel=0 control=47 value=11 time=0
2024-10-13 19:14:56: control_change channel=0 control=15 value=86 time=0
2024-10-13 19:14:56: control_change channel=0 control=47 value=63 time=0
2024-10-13 19:14:56: control_change channel=0 control=15 value=86 time=0
2024-10-13 19:14:56: control_change channel=0 control=47 value=114 time=0
2024-10-13 19:14:56: control_change channel=0 control=15 value=87 time=0
2024-10-13 19:14:56: control_change channel=0 control=47 value=55 time=0
2024-10-13 19:14:56: control_change channel=0 control=15 value=88 time=0
2024-10-13 19:14:56: control_change channel=0 control=47 value=12 time=0
2024-10-13 19:14:56: control_change channel=0 control=15 value=89 time=0
2024-10-13 19:14:56: control_change channel=0 control=47 value=21 time=0
2024-10-13 19:14:56: control_change channel=0 control=15 value=90 time=0
2024-10-13 19:14:56: control_change channel=0 control=47 value=82 time=0
2024-10-13 19:14:56: control_change channel=0 control=15 value=91 time=0
2024-10-13 19:14:56: control_change channel=0 control=47 value=57 time=0
2024-10-13 19:14:56: control_change channel=0 control=15 value=92 time=0
2024-10-13 19:14:56: control_change channel=0 control=47 value=117 time=0
2024-10-13 19:14:56: control_change channel=0 control=15 value=94 time=0
2024-10-13 19:14:56: control_change channel=0 control=47 value=33 time=0
2024-10-13 19:14:56: control_change channel=0 control=15 value=95 time=0
2024-10-13 19:14:56: control_change channel=0 control=47 value=7 time=0
2024-10-13 19:14:56: control_change channel=0 control=15 value=95 time=0
2024-10-13 19:14:56: control_change channel=0 control=47 value=76 time=0
2024-10-13 19:14:56: control_change channel=0 control=15 value=96 time=0
2024-10-13 19:14:56: control_change channel=0 control=47 value=34 time=0
2024-10-13 19:14:56: control_change channel=0 control=15 value=96 time=0
2024-10-13 19:14:56: control_change channel=0 control=47 value=85 time=0
2024-10-13 19:14:57: control_change channel=0 control=15 value=97 time=0
2024-10-13 19:14:57: control_change channel=0 control=47 value=9 time=0
2024-10-13 19:14:57: control_change channel=0 control=15 value=97 time=0
2024-10-13 19:14:57: control_change channel=0 control=47 value=77 time=0
2024-10-13 19:14:57: control_change channel=0 control=15 value=98 time=0
2024-10-13 19:14:57: control_change channel=0 control=47 value=18 time=0
2024-10-13 19:14:57: control_change channel=0 control=15 value=98 time=0
2024-10-13 19:14:57: control_change channel=0 control=47 value=120 time=0
2024-10-13 19:14:57: control_change channel=0 control=15 value=100 time=0
2024-10-13 19:14:57: control_change channel=0 control=47 value=19 time=0
2024-10-13 19:14:57: control_change channel=0 control=15 value=100 time=0
2024-10-13 19:14:57: control_change channel=0 control=47 value=70 time=0
2024-10-13 19:14:57: control_change channel=0 control=15 value=101 time=0
2024-10-13 19:14:57: control_change channel=0 control=47 value=28 time=0
2024-10-13 19:14:57: control_change channel=0 control=15 value=101 time=0
2024-10-13 19:14:57: control_change channel=0 control=47 value=79 time=0
2024-10-13 19:14:57: control_change channel=0 control=15 value=102 time=0
2024-10-13 19:14:57: control_change channel=0 control=47 value=20 time=0
2024-10-13 19:14:57: control_change channel=0 control=15 value=102 time=0
2024-10-13 19:14:57: control_change channel=0 control=47 value=71 time=0
2024-10-13 19:14:57: control_change channel=0 control=15 value=103 time=0
2024-10-13 19:14:57: control_change channel=0 control=47 value=12 time=0
2024-10-13 19:14:57: control_change channel=0 control=15 value=103 time=0
2024-10-13 19:14:57: control_change channel=0 control=47 value=63 time=0
2024-10-13 19:14:57: control_change channel=0 control=15 value=103 time=0
2024-10-13 19:14:57: control_change channel=0 control=47 value=115 time=0
2024-10-13 19:14:57: control_change channel=0 control=15 value=104 time=0
2024-10-13 19:14:57: control_change channel=0 control=47 value=38 time=0
2024-10-13 19:14:57: control_change channel=0 control=15 value=104 time=0
2024-10-13 19:14:57: control_change channel=0 control=47 value=89 time=0
2024-10-13 19:14:57: control_change channel=0 control=15 value=105 time=0
2024-10-13 19:14:57: control_change channel=0 control=47 value=13 time=0
2024-10-13 19:14:57: control_change channel=0 control=15 value=105 time=0
2024-10-13 19:14:57: control_change channel=0 control=47 value=64 time=0
2024-10-13 19:14:57: control_change channel=0 control=15 value=105 time=0
2024-10-13 19:14:57: control_change channel=0 control=47 value=116 time=0
2024-10-13 19:14:57: control_change channel=0 control=15 value=106 time=0
2024-10-13 19:14:57: control_change channel=0 control=47 value=73 time=0
2024-10-13 19:14:57: control_change channel=0 control=15 value=106 time=0
2024-10-13 19:14:57: control_change channel=0 control=47 value=125 time=0
2024-10-13 19:14:57: control_change channel=0 control=15 value=107 time=0
2024-10-13 19:14:57: control_change channel=0 control=47 value=65 time=0
2024-10-13 19:14:57: control_change channel=0 control=15 value=108 time=0
2024-10-13 19:14:57: control_change channel=0 control=47 value=40 time=0
2024-10-13 19:14:57: control_change channel=0 control=15 value=108 time=0
2024-10-13 19:14:57: control_change channel=0 control=47 value=109 time=0
2024-10-13 19:14:57: control_change channel=0 control=15 value=109 time=0
2024-10-13 19:14:57: control_change channel=0 control=47 value=32 time=0
2024-10-13 19:14:57: control_change channel=0 control=15 value=109 time=0
2024-10-13 19:14:57: control_change channel=0 control=47 value=101 time=0
2024-10-13 19:14:57: control_change channel=0 control=15 value=110 time=0
2024-10-13 19:14:57: control_change channel=0 control=47 value=24 time=0
2024-10-13 19:14:57: control_change channel=0 control=15 value=110 time=0
2024-10-13 19:14:57: control_change channel=0 control=47 value=110 time=0
2024-10-13 19:14:57: control_change channel=0 control=15 value=111 time=0
2024-10-13 19:14:57: control_change channel=0 control=47 value=85 time=0
2024-10-13 19:14:57: control_change channel=0 control=15 value=112 time=0
2024-10-13 19:14:57: control_change channel=0 control=47 value=59 time=0
2024-10-13 19:14:57: control_change channel=0 control=15 value=113 time=0
2024-10-13 19:14:57: control_change channel=0 control=47 value=34 time=0
2024-10-13 19:14:57: control_change channel=0 control=15 value=113 time=0
2024-10-13 19:14:57: control_change channel=0 control=47 value=103 time=0
2024-10-13 19:14:57: control_change channel=0 control=15 value=114 time=0
2024-10-13 19:14:57: control_change channel=0 control=47 value=26 time=0
2024-10-13 19:14:57: control_change channel=0 control=15 value=114 time=0
2024-10-13 19:14:57: control_change channel=0 control=47 value=95 time=0
2024-10-13 19:14:57: control_change channel=0 control=15 value=115 time=0
2024-10-13 19:14:57: control_change channel=0 control=47 value=18 time=0
2024-10-13 19:14:57: control_change channel=0 control=15 value=115 time=0
2024-10-13 19:14:57: control_change channel=0 control=47 value=70 time=0
2024-10-13 19:14:57: control_change channel=0 control=15 value=116 time=0
2024-10-13 19:14:57: control_change channel=0 control=47 value=10 time=0
2024-10-13 19:14:57: control_change channel=0 control=15 value=116 time=0
2024-10-13 19:14:57: control_change channel=0 control=47 value=79 time=0
2024-10-13 19:14:57: control_change channel=0 control=15 value=117 time=0
2024-10-13 19:14:57: control_change channel=0 control=47 value=19 time=0
2024-10-13 19:14:57: control_change channel=0 control=15 value=117 time=0
2024-10-13 19:14:57: control_change channel=0 control=47 value=71 time=0
2024-10-13 19:14:57: control_change channel=0 control=15 value=117 time=0
2024-10-13 19:14:57: control_change channel=0 control=47 value=122 time=0
2024-10-13 19:14:57: control_change channel=0 control=15 value=118 time=0
2024-10-13 19:14:57: control_change channel=0 control=47 value=45 time=0
2024-10-13 19:14:57: control_change channel=0 control=15 value=118 time=0
2024-10-13 19:14:57: control_change channel=0 control=47 value=114 time=0
2024-10-13 19:14:57: control_change channel=0 control=15 value=119 time=0
2024-10-13 19:14:57: control_change channel=0 control=47 value=37 time=0
2024-10-13 19:14:57: control_change channel=0 control=15 value=120 time=0
2024-10-13 19:14:57: control_change channel=0 control=47 value=29 time=0
2024-10-13 19:14:57: control_change channel=0 control=15 value=121 time=0
2024-10-13 19:14:57: control_change channel=0 control=47 value=4 time=0
2024-10-13 19:14:57: control_change channel=0 control=15 value=121 time=0
2024-10-13 19:14:57: control_change channel=0 control=47 value=90 time=0
2024-10-13 19:14:57: control_change channel=0 control=15 value=122 time=0
2024-10-13 19:14:57: control_change channel=0 control=47 value=30 time=0
2024-10-13 19:14:57: control_change channel=0 control=15 value=122 time=0
2024-10-13 19:14:57: control_change channel=0 control=47 value=116 time=0
2024-10-13 19:14:57: control_change channel=0 control=15 value=123 time=0
2024-10-13 19:14:57: control_change channel=0 control=47 value=57 time=0
2024-10-13 19:14:57: control_change channel=0 control=15 value=123 time=0
2024-10-13 19:14:57: control_change channel=0 control=47 value=108 time=0
2024-10-13 19:14:57: control_change channel=0 control=15 value=124 time=0
2024-10-13 19:14:57: control_change channel=0 control=47 value=32 time=0
2024-10-13 19:14:57: control_change channel=0 control=15 value=124 time=0
2024-10-13 19:14:57: control_change channel=0 control=47 value=100 time=0
2024-10-13 19:14:57: control_change channel=0 control=15 value=125 time=0
2024-10-13 19:14:57: control_change channel=0 control=47 value=109 time=0
2024-10-13 19:14:57: control_change channel=0 control=15 value=126 time=0
2024-10-13 19:14:57: control_change channel=0 control=47 value=101 time=0
2024-10-13 19:14:57: control_change channel=0 control=15 value=127 time=0
2024-10-13 19:14:57: control_change channel=0 control=47 value=42 time=0
2024-10-13 19:14:57: control_change channel=0 control=15 value=127 time=0
2024-10-13 19:14:57: control_change channel=0 control=47 value=93 time=0
2024-10-13 19:14:57: control_change channel=0 control=15 value=127 time=0
2024-10-13 19:14:57: control_change channel=0 control=47 value=127 time=0
2024-10-13 19:14:59: control_change channel=6 control=23 value=62 time=0
2024-10-13 19:14:59: control_change channel=6 control=55 value=84 time=0
2024-10-13 19:14:59: control_change channel=6 control=23 value=60 time=0
2024-10-13 19:14:59: control_change channel=6 control=55 value=117 time=0
2024-10-13 19:14:59: control_change channel=6 control=23 value=59 time=0
2024-10-13 19:14:59: control_change channel=6 control=55 value=5 time=0
2024-10-13 19:14:59: control_change channel=6 control=23 value=56 time=0
2024-10-13 19:14:59: control_change channel=6 control=55 value=81 time=0
2024-10-13 19:14:59: control_change channel=6 control=23 value=55 time=0
2024-10-13 19:14:59: control_change channel=6 control=55 value=89 time=0
2024-10-13 19:14:59: control_change channel=6 control=23 value=53 time=0
2024-10-13 19:14:59: control_change channel=6 control=55 value=105 time=0
2024-10-13 19:14:59: control_change channel=6 control=23 value=52 time=0
2024-10-13 19:14:59: control_change channel=6 control=55 value=44 time=0
2024-10-13 19:14:59: control_change channel=6 control=23 value=51 time=0
2024-10-13 19:14:59: control_change channel=6 control=55 value=1 time=0
2024-10-13 19:14:59: control_change channel=6 control=23 value=50 time=0
2024-10-13 19:14:59: control_change channel=6 control=55 value=43 time=0
2024-10-13 19:14:59: control_change channel=6 control=23 value=49 time=0
2024-10-13 19:14:59: control_change channel=6 control=55 value=120 time=0
2024-10-13 19:14:59: control_change channel=6 control=23 value=49 time=0
2024-10-13 19:14:59: control_change channel=6 control=55 value=51 time=0
2024-10-13 19:14:59: control_change channel=6 control=23 value=48 time=0
2024-10-13 19:14:59: control_change channel=6 control=55 value=94 time=0
2024-10-13 19:14:59: control_change channel=6 control=23 value=47 time=0
2024-10-13 19:14:59: control_change channel=6 control=55 value=102 time=0
2024-10-13 19:14:59: control_change channel=6 control=23 value=46 time=0
2024-10-13 19:14:59: control_change channel=6 control=55 value=110 time=0
2024-10-13 19:14:59: control_change channel=6 control=23 value=46 time=0
2024-10-13 19:14:59: control_change channel=6 control=55 value=58 time=0
2024-10-13 19:14:59: control_change channel=6 control=23 value=45 time=0
2024-10-13 19:14:59: control_change channel=6 control=55 value=66 time=0
2024-10-13 19:14:59: control_change channel=6 control=23 value=44 time=0
2024-10-13 19:14:59: control_change channel=6 control=55 value=92 time=0
2024-10-13 19:14:59: control_change channel=6 control=23 value=44 time=0
2024-10-13 19:14:59: control_change channel=6 control=55 value=23 time=0
2024-10-13 19:14:59: control_change channel=6 control=23 value=42 time=0
2024-10-13 19:14:59: control_change channel=6 control=55 value=125 time=0
2024-10-13 19:14:59: control_change channel=6 control=23 value=42 time=0
2024-10-13 19:14:59: control_change channel=6 control=55 value=22 time=0
2024-10-13 19:14:59: control_change channel=6 control=23 value=40 time=0
2024-10-13 19:14:59: control_change channel=6 control=55 value=89 time=0
2024-10-13 19:14:59: control_change channel=6 control=23 value=39 time=0
2024-10-13 19:14:59: control_change channel=6 control=55 value=12 time=0
2024-10-13 19:14:59: control_change channel=6 control=23 value=37 time=0
2024-10-13 19:14:59: control_change channel=6 control=55 value=28 time=0
2024-10-13 19:14:59: control_change channel=6 control=23 value=35 time=0
2024-10-13 19:14:59: control_change channel=6 control=55 value=61 time=0
2024-10-13 19:14:59: control_change channel=6 control=23 value=34 time=0
2024-10-13 19:14:59: control_change channel=6 control=55 value=69 time=0
2024-10-13 19:14:59: control_change channel=6 control=23 value=32 time=0
2024-10-13 19:14:59: control_change channel=6 control=55 value=119 time=0
2024-10-13 19:14:59: control_change channel=6 control=23 value=31 time=0
2024-10-13 19:14:59: control_change channel=6 control=55 value=42 time=0
2024-10-13 19:14:59: control_change channel=6 control=23 value=29 time=0
2024-10-13 19:14:59: control_change channel=6 control=55 value=109 time=0
2024-10-13 19:14:59: control_change channel=6 control=23 value=28 time=0
2024-10-13 19:14:59: control_change channel=6 control=55 value=83 time=0
2024-10-13 19:14:59: control_change channel=6 control=23 value=28 time=0
2024-10-13 19:14:59: control_change channel=6 control=55 value=14 time=0
2024-10-13 19:14:59: control_change channel=6 control=23 value=26 time=0
2024-10-13 19:14:59: control_change channel=6 control=55 value=116 time=0
2024-10-13 19:14:59: control_change channel=6 control=23 value=25 time=0
2024-10-13 19:14:59: control_change channel=6 control=55 value=124 time=0
2024-10-13 19:14:59: control_change channel=6 control=23 value=25 time=0
2024-10-13 19:14:59: control_change channel=6 control=55 value=39 time=0
2024-10-13 19:14:59: control_change channel=6 control=23 value=24 time=0
2024-10-13 19:14:59: control_change channel=6 control=55 value=12 time=0
2024-10-13 19:14:59: control_change channel=6 control=23 value=23 time=0
2024-10-13 19:14:59: control_change channel=6 control=55 value=89 time=0
2024-10-13 19:14:59: control_change channel=6 control=23 value=22 time=0
2024-10-13 19:14:59: control_change channel=6 control=55 value=97 time=0
2024-10-13 19:14:59: control_change channel=6 control=23 value=21 time=0
2024-10-13 19:14:59: control_change channel=6 control=55 value=122 time=0
2024-10-13 19:14:59: control_change channel=6 control=23 value=20 time=0
2024-10-13 19:14:59: control_change channel=6 control=55 value=113 time=0
2024-10-13 19:14:59: control_change channel=6 control=23 value=19 time=0
2024-10-13 19:14:59: control_change channel=6 control=55 value=104 time=0
2024-10-13 19:14:59: control_change channel=6 control=23 value=19 time=0
2024-10-13 19:14:59: control_change channel=6 control=55 value=35 time=0
2024-10-13 19:14:59: control_change channel=6 control=23 value=17 time=0
2024-10-13 19:14:59: control_change channel=6 control=55 value=120 time=0
2024-10-13 19:14:59: control_change channel=6 control=23 value=16 time=0
2024-10-13 19:14:59: control_change channel=6 control=55 value=77 time=0
2024-10-13 19:14:59: control_change channel=6 control=23 value=14 time=0
2024-10-13 19:14:59: control_change channel=6 control=55 value=127 time=0
2024-10-13 19:14:59: control_change channel=6 control=23 value=13 time=0
2024-10-13 19:14:59: control_change channel=6 control=55 value=49 time=0
2024-10-13 19:14:59: control_change channel=6 control=23 value=12 time=0
2024-10-13 19:14:59: control_change channel=6 control=55 value=92 time=0
2024-10-13 19:14:59: control_change channel=6 control=23 value=11 time=0
2024-10-13 19:14:59: control_change channel=6 control=55 value=48 time=0
2024-10-13 19:14:59: control_change channel=6 control=23 value=9 time=0
2024-10-13 19:14:59: control_change channel=6 control=55 value=81 time=0
2024-10-13 19:14:59: control_change channel=6 control=23 value=8 time=0
2024-10-13 19:14:59: control_change channel=6 control=55 value=4 time=0
2024-10-13 19:14:59: control_change channel=6 control=23 value=5 time=0
2024-10-13 19:14:59: control_change channel=6 control=55 value=96 time=0
2024-10-13 19:14:59: control_change channel=6 control=23 value=4 time=0
2024-10-13 19:14:59: control_change channel=6 control=55 value=87 time=0
2024-10-13 19:14:59: control_change channel=6 control=23 value=2 time=0
2024-10-13 19:14:59: control_change channel=6 control=55 value=52 time=0
2024-10-13 19:14:59: control_change channel=6 control=23 value=0 time=0
2024-10-13 19:14:59: control_change channel=6 control=55 value=68 time=0
2024-10-13 19:14:59: control_change channel=6 control=23 value=0 time=0
2024-10-13 19:14:59: control_change channel=6 control=55 value=0 time=0
2024-10-13 19:15:01: control_change channel=6 control=24 value=65 time=0
2024-10-13 19:15:01: control_change channel=6 control=56 value=43 time=0
2024-10-13 19:15:01: control_change channel=6 control=24 value=67 time=0
2024-10-13 19:15:01: control_change channel=6 control=56 value=44 time=0
2024-10-13 19:15:01: control_change channel=6 control=24 value=68 time=0
2024-10-13 19:15:01: control_change channel=6 control=56 value=53 time=0
2024-10-13 19:15:01: control_change channel=6 control=24 value=70 time=0
2024-10-13 19:15:01: control_change channel=6 control=56 value=106 time=0
2024-10-13 19:15:01: control_change channel=6 control=24 value=72 time=0
2024-10-13 19:15:01: control_change channel=6 control=56 value=107 time=0
2024-10-13 19:15:01: control_change channel=6 control=24 value=74 time=0
2024-10-13 19:15:01: control_change channel=6 control=56 value=125 time=0
2024-10-13 19:15:01: control_change channel=6 control=24 value=77 time=0
2024-10-13 19:15:01: control_change channel=6 control=56 value=32 time=0
2024-10-13 19:15:01: control_change channel=6 control=24 value=78 time=0
2024-10-13 19:15:01: control_change channel=6 control=56 value=7 time=0
2024-10-13 19:15:01: control_change channel=6 control=24 value=79 time=0
2024-10-13 19:15:01: control_change channel=6 control=56 value=102 time=0
2024-10-13 19:15:01: control_change channel=6 control=24 value=81 time=0
2024-10-13 19:15:01: control_change channel=6 control=56 value=34 time=0
2024-10-13 19:15:01: control_change channel=6 control=24 value=82 time=0
2024-10-13 19:15:01: control_change channel=6 control=56 value=61 time=0
2024-10-13 19:15:01: control_change channel=6 control=24 value=83 time=0
2024-10-13 19:15:01: control_change channel=6 control=56 value=104 time=0
2024-10-13 19:15:01: control_change channel=6 control=24 value=84 time=0
2024-10-13 19:15:01: control_change channel=6 control=56 value=44 time=0
2024-10-13 19:15:01: control_change channel=6 control=24 value=84 time=0
2024-10-13 19:15:01: control_change channel=6 control=56 value=96 time=0
2024-10-13 19:15:01: control_change channel=6 control=24 value=85 time=0
2024-10-13 19:15:01: control_change channel=6 control=56 value=54 time=0
2024-10-13 19:15:01: control_change channel=6 control=24 value=85 time=0
2024-10-13 19:15:01: control_change channel=6 control=56 value=122 time=0
2024-10-13 19:15:01: control_change channel=6 control=24 value=86 time=0
2024-10-13 19:15:01: control_change channel=6 control=56 value=63 time=0
2024-10-13 19:15:01: control_change channel=6 control=24 value=86 time=0
2024-10-13 19:15:01: control_change channel=6 control=56 value=114 time=0
2024-10-13 19:15:01: control_change channel=6 control=24 value=87 time=0
2024-10-13 19:15:01: control_change channel=6 control=56 value=55 time=0
2024-10-13 19:15:01: control_change channel=6 control=24 value=87 time=0
2024-10-13 19:15:01: control_change channel=6 control=56 value=123 time=0
2024-10-13 19:15:01: control_change channel=6 control=24 value=88 time=0
2024-10-13 19:15:01: control_change channel=6 control=56 value=47 time=0
2024-10-13 19:15:01: control_change channel=6 control=24 value=88 time=0
2024-10-13 19:15:01: control_change channel=6 control=56 value=98 time=0
2024-10-13 19:15:01: control_change channel=6 control=24 value=89 time=0
2024-10-13 19:15:01: control_change channel=6 control=56 value=39 time=0
2024-10-13 19:15:01: control_change channel=6 control=24 value=89 time=0
2024-10-13 19:15:01: control_change channel=6 control=56 value=124 time=0
2024-10-13 19:15:01: control_change channel=6 control=24 value=90 time=0
2024-10-13 19:15:01: control_change channel=6 control=56 value=65 time=0
2024-10-13 19:15:01: control_change channel=6 control=24 value=91 time=0
2024-10-13 19:15:01: control_change channel=6 control=56 value=5 time=0
2024-10-13 19:15:01: control_change channel=6 control=24 value=91 time=0
2024-10-13 19:15:01: control_change channel=6 control=56 value=74 time=0
2024-10-13 19:15:01: control_change channel=6 control=24 value=91 time=0
2024-10-13 19:15:01: control_change channel=6 control=56 value=125 time=0
2024-10-13 19:15:01: control_change channel=6 control=24 value=92 time=0
2024-10-13 19:15:01: control_change channel=6 control=56 value=49 time=0
2024-10-13 19:15:01: control_change channel=6 control=24 value=92 time=0
2024-10-13 19:15:01: control_change channel=6 control=56 value=100 time=0
2024-10-13 19:15:01: control_change channel=6 control=24 value=93 time=0
2024-10-13 19:15:01: control_change channel=6 control=56 value=24 time=0
2024-10-13 19:15:01: control_change channel=6 control=24 value=93 time=0
2024-10-13 19:15:01: control_change channel=6 control=56 value=126 time=0
2024-10-13 19:15:01: control_change channel=6 control=24 value=94 time=0
2024-10-13 19:15:01: control_change channel=6 control=56 value=50 time=0
2024-10-13 19:15:01: control_change channel=6 control=24 value=94 time=0
2024-10-13 19:15:01: control_change channel=6 control=56 value=118 time=0
2024-10-13 19:15:01: control_change channel=6 control=24 value=95 time=0
2024-10-13 19:15:01: control_change channel=6 control=56 value=42 time=0
2024-10-13 19:15:01: control_change channel=6 control=24 value=96 time=0
2024-10-13 19:15:01: control_change channel=6 control=56 value=17 time=0
2024-10-13 19:15:01: control_change channel=6 control=24 value=96 time=0
2024-10-13 19:15:01: control_change channel=6 control=56 value=85 time=0
2024-10-13 19:15:01: control_change channel=6 control=24 value=97 time=0
2024-10-13 19:15:01: control_change channel=6 control=56 value=26 time=0
2024-10-13 19:15:01: control_change channel=6 control=24 value=98 time=0
2024-10-13 19:15:01: control_change channel=6 control=56 value=69 time=0
2024-10-13 19:15:01: control_change channel=6 control=24 value=98 time=0
2024-10-13 19:15:01: control_change channel=6 control=56 value=120 time=0
2024-10-13 19:15:01: control_change channel=6 control=24 value=99 time=0
2024-10-13 19:15:01: control_change channel=6 control=56 value=95 time=0
2024-10-13 19:15:01: control_change channel=6 control=24 value=100 time=0
2024-10-13 19:15:01: control_change channel=6 control=56 value=70 time=0
2024-10-13 19:15:01: control_change channel=6 control=24 value=101 time=0
2024-10-13 19:15:01: control_change channel=6 control=56 value=45 time=0
2024-10-13 19:15:01: control_change channel=6 control=24 value=102 time=0
2024-10-13 19:15:01: control_change channel=6 control=56 value=3 time=0
2024-10-13 19:15:01: control_change channel=6 control=24 value=102 time=0
2024-10-13 19:15:01: control_change channel=6 control=56 value=105 time=0
2024-10-13 19:15:01: control_change channel=6 control=24 value=103 time=0
2024-10-13 19:15:01: control_change channel=6 control=56 value=97 time=0
2024-10-13 19:15:01: control_change channel=6 control=24 value=105 time=0
2024-10-13 19:15:01: control_change channel=6 control=56 value=47 time=0
2024-10-13 19:15:01: control_change channel=6 control=24 value=106 time=0
2024-10-13 19:15:01: control_change channel=6 control=56 value=90 time=0
2024-10-13 19:15:01: control_change channel=6 control=24 value=107 time=0
2024-10-13 19:15:01: control_change channel=6 control=56 value=100 time=0
2024-10-13 19:15:01: control_change channel=6 control=24 value=108 time=0
2024-10-13 19:15:01: control_change channel=6 control=56 value=57 time=0
2024-10-13 19:15:01: control_change channel=6 control=24 value=109 time=0
2024-10-13 19:15:01: control_change channel=6 control=56 value=66 time=0
2024-10-13 19:15:01: control_change channel=6 control=24 value=110 time=0
2024-10-13 19:15:01: control_change channel=6 control=56 value=75 time=0
2024-10-13 19:15:01: control_change channel=6 control=24 value=111 time=0
2024-10-13 19:15:01: control_change channel=6 control=56 value=50 time=0
2024-10-13 19:15:01: control_change channel=6 control=24 value=112 time=0
2024-10-13 19:15:01: control_change channel=6 control=56 value=8 time=0
2024-10-13 19:15:01: control_change channel=6 control=24 value=112 time=0
2024-10-13 19:15:01: control_change channel=6 control=56 value=94 time=0
2024-10-13 19:15:01: control_change channel=6 control=24 value=113 time=0
2024-10-13 19:15:01: control_change channel=6 control=56 value=69 time=0
2024-10-13 19:15:01: control_change channel=6 control=24 value=114 time=0
2024-10-13 19:15:01: control_change channel=6 control=56 value=43 time=0
2024-10-13 19:15:01: control_change channel=6 control=24 value=115 time=0
2024-10-13 19:15:01: control_change channel=6 control=56 value=18 time=0
2024-10-13 19:15:01: control_change channel=6 control=24 value=115 time=0
2024-10-13 19:15:01: control_change channel=6 control=56 value=121 time=0
2024-10-13 19:15:01: control_change channel=6 control=24 value=117 time=0
2024-10-13 19:15:01: control_change channel=6 control=56 value=19 time=0
2024-10-13 19:15:01: control_change channel=6 control=24 value=117 time=0
2024-10-13 19:15:01: control_change channel=6 control=56 value=105 time=0
2024-10-13 19:15:01: control_change channel=6 control=24 value=118 time=0
2024-10-13 19:15:01: control_change channel=6 control=56 value=45 time=0
2024-10-13 19:15:01: control_change channel=6 control=24 value=118 time=0
2024-10-13 19:15:01: control_change channel=6 control=56 value=97 time=0
2024-10-13 19:15:01: control_change channel=6 control=24 value=119 time=0
2024-10-13 19:15:01: control_change channel=6 control=56 value=55 time=0
2024-10-13 19:15:01: control_change channel=6 control=24 value=120 time=0
2024-10-13 19:15:01: control_change channel=6 control=56 value=47 time=0
2024-10-13 19:15:01: control_change channel=6 control=24 value=121 time=0
2024-10-13 19:15:01: control_change channel=6 control=56 value=56 time=0
2024-10-13 19:15:01: control_change channel=6 control=24 value=122 time=0
2024-10-13 19:15:01: control_change channel=6 control=56 value=65 time=0
2024-10-13 19:15:02: control_change channel=6 control=24 value=123 time=0
2024-10-13 19:15:02: control_change channel=6 control=56 value=108 time=0
2024-10-13 19:15:02: control_change channel=6 control=24 value=124 time=0
2024-10-13 19:15:02: control_change channel=6 control=56 value=66 time=0
2024-10-13 19:15:02: control_change channel=6 control=24 value=125 time=0
2024-10-13 19:15:02: control_change channel=6 control=56 value=109 time=0
2024-10-13 19:15:02: control_change channel=6 control=24 value=127 time=0
2024-10-13 19:15:02: control_change channel=6 control=56 value=25 time=0
2024-10-13 19:15:02: control_change channel=6 control=24 value=127 time=0
2024-10-13 19:15:02: control_change channel=6 control=56 value=127 time=0
2024-10-13 19:15:04: control_change channel=1 control=19 value=107 time=0
2024-10-13 19:15:04: control_change channel=1 control=51 value=45 time=0
2024-10-13 19:15:04: control_change channel=1 control=19 value=106 time=0
2024-10-13 19:15:04: control_change channel=1 control=51 value=121 time=0
2024-10-13 19:15:04: control_change channel=1 control=19 value=106 time=0
2024-10-13 19:15:04: control_change channel=1 control=51 value=70 time=0
2024-10-13 19:15:04: control_change channel=1 control=19 value=106 time=0
2024-10-13 19:15:04: control_change channel=1 control=51 value=19 time=0
2024-10-13 19:15:04: control_change channel=1 control=19 value=105 time=0
2024-10-13 19:15:04: control_change channel=1 control=51 value=96 time=0
2024-10-13 19:15:04: control_change channel=1 control=19 value=106 time=0
2024-10-13 19:15:04: control_change channel=1 control=51 value=19 time=0
2024-10-13 19:15:04: control_change channel=1 control=19 value=106 time=0
2024-10-13 19:15:04: control_change channel=1 control=51 value=70 time=0
2024-10-13 19:15:05: control_change channel=1 control=19 value=105 time=0
2024-10-13 19:15:05: control_change channel=1 control=51 value=113 time=0
2024-10-13 19:15:05: control_change channel=1 control=19 value=104 time=0
2024-10-13 19:15:05: control_change channel=1 control=51 value=105 time=0
2024-10-13 19:15:05: control_change channel=1 control=19 value=103 time=0
2024-10-13 19:15:05: control_change channel=1 control=51 value=28 time=0
2024-10-13 19:15:05: control_change channel=1 control=19 value=101 time=0
2024-10-13 19:15:05: control_change channel=1 control=51 value=62 time=0
2024-10-13 19:15:05: control_change channel=1 control=19 value=99 time=0
2024-10-13 19:15:05: control_change channel=1 control=51 value=97 time=0
2024-10-13 19:15:05: control_change channel=1 control=19 value=98 time=0
2024-10-13 19:15:05: control_change channel=1 control=51 value=20 time=0
2024-10-13 19:15:05: control_change channel=1 control=19 value=96 time=0
2024-10-13 19:15:05: control_change channel=1 control=51 value=106 time=0
2024-10-13 19:15:05: control_change channel=1 control=19 value=95 time=0
2024-10-13 19:15:05: control_change channel=1 control=51 value=80 time=0
2024-10-13 19:15:05: control_change channel=1 control=19 value=94 time=0
2024-10-13 19:15:05: control_change channel=1 control=51 value=55 time=0
2024-10-13 19:15:05: control_change channel=1 control=19 value=93 time=0
2024-10-13 19:15:05: control_change channel=1 control=51 value=98 time=0
2024-10-13 19:15:05: control_change channel=1 control=19 value=93 time=0
2024-10-13 19:15:05: control_change channel=1 control=51 value=47 time=0
2024-10-13 19:15:05: control_change channel=1 control=19 value=92 time=0
2024-10-13 19:15:05: control_change channel=1 control=51 value=123 time=0
2024-10-13 19:15:05: control_change channel=1 control=19 value=92 time=0
2024-10-13 19:15:05: control_change channel=1 control=51 value=72 time=0
2024-10-13 19:15:05: control_change channel=1 control=19 value=92 time=0
2024-10-13 19:15:05: control_change channel=1 control=51 value=21 time=0
2024-10-13 19:15:05: control_change channel=1 control=19 value=91 time=0
2024-10-13 19:15:05: control_change channel=1 control=51 value=98 time=0
2024-10-13 19:15:05: control_change channel=1 control=19 value=92 time=0
2024-10-13 19:15:05: control_change channel=1 control=51 value=38 time=0
2024-10-13 19:15:05: control_change channel=1 control=19 value=92 time=0
2024-10-13 19:15:05: control_change channel=1 control=51 value=106 time=0
2024-10-13 19:15:05: control_change channel=1 control=19 value=93 time=0
2024-10-13 19:15:05: control_change channel=1 control=51 value=30 time=0
2024-10-13 19:15:05: control_change channel=1 control=19 value=93 time=0
2024-10-13 19:15:05: control_change channel=1 control=51 value=81 time=0
2024-10-13 19:15:06: control_change channel=1 control=19 value=93 time=0
2024-10-13 19:15:06: control_change channel=1 control=51 value=12 time=0
2024-10-13 19:15:07: control_change channel=0 control=0 value=85 time=0
2024-10-13 19:15:07: control_change channel=0 control=32 value=31 time=0
2024-10-13 19:15:07: control_change channel=0 control=0 value=86 time=0
2024-10-13 19:15:07: control_change channel=0 control=32 value=17 time=0
2024-10-13 19:15:07: control_change channel=0 control=0 value=87 time=0
2024-10-13 19:15:07: control_change channel=0 control=32 value=20 time=0
2024-10-13 19:15:07: control_change channel=0 control=0 value=87 time=0
2024-10-13 19:15:07: control_change channel=0 control=32 value=85 time=0
2024-10-13 19:15:07: control_change channel=0 control=0 value=88 time=0
2024-10-13 19:15:07: control_change channel=0 control=32 value=22 time=0
2024-10-13 19:15:07: control_change channel=0 control=0 value=88 time=0
2024-10-13 19:15:07: control_change channel=0 control=32 value=87 time=0
2024-10-13 19:15:07: control_change channel=0 control=0 value=89 time=0
2024-10-13 19:15:07: control_change channel=0 control=32 value=8 time=0
2024-10-13 19:15:07: control_change channel=0 control=0 value=89 time=0
2024-10-13 19:15:07: control_change channel=0 control=32 value=73 time=0
2024-10-13 19:15:07: control_change channel=0 control=0 value=90 time=0
2024-10-13 19:15:07: control_change channel=0 control=32 value=27 time=0
2024-10-13 19:15:07: control_change channel=0 control=0 value=90 time=0
2024-10-13 19:15:07: control_change channel=0 control=32 value=124 time=0
2024-10-13 19:15:07: control_change channel=0 control=0 value=91 time=0
2024-10-13 19:15:07: control_change channel=0 control=32 value=61 time=0
2024-10-13 19:15:07: control_change channel=0 control=0 value=92 time=0
2024-10-13 19:15:07: control_change channel=0 control=32 value=96 time=0
2024-10-13 19:15:07: control_change channel=0 control=0 value=94 time=0
2024-10-13 19:15:07: control_change channel=0 control=32 value=85 time=0
2024-10-13 19:15:07: control_change channel=0 control=0 value=96 time=0
2024-10-13 19:15:07: control_change channel=0 control=32 value=89 time=0
2024-10-13 19:15:07: control_change channel=0 control=0 value=99 time=0
2024-10-13 19:15:07: control_change channel=0 control=32 value=63 time=0
2024-10-13 19:15:07: control_change channel=0 control=0 value=100 time=0
2024-10-13 19:15:07: control_change channel=0 control=32 value=114 time=0
2024-10-13 19:15:07: control_change channel=0 control=0 value=104 time=0
2024-10-13 19:15:07: control_change channel=0 control=32 value=10 time=0
2024-10-13 19:15:07: control_change channel=0 control=0 value=107 time=0
2024-10-13 19:15:07: control_change channel=0 control=32 value=82 time=0
2024-10-13 19:15:07: control_change channel=0 control=0 value=111 time=0
2024-10-13 19:15:07: control_change channel=0 control=32 value=25 time=0
2024-10-13 19:15:07: control_change channel=0 control=0 value=114 time=0
2024-10-13 19:15:07: control_change channel=0 control=32 value=81 time=0
2024-10-13 19:15:07: control_change channel=0 control=0 value=116 time=0
2024-10-13 19:15:07: control_change channel=0 control=32 value=37 time=0
2024-10-13 19:15:07: control_change channel=0 control=0 value=119 time=0
2024-10-13 19:15:07: control_change channel=0 control=32 value=93 time=0
2024-10-13 19:15:07: control_change channel=0 control=0 value=123 time=0
2024-10-13 19:15:07: control_change channel=0 control=32 value=53 time=0
2024-10-13 19:15:07: control_change channel=0 control=0 value=126 time=0
2024-10-13 19:15:07: control_change channel=0 control=32 value=92 time=0
2024-10-13 19:15:07: control_change channel=0 control=0 value=127 time=0
2024-10-13 19:15:07: control_change channel=0 control=32 value=127 time=0
2024-10-13 19:15:08: control_change channel=0 control=0 value=126 time=0
2024-10-13 19:15:08: control_change channel=0 control=32 value=108 time=0
2024-10-13 19:15:08: control_change channel=0 control=0 value=125 time=0
2024-10-13 19:15:08: control_change channel=0 control=32 value=8 time=0
2024-10-13 19:15:08: control_change channel=0 control=0 value=124 time=0
2024-10-13 19:15:08: control_change channel=0 control=32 value=22 time=0
2024-10-13 19:15:08: control_change channel=0 control=0 value=122 time=0
2024-10-13 19:15:08: control_change channel=0 control=32 value=50 time=0
2024-10-13 19:15:08: control_change channel=0 control=0 value=120 time=0
2024-10-13 19:15:08: control_change channel=0 control=32 value=62 time=0
2024-10-13 19:15:08: control_change channel=0 control=0 value=118 time=0
2024-10-13 19:15:08: control_change channel=0 control=32 value=74 time=0
2024-10-13 19:15:08: control_change channel=0 control=0 value=116 time=0
2024-10-13 19:15:08: control_change channel=0 control=32 value=53 time=0
2024-10-13 19:15:08: control_change channel=0 control=0 value=115 time=0
2024-10-13 19:15:08: control_change channel=0 control=32 value=51 time=0
2024-10-13 19:15:08: control_change channel=0 control=0 value=113 time=0
2024-10-13 19:15:08: control_change channel=0 control=32 value=30 time=0
2024-10-13 19:15:08: control_change channel=0 control=0 value=110 time=0
2024-10-13 19:15:08: control_change channel=0 control=32 value=105 time=0
2024-10-13 19:15:08: control_change channel=0 control=0 value=108 time=0
2024-10-13 19:15:08: control_change channel=0 control=32 value=51 time=0
2024-10-13 19:15:08: control_change channel=0 control=0 value=105 time=0
2024-10-13 19:15:08: control_change channel=0 control=32 value=93 time=0
2024-10-13 19:15:08: control_change channel=0 control=0 value=104 time=0
2024-10-13 19:15:08: control_change channel=0 control=32 value=42 time=0
2024-10-13 19:15:08: control_change channel=0 control=0 value=101 time=0
2024-10-13 19:15:08: control_change channel=0 control=32 value=100 time=0
2024-10-13 19:15:08: control_change channel=0 control=0 value=99 time=0
2024-10-13 19:15:08: control_change channel=0 control=32 value=31 time=0
2024-10-13 19:15:08: control_change channel=0 control=0 value=96 time=0
2024-10-13 19:15:08: control_change channel=0 control=32 value=89 time=0
2024-10-13 19:15:08: control_change channel=0 control=0 value=93 time=0
2024-10-13 19:15:08: control_change channel=0 control=32 value=115 time=0
2024-10-13 19:15:08: control_change channel=0 control=0 value=92 time=0
2024-10-13 19:15:08: control_change channel=0 control=32 value=47 time=0
2024-10-13 19:15:08: control_change channel=0 control=0 value=89 time=0
2024-10-13 19:15:08: control_change channel=0 control=32 value=89 time=0
2024-10-13 19:15:08: control_change channel=0 control=0 value=86 time=0
2024-10-13 19:15:08: control_change channel=0 control=32 value=66 time=0
2024-10-13 19:15:08: control_change channel=0 control=0 value=83 time=0
2024-10-13 19:15:08: control_change channel=0 control=32 value=76 time=0
2024-10-13 19:15:08: control_change channel=0 control=0 value=80 time=0
2024-10-13 19:15:08: control_change channel=0 control=32 value=4 time=0
2024-10-13 19:15:08: control_change channel=0 control=0 value=78 time=0
2024-10-13 19:15:08: control_change channel=0 control=32 value=48 time=0
2024-10-13 19:15:08: control_change channel=0 control=0 value=74 time=0
2024-10-13 19:15:08: control_change channel=0 control=32 value=104 time=0
2024-10-13 19:15:08: control_change channel=0 control=0 value=71 time=0
2024-10-13 19:15:08: control_change channel=0 control=32 value=48 time=0
2024-10-13 19:15:08: control_change channel=0 control=0 value=67 time=0
2024-10-13 19:15:08: control_change channel=0 control=32 value=72 time=0
2024-10-13 19:15:08: control_change channel=0 control=0 value=64 time=0
2024-10-13 19:15:08: control_change channel=0 control=32 value=0 time=0
2024-10-13 19:15:08: control_change channel=0 control=0 value=63 time=0
2024-10-13 19:15:08: control_change channel=0 control=32 value=30 time=0
2024-10-13 19:15:08: control_change channel=0 control=0 value=59 time=0
2024-10-13 19:15:08: control_change channel=0 control=32 value=54 time=0
2024-10-13 19:15:08: control_change channel=0 control=0 value=55 time=0
2024-10-13 19:15:08: control_change channel=0 control=32 value=61 time=0
2024-10-13 19:15:08: control_change channel=0 control=0 value=53 time=0
2024-10-13 19:15:08: control_change channel=0 control=32 value=89 time=0
2024-10-13 19:15:08: control_change channel=0 control=0 value=49 time=0
2024-10-13 19:15:08: control_change channel=0 control=32 value=112 time=0
2024-10-13 19:15:08: control_change channel=0 control=0 value=46 time=0
2024-10-13 19:15:08: control_change channel=0 control=32 value=8 time=0
2024-10-13 19:15:08: control_change channel=0 control=0 value=42 time=0
2024-10-13 19:15:08: control_change channel=0 control=32 value=64 time=0
2024-10-13 19:15:08: control_change channel=0 control=0 value=38 time=0
2024-10-13 19:15:08: control_change channel=0 control=32 value=87 time=0
2024-10-13 19:15:08: control_change channel=0 control=0 value=36 time=0
2024-10-13 19:15:08: control_change channel=0 control=32 value=115 time=0
2024-10-13 19:15:08: control_change channel=0 control=0 value=33 time=0
2024-10-13 19:15:08: control_change channel=0 control=32 value=43 time=0
2024-10-13 19:15:08: control_change channel=0 control=0 value=29 time=0
2024-10-13 19:15:08: control_change channel=0 control=32 value=99 time=0
2024-10-13 19:15:08: control_change channel=0 control=0 value=26 time=0
2024-10-13 19:15:08: control_change channel=0 control=32 value=60 time=0
2024-10-13 19:15:08: control_change channel=0 control=0 value=23 time=0
2024-10-13 19:15:08: control_change channel=0 control=32 value=20 time=0
2024-10-13 19:15:08: control_change channel=0 control=0 value=21 time=0
2024-10-13 19:15:08: control_change channel=0 control=32 value=81 time=0
2024-10-13 19:15:08: control_change channel=0 control=0 value=18 time=0
2024-10-13 19:15:08: control_change channel=0 control=32 value=90 time=0
2024-10-13 19:15:08: control_change channel=0 control=0 value=15 time=0
2024-10-13 19:15:08: control_change channel=0 control=32 value=83 time=0
2024-10-13 19:15:08: control_change channel=0 control=0 value=12 time=0
2024-10-13 19:15:08: control_change channel=0 control=32 value=125 time=0
2024-10-13 19:15:08: control_change channel=0 control=0 value=9 time=0
2024-10-13 19:15:08: control_change channel=0 control=32 value=118 time=0
2024-10-13 19:15:08: control_change channel=0 control=0 value=8 time=0
2024-10-13 19:15:08: control_change channel=0 control=32 value=67 time=0
2024-10-13 19:15:08: control_change channel=0 control=0 value=5 time=0
2024-10-13 19:15:08: control_change channel=0 control=32 value=77 time=0
2024-10-13 19:15:08: control_change channel=0 control=0 value=2 time=0
2024-10-13 19:15:08: control_change channel=0 control=32 value=102 time=0
2024-10-13 19:15:08: control_change channel=0 control=0 value=0 time=0
2024-10-13 19:15:08: control_change channel=0 control=32 value=0 time=0
2024-10-13 19:15:09: control_change channel=6 control=31 value=36 time=0
2024-10-13 19:15:09: control_change channel=6 control=63 value=37 time=0
2024-10-13 19:15:09: control_change channel=6 control=31 value=36 time=0
2024-10-13 19:15:09: control_change channel=6 control=63 value=5 time=0
2024-10-13 19:15:09: control_change channel=6 control=31 value=35 time=0
2024-10-13 19:15:09: control_change channel=6 control=63 value=100 time=0
2024-10-13 19:15:09: control_change channel=6 control=31 value=35 time=0
2024-10-13 19:15:09: control_change channel=6 control=63 value=67 time=0
2024-10-13 19:15:09: control_change channel=6 control=31 value=35 time=0
2024-10-13 19:15:09: control_change channel=6 control=63 value=35 time=0
2024-10-13 19:15:09: control_change channel=6 control=31 value=35 time=0
2024-10-13 19:15:09: control_change channel=6 control=63 value=2 time=0
2024-10-13 19:15:09: control_change channel=6 control=31 value=34 time=0
2024-10-13 19:15:09: control_change channel=6 control=63 value=98 time=0
2024-10-13 19:15:09: control_change channel=6 control=31 value=34 time=0
2024-10-13 19:15:09: control_change channel=6 control=63 value=65 time=0
2024-10-13 19:15:09: control_change channel=6 control=31 value=34 time=0
2024-10-13 19:15:09: control_change channel=6 control=63 value=32 time=0
2024-10-13 19:15:09: control_change channel=6 control=31 value=34 time=0
2024-10-13 19:15:09: control_change channel=6 control=63 value=0 time=0
2024-10-13 19:15:09: control_change channel=6 control=31 value=33 time=0
2024-10-13 19:15:09: control_change channel=6 control=63 value=95 time=0
2024-10-13 19:15:09: control_change channel=6 control=31 value=33 time=0
2024-10-13 19:15:09: control_change channel=6 control=63 value=62 time=0
2024-10-13 19:15:09: control_change channel=6 control=31 value=33 time=0
2024-10-13 19:15:09: control_change channel=6 control=63 value=13 time=0
2024-10-13 19:15:09: control_change channel=6 control=31 value=32 time=0
2024-10-13 19:15:09: control_change channel=6 control=63 value=109 time=0
2024-10-13 19:15:09: control_change channel=6 control=31 value=32 time=0
2024-10-13 19:15:09: control_change channel=6 control=63 value=76 time=0
2024-10-13 19:15:09: control_change channel=6 control=31 value=32 time=0
2024-10-13 19:15:09: control_change channel=6 control=63 value=43 time=0
2024-10-13 19:15:09: control_change channel=6 control=31 value=32 time=0
2024-10-13 19:15:09: control_change channel=6 control=63 value=76 time=0
2024-10-13 19:15:09: control_change channel=6 control=31 value=32 time=0
2024-10-13 19:15:09: control_change channel=6 control=63 value=109 time=0
2024-10-13 19:15:09: control_change channel=6 control=31 value=33 time=0
2024-10-13 19:15:09: control_change channel=6 control=63 value=13 time=0
2024-10-13 19:15:09: control_change channel=6 control=31 value=33 time=0
2024-10-13 19:15:09: control_change channel=6 control=63 value=46 time=0
2024-10-13 19:15:09: control_change channel=6 control=31 value=33 time=0
2024-10-13 19:15:09: control_change channel=6 control=63 value=79 time=0
2024-10-13 19:15:09: control_change channel=6 control=31 value=33 time=0
2024-10-13 19:15:09: control_change channel=6 control=63 value=111 time=0
2024-10-13 19:15:09: control_change channel=6 control=31 value=34 time=0
2024-10-13 19:15:09: control_change channel=6 control=63 value=16 time=0
2024-10-13 19:15:10: control_change channel=6 control=31 value=34 time=0
2024-10-13 19:15:10: control_change channel=6 control=63 value=49 time=0
2024-10-13 19:15:10: control_change channel=6 control=31 value=34 time=0
2024-10-13 19:15:10: control_change channel=6 control=63 value=81 time=0
2024-10-13 19:15:10: control_change channel=6 control=31 value=34 time=0
2024-10-13 19:15:10: control_change channel=6 control=63 value=114 time=0
2024-10-13 19:15:10: control_change channel=6 control=31 value=35 time=0
2024-10-13 19:15:10: control_change channel=6 control=63 value=18 time=0
2024-10-13 19:15:10: control_change channel=6 control=31 value=35 time=0
2024-10-13 19:15:10: control_change channel=6 control=63 value=51 time=0
2024-10-13 19:15:10: control_change channel=6 control=31 value=35 time=0
2024-10-13 19:15:10: control_change channel=6 control=63 value=84 time=0
2024-10-13 19:15:10: control_change channel=6 control=31 value=35 time=0
2024-10-13 19:15:10: control_change channel=6 control=63 value=116 time=0
2024-10-13 19:15:10: control_change channel=6 control=31 value=36 time=0
2024-10-13 19:15:10: control_change channel=6 control=63 value=21 time=0
2024-10-13 19:15:10: control_change channel=6 control=31 value=36 time=0
2024-10-13 19:15:10: control_change channel=6 control=63 value=54 time=0
2024-10-13 19:15:10: control_change channel=6 control=31 value=36 time=0
2024-10-13 19:15:10: control_change channel=6 control=63 value=86 time=0
2024-10-13 19:15:10: control_change channel=6 control=31 value=36 time=0
2024-10-13 19:15:10: control_change channel=6 control=63 value=119 time=0
2024-10-13 19:15:10: control_change channel=6 control=31 value=37 time=0
2024-10-13 19:15:10: control_change channel=6 control=63 value=24 time=0
2024-10-13 19:15:10: control_change channel=6 control=31 value=37 time=0
2024-10-13 19:15:10: control_change channel=6 control=63 value=56 time=0
2024-10-13 19:15:10: control_change channel=6 control=31 value=37 time=0
2024-10-13 19:15:10: control_change channel=6 control=63 value=89 time=0
2024-10-13 19:15:10: control_change channel=6 control=31 value=37 time=0
2024-10-13 19:15:10: control_change channel=6 control=63 value=123 time=0
2024-10-13 19:15:10: control_change channel=6 control=31 value=38 time=0
2024-10-13 19:15:10: control_change channel=6 control=63 value=27 time=0
2024-10-13 19:15:10: control_change channel=6 control=31 value=38 time=0
2024-10-13 19:15:10: control_change channel=6 control=63 value=60 time=0
2024-10-13 19:15:10: control_change channel=6 control=31 value=38 time=0
2024-10-13 19:15:10: control_change channel=6 control=63 value=93 time=0
2024-10-13 19:15:10: control_change channel=6 control=31 value=38 time=0
2024-10-13 19:15:10: control_change channel=6 control=63 value=125 time=0
2024-10-13 19:15:10: control_change channel=6 control=31 value=39 time=0
2024-10-13 19:15:10: control_change channel=6 control=63 value=30 time=0
2024-10-13 19:15:10: control_change channel=6 control=31 value=39 time=0
2024-10-13 19:15:10: control_change channel=6 control=63 value=62 time=0
2024-10-13 19:15:10: control_change channel=6 control=31 value=39 time=0
2024-10-13 19:15:10: control_change channel=6 control=63 value=95 time=0
2024-10-13 19:15:10: control_change channel=6 control=31 value=40 time=0
2024-10-13 19:15:10: control_change channel=6 control=63 value=0 time=0
2024-10-13 19:15:10: control_change channel=6 control=31 value=40 time=0
2024-10-13 19:15:10: control_change channel=6 control=63 value=32 time=0
2024-10-13 19:15:10: control_change channel=6 control=31 value=40 time=0
2024-10-13 19:15:10: control_change channel=6 control=63 value=65 time=0
2024-10-13 19:15:10: control_change channel=6 control=31 value=40 time=0
2024-10-13 19:15:10: control_change channel=6 control=63 value=98 time=0
2024-10-13 19:15:10: control_change channel=6 control=31 value=41 time=0
2024-10-13 19:15:10: control_change channel=6 control=63 value=2 time=0
2024-10-13 19:15:10: control_change channel=6 control=31 value=41 time=0
2024-10-13 19:15:10: control_change channel=6 control=63 value=35 time=0
2024-10-13 19:15:10: control_change channel=6 control=31 value=41 time=0
2024-10-13 19:15:10: control_change channel=6 control=63 value=68 time=0
2024-10-13 19:15:10: control_change channel=6 control=31 value=41 time=0
2024-10-13 19:15:10: control_change channel=6 control=63 value=100 time=0
2024-10-13 19:15:10: control_change channel=6 control=31 value=42 time=0
2024-10-13 19:15:10: control_change channel=6 control=63 value=5 time=0
2024-10-13 19:15:10: control_change channel=6 control=31 value=42 time=0
2024-10-13 19:15:10: control_change channel=6 control=63 value=38 time=0
2024-10-13 19:15:10: control_change channel=6 control=31 value=42 time=0
2024-10-13 19:15:10: control_change channel=6 control=63 value=70 time=0
2024-10-13 19:15:10: control_change channel=6 control=31 value=42 time=0
2024-10-13 19:15:10: control_change channel=6 control=63 value=103 time=0
2024-10-13 19:15:10: control_change channel=6 control=31 value=43 time=0
2024-10-13 19:15:10: control_change channel=6 control=63 value=8 time=0
2024-10-13 19:15:10: control_change channel=6 control=31 value=43 time=0
2024-10-13 19:15:10: control_change channel=6 control=63 value=40 time=0
2024-10-13 19:15:10: control_change channel=6 control=31 value=43 time=0
2024-10-13 19:15:10: control_change channel=6 control=63 value=73 time=0
2024-10-13 19:15:10: control_change channel=6 control=31 value=43 time=0
2024-10-13 19:15:10: control_change channel=6 control=63 value=105 time=0
2024-10-13 19:15:10: control_change channel=6 control=31 value=44 time=0
2024-10-13 19:15:10: control_change channel=6 control=63 value=10 time=0
2024-10-13 19:15:10: control_change channel=6 control=31 value=44 time=0
2024-10-13 19:15:10: control_change channel=6 control=63 value=43 time=0
2024-10-13 19:15:10: control_change channel=6 control=31 value=44 time=0
2024-10-13 19:15:10: control_change channel=6 control=63 value=75 time=0
2024-10-13 19:15:10: control_change channel=6 control=31 value=44 time=0
2024-10-13 19:15:10: control_change channel=6 control=63 value=108 time=0
2024-10-13 19:15:10: control_change channel=6 control=31 value=45 time=0
2024-10-13 19:15:10: control_change channel=6 control=63 value=13 time=0
2024-10-13 19:15:10: control_change channel=6 control=31 value=45 time=0
2024-10-13 19:15:10: control_change channel=6 control=63 value=45 time=0
2024-10-13 19:15:10: control_change channel=6 control=31 value=45 time=0
2024-10-13 19:15:10: control_change channel=6 control=63 value=78 time=0
2024-10-13 19:15:10: control_change channel=6 control=31 value=45 time=0
2024-10-13 19:15:10: control_change channel=6 control=63 value=111 time=0
2024-10-13 19:15:10: control_change channel=6 control=31 value=46 time=0
2024-10-13 19:15:10: control_change channel=6 control=63 value=15 time=0
2024-10-13 19:15:10: control_change channel=6 control=31 value=46 time=0
2024-10-13 19:15:10: control_change channel=6 control=63 value=48 time=0
2024-10-13 19:15:10: control_change channel=6 control=31 value=46 time=0
2024-10-13 19:15:10: control_change channel=6 control=63 value=82 time=0
2024-10-13 19:15:10: control_change channel=6 control=31 value=46 time=0
2024-10-13 19:15:10: control_change channel=6 control=63 value=114 time=0
2024-10-13 19:15:10: control_change channel=6 control=31 value=47 time=0
2024-10-13 19:15:10: control_change channel=6 control=63 value=19 time=0
2024-10-13 19:15:10: control_change channel=6 control=31 value=47 time=0
2024-10-13 19:15:10: control_change channel=6 control=63 value=52 time=0
2024-10-13 19:15:10: control_change channel=6 control=31 value=47 time=0
2024-10-13 19:15:10: control_change channel=6 control=63 value=84 time=0
2024-10-13 19:15:10: control_change channel=6 control=31 value=47 time=0
2024-10-13 19:15:10: control_change channel=6 control=63 value=117 time=0
2024-10-13 19:15:10: control_change channel=6 control=31 value=48 time=0
2024-10-13 19:15:10: control_change channel=6 control=63 value=21 time=0
2024-10-13 19:15:10: control_change channel=6 control=31 value=48 time=0
2024-10-13 19:15:10: control_change channel=6 control=63 value=54 time=0
2024-10-13 19:15:10: control_change channel=6 control=31 value=48 time=0
2024-10-13 19:15:10: control_change channel=6 control=63 value=87 time=0
2024-10-13 19:15:10: control_change channel=6 control=31 value=48 time=0
2024-10-13 19:15:10: control_change channel=6 control=63 value=119 time=0
2024-10-13 19:15:10: control_change channel=6 control=31 value=49 time=0
2024-10-13 19:15:10: control_change channel=6 control=63 value=24 time=0
2024-10-13 19:15:10: control_change channel=6 control=31 value=49 time=0
2024-10-13 19:15:10: control_change channel=6 control=63 value=57 time=0
2024-10-13 19:15:10: control_change channel=6 control=31 value=49 time=0
2024-10-13 19:15:10: control_change channel=6 control=63 value=89 time=0
2024-10-13 19:15:10: control_change channel=6 control=31 value=49 time=0
2024-10-13 19:15:10: control_change channel=6 control=63 value=122 time=0
2024-10-13 19:15:10: control_change channel=6 control=31 value=50 time=0
2024-10-13 19:15:10: control_change channel=6 control=63 value=27 time=0
2024-10-13 19:15:10: control_change channel=6 control=31 value=50 time=0
2024-10-13 19:15:10: control_change channel=6 control=63 value=59 time=0
2024-10-13 19:15:10: control_change channel=6 control=31 value=50 time=0
2024-10-13 19:15:10: control_change channel=6 control=63 value=92 time=0
2024-10-13 19:15:10: control_change channel=6 control=31 value=50 time=0
2024-10-13 19:15:10: control_change channel=6 control=63 value=125 time=0
2024-10-13 19:15:10: control_change channel=6 control=31 value=51 time=0
2024-10-13 19:15:10: control_change channel=6 control=63 value=29 time=0
2024-10-13 19:15:10: control_change channel=6 control=31 value=51 time=0
2024-10-13 19:15:10: control_change channel=6 control=63 value=62 time=0
2024-10-13 19:15:10: control_change channel=6 control=31 value=51 time=0
2024-10-13 19:15:10: control_change channel=6 control=63 value=94 time=0
2024-10-13 19:15:10: control_change channel=6 control=31 value=51 time=0
2024-10-13 19:15:10: control_change channel=6 control=63 value=127 time=0
2024-10-13 19:15:10: control_change channel=6 control=31 value=52 time=0
2024-10-13 19:15:10: control_change channel=6 control=63 value=32 time=0
2024-10-13 19:15:10: control_change channel=6 control=31 value=52 time=0
2024-10-13 19:15:10: control_change channel=6 control=63 value=64 time=0
2024-10-13 19:15:10: control_change channel=6 control=31 value=52 time=0
2024-10-13 19:15:10: control_change channel=6 control=63 value=97 time=0
2024-10-13 19:15:10: control_change channel=6 control=31 value=53 time=0
2024-10-13 19:15:10: control_change channel=6 control=63 value=2 time=0
2024-10-13 19:15:10: control_change channel=6 control=31 value=53 time=0
2024-10-13 19:15:10: control_change channel=6 control=63 value=34 time=0
2024-10-13 19:15:10: control_change channel=6 control=31 value=53 time=0
2024-10-13 19:15:10: control_change channel=6 control=63 value=67 time=0
2024-10-13 19:15:10: control_change channel=6 control=31 value=53 time=0
2024-10-13 19:15:10: control_change channel=6 control=63 value=100 time=0
2024-10-13 19:15:10: control_change channel=6 control=31 value=54 time=0
2024-10-13 19:15:10: control_change channel=6 control=63 value=4 time=0
2024-10-13 19:15:10: control_change channel=6 control=31 value=54 time=0
2024-10-13 19:15:10: control_change channel=6 control=63 value=37 time=0
2024-10-13 19:15:10: control_change channel=6 control=31 value=54 time=0
2024-10-13 19:15:10: control_change channel=6 control=63 value=70 time=0
2024-10-13 19:15:10: control_change channel=6 control=31 value=54 time=0
2024-10-13 19:15:10: control_change channel=6 control=63 value=102 time=0
2024-10-13 19:15:10: control_change channel=6 control=31 value=55 time=0
2024-10-13 19:15:10: control_change channel=6 control=63 value=7 time=0
2024-10-13 19:15:10: control_change channel=6 control=31 value=55 time=0
2024-10-13 19:15:10: control_change channel=6 control=63 value=41 time=0
2024-10-13 19:15:10: control_change channel=6 control=31 value=55 time=0
2024-10-13 19:15:10: control_change channel=6 control=63 value=73 time=0
2024-10-13 19:15:10: control_change channel=6 control=31 value=55 time=0
2024-10-13 19:15:10: control_change channel=6 control=63 value=106 time=0
2024-10-13 19:15:10: control_change channel=6 control=31 value=56 time=0
2024-10-13 19:15:10: control_change channel=6 control=63 value=10 time=0
2024-10-13 19:15:10: control_change channel=6 control=31 value=56 time=0
2024-10-13 19:15:10: control_change channel=6 control=63 value=43 time=0
2024-10-13 19:15:11: control_change channel=6 control=31 value=56 time=0
2024-10-13 19:15:11: control_change channel=6 control=63 value=76 time=0
2024-10-13 19:15:11: control_change channel=6 control=31 value=56 time=0
2024-10-13 19:15:11: control_change channel=6 control=63 value=108 time=0
2024-10-13 19:15:11: control_change channel=6 control=31 value=57 time=0
2024-10-13 19:15:11: control_change channel=6 control=63 value=13 time=0
2024-10-13 19:15:11: control_change channel=6 control=31 value=57 time=0
2024-10-13 19:15:11: control_change channel=6 control=63 value=46 time=0
2024-10-13 19:15:11: control_change channel=6 control=31 value=57 time=0
2024-10-13 19:15:11: control_change channel=6 control=63 value=78 time=0
2024-10-13 19:15:11: control_change channel=6 control=31 value=57 time=0
2024-10-13 19:15:11: control_change channel=6 control=63 value=111 time=0
2024-10-13 19:15:11: control_change channel=6 control=31 value=58 time=0
2024-10-13 19:15:11: control_change channel=6 control=63 value=16 time=0
2024-10-13 19:15:11: control_change channel=6 control=31 value=58 time=0
2024-10-13 19:15:11: control_change channel=6 control=63 value=48 time=0
2024-10-13 19:15:11: control_change channel=6 control=31 value=58 time=0
2024-10-13 19:15:11: control_change channel=6 control=63 value=81 time=0
2024-10-13 19:15:11: control_change channel=6 control=31 value=58 time=0
2024-10-13 19:15:11: control_change channel=6 control=63 value=114 time=0
2024-10-13 19:15:11: control_change channel=6 control=31 value=59 time=0
2024-10-13 19:15:11: control_change channel=6 control=63 value=18 time=0
2024-10-13 19:15:11: control_change channel=6 control=31 value=59 time=0
2024-10-13 19:15:11: control_change channel=6 control=63 value=67 time=0
2024-10-13 19:15:11: control_change channel=6 control=31 value=59 time=0
2024-10-13 19:15:11: control_change channel=6 control=63 value=100 time=0
2024-10-13 19:15:11: control_change channel=6 control=31 value=60 time=0
2024-10-13 19:15:11: control_change channel=6 control=63 value=4 time=0
2024-10-13 19:15:11: control_change channel=6 control=31 value=60 time=0
2024-10-13 19:15:11: control_change channel=6 control=63 value=37 time=0
2024-10-13 19:15:11: control_change channel=6 control=31 value=60 time=0
2024-10-13 19:15:11: control_change channel=6 control=63 value=70 time=0
2024-10-13 19:15:11: control_change channel=6 control=31 value=60 time=0
2024-10-13 19:15:11: control_change channel=6 control=63 value=102 time=0
2024-10-13 19:15:11: control_change channel=6 control=31 value=61 time=0
2024-10-13 19:15:11: control_change channel=6 control=63 value=7 time=0
2024-10-13 19:15:11: control_change channel=6 control=31 value=61 time=0
2024-10-13 19:15:11: control_change channel=6 control=63 value=40 time=0
2024-10-13 19:15:11: control_change channel=6 control=31 value=61 time=0
2024-10-13 19:15:11: control_change channel=6 control=63 value=72 time=0
2024-10-13 19:15:11: control_change channel=6 control=31 value=61 time=0
2024-10-13 19:15:11: control_change channel=6 control=63 value=105 time=0
2024-10-13 19:15:11: control_change channel=6 control=31 value=62 time=0
2024-10-13 19:15:11: control_change channel=6 control=63 value=10 time=0
2024-10-13 19:15:11: control_change channel=6 control=31 value=62 time=0
2024-10-13 19:15:11: control_change channel=6 control=63 value=42 time=0
2024-10-13 19:15:11: control_change channel=6 control=31 value=62 time=0
2024-10-13 19:15:11: control_change channel=6 control=63 value=75 time=0
2024-10-13 19:15:11: control_change channel=6 control=31 value=62 time=0
2024-10-13 19:15:11: control_change channel=6 control=63 value=108 time=0
2024-10-13 19:15:11: control_change channel=6 control=31 value=63 time=0
2024-10-13 19:15:11: control_change channel=6 control=63 value=12 time=0
2024-10-13 19:15:11: control_change channel=6 control=31 value=63 time=0
2024-10-13 19:15:11: control_change channel=6 control=63 value=45 time=0
2024-10-13 19:15:11: control_change channel=6 control=31 value=63 time=0
2024-10-13 19:15:11: control_change channel=6 control=63 value=78 time=0
2024-10-13 19:15:11: control_change channel=6 control=31 value=63 time=0
2024-10-13 19:15:11: control_change channel=6 control=63 value=110 time=0
2024-10-13 19:15:11: control_change channel=6 control=31 value=64 time=0
2024-10-13 19:15:11: control_change channel=6 control=63 value=16 time=0
2024-10-13 19:15:11: control_change channel=6 control=31 value=64 time=0
2024-10-13 19:15:11: control_change channel=6 control=63 value=48 time=0
2024-10-13 19:15:11: control_change channel=6 control=31 value=64 time=0
2024-10-13 19:15:11: control_change channel=6 control=63 value=81 time=0
2024-10-13 19:15:11: control_change channel=6 control=31 value=64 time=0
2024-10-13 19:15:11: control_change channel=6 control=63 value=114 time=0
2024-10-13 19:15:11: control_change channel=6 control=31 value=65 time=0
2024-10-13 19:15:11: control_change channel=6 control=63 value=18 time=0
2024-10-13 19:15:11: control_change channel=6 control=31 value=65 time=0
2024-10-13 19:15:11: control_change channel=6 control=63 value=51 time=0
2024-10-13 19:15:11: control_change channel=6 control=31 value=65 time=0
2024-10-13 19:15:11: control_change channel=6 control=63 value=84 time=0
2024-10-13 19:15:12: control_change channel=6 control=31 value=65 time=0
2024-10-13 19:15:12: control_change channel=6 control=63 value=116 time=0
2024-10-13 19:15:12: control_change channel=6 control=31 value=66 time=0
2024-10-13 19:15:12: control_change channel=6 control=63 value=21 time=0
2024-10-13 19:15:12: control_change channel=6 control=31 value=66 time=0
2024-10-13 19:15:12: control_change channel=6 control=63 value=54 time=0
2024-10-13 19:15:12: control_change channel=6 control=31 value=66 time=0
2024-10-13 19:15:12: control_change channel=6 control=63 value=86 time=0
2024-10-13 19:15:12: control_change channel=6 control=31 value=66 time=0
2024-10-13 19:15:12: control_change channel=6 control=63 value=119 time=0
2024-10-13 19:15:12: control_change channel=6 control=31 value=67 time=0
2024-10-13 19:15:12: control_change channel=6 control=63 value=24 time=0
2024-10-13 19:15:12: control_change channel=6 control=31 value=67 time=0
2024-10-13 19:15:12: control_change channel=6 control=63 value=56 time=0
2024-10-13 19:15:12: control_change channel=6 control=31 value=67 time=0
2024-10-13 19:15:12: control_change channel=6 control=63 value=24 time=0
2024-10-13 19:15:12: control_change channel=6 control=31 value=66 time=0
2024-10-13 19:15:12: control_change channel=6 control=63 value=119 time=0
2024-10-13 19:15:12: control_change channel=6 control=31 value=66 time=0
2024-10-13 19:15:12: control_change channel=6 control=63 value=86 time=0
2024-10-13 19:15:12: control_change channel=6 control=31 value=66 time=0
2024-10-13 19:15:12: control_change channel=6 control=63 value=54 time=0
2024-10-13 19:15:12: control_change channel=6 control=31 value=66 time=0
2024-10-13 19:15:12: control_change channel=6 control=63 value=21 time=0
2024-10-13 19:15:12: control_change channel=6 control=31 value=65 time=0
2024-10-13 19:15:12: control_change channel=6 control=63 value=116 time=0
2024-10-13 19:15:12: control_change channel=6 control=31 value=65 time=0
2024-10-13 19:15:12: control_change channel=6 control=63 value=84 time=0
2024-10-13 19:15:12: control_change channel=6 control=31 value=65 time=0
2024-10-13 19:15:12: control_change channel=6 control=63 value=51 time=0
2024-10-13 19:15:12: control_change channel=6 control=31 value=65 time=0
2024-10-13 19:15:12: control_change channel=6 control=63 value=18 time=0
2024-10-13 19:15:12: control_change channel=6 control=31 value=64 time=0
2024-10-13 19:15:12: control_change channel=6 control=63 value=114 time=0
2024-10-13 19:15:12: control_change channel=6 control=31 value=64 time=0
2024-10-13 19:15:12: control_change channel=6 control=63 value=81 time=0
2024-10-13 19:15:12: control_change channel=6 control=31 value=64 time=0
2024-10-13 19:15:12: control_change channel=6 control=63 value=48 time=0
2024-10-13 19:15:12: control_change channel=6 control=31 value=64 time=0
2024-10-13 19:15:12: control_change channel=6 control=63 value=16 time=0
2024-10-13 19:15:12: control_change channel=6 control=31 value=63 time=0
2024-10-13 19:15:12: control_change channel=6 control=63 value=110 time=0
2024-10-13 19:15:12: control_change channel=6 control=31 value=63 time=0
2024-10-13 19:15:12: control_change channel=6 control=63 value=78 time=0
2024-10-13 19:15:12: control_change channel=6 control=31 value=63 time=0
2024-10-13 19:15:12: control_change channel=6 control=63 value=45 time=0
2024-10-13 19:15:12: control_change channel=6 control=31 value=63 time=0
2024-10-13 19:15:12: control_change channel=6 control=63 value=12 time=0
2024-10-13 19:15:12: control_change channel=6 control=31 value=62 time=0
2024-10-13 19:15:12: control_change channel=6 control=63 value=108 time=0
2024-10-13 19:15:12: control_change channel=6 control=31 value=62 time=0
2024-10-13 19:15:12: control_change channel=6 control=63 value=75 time=0
2024-10-13 19:15:12: control_change channel=6 control=31 value=62 time=0
2024-10-13 19:15:12: control_change channel=6 control=63 value=42 time=0
2024-10-13 19:15:12: control_change channel=6 control=31 value=62 time=0
2024-10-13 19:15:12: control_change channel=6 control=63 value=10 time=0
2024-10-13 19:15:12: control_change channel=6 control=31 value=61 time=0
2024-10-13 19:15:12: control_change channel=6 control=63 value=105 time=0
2024-10-13 19:15:12: control_change channel=6 control=31 value=61 time=0
2024-10-13 19:15:12: control_change channel=6 control=63 value=72 time=0
2024-10-13 19:15:12: control_change channel=6 control=31 value=61 time=0
2024-10-13 19:15:12: control_change channel=6 control=63 value=40 time=0
2024-10-13 19:15:12: control_change channel=6 control=31 value=61 time=0
2024-10-13 19:15:12: control_change channel=6 control=63 value=7 time=0
2024-10-13 19:15:12: control_change channel=6 control=31 value=60 time=0
2024-10-13 19:15:12: control_change channel=6 control=63 value=86 time=0
2024-10-13 19:15:12: control_change channel=6 control=31 value=60 time=0
2024-10-13 19:15:12: control_change channel=6 control=63 value=37 time=0
2024-10-13 19:15:12: control_change channel=6 control=31 value=60 time=0
2024-10-13 19:15:12: control_change channel=6 control=63 value=4 time=0
2024-10-13 19:15:12: control_change channel=6 control=31 value=59 time=0
2024-10-13 19:15:12: control_change channel=6 control=63 value=100 time=0
2024-10-13 19:15:12: control_change channel=6 control=31 value=59 time=0
2024-10-13 19:15:12: control_change channel=6 control=63 value=67 time=0
2024-10-13 19:15:12: control_change channel=6 control=31 value=59 time=0
2024-10-13 19:15:12: control_change channel=6 control=63 value=35 time=0
2024-10-13 19:15:12: control_change channel=6 control=31 value=59 time=0
2024-10-13 19:15:12: control_change channel=6 control=63 value=2 time=0
2024-10-13 19:15:12: control_change channel=6 control=31 value=58 time=0
2024-10-13 19:15:12: control_change channel=6 control=63 value=97 time=0
2024-10-13 19:15:12: control_change channel=6 control=31 value=58 time=0
2024-10-13 19:15:12: control_change channel=6 control=63 value=65 time=0
2024-10-13 19:15:12: control_change channel=6 control=31 value=58 time=0
2024-10-13 19:15:12: control_change channel=6 control=63 value=32 time=0
2024-10-13 19:15:12: control_change channel=6 control=31 value=57 time=0
2024-10-13 19:15:12: control_change channel=6 control=63 value=127 time=0
2024-10-13 19:15:12: control_change channel=6 control=31 value=57 time=0
2024-10-13 19:15:12: control_change channel=6 control=63 value=95 time=0
2024-10-13 19:15:12: control_change channel=6 control=31 value=57 time=0
2024-10-13 19:15:12: control_change channel=6 control=63 value=62 time=0
2024-10-13 19:15:12: control_change channel=6 control=31 value=57 time=0
2024-10-13 19:15:12: control_change channel=6 control=63 value=29 time=0
2024-10-13 19:15:12: control_change channel=6 control=31 value=56 time=0
2024-10-13 19:15:12: control_change channel=6 control=63 value=125 time=0
2024-10-13 19:15:12: control_change channel=6 control=31 value=56 time=0
2024-10-13 19:15:12: control_change channel=6 control=63 value=59 time=0
2024-10-13 19:15:12: control_change channel=6 control=31 value=56 time=0
2024-10-13 19:15:12: control_change channel=6 control=63 value=27 time=0
2024-10-13 19:15:12: control_change channel=6 control=31 value=55 time=0
2024-10-13 19:15:12: control_change channel=6 control=63 value=122 time=0
2024-10-13 19:15:12: control_change channel=6 control=31 value=55 time=0
2024-10-13 19:15:12: control_change channel=6 control=63 value=73 time=0
2024-10-13 19:15:12: control_change channel=6 control=31 value=55 time=0
2024-10-13 19:15:12: control_change channel=6 control=63 value=23 time=0
2024-10-13 19:15:12: control_change channel=6 control=31 value=54 time=0
2024-10-13 19:15:12: control_change channel=6 control=63 value=119 time=0
2024-10-13 19:15:12: control_change channel=6 control=31 value=54 time=0
2024-10-13 19:15:12: control_change channel=6 control=63 value=86 time=0
2024-10-13 19:15:12: control_change channel=6 control=31 value=54 time=0
2024-10-13 19:15:12: control_change channel=6 control=63 value=53 time=0
2024-10-13 19:15:12: control_change channel=6 control=31 value=54 time=0
2024-10-13 19:15:12: control_change channel=6 control=63 value=21 time=0
2024-10-13 19:15:12: control_change channel=6 control=31 value=53 time=0
2024-10-13 19:15:12: control_change channel=6 control=63 value=116 time=0
2024-10-13 19:15:12: control_change channel=6 control=31 value=53 time=0
2024-10-13 19:15:12: control_change channel=6 control=63 value=67 time=0
2024-10-13 19:15:12: control_change channel=6 control=31 value=53 time=0
2024-10-13 19:15:12: control_change channel=6 control=63 value=34 time=0
2024-10-13 19:15:12: control_change channel=6 control=31 value=52 time=0
2024-10-13 19:15:12: control_change channel=6 control=63 value=113 time=0
2024-10-13 19:15:12: control_change channel=6 control=31 value=52 time=0
2024-10-13 19:15:12: control_change channel=6 control=63 value=81 time=0
2024-10-13 19:15:12: control_change channel=6 control=31 value=52 time=0
2024-10-13 19:15:12: control_change channel=6 control=63 value=32 time=0
2024-10-13 19:15:12: control_change channel=6 control=31 value=51 time=0
2024-10-13 19:15:12: control_change channel=6 control=63 value=127 time=0
2024-10-13 19:15:12: control_change channel=6 control=31 value=51 time=0
2024-10-13 19:15:12: control_change channel=6 control=63 value=62 time=0
2024-10-13 19:15:12: control_change channel=6 control=31 value=51 time=0
2024-10-13 19:15:12: control_change channel=6 control=63 value=29 time=0
2024-10-13 19:15:12: control_change channel=6 control=31 value=50 time=0
2024-10-13 19:15:12: control_change channel=6 control=63 value=125 time=0
2024-10-13 19:15:12: control_change channel=6 control=31 value=50 time=0
2024-10-13 19:15:12: control_change channel=6 control=63 value=76 time=0
2024-10-13 19:15:12: control_change channel=6 control=31 value=50 time=0
2024-10-13 19:15:12: control_change channel=6 control=63 value=10 time=0
2024-10-13 19:15:12: control_change channel=6 control=31 value=49 time=0
2024-10-13 19:15:12: control_change channel=6 control=63 value=106 time=0
2024-10-13 19:15:12: control_change channel=6 control=31 value=49 time=0
2024-10-13 19:15:12: control_change channel=6 control=63 value=73 time=0
2024-10-13 19:15:12: control_change channel=6 control=31 value=49 time=0
2024-10-13 19:15:12: control_change channel=6 control=63 value=24 time=0
2024-10-13 19:15:12: control_change channel=6 control=31 value=48 time=0
2024-10-13 19:15:12: control_change channel=6 control=63 value=87 time=0
2024-10-13 19:15:12: control_change channel=6 control=31 value=48 time=0
2024-10-13 19:15:12: control_change channel=6 control=63 value=54 time=0
2024-10-13 19:15:12: control_change channel=6 control=31 value=48 time=0
2024-10-13 19:15:12: control_change channel=6 control=63 value=21 time=0
2024-10-13 19:15:12: control_change channel=6 control=31 value=47 time=0
2024-10-13 19:15:12: control_change channel=6 control=63 value=84 time=0
2024-10-13 19:15:12: control_change channel=6 control=31 value=47 time=0
2024-10-13 19:15:12: control_change channel=6 control=63 value=35 time=0
2024-10-13 19:15:12: control_change channel=6 control=31 value=46 time=0
2024-10-13 19:15:12: control_change channel=6 control=63 value=114 time=0
2024-10-13 19:15:12: control_change channel=6 control=31 value=46 time=0
2024-10-13 19:15:12: control_change channel=6 control=63 value=82 time=0
2024-10-13 19:15:12: control_change channel=6 control=31 value=46 time=0
2024-10-13 19:15:12: control_change channel=6 control=63 value=32 time=0
2024-10-13 19:15:12: control_change channel=6 control=31 value=45 time=0
2024-10-13 19:15:12: control_change channel=6 control=63 value=111 time=0
2024-10-13 19:15:12: control_change channel=6 control=31 value=45 time=0
2024-10-13 19:15:12: control_change channel=6 control=63 value=62 time=0
2024-10-13 19:15:12: control_change channel=6 control=31 value=45 time=0
2024-10-13 19:15:12: control_change channel=6 control=63 value=13 time=0
2024-10-13 19:15:12: control_change channel=6 control=31 value=44 time=0
2024-10-13 19:15:12: control_change channel=6 control=63 value=92 time=0
2024-10-13 19:15:12: control_change channel=6 control=31 value=44 time=0
2024-10-13 19:15:12: control_change channel=6 control=63 value=59 time=0
2024-10-13 19:15:12: control_change channel=6 control=31 value=44 time=0
2024-10-13 19:15:12: control_change channel=6 control=63 value=26 time=0
2024-10-13 19:15:12: control_change channel=6 control=31 value=43 time=0
2024-10-13 19:15:12: control_change channel=6 control=63 value=73 time=0
2024-10-13 19:15:12: control_change channel=6 control=31 value=43 time=0
2024-10-13 19:15:12: control_change channel=6 control=63 value=24 time=0
2024-10-13 19:15:12: control_change channel=6 control=31 value=42 time=0
2024-10-13 19:15:12: control_change channel=6 control=63 value=119 time=0
2024-10-13 19:15:12: control_change channel=6 control=31 value=42 time=0
2024-10-13 19:15:12: control_change channel=6 control=63 value=54 time=0
2024-10-13 19:15:12: control_change channel=6 control=31 value=42 time=0
2024-10-13 19:15:12: control_change channel=6 control=63 value=21 time=0
2024-10-13 19:15:12: control_change channel=6 control=31 value=41 time=0
2024-10-13 19:15:12: control_change channel=6 control=63 value=68 time=0
2024-10-13 19:15:12: control_change channel=6 control=31 value=41 time=0
2024-10-13 19:15:12: control_change channel=6 control=63 value=2 time=0
2024-10-13 19:15:12: control_change channel=6 control=31 value=40 time=0
2024-10-13 19:15:12: control_change channel=6 control=63 value=81 time=0
2024-10-13 19:15:12: control_change channel=6 control=31 value=40 time=0
2024-10-13 19:15:12: control_change channel=6 control=63 value=32 time=0
2024-10-13 19:15:12: control_change channel=6 control=31 value=39 time=0
2024-10-13 19:15:12: control_change channel=6 control=63 value=95 time=0
2024-10-13 19:15:12: control_change channel=6 control=31 value=39 time=0
2024-10-13 19:15:12: control_change channel=6 control=63 value=62 time=0
2024-10-13 19:15:12: control_change channel=6 control=31 value=38 time=0
2024-10-13 19:15:12: control_change channel=6 control=63 value=109 time=0
2024-10-13 19:15:12: control_change channel=6 control=31 value=38 time=0
2024-10-13 19:15:12: control_change channel=6 control=63 value=44 time=0
2024-10-13 19:15:12: control_change channel=6 control=31 value=37 time=0
2024-10-13 19:15:12: control_change channel=6 control=63 value=106 time=0
2024-10-13 19:15:12: control_change channel=6 control=31 value=37 time=0
2024-10-13 19:15:12: control_change channel=6 control=63 value=40 time=0
2024-10-13 19:15:12: control_change channel=6 control=31 value=37 time=0
2024-10-13 19:15:12: control_change channel=6 control=63 value=7 time=0
2024-10-13 19:15:12: control_change channel=6 control=31 value=36 time=0
2024-10-13 19:15:12: control_change channel=6 control=63 value=70 time=0
2024-10-13 19:15:12: control_change channel=6 control=31 value=35 time=0
2024-10-13 19:15:12: control_change channel=6 control=63 value=116 time=0
2024-10-13 19:15:12: control_change channel=6 control=31 value=35 time=0
2024-10-13 19:15:12: control_change channel=6 control=63 value=51 time=0
2024-10-13 19:15:12: control_change channel=6 control=31 value=34 time=0
2024-10-13 19:15:12: control_change channel=6 control=63 value=114 time=0
2024-10-13 19:15:12: control_change channel=6 control=31 value=34 time=0
2024-10-13 19:15:12: control_change channel=6 control=63 value=81 time=0
2024-10-13 19:15:12: control_change channel=6 control=31 value=33 time=0
2024-10-13 19:15:12: control_change channel=6 control=63 value=111 time=0
2024-10-13 19:15:12: control_change channel=6 control=31 value=33 time=0
2024-10-13 19:15:12: control_change channel=6 control=63 value=46 time=0
2024-10-13 19:15:12: control_change channel=6 control=31 value=32 time=0
2024-10-13 19:15:12: control_change channel=6 control=63 value=109 time=0
2024-10-13 19:15:12: control_change channel=6 control=31 value=32 time=0
2024-10-13 19:15:12: control_change channel=6 control=63 value=43 time=0
2024-10-13 19:15:12: control_change channel=6 control=31 value=31 time=0
2024-10-13 19:15:12: control_change channel=6 control=63 value=106 time=0
2024-10-13 19:15:12: control_change channel=6 control=31 value=31 time=0
2024-10-13 19:15:12: control_change channel=6 control=63 value=41 time=0
2024-10-13 19:15:12: control_change channel=6 control=31 value=30 time=0
2024-10-13 19:15:12: control_change channel=6 control=63 value=103 time=0
2024-10-13 19:15:12: control_change channel=6 control=31 value=30 time=0
2024-10-13 19:15:12: control_change channel=6 control=63 value=55 time=0
2024-10-13 19:15:12: control_change channel=6 control=31 value=29 time=0
2024-10-13 19:15:12: control_change channel=6 control=63 value=117 time=0
2024-10-13 19:15:12: control_change channel=6 control=31 value=29 time=0
2024-10-13 19:15:12: control_change channel=6 control=63 value=19 time=0
2024-10-13 19:15:12: control_change channel=6 control=31 value=28 time=0
2024-10-13 19:15:12: control_change channel=6 control=63 value=81 time=0
2024-10-13 19:15:12: control_change channel=6 control=31 value=28 time=0
2024-10-13 19:15:12: control_change channel=6 control=63 value=16 time=0
2024-10-13 19:15:12: control_change channel=6 control=31 value=27 time=0
2024-10-13 19:15:12: control_change channel=6 control=63 value=62 time=0
2024-10-13 19:15:12: control_change channel=6 control=31 value=26 time=0
2024-10-13 19:15:12: control_change channel=6 control=63 value=108 time=0
2024-10-13 19:15:12: control_change channel=6 control=31 value=26 time=0
2024-10-13 19:15:12: control_change channel=6 control=63 value=43 time=0
2024-10-13 19:15:12: control_change channel=6 control=31 value=25 time=0
2024-10-13 19:15:12: control_change channel=6 control=63 value=122 time=0
2024-10-13 19:15:12: control_change channel=6 control=31 value=25 time=0
2024-10-13 19:15:12: control_change channel=6 control=63 value=41 time=0
2024-10-13 19:15:12: control_change channel=6 control=31 value=24 time=0
2024-10-13 19:15:12: control_change channel=6 control=63 value=103 time=0
2024-10-13 19:15:12: control_change channel=6 control=31 value=24 time=0
2024-10-13 19:15:12: control_change channel=6 control=63 value=38 time=0
2024-10-13 19:15:12: control_change channel=6 control=31 value=23 time=0
2024-10-13 19:15:12: control_change channel=6 control=63 value=84 time=0
2024-10-13 19:15:12: control_change channel=6 control=31 value=23 time=0
2024-10-13 19:15:12: control_change channel=6 control=63 value=19 time=0
2024-10-13 19:15:12: control_change channel=6 control=31 value=22 time=0
2024-10-13 19:15:12: control_change channel=6 control=63 value=82 time=0
2024-10-13 19:15:12: control_change channel=6 control=31 value=22 time=0
2024-10-13 19:15:12: control_change channel=6 control=63 value=17 time=0
2024-10-13 19:15:12: control_change channel=6 control=31 value=21 time=0
2024-10-13 19:15:12: control_change channel=6 control=63 value=79 time=0
2024-10-13 19:15:12: control_change channel=6 control=31 value=21 time=0
2024-10-13 19:15:12: control_change channel=6 control=63 value=30 time=0
2024-10-13 19:15:12: control_change channel=6 control=31 value=20 time=0
2024-10-13 19:15:12: control_change channel=6 control=63 value=93 time=0
2024-10-13 19:15:12: control_change channel=6 control=31 value=20 time=0
2024-10-13 19:15:12: control_change channel=6 control=63 value=10 time=0
2024-10-13 19:15:12: control_change channel=6 control=31 value=19 time=0
2024-10-13 19:15:12: control_change channel=6 control=63 value=89 time=0
2024-10-13 19:15:12: control_change channel=6 control=31 value=18 time=0
2024-10-13 19:15:12: control_change channel=6 control=63 value=119 time=0
2024-10-13 19:15:12: control_change channel=6 control=31 value=18 time=0
2024-10-13 19:15:12: control_change channel=6 control=63 value=54 time=0
2024-10-13 19:15:12: control_change channel=6 control=31 value=17 time=0
2024-10-13 19:15:12: control_change channel=6 control=63 value=117 time=0
2024-10-13 19:15:12: control_change channel=6 control=31 value=17 time=0
2024-10-13 19:15:12: control_change channel=6 control=63 value=52 time=0
2024-10-13 19:15:12: control_change channel=6 control=31 value=16 time=0
2024-10-13 19:15:12: control_change channel=6 control=63 value=98 time=0
2024-10-13 19:15:12: control_change channel=6 control=31 value=16 time=0
2024-10-13 19:15:12: control_change channel=6 control=63 value=33 time=0
2024-10-13 19:15:12: control_change channel=6 control=31 value=15 time=0
2024-10-13 19:15:12: control_change channel=6 control=63 value=95 time=0
2024-10-13 19:15:12: control_change channel=6 control=31 value=15 time=0
2024-10-13 19:15:12: control_change channel=6 control=63 value=30 time=0
2024-10-13 19:15:12: control_change channel=6 control=31 value=14 time=0
2024-10-13 19:15:12: control_change channel=6 control=63 value=76 time=0
2024-10-13 19:15:12: control_change channel=6 control=31 value=14 time=0
2024-10-13 19:15:12: control_change channel=6 control=63 value=11 time=0
2024-10-13 19:15:12: control_change channel=6 control=31 value=13 time=0
2024-10-13 19:15:12: control_change channel=6 control=63 value=74 time=0
2024-10-13 19:15:12: control_change channel=6 control=31 value=13 time=0
2024-10-13 19:15:12: control_change channel=6 control=63 value=9 time=0
2024-10-13 19:15:12: control_change channel=6 control=31 value=12 time=0
2024-10-13 19:15:12: control_change channel=6 control=63 value=55 time=0
2024-10-13 19:15:12: control_change channel=6 control=31 value=11 time=0
2024-10-13 19:15:12: control_change channel=6 control=63 value=118 time=0
2024-10-13 19:15:12: control_change channel=6 control=31 value=11 time=0
2024-10-13 19:15:12: control_change channel=6 control=63 value=51 time=0
2024-10-13 19:15:12: control_change channel=6 control=31 value=10 time=0
2024-10-13 19:15:12: control_change channel=6 control=63 value=98 time=0
2024-10-13 19:15:12: control_change channel=6 control=31 value=10 time=0
2024-10-13 19:15:12: control_change channel=6 control=63 value=32 time=0
2024-10-13 19:15:12: control_change channel=6 control=31 value=9 time=0
2024-10-13 19:15:12: control_change channel=6 control=63 value=95 time=0
2024-10-13 19:15:12: control_change channel=6 control=31 value=9 time=0
2024-10-13 19:15:12: control_change channel=6 control=63 value=14 time=0
2024-10-13 19:15:12: control_change channel=6 control=31 value=8 time=0
2024-10-13 19:15:12: control_change channel=6 control=63 value=76 time=0
2024-10-13 19:15:12: control_change channel=6 control=31 value=8 time=0
2024-10-13 19:15:12: control_change channel=6 control=63 value=11 time=0
2024-10-13 19:15:12: control_change channel=6 control=31 value=7 time=0
2024-10-13 19:15:12: control_change channel=6 control=63 value=57 time=0
2024-10-13 19:15:12: control_change channel=6 control=31 value=6 time=0
2024-10-13 19:15:12: control_change channel=6 control=63 value=120 time=0
2024-10-13 19:15:12: control_change channel=6 control=31 value=6 time=0
2024-10-13 19:15:12: control_change channel=6 control=63 value=55 time=0
2024-10-13 19:15:12: control_change channel=6 control=31 value=5 time=0
2024-10-13 19:15:12: control_change channel=6 control=63 value=117 time=0
2024-10-13 19:15:12: control_change channel=6 control=31 value=5 time=0
2024-10-13 19:15:12: control_change channel=6 control=63 value=52 time=0
2024-10-13 19:15:12: control_change channel=6 control=31 value=4 time=0
2024-10-13 19:15:12: control_change channel=6 control=63 value=115 time=0
2024-10-13 19:15:12: control_change channel=6 control=31 value=4 time=0
2024-10-13 19:15:12: control_change channel=6 control=63 value=33 time=0
2024-10-13 19:15:12: control_change channel=6 control=31 value=3 time=0
2024-10-13 19:15:12: control_change channel=6 control=63 value=96 time=0
2024-10-13 19:15:12: control_change channel=6 control=31 value=3 time=0
2024-10-13 19:15:12: control_change channel=6 control=63 value=14 time=0
2024-10-13 19:15:12: control_change channel=6 control=31 value=2 time=0
2024-10-13 19:15:12: control_change channel=6 control=63 value=76 time=0
2024-10-13 19:15:12: control_change channel=6 control=31 value=2 time=0
2024-10-13 19:15:12: control_change channel=6 control=63 value=11 time=0
2024-10-13 19:15:12: control_change channel=6 control=31 value=1 time=0
2024-10-13 19:15:12: control_change channel=6 control=63 value=57 time=0
2024-10-13 19:15:12: control_change channel=6 control=31 value=0 time=0
2024-10-13 19:15:12: control_change channel=6 control=63 value=120 time=0
2024-10-13 19:15:12: control_change channel=6 control=31 value=0 time=0
2024-10-13 19:15:12: control_change channel=6 control=63 value=38 time=0
2024-10-13 19:15:12: control_change channel=6 control=31 value=0 time=0
2024-10-13 19:15:12: control_change channel=6 control=63 value=0 time=0
2024-10-13 19:15:12: control_change channel=6 control=31 value=0 time=0
2024-10-13 19:15:12: control_change channel=6 control=63 value=22 time=0
2024-10-13 19:15:12: control_change channel=6 control=31 value=0 time=0
2024-10-13 19:15:12: control_change channel=6 control=63 value=55 time=0
2024-10-13 19:15:12: control_change channel=6 control=31 value=0 time=0
2024-10-13 19:15:12: control_change channel=6 control=63 value=87 time=0
2024-10-13 19:15:12: control_change channel=6 control=31 value=0 time=0
2024-10-13 19:15:12: control_change channel=6 control=63 value=120 time=0
2024-10-13 19:15:12: control_change channel=6 control=31 value=1 time=0
2024-10-13 19:15:12: control_change channel=6 control=63 value=25 time=0
2024-10-13 19:15:12: control_change channel=6 control=31 value=1 time=0
2024-10-13 19:15:12: control_change channel=6 control=63 value=57 time=0
2024-10-13 19:15:12: control_change channel=6 control=31 value=1 time=0
2024-10-13 19:15:12: control_change channel=6 control=63 value=90 time=0
2024-10-13 19:15:12: control_change channel=6 control=31 value=1 time=0
2024-10-13 19:15:12: control_change channel=6 control=63 value=122 time=0
2024-10-13 19:15:12: control_change channel=6 control=31 value=2 time=0
2024-10-13 19:15:12: control_change channel=6 control=63 value=27 time=0
2024-10-13 19:15:12: control_change channel=6 control=31 value=2 time=0
2024-10-13 19:15:12: control_change channel=6 control=63 value=60 time=0
2024-10-13 19:15:12: control_change channel=6 control=31 value=2 time=0
2024-10-13 19:15:12: control_change channel=6 control=63 value=92 time=0
2024-10-13 19:15:12: control_change channel=6 control=31 value=2 time=0
2024-10-13 19:15:12: control_change channel=6 control=63 value=125 time=0
2024-10-13 19:15:12: control_change channel=6 control=31 value=3 time=0
2024-10-13 19:15:12: control_change channel=6 control=63 value=31 time=0
2024-10-13 19:15:12: control_change channel=6 control=31 value=3 time=0
2024-10-13 19:15:12: control_change channel=6 control=63 value=63 time=0
2024-10-13 19:15:12: control_change channel=6 control=31 value=3 time=0
2024-10-13 19:15:12: control_change channel=6 control=63 value=96 time=0
2024-10-13 19:15:12: control_change channel=6 control=31 value=4 time=0
2024-10-13 19:15:12: control_change channel=6 control=63 value=1 time=0
2024-10-13 19:15:12: control_change channel=6 control=31 value=4 time=0
2024-10-13 19:15:12: control_change channel=6 control=63 value=33 time=0
2024-10-13 19:15:12: control_change channel=6 control=31 value=4 time=0
2024-10-13 19:15:12: control_change channel=6 control=63 value=66 time=0
2024-10-13 19:15:12: control_change channel=6 control=31 value=4 time=0
2024-10-13 19:15:12: control_change channel=6 control=63 value=99 time=0
2024-10-13 19:15:12: control_change channel=6 control=31 value=5 time=0
2024-10-13 19:15:12: control_change channel=6 control=63 value=3 time=0
2024-10-13 19:15:12: control_change channel=6 control=31 value=5 time=0
2024-10-13 19:15:12: control_change channel=6 control=63 value=36 time=0
2024-10-13 19:15:12: control_change channel=6 control=31 value=5 time=0
2024-10-13 19:15:12: control_change channel=6 control=63 value=69 time=0
2024-10-13 19:15:12: control_change channel=6 control=31 value=5 time=0
2024-10-13 19:15:12: control_change channel=6 control=63 value=101 time=0
2024-10-13 19:15:12: control_change channel=6 control=31 value=6 time=0
2024-10-13 19:15:12: control_change channel=6 control=63 value=6 time=0
2024-10-13 19:15:12: control_change channel=6 control=31 value=6 time=0
2024-10-13 19:15:12: control_change channel=6 control=63 value=38 time=0
2024-10-13 19:15:12: control_change channel=6 control=31 value=6 time=0
2024-10-13 19:15:12: control_change channel=6 control=63 value=71 time=0
2024-10-13 19:15:12: control_change channel=6 control=31 value=6 time=0
2024-10-13 19:15:12: control_change channel=6 control=63 value=104 time=0
2024-10-13 19:15:12: control_change channel=6 control=31 value=7 time=0
2024-10-13 19:15:12: control_change channel=6 control=63 value=8 time=0
2024-10-13 19:15:12: control_change channel=6 control=31 value=7 time=0
2024-10-13 19:15:12: control_change channel=6 control=63 value=41 time=0
2024-10-13 19:15:12: control_change channel=6 control=31 value=7 time=0
2024-10-13 19:15:12: control_change channel=6 control=63 value=74 time=0
2024-10-13 19:15:12: control_change channel=6 control=31 value=7 time=0
2024-10-13 19:15:12: control_change channel=6 control=63 value=106 time=0
2024-10-13 19:15:12: control_change channel=6 control=31 value=8 time=0
2024-10-13 19:15:12: control_change channel=6 control=63 value=11 time=0
2024-10-13 19:15:12: control_change channel=6 control=31 value=8 time=0
2024-10-13 19:15:12: control_change channel=6 control=63 value=44 time=0
2024-10-13 19:15:12: control_change channel=6 control=31 value=8 time=0
2024-10-13 19:15:12: control_change channel=6 control=63 value=76 time=0
2024-10-13 19:15:12: control_change channel=6 control=31 value=8 time=0
2024-10-13 19:15:12: control_change channel=6 control=63 value=109 time=0
2024-10-13 19:15:12: control_change channel=6 control=31 value=9 time=0
2024-10-13 19:15:12: control_change channel=6 control=63 value=14 time=0
2024-10-13 19:15:12: control_change channel=6 control=31 value=9 time=0
2024-10-13 19:15:12: control_change channel=6 control=63 value=46 time=0
2024-10-13 19:15:12: control_change channel=6 control=31 value=9 time=0
2024-10-13 19:15:12: control_change channel=6 control=63 value=79 time=0
2024-10-13 19:15:12: control_change channel=6 control=31 value=9 time=0
2024-10-13 19:15:12: control_change channel=6 control=63 value=111 time=0
2024-10-13 19:15:12: control_change channel=6 control=31 value=10 time=0
2024-10-13 19:15:12: control_change channel=6 control=63 value=16 time=0
2024-10-13 19:15:12: control_change channel=6 control=31 value=10 time=0
2024-10-13 19:15:12: control_change channel=6 control=63 value=49 time=0
2024-10-13 19:15:12: control_change channel=6 control=31 value=10 time=0
2024-10-13 19:15:12: control_change channel=6 control=63 value=81 time=0
2024-10-13 19:15:12: control_change channel=6 control=31 value=10 time=0
2024-10-13 19:15:12: control_change channel=6 control=63 value=114 time=0
2024-10-13 19:15:12: control_change channel=6 control=31 value=11 time=0
2024-10-13 19:15:12: control_change channel=6 control=63 value=19 time=0
2024-10-13 19:15:12: control_change channel=6 control=31 value=11 time=0
2024-10-13 19:15:12: control_change channel=6 control=63 value=51 time=0
2024-10-13 19:15:12: control_change channel=6 control=31 value=11 time=0
2024-10-13 19:15:12: control_change channel=6 control=63 value=84 time=0
2024-10-13 19:15:12: control_change channel=6 control=31 value=11 time=0
2024-10-13 19:15:12: control_change channel=6 control=63 value=118 time=0
2024-10-13 19:15:12: control_change channel=6 control=31 value=12 time=0
2024-10-13 19:15:12: control_change channel=6 control=63 value=22 time=0
2024-10-13 19:15:12: control_change channel=6 control=31 value=12 time=0
2024-10-13 19:15:12: control_change channel=6 control=63 value=55 time=0
2024-10-13 19:15:12: control_change channel=6 control=31 value=12 time=0
2024-10-13 19:15:12: control_change channel=6 control=63 value=88 time=0
2024-10-13 19:15:12: control_change channel=6 control=31 value=12 time=0
2024-10-13 19:15:12: control_change channel=6 control=63 value=120 time=0
2024-10-13 19:15:12: control_change channel=6 control=31 value=13 time=0
2024-10-13 19:15:12: control_change channel=6 control=63 value=25 time=0
2024-10-13 19:15:12: control_change channel=6 control=31 value=13 time=0
2024-10-13 19:15:12: control_change channel=6 control=63 value=58 time=0
2024-10-13 19:15:12: control_change channel=6 control=31 value=13 time=0
2024-10-13 19:15:12: control_change channel=6 control=63 value=90 time=0
2024-10-13 19:15:12: control_change channel=6 control=31 value=13 time=0
2024-10-13 19:15:12: control_change channel=6 control=63 value=123 time=0
2024-10-13 19:15:12: control_change channel=6 control=31 value=14 time=0
2024-10-13 19:15:12: control_change channel=6 control=63 value=27 time=0
2024-10-13 19:15:12: control_change channel=6 control=31 value=14 time=0
2024-10-13 19:15:12: control_change channel=6 control=63 value=60 time=0
2024-10-13 19:15:12: control_change channel=6 control=31 value=14 time=0
2024-10-13 19:15:12: control_change channel=6 control=63 value=93 time=0
2024-10-13 19:15:12: control_change channel=6 control=31 value=14 time=0
2024-10-13 19:15:12: control_change channel=6 control=63 value=125 time=0
2024-10-13 19:15:12: control_change channel=6 control=31 value=15 time=0
2024-10-13 19:15:12: control_change channel=6 control=63 value=30 time=0
2024-10-13 19:15:13: control_change channel=6 control=31 value=15 time=0
2024-10-13 19:15:13: control_change channel=6 control=63 value=63 time=0
2024-10-13 19:15:13: control_change channel=6 control=31 value=15 time=0
2024-10-13 19:15:13: control_change channel=6 control=63 value=95 time=0
2024-10-13 19:15:13: control_change channel=6 control=31 value=16 time=0
2024-10-13 19:15:13: control_change channel=6 control=63 value=0 time=0
2024-10-13 19:15:13: control_change channel=6 control=31 value=16 time=0
2024-10-13 19:15:13: control_change channel=6 control=63 value=33 time=0
2024-10-13 19:15:13: control_change channel=6 control=31 value=16 time=0
2024-10-13 19:15:13: control_change channel=6 control=63 value=65 time=0
2024-10-13 19:15:13: control_change channel=6 control=31 value=16 time=0
2024-10-13 19:15:13: control_change channel=6 control=63 value=98 time=0
2024-10-13 19:15:13: control_change channel=6 control=31 value=17 time=0
2024-10-13 19:15:13: control_change channel=6 control=63 value=3 time=0
2024-10-13 19:15:13: control_change channel=6 control=31 value=17 time=0
2024-10-13 19:15:13: control_change channel=6 control=63 value=35 time=0
2024-10-13 19:15:13: control_change channel=6 control=31 value=17 time=0
2024-10-13 19:15:13: control_change channel=6 control=63 value=68 time=0
2024-10-13 19:15:13: control_change channel=6 control=31 value=17 time=0
2024-10-13 19:15:13: control_change channel=6 control=63 value=101 time=0
2024-10-13 19:15:13: control_change channel=6 control=31 value=18 time=0
2024-10-13 19:15:13: control_change channel=6 control=63 value=5 time=0
2024-10-13 19:15:13: control_change channel=6 control=31 value=18 time=0
2024-10-13 19:15:13: control_change channel=6 control=63 value=38 time=0
2024-10-13 19:15:13: control_change channel=6 control=31 value=18 time=0
2024-10-13 19:15:13: control_change channel=6 control=63 value=70 time=0
2024-10-13 19:15:13: control_change channel=6 control=31 value=18 time=0
2024-10-13 19:15:13: control_change channel=6 control=63 value=103 time=0
2024-10-13 19:15:13: control_change channel=6 control=31 value=19 time=0
2024-10-13 19:15:13: control_change channel=6 control=63 value=8 time=0
2024-10-13 19:15:13: control_change channel=6 control=31 value=19 time=0
2024-10-13 19:15:13: control_change channel=6 control=63 value=40 time=0
2024-10-13 19:15:13: control_change channel=6 control=31 value=19 time=0
2024-10-13 19:15:13: control_change channel=6 control=63 value=73 time=0
2024-10-13 19:15:13: control_change channel=6 control=31 value=19 time=0
2024-10-13 19:15:13: control_change channel=6 control=63 value=106 time=0
2024-10-13 19:15:13: control_change channel=6 control=31 value=20 time=0
2024-10-13 19:15:13: control_change channel=6 control=63 value=10 time=0
2024-10-13 19:15:13: control_change channel=6 control=31 value=20 time=0
2024-10-13 19:15:13: control_change channel=6 control=63 value=43 time=0
2024-10-13 19:15:13: control_change channel=6 control=31 value=20 time=0
2024-10-13 19:15:13: control_change channel=6 control=63 value=109 time=0
2024-10-13 19:15:13: control_change channel=6 control=31 value=21 time=0
2024-10-13 19:15:13: control_change channel=6 control=63 value=30 time=0
2024-10-13 19:15:13: control_change channel=6 control=31 value=21 time=0
2024-10-13 19:15:13: control_change channel=6 control=63 value=63 time=0
2024-10-13 19:15:13: control_change channel=6 control=31 value=21 time=0
2024-10-13 19:15:13: control_change channel=6 control=63 value=96 time=0
2024-10-13 19:15:13: control_change channel=6 control=31 value=22 time=0
2024-10-13 19:15:13: control_change channel=6 control=63 value=0 time=0
2024-10-13 19:15:13: control_change channel=6 control=31 value=22 time=0
2024-10-13 19:15:13: control_change channel=6 control=63 value=33 time=0
2024-10-13 19:15:13: control_change channel=6 control=31 value=22 time=0
2024-10-13 19:15:13: control_change channel=6 control=63 value=65 time=0
2024-10-13 19:15:13: control_change channel=6 control=31 value=22 time=0
2024-10-13 19:15:13: control_change channel=6 control=63 value=114 time=0
2024-10-13 19:15:13: control_change channel=6 control=31 value=23 time=0
2024-10-13 19:15:13: control_change channel=6 control=63 value=19 time=0
2024-10-13 19:15:13: control_change channel=6 control=31 value=23 time=0
2024-10-13 19:15:13: control_change channel=6 control=63 value=52 time=0
2024-10-13 19:15:13: control_change channel=6 control=31 value=23 time=0
2024-10-13 19:15:13: control_change channel=6 control=63 value=101 time=0
2024-10-13 19:15:13: control_change channel=6 control=31 value=24 time=0
2024-10-13 19:15:13: control_change channel=6 control=63 value=5 time=0
2024-10-13 19:15:13: control_change channel=6 control=31 value=24 time=0
2024-10-13 19:15:13: control_change channel=6 control=63 value=38 time=0
2024-10-13 19:15:13: control_change channel=6 control=31 value=24 time=0
2024-10-13 19:15:13: control_change channel=6 control=63 value=71 time=0
2024-10-13 19:15:13: control_change channel=6 control=31 value=24 time=0
2024-10-13 19:15:13: control_change channel=6 control=63 value=103 time=0
2024-10-13 19:15:13: control_change channel=6 control=31 value=25 time=0
2024-10-13 19:15:13: control_change channel=6 control=63 value=8 time=0
2024-10-13 19:15:13: control_change channel=6 control=31 value=25 time=0
2024-10-13 19:15:13: control_change channel=6 control=63 value=57 time=0
2024-10-13 19:15:13: control_change channel=6 control=31 value=25 time=0
2024-10-13 19:15:13: control_change channel=6 control=63 value=90 time=0
2024-10-13 19:15:13: control_change channel=6 control=31 value=25 time=0
2024-10-13 19:15:13: control_change channel=6 control=63 value=122 time=0
2024-10-13 19:15:13: control_change channel=6 control=31 value=26 time=0
2024-10-13 19:15:13: control_change channel=6 control=63 value=60 time=0
2024-10-13 19:15:13: control_change channel=6 control=31 value=26 time=0
2024-10-13 19:15:13: control_change channel=6 control=63 value=108 time=0
2024-10-13 19:15:13: control_change channel=6 control=31 value=27 time=0
2024-10-13 19:15:13: control_change channel=6 control=63 value=13 time=0
2024-10-13 19:15:13: control_change channel=6 control=31 value=27 time=0
2024-10-13 19:15:13: control_change channel=6 control=63 value=62 time=0
2024-10-13 19:15:13: control_change channel=6 control=31 value=27 time=0
2024-10-13 19:15:13: control_change channel=6 control=63 value=95 time=0
2024-10-13 19:15:13: control_change channel=6 control=31 value=28 time=0
2024-10-13 19:15:13: control_change channel=6 control=63 value=16 time=0
2024-10-13 19:15:13: control_change channel=6 control=31 value=28 time=0
2024-10-13 19:15:13: control_change channel=6 control=63 value=48 time=0
2024-10-13 19:15:13: control_change channel=6 control=31 value=28 time=0
2024-10-13 19:15:13: control_change channel=6 control=63 value=81 time=0
2024-10-13 19:15:13: control_change channel=6 control=31 value=29 time=0
2024-10-13 19:15:13: control_change channel=6 control=63 value=2 time=0
2024-10-13 19:15:13: control_change channel=6 control=31 value=29 time=0
2024-10-13 19:15:13: control_change channel=6 control=63 value=36 time=0
2024-10-13 19:15:13: control_change channel=6 control=31 value=29 time=0
2024-10-13 19:15:13: control_change channel=6 control=63 value=68 time=0
2024-10-13 19:15:13: control_change channel=6 control=31 value=30 time=0
2024-10-13 19:15:13: control_change channel=6 control=63 value=6 time=0
2024-10-13 19:15:13: control_change channel=6 control=31 value=30 time=0
2024-10-13 19:15:13: control_change channel=6 control=63 value=38 time=0
2024-10-13 19:15:13: control_change channel=6 control=31 value=30 time=0
2024-10-13 19:15:13: control_change channel=6 control=63 value=71 time=0
2024-10-13 19:15:13: control_change channel=6 control=31 value=30 time=0
2024-10-13 19:15:13: control_change channel=6 control=63 value=103 time=0
2024-10-13 19:15:13: control_change channel=6 control=31 value=31 time=0
2024-10-13 19:15:13: control_change channel=6 control=63 value=8 time=0
2024-10-13 19:15:13: control_change channel=6 control=31 value=31 time=0
2024-10-13 19:15:13: control_change channel=6 control=63 value=57 time=0
2024-10-13 19:15:13: control_change channel=6 control=31 value=31 time=0
2024-10-13 19:15:13: control_change channel=6 control=63 value=90 time=0
2024-10-13 19:15:13: control_change channel=6 control=31 value=31 time=0
2024-10-13 19:15:13: control_change channel=6 control=63 value=122 time=0
2024-10-13 19:15:13: control_change channel=6 control=31 value=32 time=0
2024-10-13 19:15:13: control_change channel=6 control=63 value=27 time=0
2024-10-13 19:15:13: control_change channel=6 control=31 value=32 time=0
2024-10-13 19:15:13: control_change channel=6 control=63 value=60 time=0
2024-10-13 19:15:13: control_change channel=6 control=31 value=32 time=0
2024-10-13 19:15:13: control_change channel=6 control=63 value=92 time=0
2024-10-13 19:15:13: control_change channel=6 control=31 value=33 time=0
2024-10-13 19:15:13: control_change channel=6 control=63 value=13 time=0
2024-10-13 19:15:13: control_change channel=6 control=31 value=33 time=0
2024-10-13 19:15:13: control_change channel=6 control=63 value=46 time=0
2024-10-13 19:15:13: control_change channel=6 control=31 value=33 time=0
2024-10-13 19:15:13: control_change channel=6 control=63 value=79 time=0
2024-10-13 19:15:13: control_change channel=6 control=31 value=34 time=0
2024-10-13 19:15:13: control_change channel=6 control=63 value=16 time=0
2024-10-13 19:15:13: control_change channel=6 control=31 value=34 time=0
2024-10-13 19:15:13: control_change channel=6 control=63 value=49 time=0
2024-10-13 19:15:13: control_change channel=6 control=31 value=34 time=0
2024-10-13 19:15:13: control_change channel=6 control=63 value=81 time=0
2024-10-13 19:15:13: control_change channel=6 control=31 value=34 time=0
2024-10-13 19:15:13: control_change channel=6 control=63 value=114 time=0
2024-10-13 19:15:13: control_change channel=6 control=31 value=35 time=0
2024-10-13 19:15:13: control_change channel=6 control=63 value=18 time=0
2024-10-13 19:15:13: control_change channel=6 control=31 value=35 time=0
2024-10-13 19:15:13: control_change channel=6 control=63 value=51 time=0
2024-10-13 19:15:13: control_change channel=6 control=31 value=35 time=0
2024-10-13 19:15:13: control_change channel=6 control=63 value=84 time=0
2024-10-13 19:15:13: control_change channel=6 control=31 value=35 time=0
2024-10-13 19:15:13: control_change channel=6 control=63 value=116 time=0
2024-10-13 19:15:13: control_change channel=6 control=31 value=36 time=0
2024-10-13 19:15:13: control_change channel=6 control=63 value=21 time=0
2024-10-13 19:15:13: control_change channel=6 control=31 value=36 time=0
2024-10-13 19:15:13: control_change channel=6 control=63 value=54 time=0
2024-10-13 19:15:13: control_change channel=6 control=31 value=36 time=0
2024-10-13 19:15:13: control_change channel=6 control=63 value=103 time=0
2024-10-13 19:15:13: control_change channel=6 control=31 value=37 time=0
2024-10-13 19:15:13: control_change channel=6 control=63 value=7 time=0
2024-10-13 19:15:13: control_change channel=6 control=31 value=37 time=0
2024-10-13 19:15:13: control_change channel=6 control=63 value=40 time=0
2024-10-13 19:15:13: control_change channel=6 control=31 value=37 time=0
2024-10-13 19:15:13: control_change channel=6 control=63 value=73 time=0
2024-10-13 19:15:13: control_change channel=6 control=31 value=37 time=0
2024-10-13 19:15:13: control_change channel=6 control=63 value=106 time=0
2024-10-13 19:15:13: control_change channel=6 control=31 value=38 time=0
2024-10-13 19:15:13: control_change channel=6 control=63 value=11 time=0
2024-10-13 19:15:13: control_change channel=6 control=31 value=38 time=0
2024-10-13 19:15:13: control_change channel=6 control=63 value=44 time=0
2024-10-13 19:15:13: control_change channel=6 control=31 value=38 time=0
2024-10-13 19:15:13: control_change channel=6 control=63 value=76 time=0
2024-10-13 19:15:13: control_change channel=6 control=31 value=38 time=0
2024-10-13 19:15:13: control_change channel=6 control=63 value=109 time=0
2024-10-13 19:15:13: control_change channel=6 control=31 value=39 time=0
2024-10-13 19:15:13: control_change channel=6 control=63 value=30 time=0
2024-10-13 19:15:13: control_change channel=6 control=31 value=39 time=0
2024-10-13 19:15:13: control_change channel=6 control=63 value=62 time=0
2024-10-13 19:15:13: control_change channel=6 control=31 value=39 time=0
2024-10-13 19:15:13: control_change channel=6 control=63 value=95 time=0
2024-10-13 19:15:13: control_change channel=6 control=31 value=40 time=0
2024-10-13 19:15:13: control_change channel=6 control=63 value=0 time=0
2024-10-13 19:15:13: control_change channel=6 control=31 value=40 time=0
2024-10-13 19:15:13: control_change channel=6 control=63 value=32 time=0
2024-10-13 19:15:13: control_change channel=6 control=31 value=40 time=0
2024-10-13 19:15:13: control_change channel=6 control=63 value=65 time=0
2024-10-13 19:15:13: control_change channel=6 control=31 value=40 time=0
2024-10-13 19:15:13: control_change channel=6 control=63 value=98 time=0
2024-10-13 19:15:13: control_change channel=6 control=31 value=41 time=0
2024-10-13 19:15:13: control_change channel=6 control=63 value=2 time=0
2024-10-13 19:15:13: control_change channel=6 control=31 value=41 time=0
2024-10-13 19:15:13: control_change channel=6 control=63 value=35 time=0
2024-10-13 19:15:13: control_change channel=6 control=31 value=41 time=0
2024-10-13 19:15:13: control_change channel=6 control=63 value=68 time=0
2024-10-13 19:15:13: control_change channel=6 control=31 value=41 time=0
2024-10-13 19:15:13: control_change channel=6 control=63 value=100 time=0
2024-10-13 19:15:13: control_change channel=6 control=31 value=42 time=0
2024-10-13 19:15:13: control_change channel=6 control=63 value=5 time=0
2024-10-13 19:15:13: control_change channel=6 control=31 value=42 time=0
2024-10-13 19:15:13: control_change channel=6 control=63 value=38 time=0
2024-10-13 19:15:13: control_change channel=6 control=31 value=42 time=0
2024-10-13 19:15:13: control_change channel=6 control=63 value=70 time=0
2024-10-13 19:15:13: control_change channel=6 control=31 value=42 time=0
2024-10-13 19:15:13: control_change channel=6 control=63 value=103 time=0
2024-10-13 19:15:13: control_change channel=6 control=31 value=43 time=0
2024-10-13 19:15:13: control_change channel=6 control=63 value=8 time=0
2024-10-13 19:15:13: control_change channel=6 control=31 value=43 time=0
2024-10-13 19:15:13: control_change channel=6 control=63 value=40 time=0
2024-10-13 19:15:13: control_change channel=6 control=31 value=43 time=0
2024-10-13 19:15:13: control_change channel=6 control=63 value=89 time=0
2024-10-13 19:15:13: control_change channel=6 control=31 value=43 time=0
2024-10-13 19:15:13: control_change channel=6 control=63 value=122 time=0
2024-10-13 19:15:13: control_change channel=6 control=31 value=44 time=0
2024-10-13 19:15:13: control_change channel=6 control=63 value=26 time=0
2024-10-13 19:15:13: control_change channel=6 control=31 value=44 time=0
2024-10-13 19:15:13: control_change channel=6 control=63 value=59 time=0
2024-10-13 19:15:13: control_change channel=6 control=31 value=44 time=0
2024-10-13 19:15:13: control_change channel=6 control=63 value=92 time=0
2024-10-13 19:15:13: control_change channel=6 control=31 value=44 time=0
2024-10-13 19:15:13: control_change channel=6 control=63 value=124 time=0
2024-10-13 19:15:13: control_change channel=6 control=31 value=45 time=0
2024-10-13 19:15:13: control_change channel=6 control=63 value=29 time=0
2024-10-13 19:15:13: control_change channel=6 control=31 value=45 time=0
2024-10-13 19:15:13: control_change channel=6 control=63 value=62 time=0
2024-10-13 19:15:13: control_change channel=6 control=31 value=45 time=0
2024-10-13 19:15:13: control_change channel=6 control=63 value=94 time=0
2024-10-13 19:15:13: control_change channel=6 control=31 value=45 time=0
2024-10-13 19:15:13: control_change channel=6 control=63 value=127 time=0
2024-10-13 19:15:13: control_change channel=6 control=31 value=46 time=0
2024-10-13 19:15:13: control_change channel=6 control=63 value=32 time=0
2024-10-13 19:15:13: control_change channel=6 control=31 value=46 time=0
2024-10-13 19:15:13: control_change channel=6 control=63 value=64 time=0
2024-10-13 19:15:13: control_change channel=6 control=31 value=47 time=0
2024-10-13 19:15:13: control_change channel=6 control=63 value=3 time=0
2024-10-13 19:15:13: control_change channel=6 control=31 value=47 time=0
2024-10-13 19:15:13: control_change channel=6 control=63 value=35 time=0
2024-10-13 19:15:13: control_change channel=6 control=31 value=47 time=0
2024-10-13 19:15:13: control_change channel=6 control=63 value=68 time=0
2024-10-13 19:15:13: control_change channel=6 control=31 value=47 time=0
2024-10-13 19:15:13: control_change channel=6 control=63 value=100 time=0
2024-10-13 19:15:13: control_change channel=6 control=31 value=48 time=0
2024-10-13 19:15:13: control_change channel=6 control=63 value=5 time=0
2024-10-13 19:15:13: control_change channel=6 control=31 value=48 time=0
2024-10-13 19:15:13: control_change channel=6 control=63 value=38 time=0
2024-10-13 19:15:13: control_change channel=6 control=31 value=48 time=0
2024-10-13 19:15:13: control_change channel=6 control=63 value=70 time=0
2024-10-13 19:15:13: control_change channel=6 control=31 value=48 time=0
2024-10-13 19:15:13: control_change channel=6 control=63 value=103 time=0
2024-10-13 19:15:13: control_change channel=6 control=31 value=49 time=0
2024-10-13 19:15:13: control_change channel=6 control=63 value=8 time=0
2024-10-13 19:15:13: control_change channel=6 control=31 value=49 time=0
2024-10-13 19:15:13: control_change channel=6 control=63 value=40 time=0
2024-10-13 19:15:13: control_change channel=6 control=31 value=49 time=0
2024-10-13 19:15:13: control_change channel=6 control=63 value=73 time=0
2024-10-13 19:15:13: control_change channel=6 control=31 value=49 time=0
2024-10-13 19:15:13: control_change channel=6 control=63 value=106 time=0
2024-10-13 19:15:13: control_change channel=6 control=31 value=50 time=0
2024-10-13 19:15:13: control_change channel=6 control=63 value=43 time=0
2024-10-13 19:15:13: control_change channel=6 control=31 value=50 time=0
2024-10-13 19:15:13: control_change channel=6 control=63 value=76 time=0
2024-10-13 19:15:13: control_change channel=6 control=31 value=50 time=0
2024-10-13 19:15:13: control_change channel=6 control=63 value=108 time=0
2024-10-13 19:15:13: control_change channel=6 control=31 value=51 time=0
2024-10-13 19:15:13: control_change channel=6 control=63 value=13 time=0
2024-10-13 19:15:13: control_change channel=6 control=31 value=51 time=0
2024-10-13 19:15:13: control_change channel=6 control=63 value=46 time=0
2024-10-13 19:15:13: control_change channel=6 control=31 value=51 time=0
2024-10-13 19:15:13: control_change channel=6 control=63 value=78 time=0
2024-10-13 19:15:13: control_change channel=6 control=31 value=51 time=0
2024-10-13 19:15:13: control_change channel=6 control=63 value=111 time=0
2024-10-13 19:15:13: control_change channel=6 control=31 value=52 time=0
2024-10-13 19:15:13: control_change channel=6 control=63 value=15 time=0
2024-10-13 19:15:13: control_change channel=6 control=31 value=52 time=0
2024-10-13 19:15:13: control_change channel=6 control=63 value=64 time=0
2024-10-13 19:15:13: control_change channel=6 control=31 value=52 time=0
2024-10-13 19:15:13: control_change channel=6 control=63 value=97 time=0
2024-10-13 19:15:13: control_change channel=6 control=31 value=53 time=0
2024-10-13 19:15:13: control_change channel=6 control=63 value=2 time=0
2024-10-13 19:15:13: control_change channel=6 control=31 value=53 time=0
2024-10-13 19:15:13: control_change channel=6 control=63 value=34 time=0
2024-10-13 19:15:13: control_change channel=6 control=31 value=53 time=0
2024-10-13 19:15:13: control_change channel=6 control=63 value=67 time=0
2024-10-13 19:15:13: control_change channel=6 control=31 value=53 time=0
2024-10-13 19:15:13: control_change channel=6 control=63 value=100 time=0
2024-10-13 19:15:13: control_change channel=6 control=31 value=54 time=0
2024-10-13 19:15:13: control_change channel=6 control=63 value=4 time=0
2024-10-13 19:15:13: control_change channel=6 control=31 value=54 time=0
2024-10-13 19:15:13: control_change channel=6 control=63 value=37 time=0
2024-10-13 19:15:13: control_change channel=6 control=31 value=54 time=0
2024-10-13 19:15:13: control_change channel=6 control=63 value=70 time=0
2024-10-13 19:15:13: control_change channel=6 control=31 value=55 time=0
2024-10-13 19:15:13: control_change channel=6 control=63 value=7 time=0
2024-10-13 19:15:13: control_change channel=6 control=31 value=55 time=0
2024-10-13 19:15:13: control_change channel=6 control=63 value=41 time=0
2024-10-13 19:15:13: control_change channel=6 control=31 value=55 time=0
2024-10-13 19:15:13: control_change channel=6 control=63 value=73 time=0
2024-10-13 19:15:13: control_change channel=6 control=31 value=55 time=0
2024-10-13 19:15:13: control_change channel=6 control=63 value=106 time=0
2024-10-13 19:15:13: control_change channel=6 control=31 value=56 time=0
2024-10-13 19:15:13: control_change channel=6 control=63 value=27 time=0
2024-10-13 19:15:13: control_change channel=6 control=31 value=56 time=0
2024-10-13 19:15:13: control_change channel=6 control=63 value=92 time=0
2024-10-13 19:15:13: control_change channel=6 control=31 value=56 time=0
2024-10-13 19:15:13: control_change channel=6 control=63 value=125 time=0
2024-10-13 19:15:13: control_change channel=6 control=31 value=57 time=0
2024-10-13 19:15:13: control_change channel=6 control=63 value=46 time=0
2024-10-13 19:15:13: control_change channel=6 control=31 value=57 time=0
2024-10-13 19:15:13: control_change channel=6 control=63 value=78 time=0
2024-10-13 19:15:13: control_change channel=6 control=31 value=57 time=0
2024-10-13 19:15:13: control_change channel=6 control=63 value=111 time=0
2024-10-13 19:15:13: control_change channel=6 control=31 value=58 time=0
2024-10-13 19:15:13: control_change channel=6 control=63 value=16 time=0
2024-10-13 19:15:13: control_change channel=6 control=31 value=58 time=0
2024-10-13 19:15:13: control_change channel=6 control=63 value=65 time=0
2024-10-13 19:15:13: control_change channel=6 control=31 value=58 time=0
2024-10-13 19:15:13: control_change channel=6 control=63 value=97 time=0
2024-10-13 19:15:13: control_change channel=6 control=31 value=59 time=0
2024-10-13 19:15:13: control_change channel=6 control=63 value=18 time=0
2024-10-13 19:15:13: control_change channel=6 control=31 value=59 time=0
2024-10-13 19:15:13: control_change channel=6 control=63 value=51 time=0
2024-10-13 19:15:13: control_change channel=6 control=31 value=59 time=0
2024-10-13 19:15:13: control_change channel=6 control=63 value=84 time=0
2024-10-13 19:15:13: control_change channel=6 control=31 value=60 time=0
2024-10-13 19:15:13: control_change channel=6 control=63 value=37 time=0
2024-10-13 19:15:13: control_change channel=6 control=31 value=60 time=0
2024-10-13 19:15:13: control_change channel=6 control=63 value=70 time=0
2024-10-13 19:15:13: control_change channel=6 control=31 value=60 time=0
2024-10-13 19:15:13: control_change channel=6 control=63 value=102 time=0
2024-10-13 19:15:13: control_change channel=6 control=31 value=61 time=0
2024-10-13 19:15:13: control_change channel=6 control=63 value=7 time=0
2024-10-13 19:15:13: control_change channel=6 control=31 value=61 time=0
2024-10-13 19:15:13: control_change channel=6 control=63 value=56 time=0
2024-10-13 19:15:13: control_change channel=6 control=31 value=61 time=0
2024-10-13 19:15:13: control_change channel=6 control=63 value=121 time=0
2024-10-13 19:15:13: control_change channel=6 control=31 value=62 time=0
2024-10-13 19:15:13: control_change channel=6 control=63 value=26 time=0
2024-10-13 19:15:13: control_change channel=6 control=31 value=62 time=0
2024-10-13 19:15:13: control_change channel=6 control=63 value=59 time=0
2024-10-13 19:15:13: control_change channel=6 control=31 value=62 time=0
2024-10-13 19:15:13: control_change channel=6 control=63 value=108 time=0
2024-10-13 19:15:13: control_change channel=6 control=31 value=63 time=0
2024-10-13 19:15:13: control_change channel=6 control=63 value=29 time=0
2024-10-13 19:15:13: control_change channel=6 control=31 value=63 time=0
2024-10-13 19:15:13: control_change channel=6 control=63 value=94 time=0
2024-10-13 19:15:13: control_change channel=6 control=31 value=64 time=0
2024-10-13 19:15:13: control_change channel=6 control=63 value=16 time=0
2024-10-13 19:15:13: control_change channel=6 control=31 value=64 time=0
2024-10-13 19:15:13: control_change channel=6 control=63 value=48 time=0
2024-10-13 19:15:13: control_change channel=6 control=31 value=64 time=0
2024-10-13 19:15:13: control_change channel=6 control=63 value=81 time=0
2024-10-13 19:15:13: control_change channel=6 control=31 value=65 time=0
2024-10-13 19:15:13: control_change channel=6 control=63 value=18 time=0
2024-10-13 19:15:13: control_change channel=6 control=31 value=65 time=0
2024-10-13 19:15:13: control_change channel=6 control=63 value=51 time=0
2024-10-13 19:15:13: control_change channel=6 control=31 value=65 time=0
2024-10-13 19:15:13: control_change channel=6 control=63 value=100 time=0
2024-10-13 19:15:13: control_change channel=6 control=31 value=66 time=0
2024-10-13 19:15:13: control_change channel=6 control=63 value=21 time=0
2024-10-13 19:15:13: control_change channel=6 control=31 value=66 time=0
2024-10-13 19:15:13: control_change channel=6 control=63 value=70 time=0
2024-10-13 19:15:13: control_change channel=6 control=31 value=66 time=0
2024-10-13 19:15:13: control_change channel=6 control=63 value=119 time=0
2024-10-13 19:15:13: control_change channel=6 control=31 value=67 time=0
2024-10-13 19:15:13: control_change channel=6 control=63 value=40 time=0
2024-10-13 19:15:13: control_change channel=6 control=31 value=67 time=0
2024-10-13 19:15:13: control_change channel=6 control=63 value=89 time=0
2024-10-13 19:15:13: control_change channel=6 control=31 value=68 time=0
2024-10-13 19:15:13: control_change channel=6 control=63 value=42 time=0
2024-10-13 19:15:13: control_change channel=6 control=31 value=68 time=0
2024-10-13 19:15:13: control_change channel=6 control=63 value=91 time=0
2024-10-13 19:15:13: control_change channel=6 control=31 value=68 time=0
2024-10-13 19:15:13: control_change channel=6 control=63 value=124 time=0
2024-10-13 19:15:13: control_change channel=6 control=31 value=69 time=0
2024-10-13 19:15:13: control_change channel=6 control=63 value=61 time=0
2024-10-13 19:15:13: control_change channel=6 control=31 value=69 time=0
2024-10-13 19:15:13: control_change channel=6 control=63 value=110 time=0
2024-10-13 19:15:13: control_change channel=6 control=31 value=70 time=0
2024-10-13 19:15:13: control_change channel=6 control=63 value=15 time=0
2024-10-13 19:15:13: control_change channel=6 control=31 value=70 time=0
2024-10-13 19:15:13: control_change channel=6 control=63 value=64 time=0
2024-10-13 19:15:13: control_change channel=6 control=31 value=70 time=0
2024-10-13 19:15:13: control_change channel=6 control=63 value=113 time=0
2024-10-13 19:15:13: control_change channel=6 control=31 value=71 time=0
2024-10-13 19:15:13: control_change channel=6 control=63 value=67 time=0
2024-10-13 19:15:13: control_change channel=6 control=31 value=71 time=0
2024-10-13 19:15:13: control_change channel=6 control=63 value=116 time=0
2024-10-13 19:15:13: control_change channel=6 control=31 value=72 time=0
2024-10-13 19:15:13: control_change channel=6 control=63 value=20 time=0
2024-10-13 19:15:13: control_change channel=6 control=31 value=72 time=0
2024-10-13 19:15:13: control_change channel=6 control=63 value=103 time=0
2024-10-13 19:15:13: control_change channel=6 control=31 value=73 time=0
2024-10-13 19:15:13: control_change channel=6 control=63 value=24 time=0
2024-10-13 19:15:13: control_change channel=6 control=31 value=73 time=0
2024-10-13 19:15:13: control_change channel=6 control=63 value=73 time=0
2024-10-13 19:15:13: control_change channel=6 control=31 value=73 time=0
2024-10-13 19:15:13: control_change channel=6 control=63 value=105 time=0
2024-10-13 19:15:13: control_change channel=6 control=31 value=74 time=0
2024-10-13 19:15:13: control_change channel=6 control=63 value=59 time=0
2024-10-13 19:15:13: control_change channel=6 control=31 value=74 time=0
2024-10-13 19:15:13: control_change channel=6 control=63 value=108 time=0
2024-10-13 19:15:13: control_change channel=6 control=31 value=75 time=0
2024-10-13 19:15:13: control_change channel=6 control=63 value=13 time=0
2024-10-13 19:15:13: control_change channel=6 control=31 value=75 time=0
2024-10-13 19:15:13: control_change channel=6 control=63 value=94 time=0
2024-10-13 19:15:13: control_change channel=6 control=31 value=76 time=0
2024-10-13 19:15:13: control_change channel=6 control=63 value=15 time=0
2024-10-13 19:15:13: control_change channel=6 control=31 value=76 time=0
2024-10-13 19:15:13: control_change channel=6 control=63 value=80 time=0
2024-10-13 19:15:13: control_change channel=6 control=31 value=77 time=0
2024-10-13 19:15:13: control_change channel=6 control=63 value=18 time=0
2024-10-13 19:15:13: control_change channel=6 control=31 value=77 time=0
2024-10-13 19:15:13: control_change channel=6 control=63 value=50 time=0
2024-10-13 19:15:13: control_change channel=6 control=31 value=78 time=0
2024-10-13 19:15:13: control_change channel=6 control=63 value=4 time=0
2024-10-13 19:15:13: control_change channel=6 control=31 value=78 time=0
2024-10-13 19:15:13: control_change channel=6 control=63 value=69 time=0
2024-10-13 19:15:13: control_change channel=6 control=31 value=79 time=0
2024-10-13 19:15:13: control_change channel=6 control=63 value=88 time=0
2024-10-13 19:15:13: control_change channel=6 control=31 value=80 time=0
2024-10-13 19:15:13: control_change channel=6 control=63 value=42 time=0
2024-10-13 19:15:13: control_change channel=6 control=31 value=80 time=0
2024-10-13 19:15:13: control_change channel=6 control=63 value=74 time=0
2024-10-13 19:15:13: control_change channel=6 control=31 value=81 time=0
2024-10-13 19:15:13: control_change channel=6 control=63 value=28 time=0
2024-10-13 19:15:13: control_change channel=6 control=31 value=81 time=0
2024-10-13 19:15:13: control_change channel=6 control=63 value=94 time=0
2024-10-13 19:15:13: control_change channel=6 control=31 value=82 time=0
2024-10-13 19:15:13: control_change channel=6 control=63 value=32 time=0
2024-10-13 19:15:13: control_change channel=6 control=31 value=82 time=0
2024-10-13 19:15:13: control_change channel=6 control=63 value=97 time=0
2024-10-13 19:15:13: control_change channel=6 control=31 value=83 time=0
2024-10-13 19:15:13: control_change channel=6 control=63 value=34 time=0
2024-10-13 19:15:13: control_change channel=6 control=31 value=83 time=0
2024-10-13 19:15:13: control_change channel=6 control=63 value=100 time=0
2024-10-13 19:15:13: control_change channel=6 control=31 value=84 time=0
2024-10-13 19:15:13: control_change channel=6 control=63 value=4 time=0
2024-10-13 19:15:13: control_change channel=6 control=31 value=84 time=0
2024-10-13 19:15:13: control_change channel=6 control=63 value=86 time=0
2024-10-13 19:15:13: control_change channel=6 control=31 value=85 time=0
2024-10-13 19:15:13: control_change channel=6 control=63 value=23 time=0
2024-10-13 19:15:13: control_change channel=6 control=31 value=85 time=0
2024-10-13 19:15:13: control_change channel=6 control=63 value=88 time=0
2024-10-13 19:15:13: control_change channel=6 control=31 value=86 time=0
2024-10-13 19:15:13: control_change channel=6 control=63 value=26 time=0
2024-10-13 19:15:13: control_change channel=6 control=31 value=86 time=0
2024-10-13 19:15:13: control_change channel=6 control=63 value=91 time=0
2024-10-13 19:15:13: control_change channel=6 control=31 value=87 time=0
2024-10-13 19:15:13: control_change channel=6 control=63 value=12 time=0
2024-10-13 19:15:13: control_change channel=6 control=31 value=87 time=0
2024-10-13 19:15:13: control_change channel=6 control=63 value=94 time=0
2024-10-13 19:15:13: control_change channel=6 control=31 value=88 time=0
2024-10-13 19:15:13: control_change channel=6 control=63 value=31 time=0
2024-10-13 19:15:13: control_change channel=6 control=31 value=88 time=0
2024-10-13 19:15:13: control_change channel=6 control=63 value=96 time=0
2024-10-13 19:15:13: control_change channel=6 control=31 value=89 time=0
2024-10-13 19:15:13: control_change channel=6 control=63 value=33 time=0
2024-10-13 19:15:13: control_change channel=6 control=31 value=89 time=0
2024-10-13 19:15:13: control_change channel=6 control=63 value=115 time=0
2024-10-13 19:15:13: control_change channel=6 control=31 value=90 time=0
2024-10-13 19:15:13: control_change channel=6 control=63 value=21 time=0
2024-10-13 19:15:13: control_change channel=6 control=31 value=90 time=0
2024-10-13 19:15:13: control_change channel=6 control=63 value=102 time=0
2024-10-13 19:15:13: control_change channel=6 control=31 value=91 time=0
2024-10-13 19:15:13: control_change channel=6 control=63 value=56 time=0
2024-10-13 19:15:13: control_change channel=6 control=31 value=91 time=0
2024-10-13 19:15:13: control_change channel=6 control=63 value=121 time=0
2024-10-13 19:15:13: control_change channel=6 control=31 value=92 time=0
2024-10-13 19:15:13: control_change channel=6 control=63 value=59 time=0
2024-10-13 19:15:13: control_change channel=6 control=31 value=92 time=0
2024-10-13 19:15:13: control_change channel=6 control=63 value=108 time=0
2024-10-13 19:15:13: control_change channel=6 control=31 value=93 time=0
2024-10-13 19:15:13: control_change channel=6 control=63 value=45 time=0
2024-10-13 19:15:13: control_change channel=6 control=31 value=93 time=0
2024-10-13 19:15:13: control_change channel=6 control=63 value=110 time=0
2024-10-13 19:15:13: control_change channel=6 control=31 value=94 time=0
2024-10-13 19:15:13: control_change channel=6 control=63 value=47 time=0
2024-10-13 19:15:13: control_change channel=6 control=31 value=94 time=0
2024-10-13 19:15:13: control_change channel=6 control=63 value=113 time=0
2024-10-13 19:15:13: control_change channel=6 control=31 value=95 time=0
2024-10-13 19:15:13: control_change channel=6 control=63 value=34 time=0
2024-10-13 19:15:13: control_change channel=6 control=31 value=95 time=0
2024-10-13 19:15:13: control_change channel=6 control=63 value=115 time=0
2024-10-13 19:15:13: control_change channel=6 control=31 value=96 time=0
2024-10-13 19:15:13: control_change channel=6 control=63 value=53 time=0
2024-10-13 19:15:13: control_change channel=6 control=31 value=96 time=0
2024-10-13 19:15:13: control_change channel=6 control=63 value=118 time=0
2024-10-13 19:15:13: control_change channel=6 control=31 value=97 time=0
2024-10-13 19:15:13: control_change channel=6 control=63 value=23 time=0
2024-10-13 19:15:13: control_change channel=6 control=31 value=97 time=0
2024-10-13 19:15:13: control_change channel=6 control=63 value=120 time=0
2024-10-13 19:15:13: control_change channel=6 control=31 value=98 time=0
2024-10-13 19:15:13: control_change channel=6 control=63 value=41 time=0
2024-10-13 19:15:13: control_change channel=6 control=31 value=98 time=0
2024-10-13 19:15:13: control_change channel=6 control=63 value=90 time=0
2024-10-13 19:15:13: control_change channel=6 control=31 value=99 time=0
2024-10-13 19:15:13: control_change channel=6 control=63 value=45 time=0
2024-10-13 19:15:13: control_change channel=6 control=31 value=99 time=0
2024-10-13 19:15:13: control_change channel=6 control=63 value=110 time=0
2024-10-13 19:15:13: control_change channel=6 control=31 value=100 time=0
2024-10-13 19:15:13: control_change channel=6 control=63 value=48 time=0
2024-10-13 19:15:13: control_change channel=6 control=31 value=100 time=0
2024-10-13 19:15:13: control_change channel=6 control=63 value=80 time=0
2024-10-13 19:15:13: control_change channel=6 control=31 value=101 time=0
2024-10-13 19:15:13: control_change channel=6 control=63 value=18 time=0
2024-10-13 19:15:13: control_change channel=6 control=31 value=101 time=0
2024-10-13 19:15:13: control_change channel=6 control=63 value=66 time=0
2024-10-13 19:15:13: control_change channel=6 control=31 value=102 time=0
2024-10-13 19:15:13: control_change channel=6 control=63 value=4 time=0
2024-10-13 19:15:13: control_change channel=6 control=31 value=102 time=0
2024-10-13 19:15:13: control_change channel=6 control=63 value=85 time=0
2024-10-13 19:15:13: control_change channel=6 control=31 value=103 time=0
2024-10-13 19:15:13: control_change channel=6 control=63 value=23 time=0
2024-10-13 19:15:13: control_change channel=6 control=31 value=103 time=0
2024-10-13 19:15:13: control_change channel=6 control=63 value=88 time=0
2024-10-13 19:15:13: control_change channel=6 control=31 value=104 time=0
2024-10-13 19:15:13: control_change channel=6 control=63 value=9 time=0
2024-10-13 19:15:13: control_change channel=6 control=31 value=104 time=0
2024-10-13 19:15:13: control_change channel=6 control=63 value=74 time=0
2024-10-13 19:15:13: control_change channel=6 control=31 value=104 time=0
2024-10-13 19:15:13: control_change channel=6 control=63 value=107 time=0
2024-10-13 19:15:13: control_change channel=6 control=31 value=105 time=0
2024-10-13 19:15:13: control_change channel=6 control=63 value=12 time=0
2024-10-13 19:15:13: control_change channel=6 control=31 value=105 time=0
2024-10-13 19:15:13: control_change channel=6 control=63 value=93 time=0
2024-10-13 19:15:13: control_change channel=6 control=31 value=105 time=0
2024-10-13 19:15:13: control_change channel=6 control=63 value=126 time=0
2024-10-13 19:15:13: control_change channel=6 control=31 value=106 time=0
2024-10-13 19:15:13: control_change channel=6 control=63 value=79 time=0
2024-10-13 19:15:13: control_change channel=6 control=31 value=107 time=0
2024-10-13 19:15:13: control_change channel=6 control=63 value=17 time=0
2024-10-13 19:15:13: control_change channel=6 control=31 value=107 time=0
2024-10-13 19:15:13: control_change channel=6 control=63 value=83 time=0
2024-10-13 19:15:13: control_change channel=6 control=31 value=108 time=0
2024-10-13 19:15:13: control_change channel=6 control=63 value=4 time=0
2024-10-13 19:15:13: control_change channel=6 control=31 value=108 time=0
2024-10-13 19:15:13: control_change channel=6 control=63 value=69 time=0
2024-10-13 19:15:13: control_change channel=6 control=31 value=109 time=0
2024-10-13 19:15:13: control_change channel=6 control=63 value=7 time=0
2024-10-13 19:15:13: control_change channel=6 control=31 value=109 time=0
2024-10-13 19:15:13: control_change channel=6 control=63 value=56 time=0
2024-10-13 19:15:13: control_change channel=6 control=31 value=109 time=0
2024-10-13 19:15:13: control_change channel=6 control=63 value=88 time=0
2024-10-13 19:15:13: control_change channel=6 control=31 value=110 time=0
2024-10-13 19:15:13: control_change channel=6 control=63 value=42 time=0
2024-10-13 19:15:13: control_change channel=6 control=31 value=110 time=0
2024-10-13 19:15:13: control_change channel=6 control=63 value=107 time=0
2024-10-13 19:15:13: control_change channel=6 control=31 value=111 time=0
2024-10-13 19:15:13: control_change channel=6 control=63 value=28 time=0
2024-10-13 19:15:13: control_change channel=6 control=31 value=111 time=0
2024-10-13 19:15:13: control_change channel=6 control=63 value=93 time=0
2024-10-13 19:15:13: control_change channel=6 control=31 value=111 time=0
2024-10-13 19:15:13: control_change channel=6 control=63 value=126 time=0
2024-10-13 19:15:13: control_change channel=6 control=31 value=112 time=0
2024-10-13 19:15:13: control_change channel=6 control=63 value=80 time=0
2024-10-13 19:15:13: control_change channel=6 control=31 value=113 time=0
2024-10-13 19:15:13: control_change channel=6 control=63 value=1 time=0
2024-10-13 19:15:13: control_change channel=6 control=31 value=113 time=0
2024-10-13 19:15:13: control_change channel=6 control=63 value=33 time=0
2024-10-13 19:15:13: control_change channel=6 control=31 value=113 time=0
2024-10-13 19:15:13: control_change channel=6 control=63 value=82 time=0
2024-10-13 19:15:13: control_change channel=6 control=31 value=114 time=0
2024-10-13 19:15:13: control_change channel=6 control=63 value=36 time=0
2024-10-13 19:15:13: control_change channel=6 control=31 value=114 time=0
2024-10-13 19:15:13: control_change channel=6 control=63 value=85 time=0
2024-10-13 19:15:13: control_change channel=6 control=31 value=115 time=0
2024-10-13 19:15:13: control_change channel=6 control=63 value=22 time=0
2024-10-13 19:15:13: control_change channel=6 control=31 value=115 time=0
2024-10-13 19:15:13: control_change channel=6 control=63 value=71 time=0
2024-10-13 19:15:13: control_change channel=6 control=31 value=116 time=0
2024-10-13 19:15:13: control_change channel=6 control=63 value=8 time=0
2024-10-13 19:15:13: control_change channel=6 control=31 value=116 time=0
2024-10-13 19:15:13: control_change channel=6 control=63 value=42 time=0
2024-10-13 19:15:13: control_change channel=6 control=31 value=116 time=0
2024-10-13 19:15:13: control_change channel=6 control=63 value=124 time=0
2024-10-13 19:15:13: control_change channel=6 control=31 value=117 time=0
2024-10-13 19:15:13: control_change channel=6 control=63 value=61 time=0
2024-10-13 19:15:13: control_change channel=6 control=31 value=117 time=0
2024-10-13 19:15:13: control_change channel=6 control=63 value=94 time=0
2024-10-13 19:15:13: control_change channel=6 control=31 value=118 time=0
2024-10-13 19:15:13: control_change channel=6 control=63 value=47 time=0
2024-10-13 19:15:13: control_change channel=6 control=31 value=118 time=0
2024-10-13 19:15:13: control_change channel=6 control=63 value=96 time=0
2024-10-13 19:15:13: control_change channel=6 control=31 value=119 time=0
2024-10-13 19:15:13: control_change channel=6 control=63 value=33 time=0
2024-10-13 19:15:13: control_change channel=6 control=31 value=119 time=0
2024-10-13 19:15:13: control_change channel=6 control=63 value=66 time=0
2024-10-13 19:15:13: control_change channel=6 control=31 value=120 time=0
2024-10-13 19:15:13: control_change channel=6 control=63 value=20 time=0
2024-10-13 19:15:13: control_change channel=6 control=31 value=120 time=0
2024-10-13 19:15:13: control_change channel=6 control=63 value=69 time=0
2024-10-13 19:15:13: control_change channel=6 control=31 value=120 time=0
2024-10-13 19:15:13: control_change channel=6 control=63 value=101 time=0
2024-10-13 19:15:13: control_change channel=6 control=31 value=121 time=0
2024-10-13 19:15:13: control_change channel=6 control=63 value=55 time=0
2024-10-13 19:15:13: control_change channel=6 control=31 value=121 time=0
2024-10-13 19:15:13: control_change channel=6 control=63 value=104 time=0
2024-10-13 19:15:13: control_change channel=6 control=31 value=122 time=0
2024-10-13 19:15:13: control_change channel=6 control=63 value=9 time=0
2024-10-13 19:15:13: control_change channel=6 control=31 value=122 time=0
2024-10-13 19:15:13: control_change channel=6 control=63 value=90 time=0
2024-10-13 19:15:13: control_change channel=6 control=31 value=122 time=0
2024-10-13 19:15:13: control_change channel=6 control=63 value=123 time=0
2024-10-13 19:15:13: control_change channel=6 control=31 value=123 time=0
2024-10-13 19:15:13: control_change channel=6 control=63 value=76 time=0
2024-10-13 19:15:13: control_change channel=6 control=31 value=124 time=0
2024-10-13 19:15:13: control_change channel=6 control=63 value=14 time=0
2024-10-13 19:15:13: control_change channel=6 control=31 value=124 time=0
2024-10-13 19:15:13: control_change channel=6 control=63 value=46 time=0
2024-10-13 19:15:13: control_change channel=6 control=31 value=125 time=0
2024-10-13 19:15:13: control_change channel=6 control=63 value=1 time=0
2024-10-13 19:15:13: control_change channel=6 control=31 value=125 time=0
2024-10-13 19:15:13: control_change channel=6 control=63 value=66 time=0
2024-10-13 19:15:13: control_change channel=6 control=31 value=125 time=0
2024-10-13 19:15:13: control_change channel=6 control=63 value=115 time=0
2024-10-13 19:15:13: control_change channel=6 control=31 value=126 time=0
2024-10-13 19:15:13: control_change channel=6 control=63 value=53 time=0
2024-10-13 19:15:13: control_change channel=6 control=31 value=126 time=0
2024-10-13 19:15:13: control_change channel=6 control=63 value=118 time=0
2024-10-13 19:15:13: control_change channel=6 control=31 value=127 time=0
2024-10-13 19:15:13: control_change channel=6 control=63 value=55 time=0
2024-10-13 19:15:13: control_change channel=6 control=31 value=127 time=0
2024-10-13 19:15:13: control_change channel=6 control=63 value=120 time=0
2024-10-13 19:15:13: control_change channel=6 control=31 value=127 time=0
2024-10-13 19:15:13: control_change channel=6 control=63 value=127 time=0
2024-10-13 19:15:14: control_change channel=1 control=35 value=65 time=0
2024-10-13 19:15:14: control_change channel=1 control=35 value=65 time=0
2024-10-13 19:15:14: control_change channel=1 control=35 value=65 time=0
2024-10-13 19:15:14: control_change channel=1 control=35 value=65 time=0
2024-10-13 19:15:14: control_change channel=1 control=35 value=65 time=0
2024-10-13 19:15:14: control_change channel=1 control=35 value=65 time=0
2024-10-13 19:15:14: control_change channel=1 control=35 value=65 time=0
2024-10-13 19:15:14: control_change channel=1 control=35 value=65 time=0
2024-10-13 19:15:14: control_change channel=1 control=35 value=65 time=0
2024-10-13 19:15:14: control_change channel=1 control=35 value=65 time=0
2024-10-13 19:15:14: control_change channel=1 control=35 value=65 time=0
2024-10-13 19:15:14: control_change channel=1 control=35 value=65 time=0
2024-10-13 19:15:14: control_change channel=1 control=35 value=65 time=0
2024-10-13 19:15:14: control_change channel=1 control=35 value=65 time=0
2024-10-13 19:15:14: control_change channel=1 control=35 value=65 time=0
2024-10-13 19:15:14: control_change channel=1 control=35 value=65 time=0
2024-10-13 19:15:14: control_change channel=1 control=35 value=65 time=0
2024-10-13 19:15:14: control_change channel=1 control=35 value=65 time=0
2024-10-13 19:15:14: control_change channel=1 control=35 value=65 time=0
2024-10-13 19:15:14: control_change channel=1 control=35 value=65 time=0
2024-10-13 19:15:14: control_change channel=1 control=35 value=65 time=0
2024-10-13 19:15:14: control_change channel=1 control=35 value=65 time=0
2024-10-13 19:15:14: control_change channel=1 control=35 value=65 time=0
2024-10-13 19:15:14: control_change channel=1 control=35 value=65 time=0
2024-10-13 19:15:14: control_change channel=1 control=35 value=65 time=0
2024-10-13 19:15:14: control_change channel=1 control=35 value=65 time=0
2024-10-13 19:15:14: control_change channel=1 control=35 value=65 time=0
2024-10-13 19:15:14: control_change channel=1 control=35 value=65 time=0
2024-10-13 19:15:14: control_change channel=1 control=35 value=65 time=0
2024-10-13 19:15:14: control_change channel=1 control=35 value=65 time=0
2024-10-13 19:15:14: control_change channel=1 control=35 value=65 time=0
2024-10-13 19:15:14: control_change channel=1 control=35 value=65 time=0
2024-10-13 19:15:14: control_change channel=1 control=35 value=65 time=0
2024-10-13 19:15:14: control_change channel=1 control=35 value=65 time=0
2024-10-13 19:15:14: control_change channel=1 control=35 value=65 time=0
2024-10-13 19:15:14: control_change channel=1 control=35 value=65 time=0
2024-10-13 19:15:14: control_change channel=1 control=35 value=65 time=0
2024-10-13 19:15:14: control_change channel=1 control=35 value=65 time=0
2024-10-13 19:15:14: control_change channel=1 control=35 value=65 time=0
2024-10-13 19:15:14: control_change channel=1 control=35 value=65 time=0
2024-10-13 19:15:14: control_change channel=1 control=35 value=65 time=0
2024-10-13 19:15:14: control_change channel=1 control=35 value=65 time=0
2024-10-13 19:15:14: control_change channel=1 control=35 value=65 time=0
2024-10-13 19:15:14: control_change channel=1 control=35 value=65 time=0
2024-10-13 19:15:14: control_change channel=1 control=35 value=65 time=0
2024-10-13 19:15:14: control_change channel=1 control=35 value=65 time=0
2024-10-13 19:15:14: control_change channel=1 control=35 value=65 time=0
2024-10-13 19:15:14: control_change channel=1 control=35 value=65 time=0
2024-10-13 19:15:14: control_change channel=1 control=35 value=65 time=0
2024-10-13 19:15:14: control_change channel=1 control=35 value=65 time=0
2024-10-13 19:15:14: control_change channel=1 control=35 value=65 time=0
2024-10-13 19:15:14: control_change channel=1 control=35 value=65 time=0
2024-10-13 19:15:14: control_change channel=1 control=35 value=65 time=0
2024-10-13 19:15:14: control_change channel=1 control=35 value=65 time=0
2024-10-13 19:15:14: control_change channel=1 control=35 value=65 time=0
2024-10-13 19:15:14: control_change channel=1 control=35 value=65 time=0
2024-10-13 19:15:14: control_change channel=1 control=35 value=65 time=0
2024-10-13 19:15:14: control_change channel=1 control=35 value=65 time=0
2024-10-13 19:15:14: control_change channel=1 control=35 value=65 time=0
2024-10-13 19:15:14: control_change channel=1 control=35 value=65 time=0
2024-10-13 19:15:14: control_change channel=1 control=35 value=65 time=0
2024-10-13 19:15:14: control_change channel=1 control=35 value=65 time=0
2024-10-13 19:15:14: control_change channel=1 control=35 value=65 time=0
2024-10-13 19:15:14: control_change channel=1 control=35 value=65 time=0
2024-10-13 19:15:14: control_change channel=1 control=35 value=65 time=0
2024-10-13 19:15:14: control_change channel=1 control=35 value=65 time=0
2024-10-13 19:15:14: control_change channel=1 control=35 value=65 time=0
2024-10-13 19:15:14: control_change channel=1 control=35 value=65 time=0
2024-10-13 19:15:14: control_change channel=1 control=35 value=65 time=0
2024-10-13 19:15:14: control_change channel=1 control=35 value=65 time=0
2024-10-13 19:15:14: control_change channel=1 control=35 value=65 time=0
2024-10-13 19:15:14: control_change channel=1 control=35 value=65 time=0
2024-10-13 19:15:14: control_change channel=1 control=35 value=65 time=0
2024-10-13 19:15:14: control_change channel=1 control=35 value=65 time=0
2024-10-13 19:15:14: control_change channel=1 control=35 value=65 time=0
2024-10-13 19:15:14: control_change channel=1 control=35 value=65 time=0
2024-10-13 19:15:14: control_change channel=1 control=35 value=65 time=0
2024-10-13 19:15:14: control_change channel=1 control=35 value=65 time=0
2024-10-13 19:15:14: control_change channel=1 control=35 value=65 time=0
2024-10-13 19:15:14: control_change channel=1 control=35 value=65 time=0
2024-10-13 19:15:14: control_change channel=1 control=35 value=65 time=0
2024-10-13 19:15:14: control_change channel=1 control=35 value=65 time=0
2024-10-13 19:15:14: control_change channel=1 control=35 value=65 time=0
2024-10-13 19:15:14: control_change channel=1 control=35 value=65 time=0
2024-10-13 19:15:14: control_change channel=1 control=35 value=65 time=0
2024-10-13 19:15:14: control_change channel=1 control=35 value=65 time=0
2024-10-13 19:15:14: control_change channel=1 control=35 value=65 time=0
2024-10-13 19:15:14: control_change channel=1 control=35 value=65 time=0
2024-10-13 19:15:14: control_change channel=1 control=35 value=65 time=0
2024-10-13 19:15:14: control_change channel=1 control=35 value=65 time=0
2024-10-13 19:15:14: control_change channel=1 control=35 value=65 time=0
2024-10-13 19:15:14: control_change channel=1 control=35 value=65 time=0
2024-10-13 19:15:14: control_change channel=1 control=35 value=65 time=0
2024-10-13 19:15:14: control_change channel=1 control=35 value=65 time=0
2024-10-13 19:15:14: control_change channel=1 control=35 value=65 time=0
2024-10-13 19:15:14: control_change channel=1 control=35 value=65 time=0
2024-10-13 19:15:14: control_change channel=1 control=35 value=65 time=0
2024-10-13 19:15:14: control_change channel=1 control=35 value=65 time=0
2024-10-13 19:15:15: control_change channel=1 control=35 value=65 time=0
2024-10-13 19:15:15: control_change channel=1 control=35 value=65 time=0
2024-10-13 19:15:15: control_change channel=1 control=35 value=65 time=0
2024-10-13 19:15:15: control_change channel=1 control=35 value=65 time=0
2024-10-13 19:15:15: control_change channel=1 control=35 value=65 time=0
2024-10-13 19:15:15: control_change channel=1 control=35 value=65 time=0
2024-10-13 19:15:15: control_change channel=1 control=35 value=65 time=0
2024-10-13 19:15:15: control_change channel=1 control=35 value=65 time=0
2024-10-13 19:15:15: control_change channel=1 control=35 value=65 time=0
2024-10-13 19:15:15: control_change channel=1 control=35 value=65 time=0
2024-10-13 19:15:15: control_change channel=1 control=35 value=65 time=0
2024-10-13 19:15:15: control_change channel=1 control=35 value=65 time=0
2024-10-13 19:15:15: control_change channel=1 control=35 value=65 time=0
2024-10-13 19:15:15: control_change channel=1 control=35 value=65 time=0
2024-10-13 19:15:15: control_change channel=1 control=35 value=65 time=0
2024-10-13 19:15:15: control_change channel=1 control=35 value=65 time=0
2024-10-13 19:15:15: control_change channel=1 control=35 value=65 time=0
2024-10-13 19:15:15: control_change channel=1 control=35 value=65 time=0
2024-10-13 19:15:15: control_change channel=1 control=35 value=65 time=0
2024-10-13 19:15:15: control_change channel=1 control=35 value=65 time=0
2024-10-13 19:15:15: control_change channel=1 control=35 value=65 time=0
2024-10-13 19:15:15: control_change channel=1 control=35 value=65 time=0
2024-10-13 19:15:15: control_change channel=1 control=35 value=65 time=0
2024-10-13 19:15:15: control_change channel=1 control=35 value=65 time=0
2024-10-13 19:15:15: control_change channel=1 control=35 value=65 time=0
2024-10-13 19:15:15: control_change channel=1 control=35 value=65 time=0
2024-10-13 19:15:15: control_change channel=1 control=35 value=65 time=0
2024-10-13 19:15:15: control_change channel=1 control=35 value=65 time=0
2024-10-13 19:15:15: control_change channel=1 control=35 value=65 time=0
2024-10-13 19:15:15: control_change channel=1 control=35 value=65 time=0
2024-10-13 19:15:15: control_change channel=1 control=35 value=65 time=0
2024-10-13 19:15:15: control_change channel=1 control=35 value=65 time=0
2024-10-13 19:15:15: control_change channel=1 control=35 value=65 time=0
2024-10-13 19:15:15: control_change channel=1 control=35 value=65 time=0
2024-10-13 19:15:15: control_change channel=1 control=35 value=65 time=0
2024-10-13 19:15:15: control_change channel=1 control=35 value=65 time=0
2024-10-13 19:15:15: control_change channel=1 control=35 value=65 time=0
2024-10-13 19:15:15: control_change channel=1 control=35 value=65 time=0
2024-10-13 19:15:15: control_change channel=1 control=35 value=65 time=0
2024-10-13 19:15:15: control_change channel=1 control=35 value=65 time=0
2024-10-13 19:15:15: control_change channel=1 control=35 value=65 time=0
2024-10-13 19:15:15: control_change channel=1 control=35 value=65 time=0
2024-10-13 19:15:15: control_change channel=1 control=35 value=65 time=0
2024-10-13 19:15:15: control_change channel=1 control=35 value=65 time=0
2024-10-13 19:15:15: control_change channel=1 control=35 value=65 time=0
2024-10-13 19:15:15: control_change channel=1 control=35 value=65 time=0
2024-10-13 19:15:15: control_change channel=1 control=35 value=65 time=0
2024-10-13 19:15:15: control_change channel=1 control=35 value=65 time=0
2024-10-13 19:15:15: control_change channel=1 control=35 value=65 time=0
2024-10-13 19:15:15: control_change channel=1 control=35 value=65 time=0
2024-10-13 19:15:15: control_change channel=1 control=35 value=65 time=0
2024-10-13 19:15:15: control_change channel=1 control=35 value=65 time=0
2024-10-13 19:15:15: control_change channel=1 control=35 value=65 time=0
2024-10-13 19:15:15: control_change channel=1 control=35 value=65 time=0
2024-10-13 19:15:15: control_change channel=1 control=35 value=65 time=0
2024-10-13 19:15:15: control_change channel=1 control=35 value=65 time=0
2024-10-13 19:15:15: control_change channel=1 control=35 value=65 time=0
2024-10-13 19:15:15: control_change channel=1 control=35 value=65 time=0
2024-10-13 19:15:15: control_change channel=1 control=35 value=65 time=0
2024-10-13 19:15:15: control_change channel=1 control=35 value=65 time=0
2024-10-13 19:15:15: control_change channel=1 control=35 value=65 time=0
2024-10-13 19:15:15: control_change channel=1 control=35 value=65 time=0
2024-10-13 19:15:15: control_change channel=1 control=35 value=65 time=0
2024-10-13 19:15:15: control_change channel=1 control=35 value=65 time=0
2024-10-13 19:15:15: control_change channel=1 control=35 value=65 time=0
2024-10-13 19:15:15: control_change channel=1 control=35 value=65 time=0
2024-10-13 19:15:15: control_change channel=1 control=35 value=65 time=0
2024-10-13 19:15:15: control_change channel=1 control=35 value=65 time=0
2024-10-13 19:15:15: control_change channel=1 control=35 value=65 time=0
2024-10-13 19:15:15: control_change channel=1 control=35 value=65 time=0
2024-10-13 19:15:15: control_change channel=1 control=35 value=65 time=0
2024-10-13 19:15:15: control_change channel=1 control=35 value=65 time=0
2024-10-13 19:15:15: control_change channel=1 control=35 value=65 time=0
2024-10-13 19:15:15: control_change channel=1 control=35 value=65 time=0
2024-10-13 19:15:15: control_change channel=1 control=35 value=65 time=0
2024-10-13 19:15:15: control_change channel=1 control=35 value=65 time=0
2024-10-13 19:15:15: control_change channel=1 control=35 value=65 time=0
2024-10-13 19:15:15: control_change channel=1 control=35 value=65 time=0
2024-10-13 19:15:15: control_change channel=1 control=35 value=65 time=0
2024-10-13 19:15:15: control_change channel=1 control=35 value=65 time=0
2024-10-13 19:15:15: control_change channel=1 control=35 value=65 time=0
2024-10-13 19:15:15: control_change channel=1 control=35 value=65 time=0
2024-10-13 19:15:15: control_change channel=1 control=35 value=65 time=0
2024-10-13 19:15:15: control_change channel=1 control=35 value=65 time=0
2024-10-13 19:15:15: control_change channel=1 control=35 value=65 time=0
2024-10-13 19:15:15: control_change channel=1 control=35 value=65 time=0
2024-10-13 19:15:15: control_change channel=1 control=35 value=65 time=0
2024-10-13 19:15:15: control_change channel=1 control=35 value=65 time=0
2024-10-13 19:15:15: control_change channel=1 control=35 value=65 time=0
2024-10-13 19:15:15: control_change channel=1 control=35 value=65 time=0
2024-10-13 19:15:15: control_change channel=1 control=35 value=65 time=0
2024-10-13 19:15:15: control_change channel=1 control=35 value=65 time=0
2024-10-13 19:15:15: control_change channel=1 control=35 value=65 time=0
2024-10-13 19:15:15: control_change channel=1 control=35 value=65 time=0
2024-10-13 19:15:15: control_change channel=1 control=35 value=65 time=0
2024-10-13 19:15:15: control_change channel=1 control=35 value=65 time=0
2024-10-13 19:15:15: control_change channel=1 control=35 value=65 time=0
2024-10-13 19:15:15: control_change channel=1 control=35 value=65 time=0
2024-10-13 19:15:15: control_change channel=1 control=35 value=65 time=0
2024-10-13 19:15:15: control_change channel=1 control=35 value=65 time=0
2024-10-13 19:15:15: control_change channel=1 control=35 value=65 time=0
2024-10-13 19:15:15: control_change channel=1 control=35 value=65 time=0
2024-10-13 19:15:15: control_change channel=1 control=35 value=65 time=0
2024-10-13 19:15:15: control_change channel=1 control=35 value=65 time=0
2024-10-13 19:15:15: control_change channel=1 control=35 value=65 time=0
2024-10-13 19:15:15: control_change channel=1 control=35 value=65 time=0
2024-10-13 19:15:15: control_change channel=1 control=35 value=65 time=0
2024-10-13 19:15:15: control_change channel=1 control=35 value=65 time=0
2024-10-13 19:15:15: control_change channel=1 control=35 value=65 time=0
2024-10-13 19:15:15: control_change channel=1 control=35 value=65 time=0
2024-10-13 19:15:15: control_change channel=1 control=35 value=65 time=0
2024-10-13 19:15:15: control_change channel=1 control=35 value=65 time=0
2024-10-13 19:15:15: control_change channel=1 control=35 value=65 time=0
2024-10-13 19:15:15: control_change channel=1 control=35 value=65 time=0
2024-10-13 19:15:15: control_change channel=1 control=35 value=65 time=0
2024-10-13 19:15:15: control_change channel=1 control=35 value=65 time=0
2024-10-13 19:15:15: control_change channel=1 control=35 value=63 time=0
2024-10-13 19:15:15: control_change channel=1 control=35 value=63 time=0
2024-10-13 19:15:15: control_change channel=1 control=35 value=63 time=0
2024-10-13 19:15:15: control_change channel=1 control=35 value=63 time=0
2024-10-13 19:15:15: control_change channel=1 control=35 value=63 time=0
2024-10-13 19:15:15: control_change channel=1 control=35 value=63 time=0
2024-10-13 19:15:15: control_change channel=1 control=35 value=63 time=0
2024-10-13 19:15:15: control_change channel=1 control=35 value=63 time=0
2024-10-13 19:15:15: control_change channel=1 control=35 value=63 time=0
2024-10-13 19:15:15: control_change channel=1 control=35 value=63 time=0
2024-10-13 19:15:15: control_change channel=1 control=35 value=63 time=0
2024-10-13 19:15:15: control_change channel=1 control=35 value=63 time=0
2024-10-13 19:15:15: control_change channel=1 control=35 value=63 time=0
2024-10-13 19:15:15: control_change channel=1 control=35 value=63 time=0
2024-10-13 19:15:15: control_change channel=1 control=35 value=63 time=0
2024-10-13 19:15:15: control_change channel=1 control=35 value=63 time=0
2024-10-13 19:15:15: control_change channel=1 control=35 value=63 time=0
2024-10-13 19:15:15: control_change channel=1 control=35 value=63 time=0
2024-10-13 19:15:15: control_change channel=1 control=35 value=63 time=0
2024-10-13 19:15:15: control_change channel=1 control=35 value=63 time=0
2024-10-13 19:15:15: control_change channel=1 control=35 value=63 time=0
2024-10-13 19:15:15: control_change channel=1 control=35 value=63 time=0
2024-10-13 19:15:15: control_change channel=1 control=35 value=63 time=0
2024-10-13 19:15:15: control_change channel=1 control=35 value=63 time=0
2024-10-13 19:15:15: control_change channel=1 control=35 value=63 time=0
2024-10-13 19:15:15: control_change channel=1 control=35 value=63 time=0
2024-10-13 19:15:15: control_change channel=1 control=35 value=63 time=0
2024-10-13 19:15:15: control_change channel=1 control=35 value=63 time=0
2024-10-13 19:15:15: control_change channel=1 control=35 value=63 time=0
2024-10-13 19:15:15: control_change channel=1 control=35 value=63 time=0
2024-10-13 19:15:15: control_change channel=1 control=35 value=63 time=0
2024-10-13 19:15:15: control_change channel=1 control=35 value=63 time=0
2024-10-13 19:15:15: control_change channel=1 control=35 value=63 time=0
2024-10-13 19:15:15: control_change channel=1 control=35 value=63 time=0
2024-10-13 19:15:15: control_change channel=1 control=35 value=63 time=0
2024-10-13 19:15:15: control_change channel=1 control=35 value=63 time=0
2024-10-13 19:15:15: control_change channel=1 control=35 value=63 time=0
2024-10-13 19:15:15: control_change channel=1 control=35 value=63 time=0
2024-10-13 19:15:15: control_change channel=1 control=35 value=63 time=0
2024-10-13 19:15:15: control_change channel=1 control=35 value=63 time=0
2024-10-13 19:15:15: control_change channel=1 control=35 value=63 time=0
2024-10-13 19:15:15: control_change channel=1 control=35 value=63 time=0
2024-10-13 19:15:15: control_change channel=1 control=35 value=63 time=0
2024-10-13 19:15:15: control_change channel=1 control=35 value=63 time=0
2024-10-13 19:15:15: control_change channel=1 control=35 value=63 time=0
2024-10-13 19:15:15: control_change channel=1 control=35 value=63 time=0
2024-10-13 19:15:15: control_change channel=1 control=35 value=63 time=0
2024-10-13 19:15:15: control_change channel=1 control=35 value=63 time=0
2024-10-13 19:15:15: control_change channel=1 control=35 value=63 time=0
2024-10-13 19:15:15: control_change channel=1 control=35 value=63 time=0
2024-10-13 19:15:15: control_change channel=1 control=35 value=63 time=0
2024-10-13 19:15:15: control_change channel=1 control=35 value=63 time=0
2024-10-13 19:15:15: control_change channel=1 control=35 value=63 time=0
2024-10-13 19:15:15: control_change channel=1 control=35 value=63 time=0
2024-10-13 19:15:15: control_change channel=1 control=35 value=63 time=0
2024-10-13 19:15:15: control_change channel=1 control=35 value=63 time=0
2024-10-13 19:15:15: control_change channel=1 control=35 value=63 time=0
2024-10-13 19:15:15: control_change channel=1 control=35 value=63 time=0
2024-10-13 19:15:15: control_change channel=1 control=35 value=63 time=0
2024-10-13 19:15:15: control_change channel=1 control=35 value=63 time=0
2024-10-13 19:15:15: control_change channel=1 control=35 value=63 time=0
2024-10-13 19:15:15: control_change channel=1 control=35 value=63 time=0
2024-10-13 19:15:15: control_change channel=1 control=35 value=63 time=0
2024-10-13 19:15:15: control_change channel=1 control=35 value=63 time=0
2024-10-13 19:15:15: control_change channel=1 control=35 value=63 time=0
2024-10-13 19:15:15: control_change channel=1 control=35 value=63 time=0
2024-10-13 19:15:15: control_change channel=1 control=35 value=63 time=0
2024-10-13 19:15:15: control_change channel=1 control=35 value=63 time=0
2024-10-13 19:15:15: control_change channel=1 control=35 value=63 time=0
2024-10-13 19:15:15: control_change channel=1 control=35 value=63 time=0
2024-10-13 19:15:15: control_change channel=1 control=35 value=63 time=0
2024-10-13 19:15:15: control_change channel=1 control=35 value=63 time=0
2024-10-13 19:15:15: control_change channel=1 control=35 value=63 time=0
2024-10-13 19:15:15: control_change channel=1 control=35 value=63 time=0
2024-10-13 19:15:15: control_change channel=1 control=35 value=63 time=0
2024-10-13 19:15:15: control_change channel=1 control=35 value=63 time=0
2024-10-13 19:15:15: control_change channel=1 control=35 value=63 time=0
2024-10-13 19:15:15: control_change channel=1 control=35 value=63 time=0
2024-10-13 19:15:15: control_change channel=1 control=35 value=63 time=0
2024-10-13 19:15:15: control_change channel=1 control=35 value=63 time=0
2024-10-13 19:15:15: control_change channel=1 control=35 value=63 time=0
2024-10-13 19:15:15: control_change channel=1 control=35 value=63 time=0
2024-10-13 19:15:15: control_change channel=1 control=35 value=63 time=0
2024-10-13 19:15:15: control_change channel=1 control=35 value=63 time=0
2024-10-13 19:15:15: control_change channel=1 control=35 value=63 time=0
2024-10-13 19:15:15: control_change channel=1 control=35 value=63 time=0
2024-10-13 19:15:15: control_change channel=1 control=35 value=63 time=0
2024-10-13 19:15:15: control_change channel=1 control=35 value=63 time=0
2024-10-13 19:15:15: control_change channel=1 control=35 value=63 time=0
2024-10-13 19:15:15: control_change channel=1 control=35 value=63 time=0
2024-10-13 19:15:15: control_change channel=1 control=35 value=63 time=0
2024-10-13 19:15:15: control_change channel=1 control=35 value=63 time=0
2024-10-13 19:15:15: control_change channel=1 control=35 value=63 time=0
2024-10-13 19:15:15: control_change channel=1 control=35 value=63 time=0
2024-10-13 19:15:15: control_change channel=1 control=35 value=63 time=0
2024-10-13 19:15:15: control_change channel=1 control=35 value=63 time=0
2024-10-13 19:15:15: control_change channel=1 control=35 value=63 time=0
2024-10-13 19:15:15: control_change channel=1 control=35 value=63 time=0
2024-10-13 19:15:15: control_change channel=1 control=35 value=63 time=0
2024-10-13 19:15:15: control_change channel=1 control=35 value=63 time=0
2024-10-13 19:15:15: control_change channel=1 control=35 value=63 time=0
2024-10-13 19:15:15: control_change channel=1 control=35 value=63 time=0
2024-10-13 19:15:15: control_change channel=1 control=35 value=63 time=0
2024-10-13 19:15:15: control_change channel=1 control=35 value=63 time=0
2024-10-13 19:15:15: control_change channel=1 control=35 value=63 time=0
2024-10-13 19:15:15: control_change channel=1 control=35 value=63 time=0
2024-10-13 19:15:15: control_change channel=1 control=35 value=63 time=0
2024-10-13 19:15:15: control_change channel=1 control=35 value=63 time=0
2024-10-13 19:15:15: control_change channel=1 control=35 value=63 time=0
2024-10-13 19:15:15: control_change channel=1 control=35 value=63 time=0
2024-10-13 19:15:15: control_change channel=1 control=35 value=63 time=0
2024-10-13 19:15:15: control_change channel=1 control=35 value=63 time=0
2024-10-13 19:15:15: control_change channel=1 control=35 value=63 time=0
2024-10-13 19:15:15: control_change channel=1 control=35 value=63 time=0
2024-10-13 19:15:15: control_change channel=1 control=35 value=63 time=0
2024-10-13 19:15:15: control_change channel=1 control=35 value=63 time=0
2024-10-13 19:15:15: control_change channel=1 control=35 value=63 time=0
2024-10-13 19:15:15: control_change channel=1 control=35 value=63 time=0
2024-10-13 19:15:15: control_change channel=1 control=35 value=63 time=0
2024-10-13 19:15:15: control_change channel=1 control=35 value=63 time=0
2024-10-13 19:15:15: control_change channel=1 control=35 value=63 time=0
2024-10-13 19:15:15: control_change channel=1 control=35 value=63 time=0
2024-10-13 19:15:15: control_change channel=1 control=35 value=63 time=0
2024-10-13 19:15:15: control_change channel=1 control=35 value=63 time=0
2024-10-13 19:15:15: control_change channel=1 control=35 value=63 time=0
2024-10-13 19:15:15: control_change channel=1 control=35 value=63 time=0
2024-10-13 19:15:15: control_change channel=1 control=35 value=63 time=0
2024-10-13 19:15:15: control_change channel=1 control=35 value=63 time=0
2024-10-13 19:15:15: control_change channel=1 control=35 value=63 time=0
2024-10-13 19:15:15: control_change channel=1 control=35 value=63 time=0
2024-10-13 19:15:15: control_change channel=1 control=35 value=63 time=0
2024-10-13 19:15:15: control_change channel=1 control=35 value=63 time=0
2024-10-13 19:15:15: control_change channel=1 control=35 value=63 time=0
2024-10-13 19:15:15: control_change channel=1 control=35 value=63 time=0
2024-10-13 19:15:15: control_change channel=1 control=35 value=63 time=0
2024-10-13 19:15:15: control_change channel=1 control=35 value=63 time=0
2024-10-13 19:15:15: control_change channel=1 control=35 value=63 time=0
2024-10-13 19:15:15: control_change channel=1 control=35 value=63 time=0
2024-10-13 19:15:15: control_change channel=1 control=35 value=63 time=0
2024-10-13 19:15:15: control_change channel=1 control=35 value=63 time=0
2024-10-13 19:15:15: control_change channel=1 control=35 value=63 time=0
2024-10-13 19:15:15: control_change channel=1 control=35 value=63 time=0
2024-10-13 19:15:15: control_change channel=1 control=35 value=63 time=0
2024-10-13 19:15:15: control_change channel=1 control=35 value=63 time=0
2024-10-13 19:15:15: control_change channel=1 control=35 value=63 time=0
2024-10-13 19:15:16: control_change channel=1 control=35 value=63 time=0
2024-10-13 19:15:16: control_change channel=1 control=35 value=63 time=0
2024-10-13 19:15:16: control_change channel=1 control=35 value=63 time=0
2024-10-13 19:15:16: control_change channel=1 control=35 value=63 time=0
2024-10-13 19:15:16: control_change channel=1 control=35 value=63 time=0
2024-10-13 19:15:16: control_change channel=1 control=35 value=63 time=0
2024-10-13 19:15:16: control_change channel=1 control=35 value=63 time=0
2024-10-13 19:15:16: control_change channel=1 control=35 value=63 time=0
2024-10-13 19:15:16: control_change channel=1 control=35 value=63 time=0
2024-10-13 19:15:16: control_change channel=1 control=35 value=63 time=0
2024-10-13 19:15:16: control_change channel=1 control=35 value=63 time=0
2024-10-13 19:15:16: control_change channel=1 control=35 value=63 time=0
2024-10-13 19:15:16: control_change channel=1 control=35 value=63 time=0
2024-10-13 19:15:16: control_change channel=1 control=35 value=63 time=0
2024-10-13 19:15:16: control_change channel=1 control=35 value=63 time=0
2024-10-13 19:15:16: control_change channel=1 control=35 value=63 time=0
2024-10-13 19:15:16: control_change channel=1 control=35 value=63 time=0
2024-10-13 19:15:16: control_change channel=1 control=35 value=63 time=0
2024-10-13 19:15:16: control_change channel=1 control=35 value=63 time=0
2024-10-13 19:15:16: control_change channel=1 control=35 value=63 time=0
2024-10-13 19:15:16: control_change channel=1 control=35 value=63 time=0
2024-10-13 19:15:16: control_change channel=1 control=35 value=63 time=0
2024-10-13 19:15:16: control_change channel=1 control=35 value=63 time=0
2024-10-13 19:15:16: control_change channel=1 control=35 value=63 time=0
2024-10-13 19:15:16: control_change channel=1 control=35 value=63 time=0
2024-10-13 19:15:16: control_change channel=1 control=35 value=63 time=0
2024-10-13 19:15:16: control_change channel=1 control=35 value=63 time=0
2024-10-13 19:15:16: control_change channel=1 control=35 value=63 time=0
2024-10-13 19:15:16: control_change channel=1 control=35 value=63 time=0
2024-10-13 19:15:16: control_change channel=1 control=35 value=63 time=0
2024-10-13 19:15:16: control_change channel=1 control=35 value=63 time=0
2024-10-13 19:15:16: control_change channel=1 control=35 value=63 time=0
2024-10-13 19:15:16: control_change channel=1 control=35 value=63 time=0
2024-10-13 19:15:16: control_change channel=1 control=35 value=63 time=0
2024-10-13 19:15:16: control_change channel=1 control=35 value=63 time=0
2024-10-13 19:15:16: control_change channel=1 control=35 value=63 time=0
2024-10-13 19:15:16: control_change channel=1 control=35 value=63 time=0
2024-10-13 19:15:16: control_change channel=1 control=35 value=63 time=0
2024-10-13 19:15:16: control_change channel=1 control=35 value=63 time=0
2024-10-13 19:15:16: control_change channel=1 control=35 value=63 time=0
2024-10-13 19:15:16: control_change channel=1 control=35 value=63 time=0
2024-10-13 19:15:16: control_change channel=1 control=35 value=63 time=0
2024-10-13 19:15:16: control_change channel=1 control=35 value=63 time=0
2024-10-13 19:15:16: control_change channel=1 control=35 value=63 time=0
2024-10-13 19:15:16: control_change channel=1 control=35 value=63 time=0
2024-10-13 19:15:16: control_change channel=1 control=35 value=63 time=0
2024-10-13 19:15:16: control_change channel=1 control=35 value=63 time=0
2024-10-13 19:15:16: control_change channel=1 control=35 value=63 time=0
2024-10-13 19:15:16: control_change channel=1 control=35 value=63 time=0
2024-10-13 19:15:16: control_change channel=1 control=35 value=63 time=0
2024-10-13 19:15:16: control_change channel=1 control=35 value=63 time=0
2024-10-13 19:15:16: control_change channel=1 control=35 value=63 time=0
2024-10-13 19:15:16: control_change channel=1 control=35 value=63 time=0
2024-10-13 19:15:16: control_change channel=1 control=35 value=63 time=0
2024-10-13 19:15:16: control_change channel=1 control=35 value=63 time=0
2024-10-13 19:15:16: control_change channel=1 control=35 value=63 time=0
2024-10-13 19:15:16: control_change channel=1 control=35 value=63 time=0
2024-10-13 19:15:16: control_change channel=1 control=35 value=63 time=0
2024-10-13 19:15:16: control_change channel=1 control=35 value=63 time=0
2024-10-13 19:15:16: control_change channel=1 control=35 value=63 time=0
2024-10-13 19:15:16: control_change channel=1 control=35 value=63 time=0
2024-10-13 19:15:16: control_change channel=1 control=35 value=63 time=0
2024-10-13 19:15:16: control_change channel=1 control=35 value=63 time=0
2024-10-13 19:15:16: control_change channel=1 control=35 value=63 time=0
2024-10-13 19:15:16: control_change channel=1 control=35 value=63 time=0
2024-10-13 19:15:16: control_change channel=1 control=35 value=63 time=0
2024-10-13 19:15:16: control_change channel=1 control=35 value=63 time=0
2024-10-13 19:15:16: control_change channel=1 control=35 value=63 time=0
2024-10-13 19:15:16: control_change channel=1 control=35 value=63 time=0
2024-10-13 19:15:16: control_change channel=1 control=35 value=63 time=0
2024-10-13 19:15:16: control_change channel=1 control=35 value=63 time=0
2024-10-13 19:15:16: control_change channel=1 control=35 value=63 time=0
2024-10-13 19:15:16: control_change channel=1 control=35 value=63 time=0
2024-10-13 19:15:16: control_change channel=1 control=35 value=63 time=0
2024-10-13 19:15:16: control_change channel=1 control=35 value=63 time=0
2024-10-13 19:15:16: control_change channel=1 control=35 value=63 time=0
2024-10-13 19:15:16: control_change channel=1 control=35 value=63 time=0
2024-10-13 19:15:16: control_change channel=1 control=35 value=63 time=0
2024-10-13 19:15:16: control_change channel=1 control=35 value=63 time=0
2024-10-13 19:15:16: control_change channel=1 control=35 value=63 time=0
2024-10-13 19:15:16: control_change channel=1 control=35 value=63 time=0
2024-10-13 19:15:16: control_change channel=1 control=35 value=63 time=0
2024-10-13 19:15:16: control_change channel=1 control=35 value=63 time=0
2024-10-13 19:15:16: control_change channel=1 control=35 value=63 time=0
2024-10-13 19:15:16: control_change channel=1 control=35 value=63 time=0
2024-10-13 19:15:16: control_change channel=1 control=35 value=63 time=0
2024-10-13 19:15:16: control_change channel=1 control=35 value=63 time=0
2024-10-13 19:15:16: control_change channel=1 control=35 value=63 time=0
2024-10-13 19:15:16: control_change channel=1 control=35 value=63 time=0
2024-10-13 19:15:16: control_change channel=1 control=35 value=63 time=0
2024-10-13 19:15:16: control_change channel=1 control=35 value=63 time=0
2024-10-13 19:15:16: control_change channel=1 control=35 value=63 time=0
2024-10-13 19:15:16: control_change channel=1 control=35 value=63 time=0
2024-10-13 19:15:16: control_change channel=1 control=35 value=63 time=0
2024-10-13 19:15:16: control_change channel=1 control=35 value=63 time=0
2024-10-13 19:15:16: control_change channel=1 control=35 value=63 time=0
2024-10-13 19:15:16: control_change channel=1 control=35 value=63 time=0
2024-10-13 19:15:16: control_change channel=1 control=35 value=63 time=0
2024-10-13 19:15:16: control_change channel=1 control=35 value=63 time=0
2024-10-13 19:15:16: control_change channel=1 control=35 value=63 time=0
2024-10-13 19:15:16: control_change channel=1 control=35 value=63 time=0
2024-10-13 19:15:16: control_change channel=1 control=35 value=63 time=0
2024-10-13 19:15:16: control_change channel=1 control=35 value=63 time=0
2024-10-13 19:15:16: control_change channel=1 control=35 value=63 time=0
2024-10-13 19:15:16: control_change channel=1 control=35 value=63 time=0
2024-10-13 19:15:16: control_change channel=1 control=35 value=63 time=0
2024-10-13 19:15:16: control_change channel=1 control=35 value=63 time=0
2024-10-13 19:15:16: control_change channel=1 control=35 value=63 time=0
2024-10-13 19:15:16: control_change channel=1 control=35 value=63 time=0
2024-10-13 19:15:16: control_change channel=1 control=35 value=63 time=0
2024-10-13 19:15:16: control_change channel=1 control=35 value=63 time=0
2024-10-13 19:15:16: control_change channel=1 control=35 value=63 time=0
2024-10-13 19:15:16: control_change channel=1 control=35 value=63 time=0
2024-10-13 19:15:16: control_change channel=1 control=35 value=63 time=0
2024-10-13 19:15:16: control_change channel=1 control=35 value=63 time=0
2024-10-13 19:15:16: control_change channel=1 control=35 value=63 time=0
2024-10-13 19:15:17: note_on channel=9 note=0 velocity=127 time=0
2024-10-13 19:15:17: note_on channel=9 note=0 velocity=0 time=0
2024-10-13 19:15:17: note_on channel=9 note=1 velocity=127 time=0
2024-10-13 19:15:18: note_on channel=9 note=1 velocity=0 time=0
2024-10-13 19:15:18: note_on channel=9 note=2 velocity=127 time=0
2024-10-13 19:15:18: note_on channel=9 note=2 velocity=0 time=0
2024-10-13 19:15:19: note_on channel=9 note=7 velocity=127 time=0
2024-10-13 19:15:19: note_on channel=9 note=7 velocity=0 time=0
2024-10-13 19:15:19: note_on channel=9 note=6 velocity=127 time=0
2024-10-13 19:15:19: note_on channel=9 note=6 velocity=0 time=0
2024-10-13 19:15:20: note_on channel=9 note=5 velocity=127 time=0
2024-10-13 19:15:20: note_on channel=9 note=5 velocity=0 time=0
2024-10-13 19:15:21: note_on channel=9 note=5 velocity=127 time=0
2024-10-13 19:15:21: note_on channel=9 note=5 velocity=0 time=0
2024-10-13 19:15:22: note_on channel=9 note=4 velocity=127 time=0
2024-10-13 19:15:23: note_on channel=9 note=4 velocity=0 time=0
2024-10-13 19:15:23: note_on channel=9 note=4 velocity=127 time=0
2024-10-13 19:15:23: note_on channel=9 note=4 velocity=0 time=0
2024-10-13 19:15:24: note_on channel=9 note=4 velocity=127 time=0
2024-10-13 19:15:25: note_on channel=9 note=4 velocity=0 time=0
2024-10-13 19:15:25: note_on channel=9 note=0 velocity=127 time=0
2024-10-13 19:15:26: note_on channel=9 note=0 velocity=0 time=0
2024-10-13 19:15:26: note_on channel=9 note=0 velocity=127 time=0
2024-10-13 19:15:28: note_on channel=9 note=0 velocity=0 time=0
2024-10-13 19:15:32: note_on channel=1 note=12 velocity=127 time=0
2024-10-13 19:15:32: note_on channel=1 note=12 velocity=0 time=0
2024-10-13 19:15:32: note_on channel=1 note=12 velocity=127 time=0
2024-10-13 19:15:32: note_on channel=1 note=12 velocity=0 time=0
2024-10-13 19:15:34: note_on channel=9 note=0 velocity=127 time=0
2024-10-13 19:15:34: note_on channel=9 note=0 velocity=0 time=0
2024-10-13 19:15:35: note_on channel=9 note=1 velocity=127 time=0
2024-10-13 19:15:35: note_on channel=9 note=1 velocity=0 time=0
2024-10-13 19:15:35: note_on channel=9 note=2 velocity=127 time=0
2024-10-13 19:15:35: note_on channel=9 note=2 velocity=0 time=0
2024-10-13 19:15:35: note_on channel=9 note=3 velocity=127 time=0
2024-10-13 19:15:36: note_on channel=9 note=3 velocity=0 time=0
2024-10-13 19:15:36: note_on channel=9 note=7 velocity=127 time=0
2024-10-13 19:15:36: note_on channel=9 note=7 velocity=0 time=0
2024-10-13 19:15:37: note_on channel=9 note=5 velocity=127 time=0
2024-10-13 19:15:37: note_on channel=9 note=5 velocity=0 time=0
2024-10-13 19:15:38: note_on channel=9 note=4 velocity=127 time=0
2024-10-13 19:15:38: note_on channel=9 note=4 velocity=0 time=0
2024-10-13 19:15:39: control_change channel=1 control=0 value=49 time=0
2024-10-13 19:15:39: control_change channel=1 control=32 value=31 time=0
2024-10-13 19:15:39: control_change channel=1 control=0 value=49 time=0
2024-10-13 19:15:39: control_change channel=1 control=32 value=80 time=0
2024-10-13 19:15:39: control_change channel=1 control=0 value=50 time=0
2024-10-13 19:15:39: control_change channel=1 control=32 value=1 time=0
2024-10-13 19:15:39: control_change channel=1 control=0 value=50 time=0
2024-10-13 19:15:39: control_change channel=1 control=32 value=49 time=0
2024-10-13 19:15:39: control_change channel=1 control=0 value=50 time=0
2024-10-13 19:15:39: control_change channel=1 control=32 value=115 time=0
2024-10-13 19:15:39: control_change channel=1 control=0 value=51 time=0
2024-10-13 19:15:39: control_change channel=1 control=32 value=68 time=0
2024-10-13 19:15:39: control_change channel=1 control=0 value=52 time=0
2024-10-13 19:15:39: control_change channel=1 control=32 value=87 time=0
2024-10-13 19:15:39: control_change channel=1 control=0 value=53 time=0
2024-10-13 19:15:39: control_change channel=1 control=32 value=56 time=0
2024-10-13 19:15:39: control_change channel=1 control=0 value=54 time=0
2024-10-13 19:15:39: control_change channel=1 control=32 value=75 time=0
2024-10-13 19:15:39: control_change channel=1 control=0 value=56 time=0
2024-10-13 19:15:39: control_change channel=1 control=32 value=14 time=0
2024-10-13 19:15:39: control_change channel=1 control=0 value=56 time=0
2024-10-13 19:15:39: control_change channel=1 control=32 value=112 time=0
2024-10-13 19:15:39: control_change channel=1 control=0 value=58 time=0
2024-10-13 19:15:39: control_change channel=1 control=32 value=84 time=0
2024-10-13 19:15:39: control_change channel=1 control=0 value=60 time=0
2024-10-13 19:15:39: control_change channel=1 control=32 value=72 time=0
2024-10-13 19:15:39: control_change channel=1 control=0 value=62 time=0
2024-10-13 19:15:39: control_change channel=1 control=32 value=77 time=0
2024-10-13 19:15:39: control_change channel=1 control=0 value=64 time=0
2024-10-13 19:15:39: control_change channel=1 control=32 value=0 time=0
2024-10-13 19:15:39: control_change channel=1 control=0 value=64 time=0
2024-10-13 19:15:39: control_change channel=1 control=32 value=81 time=0
2024-10-13 19:15:39: control_change channel=1 control=0 value=65 time=0
2024-10-13 19:15:39: control_change channel=1 control=32 value=35 time=0
2024-10-13 19:15:39: control_change channel=1 control=0 value=66 time=0
2024-10-13 19:15:39: control_change channel=1 control=32 value=70 time=0
2024-10-13 19:15:39: control_change channel=1 control=0 value=67 time=0
2024-10-13 19:15:39: control_change channel=1 control=32 value=88 time=0
2024-10-13 19:15:39: control_change channel=1 control=0 value=68 time=0
2024-10-13 19:15:39: control_change channel=1 control=32 value=107 time=0
2024-10-13 19:15:39: control_change channel=1 control=0 value=69 time=0
2024-10-13 19:15:39: control_change channel=1 control=32 value=109 time=0
2024-10-13 19:15:39: control_change channel=1 control=0 value=70 time=0
2024-10-13 19:15:39: control_change channel=1 control=32 value=62 time=0
2024-10-13 19:15:39: control_change channel=1 control=0 value=71 time=0
2024-10-13 19:15:39: control_change channel=1 control=32 value=81 time=0
2024-10-13 19:15:39: control_change channel=1 control=0 value=72 time=0
2024-10-13 19:15:39: control_change channel=1 control=32 value=83 time=0
2024-10-13 19:15:39: control_change channel=1 control=0 value=73 time=0
2024-10-13 19:15:39: control_change channel=1 control=32 value=86 time=0
2024-10-13 19:15:39: control_change channel=1 control=0 value=74 time=0
2024-10-13 19:15:39: control_change channel=1 control=32 value=120 time=0
2024-10-13 19:15:39: control_change channel=1 control=0 value=75 time=0
2024-10-13 19:15:39: control_change channel=1 control=32 value=41 time=0
2024-10-13 19:15:39: control_change channel=1 control=0 value=76 time=0
2024-10-13 19:15:39: control_change channel=1 control=32 value=44 time=0
2024-10-13 19:15:39: control_change channel=1 control=0 value=76 time=0
2024-10-13 19:15:39: control_change channel=1 control=32 value=109 time=0
2024-10-13 19:15:39: control_change channel=1 control=0 value=77 time=0
2024-10-13 19:15:39: control_change channel=1 control=32 value=62 time=0
2024-10-13 19:15:39: control_change channel=1 control=0 value=77 time=0
2024-10-13 19:15:39: control_change channel=1 control=32 value=111 time=0
2024-10-13 19:15:39: control_change channel=1 control=0 value=78 time=0
2024-10-13 19:15:39: control_change channel=1 control=32 value=32 time=0
2024-10-13 19:15:39: control_change channel=1 control=0 value=78 time=0
2024-10-13 19:15:39: control_change channel=1 control=32 value=81 time=0
2024-10-13 19:15:39: control_change channel=1 control=0 value=79 time=0
2024-10-13 19:15:39: control_change channel=1 control=32 value=2 time=0
2024-10-13 19:15:39: control_change channel=1 control=0 value=78 time=0
2024-10-13 19:15:39: control_change channel=1 control=32 value=81 time=0
2024-10-13 19:15:39: control_change channel=1 control=0 value=78 time=0
2024-10-13 19:15:39: control_change channel=1 control=32 value=32 time=0
2024-10-13 19:15:39: control_change channel=1 control=0 value=77 time=0
2024-10-13 19:15:39: control_change channel=1 control=32 value=111 time=0
2024-10-13 19:15:39: control_change channel=1 control=0 value=77 time=0
2024-10-13 19:15:39: control_change channel=1 control=32 value=46 time=0
2024-10-13 19:15:39: control_change channel=1 control=0 value=76 time=0
2024-10-13 19:15:39: control_change channel=1 control=32 value=109 time=0
2024-10-13 19:15:39: control_change channel=1 control=0 value=76 time=0
2024-10-13 19:15:39: control_change channel=1 control=32 value=11 time=0
2024-10-13 19:15:39: control_change channel=1 control=0 value=75 time=0
2024-10-13 19:15:39: control_change channel=1 control=32 value=25 time=0
2024-10-13 19:15:39: control_change channel=1 control=0 value=74 time=0
2024-10-13 19:15:39: control_change channel=1 control=32 value=72 time=0
2024-10-13 19:15:40: control_change channel=1 control=0 value=73 time=0
2024-10-13 19:15:40: control_change channel=1 control=32 value=20 time=0
2024-10-13 19:15:40: control_change channel=1 control=0 value=71 time=0
2024-10-13 19:15:40: control_change channel=1 control=32 value=65 time=0
2024-10-13 19:15:40: control_change channel=1 control=0 value=69 time=0
2024-10-13 19:15:40: control_change channel=1 control=32 value=109 time=0
2024-10-13 19:15:40: control_change channel=1 control=0 value=68 time=0
2024-10-13 19:15:40: control_change channel=1 control=32 value=9 time=0
2024-10-13 19:15:40: control_change channel=1 control=0 value=67 time=0
2024-10-13 19:15:40: control_change channel=1 control=32 value=23 time=0
2024-10-13 19:15:40: control_change channel=1 control=0 value=65 time=0
2024-10-13 19:15:40: control_change channel=1 control=32 value=35 time=0
2024-10-13 19:15:40: control_change channel=1 control=0 value=64 time=0
2024-10-13 19:15:40: control_change channel=1 control=32 value=0 time=0
2024-10-13 19:15:40: control_change channel=1 control=0 value=63 time=0
2024-10-13 19:15:40: control_change channel=1 control=32 value=79 time=0
2024-10-13 19:15:40: control_change channel=1 control=0 value=61 time=0
2024-10-13 19:15:40: control_change channel=1 control=32 value=107 time=0
2024-10-13 19:15:40: control_change channel=1 control=0 value=60 time=0
2024-10-13 19:15:40: control_change channel=1 control=32 value=7 time=0
2024-10-13 19:15:40: control_change channel=1 control=0 value=59 time=0
2024-10-13 19:15:40: control_change channel=1 control=32 value=21 time=0
2024-10-13 19:15:40: control_change channel=1 control=0 value=57 time=0
2024-10-13 19:15:40: control_change channel=1 control=32 value=49 time=0
2024-10-13 19:15:40: control_change channel=1 control=0 value=55 time=0
2024-10-13 19:15:40: control_change channel=1 control=32 value=93 time=0
2024-10-13 19:15:40: control_change channel=1 control=0 value=53 time=0
2024-10-13 19:15:40: control_change channel=1 control=32 value=89 time=0
2024-10-13 19:15:40: control_change channel=1 control=0 value=51 time=0
2024-10-13 19:15:40: control_change channel=1 control=32 value=52 time=0
2024-10-13 19:15:40: control_change channel=1 control=0 value=50 time=0
2024-10-13 19:15:40: control_change channel=1 control=32 value=49 time=0
2024-10-13 19:15:40: control_change channel=1 control=0 value=48 time=0
2024-10-13 19:15:40: control_change channel=1 control=32 value=29 time=0
2024-10-13 19:15:40: control_change channel=1 control=0 value=46 time=0
2024-10-13 19:15:40: control_change channel=1 control=32 value=24 time=0
2024-10-13 19:15:40: control_change channel=1 control=0 value=44 time=0
2024-10-13 19:15:40: control_change channel=1 control=32 value=19 time=0
2024-10-13 19:15:40: control_change channel=1 control=0 value=42 time=0
2024-10-13 19:15:40: control_change channel=1 control=32 value=80 time=0
2024-10-13 19:15:40: control_change channel=1 control=0 value=41 time=0
2024-10-13 19:15:40: control_change channel=1 control=32 value=110 time=0
2024-10-13 19:15:40: control_change channel=1 control=0 value=40 time=0
2024-10-13 19:15:40: control_change channel=1 control=32 value=59 time=0
2024-10-13 19:15:40: control_change channel=1 control=0 value=39 time=0
2024-10-13 19:15:40: control_change channel=1 control=32 value=8 time=0
2024-10-13 19:15:40: control_change channel=1 control=0 value=37 time=0
2024-10-13 19:15:40: control_change channel=1 control=32 value=101 time=0
2024-10-13 19:15:40: control_change channel=1 control=0 value=36 time=0
2024-10-13 19:15:40: control_change channel=1 control=32 value=34 time=0
2024-10-13 19:15:40: control_change channel=1 control=0 value=35 time=0
2024-10-13 19:15:40: control_change channel=1 control=32 value=80 time=0
2024-10-13 19:15:40: control_change channel=1 control=0 value=33 time=0
2024-10-13 19:15:40: control_change channel=1 control=32 value=124 time=0
2024-10-13 19:15:40: control_change channel=1 control=0 value=32 time=0
2024-10-13 19:15:40: control_change channel=1 control=32 value=41 time=0
2024-10-13 19:15:40: control_change channel=1 control=0 value=30 time=0
2024-10-13 19:15:40: control_change channel=1 control=32 value=52 time=0
2024-10-13 19:15:40: control_change channel=1 control=0 value=28 time=0
2024-10-13 19:15:40: control_change channel=1 control=32 value=64 time=0
2024-10-13 19:15:40: control_change channel=1 control=0 value=27 time=0
2024-10-13 19:15:40: control_change channel=1 control=32 value=62 time=0
2024-10-13 19:15:40: control_change channel=1 control=0 value=25 time=0
2024-10-13 19:15:40: control_change channel=1 control=32 value=74 time=0
2024-10-13 19:15:40: control_change channel=1 control=0 value=23 time=0
2024-10-13 19:15:40: control_change channel=1 control=32 value=102 time=0
2024-10-13 19:15:40: control_change channel=1 control=0 value=22 time=0
2024-10-13 19:15:40: control_change channel=1 control=32 value=18 time=0
2024-10-13 19:15:40: control_change channel=1 control=0 value=20 time=0
2024-10-13 19:15:40: control_change channel=1 control=32 value=78 time=0
2024-10-13 19:15:40: control_change channel=1 control=0 value=19 time=0
2024-10-13 19:15:40: control_change channel=1 control=32 value=109 time=0
2024-10-13 19:15:40: control_change channel=1 control=0 value=18 time=0
2024-10-13 19:15:40: control_change channel=1 control=32 value=25 time=0
2024-10-13 19:15:40: control_change channel=1 control=0 value=16 time=0
2024-10-13 19:15:40: control_change channel=1 control=32 value=69 time=0
2024-10-13 19:15:40: control_change channel=1 control=0 value=14 time=0
2024-10-13 19:15:40: control_change channel=1 control=32 value=97 time=0
2024-10-13 19:15:40: control_change channel=1 control=0 value=12 time=0
2024-10-13 19:15:40: control_change channel=1 control=32 value=125 time=0
2024-10-13 19:15:40: control_change channel=1 control=0 value=11 time=0
2024-10-13 19:15:40: control_change channel=1 control=32 value=107 time=0
2024-10-13 19:15:40: control_change channel=1 control=0 value=9 time=0
2024-10-13 19:15:40: control_change channel=1 control=32 value=102 time=0
2024-10-13 19:15:40: control_change channel=1 control=0 value=7 time=0
2024-10-13 19:15:40: control_change channel=1 control=32 value=81 time=0
2024-10-13 19:15:40: control_change channel=1 control=0 value=5 time=0
2024-10-13 19:15:40: control_change channel=1 control=32 value=44 time=0
2024-10-13 19:15:40: control_change channel=1 control=0 value=3 time=0
2024-10-13 19:15:40: control_change channel=1 control=32 value=39 time=0
2024-10-13 19:15:40: control_change channel=1 control=0 value=2 time=0
2024-10-13 19:15:40: control_change channel=1 control=32 value=37 time=0
2024-10-13 19:15:40: control_change channel=1 control=0 value=0 time=0
2024-10-13 19:15:40: control_change channel=1 control=32 value=33 time=0
2024-10-13 19:15:40: control_change channel=1 control=0 value=0 time=0
2024-10-13 19:15:40: control_change channel=1 control=32 value=0 time=0
2024-10-13 19:15:41: control_change channel=1 control=0 value=0 time=0
2024-10-13 19:15:41: control_change channel=1 control=32 value=33 time=0
2024-10-13 19:15:41: control_change channel=1 control=0 value=1 time=0
2024-10-13 19:15:41: control_change channel=1 control=32 value=35 time=0
2024-10-13 19:15:41: control_change channel=1 control=0 value=2 time=0
2024-10-13 19:15:41: control_change channel=1 control=32 value=37 time=0
2024-10-13 19:15:41: control_change channel=1 control=0 value=2 time=0
2024-10-13 19:15:41: control_change channel=1 control=32 value=102 time=0
2024-10-13 19:15:41: control_change channel=1 control=0 value=3 time=0
2024-10-13 19:15:41: control_change channel=1 control=32 value=121 time=0
2024-10-13 19:15:41: control_change channel=1 control=0 value=5 time=0
2024-10-13 19:15:41: control_change channel=1 control=32 value=28 time=0
2024-10-13 19:15:41: control_change channel=1 control=0 value=6 time=0
2024-10-13 19:15:41: control_change channel=1 control=32 value=95 time=0
2024-10-13 19:15:41: control_change channel=1 control=0 value=8 time=0
2024-10-13 19:15:41: control_change channel=1 control=32 value=51 time=0
2024-10-13 19:15:41: control_change channel=1 control=0 value=9 time=0
2024-10-13 19:15:41: control_change channel=1 control=32 value=69 time=0
2024-10-13 19:15:41: control_change channel=1 control=0 value=11 time=0
2024-10-13 19:15:41: control_change channel=1 control=32 value=90 time=0
2024-10-13 19:15:41: control_change channel=1 control=0 value=13 time=0
2024-10-13 19:15:41: control_change channel=1 control=32 value=127 time=0
2024-10-13 19:15:41: control_change channel=1 control=0 value=16 time=0
2024-10-13 19:15:41: control_change channel=1 control=32 value=53 time=0
2024-10-13 19:15:41: control_change channel=1 control=0 value=18 time=0
2024-10-13 19:15:41: control_change channel=1 control=32 value=123 time=0
2024-10-13 19:15:41: control_change channel=1 control=0 value=20 time=0
2024-10-13 19:15:41: control_change channel=1 control=32 value=30 time=0
2024-10-13 19:15:41: control_change channel=1 control=0 value=22 time=0
2024-10-13 19:15:41: control_change channel=1 control=32 value=116 time=0
2024-10-13 19:15:41: control_change channel=1 control=0 value=25 time=0
2024-10-13 19:15:41: control_change channel=1 control=32 value=106 time=0
2024-10-13 19:15:41: control_change channel=1 control=0 value=28 time=0
2024-10-13 19:15:41: control_change channel=1 control=32 value=113 time=0
2024-10-13 19:15:41: control_change channel=1 control=0 value=32 time=0
2024-10-13 19:15:41: control_change channel=1 control=32 value=8 time=0
2024-10-13 19:15:41: control_change channel=1 control=0 value=33 time=0
2024-10-13 19:15:41: control_change channel=1 control=32 value=76 time=0
2024-10-13 19:15:41: control_change channel=1 control=0 value=36 time=0
2024-10-13 19:15:41: control_change channel=1 control=32 value=115 time=0
2024-10-13 19:15:41: control_change channel=1 control=0 value=40 time=0
2024-10-13 19:15:41: control_change channel=1 control=32 value=26 time=0
2024-10-13 19:15:41: control_change channel=1 control=0 value=43 time=0
2024-10-13 19:15:41: control_change channel=1 control=32 value=33 time=0
2024-10-13 19:15:41: control_change channel=1 control=0 value=46 time=0
2024-10-13 19:15:41: control_change channel=1 control=32 value=56 time=0
2024-10-13 19:15:41: control_change channel=1 control=0 value=47 time=0
2024-10-13 19:15:41: control_change channel=1 control=32 value=108 time=0
2024-10-13 19:15:41: control_change channel=1 control=0 value=50 time=0
2024-10-13 19:15:41: control_change channel=1 control=32 value=98 time=0
2024-10-13 19:15:41: control_change channel=1 control=0 value=53 time=0
2024-10-13 19:15:41: control_change channel=1 control=32 value=73 time=0
2024-10-13 19:15:41: control_change channel=1 control=0 value=56 time=0
2024-10-13 19:15:41: control_change channel=1 control=32 value=63 time=0
2024-10-13 19:15:41: control_change channel=1 control=0 value=59 time=0
2024-10-13 19:15:41: control_change channel=1 control=32 value=37 time=0
2024-10-13 19:15:41: control_change channel=1 control=0 value=60 time=0
2024-10-13 19:15:41: control_change channel=1 control=32 value=72 time=0
2024-10-13 19:15:41: control_change channel=1 control=0 value=63 time=0
2024-10-13 19:15:41: control_change channel=1 control=32 value=30 time=0
2024-10-13 19:15:41: control_change channel=1 control=0 value=64 time=0
2024-10-13 19:15:41: control_change channel=1 control=32 value=0 time=0
2024-10-13 19:15:41: control_change channel=1 control=0 value=66 time=0
2024-10-13 19:15:41: control_change channel=1 control=32 value=37 time=0
2024-10-13 19:15:41: control_change channel=1 control=0 value=68 time=0
2024-10-13 19:15:41: control_change channel=1 control=32 value=107 time=0
2024-10-13 19:15:41: control_change channel=1 control=0 value=71 time=0
2024-10-13 19:15:41: control_change channel=1 control=32 value=48 time=0
2024-10-13 19:15:41: control_change channel=1 control=0 value=73 time=0
2024-10-13 19:15:41: control_change channel=1 control=32 value=86 time=0
2024-10-13 19:15:41: control_change channel=1 control=0 value=75 time=0
2024-10-13 19:15:41: control_change channel=1 control=32 value=9 time=0
2024-10-13 19:15:41: control_change channel=1 control=0 value=77 time=0
2024-10-13 19:15:41: control_change channel=1 control=32 value=46 time=0
2024-10-13 19:15:41: control_change channel=1 control=0 value=79 time=0
2024-10-13 19:15:41: control_change channel=1 control=32 value=116 time=0
2024-10-13 19:15:41: control_change channel=1 control=0 value=82 time=0
2024-10-13 19:15:41: control_change channel=1 control=32 value=41 time=0
2024-10-13 19:15:41: control_change channel=1 control=0 value=84 time=0
2024-10-13 19:15:41: control_change channel=1 control=32 value=111 time=0
2024-10-13 19:15:41: control_change channel=1 control=0 value=86 time=0
2024-10-13 19:15:41: control_change channel=1 control=32 value=17 time=0
2024-10-13 19:15:41: control_change channel=1 control=0 value=88 time=0
2024-10-13 19:15:41: control_change channel=1 control=32 value=55 time=0
2024-10-13 19:15:41: control_change channel=1 control=0 value=90 time=0
2024-10-13 19:15:41: control_change channel=1 control=32 value=75 time=0
2024-10-13 19:15:41: control_change channel=1 control=0 value=92 time=0
2024-10-13 19:15:41: control_change channel=1 control=32 value=96 time=0
2024-10-13 19:15:41: control_change channel=1 control=0 value=94 time=0
2024-10-13 19:15:41: control_change channel=1 control=32 value=85 time=0
2024-10-13 19:15:41: control_change channel=1 control=0 value=95 time=0
2024-10-13 19:15:41: control_change channel=1 control=32 value=71 time=0
2024-10-13 19:15:41: control_change channel=1 control=0 value=97 time=0
2024-10-13 19:15:41: control_change channel=1 control=32 value=42 time=0
2024-10-13 19:15:41: control_change channel=1 control=0 value=98 time=0
2024-10-13 19:15:41: control_change channel=1 control=32 value=126 time=0
2024-10-13 19:15:41: control_change channel=1 control=0 value=100 time=0
2024-10-13 19:15:41: control_change channel=1 control=32 value=98 time=0
2024-10-13 19:15:41: control_change channel=1 control=0 value=102 time=0
2024-10-13 19:15:41: control_change channel=1 control=32 value=103 time=0
2024-10-13 19:15:41: control_change channel=1 control=0 value=103 time=0
2024-10-13 19:15:41: control_change channel=1 control=32 value=89 time=0
2024-10-13 19:15:41: control_change channel=1 control=0 value=105 time=0
2024-10-13 19:15:41: control_change channel=1 control=32 value=93 time=0
2024-10-13 19:15:41: control_change channel=1 control=0 value=108 time=0
2024-10-13 19:15:41: control_change channel=1 control=32 value=19 time=0
2024-10-13 19:15:41: control_change channel=1 control=0 value=110 time=0
2024-10-13 19:15:41: control_change channel=1 control=32 value=88 time=0
2024-10-13 19:15:41: control_change channel=1 control=0 value=113 time=0
2024-10-13 19:15:41: control_change channel=1 control=32 value=111 time=0
2024-10-13 19:15:41: control_change channel=1 control=0 value=115 time=0
2024-10-13 19:15:41: control_change channel=1 control=32 value=51 time=0
2024-10-13 19:15:41: control_change channel=1 control=0 value=119 time=0
2024-10-13 19:15:41: control_change channel=1 control=32 value=27 time=0
2024-10-13 19:15:41: control_change channel=1 control=0 value=123 time=0
2024-10-13 19:15:41: control_change channel=1 control=32 value=69 time=0
2024-10-13 19:15:41: control_change channel=1 control=0 value=127 time=0
2024-10-13 19:15:41: control_change channel=1 control=32 value=111 time=0
2024-10-13 19:15:41: control_change channel=1 control=0 value=127 time=0
2024-10-13 19:15:41: control_change channel=1 control=32 value=127 time=0
2.343 seconds: control_change channel=0 control=0 value=1 time=0
2.345 seconds: control_change channel=0 control=32 value=19 time=0
2.352 seconds: control_change channel=0 control=0 value=2 time=0
2.352 seconds: control_change channel=0 control=32 value=70 time=0
2.361 seconds: control_change channel=0 control=0 value=3 time=0
2.361 seconds: control_change channel=0 control=32 value=88 time=0
2.370 seconds: control_change channel=0 control=0 value=4 time=0
2.370 seconds: control_change channel=0 control=32 value=123 time=0
2.379 seconds: control_change channel=0 control=0 value=5 time=0
2.379 seconds: control_change channel=0 control=32 value=60 time=0
2.388 seconds: control_change channel=0 control=0 value=6 time=0
2.388 seconds: control_change channel=0 control=32 value=79 time=0
2.397 seconds: control_change channel=0 control=0 value=7 time=0
2.397 seconds: control_change channel=0 control=32 value=97 time=0
2.406 seconds: control_change channel=0 control=0 value=8 time=0
2.406 seconds: control_change channel=0 control=32 value=100 time=0
2.415 seconds: control_change channel=0 control=0 value=9 time=0
2.415 seconds: control_change channel=0 control=32 value=21 time=0
2.424 seconds: control_change channel=0 control=0 value=9 time=0
2.424 seconds: control_change channel=0 control=32 value=102 time=0
2.433 seconds: control_change channel=0 control=0 value=10 time=0
2.433 seconds: control_change channel=0 control=32 value=39 time=0
2.451 seconds: control_change channel=0 control=0 value=10 time=0
2.451 seconds: control_change channel=0 control=32 value=121 time=0
2.460 seconds: control_change channel=0 control=0 value=11 time=0
2.460 seconds: control_change channel=0 control=32 value=41 time=0
2.469 seconds: control_change channel=0 control=0 value=11 time=0
2.469 seconds: control_change channel=0 control=32 value=90 time=0
2.478 seconds: control_change channel=0 control=0 value=12 time=0
2.478 seconds: control_change channel=0 control=32 value=11 time=0
2.487 seconds: control_change channel=0 control=0 value=12 time=0
2.487 seconds: control_change channel=0 control=32 value=125 time=0
2.496 seconds: control_change channel=0 control=0 value=13 time=0
2.496 seconds: control_change channel=0 control=32 value=79 time=0
2.505 seconds: control_change channel=0 control=0 value=14 time=0
2.505 seconds: control_change channel=0 control=32 value=48 time=0
2.514 seconds: control_change channel=0 control=0 value=14 time=0
2.514 seconds: control_change channel=0 control=32 value=97 time=0
2.523 seconds: control_change channel=0 control=0 value=16 time=0
2.523 seconds: control_change channel=0 control=32 value=4 time=0
2.532 seconds: control_change channel=0 control=0 value=17 time=0
2.532 seconds: control_change channel=0 control=32 value=39 time=0
2.541 seconds: control_change channel=0 control=0 value=18 time=0
2.541 seconds: control_change channel=0 control=32 value=74 time=0
2.550 seconds: control_change channel=0 control=0 value=19 time=0
2.550 seconds: control_change channel=0 control=32 value=92 time=0
2.559 seconds: control_change channel=0 control=0 value=20 time=0
2.559 seconds: control_change channel=0 control=32 value=62 time=0
2.568 seconds: control_change channel=0 control=0 value=21 time=0
2.568 seconds: control_change channel=0 control=32 value=81 time=0
2.577 seconds: control_change channel=0 control=0 value=22 time=0
2.577 seconds: control_change channel=0 control=32 value=99 time=0
2.586 seconds: control_change channel=0 control=0 value=24 time=0
2.586 seconds: control_change channel=0 control=32 value=6 time=0
2.595 seconds: control_change channel=0 control=0 value=25 time=0
2.595 seconds: control_change channel=0 control=32 value=8 time=0
2.604 seconds: control_change channel=0 control=0 value=25 time=0
2.604 seconds: control_change channel=0 control=32 value=57 time=0
2.613 seconds: control_change channel=0 control=0 value=26 time=0
2.613 seconds: control_change channel=0 control=32 value=43 time=0
2.622 seconds: control_change channel=0 control=0 value=26 time=0
2.622 seconds: control_change channel=0 control=32 value=125 time=0
2.631 seconds: control_change channel=0 control=0 value=27 time=0
2.631 seconds: control_change channel=0 control=32 value=46 time=0
2.640 seconds: control_change channel=0 control=0 value=27 time=0
2.640 seconds: control_change channel=0 control=32 value=94 time=0
2.676 seconds: control_change channel=0 control=0 value=28 time=0
2.676 seconds: control_change channel=0 control=32 value=15 time=0
4.645 seconds: control_change channel=0 control=19 value=127 time=0
4.646 seconds: control_change channel=0 control=51 value=8 time=0
4.655 seconds: control_change channel=0 control=19 value=126 time=0
4.656 seconds: control_change channel=0 control=51 value=85 time=0
4.665 seconds: control_change channel=0 control=19 value=126 time=0
4.665 seconds: control_change channel=0 control=51 value=33 time=0
4.675 seconds: control_change channel=0 control=19 value=125 time=0
4.676 seconds: control_change channel=0 control=51 value=110 time=0
4.685 seconds: control_change channel=0 control=19 value=125 time=0
4.686 seconds: control_change channel=0 control=51 value=59 time=0
4.695 seconds: control_change channel=0 control=19 value=124 time=0
4.696 seconds: control_change channel=0 control=51 value=119 time=0
4.705 seconds: control_change channel=0 control=19 value=124 time=0
4.706 seconds: control_change channel=0 control=51 value=51 time=0
4.715 seconds: control_change channel=0 control=19 value=123 time=0
4.715 seconds: control_change channel=0 control=51 value=111 time=0
4.725 seconds: control_change channel=0 control=19 value=123 time=0
4.726 seconds: control_change channel=0 control=51 value=42 time=0
4.726 seconds: control_change channel=0 control=19 value=122 time=0
4.726 seconds: control_change channel=0 control=51 value=119 time=0
4.740 seconds: control_change channel=0 control=19 value=122 time=0
4.741 seconds: control_change channel=0 control=51 value=51 time=0
4.741 seconds: control_change channel=0 control=19 value=122 time=0
4.741 seconds: control_change channel=0 control=51 value=0 time=0
4.755 seconds: control_change channel=0 control=19 value=121 time=0
4.756 seconds: control_change channel=0 control=51 value=43 time=0
4.756 seconds: control_change channel=0 control=19 value=120 time=0
4.756 seconds: control_change channel=0 control=51 value=119 time=0
4.765 seconds: control_change channel=0 control=19 value=120 time=0
4.766 seconds: control_change channel=0 control=51 value=68 time=0
4.766 seconds: control_change channel=0 control=19 value=120 time=0
4.766 seconds: control_change channel=0 control=51 value=17 time=0
4.780 seconds: control_change channel=0 control=19 value=119 time=0
4.781 seconds: control_change channel=0 control=51 value=77 time=0
4.787 seconds: control_change channel=0 control=19 value=119 time=0
4.787 seconds: control_change channel=0 control=51 value=26 time=0
4.795 seconds: control_change channel=0 control=19 value=118 time=0
4.796 seconds: control_change channel=0 control=51 value=86 time=0
4.806 seconds: control_change channel=0 control=19 value=118 time=0
4.806 seconds: control_change channel=0 control=51 value=35 time=0
4.815 seconds: control_change channel=0 control=19 value=117 time=0
4.816 seconds: control_change channel=0 control=51 value=94 time=0
4.826 seconds: control_change channel=0 control=19 value=117 time=0
4.826 seconds: control_change channel=0 control=51 value=43 time=0
4.836 seconds: control_change channel=0 control=19 value=116 time=0
4.836 seconds: control_change channel=0 control=51 value=120 time=0
4.846 seconds: control_change channel=0 control=19 value=116 time=0
4.846 seconds: control_change channel=0 control=51 value=69 time=0
4.861 seconds: control_change channel=0 control=19 value=116 time=0
4.861 seconds: control_change channel=0 control=51 value=1 time=0
4.871 seconds: control_change channel=0 control=19 value=115 time=0
4.871 seconds: control_change channel=0 control=51 value=61 time=0
4.881 seconds: control_change channel=0 control=19 value=114 time=0
4.881 seconds: control_change channel=0 control=51 value=120 time=0
4.891 seconds: control_change channel=0 control=19 value=114 time=0
4.891 seconds: control_change channel=0 control=51 value=52 time=0
4.901 seconds: control_change channel=0 control=19 value=113 time=0
4.901 seconds: control_change channel=0 control=51 value=95 time=0
4.911 seconds: control_change channel=0 control=19 value=113 time=0
4.911 seconds: control_change channel=0 control=51 value=27 time=0
4.921 seconds: control_change channel=0 control=19 value=112 time=0
4.921 seconds: control_change channel=0 control=51 value=86 time=0
4.921 seconds: control_change channel=0 control=19 value=112 time=0
4.921 seconds: control_change channel=0 control=51 value=35 time=0
4.936 seconds: control_change channel=0 control=19 value=111 time=0
4.936 seconds: control_change channel=0 control=51 value=95 time=0
4.946 seconds: control_change channel=0 control=19 value=111 time=0
4.946 seconds: control_change channel=0 control=51 value=27 time=0
4.956 seconds: control_change channel=0 control=19 value=110 time=0
4.956 seconds: control_change channel=0 control=51 value=87 time=0
4.966 seconds: control_change channel=0 control=19 value=110 time=0
4.966 seconds: control_change channel=0 control=51 value=19 time=0
4.976 seconds: control_change channel=0 control=19 value=109 time=0
4.976 seconds: control_change channel=0 control=51 value=78 time=0
4.986 seconds: control_change channel=0 control=19 value=108 time=0
4.986 seconds: control_change channel=0 control=51 value=121 time=0
4.996 seconds: control_change channel=0 control=19 value=108 time=0
4.996 seconds: control_change channel=0 control=51 value=53 time=0
5.006 seconds: control_change channel=0 control=19 value=107 time=0
5.006 seconds: control_change channel=0 control=51 value=113 time=0
5.016 seconds: control_change channel=0 control=19 value=107 time=0
5.016 seconds: control_change channel=0 control=51 value=45 time=0
5.016 seconds: control_change channel=0 control=19 value=106 time=0
5.016 seconds: control_change channel=0 control=51 value=121 time=0
5.031 seconds: control_change channel=0 control=19 value=106 time=0
5.031 seconds: control_change channel=0 control=51 value=53 time=0
5.041 seconds: control_change channel=0 control=19 value=105 time=0
5.041 seconds: control_change channel=0 control=51 value=113 time=0
5.051 seconds: control_change channel=0 control=19 value=105 time=0
5.051 seconds: control_change channel=0 control=51 value=45 time=0
5.061 seconds: control_change channel=0 control=19 value=104 time=0
5.061 seconds: control_change channel=0 control=51 value=105 time=0
5.071 seconds: control_change channel=0 control=19 value=104 time=0
5.071 seconds: control_change channel=0 control=51 value=36 time=0
5.081 seconds: control_change channel=0 control=19 value=103 time=0
5.081 seconds: control_change channel=0 control=51 value=113 time=0
5.091 seconds: control_change channel=0 control=19 value=103 time=0
5.091 seconds: control_change channel=0 control=51 value=45 time=0
5.101 seconds: control_change channel=0 control=19 value=102 time=0
5.101 seconds: control_change channel=0 control=51 value=105 time=0
5.111 seconds: control_change channel=0 control=19 value=102 time=0
5.111 seconds: control_change channel=0 control=51 value=54 time=0
5.121 seconds: control_change channel=0 control=19 value=102 time=0
5.121 seconds: control_change channel=0 control=51 value=3 time=0
5.131 seconds: control_change channel=0 control=19 value=101 time=0
5.131 seconds: control_change channel=0 control=51 value=80 time=0
5.141 seconds: control_change channel=0 control=19 value=101 time=0
5.141 seconds: control_change channel=0 control=51 value=28 time=0
5.158 seconds: control_change channel=0 control=19 value=100 time=0
5.158 seconds: control_change channel=0 control=51 value=88 time=0
5.166 seconds: control_change channel=0 control=19 value=100 time=0
5.166 seconds: control_change channel=0 control=51 value=37 time=0
5.176 seconds: control_change channel=0 control=19 value=99 time=0
5.176 seconds: control_change channel=0 control=51 value=114 time=0
5.186 seconds: control_change channel=0 control=19 value=99 time=0
5.186 seconds: control_change channel=0 control=51 value=46 time=0
5.186 seconds: control_change channel=0 control=19 value=98 time=0
5.186 seconds: control_change channel=0 control=51 value=123 time=0
5.201 seconds: control_change channel=0 control=19 value=98 time=0
5.201 seconds: control_change channel=0 control=51 value=54 time=0
5.201 seconds: control_change channel=0 control=19 value=98 time=0
5.201 seconds: control_change channel=0 control=51 value=3 time=0
5.216 seconds: control_change channel=0 control=19 value=97 time=0
5.216 seconds: control_change channel=0 control=51 value=46 time=0
5.226 seconds: control_change channel=0 control=19 value=96 time=0
5.226 seconds: control_change channel=0 control=51 value=106 time=0
5.236 seconds: control_change channel=0 control=19 value=96 time=0
5.236 seconds: control_change channel=0 control=51 value=38 time=0
5.246 seconds: control_change channel=0 control=19 value=95 time=0
5.246 seconds: control_change channel=0 control=51 value=97 time=0
5.261 seconds: control_change channel=0 control=19 value=95 time=0
5.261 seconds: control_change channel=0 control=51 value=46 time=0
5.341 seconds: control_change channel=0 control=19 value=94 time=0
5.341 seconds: control_change channel=0 control=51 value=123 time=0
5.361 seconds: control_change channel=0 control=19 value=94 time=0
5.361 seconds: control_change channel=0 control=51 value=55 time=0
5.371 seconds: control_change channel=0 control=19 value=94 time=0
5.371 seconds: control_change channel=0 control=51 value=4 time=0
5.381 seconds: control_change channel=0 control=19 value=93 time=0
5.381 seconds: control_change channel=0 control=51 value=81 time=0
5.391 seconds: control_change channel=0 control=19 value=93 time=0
5.391 seconds: control_change channel=0 control=51 value=30 time=0
5.406 seconds: control_change channel=0 control=19 value=92 time=0
5.406 seconds: control_change channel=0 control=51 value=106 time=0
5.536 seconds: control_change channel=0 control=19 value=92 time=0
5.536 seconds: control_change channel=0 control=51 value=55 time=0
6.867 seconds: control_change channel=1 control=35 value=65 time=0
6.907 seconds: control_change channel=1 control=35 value=65 time=0
6.918 seconds: control_change channel=1 control=35 value=65 time=0
6.927 seconds: control_change channel=1 control=35 value=65 time=0
6.937 seconds: control_change channel=1 control=35 value=65 time=0
6.948 seconds: control_change channel=1 control=35 value=65 time=0
6.955 seconds: control_change channel=1 control=35 value=65 time=0
6.955 seconds: control_change channel=1 control=35 value=65 time=0
6.969 seconds: control_change channel=1 control=35 value=65 time=0
6.978 seconds: control_change channel=1 control=35 value=65 time=0
6.978 seconds: control_change channel=1 control=35 value=65 time=0
6.988 seconds: control_change channel=1 control=35 value=65 time=0
6.994 seconds: control_change channel=1 control=35 value=65 time=0
7.001 seconds: control_change channel=1 control=35 value=65 time=0
7.001 seconds: control_change channel=1 control=35 value=65 time=0
7.009 seconds: control_change channel=1 control=35 value=65 time=0
7.009 seconds: control_change channel=1 control=35 value=65 time=0
7.020 seconds: control_change channel=1 control=35 value=65 time=0
7.020 seconds: control_change channel=1 control=35 value=65 time=0
7.027 seconds: control_change channel=1 control=35 value=65 time=0
7.027 seconds: control_change channel=1 control=35 value=65 time=0
7.038 seconds: control_change channel=1 control=35 value=65 time=0
7.038 seconds: control_change channel=1 control=35 value=65 time=0
7.044 seconds: control_change channel=1 control=35 value=65 time=0
7.044 seconds: control_change channel=1 control=35 value=65 time=0
7.055 seconds: control_change channel=1 control=35 value=65 time=0
7.055 seconds: control_change channel=1 control=35 value=65 time=0
7.061 seconds: control_change channel=1 control=35 value=65 time=0
7.061 seconds: control_change channel=1 control=35 value=65 time=0
7.071 seconds: control_change channel=1 control=35 value=65 time=0
7.071 seconds: control_change channel=1 control=35 value=65 time=0
7.077 seconds: control_change channel=1 control=35 value=65 time=0
7.077 seconds: control_change channel=1 control=35 value=65 time=0
7.088 seconds: control_change channel=1 control=35 value=65 time=0
7.088 seconds: control_change channel=1 control=35 value=65 time=0
7.094 seconds: control_change channel=1 control=35 value=65 time=0
7.094 seconds: control_change channel=1 control=35 value=65 time=0
7.103 seconds: control_change channel=1 control=35 value=65 time=0
7.103 seconds: control_change channel=1 control=35 value=65 time=0
7.110 seconds: control_change channel=1 control=35 value=65 time=0
7.110 seconds: control_change channel=1 control=35 value=65 time=0
7.119 seconds: control_change channel=1 control=35 value=65 time=0
7.119 seconds: control_change channel=1 control=35 value=65 time=0
7.125 seconds: control_change channel=1 control=35 value=65 time=0
7.125 seconds: control_change channel=1 control=35 value=65 time=0
7.136 seconds: control_change channel=1 control=35 value=65 time=0
7.136 seconds: control_change channel=1 control=35 value=65 time=0
7.143 seconds: control_change channel=1 control=35 value=65 time=0
7.143 seconds: control_change channel=1 control=35 value=65 time=0
7.155 seconds: control_change channel=1 control=35 value=65 time=0
7.155 seconds: control_change channel=1 control=35 value=65 time=0
7.162 seconds: control_change channel=1 control=35 value=65 time=0
7.162 seconds: control_change channel=1 control=35 value=65 time=0
7.173 seconds: control_change channel=1 control=35 value=65 time=0
7.173 seconds: control_change channel=1 control=35 value=65 time=0
7.180 seconds: control_change channel=1 control=35 value=65 time=0
7.180 seconds: control_change channel=1 control=35 value=65 time=0
7.191 seconds: control_change channel=1 control=35 value=65 time=0
7.191 seconds: control_change channel=1 control=35 value=65 time=0
7.197 seconds: control_change channel=1 control=35 value=65 time=0
7.203 seconds: control_change channel=1 control=35 value=65 time=0
7.203 seconds: control_change channel=1 control=35 value=65 time=0
7.216 seconds: control_change channel=1 control=35 value=65 time=0
7.216 seconds: control_change channel=1 control=35 value=65 time=0
7.216 seconds: control_change channel=1 control=35 value=65 time=0
7.224 seconds: control_change channel=1 control=35 value=65 time=0
7.224 seconds: control_change channel=1 control=35 value=65 time=0
7.231 seconds: control_change channel=1 control=35 value=65 time=0
7.231 seconds: control_change channel=1 control=35 value=65 time=0
7.242 seconds: control_change channel=1 control=35 value=65 time=0
7.242 seconds: control_change channel=1 control=35 value=65 time=0
7.249 seconds: control_change channel=1 control=35 value=65 time=0
7.249 seconds: control_change channel=1 control=35 value=65 time=0
7.261 seconds: control_change channel=1 control=35 value=65 time=0
7.261 seconds: control_change channel=1 control=35 value=65 time=0
7.269 seconds: control_change channel=1 control=35 value=65 time=0
7.269 seconds: control_change channel=1 control=35 value=65 time=0
7.282 seconds: control_change channel=1 control=35 value=65 time=0
7.282 seconds: control_change channel=1 control=35 value=65 time=0
7.290 seconds: control_change channel=1 control=35 value=65 time=0
7.290 seconds: control_change channel=1 control=35 value=65 time=0
7.302 seconds: control_change channel=1 control=35 value=65 time=0
7.302 seconds: control_change channel=1 control=35 value=65 time=0
7.309 seconds: control_change channel=1 control=35 value=65 time=0
7.309 seconds: control_change channel=1 control=35 value=65 time=0
7.319 seconds: control_change channel=1 control=35 value=65 time=0
7.319 seconds: control_change channel=1 control=35 value=65 time=0
7.325 seconds: control_change channel=1 control=35 value=65 time=0
7.325 seconds: control_change channel=1 control=35 value=65 time=0
7.335 seconds: control_change channel=1 control=35 value=65 time=0
7.335 seconds: control_change channel=1 control=35 value=65 time=0
7.341 seconds: control_change channel=1 control=35 value=65 time=0
7.341 seconds: control_change channel=1 control=35 value=65 time=0
7.351 seconds: control_change channel=1 control=35 value=65 time=0
7.351 seconds: control_change channel=1 control=35 value=65 time=0
7.357 seconds: control_change channel=1 control=35 value=65 time=0
7.357 seconds: control_change channel=1 control=35 value=65 time=0
7.367 seconds: control_change channel=1 control=35 value=65 time=0
7.367 seconds: control_change channel=1 control=35 value=65 time=0
7.374 seconds: control_change channel=1 control=35 value=65 time=0
7.374 seconds: control_change channel=1 control=35 value=65 time=0
7.384 seconds: control_change channel=1 control=35 value=65 time=0
7.384 seconds: control_change channel=1 control=35 value=65 time=0
7.391 seconds: control_change channel=1 control=35 value=65 time=0
7.391 seconds: control_change channel=1 control=35 value=65 time=0
7.401 seconds: control_change channel=1 control=35 value=65 time=0
7.401 seconds: control_change channel=1 control=35 value=65 time=0
7.408 seconds: control_change channel=1 control=35 value=65 time=0
7.408 seconds: control_change channel=1 control=35 value=65 time=0
7.419 seconds: control_change channel=1 control=35 value=65 time=0
7.419 seconds: control_change channel=1 control=35 value=65 time=0
7.425 seconds: control_change channel=1 control=35 value=65 time=0
7.425 seconds: control_change channel=1 control=35 value=65 time=0
7.435 seconds: control_change channel=1 control=35 value=65 time=0
7.435 seconds: control_change channel=1 control=35 value=65 time=0
7.442 seconds: control_change channel=1 control=35 value=65 time=0
7.442 seconds: control_change channel=1 control=35 value=65 time=0
7.452 seconds: control_change channel=1 control=35 value=65 time=0
7.452 seconds: control_change channel=1 control=35 value=65 time=0
7.458 seconds: control_change channel=1 control=35 value=65 time=0
7.458 seconds: control_change channel=1 control=35 value=65 time=0
7.467 seconds: control_change channel=1 control=35 value=65 time=0
7.467 seconds: control_change channel=1 control=35 value=65 time=0
7.473 seconds: control_change channel=1 control=35 value=65 time=0
7.473 seconds: control_change channel=1 control=35 value=65 time=0
7.483 seconds: control_change channel=1 control=35 value=65 time=0
7.483 seconds: control_change channel=1 control=35 value=65 time=0
7.489 seconds: control_change channel=1 control=35 value=65 time=0
7.489 seconds: control_change channel=1 control=35 value=65 time=0
7.498 seconds: control_change channel=1 control=35 value=65 time=0
7.498 seconds: control_change channel=1 control=35 value=65 time=0
7.504 seconds: control_change channel=1 control=35 value=65 time=0
7.504 seconds: control_change channel=1 control=35 value=65 time=0
7.514 seconds: control_change channel=1 control=35 value=65 time=0
7.514 seconds: control_change channel=1 control=35 value=65 time=0
7.521 seconds: control_change channel=1 control=35 value=65 time=0
7.521 seconds: control_change channel=1 control=35 value=65 time=0
7.533 seconds: control_change channel=1 control=35 value=65 time=0
7.533 seconds: control_change channel=1 control=35 value=65 time=0
7.545 seconds: control_change channel=1 control=35 value=65 time=0
7.545 seconds: control_change channel=1 control=35 value=65 time=0
7.554 seconds: control_change channel=1 control=35 value=65 time=0
7.554 seconds: control_change channel=1 control=35 value=65 time=0
7.562 seconds: control_change channel=1 control=35 value=65 time=0
7.568 seconds: control_change channel=1 control=35 value=65 time=0
7.576 seconds: control_change channel=1 control=35 value=65 time=0
7.576 seconds: control_change channel=1 control=35 value=65 time=0
7.584 seconds: control_change channel=1 control=35 value=65 time=0
7.584 seconds: control_change channel=1 control=35 value=65 time=0
7.596 seconds: control_change channel=1 control=35 value=65 time=0
7.596 seconds: control_change channel=1 control=35 value=65 time=0
7.604 seconds: control_change channel=1 control=35 value=65 time=0
7.604 seconds: control_change channel=1 control=35 value=65 time=0
7.615 seconds: control_change channel=1 control=35 value=65 time=0
7.615 seconds: control_change channel=1 control=35 value=65 time=0
7.622 seconds: control_change channel=1 control=35 value=65 time=0
7.622 seconds: control_change channel=1 control=35 value=65 time=0
7.632 seconds: control_change channel=1 control=35 value=65 time=0
7.632 seconds: control_change channel=1 control=35 value=65 time=0
7.639 seconds: control_change channel=1 control=35 value=65 time=0
7.639 seconds: control_change channel=1 control=35 value=65 time=0
7.649 seconds: control_change channel=1 control=35 value=65 time=0
7.649 seconds: control_change channel=1 control=35 value=65 time=0
7.655 seconds: control_change channel=1 control=35 value=65 time=0
7.655 seconds: control_change channel=1 control=35 value=65 time=0
7.667 seconds: control_change channel=1 control=35 value=65 time=0
7.667 seconds: control_change channel=1 control=35 value=65 time=0
7.667 seconds: control_change channel=1 control=35 value=65 time=0
7.675 seconds: control_change channel=1 control=35 value=65 time=0
7.681 seconds: control_change channel=1 control=35 value=65 time=0
7.681 seconds: control_change channel=1 control=35 value=65 time=0
7.687 seconds: control_change channel=1 control=35 value=65 time=0
7.687 seconds: control_change channel=1 control=35 value=65 time=0
7.698 seconds: control_change channel=1 control=35 value=65 time=0
7.698 seconds: control_change channel=1 control=35 value=65 time=0
7.704 seconds: control_change channel=1 control=35 value=65 time=0
7.704 seconds: control_change channel=1 control=35 value=65 time=0
7.714 seconds: control_change channel=1 control=35 value=65 time=0
7.714 seconds: control_change channel=1 control=35 value=65 time=0
7.720 seconds: control_change channel=1 control=35 value=65 time=0
7.720 seconds: control_change channel=1 control=35 value=65 time=0
7.730 seconds: control_change channel=1 control=35 value=65 time=0
7.730 seconds: control_change channel=1 control=35 value=65 time=0
7.736 seconds: control_change channel=1 control=35 value=65 time=0
7.736 seconds: control_change channel=1 control=35 value=65 time=0
7.746 seconds: control_change channel=1 control=35 value=65 time=0
7.746 seconds: control_change channel=1 control=35 value=65 time=0
7.752 seconds: control_change channel=1 control=35 value=65 time=0
7.752 seconds: control_change channel=1 control=35 value=65 time=0
7.763 seconds: control_change channel=1 control=35 value=65 time=0
7.763 seconds: control_change channel=1 control=35 value=65 time=0
7.770 seconds: control_change channel=1 control=35 value=65 time=0
7.770 seconds: control_change channel=1 control=35 value=65 time=0
7.781 seconds: control_change channel=1 control=35 value=65 time=0
7.781 seconds: control_change channel=1 control=35 value=65 time=0
7.787 seconds: control_change channel=1 control=35 value=65 time=0
7.787 seconds: control_change channel=1 control=35 value=65 time=0
7.798 seconds: control_change channel=1 control=35 value=65 time=0
7.798 seconds: control_change channel=1 control=35 value=65 time=0
7.805 seconds: control_change channel=1 control=35 value=65 time=0
7.805 seconds: control_change channel=1 control=35 value=65 time=0
7.814 seconds: control_change channel=1 control=35 value=65 time=0
7.814 seconds: control_change channel=1 control=35 value=65 time=0
7.820 seconds: control_change channel=1 control=35 value=65 time=0
7.820 seconds: control_change channel=1 control=35 value=65 time=0
7.829 seconds: control_change channel=1 control=35 value=65 time=0
7.829 seconds: control_change channel=1 control=35 value=65 time=0
7.835 seconds: control_change channel=1 control=35 value=65 time=0
7.835 seconds: control_change channel=1 control=35 value=65 time=0
7.844 seconds: control_change channel=1 control=35 value=65 time=0
7.844 seconds: control_change channel=1 control=35 value=65 time=0
7.850 seconds: control_change channel=1 control=35 value=65 time=0
7.850 seconds: control_change channel=1 control=35 value=65 time=0
7.859 seconds: control_change channel=1 control=35 value=65 time=0
7.859 seconds: control_change channel=1 control=35 value=65 time=0
7.865 seconds: control_change channel=1 control=35 value=65 time=0
7.865 seconds: control_change channel=1 control=35 value=65 time=0
7.874 seconds: control_change channel=1 control=35 value=65 time=0
7.874 seconds: control_change channel=1 control=35 value=65 time=0
7.880 seconds: control_change channel=1 control=35 value=65 time=0
7.880 seconds: control_change channel=1 control=35 value=65 time=0
7.889 seconds: control_change channel=1 control=35 value=65 time=0
7.889 seconds: control_change channel=1 control=35 value=65 time=0
7.895 seconds: control_change channel=1 control=35 value=65 time=0
7.895 seconds: control_change channel=1 control=35 value=65 time=0
7.903 seconds: control_change channel=1 control=35 value=65 time=0
7.903 seconds: control_change channel=1 control=35 value=65 time=0
7.903 seconds: control_change channel=1 control=35 value=65 time=0
7.911 seconds: control_change channel=1 control=35 value=65 time=0
7.911 seconds: control_change channel=1 control=35 value=65 time=0
7.918 seconds: control_change channel=1 control=35 value=65 time=0
7.918 seconds: control_change channel=1 control=35 value=65 time=0
7.918 seconds: control_change channel=1 control=35 value=65 time=0
7.927 seconds: control_change channel=1 control=35 value=65 time=0
7.927 seconds: control_change channel=1 control=35 value=65 time=0
7.927 seconds: control_change channel=1 control=35 value=65 time=0
7.935 seconds: control_change channel=1 control=35 value=65 time=0
7.935 seconds: control_change channel=1 control=35 value=65 time=0
7.941 seconds: control_change channel=1 control=35 value=65 time=0
7.941 seconds: control_change channel=1 control=35 value=65 time=0
7.941 seconds: control_change channel=1 control=35 value=65 time=0
7.950 seconds: control_change channel=1 control=35 value=65 time=0
7.950 seconds: control_change channel=1 control=35 value=65 time=0
7.950 seconds: control_change channel=1 control=35 value=65 time=0
7.958 seconds: control_change channel=1 control=35 value=65 time=0
7.958 seconds: control_change channel=1 control=35 value=65 time=0
7.965 seconds: control_change channel=1 control=35 value=65 time=0
7.965 seconds: control_change channel=1 control=35 value=65 time=0
7.965 seconds: control_change channel=1 control=35 value=65 time=0
7.974 seconds: control_change channel=1 control=35 value=65 time=0
7.974 seconds: control_change channel=1 control=35 value=65 time=0
7.974 seconds: control_change channel=1 control=35 value=65 time=0
7.982 seconds: control_change channel=1 control=35 value=65 time=0
7.982 seconds: control_change channel=1 control=35 value=65 time=0
7.989 seconds: control_change channel=1 control=35 value=65 time=0
7.989 seconds: control_change channel=1 control=35 value=65 time=0
7.995 seconds: control_change channel=1 control=35 value=65 time=0
7.995 seconds: control_change channel=1 control=35 value=65 time=0
8.002 seconds: control_change channel=1 control=35 value=65 time=0
8.002 seconds: control_change channel=1 control=35 value=65 time=0
8.002 seconds: control_change channel=1 control=35 value=65 time=0
8.012 seconds: control_change channel=1 control=35 value=65 time=0
8.012 seconds: control_change channel=1 control=35 value=65 time=0
8.012 seconds: control_change channel=1 control=35 value=65 time=0
8.020 seconds: control_change channel=1 control=35 value=65 time=0
8.020 seconds: control_change channel=1 control=35 value=65 time=0
8.027 seconds: control_change channel=1 control=35 value=65 time=0
8.027 seconds: control_change channel=1 control=35 value=65 time=0
8.033 seconds: control_change channel=1 control=35 value=65 time=0
8.044 seconds: control_change channel=1 control=35 value=65 time=0
8.044 seconds: control_change channel=1 control=35 value=65 time=0
8.044 seconds: control_change channel=1 control=35 value=65 time=0
8.044 seconds: control_change channel=1 control=35 value=65 time=0
8.051 seconds: control_change channel=1 control=35 value=65 time=0
8.051 seconds: control_change channel=1 control=35 value=65 time=0
8.051 seconds: control_change channel=1 control=35 value=65 time=0
8.060 seconds: control_change channel=1 control=35 value=65 time=0
8.060 seconds: control_change channel=1 control=35 value=65 time=0
8.067 seconds: control_change channel=1 control=35 value=65 time=0
8.067 seconds: control_change channel=1 control=35 value=65 time=0
8.073 seconds: control_change channel=1 control=35 value=65 time=0
8.073 seconds: control_change channel=1 control=35 value=65 time=0
8.081 seconds: control_change channel=1 control=35 value=65 time=0
8.081 seconds: control_change channel=1 control=35 value=65 time=0
8.087 seconds: control_change channel=1 control=35 value=65 time=0
8.087 seconds: control_change channel=1 control=35 value=65 time=0
8.094 seconds: control_change channel=1 control=35 value=65 time=0
8.094 seconds: control_change channel=1 control=35 value=65 time=0
8.100 seconds: control_change channel=1 control=35 value=65 time=0
8.100 seconds: control_change channel=1 control=35 value=65 time=0
8.108 seconds: control_change channel=1 control=35 value=65 time=0
8.108 seconds: control_change channel=1 control=35 value=65 time=0
8.114 seconds: control_change channel=1 control=35 value=65 time=0
8.114 seconds: control_change channel=1 control=35 value=65 time=0
8.122 seconds: control_change channel=1 control=35 value=65 time=0
8.122 seconds: control_change channel=1 control=35 value=65 time=0
8.128 seconds: control_change channel=1 control=35 value=65 time=0
8.128 seconds: control_change channel=1 control=35 value=65 time=0
8.136 seconds: control_change channel=1 control=35 value=65 time=0
8.136 seconds: control_change channel=1 control=35 value=65 time=0
8.143 seconds: control_change channel=1 control=35 value=65 time=0
8.143 seconds: control_change channel=1 control=35 value=65 time=0
8.151 seconds: control_change channel=1 control=35 value=65 time=0
8.151 seconds: control_change channel=1 control=35 value=65 time=0
8.157 seconds: control_change channel=1 control=35 value=65 time=0
8.163 seconds: control_change channel=1 control=35 value=65 time=0
8.163 seconds: control_change channel=1 control=35 value=65 time=0
8.163 seconds: control_change channel=1 control=35 value=65 time=0
8.172 seconds: control_change channel=1 control=35 value=65 time=0
8.178 seconds: control_change channel=1 control=35 value=65 time=0
8.178 seconds: control_change channel=1 control=35 value=65 time=0
8.178 seconds: control_change channel=1 control=35 value=65 time=0
8.186 seconds: control_change channel=1 control=35 value=65 time=0
8.186 seconds: control_change channel=1 control=35 value=65 time=0
8.194 seconds: control_change channel=1 control=35 value=65 time=0
8.194 seconds: control_change channel=1 control=35 value=65 time=0
8.200 seconds: control_change channel=1 control=35 value=65 time=0
8.200 seconds: control_change channel=1 control=35 value=65 time=0
8.207 seconds: control_change channel=1 control=35 value=65 time=0
8.207 seconds: control_change channel=1 control=35 value=65 time=0
8.207 seconds: control_change channel=1 control=35 value=65 time=0
8.217 seconds: control_change channel=1 control=35 value=65 time=0
8.217 seconds: control_change channel=1 control=35 value=65 time=0
8.217 seconds: control_change channel=1 control=35 value=65 time=0
8.225 seconds: control_change channel=1 control=35 value=65 time=0
8.225 seconds: control_change channel=1 control=35 value=65 time=0
8.231 seconds: control_change channel=1 control=35 value=65 time=0
8.231 seconds: control_change channel=1 control=35 value=65 time=0
8.231 seconds: control_change channel=1 control=35 value=65 time=0
8.240 seconds: control_change channel=1 control=35 value=65 time=0
8.240 seconds: control_change channel=1 control=35 value=65 time=0
8.241 seconds: control_change channel=1 control=35 value=65 time=0
8.248 seconds: control_change channel=1 control=35 value=65 time=0
8.248 seconds: control_change channel=1 control=35 value=65 time=0
8.254 seconds: control_change channel=1 control=35 value=65 time=0
8.254 seconds: control_change channel=1 control=35 value=65 time=0
8.254 seconds: control_change channel=1 control=35 value=65 time=0
8.263 seconds: control_change channel=1 control=35 value=65 time=0
8.263 seconds: control_change channel=1 control=35 value=65 time=0
8.263 seconds: control_change channel=1 control=35 value=65 time=0
8.270 seconds: control_change channel=1 control=35 value=65 time=0
8.271 seconds: control_change channel=1 control=35 value=65 time=0
8.276 seconds: control_change channel=1 control=35 value=65 time=0
8.276 seconds: control_change channel=1 control=35 value=65 time=0
8.276 seconds: control_change channel=1 control=35 value=65 time=0
8.284 seconds: control_change channel=1 control=35 value=65 time=0
8.284 seconds: control_change channel=1 control=35 value=65 time=0
8.284 seconds: control_change channel=1 control=35 value=65 time=0
8.291 seconds: control_change channel=1 control=35 value=65 time=0
8.291 seconds: control_change channel=1 control=35 value=65 time=0
8.297 seconds: control_change channel=1 control=35 value=65 time=0
8.297 seconds: control_change channel=1 control=35 value=65 time=0
8.297 seconds: control_change channel=1 control=35 value=65 time=0
8.305 seconds: control_change channel=1 control=35 value=65 time=0
8.306 seconds: control_change channel=1 control=35 value=65 time=0
8.306 seconds: control_change channel=1 control=35 value=65 time=0
8.311 seconds: control_change channel=1 control=35 value=65 time=0
8.318 seconds: control_change channel=1 control=35 value=65 time=0
8.318 seconds: control_change channel=1 control=35 value=65 time=0
8.318 seconds: control_change channel=1 control=35 value=65 time=0
8.318 seconds: control_change channel=1 control=35 value=65 time=0
8.325 seconds: control_change channel=1 control=35 value=65 time=0
8.325 seconds: control_change channel=1 control=35 value=65 time=0
8.325 seconds: control_change channel=1 control=35 value=65 time=0
8.332 seconds: control_change channel=1 control=35 value=65 time=0
8.332 seconds: control_change channel=1 control=35 value=65 time=0
8.338 seconds: control_change channel=1 control=35 value=65 time=0
8.338 seconds: control_change channel=1 control=35 value=65 time=0
8.339 seconds: control_change channel=1 control=35 value=65 time=0
8.347 seconds: control_change channel=1 control=35 value=65 time=0
8.348 seconds: control_change channel=1 control=35 value=65 time=0
8.348 seconds: control_change channel=1 control=35 value=65 time=0
8.354 seconds: control_change channel=1 control=35 value=65 time=0
8.355 seconds: control_change channel=1 control=35 value=65 time=0
8.360 seconds: control_change channel=1 control=35 value=65 time=0
8.360 seconds: control_change channel=1 control=35 value=65 time=0
8.360 seconds: control_change channel=1 control=35 value=65 time=0
8.369 seconds: control_change channel=1 control=35 value=65 time=0
8.370 seconds: control_change channel=1 control=35 value=65 time=0
8.370 seconds: control_change channel=1 control=35 value=65 time=0
8.376 seconds: control_change channel=1 control=35 value=65 time=0
8.376 seconds: control_change channel=1 control=35 value=65 time=0
8.383 seconds: control_change channel=1 control=35 value=65 time=0
8.383 seconds: control_change channel=1 control=35 value=65 time=0
8.384 seconds: control_change channel=1 control=35 value=65 time=0
8.392 seconds: control_change channel=1 control=35 value=65 time=0
8.393 seconds: control_change channel=1 control=35 value=65 time=0
8.393 seconds: control_change channel=1 control=35 value=65 time=0
8.399 seconds: control_change channel=1 control=35 value=65 time=0
8.399 seconds: control_change channel=1 control=35 value=65 time=0
8.406 seconds: control_change channel=1 control=35 value=65 time=0
8.407 seconds: control_change channel=1 control=35 value=65 time=0
8.407 seconds: control_change channel=1 control=35 value=65 time=0
8.415 seconds: control_change channel=1 control=35 value=65 time=0
8.415 seconds: control_change channel=1 control=35 value=65 time=0
8.415 seconds: control_change channel=1 control=35 value=65 time=0
8.422 seconds: control_change channel=1 control=35 value=65 time=0
8.423 seconds: control_change channel=1 control=35 value=65 time=0
8.429 seconds: control_change channel=1 control=35 value=65 time=0
8.429 seconds: control_change channel=1 control=35 value=65 time=0
8.436 seconds: control_change channel=1 control=35 value=65 time=0
8.436 seconds: control_change channel=1 control=35 value=65 time=0
8.442 seconds: control_change channel=1 control=35 value=65 time=0
8.442 seconds: control_change channel=1 control=35 value=65 time=0
8.443 seconds: control_change channel=1 control=35 value=65 time=0
8.452 seconds: control_change channel=1 control=35 value=65 time=0
8.453 seconds: control_change channel=1 control=35 value=65 time=0
8.453 seconds: control_change channel=1 control=35 value=65 time=0
8.461 seconds: control_change channel=1 control=35 value=65 time=0
8.462 seconds: control_change channel=1 control=35 value=65 time=0
8.470 seconds: control_change channel=1 control=35 value=65 time=0
8.470 seconds: control_change channel=1 control=35 value=65 time=0
8.475 seconds: control_change channel=1 control=35 value=65 time=0
8.475 seconds: control_change channel=1 control=35 value=65 time=0
8.488 seconds: control_change channel=1 control=35 value=65 time=0
8.489 seconds: control_change channel=1 control=35 value=65 time=0
8.489 seconds: control_change channel=1 control=35 value=65 time=0
8.496 seconds: control_change channel=1 control=35 value=65 time=0
8.497 seconds: control_change channel=1 control=35 value=65 time=0
8.504 seconds: control_change channel=1 control=35 value=65 time=0
8.504 seconds: control_change channel=1 control=35 value=65 time=0
8.514 seconds: control_change channel=1 control=35 value=65 time=0
8.514 seconds: control_change channel=1 control=35 value=65 time=0
8.521 seconds: control_change channel=1 control=35 value=65 time=0
8.526 seconds: control_change channel=1 control=35 value=65 time=0
8.533 seconds: control_change channel=1 control=35 value=65 time=0
8.534 seconds: control_change channel=1 control=35 value=65 time=0
8.541 seconds: control_change channel=1 control=35 value=65 time=0
8.542 seconds: control_change channel=1 control=35 value=65 time=0
8.555 seconds: control_change channel=1 control=35 value=65 time=0
8.555 seconds: control_change channel=1 control=35 value=65 time=0
8.563 seconds: control_change channel=1 control=35 value=65 time=0
8.569 seconds: control_change channel=1 control=35 value=65 time=0
8.577 seconds: control_change channel=1 control=35 value=65 time=0
8.577 seconds: control_change channel=1 control=35 value=65 time=0
8.586 seconds: control_change channel=1 control=35 value=65 time=0
8.592 seconds: control_change channel=1 control=35 value=65 time=0
8.601 seconds: control_change channel=1 control=35 value=65 time=0
8.601 seconds: control_change channel=1 control=35 value=65 time=0
8.611 seconds: control_change channel=1 control=35 value=65 time=0
8.619 seconds: control_change channel=1 control=35 value=65 time=0
8.631 seconds: control_change channel=1 control=35 value=65 time=0
8.638 seconds: control_change channel=1 control=35 value=65 time=0
8.644 seconds: control_change channel=1 control=35 value=65 time=0
8.655 seconds: control_change channel=1 control=35 value=65 time=0
8.669 seconds: control_change channel=1 control=35 value=65 time=0
8.677 seconds: control_change channel=1 control=35 value=65 time=0
8.683 seconds: control_change channel=1 control=35 value=65 time=0
8.693 seconds: control_change channel=1 control=35 value=65 time=0
8.706 seconds: control_change channel=1 control=35 value=65 time=0
8.713 seconds: control_change channel=1 control=35 value=65 time=0
8.720 seconds: control_change channel=1 control=35 value=65 time=0
8.728 seconds: control_change channel=1 control=35 value=65 time=0
8.740 seconds: control_change channel=1 control=35 value=65 time=0
8.747 seconds: control_change channel=1 control=35 value=65 time=0
8.747 seconds: control_change channel=1 control=35 value=65 time=0
8.760 seconds: control_change channel=1 control=35 value=65 time=0
8.772 seconds: control_change channel=1 control=35 value=65 time=0
8.778 seconds: control_change channel=1 control=35 value=65 time=0
8.778 seconds: control_change channel=1 control=35 value=65 time=0
8.791 seconds: control_change channel=1 control=35 value=65 time=0
8.802 seconds: control_change channel=1 control=35 value=65 time=0
8.808 seconds: control_change channel=1 control=35 value=65 time=0
8.814 seconds: control_change channel=1 control=35 value=65 time=0
8.823 seconds: control_change channel=1 control=35 value=65 time=0
8.837 seconds: control_change channel=1 control=35 value=65 time=0
8.844 seconds: control_change channel=1 control=35 value=65 time=0
8.852 seconds: control_change channel=1 control=35 value=65 time=0
8.863 seconds: control_change channel=1 control=35 value=65 time=0
8.878 seconds: control_change channel=1 control=35 value=65 time=0
8.886 seconds: control_change channel=1 control=35 value=65 time=0
8.893 seconds: control_change channel=1 control=35 value=65 time=0
8.903 seconds: control_change channel=1 control=35 value=65 time=0
8.917 seconds: control_change channel=1 control=35 value=65 time=0
8.925 seconds: control_change channel=1 control=35 value=65 time=0
8.931 seconds: control_change channel=1 control=35 value=65 time=0
8.942 seconds: control_change channel=1 control=35 value=65 time=0
8.957 seconds: control_change channel=1 control=35 value=65 time=0
8.968 seconds: control_change channel=1 control=35 value=65 time=0
8.977 seconds: control_change channel=1 control=35 value=65 time=0
8.991 seconds: control_change channel=1 control=35 value=65 time=0
9.020 seconds: control_change channel=1 control=35 value=65 time=0
9.033 seconds: control_change channel=1 control=35 value=65 time=0
9.045 seconds: control_change channel=1 control=35 value=65 time=0
9.061 seconds: control_change channel=1 control=35 value=65 time=0
9.078 seconds: control_change channel=1 control=35 value=65 time=0
9.088 seconds: control_change channel=1 control=35 value=65 time=0
9.097 seconds: control_change channel=1 control=35 value=65 time=0
9.110 seconds: control_change channel=1 control=35 value=65 time=0
9.128 seconds: control_change channel=1 control=35 value=65 time=0
9.141 seconds: control_change channel=1 control=35 value=65 time=0
9.151 seconds: control_change channel=1 control=35 value=65 time=0
9.165 seconds: control_change channel=1 control=35 value=65 time=0
9.182 seconds: control_change channel=1 control=35 value=65 time=0
9.195 seconds: control_change channel=1 control=35 value=65 time=0
9.207 seconds: control_change channel=1 control=35 value=65 time=0
9.228 seconds: control_change channel=1 control=35 value=65 time=0
9.256 seconds: control_change channel=1 control=35 value=65 time=0
9.270 seconds: control_change channel=1 control=35 value=65 time=0
9.281 seconds: control_change channel=1 control=35 value=65 time=0
9.297 seconds: control_change channel=1 control=35 value=65 time=0
9.317 seconds: control_change channel=1 control=35 value=65 time=0
9.330 seconds: control_change channel=1 control=35 value=65 time=0
9.342 seconds: control_change channel=1 control=35 value=65 time=0
9.357 seconds: control_change channel=1 control=35 value=65 time=0
9.379 seconds: control_change channel=1 control=35 value=65 time=0
9.393 seconds: control_change channel=1 control=35 value=65 time=0
9.407 seconds: control_change channel=1 control=35 value=65 time=0
9.424 seconds: control_change channel=1 control=35 value=65 time=0
9.445 seconds: control_change channel=1 control=35 value=65 time=0
9.456 seconds: control_change channel=1 control=35 value=65 time=0
9.465 seconds: control_change channel=1 control=35 value=65 time=0
9.477 seconds: control_change channel=1 control=35 value=65 time=0
9.493 seconds: control_change channel=1 control=35 value=65 time=0
9.502 seconds: control_change channel=1 control=35 value=65 time=0
9.508 seconds: control_change channel=1 control=35 value=65 time=0
9.518 seconds: control_change channel=1 control=35 value=65 time=0
9.529 seconds: control_change channel=1 control=35 value=65 time=0
9.536 seconds: control_change channel=1 control=35 value=65 time=0
9.542 seconds: control_change channel=1 control=35 value=65 time=0
9.550 seconds: control_change channel=1 control=35 value=65 time=0
9.562 seconds: control_change channel=1 control=35 value=65 time=0
9.568 seconds: control_change channel=1 control=35 value=65 time=0
9.574 seconds: control_change channel=1 control=35 value=65 time=0
9.580 seconds: control_change channel=1 control=35 value=65 time=0
9.590 seconds: control_change channel=1 control=35 value=65 time=0
9.601 seconds: control_change channel=1 control=35 value=65 time=0
9.601 seconds: control_change channel=1 control=35 value=65 time=0
9.608 seconds: control_change channel=1 control=35 value=65 time=0
9.619 seconds: control_change channel=1 control=35 value=65 time=0
9.624 seconds: control_change channel=1 control=35 value=65 time=0
9.624 seconds: control_change channel=1 control=35 value=65 time=0
9.635 seconds: control_change channel=1 control=35 value=65 time=0
9.644 seconds: control_change channel=1 control=35 value=65 time=0
9.650 seconds: control_change channel=1 control=35 value=65 time=0
9.650 seconds: control_change channel=1 control=35 value=65 time=0
9.662 seconds: control_change channel=1 control=35 value=65 time=0
9.672 seconds: control_change channel=1 control=35 value=65 time=0
9.683 seconds: control_change channel=1 control=35 value=65 time=0
9.683 seconds: control_change channel=1 control=35 value=65 time=0
9.690 seconds: control_change channel=1 control=35 value=65 time=0
9.698 seconds: control_change channel=1 control=35 value=65 time=0
9.704 seconds: control_change channel=1 control=35 value=65 time=0
9.712 seconds: control_change channel=1 control=35 value=65 time=0
9.712 seconds: control_change channel=1 control=35 value=65 time=0
9.725 seconds: control_change channel=1 control=35 value=65 time=0
9.725 seconds: control_change channel=1 control=35 value=65 time=0
9.734 seconds: control_change channel=1 control=35 value=65 time=0
9.740 seconds: control_change channel=1 control=35 value=65 time=0
9.749 seconds: control_change channel=1 control=35 value=65 time=0
9.749 seconds: control_change channel=1 control=35 value=65 time=0
9.759 seconds: control_change channel=1 control=35 value=65 time=0
9.765 seconds: control_change channel=1 control=35 value=65 time=0
9.776 seconds: control_change channel=1 control=35 value=65 time=0
9.776 seconds: control_change channel=1 control=35 value=65 time=0
9.791 seconds: control_change channel=1 control=35 value=65 time=0
9.791 seconds: control_change channel=1 control=35 value=65 time=0
9.805 seconds: control_change channel=1 control=35 value=65 time=0
9.805 seconds: control_change channel=1 control=35 value=65 time=0
9.815 seconds: control_change channel=1 control=35 value=65 time=0
9.823 seconds: control_change channel=1 control=35 value=65 time=0
9.834 seconds: control_change channel=1 control=35 value=65 time=0
9.841 seconds: control_change channel=1 control=35 value=65 time=0
9.841 seconds: control_change channel=1 control=35 value=65 time=0
9.853 seconds: control_change channel=1 control=35 value=65 time=0
9.863 seconds: control_change channel=1 control=35 value=65 time=0
9.863 seconds: control_change channel=1 control=35 value=65 time=0
9.874 seconds: control_change channel=1 control=35 value=65 time=0
9.880 seconds: control_change channel=1 control=35 value=65 time=0
9.890 seconds: control_change channel=1 control=35 value=65 time=0
9.897 seconds: control_change channel=1 control=35 value=65 time=0
9.898 seconds: control_change channel=1 control=35 value=65 time=0
9.907 seconds: control_change channel=1 control=35 value=65 time=0
9.915 seconds: control_change channel=1 control=35 value=65 time=0
9.921 seconds: control_change channel=1 control=35 value=65 time=0
9.921 seconds: control_change channel=1 control=35 value=65 time=0
9.932 seconds: control_change channel=1 control=35 value=65 time=0
9.943 seconds: control_change channel=1 control=35 value=65 time=0
9.948 seconds: control_change channel=1 control=35 value=65 time=0
9.949 seconds: control_change channel=1 control=35 value=65 time=0
9.961 seconds: control_change channel=1 control=35 value=65 time=0
9.971 seconds: control_change channel=1 control=35 value=65 time=0
9.977 seconds: control_change channel=1 control=35 value=65 time=0
9.983 seconds: control_change channel=1 control=35 value=65 time=0
9.992 seconds: control_change channel=1 control=35 value=65 time=0
10.005 seconds: control_change channel=1 control=35 value=65 time=0
10.011 seconds: control_change channel=1 control=35 value=65 time=0
10.017 seconds: control_change channel=1 control=35 value=65 time=0
10.024 seconds: control_change channel=1 control=35 value=65 time=0
10.035 seconds: control_change channel=1 control=35 value=65 time=0
10.035 seconds: control_change channel=1 control=35 value=65 time=0
10.045 seconds: control_change channel=1 control=35 value=65 time=0
10.052 seconds: control_change channel=1 control=35 value=65 time=0
10.063 seconds: control_change channel=1 control=35 value=65 time=0
10.069 seconds: control_change channel=1 control=35 value=65 time=0
10.069 seconds: control_change channel=1 control=35 value=65 time=0
10.083 seconds: control_change channel=1 control=35 value=65 time=0
10.093 seconds: control_change channel=1 control=35 value=65 time=0
10.100 seconds: control_change channel=1 control=35 value=65 time=0
10.107 seconds: control_change channel=1 control=35 value=65 time=0
10.117 seconds: control_change channel=1 control=35 value=65 time=0
10.132 seconds: control_change channel=1 control=35 value=65 time=0
10.141 seconds: control_change channel=1 control=35 value=65 time=0
10.149 seconds: control_change channel=1 control=35 value=65 time=0
10.160 seconds: control_change channel=1 control=35 value=65 time=0
10.176 seconds: control_change channel=1 control=35 value=65 time=0
10.182 seconds: control_change channel=1 control=35 value=65 time=0
10.189 seconds: control_change channel=1 control=35 value=65 time=0
10.199 seconds: control_change channel=1 control=35 value=65 time=0
10.214 seconds: control_change channel=1 control=35 value=65 time=0
10.222 seconds: control_change channel=1 control=35 value=65 time=0
10.228 seconds: control_change channel=1 control=35 value=65 time=0
10.238 seconds: control_change channel=1 control=35 value=65 time=0
10.251 seconds: control_change channel=1 control=35 value=65 time=0
10.269 seconds: control_change channel=1 control=35 value=65 time=0
10.269 seconds: control_change channel=1 control=35 value=65 time=0
10.280 seconds: control_change channel=1 control=35 value=65 time=0
10.297 seconds: control_change channel=1 control=35 value=65 time=0
10.306 seconds: control_change channel=1 control=35 value=65 time=0
10.314 seconds: control_change channel=1 control=35 value=65 time=0
10.327 seconds: control_change channel=1 control=35 value=65 time=0
10.344 seconds: control_change channel=1 control=35 value=65 time=0
10.355 seconds: control_change channel=1 control=35 value=65 time=0
10.365 seconds: control_change channel=1 control=35 value=65 time=0
10.380 seconds: control_change channel=1 control=35 value=65 time=0
10.405 seconds: control_change channel=1 control=35 value=65 time=0
10.421 seconds: control_change channel=1 control=35 value=65 time=0
10.436 seconds: control_change channel=1 control=35 value=65 time=0
10.471 seconds: control_change channel=1 control=35 value=65 time=0
10.580 seconds: control_change channel=1 control=35 value=63 time=0
10.655 seconds: control_change channel=1 control=35 value=63 time=0
10.688 seconds: control_change channel=1 control=35 value=63 time=0
10.741 seconds: control_change channel=1 control=35 value=63 time=0
10.899 seconds: control_change channel=1 control=35 value=63 time=0
10.983 seconds: control_change channel=1 control=35 value=63 time=0
11.009 seconds: control_change channel=1 control=35 value=63 time=0
11.032 seconds: control_change channel=1 control=35 value=63 time=0
11.058 seconds: control_change channel=1 control=35 value=63 time=0
11.075 seconds: control_change channel=1 control=35 value=63 time=0
11.085 seconds: control_change channel=1 control=35 value=63 time=0
11.097 seconds: control_change channel=1 control=35 value=63 time=0
11.117 seconds: control_change channel=1 control=35 value=63 time=0
11.130 seconds: control_change channel=1 control=35 value=63 time=0
11.138 seconds: control_change channel=1 control=35 value=63 time=0
11.147 seconds: control_change channel=1 control=35 value=63 time=0
11.159 seconds: control_change channel=1 control=35 value=63 time=0
11.169 seconds: control_change channel=1 control=35 value=63 time=0
11.176 seconds: control_change channel=1 control=35 value=63 time=0
11.183 seconds: control_change channel=1 control=35 value=63 time=0
11.197 seconds: control_change channel=1 control=35 value=63 time=0
11.207 seconds: control_change channel=1 control=35 value=63 time=0
11.214 seconds: control_change channel=1 control=35 value=63 time=0
11.222 seconds: control_change channel=1 control=35 value=63 time=0
11.234 seconds: control_change channel=1 control=35 value=63 time=0
11.245 seconds: control_change channel=1 control=35 value=63 time=0
11.251 seconds: control_change channel=1 control=35 value=63 time=0
11.259 seconds: control_change channel=1 control=35 value=63 time=0
11.272 seconds: control_change channel=1 control=35 value=63 time=0
11.282 seconds: control_change channel=1 control=35 value=63 time=0
11.288 seconds: control_change channel=1 control=35 value=63 time=0
11.295 seconds: control_change channel=1 control=35 value=63 time=0
11.307 seconds: control_change channel=1 control=35 value=63 time=0
11.316 seconds: control_change channel=1 control=35 value=63 time=0
11.322 seconds: control_change channel=1 control=35 value=63 time=0
11.329 seconds: control_change channel=1 control=35 value=63 time=0
11.344 seconds: control_change channel=1 control=35 value=63 time=0
11.353 seconds: control_change channel=1 control=35 value=63 time=0
11.360 seconds: control_change channel=1 control=35 value=63 time=0
11.368 seconds: control_change channel=1 control=35 value=63 time=0
11.380 seconds: control_change channel=1 control=35 value=63 time=0
11.390 seconds: control_change channel=1 control=35 value=63 time=0
11.397 seconds: control_change channel=1 control=35 value=63 time=0
11.405 seconds: control_change channel=1 control=35 value=63 time=0
11.420 seconds: control_change channel=1 control=35 value=63 time=0
11.429 seconds: control_change channel=1 control=35 value=63 time=0
11.435 seconds: control_change channel=1 control=35 value=63 time=0
11.443 seconds: control_change channel=1 control=35 value=63 time=0
11.454 seconds: control_change channel=1 control=35 value=63 time=0
11.462 seconds: control_change channel=1 control=35 value=63 time=0
11.469 seconds: control_change channel=1 control=35 value=63 time=0
11.477 seconds: control_change channel=1 control=35 value=63 time=0
11.494 seconds: control_change channel=1 control=35 value=63 time=0
11.506 seconds: control_change channel=1 control=35 value=63 time=0
11.515 seconds: control_change channel=1 control=35 value=63 time=0
11.524 seconds: control_change channel=1 control=35 value=63 time=0
11.537 seconds: control_change channel=1 control=35 value=63 time=0
11.546 seconds: control_change channel=1 control=35 value=63 time=0
11.552 seconds: control_change channel=1 control=35 value=63 time=0
11.559 seconds: control_change channel=1 control=35 value=63 time=0
11.571 seconds: control_change channel=1 control=35 value=63 time=0
11.578 seconds: control_change channel=1 control=35 value=63 time=0
11.589 seconds: control_change channel=1 control=35 value=63 time=0
11.589 seconds: control_change channel=1 control=35 value=63 time=0
11.602 seconds: control_change channel=1 control=35 value=63 time=0
11.611 seconds: control_change channel=1 control=35 value=63 time=0
11.618 seconds: control_change channel=1 control=35 value=63 time=0
11.626 seconds: control_change channel=1 control=35 value=63 time=0
11.641 seconds: control_change channel=1 control=35 value=63 time=0
11.651 seconds: control_change channel=1 control=35 value=63 time=0
11.658 seconds: control_change channel=1 control=35 value=63 time=0
11.665 seconds: control_change channel=1 control=35 value=63 time=0
11.676 seconds: control_change channel=1 control=35 value=63 time=0
11.685 seconds: control_change channel=1 control=35 value=63 time=0
11.691 seconds: control_change channel=1 control=35 value=63 time=0
11.698 seconds: control_change channel=1 control=35 value=63 time=0
11.711 seconds: control_change channel=1 control=35 value=63 time=0
11.720 seconds: control_change channel=1 control=35 value=63 time=0
11.728 seconds: control_change channel=1 control=35 value=63 time=0
11.736 seconds: control_change channel=1 control=35 value=63 time=0
11.750 seconds: control_change channel=1 control=35 value=63 time=0
11.760 seconds: control_change channel=1 control=35 value=63 time=0
11.769 seconds: control_change channel=1 control=35 value=63 time=0
11.778 seconds: control_change channel=1 control=35 value=63 time=0
11.797 seconds: control_change channel=1 control=35 value=63 time=0
11.808 seconds: control_change channel=1 control=35 value=63 time=0
11.816 seconds: control_change channel=1 control=35 value=63 time=0
11.826 seconds: control_change channel=1 control=35 value=63 time=0
11.838 seconds: control_change channel=1 control=35 value=63 time=0
11.848 seconds: control_change channel=1 control=35 value=63 time=0
11.854 seconds: control_change channel=1 control=35 value=63 time=0
11.863 seconds: control_change channel=1 control=35 value=63 time=0
11.878 seconds: control_change channel=1 control=35 value=63 time=0
11.888 seconds: control_change channel=1 control=35 value=63 time=0
11.896 seconds: control_change channel=1 control=35 value=63 time=0
11.906 seconds: control_change channel=1 control=35 value=63 time=0
11.922 seconds: control_change channel=1 control=35 value=63 time=0
11.934 seconds: control_change channel=1 control=35 value=63 time=0
11.943 seconds: control_change channel=1 control=35 value=63 time=0
11.954 seconds: control_change channel=1 control=35 value=63 time=0
11.976 seconds: control_change channel=1 control=35 value=63 time=0
11.993 seconds: control_change channel=1 control=35 value=63 time=0
12.009 seconds: control_change channel=1 control=35 value=63 time=0
12.034 seconds: control_change channel=1 control=35 value=63 time=0
12.106 seconds: control_change channel=1 control=35 value=63 time=0
12.243 seconds: control_change channel=1 control=35 value=63 time=0
12.270 seconds: control_change channel=1 control=35 value=63 time=0
12.292 seconds: control_change channel=1 control=35 value=63 time=0
15.007 seconds: control_change channel=1 control=33 value=65 time=0
15.019 seconds: control_change channel=1 control=33 value=65 time=0
15.029 seconds: control_change channel=1 control=33 value=65 time=0
15.041 seconds: control_change channel=1 control=33 value=65 time=0
15.103 seconds: control_change channel=1 control=35 value=63 time=0
15.115 seconds: control_change channel=1 control=35 value=63 time=0
15.122 seconds: control_change channel=1 control=35 value=63 time=0
15.129 seconds: control_change channel=1 control=35 value=63 time=0
15.140 seconds: control_change channel=1 control=35 value=63 time=0
15.147 seconds: control_change channel=1 control=35 value=63 time=0
15.147 seconds: control_change channel=1 control=35 value=63 time=0
15.156 seconds: control_change channel=1 control=35 value=63 time=0
15.164 seconds: control_change channel=1 control=35 value=63 time=0
15.171 seconds: control_change channel=1 control=35 value=63 time=0
15.171 seconds: control_change channel=1 control=35 value=63 time=0
15.180 seconds: control_change channel=1 control=35 value=63 time=0
15.189 seconds: control_change channel=1 control=35 value=63 time=0
15.195 seconds: control_change channel=1 control=35 value=63 time=0
15.195 seconds: control_change channel=1 control=35 value=63 time=0
15.204 seconds: control_change channel=1 control=35 value=63 time=0
15.212 seconds: control_change channel=1 control=35 value=63 time=0
15.212 seconds: control_change channel=1 control=35 value=63 time=0
15.221 seconds: control_change channel=1 control=35 value=63 time=0
15.221 seconds: control_change channel=1 control=35 value=63 time=0
15.232 seconds: control_change channel=1 control=35 value=63 time=0
15.232 seconds: control_change channel=1 control=35 value=63 time=0
15.241 seconds: control_change channel=1 control=35 value=63 time=0
15.241 seconds: control_change channel=1 control=35 value=63 time=0
15.252 seconds: control_change channel=1 control=35 value=63 time=0
15.252 seconds: control_change channel=1 control=35 value=63 time=0
15.261 seconds: control_change channel=1 control=35 value=63 time=0
15.261 seconds: control_change channel=1 control=35 value=63 time=0
15.274 seconds: control_change channel=1 control=35 value=63 time=0
15.280 seconds: control_change channel=1 control=35 value=63 time=0
15.285 seconds: control_change channel=1 control=35 value=63 time=0
15.285 seconds: control_change channel=1 control=35 value=63 time=0
15.297 seconds: control_change channel=1 control=35 value=63 time=0
15.305 seconds: control_change channel=1 control=35 value=63 time=0
15.305 seconds: control_change channel=1 control=35 value=63 time=0
15.317 seconds: control_change channel=1 control=35 value=63 time=0
15.328 seconds: control_change channel=1 control=35 value=63 time=0
15.335 seconds: control_change channel=1 control=35 value=63 time=0
15.335 seconds: control_change channel=1 control=35 value=63 time=0
15.347 seconds: control_change channel=1 control=35 value=63 time=0
15.356 seconds: control_change channel=1 control=35 value=63 time=0
15.362 seconds: control_change channel=1 control=35 value=63 time=0
15.362 seconds: control_change channel=1 control=35 value=63 time=0
15.372 seconds: control_change channel=1 control=35 value=63 time=0
15.380 seconds: control_change channel=1 control=35 value=63 time=0
15.386 seconds: control_change channel=1 control=35 value=63 time=0
15.386 seconds: control_change channel=1 control=35 value=63 time=0
15.395 seconds: control_change channel=1 control=35 value=63 time=0
15.403 seconds: control_change channel=1 control=35 value=63 time=0
15.409 seconds: control_change channel=1 control=35 value=63 time=0
15.409 seconds: control_change channel=1 control=35 value=63 time=0
15.418 seconds: control_change channel=1 control=35 value=63 time=0
15.428 seconds: control_change channel=1 control=35 value=63 time=0
15.435 seconds: control_change channel=1 control=35 value=63 time=0
15.435 seconds: control_change channel=1 control=35 value=63 time=0
15.445 seconds: control_change channel=1 control=35 value=63 time=0
15.454 seconds: control_change channel=1 control=35 value=63 time=0
15.461 seconds: control_change channel=1 control=35 value=63 time=0
15.461 seconds: control_change channel=1 control=35 value=63 time=0
15.472 seconds: control_change channel=1 control=35 value=63 time=0
15.481 seconds: control_change channel=1 control=35 value=63 time=0
15.488 seconds: control_change channel=1 control=35 value=63 time=0
15.488 seconds: control_change channel=1 control=35 value=63 time=0
15.499 seconds: control_change channel=1 control=35 value=63 time=0
15.510 seconds: control_change channel=1 control=35 value=63 time=0
15.517 seconds: control_change channel=1 control=35 value=63 time=0
15.523 seconds: control_change channel=1 control=35 value=63 time=0
15.530 seconds: control_change channel=1 control=35 value=63 time=0
15.543 seconds: control_change channel=1 control=35 value=63 time=0
15.551 seconds: control_change channel=1 control=35 value=63 time=0
15.551 seconds: control_change channel=1 control=35 value=63 time=0
15.562 seconds: control_change channel=1 control=35 value=63 time=0
15.572 seconds: control_change channel=1 control=35 value=63 time=0
15.578 seconds: control_change channel=1 control=35 value=63 time=0
15.578 seconds: control_change channel=1 control=35 value=63 time=0
15.588 seconds: control_change channel=1 control=35 value=63 time=0
15.596 seconds: control_change channel=1 control=35 value=63 time=0
15.602 seconds: control_change channel=1 control=35 value=63 time=0
15.602 seconds: control_change channel=1 control=35 value=63 time=0
15.611 seconds: control_change channel=1 control=35 value=63 time=0
15.620 seconds: control_change channel=1 control=35 value=63 time=0
15.626 seconds: control_change channel=1 control=35 value=63 time=0
15.626 seconds: control_change channel=1 control=35 value=63 time=0
15.635 seconds: control_change channel=1 control=35 value=63 time=0
15.644 seconds: control_change channel=1 control=35 value=63 time=0
15.651 seconds: control_change channel=1 control=35 value=63 time=0
15.651 seconds: control_change channel=1 control=35 value=63 time=0
15.660 seconds: control_change channel=1 control=35 value=63 time=0
15.668 seconds: control_change channel=1 control=35 value=63 time=0
15.675 seconds: control_change channel=1 control=35 value=63 time=0
15.675 seconds: control_change channel=1 control=35 value=63 time=0
15.683 seconds: control_change channel=1 control=35 value=63 time=0
15.691 seconds: control_change channel=1 control=35 value=63 time=0
15.701 seconds: control_change channel=1 control=35 value=63 time=0
15.701 seconds: control_change channel=1 control=35 value=63 time=0
15.701 seconds: control_change channel=1 control=35 value=63 time=0
15.710 seconds: control_change channel=1 control=35 value=63 time=0
15.720 seconds: control_change channel=1 control=35 value=63 time=0
15.720 seconds: control_change channel=1 control=35 value=63 time=0
15.720 seconds: control_change channel=1 control=35 value=63 time=0
15.728 seconds: control_change channel=1 control=35 value=63 time=0
15.739 seconds: control_change channel=1 control=35 value=63 time=0
15.739 seconds: control_change channel=1 control=35 value=63 time=0
15.739 seconds: control_change channel=1 control=35 value=63 time=0
15.747 seconds: control_change channel=1 control=35 value=63 time=0
15.747 seconds: control_change channel=1 control=35 value=63 time=0
15.756 seconds: control_change channel=1 control=35 value=63 time=0
15.756 seconds: control_change channel=1 control=35 value=63 time=0
15.770 seconds: control_change channel=1 control=35 value=63 time=0
15.778 seconds: control_change channel=1 control=35 value=63 time=0
15.778 seconds: control_change channel=1 control=35 value=63 time=0
15.788 seconds: control_change channel=1 control=35 value=63 time=0
15.800 seconds: control_change channel=1 control=35 value=63 time=0
15.809 seconds: control_change channel=1 control=35 value=63 time=0
15.815 seconds: control_change channel=1 control=35 value=63 time=0
15.815 seconds: control_change channel=1 control=35 value=63 time=0
15.832 seconds: control_change channel=1 control=35 value=63 time=0
15.839 seconds: control_change channel=1 control=35 value=63 time=0
15.839 seconds: control_change channel=1 control=35 value=63 time=0
15.849 seconds: control_change channel=1 control=35 value=63 time=0
15.860 seconds: control_change channel=1 control=35 value=63 time=0
15.867 seconds: control_change channel=1 control=35 value=63 time=0
15.867 seconds: control_change channel=1 control=35 value=63 time=0
15.878 seconds: control_change channel=1 control=35 value=63 time=0
15.889 seconds: control_change channel=1 control=35 value=63 time=0
15.896 seconds: control_change channel=1 control=35 value=63 time=0
15.896 seconds: control_change channel=1 control=35 value=63 time=0
15.907 seconds: control_change channel=1 control=35 value=63 time=0
15.918 seconds: control_change channel=1 control=35 value=63 time=0
15.926 seconds: control_change channel=1 control=35 value=63 time=0
15.926 seconds: control_change channel=1 control=35 value=63 time=0
15.937 seconds: control_change channel=1 control=35 value=63 time=0
15.948 seconds: control_change channel=1 control=35 value=63 time=0
15.955 seconds: control_change channel=1 control=35 value=63 time=0
15.955 seconds: control_change channel=1 control=35 value=63 time=0
15.966 seconds: control_change channel=1 control=35 value=63 time=0
15.976 seconds: control_change channel=1 control=35 value=63 time=0
15.982 seconds: control_change channel=1 control=35 value=63 time=0
15.982 seconds: control_change channel=1 control=35 value=63 time=0
15.992 seconds: control_change channel=1 control=35 value=63 time=0
16.001 seconds: control_change channel=1 control=35 value=63 time=0
16.008 seconds: control_change channel=1 control=35 value=63 time=0
16.009 seconds: control_change channel=1 control=35 value=63 time=0
16.017 seconds: control_change channel=1 control=35 value=63 time=0
16.029 seconds: control_change channel=1 control=35 value=63 time=0
16.034 seconds: control_change channel=1 control=35 value=63 time=0
16.034 seconds: control_change channel=1 control=35 value=63 time=0
16.045 seconds: control_change channel=1 control=35 value=63 time=0
16.056 seconds: control_change channel=1 control=35 value=63 time=0
16.064 seconds: control_change channel=1 control=35 value=63 time=0
16.071 seconds: control_change channel=1 control=35 value=63 time=0
16.078 seconds: control_change channel=1 control=35 value=63 time=0
16.091 seconds: control_change channel=1 control=35 value=63 time=0
16.100 seconds: control_change channel=1 control=35 value=63 time=0
16.107 seconds: control_change channel=1 control=35 value=63 time=0
16.119 seconds: control_change channel=1 control=35 value=63 time=0
16.126 seconds: control_change channel=1 control=35 value=63 time=0
16.134 seconds: control_change channel=1 control=35 value=63 time=0
16.140 seconds: control_change channel=1 control=35 value=63 time=0
16.146 seconds: control_change channel=1 control=35 value=63 time=0
16.158 seconds: control_change channel=1 control=35 value=63 time=0
16.167 seconds: control_change channel=1 control=35 value=63 time=0
16.172 seconds: control_change channel=1 control=35 value=63 time=0
16.178 seconds: control_change channel=1 control=35 value=63 time=0
16.188 seconds: control_change channel=1 control=35 value=63 time=0
16.196 seconds: control_change channel=1 control=35 value=63 time=0
16.196 seconds: control_change channel=1 control=35 value=63 time=0
16.207 seconds: control_change channel=1 control=35 value=63 time=0
16.218 seconds: control_change channel=1 control=35 value=63 time=0
16.226 seconds: control_change channel=1 control=35 value=63 time=0
16.232 seconds: control_change channel=1 control=35 value=63 time=0
16.238 seconds: control_change channel=1 control=35 value=63 time=0
16.250 seconds: control_change channel=1 control=35 value=63 time=0
16.257 seconds: control_change channel=1 control=35 value=63 time=0
16.263 seconds: control_change channel=1 control=35 value=63 time=0
16.269 seconds: control_change channel=1 control=35 value=63 time=0
16.279 seconds: control_change channel=1 control=35 value=63 time=0
16.286 seconds: control_change channel=1 control=35 value=63 time=0
16.292 seconds: control_change channel=1 control=35 value=63 time=0
16.298 seconds: control_change channel=1 control=35 value=63 time=0
16.308 seconds: control_change channel=1 control=35 value=63 time=0
16.314 seconds: control_change channel=1 control=35 value=63 time=0
16.320 seconds: control_change channel=1 control=35 value=63 time=0
16.321 seconds: control_change channel=1 control=35 value=63 time=0
16.337 seconds: control_change channel=1 control=35 value=63 time=0
16.344 seconds: control_change channel=1 control=35 value=63 time=0
16.345 seconds: control_change channel=1 control=35 value=63 time=0
16.355 seconds: control_change channel=1 control=35 value=63 time=0
16.367 seconds: control_change channel=1 control=35 value=63 time=0
16.376 seconds: control_change channel=1 control=35 value=63 time=0
16.381 seconds: control_change channel=1 control=35 value=63 time=0
16.387 seconds: control_change channel=1 control=35 value=63 time=0
16.401 seconds: control_change channel=1 control=35 value=63 time=0
16.412 seconds: control_change channel=1 control=35 value=63 time=0
16.423 seconds: control_change channel=1 control=35 value=63 time=0
16.439 seconds: control_change channel=1 control=35 value=63 time=0
16.529 seconds: control_change channel=1 control=35 value=65 time=0
16.552 seconds: control_change channel=1 control=35 value=65 time=0
16.568 seconds: control_change channel=1 control=35 value=65 time=0
16.587 seconds: control_change channel=1 control=35 value=65 time=0
16.607 seconds: control_change channel=1 control=35 value=65 time=0
16.618 seconds: control_change channel=1 control=35 value=65 time=0
16.627 seconds: control_change channel=1 control=35 value=65 time=0
16.642 seconds: control_change channel=1 control=35 value=65 time=0
16.660 seconds: control_change channel=1 control=35 value=65 time=0
16.671 seconds: control_change channel=1 control=35 value=65 time=0
16.680 seconds: control_change channel=1 control=35 value=65 time=0
16.692 seconds: control_change channel=1 control=35 value=65 time=0
16.705 seconds: control_change channel=1 control=35 value=65 time=0
16.712 seconds: control_change channel=1 control=35 value=65 time=0
16.718 seconds: control_change channel=1 control=35 value=65 time=0
16.726 seconds: control_change channel=1 control=35 value=65 time=0
16.736 seconds: control_change channel=1 control=35 value=65 time=0
16.743 seconds: control_change channel=1 control=35 value=65 time=0
16.743 seconds: control_change channel=1 control=35 value=65 time=0
16.756 seconds: control_change channel=1 control=35 value=65 time=0
16.766 seconds: control_change channel=1 control=35 value=65 time=0
16.773 seconds: control_change channel=1 control=35 value=65 time=0
16.773 seconds: control_change channel=1 control=35 value=65 time=0
16.784 seconds: control_change channel=1 control=35 value=65 time=0
16.793 seconds: control_change channel=1 control=35 value=65 time=0
16.793 seconds: control_change channel=1 control=35 value=65 time=0
16.803 seconds: control_change channel=1 control=35 value=65 time=0
16.809 seconds: control_change channel=1 control=35 value=65 time=0
16.819 seconds: control_change channel=1 control=35 value=65 time=0
16.819 seconds: control_change channel=1 control=35 value=65 time=0
16.829 seconds: control_change channel=1 control=35 value=65 time=0
16.838 seconds: control_change channel=1 control=35 value=65 time=0
16.854 seconds: control_change channel=1 control=35 value=65 time=0
16.872 seconds: control_change channel=1 control=35 value=65 time=0
17.291 seconds: control_change channel=1 control=35 value=65 time=0
17.311 seconds: control_change channel=1 control=35 value=65 time=0
17.327 seconds: control_change channel=1 control=35 value=65 time=0
17.333 seconds: control_change channel=1 control=35 value=65 time=0
17.339 seconds: control_change channel=1 control=35 value=65 time=0
17.345 seconds: control_change channel=1 control=35 value=65 time=0
17.353 seconds: control_change channel=1 control=35 value=65 time=0
17.353 seconds: control_change channel=1 control=35 value=65 time=0
17.360 seconds: control_change channel=1 control=35 value=65 time=0
17.360 seconds: control_change channel=1 control=35 value=65 time=0
17.370 seconds: control_change channel=1 control=35 value=65 time=0
17.370 seconds: control_change channel=1 control=35 value=65 time=0
17.376 seconds: control_change channel=1 control=35 value=65 time=0
17.376 seconds: control_change channel=1 control=35 value=65 time=0
17.383 seconds: control_change channel=1 control=35 value=65 time=0
17.383 seconds: control_change channel=1 control=35 value=65 time=0
17.383 seconds: control_change channel=1 control=35 value=65 time=0
17.391 seconds: control_change channel=1 control=35 value=65 time=0
17.391 seconds: control_change channel=1 control=35 value=65 time=0
17.397 seconds: control_change channel=1 control=35 value=65 time=0
17.397 seconds: control_change channel=1 control=35 value=65 time=0
17.397 seconds: control_change channel=1 control=35 value=65 time=0
17.405 seconds: control_change channel=1 control=35 value=65 time=0
17.405 seconds: control_change channel=1 control=35 value=65 time=0
17.405 seconds: control_change channel=1 control=35 value=65 time=0
17.412 seconds: control_change channel=1 control=35 value=65 time=0
17.412 seconds: control_change channel=1 control=35 value=65 time=0
17.418 seconds: control_change channel=1 control=35 value=65 time=0
17.418 seconds: control_change channel=1 control=35 value=65 time=0
17.423 seconds: control_change channel=1 control=35 value=65 time=0
17.424 seconds: control_change channel=1 control=35 value=65 time=0
17.424 seconds: control_change channel=1 control=35 value=65 time=0
17.430 seconds: control_change channel=1 control=35 value=65 time=0
17.430 seconds: control_change channel=1 control=35 value=65 time=0
17.436 seconds: control_change channel=1 control=35 value=65 time=0
17.436 seconds: control_change channel=1 control=35 value=65 time=0
17.436 seconds: control_change channel=1 control=35 value=65 time=0
17.442 seconds: control_change channel=1 control=35 value=65 time=0
17.442 seconds: control_change channel=1 control=35 value=65 time=0
17.448 seconds: control_change channel=1 control=35 value=65 time=0
17.448 seconds: control_change channel=1 control=35 value=65 time=0
17.448 seconds: control_change channel=1 control=35 value=65 time=0
17.456 seconds: control_change channel=1 control=35 value=65 time=0
17.456 seconds: control_change channel=1 control=35 value=65 time=0
17.456 seconds: control_change channel=1 control=35 value=65 time=0
17.462 seconds: control_change channel=1 control=35 value=65 time=0
17.462 seconds: control_change channel=1 control=35 value=65 time=0
17.462 seconds: control_change channel=1 control=35 value=65 time=0
17.469 seconds: control_change channel=1 control=35 value=65 time=0
17.469 seconds: control_change channel=1 control=35 value=65 time=0
17.475 seconds: control_change channel=1 control=35 value=65 time=0
17.475 seconds: control_change channel=1 control=35 value=65 time=0
17.475 seconds: control_change channel=1 control=35 value=65 time=0
17.481 seconds: control_change channel=1 control=35 value=65 time=0
17.481 seconds: control_change channel=1 control=35 value=65 time=0
17.487 seconds: control_change channel=1 control=35 value=65 time=0
17.487 seconds: control_change channel=1 control=35 value=65 time=0
17.487 seconds: control_change channel=1 control=35 value=65 time=0
17.495 seconds: control_change channel=1 control=35 value=65 time=0
17.495 seconds: control_change channel=1 control=35 value=65 time=0
17.495 seconds: control_change channel=1 control=35 value=65 time=0
17.501 seconds: control_change channel=1 control=35 value=65 time=0
17.501 seconds: control_change channel=1 control=35 value=65 time=0
17.507 seconds: control_change channel=1 control=35 value=65 time=0
17.507 seconds: control_change channel=1 control=35 value=65 time=0
17.507 seconds: control_change channel=1 control=35 value=65 time=0
17.515 seconds: control_change channel=1 control=35 value=65 time=0
17.515 seconds: control_change channel=1 control=35 value=65 time=0
17.515 seconds: control_change channel=1 control=35 value=65 time=0
17.521 seconds: control_change channel=1 control=35 value=65 time=0
17.521 seconds: control_change channel=1 control=35 value=65 time=0
17.521 seconds: control_change channel=1 control=35 value=65 time=0
17.528 seconds: control_change channel=1 control=35 value=65 time=0
17.528 seconds: control_change channel=1 control=35 value=65 time=0
17.534 seconds: control_change channel=1 control=35 value=65 time=0
17.534 seconds: control_change channel=1 control=35 value=65 time=0
17.534 seconds: control_change channel=1 control=35 value=65 time=0
17.541 seconds: control_change channel=1 control=35 value=65 time=0
17.541 seconds: control_change channel=1 control=35 value=65 time=0
17.541 seconds: control_change channel=1 control=35 value=65 time=0
17.548 seconds: control_change channel=1 control=35 value=65 time=0
17.548 seconds: control_change channel=1 control=35 value=65 time=0
17.555 seconds: control_change channel=1 control=35 value=65 time=0
17.555 seconds: control_change channel=1 control=35 value=65 time=0
17.555 seconds: control_change channel=1 control=35 value=65 time=0
17.561 seconds: control_change channel=1 control=35 value=65 time=0
17.561 seconds: control_change channel=1 control=35 value=65 time=0
17.568 seconds: control_change channel=1 control=35 value=65 time=0
17.568 seconds: control_change channel=1 control=35 value=65 time=0
17.568 seconds: control_change channel=1 control=35 value=65 time=0
17.577 seconds: control_change channel=1 control=35 value=65 time=0
17.577 seconds: control_change channel=1 control=35 value=65 time=0
17.577 seconds: control_change channel=1 control=35 value=65 time=0
17.585 seconds: control_change channel=1 control=35 value=65 time=0
17.591 seconds: control_change channel=1 control=35 value=65 time=0
17.591 seconds: control_change channel=1 control=35 value=65 time=0
17.591 seconds: control_change channel=1 control=35 value=65 time=0
17.600 seconds: control_change channel=1 control=35 value=65 time=0
17.611 seconds: control_change channel=1 control=35 value=65 time=0
17.611 seconds: control_change channel=1 control=35 value=65 time=0
17.611 seconds: control_change channel=1 control=35 value=65 time=0
17.617 seconds: control_change channel=1 control=35 value=65 time=0
17.625 seconds: control_change channel=1 control=35 value=65 time=0
17.625 seconds: control_change channel=1 control=35 value=65 time=0
17.634 seconds: control_change channel=1 control=35 value=65 time=0
17.641 seconds: control_change channel=1 control=35 value=65 time=0
17.652 seconds: control_change channel=1 control=35 value=65 time=0
17.660 seconds: control_change channel=1 control=35 value=65 time=0
17.671 seconds: control_change channel=1 control=35 value=65 time=0
17.731 seconds: control_change channel=1 control=35 value=63 time=0
17.743 seconds: control_change channel=1 control=35 value=63 time=0
17.753 seconds: control_change channel=1 control=35 value=63 time=0
17.776 seconds: control_change channel=1 control=35 value=63 time=0
17.783 seconds: control_change channel=1 control=35 value=63 time=0
17.792 seconds: control_change channel=1 control=35 value=63 time=0
17.802 seconds: control_change channel=1 control=35 value=63 time=0
17.826 seconds: control_change channel=1 control=35 value=63 time=0
17.851 seconds: control_change channel=1 control=35 value=63 time=0
18.241 seconds: control_change channel=1 control=35 value=65 time=0
18.259 seconds: control_change channel=1 control=35 value=65 time=0
18.276 seconds: control_change channel=1 control=35 value=65 time=0
18.283 seconds: control_change channel=1 control=35 value=65 time=0
18.290 seconds: control_change channel=1 control=35 value=65 time=0
18.298 seconds: control_change channel=1 control=35 value=65 time=0
18.313 seconds: control_change channel=1 control=35 value=65 time=0
18.346 seconds: control_change channel=1 control=35 value=63 time=0
18.357 seconds: control_change channel=1 control=35 value=63 time=0
18.363 seconds: control_change channel=1 control=35 value=63 time=0
18.363 seconds: control_change channel=1 control=35 value=63 time=0
18.370 seconds: control_change channel=1 control=35 value=63 time=0
18.376 seconds: control_change channel=1 control=35 value=63 time=0
18.376 seconds: control_change channel=1 control=35 value=63 time=0
18.382 seconds: control_change channel=1 control=35 value=63 time=0
18.382 seconds: control_change channel=1 control=35 value=63 time=0
18.389 seconds: control_change channel=1 control=35 value=63 time=0
18.389 seconds: control_change channel=1 control=35 value=63 time=0
18.389 seconds: control_change channel=1 control=35 value=63 time=0
18.396 seconds: control_change channel=1 control=35 value=63 time=0
18.396 seconds: control_change channel=1 control=35 value=63 time=0
18.402 seconds: control_change channel=1 control=35 value=63 time=0
18.402 seconds: control_change channel=1 control=35 value=63 time=0
18.402 seconds: control_change channel=1 control=35 value=63 time=0
18.409 seconds: control_change channel=1 control=35 value=63 time=0
18.409 seconds: control_change channel=1 control=35 value=63 time=0
18.409 seconds: control_change channel=1 control=35 value=63 time=0
18.409 seconds: control_change channel=1 control=35 value=63 time=0
18.417 seconds: control_change channel=1 control=35 value=63 time=0
18.417 seconds: control_change channel=1 control=35 value=63 time=0
18.417 seconds: control_change channel=1 control=35 value=63 time=0
18.423 seconds: control_change channel=1 control=35 value=63 time=0
18.423 seconds: control_change channel=1 control=35 value=63 time=0
18.423 seconds: control_change channel=1 control=35 value=63 time=0
18.429 seconds: control_change channel=1 control=35 value=63 time=0
18.429 seconds: control_change channel=1 control=35 value=63 time=0
18.429 seconds: control_change channel=1 control=35 value=63 time=0
18.436 seconds: control_change channel=1 control=35 value=63 time=0
18.436 seconds: control_change channel=1 control=35 value=63 time=0
18.436 seconds: control_change channel=1 control=35 value=63 time=0
18.436 seconds: control_change channel=1 control=35 value=63 time=0
18.445 seconds: control_change channel=1 control=35 value=63 time=0
18.446 seconds: control_change channel=1 control=35 value=63 time=0
18.446 seconds: control_change channel=1 control=35 value=63 time=0
18.446 seconds: control_change channel=1 control=35 value=63 time=0
18.451 seconds: control_change channel=1 control=35 value=63 time=0
18.451 seconds: control_change channel=1 control=35 value=63 time=0
18.451 seconds: control_change channel=1 control=35 value=63 time=0
18.457 seconds: control_change channel=1 control=35 value=63 time=0
18.457 seconds: control_change channel=1 control=35 value=63 time=0
18.457 seconds: control_change channel=1 control=35 value=63 time=0
18.457 seconds: control_change channel=1 control=35 value=63 time=0
18.465 seconds: control_change channel=1 control=35 value=63 time=0
18.465 seconds: control_change channel=1 control=35 value=63 time=0
18.465 seconds: control_change channel=1 control=35 value=63 time=0
18.471 seconds: control_change channel=1 control=35 value=63 time=0
18.471 seconds: control_change channel=1 control=35 value=63 time=0
18.471 seconds: control_change channel=1 control=35 value=63 time=0
18.478 seconds: control_change channel=1 control=35 value=63 time=0
18.478 seconds: control_change channel=1 control=35 value=63 time=0
18.478 seconds: control_change channel=1 control=35 value=63 time=0
18.485 seconds: control_change channel=1 control=35 value=63 time=0
18.485 seconds: control_change channel=1 control=35 value=63 time=0
18.485 seconds: control_change channel=1 control=35 value=63 time=0
18.493 seconds: control_change channel=1 control=35 value=63 time=0
18.493 seconds: control_change channel=1 control=35 value=63 time=0
18.493 seconds: control_change channel=1 control=35 value=63 time=0
18.499 seconds: control_change channel=1 control=35 value=63 time=0
18.499 seconds: control_change channel=1 control=35 value=63 time=0
18.507 seconds: control_change channel=1 control=35 value=63 time=0
18.507 seconds: control_change channel=1 control=35 value=63 time=0
18.507 seconds: control_change channel=1 control=35 value=63 time=0
18.516 seconds: control_change channel=1 control=35 value=63 time=0
18.516 seconds: control_change channel=1 control=35 value=63 time=0
18.516 seconds: control_change channel=1 control=35 value=63 time=0
18.524 seconds: control_change channel=1 control=35 value=63 time=0
18.530 seconds: control_change channel=1 control=35 value=63 time=0
18.530 seconds: control_change channel=1 control=33 value=63 time=0
18.537 seconds: control_change channel=1 control=33 value=63 time=0
18.537 seconds: control_change channel=1 control=33 value=63 time=0
18.549 seconds: control_change channel=1 control=33 value=63 time=0
18.555 seconds: control_change channel=1 control=33 value=63 time=0
18.555 seconds: control_change channel=1 control=33 value=63 time=0
18.568 seconds: control_change channel=1 control=33 value=63 time=0
18.585 seconds: control_change channel=1 control=33 value=63 time=0
18.609 seconds: control_change channel=1 control=33 value=63 time=0
19.226 seconds: control_change channel=1 control=33 value=65 time=0
19.257 seconds: control_change channel=1 control=33 value=63 time=0
19.269 seconds: control_change channel=1 control=33 value=63 time=0
19.280 seconds: control_change channel=1 control=33 value=63 time=0
19.293 seconds: control_change channel=1 control=33 value=63 time=0
19.301 seconds: control_change channel=1 control=33 value=63 time=0
19.308 seconds: control_change channel=1 control=33 value=63 time=0
19.315 seconds: control_change channel=1 control=33 value=63 time=0
19.330 seconds: control_change channel=1 control=33 value=63 time=0
19.343 seconds: control_change channel=1 control=33 value=63 time=0
19.352 seconds: control_change channel=1 control=33 value=63 time=0
19.360 seconds: control_change channel=1 control=33 value=63 time=0
19.374 seconds: control_change channel=1 control=33 value=63 time=0
19.380 seconds: control_change channel=1 control=33 value=63 time=0
19.386 seconds: control_change channel=1 control=33 value=63 time=0
19.392 seconds: control_change channel=1 control=33 value=63 time=0
19.402 seconds: control_change channel=1 control=33 value=63 time=0
19.408 seconds: control_change channel=1 control=33 value=63 time=0
19.408 seconds: control_change channel=1 control=33 value=63 time=0
19.419 seconds: control_change channel=1 control=33 value=63 time=0
19.426 seconds: control_change channel=1 control=33 value=63 time=0
19.432 seconds: control_change channel=1 control=33 value=63 time=0
19.432 seconds: control_change channel=1 control=33 value=63 time=0
19.441 seconds: control_change channel=1 control=33 value=63 time=0
19.450 seconds: control_change channel=1 control=33 value=63 time=0
19.456 seconds: control_change channel=1 control=33 value=63 time=0
19.456 seconds: control_change channel=1 control=33 value=63 time=0
19.464 seconds: control_change channel=1 control=33 value=63 time=0
19.471 seconds: control_change channel=1 control=33 value=63 time=0
19.471 seconds: control_change channel=1 control=33 value=63 time=0
19.479 seconds: control_change channel=1 control=33 value=63 time=0
19.479 seconds: control_change channel=1 control=33 value=63 time=0
19.487 seconds: control_change channel=1 control=33 value=63 time=0
19.487 seconds: control_change channel=1 control=33 value=63 time=0
19.493 seconds: control_change channel=1 control=33 value=63 time=0
19.493 seconds: control_change channel=1 control=33 value=63 time=0
19.500 seconds: control_change channel=1 control=33 value=63 time=0
19.500 seconds: control_change channel=1 control=33 value=63 time=0
19.500 seconds: control_change channel=1 control=33 value=63 time=0
19.507 seconds: control_change channel=1 control=33 value=63 time=0
19.507 seconds: control_change channel=1 control=33 value=63 time=0
19.513 seconds: control_change channel=1 control=33 value=63 time=0
19.513 seconds: control_change channel=1 control=33 value=63 time=0
19.513 seconds: control_change channel=1 control=33 value=63 time=0
19.520 seconds: control_change channel=1 control=33 value=63 time=0
19.520 seconds: control_change channel=1 control=33 value=63 time=0
19.520 seconds: control_change channel=1 control=33 value=63 time=0
19.526 seconds: control_change channel=1 control=33 value=63 time=0
19.526 seconds: control_change channel=1 control=33 value=63 time=0
19.526 seconds: control_change channel=1 control=33 value=63 time=0
19.533 seconds: control_change channel=1 control=33 value=63 time=0
19.533 seconds: control_change channel=1 control=33 value=63 time=0
19.533 seconds: control_change channel=1 control=33 value=63 time=0
19.544 seconds: control_change channel=1 control=33 value=63 time=0
19.544 seconds: control_change channel=1 control=33 value=63 time=0
19.544 seconds: control_change channel=1 control=33 value=63 time=0
19.544 seconds: control_change channel=1 control=33 value=63 time=0
19.545 seconds: control_change channel=1 control=33 value=63 time=0
19.545 seconds: control_change channel=1 control=33 value=63 time=0
19.545 seconds: control_change channel=1 control=33 value=63 time=0
19.551 seconds: control_change channel=1 control=33 value=63 time=0
19.551 seconds: control_change channel=1 control=33 value=63 time=0
19.551 seconds: control_change channel=1 control=33 value=63 time=0
19.551 seconds: control_change channel=1 control=33 value=63 time=0
19.557 seconds: control_change channel=1 control=33 value=63 time=0
19.558 seconds: control_change channel=1 control=35 value=63 time=0
19.558 seconds: control_change channel=1 control=35 value=63 time=0
19.558 seconds: control_change channel=1 control=35 value=63 time=0
19.558 seconds: control_change channel=1 control=35 value=63 time=0
19.563 seconds: control_change channel=1 control=35 value=63 time=0
19.563 seconds: control_change channel=1 control=35 value=63 time=0
19.563 seconds: control_change channel=1 control=35 value=63 time=0
19.563 seconds: control_change channel=1 control=35 value=63 time=0
19.563 seconds: control_change channel=1 control=35 value=63 time=0
19.563 seconds: control_change channel=1 control=35 value=63 time=0
19.569 seconds: control_change channel=1 control=35 value=63 time=0
19.569 seconds: control_change channel=1 control=35 value=63 time=0
19.569 seconds: control_change channel=1 control=35 value=63 time=0
19.569 seconds: control_change channel=1 control=35 value=62 time=0
19.569 seconds: control_change channel=1 control=35 value=63 time=0
19.575 seconds: control_change channel=1 control=35 value=62 time=0
19.575 seconds: control_change channel=1 control=35 value=63 time=0
19.575 seconds: control_change channel=1 control=35 value=63 time=0
19.575 seconds: control_change channel=1 control=35 value=63 time=0
19.576 seconds: control_change channel=1 control=35 value=62 time=0
19.581 seconds: control_change channel=1 control=35 value=62 time=0
19.581 seconds: control_change channel=1 control=35 value=63 time=0
19.581 seconds: control_change channel=1 control=35 value=63 time=0
19.581 seconds: control_change channel=1 control=35 value=63 time=0
19.581 seconds: control_change channel=1 control=35 value=62 time=0
19.581 seconds: control_change channel=1 control=35 value=63 time=0
19.587 seconds: control_change channel=1 control=35 value=63 time=0
19.587 seconds: control_change channel=1 control=35 value=62 time=0
19.587 seconds: control_change channel=1 control=35 value=63 time=0
19.587 seconds: control_change channel=1 control=35 value=63 time=0
19.587 seconds: control_change channel=1 control=35 value=63 time=0
19.587 seconds: control_change channel=1 control=35 value=62 time=0
19.594 seconds: control_change channel=1 control=35 value=62 time=0
19.594 seconds: control_change channel=1 control=35 value=63 time=0
19.594 seconds: control_change channel=1 control=35 value=63 time=0
19.594 seconds: control_change channel=1 control=35 value=63 time=0
19.595 seconds: control_change channel=1 control=35 value=62 time=0
19.595 seconds: control_change channel=1 control=35 value=63 time=0
19.600 seconds: control_change channel=1 control=35 value=63 time=0
19.600 seconds: control_change channel=1 control=35 value=62 time=0
19.600 seconds: control_change channel=1 control=35 value=63 time=0
19.600 seconds: control_change channel=1 control=35 value=63 time=0
19.600 seconds: control_change channel=1 control=35 value=63 time=0
19.600 seconds: control_change channel=1 control=35 value=62 time=0
19.607 seconds: control_change channel=1 control=35 value=63 time=0
19.608 seconds: control_change channel=1 control=35 value=62 time=0
19.608 seconds: control_change channel=1 control=35 value=63 time=0
19.608 seconds: control_change channel=1 control=35 value=63 time=0
19.608 seconds: control_change channel=1 control=35 value=63 time=0
19.608 seconds: control_change channel=1 control=35 value=63 time=0
19.613 seconds: control_change channel=1 control=35 value=63 time=0
19.613 seconds: control_change channel=1 control=35 value=63 time=0
19.613 seconds: control_change channel=1 control=35 value=63 time=0
19.613 seconds: control_change channel=1 control=35 value=63 time=0
19.613 seconds: control_change channel=1 control=35 value=63 time=0
19.613 seconds: control_change channel=1 control=35 value=63 time=0
19.619 seconds: control_change channel=1 control=35 value=63 time=0
19.619 seconds: control_change channel=1 control=35 value=63 time=0
19.619 seconds: control_change channel=1 control=35 value=63 time=0
19.619 seconds: control_change channel=1 control=35 value=63 time=0
19.619 seconds: control_change channel=1 control=35 value=63 time=0
19.625 seconds: control_change channel=1 control=35 value=63 time=0
19.625 seconds: control_change channel=1 control=33 value=63 time=0
19.625 seconds: control_change channel=1 control=33 value=63 time=0
19.625 seconds: control_change channel=1 control=33 value=63 time=0
19.626 seconds: control_change channel=1 control=33 value=63 time=0
19.631 seconds: control_change channel=1 control=33 value=63 time=0
19.631 seconds: control_change channel=1 control=33 value=63 time=0
19.631 seconds: control_change channel=1 control=33 value=63 time=0
19.631 seconds: control_change channel=1 control=33 value=63 time=0
19.637 seconds: control_change channel=1 control=33 value=63 time=0
19.637 seconds: control_change channel=1 control=33 value=63 time=0
19.637 seconds: control_change channel=1 control=33 value=63 time=0
19.643 seconds: control_change channel=1 control=33 value=63 time=0
19.643 seconds: control_change channel=1 control=33 value=63 time=0
19.643 seconds: control_change channel=1 control=33 value=63 time=0
19.652 seconds: control_change channel=1 control=33 value=63 time=0
19.652 seconds: control_change channel=1 control=33 value=63 time=0
19.652 seconds: control_change channel=1 control=33 value=63 time=0
19.657 seconds: control_change channel=1 control=33 value=63 time=0
19.657 seconds: control_change channel=1 control=33 value=63 time=0
19.657 seconds: control_change channel=1 control=33 value=63 time=0
19.664 seconds: control_change channel=1 control=33 value=63 time=0
19.664 seconds: control_change channel=1 control=33 value=63 time=0
19.671 seconds: control_change channel=1 control=33 value=63 time=0
19.671 seconds: control_change channel=1 control=33 value=63 time=0
19.677 seconds: control_change channel=1 control=33 value=63 time=0
19.688 seconds: control_change channel=1 control=33 value=63 time=0
19.688 seconds: control_change channel=1 control=33 value=63 time=0
19.688 seconds: control_change channel=1 control=33 value=63 time=0
19.695 seconds: control_change channel=1 control=33 value=63 time=0
19.703 seconds: control_change channel=1 control=33 value=63 time=0
19.710 seconds: control_change channel=1 control=33 value=63 time=0
19.716 seconds: control_change channel=1 control=33 value=63 time=0
19.725 seconds: control_change channel=1 control=33 value=63 time=0
19.749 seconds: control_change channel=1 control=33 value=63 time=0
20.124 seconds: control_change channel=1 control=35 value=63 time=0
20.134 seconds: control_change channel=1 control=35 value=63 time=0
20.142 seconds: control_change channel=1 control=35 value=63 time=0
20.152 seconds: control_change channel=1 control=35 value=63 time=0
20.160 seconds: control_change channel=1 control=35 value=63 time=0
20.160 seconds: control_change channel=1 control=35 value=63 time=0
20.170 seconds: control_change channel=1 control=35 value=63 time=0
20.179 seconds: control_change channel=1 control=35 value=63 time=0
20.185 seconds: control_change channel=1 control=35 value=63 time=0
20.186 seconds: control_change channel=1 control=35 value=63 time=0
20.194 seconds: control_change channel=1 control=35 value=63 time=0
20.202 seconds: control_change channel=1 control=35 value=63 time=0
20.203 seconds: control_change channel=1 control=35 value=63 time=0
20.210 seconds: control_change channel=1 control=35 value=63 time=0
20.211 seconds: control_change channel=1 control=35 value=63 time=0
20.220 seconds: control_change channel=1 control=35 value=63 time=0
20.220 seconds: control_change channel=1 control=35 value=63 time=0
20.225 seconds: control_change channel=1 control=35 value=63 time=0
20.226 seconds: control_change channel=1 control=35 value=63 time=0
20.232 seconds: control_change channel=1 control=35 value=63 time=0
20.232 seconds: control_change channel=1 control=35 value=63 time=0
20.238 seconds: control_change channel=1 control=35 value=63 time=0
20.239 seconds: control_change channel=1 control=35 value=63 time=0
20.245 seconds: control_change channel=1 control=35 value=63 time=0
20.246 seconds: control_change channel=1 control=35 value=63 time=0
20.246 seconds: control_change channel=1 control=35 value=63 time=0
20.251 seconds: control_change channel=1 control=35 value=63 time=0
20.251 seconds: control_change channel=1 control=35 value=63 time=0
20.257 seconds: control_change channel=1 control=35 value=63 time=0
20.258 seconds: control_change channel=1 control=35 value=63 time=0
20.258 seconds: control_change channel=1 control=35 value=63 time=0
20.264 seconds: control_change channel=1 control=35 value=63 time=0
20.264 seconds: control_change channel=1 control=35 value=63 time=0
20.265 seconds: control_change channel=1 control=35 value=63 time=0
20.270 seconds: control_change channel=1 control=35 value=63 time=0
20.271 seconds: control_change channel=1 control=35 value=63 time=0
20.271 seconds: control_change channel=1 control=35 value=63 time=0
20.276 seconds: control_change channel=1 control=35 value=63 time=0
20.277 seconds: control_change channel=1 control=35 value=63 time=0
20.277 seconds: control_change channel=1 control=35 value=63 time=0
20.282 seconds: control_change channel=1 control=35 value=63 time=0
20.282 seconds: control_change channel=1 control=35 value=63 time=0
20.283 seconds: control_change channel=1 control=35 value=63 time=0
20.288 seconds: control_change channel=1 control=35 value=63 time=0
20.289 seconds: control_change channel=1 control=35 value=63 time=0
20.289 seconds: control_change channel=1 control=35 value=63 time=0
20.289 seconds: control_change channel=1 control=35 value=63 time=0
20.295 seconds: control_change channel=1 control=35 value=63 time=0
20.296 seconds: control_change channel=1 control=35 value=63 time=0
20.296 seconds: control_change channel=1 control=35 value=63 time=0
20.296 seconds: control_change channel=1 control=35 value=63 time=0
20.302 seconds: control_change channel=1 control=35 value=63 time=0
20.303 seconds: control_change channel=1 control=35 value=63 time=0
20.303 seconds: control_change channel=1 control=35 value=63 time=0
20.303 seconds: control_change channel=1 control=35 value=63 time=0
20.309 seconds: control_change channel=1 control=35 value=63 time=0
20.310 seconds: control_change channel=1 control=35 value=63 time=0
20.310 seconds: control_change channel=1 control=35 value=63 time=0
20.310 seconds: control_change channel=1 control=35 value=63 time=0
20.315 seconds: control_change channel=1 control=35 value=63 time=0
20.316 seconds: control_change channel=1 control=35 value=63 time=0
20.316 seconds: control_change channel=1 control=35 value=63 time=0
20.316 seconds: control_change channel=1 control=35 value=63 time=0
20.322 seconds: control_change channel=1 control=35 value=63 time=0
20.323 seconds: control_change channel=1 control=35 value=63 time=0
20.323 seconds: control_change channel=1 control=35 value=63 time=0
20.323 seconds: control_change channel=1 control=35 value=63 time=0
20.329 seconds: control_change channel=1 control=35 value=63 time=0
20.330 seconds: control_change channel=1 control=35 value=63 time=0
20.330 seconds: control_change channel=1 control=35 value=63 time=0
20.330 seconds: control_change channel=1 control=35 value=63 time=0
20.336 seconds: control_change channel=1 control=35 value=63 time=0
20.336 seconds: control_change channel=1 control=35 value=63 time=0
20.337 seconds: control_change channel=1 control=35 value=63 time=0
20.337 seconds: control_change channel=1 control=35 value=63 time=0
20.342 seconds: control_change channel=1 control=35 value=63 time=0
20.343 seconds: control_change channel=1 control=35 value=63 time=0
20.343 seconds: control_change channel=1 control=35 value=63 time=0
20.343 seconds: control_change channel=1 control=35 value=63 time=0
20.351 seconds: control_change channel=1 control=35 value=63 time=0
20.351 seconds: control_change channel=1 control=35 value=63 time=0
20.351 seconds: control_change channel=1 control=35 value=63 time=0
20.351 seconds: control_change channel=1 control=35 value=63 time=0
20.358 seconds: control_change channel=1 control=35 value=63 time=0
20.358 seconds: control_change channel=1 control=35 value=63 time=0
20.358 seconds: control_change channel=1 control=35 value=63 time=0
20.358 seconds: control_change channel=1 control=35 value=63 time=0
20.366 seconds: control_change channel=1 control=35 value=63 time=0
20.366 seconds: control_change channel=1 control=35 value=63 time=0
20.366 seconds: control_change channel=1 control=35 value=63 time=0
20.366 seconds: control_change channel=1 control=35 value=63 time=0
20.374 seconds: control_change channel=1 control=35 value=63 time=0
20.374 seconds: control_change channel=1 control=35 value=63 time=0
20.374 seconds: control_change channel=1 control=35 value=63 time=0
20.374 seconds: control_change channel=1 control=35 value=63 time=0
20.382 seconds: control_change channel=1 control=35 value=63 time=0
20.383 seconds: control_change channel=1 control=35 value=63 time=0
20.383 seconds: control_change channel=1 control=35 value=63 time=0
20.389 seconds: control_change channel=1 control=35 value=63 time=0
20.389 seconds: control_change channel=1 control=35 value=63 time=0
20.396 seconds: control_change channel=1 control=35 value=63 time=0
20.396 seconds: control_change channel=1 control=35 value=63 time=0
20.396 seconds: control_change channel=1 control=35 value=63 time=0
20.402 seconds: control_change channel=1 control=35 value=63 time=0
20.403 seconds: control_change channel=1 control=35 value=63 time=0
20.403 seconds: control_change channel=1 control=35 value=63 time=0
20.409 seconds: control_change channel=1 control=35 value=63 time=0
20.410 seconds: control_change channel=1 control=35 value=63 time=0
20.417 seconds: control_change channel=1 control=35 value=63 time=0
20.418 seconds: control_change channel=1 control=35 value=63 time=0
20.423 seconds: control_change channel=1 control=35 value=63 time=0
20.429 seconds: control_change channel=1 control=35 value=63 time=0
20.430 seconds: control_change channel=1 control=35 value=63 time=0
20.436 seconds: control_change channel=1 control=35 value=63 time=0
20.437 seconds: control_change channel=1 control=35 value=63 time=0
20.447 seconds: control_change channel=1 control=35 value=63 time=0
20.447 seconds: control_change channel=1 control=35 value=63 time=0
20.456 seconds: control_change channel=1 control=35 value=63 time=0
20.456 seconds: control_change channel=1 control=35 value=63 time=0
20.469 seconds: control_change channel=1 control=35 value=63 time=0
20.469 seconds: control_change channel=1 control=35 value=63 time=0
20.478 seconds: control_change channel=1 control=35 value=63 time=0
20.479 seconds: control_change channel=1 control=35 value=63 time=0
20.491 seconds: control_change channel=1 control=35 value=63 time=0
20.491 seconds: control_change channel=1 control=35 value=63 time=0
20.500 seconds: control_change channel=1 control=35 value=63 time=0
20.500 seconds: control_change channel=1 control=35 value=63 time=0
20.511 seconds: control_change channel=1 control=35 value=63 time=0
20.511 seconds: control_change channel=1 control=35 value=63 time=0
20.517 seconds: control_change channel=1 control=35 value=63 time=0
20.518 seconds: control_change channel=1 control=35 value=63 time=0
20.528 seconds: control_change channel=1 control=35 value=63 time=0
20.528 seconds: control_change channel=1 control=35 value=63 time=0
20.535 seconds: control_change channel=1 control=35 value=63 time=0
20.535 seconds: control_change channel=1 control=35 value=63 time=0
20.545 seconds: control_change channel=1 control=35 value=63 time=0
20.545 seconds: control_change channel=1 control=35 value=63 time=0
20.552 seconds: control_change channel=1 control=35 value=63 time=0
20.552 seconds: control_change channel=1 control=35 value=63 time=0
20.562 seconds: control_change channel=1 control=35 value=63 time=0
20.562 seconds: control_change channel=1 control=35 value=63 time=0
20.571 seconds: control_change channel=1 control=35 value=63 time=0
20.571 seconds: control_change channel=1 control=35 value=63 time=0
20.584 seconds: control_change channel=1 control=35 value=63 time=0
20.590 seconds: control_change channel=1 control=35 value=63 time=0
20.590 seconds: control_change channel=1 control=35 value=63 time=0
20.600 seconds: control_change channel=1 control=35 value=63 time=0
20.610 seconds: control_change channel=1 control=35 value=63 time=0
20.617 seconds: control_change channel=1 control=35 value=63 time=0
20.617 seconds: control_change channel=1 control=35 value=63 time=0
20.629 seconds: control_change channel=1 control=35 value=63 time=0
20.640 seconds: control_change channel=1 control=35 value=63 time=0
20.648 seconds: control_change channel=1 control=35 value=63 time=0
20.655 seconds: control_change channel=1 control=35 value=63 time=0
20.664 seconds: control_change channel=1 control=35 value=63 time=0
20.686 seconds: control_change channel=1 control=35 value=63 time=0
20.713 seconds: control_change channel=1 control=35 value=63 time=0
20.737 seconds: control_change channel=1 control=35 value=63 time=0
20.834 seconds: control_change channel=1 control=35 value=65 time=0
20.856 seconds: control_change channel=1 control=35 value=65 time=0
20.875 seconds: control_change channel=1 control=35 value=65 time=0
20.894 seconds: control_change channel=1 control=35 value=65 time=0
20.903 seconds: control_change channel=1 control=35 value=65 time=0
20.910 seconds: control_change channel=1 control=35 value=65 time=0
20.918 seconds: control_change channel=1 control=35 value=65 time=0
20.928 seconds: control_change channel=1 control=35 value=65 time=0
20.934 seconds: control_change channel=1 control=35 value=65 time=0
20.934 seconds: control_change channel=1 control=35 value=65 time=0
20.945 seconds: control_change channel=1 control=35 value=65 time=0
20.953 seconds: control_change channel=1 control=35 value=65 time=0
20.953 seconds: control_change channel=1 control=35 value=65 time=0
20.961 seconds: control_change channel=1 control=35 value=65 time=0
20.961 seconds: control_change channel=1 control=35 value=65 time=0
20.973 seconds: control_change channel=1 control=35 value=65 time=0
20.973 seconds: control_change channel=1 control=35 value=65 time=0
20.979 seconds: control_change channel=1 control=35 value=65 time=0
20.979 seconds: control_change channel=1 control=35 value=65 time=0
20.988 seconds: control_change channel=1 control=35 value=65 time=0
20.988 seconds: control_change channel=1 control=35 value=65 time=0
20.988 seconds: control_change channel=1 control=35 value=65 time=0
20.996 seconds: control_change channel=1 control=35 value=65 time=0
20.996 seconds: control_change channel=1 control=35 value=65 time=0
21.002 seconds: control_change channel=1 control=35 value=65 time=0
21.002 seconds: control_change channel=1 control=35 value=65 time=0
21.002 seconds: control_change channel=1 control=35 value=65 time=0
21.011 seconds: control_change channel=1 control=35 value=65 time=0
21.011 seconds: control_change channel=1 control=35 value=65 time=0
21.011 seconds: control_change channel=1 control=35 value=65 time=0
21.011 seconds: control_change channel=1 control=35 value=65 time=0
21.025 seconds: control_change channel=1 control=35 value=65 time=0
21.025 seconds: control_change channel=1 control=35 value=65 time=0
21.025 seconds: control_change channel=1 control=35 value=65 time=0
21.025 seconds: control_change channel=1 control=35 value=65 time=0
21.025 seconds: control_change channel=1 control=35 value=65 time=0
21.025 seconds: control_change channel=1 control=35 value=65 time=0
21.031 seconds: control_change channel=1 control=35 value=65 time=0
21.031 seconds: control_change channel=1 control=35 value=65 time=0
21.031 seconds: control_change channel=1 control=35 value=65 time=0
21.031 seconds: control_change channel=1 control=35 value=65 time=0
21.038 seconds: control_change channel=1 control=35 value=65 time=0
21.038 seconds: control_change channel=1 control=35 value=65 time=0
21.038 seconds: control_change channel=1 control=35 value=65 time=0
21.038 seconds: control_change channel=1 control=35 value=65 time=0
21.044 seconds: control_change channel=1 control=35 value=65 time=0
21.044 seconds: control_change channel=1 control=35 value=65 time=0
21.044 seconds: control_change channel=1 control=35 value=65 time=0
21.050 seconds: control_change channel=1 control=35 value=65 time=0
21.050 seconds: control_change channel=1 control=35 value=65 time=0
21.050 seconds: control_change channel=1 control=35 value=65 time=0
21.050 seconds: control_change channel=1 control=35 value=65 time=0
21.056 seconds: control_change channel=1 control=35 value=65 time=0
21.056 seconds: control_change channel=1 control=35 value=65 time=0
21.056 seconds: control_change channel=1 control=35 value=65 time=0
21.056 seconds: control_change channel=1 control=35 value=65 time=0
21.062 seconds: control_change channel=1 control=35 value=65 time=0
21.062 seconds: control_change channel=1 control=35 value=65 time=0
21.062 seconds: control_change channel=1 control=35 value=65 time=0
21.062 seconds: control_change channel=1 control=35 value=65 time=0
21.068 seconds: control_change channel=1 control=35 value=65 time=0
21.068 seconds: control_change channel=1 control=35 value=65 time=0
21.068 seconds: control_change channel=1 control=35 value=65 time=0
21.068 seconds: control_change channel=1 control=35 value=65 time=0
21.074 seconds: control_change channel=1 control=35 value=65 time=0
21.074 seconds: control_change channel=1 control=35 value=65 time=0
21.074 seconds: control_change channel=1 control=35 value=65 time=0
21.074 seconds: control_change channel=1 control=35 value=65 time=0
21.080 seconds: control_change channel=1 control=35 value=65 time=0
21.080 seconds: control_change channel=1 control=35 value=65 time=0
21.080 seconds: control_change channel=1 control=35 value=65 time=0
21.080 seconds: control_change channel=1 control=35 value=65 time=0
21.080 seconds: control_change channel=1 control=35 value=65 time=0
21.086 seconds: control_change channel=1 control=35 value=65 time=0
21.086 seconds: control_change channel=1 control=35 value=65 time=0
21.086 seconds: control_change channel=1 control=35 value=65 time=0
21.091 seconds: control_change channel=1 control=35 value=65 time=0
21.091 seconds: control_change channel=1 control=35 value=65 time=0
21.091 seconds: control_change channel=1 control=35 value=65 time=0
21.091 seconds: control_change channel=1 control=35 value=65 time=0
21.091 seconds: control_change channel=1 control=35 value=65 time=0
21.097 seconds: control_change channel=1 control=35 value=65 time=0
21.097 seconds: control_change channel=1 control=35 value=65 time=0
21.097 seconds: control_change channel=1 control=35 value=65 time=0
21.097 seconds: control_change channel=1 control=35 value=65 time=0
21.097 seconds: control_change channel=1 control=35 value=65 time=0
21.104 seconds: control_change channel=1 control=35 value=65 time=0
21.104 seconds: control_change channel=1 control=35 value=65 time=0
21.104 seconds: control_change channel=1 control=35 value=65 time=0
21.104 seconds: control_change channel=1 control=35 value=65 time=0
21.104 seconds: control_change channel=1 control=35 value=65 time=0
21.111 seconds: control_change channel=1 control=35 value=65 time=0
21.111 seconds: control_change channel=1 control=35 value=65 time=0
21.111 seconds: control_change channel=1 control=35 value=65 time=0
21.111 seconds: control_change channel=1 control=35 value=65 time=0
21.111 seconds: control_change channel=1 control=35 value=65 time=0
21.117 seconds: control_change channel=1 control=35 value=65 time=0
21.117 seconds: control_change channel=1 control=35 value=65 time=0
21.117 seconds: control_change channel=1 control=35 value=65 time=0
21.117 seconds: control_change channel=1 control=35 value=65 time=0
21.117 seconds: control_change channel=1 control=35 value=65 time=0
21.123 seconds: control_change channel=1 control=35 value=65 time=0
21.123 seconds: control_change channel=1 control=35 value=65 time=0
21.123 seconds: control_change channel=1 control=35 value=65 time=0
21.123 seconds: control_change channel=1 control=35 value=65 time=0
21.123 seconds: control_change channel=1 control=35 value=65 time=0
21.129 seconds: control_change channel=1 control=35 value=65 time=0
21.129 seconds: control_change channel=1 control=35 value=65 time=0
21.129 seconds: control_change channel=1 control=35 value=65 time=0
21.129 seconds: control_change channel=1 control=35 value=65 time=0
21.135 seconds: control_change channel=1 control=35 value=65 time=0
21.135 seconds: control_change channel=1 control=35 value=65 time=0
21.135 seconds: control_change channel=1 control=35 value=65 time=0
21.135 seconds: control_change channel=1 control=35 value=65 time=0
21.135 seconds: control_change channel=1 control=35 value=65 time=0
21.142 seconds: control_change channel=1 control=35 value=65 time=0
21.142 seconds: control_change channel=1 control=35 value=65 time=0
21.142 seconds: control_change channel=1 control=35 value=65 time=0
21.142 seconds: control_change channel=1 control=35 value=65 time=0
21.148 seconds: control_change channel=1 control=35 value=65 time=0
21.148 seconds: control_change channel=1 control=35 value=65 time=0
21.148 seconds: control_change channel=1 control=35 value=65 time=0
21.148 seconds: control_change channel=1 control=35 value=65 time=0
21.154 seconds: control_change channel=1 control=35 value=65 time=0
21.154 seconds: control_change channel=1 control=35 value=65 time=0
21.154 seconds: control_change channel=1 control=35 value=65 time=0
21.154 seconds: control_change channel=1 control=35 value=65 time=0
21.160 seconds: control_change channel=1 control=35 value=65 time=0
21.160 seconds: control_change channel=1 control=35 value=65 time=0
21.160 seconds: control_change channel=1 control=35 value=65 time=0
21.160 seconds: control_change channel=1 control=35 value=65 time=0
21.166 seconds: control_change channel=1 control=35 value=65 time=0
21.166 seconds: control_change channel=1 control=35 value=65 time=0
21.166 seconds: control_change channel=1 control=35 value=65 time=0
21.166 seconds: control_change channel=1 control=35 value=65 time=0
21.173 seconds: control_change channel=1 control=35 value=65 time=0
21.173 seconds: control_change channel=1 control=35 value=65 time=0
21.173 seconds: control_change channel=1 control=35 value=65 time=0
21.173 seconds: control_change channel=1 control=35 value=65 time=0
21.180 seconds: control_change channel=1 control=35 value=65 time=0
21.180 seconds: control_change channel=1 control=35 value=65 time=0
21.180 seconds: control_change channel=1 control=35 value=65 time=0
21.180 seconds: control_change channel=1 control=35 value=65 time=0
21.188 seconds: control_change channel=1 control=35 value=65 time=0
21.188 seconds: control_change channel=1 control=35 value=65 time=0
21.188 seconds: control_change channel=1 control=35 value=65 time=0
21.188 seconds: control_change channel=1 control=35 value=65 time=0
21.197 seconds: control_change channel=1 control=35 value=65 time=0
21.197 seconds: control_change channel=1 control=35 value=65 time=0
21.197 seconds: control_change channel=1 control=35 value=65 time=0
21.197 seconds: control_change channel=1 control=35 value=65 time=0
21.206 seconds: control_change channel=1 control=35 value=65 time=0
21.206 seconds: control_change channel=1 control=35 value=65 time=0
21.206 seconds: control_change channel=1 control=35 value=65 time=0
21.212 seconds: control_change channel=1 control=35 value=65 time=0
21.212 seconds: control_change channel=1 control=35 value=65 time=0
21.218 seconds: control_change channel=1 control=35 value=65 time=0
21.218 seconds: control_change channel=1 control=35 value=65 time=0
21.218 seconds: control_change channel=1 control=35 value=65 time=0
21.227 seconds: control_change channel=1 control=35 value=65 time=0
21.227 seconds: control_change channel=1 control=35 value=65 time=0
21.227 seconds: control_change channel=1 control=35 value=65 time=0
21.234 seconds: control_change channel=1 control=35 value=65 time=0
21.234 seconds: control_change channel=1 control=35 value=65 time=0
21.241 seconds: control_change channel=1 control=35 value=65 time=0
21.241 seconds: control_change channel=1 control=35 value=65 time=0
21.247 seconds: control_change channel=1 control=35 value=65 time=0
21.247 seconds: control_change channel=1 control=35 value=65 time=0
21.255 seconds: control_change channel=1 control=35 value=65 time=0
21.255 seconds: control_change channel=1 control=35 value=65 time=0
21.263 seconds: control_change channel=1 control=35 value=65 time=0
21.269 seconds: control_change channel=1 control=35 value=65 time=0
21.269 seconds: control_change channel=1 control=35 value=65 time=0
21.277 seconds: control_change channel=1 control=35 value=65 time=0
21.284 seconds: control_change channel=1 control=35 value=65 time=0
21.296 seconds: control_change channel=1 control=35 value=65 time=0
21.304 seconds: control_change channel=1 control=35 value=65 time=0
21.316 seconds: control_change channel=1 control=35 value=65 time=0
21.410 seconds: control_change channel=1 control=35 value=65 time=0
21.427 seconds: control_change channel=1 control=35 value=65 time=0
21.436 seconds: control_change channel=1 control=35 value=65 time=0
21.443 seconds: control_change channel=1 control=35 value=65 time=0
21.452 seconds: control_change channel=1 control=35 value=65 time=0
21.467 seconds: control_change channel=1 control=35 value=65 time=0
21.479 seconds: control_change channel=1 control=35 value=65 time=0
21.497 seconds: control_change channel=1 control=35 value=65 time=0
21.592 seconds: control_change channel=1 control=33 value=65 time=0
24.951 seconds: note_on channel=9 note=4 velocity=127 time=0
25.145 seconds: note_on channel=9 note=4 velocity=0 time=0
26.314 seconds: note_on channel=9 note=5 velocity=127 time=0
26.494 seconds: note_on channel=9 note=5 velocity=0 time=0
27.392 seconds: note_on channel=9 note=6 velocity=127 time=0
27.602 seconds: note_on channel=9 note=6 velocity=0 time=0
28.313 seconds: control_change channel=1 control=35 value=63 time=0
28.330 seconds: control_change channel=1 control=35 value=63 time=0
28.343 seconds: control_change channel=1 control=35 value=63 time=0
28.359 seconds: control_change channel=1 control=35 value=63 time=0
28.390 seconds: control_change channel=1 control=35 value=63 time=0
28.408 seconds: control_change channel=1 control=35 value=63 time=0
28.434 seconds: control_change channel=1 control=35 value=63 time=0
28.450 seconds: control_change channel=1 control=35 value=63 time=0
28.468 seconds: control_change channel=1 control=35 value=63 time=0
28.481 seconds: control_change channel=1 control=35 value=63 time=0
28.489 seconds: control_change channel=1 control=35 value=63 time=0
28.497 seconds: control_change channel=1 control=35 value=63 time=0
28.506 seconds: control_change channel=1 control=35 value=63 time=0
28.506 seconds: control_change channel=1 control=35 value=63 time=0
28.514 seconds: control_change channel=1 control=35 value=63 time=0
28.514 seconds: control_change channel=1 control=35 value=63 time=0
28.521 seconds: control_change channel=1 control=35 value=63 time=0
28.521 seconds: control_change channel=1 control=35 value=63 time=0
28.527 seconds: control_change channel=1 control=35 value=63 time=0
28.527 seconds: control_change channel=1 control=35 value=63 time=0
28.527 seconds: control_change channel=1 control=35 value=63 time=0
28.535 seconds: control_change channel=1 control=35 value=63 time=0
28.535 seconds: control_change channel=1 control=35 value=63 time=0
28.535 seconds: control_change channel=1 control=35 value=63 time=0
28.541 seconds: control_change channel=1 control=35 value=63 time=0
28.541 seconds: control_change channel=1 control=35 value=63 time=0
28.541 seconds: control_change channel=1 control=35 value=63 time=0
28.541 seconds: control_change channel=1 control=35 value=63 time=0
28.549 seconds: control_change channel=1 control=35 value=63 time=0
28.549 seconds: control_change channel=1 control=35 value=63 time=0
28.549 seconds: control_change channel=1 control=35 value=63 time=0
28.549 seconds: control_change channel=1 control=35 value=63 time=0
28.557 seconds: control_change channel=1 control=35 value=63 time=0
28.557 seconds: control_change channel=1 control=35 value=63 time=0
28.557 seconds: control_change channel=1 control=35 value=63 time=0
28.557 seconds: control_change channel=1 control=35 value=63 time=0
28.565 seconds: control_change channel=1 control=35 value=63 time=0
28.565 seconds: control_change channel=1 control=35 value=63 time=0
28.565 seconds: control_change channel=1 control=35 value=63 time=0
28.571 seconds: control_change channel=1 control=35 value=63 time=0
28.571 seconds: control_change channel=1 control=35 value=63 time=0
28.571 seconds: control_change channel=1 control=35 value=63 time=0
28.571 seconds: control_change channel=1 control=35 value=63 time=0
28.578 seconds: control_change channel=1 control=35 value=63 time=0
28.578 seconds: control_change channel=1 control=35 value=63 time=0
28.578 seconds: control_change channel=1 control=35 value=63 time=0
28.585 seconds: control_change channel=1 control=35 value=63 time=0
28.585 seconds: control_change channel=1 control=35 value=63 time=0
28.591 seconds: control_change channel=1 control=35 value=63 time=0
28.591 seconds: control_change channel=1 control=35 value=63 time=0
28.591 seconds: control_change channel=1 control=35 value=63 time=0
28.599 seconds: control_change channel=1 control=35 value=63 time=0
28.599 seconds: control_change channel=1 control=35 value=63 time=0
28.608 seconds: control_change channel=1 control=35 value=63 time=0
28.608 seconds: control_change channel=1 control=35 value=63 time=0
28.614 seconds: control_change channel=1 control=35 value=63 time=0
28.622 seconds: control_change channel=1 control=35 value=63 time=0
28.622 seconds: control_change channel=1 control=35 value=63 time=0
28.632 seconds: control_change channel=1 control=35 value=63 time=0
28.632 seconds: control_change channel=1 control=35 value=63 time=0
28.646 seconds: control_change channel=1 control=35 value=63 time=0
28.652 seconds: control_change channel=1 control=35 value=63 time=0
28.652 seconds: control_change channel=1 control=35 value=63 time=0
28.660 seconds: control_change channel=1 control=35 value=63 time=0
28.668 seconds: control_change channel=1 control=35 value=63 time=0
28.668 seconds: control_change channel=1 control=35 value=63 time=0
28.676 seconds: control_change channel=1 control=35 value=63 time=0
28.676 seconds: control_change channel=1 control=35 value=63 time=0
28.686 seconds: control_change channel=1 control=35 value=63 time=0
28.686 seconds: control_change channel=1 control=35 value=63 time=0
28.693 seconds: control_change channel=1 control=35 value=63 time=0
28.693 seconds: control_change channel=1 control=35 value=63 time=0
28.704 seconds: control_change channel=1 control=35 value=63 time=0
28.710 seconds: control_change channel=1 control=35 value=63 time=0
28.710 seconds: control_change channel=1 control=35 value=63 time=0
28.721 seconds: control_change channel=1 control=35 value=63 time=0
28.775 seconds: control_change channel=1 control=35 value=63 time=0
28.791 seconds: control_change channel=1 control=35 value=65 time=0
28.819 seconds: control_change channel=1 control=35 value=65 time=0
28.825 seconds: control_change channel=1 control=35 value=65 time=0
28.831 seconds: control_change channel=1 control=35 value=65 time=0
28.837 seconds: control_change channel=1 control=35 value=65 time=0
28.846 seconds: control_change channel=1 control=35 value=65 time=0
28.846 seconds: control_change channel=1 control=35 value=65 time=0
28.854 seconds: control_change channel=1 control=35 value=65 time=0
28.854 seconds: control_change channel=1 control=35 value=65 time=0
28.865 seconds: control_change channel=1 control=35 value=65 time=0
28.865 seconds: control_change channel=1 control=35 value=65 time=0
28.871 seconds: control_change channel=1 control=35 value=65 time=0
28.871 seconds: control_change channel=1 control=35 value=65 time=0
28.879 seconds: control_change channel=1 control=35 value=65 time=0
28.879 seconds: control_change channel=1 control=35 value=65 time=0
28.879 seconds: control_change channel=1 control=35 value=65 time=0
28.886 seconds: control_change channel=1 control=35 value=65 time=0
28.886 seconds: control_change channel=1 control=35 value=65 time=0
28.892 seconds: control_change channel=1 control=35 value=65 time=0
28.892 seconds: control_change channel=1 control=35 value=65 time=0
28.892 seconds: control_change channel=1 control=35 value=65 time=0
28.899 seconds: control_change channel=1 control=35 value=65 time=0
28.899 seconds: control_change channel=1 control=35 value=65 time=0
28.899 seconds: control_change channel=1 control=35 value=65 time=0
28.899 seconds: control_change channel=1 control=35 value=65 time=0
28.906 seconds: control_change channel=1 control=35 value=65 time=0
28.906 seconds: control_change channel=1 control=35 value=65 time=0
28.906 seconds: control_change channel=1 control=35 value=65 time=0
28.906 seconds: control_change channel=1 control=35 value=65 time=0
28.913 seconds: control_change channel=1 control=35 value=65 time=0
28.913 seconds: control_change channel=1 control=35 value=65 time=0
28.913 seconds: control_change channel=1 control=35 value=65 time=0
28.913 seconds: control_change channel=1 control=35 value=65 time=0
28.919 seconds: control_change channel=1 control=35 value=65 time=0
28.919 seconds: control_change channel=1 control=35 value=65 time=0
28.919 seconds: control_change channel=1 control=35 value=65 time=0
28.919 seconds: control_change channel=1 control=35 value=65 time=0
28.926 seconds: control_change channel=1 control=35 value=65 time=0
28.926 seconds: control_change channel=1 control=35 value=65 time=0
28.926 seconds: control_change channel=1 control=35 value=65 time=0
28.926 seconds: control_change channel=1 control=35 value=65 time=0
28.932 seconds: control_change channel=1 control=35 value=65 time=0
28.932 seconds: control_change channel=1 control=35 value=65 time=0
28.932 seconds: control_change channel=1 control=35 value=65 time=0
28.932 seconds: control_change channel=1 control=35 value=65 time=0
28.932 seconds: control_change channel=1 control=35 value=65 time=0
28.939 seconds: control_change channel=1 control=35 value=65 time=0
28.939 seconds: control_change channel=1 control=35 value=65 time=0
28.939 seconds: control_change channel=1 control=35 value=65 time=0
28.939 seconds: control_change channel=1 control=35 value=65 time=0
28.939 seconds: control_change channel=1 control=35 value=65 time=0
28.945 seconds: control_change channel=1 control=35 value=65 time=0
28.945 seconds: control_change channel=1 control=35 value=65 time=0
28.945 seconds: control_change channel=1 control=35 value=65 time=0
28.945 seconds: control_change channel=1 control=35 value=65 time=0
28.956 seconds: control_change channel=1 control=35 value=65 time=0
28.956 seconds: control_change channel=1 control=35 value=65 time=0
28.956 seconds: control_change channel=1 control=35 value=65 time=0
28.956 seconds: control_change channel=1 control=35 value=65 time=0
28.956 seconds: control_change channel=1 control=35 value=65 time=0
28.956 seconds: control_change channel=1 control=35 value=65 time=0
28.956 seconds: control_change channel=1 control=35 value=65 time=0
28.956 seconds: control_change channel=1 control=35 value=65 time=0
28.962 seconds: control_change channel=1 control=35 value=65 time=0
28.962 seconds: control_change channel=1 control=35 value=65 time=0
28.962 seconds: control_change channel=1 control=35 value=65 time=0
28.962 seconds: control_change channel=1 control=35 value=65 time=0
28.968 seconds: control_change channel=1 control=35 value=65 time=0
28.968 seconds: control_change channel=1 control=35 value=65 time=0
28.968 seconds: control_change channel=1 control=35 value=65 time=0
28.968 seconds: control_change channel=1 control=35 value=65 time=0
28.974 seconds: control_change channel=1 control=35 value=65 time=0
28.974 seconds: control_change channel=1 control=35 value=65 time=0
28.974 seconds: control_change channel=1 control=35 value=65 time=0
28.974 seconds: control_change channel=1 control=35 value=65 time=0
28.980 seconds: control_change channel=1 control=35 value=65 time=0
28.980 seconds: control_change channel=1 control=35 value=65 time=0
28.980 seconds: control_change channel=1 control=35 value=65 time=0
28.980 seconds: control_change channel=1 control=35 value=65 time=0
28.980 seconds: control_change channel=1 control=35 value=65 time=0
28.987 seconds: control_change channel=1 control=35 value=65 time=0
28.987 seconds: control_change channel=1 control=35 value=65 time=0
28.987 seconds: control_change channel=1 control=35 value=65 time=0
28.987 seconds: control_change channel=1 control=35 value=65 time=0
28.993 seconds: control_change channel=1 control=35 value=65 time=0
28.993 seconds: control_change channel=1 control=35 value=65 time=0
28.993 seconds: control_change channel=1 control=35 value=65 time=0
28.993 seconds: control_change channel=1 control=35 value=65 time=0
28.993 seconds: control_change channel=1 control=35 value=65 time=0
29.001 seconds: control_change channel=1 control=35 value=65 time=0
29.001 seconds: control_change channel=1 control=35 value=65 time=0
29.001 seconds: control_change channel=1 control=35 value=65 time=0
29.001 seconds: control_change channel=1 control=35 value=65 time=0
29.001 seconds: control_change channel=1 control=35 value=65 time=0
29.008 seconds: control_change channel=1 control=35 value=65 time=0
29.008 seconds: control_change channel=1 control=35 value=65 time=0
29.008 seconds: control_change channel=1 control=35 value=65 time=0
29.008 seconds: control_change channel=1 control=35 value=65 time=0
29.014 seconds: control_change channel=1 control=35 value=65 time=0
29.014 seconds: control_change channel=1 control=35 value=65 time=0
29.014 seconds: control_change channel=1 control=35 value=65 time=0
29.014 seconds: control_change channel=1 control=35 value=65 time=0
29.020 seconds: control_change channel=1 control=35 value=65 time=0
29.020 seconds: control_change channel=1 control=35 value=65 time=0
29.020 seconds: control_change channel=1 control=35 value=65 time=0
29.026 seconds: control_change channel=1 control=35 value=65 time=0
29.026 seconds: control_change channel=1 control=35 value=65 time=0
29.026 seconds: control_change channel=1 control=35 value=65 time=0
29.026 seconds: control_change channel=1 control=35 value=65 time=0
29.035 seconds: control_change channel=1 control=35 value=65 time=0
29.035 seconds: control_change channel=1 control=35 value=65 time=0
29.035 seconds: control_change channel=1 control=35 value=65 time=0
29.035 seconds: control_change channel=1 control=35 value=65 time=0
29.042 seconds: control_change channel=1 control=35 value=65 time=0
29.042 seconds: control_change channel=1 control=35 value=65 time=0
29.042 seconds: control_change channel=1 control=35 value=65 time=0
29.048 seconds: control_change channel=1 control=35 value=65 time=0
29.048 seconds: control_change channel=1 control=35 value=65 time=0
29.055 seconds: control_change channel=1 control=35 value=65 time=0
29.055 seconds: control_change channel=1 control=35 value=65 time=0
29.055 seconds: control_change channel=1 control=35 value=65 time=0
29.064 seconds: control_change channel=1 control=35 value=65 time=0
29.064 seconds: control_change channel=1 control=35 value=65 time=0
29.064 seconds: control_change channel=1 control=35 value=65 time=0
29.071 seconds: control_change channel=1 control=35 value=65 time=0
29.071 seconds: control_change channel=1 control=35 value=65 time=0
29.077 seconds: control_change channel=1 control=35 value=65 time=0
29.077 seconds: control_change channel=1 control=35 value=65 time=0
29.077 seconds: control_change channel=1 control=35 value=65 time=0
29.087 seconds: control_change channel=1 control=35 value=65 time=0
29.087 seconds: control_change channel=1 control=35 value=65 time=0
29.087 seconds: control_change channel=1 control=35 value=65 time=0
29.096 seconds: control_change channel=1 control=35 value=65 time=0
29.103 seconds: control_change channel=1 control=35 value=65 time=0
29.103 seconds: control_change channel=1 control=35 value=65 time=0
29.115 seconds: control_change channel=1 control=35 value=65 time=0
29.128 seconds: control_change channel=1 control=35 value=63 time=0
29.134 seconds: control_change channel=1 control=35 value=63 time=0
29.134 seconds: control_change channel=1 control=35 value=63 time=0
29.146 seconds: control_change channel=1 control=35 value=63 time=0
29.146 seconds: control_change channel=1 control=35 value=63 time=0
29.152 seconds: control_change channel=1 control=35 value=63 time=0
29.152 seconds: control_change channel=1 control=35 value=63 time=0
29.159 seconds: control_change channel=1 control=35 value=63 time=0
29.159 seconds: control_change channel=1 control=35 value=63 time=0
29.159 seconds: control_change channel=1 control=35 value=63 time=0
29.165 seconds: control_change channel=1 control=35 value=63 time=0
29.165 seconds: control_change channel=1 control=35 value=63 time=0
29.176 seconds: control_change channel=1 control=35 value=63 time=0
29.176 seconds: control_change channel=1 control=35 value=63 time=0
29.176 seconds: control_change channel=1 control=35 value=63 time=0
29.176 seconds: control_change channel=1 control=35 value=63 time=0
29.176 seconds: control_change channel=1 control=35 value=63 time=0
29.176 seconds: control_change channel=1 control=35 value=63 time=0
29.183 seconds: control_change channel=1 control=35 value=63 time=0
29.183 seconds: control_change channel=1 control=35 value=63 time=0
29.183 seconds: control_change channel=1 control=35 value=63 time=0
29.189 seconds: control_change channel=1 control=35 value=63 time=0
29.189 seconds: control_change channel=1 control=35 value=63 time=0
29.189 seconds: control_change channel=1 control=35 value=63 time=0
29.196 seconds: control_change channel=1 control=35 value=63 time=0
29.196 seconds: control_change channel=1 control=35 value=63 time=0
29.196 seconds: control_change channel=1 control=35 value=63 time=0
29.196 seconds: control_change channel=1 control=35 value=63 time=0
29.203 seconds: control_change channel=1 control=35 value=63 time=0
29.203 seconds: control_change channel=1 control=35 value=63 time=0
29.203 seconds: control_change channel=1 control=35 value=63 time=0
29.203 seconds: control_change channel=1 control=35 value=63 time=0
29.210 seconds: control_change channel=1 control=35 value=63 time=0
29.210 seconds: control_change channel=1 control=35 value=63 time=0
29.210 seconds: control_change channel=1 control=35 value=63 time=0
29.210 seconds: control_change channel=1 control=35 value=63 time=0
29.216 seconds: control_change channel=1 control=35 value=63 time=0
29.216 seconds: control_change channel=1 control=35 value=63 time=0
29.216 seconds: control_change channel=1 control=35 value=63 time=0
29.216 seconds: control_change channel=1 control=35 value=63 time=0
29.223 seconds: control_change channel=1 control=35 value=63 time=0
29.223 seconds: control_change channel=1 control=35 value=63 time=0
29.223 seconds: control_change channel=1 control=35 value=63 time=0
29.223 seconds: control_change channel=1 control=35 value=63 time=0
29.229 seconds: control_change channel=1 control=35 value=63 time=0
29.229 seconds: control_change channel=1 control=35 value=63 time=0
29.229 seconds: control_change channel=1 control=35 value=63 time=0
29.229 seconds: control_change channel=1 control=35 value=63 time=0
29.236 seconds: control_change channel=1 control=35 value=63 time=0
29.236 seconds: control_change channel=1 control=35 value=63 time=0
29.236 seconds: control_change channel=1 control=35 value=63 time=0
29.236 seconds: control_change channel=1 control=35 value=63 time=0
29.242 seconds: control_change channel=1 control=35 value=63 time=0
29.242 seconds: control_change channel=1 control=35 value=63 time=0
29.242 seconds: control_change channel=1 control=35 value=63 time=0
29.242 seconds: control_change channel=1 control=35 value=63 time=0
29.248 seconds: control_change channel=1 control=35 value=63 time=0
29.248 seconds: control_change channel=1 control=35 value=63 time=0
29.248 seconds: control_change channel=1 control=35 value=63 time=0
29.248 seconds: control_change channel=1 control=35 value=63 time=0
29.254 seconds: control_change channel=1 control=35 value=63 time=0
29.254 seconds: control_change channel=1 control=35 value=63 time=0
29.254 seconds: control_change channel=1 control=35 value=63 time=0
29.254 seconds: control_change channel=1 control=35 value=63 time=0
29.260 seconds: control_change channel=1 control=35 value=63 time=0
29.260 seconds: control_change channel=1 control=35 value=63 time=0
29.260 seconds: control_change channel=1 control=35 value=63 time=0
29.266 seconds: control_change channel=1 control=35 value=63 time=0
29.266 seconds: control_change channel=1 control=35 value=63 time=0
29.266 seconds: control_change channel=1 control=35 value=63 time=0
29.266 seconds: control_change channel=1 control=35 value=63 time=0
29.271 seconds: control_change channel=1 control=35 value=63 time=0
29.271 seconds: control_change channel=1 control=35 value=63 time=0
29.271 seconds: control_change channel=1 control=35 value=63 time=0
29.271 seconds: control_change channel=1 control=35 value=63 time=0
29.277 seconds: control_change channel=1 control=35 value=63 time=0
29.277 seconds: control_change channel=1 control=35 value=63 time=0
29.277 seconds: control_change channel=1 control=35 value=63 time=0
29.277 seconds: control_change channel=1 control=35 value=63 time=0
29.283 seconds: control_change channel=1 control=35 value=63 time=0
29.283 seconds: control_change channel=1 control=35 value=63 time=0
29.283 seconds: control_change channel=1 control=35 value=63 time=0
29.283 seconds: control_change channel=1 control=35 value=63 time=0
29.290 seconds: control_change channel=1 control=35 value=63 time=0
29.290 seconds: control_change channel=1 control=35 value=63 time=0
29.290 seconds: control_change channel=1 control=35 value=63 time=0
29.290 seconds: control_change channel=1 control=35 value=63 time=0
29.296 seconds: control_change channel=1 control=35 value=63 time=0
29.296 seconds: control_change channel=1 control=35 value=63 time=0
29.296 seconds: control_change channel=1 control=35 value=63 time=0
29.296 seconds: control_change channel=1 control=35 value=63 time=0
29.303 seconds: control_change channel=1 control=35 value=63 time=0
29.303 seconds: control_change channel=1 control=35 value=63 time=0
29.303 seconds: control_change channel=1 control=35 value=63 time=0
29.303 seconds: control_change channel=1 control=35 value=63 time=0
29.309 seconds: control_change channel=1 control=35 value=63 time=0
29.309 seconds: control_change channel=1 control=35 value=63 time=0
29.314 seconds: control_change channel=1 control=35 value=63 time=0
29.314 seconds: control_change channel=1 control=35 value=63 time=0
29.314 seconds: control_change channel=1 control=35 value=63 time=0
29.314 seconds: control_change channel=1 control=35 value=63 time=0
29.314 seconds: control_change channel=1 control=35 value=63 time=0
29.315 seconds: control_change channel=1 control=35 value=63 time=0
29.322 seconds: control_change channel=1 control=35 value=63 time=0
29.322 seconds: control_change channel=1 control=35 value=63 time=0
29.322 seconds: control_change channel=1 control=35 value=63 time=0
29.322 seconds: control_change channel=1 control=35 value=63 time=0
29.328 seconds: control_change channel=1 control=35 value=63 time=0
29.328 seconds: control_change channel=1 control=35 value=63 time=0
29.328 seconds: control_change channel=1 control=35 value=63 time=0
29.328 seconds: control_change channel=1 control=35 value=63 time=0
29.335 seconds: control_change channel=1 control=35 value=63 time=0
29.335 seconds: control_change channel=1 control=35 value=63 time=0
29.335 seconds: control_change channel=1 control=35 value=63 time=0
29.335 seconds: control_change channel=1 control=35 value=63 time=0
29.344 seconds: control_change channel=1 control=35 value=63 time=0
29.344 seconds: control_change channel=1 control=35 value=63 time=0
29.344 seconds: control_change channel=1 control=35 value=63 time=0
29.344 seconds: control_change channel=1 control=35 value=63 time=0
29.351 seconds: control_change channel=1 control=35 value=63 time=0
29.352 seconds: control_change channel=1 control=35 value=63 time=0
29.352 seconds: control_change channel=1 control=35 value=63 time=0
29.357 seconds: control_change channel=1 control=35 value=63 time=0
29.357 seconds: control_change channel=1 control=35 value=63 time=0
29.363 seconds: control_change channel=1 control=35 value=63 time=0
29.363 seconds: control_change channel=1 control=35 value=63 time=0
29.363 seconds: control_change channel=1 control=35 value=63 time=0
29.371 seconds: control_change channel=1 control=35 value=63 time=0
29.371 seconds: control_change channel=1 control=35 value=63 time=0
29.371 seconds: control_change channel=1 control=35 value=63 time=0
29.377 seconds: control_change channel=1 control=35 value=63 time=0
29.377 seconds: control_change channel=1 control=35 value=63 time=0
29.389 seconds: control_change channel=1 control=35 value=63 time=0
29.389 seconds: control_change channel=1 control=35 value=63 time=0
29.389 seconds: control_change channel=1 control=35 value=63 time=0
29.389 seconds: control_change channel=1 control=35 value=63 time=0
29.398 seconds: control_change channel=1 control=35 value=63 time=0
29.398 seconds: control_change channel=1 control=35 value=63 time=0
29.398 seconds: control_change channel=1 control=35 value=63 time=0
29.408 seconds: control_change channel=1 control=35 value=63 time=0
29.408 seconds: control_change channel=1 control=35 value=63 time=0
29.415 seconds: control_change channel=1 control=35 value=63 time=0
29.415 seconds: control_change channel=1 control=35 value=63 time=0
29.424 seconds: control_change channel=1 control=35 value=63 time=0
29.424 seconds: control_change channel=1 control=35 value=63 time=0
29.430 seconds: control_change channel=1 control=35 value=63 time=0
29.430 seconds: control_change channel=1 control=35 value=63 time=0
29.439 seconds: control_change channel=1 control=35 value=63 time=0
29.439 seconds: control_change channel=1 control=35 value=63 time=0
29.446 seconds: control_change channel=1 control=35 value=63 time=0
29.446 seconds: control_change channel=1 control=35 value=63 time=0
29.458 seconds: control_change channel=1 control=35 value=63 time=0
29.467 seconds: control_change channel=1 control=35 value=63 time=0
29.490 seconds: control_change channel=1 control=35 value=65 time=0
29.499 seconds: control_change channel=1 control=35 value=65 time=0
29.508 seconds: control_change channel=1 control=35 value=65 time=0
29.508 seconds: control_change channel=1 control=35 value=65 time=0
29.517 seconds: control_change channel=1 control=35 value=65 time=0
29.517 seconds: control_change channel=1 control=35 value=65 time=0
29.528 seconds: control_change channel=1 control=35 value=65 time=0
29.528 seconds: control_change channel=1 control=35 value=65 time=0
29.535 seconds: control_change channel=1 control=35 value=65 time=0
29.535 seconds: control_change channel=1 control=35 value=65 time=0
29.546 seconds: control_change channel=1 control=35 value=65 time=0
29.546 seconds: control_change channel=1 control=35 value=65 time=0
29.552 seconds: control_change channel=1 control=35 value=65 time=0
29.552 seconds: control_change channel=1 control=35 value=65 time=0
29.560 seconds: control_change channel=1 control=35 value=65 time=0
29.560 seconds: control_change channel=1 control=35 value=65 time=0
29.560 seconds: control_change channel=1 control=35 value=65 time=0
29.567 seconds: control_change channel=1 control=35 value=65 time=0
29.567 seconds: control_change channel=1 control=35 value=65 time=0
29.567 seconds: control_change channel=1 control=35 value=65 time=0
29.574 seconds: control_change channel=1 control=35 value=65 time=0
29.574 seconds: control_change channel=1 control=35 value=65 time=0
29.580 seconds: control_change channel=1 control=35 value=65 time=0
29.580 seconds: control_change channel=1 control=35 value=65 time=0
29.580 seconds: control_change channel=1 control=35 value=65 time=0
29.580 seconds: control_change channel=1 control=35 value=65 time=0
29.589 seconds: control_change channel=1 control=35 value=65 time=0
29.589 seconds: control_change channel=1 control=35 value=65 time=0
29.589 seconds: control_change channel=1 control=35 value=65 time=0
29.589 seconds: control_change channel=1 control=35 value=65 time=0
29.597 seconds: control_change channel=1 control=35 value=65 time=0
29.597 seconds: control_change channel=1 control=35 value=65 time=0
29.597 seconds: control_change channel=1 control=35 value=65 time=0
29.597 seconds: control_change channel=1 control=35 value=65 time=0
29.604 seconds: control_change channel=1 control=35 value=65 time=0
29.604 seconds: control_change channel=1 control=35 value=65 time=0
29.604 seconds: control_change channel=1 control=35 value=65 time=0
29.604 seconds: control_change channel=1 control=35 value=65 time=0
29.612 seconds: control_change channel=1 control=35 value=65 time=0
29.612 seconds: control_change channel=1 control=35 value=65 time=0
29.612 seconds: control_change channel=1 control=35 value=65 time=0
29.612 seconds: control_change channel=1 control=35 value=65 time=0
29.619 seconds: control_change channel=1 control=35 value=65 time=0
29.619 seconds: control_change channel=1 control=35 value=65 time=0
29.619 seconds: control_change channel=1 control=35 value=65 time=0
29.619 seconds: control_change channel=1 control=35 value=65 time=0
29.626 seconds: control_change channel=1 control=35 value=65 time=0
29.626 seconds: control_change channel=1 control=35 value=65 time=0
29.626 seconds: control_change channel=1 control=35 value=65 time=0
29.626 seconds: control_change channel=1 control=35 value=65 time=0
29.632 seconds: control_change channel=1 control=35 value=65 time=0
29.632 seconds: control_change channel=1 control=35 value=65 time=0
29.632 seconds: control_change channel=1 control=35 value=65 time=0
29.632 seconds: control_change channel=1 control=35 value=65 time=0
29.638 seconds: control_change channel=1 control=35 value=65 time=0
29.638 seconds: control_change channel=1 control=35 value=65 time=0
29.638 seconds: control_change channel=1 control=35 value=65 time=0
29.638 seconds: control_change channel=1 control=35 value=65 time=0
29.638 seconds: control_change channel=1 control=35 value=65 time=0
29.644 seconds: control_change channel=1 control=35 value=65 time=0
29.644 seconds: control_change channel=1 control=35 value=65 time=0
29.644 seconds: control_change channel=1 control=35 value=65 time=0
29.644 seconds: control_change channel=1 control=35 value=65 time=0
29.644 seconds: control_change channel=1 control=35 value=65 time=0
29.650 seconds: control_change channel=1 control=35 value=65 time=0
29.650 seconds: control_change channel=1 control=35 value=65 time=0
29.650 seconds: control_change channel=1 control=35 value=65 time=0
29.650 seconds: control_change channel=1 control=35 value=65 time=0
29.650 seconds: control_change channel=1 control=35 value=65 time=0
29.656 seconds: control_change channel=1 control=35 value=65 time=0
29.656 seconds: control_change channel=1 control=35 value=65 time=0
29.656 seconds: control_change channel=1 control=35 value=66 time=0
29.656 seconds: control_change channel=1 control=35 value=65 time=0
29.662 seconds: control_change channel=1 control=35 value=65 time=0
29.662 seconds: control_change channel=1 control=35 value=65 time=0
29.662 seconds: control_change channel=1 control=35 value=65 time=0
29.662 seconds: control_change channel=1 control=35 value=65 time=0
29.662 seconds: control_change channel=1 control=35 value=65 time=0
29.668 seconds: control_change channel=1 control=35 value=66 time=0
29.668 seconds: control_change channel=1 control=35 value=65 time=0
29.668 seconds: control_change channel=1 control=35 value=65 time=0
29.668 seconds: control_change channel=1 control=35 value=65 time=0
29.668 seconds: control_change channel=1 control=35 value=65 time=0
29.674 seconds: control_change channel=1 control=35 value=65 time=0
29.674 seconds: control_change channel=1 control=35 value=65 time=0
29.674 seconds: control_change channel=1 control=35 value=66 time=0
29.674 seconds: control_change channel=1 control=35 value=65 time=0
29.680 seconds: control_change channel=1 control=35 value=65 time=0
29.680 seconds: control_change channel=1 control=35 value=65 time=0
29.680 seconds: control_change channel=1 control=35 value=65 time=0
29.680 seconds: control_change channel=1 control=35 value=65 time=0
29.680 seconds: control_change channel=1 control=35 value=65 time=0
29.686 seconds: control_change channel=1 control=35 value=65 time=0
29.686 seconds: control_change channel=1 control=35 value=65 time=0
29.686 seconds: control_change channel=1 control=35 value=65 time=0
29.686 seconds: control_change channel=1 control=35 value=65 time=0
29.686 seconds: control_change channel=1 control=35 value=65 time=0
29.692 seconds: control_change channel=1 control=35 value=65 time=0
29.692 seconds: control_change channel=1 control=35 value=65 time=0
29.692 seconds: control_change channel=1 control=35 value=65 time=0
29.692 seconds: control_change channel=1 control=35 value=65 time=0
29.692 seconds: control_change channel=1 control=35 value=65 time=0
29.698 seconds: control_change channel=1 control=35 value=65 time=0
29.698 seconds: control_change channel=1 control=35 value=65 time=0
29.698 seconds: control_change channel=1 control=35 value=65 time=0
29.698 seconds: control_change channel=1 control=35 value=65 time=0
29.698 seconds: control_change channel=1 control=35 value=65 time=0
29.705 seconds: control_change channel=1 control=35 value=65 time=0
29.705 seconds: control_change channel=1 control=35 value=65 time=0
29.705 seconds: control_change channel=1 control=35 value=65 time=0
29.705 seconds: control_change channel=1 control=35 value=65 time=0
29.712 seconds: control_change channel=1 control=35 value=65 time=0
29.712 seconds: control_change channel=1 control=35 value=65 time=0
29.712 seconds: control_change channel=1 control=35 value=65 time=0
29.712 seconds: control_change channel=1 control=35 value=65 time=0
29.718 seconds: control_change channel=1 control=35 value=65 time=0
29.718 seconds: control_change channel=1 control=35 value=65 time=0
29.718 seconds: control_change channel=1 control=35 value=65 time=0
29.718 seconds: control_change channel=1 control=35 value=65 time=0
29.726 seconds: control_change channel=1 control=35 value=65 time=0
29.726 seconds: control_change channel=1 control=35 value=65 time=0
29.726 seconds: control_change channel=1 control=35 value=65 time=0
29.732 seconds: control_change channel=1 control=35 value=65 time=0
29.732 seconds: control_change channel=1 control=35 value=65 time=0
29.738 seconds: control_change channel=1 control=35 value=65 time=0
29.738 seconds: control_change channel=1 control=35 value=65 time=0
29.738 seconds: control_change channel=1 control=35 value=65 time=0
29.747 seconds: control_change channel=1 control=35 value=65 time=0
29.747 seconds: control_change channel=1 control=35 value=65 time=0
29.747 seconds: control_change channel=1 control=35 value=65 time=0
29.755 seconds: control_change channel=1 control=35 value=65 time=0
29.755 seconds: control_change channel=1 control=35 value=65 time=0
29.763 seconds: control_change channel=1 control=35 value=65 time=0
29.763 seconds: control_change channel=1 control=35 value=65 time=0
29.770 seconds: control_change channel=1 control=35 value=65 time=0
29.778 seconds: control_change channel=1 control=35 value=65 time=0
29.778 seconds: control_change channel=1 control=35 value=65 time=0
29.784 seconds: control_change channel=1 control=35 value=65 time=0
29.792 seconds: control_change channel=1 control=35 value=65 time=0
29.822 seconds: control_change channel=1 control=35 value=63 time=0
29.830 seconds: control_change channel=1 control=35 value=63 time=0
29.830 seconds: control_change channel=1 control=35 value=63 time=0
29.837 seconds: control_change channel=1 control=35 value=63 time=0
29.843 seconds: control_change channel=1 control=35 value=63 time=0
29.843 seconds: control_change channel=1 control=35 value=63 time=0
29.843 seconds: control_change channel=1 control=35 value=63 time=0
29.851 seconds: control_change channel=1 control=35 value=63 time=0
29.851 seconds: control_change channel=1 control=35 value=63 time=0
29.857 seconds: control_change channel=1 control=35 value=63 time=0
29.857 seconds: control_change channel=1 control=35 value=63 time=0
29.857 seconds: control_change channel=1 control=35 value=63 time=0
29.864 seconds: control_change channel=1 control=35 value=63 time=0
29.864 seconds: control_change channel=1 control=35 value=63 time=0
29.864 seconds: control_change channel=1 control=35 value=63 time=0
29.871 seconds: control_change channel=1 control=35 value=63 time=0
29.871 seconds: control_change channel=1 control=35 value=63 time=0
29.871 seconds: control_change channel=1 control=35 value=63 time=0
29.871 seconds: control_change channel=1 control=35 value=63 time=0
29.878 seconds: control_change channel=1 control=35 value=63 time=0
29.878 seconds: control_change channel=1 control=35 value=63 time=0
29.878 seconds: control_change channel=1 control=35 value=63 time=0
29.884 seconds: control_change channel=1 control=35 value=63 time=0
29.884 seconds: control_change channel=1 control=35 value=63 time=0
29.884 seconds: control_change channel=1 control=35 value=63 time=0
29.895 seconds: control_change channel=1 control=35 value=63 time=0
29.895 seconds: control_change channel=1 control=35 value=63 time=0
29.895 seconds: control_change channel=1 control=35 value=63 time=0
29.895 seconds: control_change channel=1 control=35 value=63 time=0
29.895 seconds: control_change channel=1 control=35 value=63 time=0
29.895 seconds: control_change channel=1 control=35 value=63 time=0
29.895 seconds: control_change channel=1 control=35 value=63 time=0
29.902 seconds: control_change channel=1 control=35 value=63 time=0
29.902 seconds: control_change channel=1 control=35 value=63 time=0
29.902 seconds: control_change channel=1 control=35 value=63 time=0
29.902 seconds: control_change channel=1 control=35 value=63 time=0
29.910 seconds: control_change channel=1 control=35 value=63 time=0
29.910 seconds: control_change channel=1 control=35 value=63 time=0
29.910 seconds: control_change channel=1 control=35 value=63 time=0
29.910 seconds: control_change channel=1 control=35 value=63 time=0
29.916 seconds: control_change channel=1 control=35 value=63 time=0
29.916 seconds: control_change channel=1 control=35 value=63 time=0
29.916 seconds: control_change channel=1 control=35 value=63 time=0
29.916 seconds: control_change channel=1 control=35 value=63 time=0
29.923 seconds: control_change channel=1 control=35 value=63 time=0
29.923 seconds: control_change channel=1 control=35 value=63 time=0
29.923 seconds: control_change channel=1 control=35 value=63 time=0
29.923 seconds: control_change channel=1 control=35 value=63 time=0
29.930 seconds: control_change channel=1 control=35 value=63 time=0
29.930 seconds: control_change channel=1 control=35 value=63 time=0
29.930 seconds: control_change channel=1 control=35 value=63 time=0
29.930 seconds: control_change channel=1 control=35 value=63 time=0
29.937 seconds: control_change channel=1 control=35 value=63 time=0
29.937 seconds: control_change channel=1 control=35 value=63 time=0
29.937 seconds: control_change channel=1 control=35 value=63 time=0
29.937 seconds: control_change channel=1 control=35 value=63 time=0
29.944 seconds: control_change channel=1 control=35 value=63 time=0
29.944 seconds: control_change channel=1 control=35 value=63 time=0
29.944 seconds: control_change channel=1 control=35 value=63 time=0
29.944 seconds: control_change channel=1 control=35 value=63 time=0
29.950 seconds: control_change channel=1 control=35 value=63 time=0
29.950 seconds: control_change channel=1 control=35 value=63 time=0
29.950 seconds: control_change channel=1 control=35 value=63 time=0
29.950 seconds: control_change channel=1 control=35 value=63 time=0
29.957 seconds: control_change channel=1 control=35 value=63 time=0
29.957 seconds: control_change channel=1 control=35 value=63 time=0
29.957 seconds: control_change channel=1 control=35 value=63 time=0
29.957 seconds: control_change channel=1 control=35 value=63 time=0
29.965 seconds: control_change channel=1 control=35 value=63 time=0
29.965 seconds: control_change channel=1 control=35 value=63 time=0
29.965 seconds: control_change channel=1 control=35 value=63 time=0
29.965 seconds: control_change channel=1 control=35 value=63 time=0
29.971 seconds: control_change channel=1 control=35 value=63 time=0
29.971 seconds: control_change channel=1 control=35 value=63 time=0
29.971 seconds: control_change channel=1 control=35 value=63 time=0
29.971 seconds: control_change channel=1 control=35 value=63 time=0
29.979 seconds: control_change channel=1 control=35 value=63 time=0
29.979 seconds: control_change channel=1 control=35 value=63 time=0
29.979 seconds: control_change channel=1 control=35 value=63 time=0
29.979 seconds: control_change channel=1 control=35 value=63 time=0
29.987 seconds: control_change channel=1 control=35 value=63 time=0
29.987 seconds: control_change channel=1 control=35 value=63 time=0
29.987 seconds: control_change channel=1 control=35 value=63 time=0
29.987 seconds: control_change channel=1 control=35 value=63 time=0
29.995 seconds: control_change channel=1 control=35 value=63 time=0
29.995 seconds: control_change channel=1 control=35 value=63 time=0
29.995 seconds: control_change channel=1 control=35 value=63 time=0
30.001 seconds: control_change channel=1 control=35 value=63 time=0
30.001 seconds: control_change channel=1 control=35 value=63 time=0
30.007 seconds: control_change channel=1 control=35 value=63 time=0
30.007 seconds: control_change channel=1 control=35 value=63 time=0
30.007 seconds: control_change channel=1 control=35 value=63 time=0
30.014 seconds: control_change channel=1 control=35 value=63 time=0
30.014 seconds: control_change channel=1 control=35 value=63 time=0
30.014 seconds: control_change channel=1 control=35 value=63 time=0
30.021 seconds: control_change channel=1 control=35 value=63 time=0
30.021 seconds: control_change channel=1 control=35 value=63 time=0
30.027 seconds: control_change channel=1 control=35 value=63 time=0
30.027 seconds: control_change channel=1 control=35 value=63 time=0
30.027 seconds: control_change channel=1 control=35 value=63 time=0
30.037 seconds: control_change channel=1 control=35 value=63 time=0
30.037 seconds: control_change channel=1 control=35 value=63 time=0
30.043 seconds: control_change channel=1 control=35 value=63 time=0
30.043 seconds: control_change channel=1 control=35 value=63 time=0
30.057 seconds: control_change channel=1 control=35 value=63 time=0
30.063 seconds: control_change channel=1 control=35 value=63 time=0
30.075 seconds: control_change channel=1 control=35 value=63 time=0
31.973 seconds: control_change channel=0 control=19 value=92 time=0
31.974 seconds: control_change channel=0 control=51 value=4 time=0
31.988 seconds: control_change channel=0 control=19 value=91 time=0
31.989 seconds: control_change channel=0 control=51 value=64 time=0
31.998 seconds: control_change channel=0 control=19 value=90 time=0
31.998 seconds: control_change channel=0 control=51 value=107 time=0
32.008 seconds: control_change channel=0 control=19 value=90 time=0
32.008 seconds: control_change channel=0 control=51 value=21 time=0
32.009 seconds: control_change channel=0 control=19 value=89 time=0
32.009 seconds: control_change channel=0 control=51 value=98 time=0
32.018 seconds: control_change channel=0 control=19 value=89 time=0
32.019 seconds: control_change channel=0 control=51 value=30 time=0
32.019 seconds: control_change channel=0 control=19 value=88 time=0
32.019 seconds: control_change channel=0 control=51 value=90 time=0
32.028 seconds: control_change channel=0 control=19 value=88 time=0
32.029 seconds: control_change channel=0 control=51 value=22 time=0
32.029 seconds: control_change channel=0 control=19 value=87 time=0
32.029 seconds: control_change channel=0 control=51 value=64 time=0
32.038 seconds: control_change channel=0 control=19 value=86 time=0
32.038 seconds: control_change channel=0 control=51 value=124 time=0
32.038 seconds: control_change channel=0 control=19 value=86 time=0
32.038 seconds: control_change channel=0 control=51 value=56 time=0
32.048 seconds: control_change channel=0 control=19 value=85 time=0
32.048 seconds: control_change channel=0 control=51 value=116 time=0
32.048 seconds: control_change channel=0 control=19 value=85 time=0
32.049 seconds: control_change channel=0 control=51 value=48 time=0
32.058 seconds: control_change channel=0 control=19 value=84 time=0
32.058 seconds: control_change channel=0 control=51 value=107 time=0
32.058 seconds: control_change channel=0 control=19 value=84 time=0
32.058 seconds: control_change channel=0 control=51 value=39 time=0
32.068 seconds: control_change channel=0 control=19 value=83 time=0
32.068 seconds: control_change channel=0 control=51 value=99 time=0
32.068 seconds: control_change channel=0 control=19 value=83 time=0
32.069 seconds: control_change channel=0 control=51 value=31 time=0
32.078 seconds: control_change channel=0 control=19 value=82 time=0
32.078 seconds: control_change channel=0 control=51 value=91 time=0
32.078 seconds: control_change channel=0 control=19 value=82 time=0
32.079 seconds: control_change channel=0 control=51 value=5 time=0
32.088 seconds: control_change channel=0 control=19 value=81 time=0
32.088 seconds: control_change channel=0 control=51 value=65 time=0
32.088 seconds: control_change channel=0 control=19 value=80 time=0
32.088 seconds: control_change channel=0 control=51 value=125 time=0
32.100 seconds: control_change channel=0 control=19 value=80 time=0
32.100 seconds: control_change channel=0 control=51 value=40 time=0
32.100 seconds: control_change channel=0 control=19 value=79 time=0
32.100 seconds: control_change channel=0 control=51 value=100 time=0
32.108 seconds: control_change channel=0 control=19 value=79 time=0
32.108 seconds: control_change channel=0 control=51 value=31 time=0
32.108 seconds: control_change channel=0 control=19 value=78 time=0
32.109 seconds: control_change channel=0 control=51 value=91 time=0
32.118 seconds: control_change channel=0 control=19 value=78 time=0
32.118 seconds: control_change channel=0 control=51 value=40 time=0
32.118 seconds: control_change channel=0 control=19 value=77 time=0
32.119 seconds: control_change channel=0 control=51 value=100 time=0
32.128 seconds: control_change channel=0 control=19 value=77 time=0
32.128 seconds: control_change channel=0 control=51 value=49 time=0
32.129 seconds: control_change channel=0 control=19 value=76 time=0
32.129 seconds: control_change channel=0 control=51 value=109 time=0
32.138 seconds: control_change channel=0 control=19 value=76 time=0
32.138 seconds: control_change channel=0 control=51 value=40 time=0
32.138 seconds: control_change channel=0 control=19 value=75 time=0
32.138 seconds: control_change channel=0 control=51 value=100 time=0
32.148 seconds: control_change channel=0 control=19 value=75 time=0
32.148 seconds: control_change channel=0 control=51 value=32 time=0
32.149 seconds: control_change channel=0 control=19 value=74 time=0
32.149 seconds: control_change channel=0 control=51 value=92 time=0
32.158 seconds: control_change channel=0 control=19 value=73 time=0
32.158 seconds: control_change channel=0 control=51 value=118 time=0
32.158 seconds: control_change channel=0 control=19 value=73 time=0
32.159 seconds: control_change channel=0 control=51 value=32 time=0
32.168 seconds: control_change channel=0 control=19 value=72 time=0
32.169 seconds: control_change channel=0 control=51 value=75 time=0
32.169 seconds: control_change channel=0 control=19 value=71 time=0
32.169 seconds: control_change channel=0 control=51 value=118 time=0
32.183 seconds: control_change channel=0 control=19 value=71 time=0
32.184 seconds: control_change channel=0 control=51 value=33 time=0
32.184 seconds: control_change channel=0 control=19 value=70 time=0
32.184 seconds: control_change channel=0 control=51 value=75 time=0
32.184 seconds: control_change channel=0 control=19 value=69 time=0
32.184 seconds: control_change channel=0 control=51 value=101 time=0
32.194 seconds: control_change channel=0 control=19 value=68 time=0
32.194 seconds: control_change channel=0 control=51 value=127 time=0
32.194 seconds: control_change channel=0 control=19 value=68 time=0
32.194 seconds: control_change channel=0 control=51 value=42 time=0
32.203 seconds: control_change channel=0 control=19 value=67 time=0
32.203 seconds: control_change channel=0 control=51 value=67 time=0
32.204 seconds: control_change channel=0 control=19 value=66 time=0
32.204 seconds: control_change channel=0 control=51 value=110 time=0
32.213 seconds: control_change channel=0 control=19 value=66 time=0
32.213 seconds: control_change channel=0 control=51 value=8 time=0
32.213 seconds: control_change channel=0 control=19 value=65 time=0
32.214 seconds: control_change channel=0 control=51 value=33 time=0
32.223 seconds: control_change channel=0 control=19 value=64 time=0
32.223 seconds: control_change channel=0 control=51 value=59 time=0
32.223 seconds: control_change channel=0 control=19 value=63 time=0
32.223 seconds: control_change channel=0 control=51 value=102 time=0
32.233 seconds: control_change channel=0 control=19 value=63 time=0
32.234 seconds: control_change channel=0 control=51 value=0 time=0
32.234 seconds: control_change channel=0 control=19 value=62 time=0
32.234 seconds: control_change channel=0 control=51 value=8 time=0
32.243 seconds: control_change channel=0 control=19 value=61 time=0
32.243 seconds: control_change channel=0 control=51 value=34 time=0
32.243 seconds: control_change channel=0 control=19 value=60 time=0
32.244 seconds: control_change channel=0 control=51 value=77 time=0
32.253 seconds: control_change channel=0 control=19 value=59 time=0
32.253 seconds: control_change channel=0 control=51 value=102 time=0
32.253 seconds: control_change channel=0 control=19 value=59 time=0
32.253 seconds: control_change channel=0 control=51 value=0 time=0
32.263 seconds: control_change channel=0 control=19 value=58 time=0
32.263 seconds: control_change channel=0 control=51 value=43 time=0
32.264 seconds: control_change channel=0 control=19 value=57 time=0
32.264 seconds: control_change channel=0 control=51 value=103 time=0
32.273 seconds: control_change channel=0 control=19 value=57 time=0
32.273 seconds: control_change channel=0 control=51 value=18 time=0
32.273 seconds: control_change channel=0 control=19 value=56 time=0
32.273 seconds: control_change channel=0 control=51 value=60 time=0
32.283 seconds: control_change channel=0 control=19 value=55 time=0
32.284 seconds: control_change channel=0 control=51 value=103 time=0
32.284 seconds: control_change channel=0 control=19 value=55 time=0
32.284 seconds: control_change channel=0 control=51 value=35 time=0
32.293 seconds: control_change channel=0 control=19 value=54 time=0
32.294 seconds: control_change channel=0 control=51 value=78 time=0
32.294 seconds: control_change channel=0 control=19 value=53 time=0
32.294 seconds: control_change channel=0 control=51 value=120 time=0
32.303 seconds: control_change channel=0 control=19 value=53 time=0
32.303 seconds: control_change channel=0 control=51 value=35 time=0
32.303 seconds: control_change channel=0 control=19 value=52 time=0
32.303 seconds: control_change channel=0 control=51 value=78 time=0
32.313 seconds: control_change channel=0 control=19 value=51 time=0
32.313 seconds: control_change channel=0 control=51 value=121 time=0
32.313 seconds: control_change channel=0 control=19 value=51 time=0
32.314 seconds: control_change channel=0 control=51 value=52 time=0
32.323 seconds: control_change channel=0 control=19 value=50 time=0
32.323 seconds: control_change channel=0 control=51 value=95 time=0
32.323 seconds: control_change channel=0 control=19 value=50 time=0
32.323 seconds: control_change channel=0 control=51 value=27 time=0
32.333 seconds: control_change channel=0 control=19 value=49 time=0
32.334 seconds: control_change channel=0 control=51 value=87 time=0
32.334 seconds: control_change channel=0 control=19 value=49 time=0
32.334 seconds: control_change channel=0 control=51 value=19 time=0
32.343 seconds: control_change channel=0 control=19 value=48 time=0
32.343 seconds: control_change channel=0 control=51 value=78 time=0
32.344 seconds: control_change channel=0 control=19 value=48 time=0
32.344 seconds: control_change channel=0 control=51 value=10 time=0
32.353 seconds: control_change channel=0 control=19 value=47 time=0
32.353 seconds: control_change channel=0 control=51 value=70 time=0
32.353 seconds: control_change channel=0 control=19 value=47 time=0
32.354 seconds: control_change channel=0 control=51 value=2 time=0
32.363 seconds: control_change channel=0 control=19 value=46 time=0
32.363 seconds: control_change channel=0 control=51 value=79 time=0
32.363 seconds: control_change channel=0 control=19 value=46 time=0
32.363 seconds: control_change channel=0 control=51 value=11 time=0
32.373 seconds: control_change channel=0 control=19 value=45 time=0
32.373 seconds: control_change channel=0 control=51 value=70 time=0
32.380 seconds: control_change channel=0 control=19 value=45 time=0
32.380 seconds: control_change channel=0 control=51 value=2 time=0
32.380 seconds: control_change channel=0 control=19 value=44 time=0
32.380 seconds: control_change channel=0 control=51 value=62 time=0
32.388 seconds: control_change channel=0 control=19 value=43 time=0
32.388 seconds: control_change channel=0 control=51 value=122 time=0
32.389 seconds: control_change channel=0 control=19 value=43 time=0
32.389 seconds: control_change channel=0 control=51 value=54 time=0
32.398 seconds: control_change channel=0 control=19 value=42 time=0
32.398 seconds: control_change channel=0 control=51 value=113 time=0
32.399 seconds: control_change channel=0 control=19 value=42 time=0
32.399 seconds: control_change channel=0 control=51 value=45 time=0
32.408 seconds: control_change channel=0 control=19 value=41 time=0
32.409 seconds: control_change channel=0 control=51 value=105 time=0
32.409 seconds: control_change channel=0 control=19 value=41 time=0
32.409 seconds: control_change channel=0 control=51 value=37 time=0
32.420 seconds: control_change channel=0 control=19 value=40 time=0
32.420 seconds: control_change channel=0 control=51 value=114 time=0
32.420 seconds: control_change channel=0 control=19 value=40 time=0
32.420 seconds: control_change channel=0 control=51 value=63 time=0
32.428 seconds: control_change channel=0 control=19 value=40 time=0
32.429 seconds: control_change channel=0 control=51 value=11 time=0
32.429 seconds: control_change channel=0 control=19 value=39 time=0
32.429 seconds: control_change channel=0 control=51 value=88 time=0
32.438 seconds: control_change channel=0 control=19 value=39 time=0
32.439 seconds: control_change channel=0 control=51 value=37 time=0
32.439 seconds: control_change channel=0 control=19 value=38 time=0
32.439 seconds: control_change channel=0 control=51 value=97 time=0
32.453 seconds: control_change channel=0 control=19 value=37 time=0
32.454 seconds: control_change channel=0 control=51 value=123 time=0
32.454 seconds: control_change channel=0 control=19 value=37 time=0
32.454 seconds: control_change channel=0 control=51 value=71 time=0
32.463 seconds: control_change channel=0 control=19 value=37 time=0
32.464 seconds: control_change channel=0 control=51 value=20 time=0
32.473 seconds: control_change channel=0 control=19 value=36 time=0
32.473 seconds: control_change channel=0 control=51 value=63 time=0
32.474 seconds: control_change channel=0 control=19 value=35 time=0
32.474 seconds: control_change channel=0 control=51 value=123 time=0
32.483 seconds: control_change channel=0 control=19 value=35 time=0
32.484 seconds: control_change channel=0 control=51 value=72 time=0
32.484 seconds: control_change channel=0 control=19 value=35 time=0
32.484 seconds: control_change channel=0 control=51 value=4 time=0
32.493 seconds: control_change channel=0 control=19 value=34 time=0
32.494 seconds: control_change channel=0 control=51 value=63 time=0
32.494 seconds: control_change channel=0 control=19 value=34 time=0
32.494 seconds: control_change channel=0 control=51 value=12 time=0
32.503 seconds: control_change channel=0 control=19 value=33 time=0
32.503 seconds: control_change channel=0 control=51 value=72 time=0
32.503 seconds: control_change channel=0 control=19 value=33 time=0
32.504 seconds: control_change channel=0 control=51 value=4 time=0
32.513 seconds: control_change channel=0 control=19 value=32 time=0
32.514 seconds: control_change channel=0 control=51 value=64 time=0
32.514 seconds: control_change channel=0 control=19 value=32 time=0
32.514 seconds: control_change channel=0 control=51 value=13 time=0
32.523 seconds: control_change channel=0 control=19 value=31 time=0
32.523 seconds: control_change channel=0 control=51 value=72 time=0
32.524 seconds: control_change channel=0 control=19 value=31 time=0
32.524 seconds: control_change channel=0 control=51 value=4 time=0
32.533 seconds: control_change channel=0 control=19 value=30 time=0
32.534 seconds: control_change channel=0 control=51 value=81 time=0
32.534 seconds: control_change channel=0 control=19 value=30 time=0
32.534 seconds: control_change channel=0 control=51 value=30 time=0
32.543 seconds: control_change channel=0 control=19 value=29 time=0
32.543 seconds: control_change channel=0 control=51 value=107 time=0
32.544 seconds: control_change channel=0 control=19 value=29 time=0
32.544 seconds: control_change channel=0 control=51 value=56 time=0
32.553 seconds: control_change channel=0 control=19 value=29 time=0
32.553 seconds: control_change channel=0 control=51 value=4 time=0
32.553 seconds: control_change channel=0 control=19 value=28 time=0
32.554 seconds: control_change channel=0 control=51 value=81 time=0
32.565 seconds: control_change channel=0 control=19 value=28 time=0
32.565 seconds: control_change channel=0 control=51 value=30 time=0
32.565 seconds: control_change channel=0 control=19 value=27 time=0
32.565 seconds: control_change channel=0 control=51 value=90 time=0
32.573 seconds: control_change channel=0 control=19 value=27 time=0
32.573 seconds: control_change channel=0 control=51 value=39 time=0
32.574 seconds: control_change channel=0 control=19 value=26 time=0
32.574 seconds: control_change channel=0 control=51 value=116 time=0
32.583 seconds: control_change channel=0 control=19 value=26 time=0
32.584 seconds: control_change channel=0 control=51 value=65 time=0
32.584 seconds: control_change channel=0 control=19 value=25 time=0
32.584 seconds: control_change channel=0 control=51 value=124 time=0
32.593 seconds: control_change channel=0 control=19 value=25 time=0
32.594 seconds: control_change channel=0 control=51 value=73 time=0
32.594 seconds: control_change channel=0 control=19 value=25 time=0
32.594 seconds: control_change channel=0 control=51 value=22 time=0
32.603 seconds: control_change channel=0 control=19 value=24 time=0
32.603 seconds: control_change channel=0 control=51 value=99 time=0
32.604 seconds: control_change channel=0 control=19 value=24 time=0
32.604 seconds: control_change channel=0 control=51 value=48 time=0
32.613 seconds: control_change channel=0 control=19 value=23 time=0
32.614 seconds: control_change channel=0 control=51 value=125 time=0
32.614 seconds: control_change channel=0 control=19 value=23 time=0
32.614 seconds: control_change channel=0 control=51 value=56 time=0
32.623 seconds: control_change channel=0 control=19 value=23 time=0
32.623 seconds: control_change channel=0 control=51 value=5 time=0
32.624 seconds: control_change channel=0 control=19 value=22 time=0
32.624 seconds: control_change channel=0 control=51 value=82 time=0
32.633 seconds: control_change channel=0 control=19 value=22 time=0
32.634 seconds: control_change channel=0 control=51 value=14 time=0
32.634 seconds: control_change channel=0 control=19 value=21 time=0
32.634 seconds: control_change channel=0 control=51 value=91 time=0
32.643 seconds: control_change channel=0 control=19 value=21 time=0
32.643 seconds: control_change channel=0 control=51 value=40 time=0
32.644 seconds: control_change channel=0 control=19 value=20 time=0
32.644 seconds: control_change channel=0 control=51 value=117 time=0
32.653 seconds: control_change channel=0 control=19 value=20 time=0
32.653 seconds: control_change channel=0 control=51 value=48 time=0
32.653 seconds: control_change channel=0 control=19 value=19 time=0
32.653 seconds: control_change channel=0 control=51 value=125 time=0
32.663 seconds: control_change channel=0 control=19 value=19 time=0
32.663 seconds: control_change channel=0 control=51 value=74 time=0
32.663 seconds: control_change channel=0 control=19 value=19 time=0
32.664 seconds: control_change channel=0 control=51 value=23 time=0
32.673 seconds: control_change channel=0 control=19 value=18 time=0
32.674 seconds: control_change channel=0 control=51 value=83 time=0
32.674 seconds: control_change channel=0 control=19 value=18 time=0
32.674 seconds: control_change channel=0 control=51 value=32 time=0
32.685 seconds: control_change channel=0 control=19 value=17 time=0
32.686 seconds: control_change channel=0 control=51 value=108 time=0
32.688 seconds: control_change channel=0 control=19 value=17 time=0
32.688 seconds: control_change channel=0 control=51 value=23 time=0
32.693 seconds: control_change channel=0 control=19 value=16 time=0
32.694 seconds: control_change channel=0 control=51 value=100 time=0
32.694 seconds: control_change channel=0 control=19 value=16 time=0
32.694 seconds: control_change channel=0 control=51 value=32 time=0
32.704 seconds: control_change channel=0 control=19 value=15 time=0
32.704 seconds: control_change channel=0 control=51 value=92 time=0
32.704 seconds: control_change channel=0 control=19 value=15 time=0
32.704 seconds: control_change channel=0 control=51 value=23 time=0
32.713 seconds: control_change channel=0 control=19 value=14 time=0
32.714 seconds: control_change channel=0 control=51 value=83 time=0
32.714 seconds: control_change channel=0 control=19 value=13 time=0
32.714 seconds: control_change channel=0 control=51 value=126 time=0
32.723 seconds: control_change channel=0 control=19 value=13 time=0
32.724 seconds: control_change channel=0 control=51 value=41 time=0
32.724 seconds: control_change channel=0 control=19 value=12 time=0
32.724 seconds: control_change channel=0 control=51 value=84 time=0
32.733 seconds: control_change channel=0 control=19 value=12 time=0
32.734 seconds: control_change channel=0 control=51 value=15 time=0
32.734 seconds: control_change channel=0 control=19 value=11 time=0
32.734 seconds: control_change channel=0 control=51 value=58 time=0
32.743 seconds: control_change channel=0 control=19 value=10 time=0
32.744 seconds: control_change channel=0 control=51 value=118 time=0
32.750 seconds: control_change channel=0 control=19 value=10 time=0
32.750 seconds: control_change channel=0 control=51 value=33 time=0
32.750 seconds: control_change channel=0 control=19 value=9 time=0
32.750 seconds: control_change channel=0 control=51 value=75 time=0
32.758 seconds: control_change channel=0 control=19 value=8 time=0
32.758 seconds: control_change channel=0 control=51 value=118 time=0
32.759 seconds: control_change channel=0 control=19 value=8 time=0
32.759 seconds: control_change channel=0 control=51 value=33 time=0
32.768 seconds: control_change channel=0 control=19 value=7 time=0
32.769 seconds: control_change channel=0 control=51 value=93 time=0
32.769 seconds: control_change channel=0 control=19 value=6 time=0
32.769 seconds: control_change channel=0 control=51 value=118 time=0
32.778 seconds: control_change channel=0 control=19 value=6 time=0
32.779 seconds: control_change channel=0 control=51 value=33 time=0
32.779 seconds: control_change channel=0 control=19 value=5 time=0
32.779 seconds: control_change channel=0 control=51 value=59 time=0
32.788 seconds: control_change channel=0 control=19 value=4 time=0
32.788 seconds: control_change channel=0 control=51 value=119 time=0
32.788 seconds: control_change channel=0 control=19 value=4 time=0
32.789 seconds: control_change channel=0 control=51 value=16 time=0
32.798 seconds: control_change channel=0 control=19 value=3 time=0
32.799 seconds: control_change channel=0 control=51 value=42 time=0
32.799 seconds: control_change channel=0 control=19 value=2 time=0
32.799 seconds: control_change channel=0 control=51 value=68 time=0
32.808 seconds: control_change channel=0 control=19 value=1 time=0
32.809 seconds: control_change channel=0 control=51 value=94 time=0
32.809 seconds: control_change channel=0 control=19 value=0 time=0
32.809 seconds: control_change channel=0 control=51 value=119 time=0
32.818 seconds: control_change channel=0 control=19 value=0 time=0
32.819 seconds: control_change channel=0 control=51 value=17 time=0
32.819 seconds: control_change channel=0 control=19 value=0 time=0
32.819 seconds: control_change channel=0 control=51 value=0 time=0
33.509 seconds: control_change channel=0 control=19 value=0 time=0
33.509 seconds: control_change channel=0 control=51 value=68 time=0
33.509 seconds: control_change channel=0 control=19 value=1 time=0
33.509 seconds: control_change channel=0 control=51 value=25 time=0
33.519 seconds: control_change channel=0 control=19 value=1 time=0
33.519 seconds: control_change channel=0 control=51 value=111 time=0
33.519 seconds: control_change channel=0 control=19 value=2 time=0
33.519 seconds: control_change channel=0 control=51 value=68 time=0
33.529 seconds: control_change channel=0 control=19 value=3 time=0
33.529 seconds: control_change channel=0 control=51 value=59 time=0
33.529 seconds: control_change channel=0 control=19 value=4 time=0
33.529 seconds: control_change channel=0 control=51 value=34 time=0
33.539 seconds: control_change channel=0 control=19 value=5 time=0
33.539 seconds: control_change channel=0 control=51 value=8 time=0
33.539 seconds: control_change channel=0 control=19 value=5 time=0
33.539 seconds: control_change channel=0 control=51 value=127 time=0
33.549 seconds: control_change channel=0 control=19 value=6 time=0
33.549 seconds: control_change channel=0 control=51 value=118 time=0
33.549 seconds: control_change channel=0 control=19 value=7 time=0
33.549 seconds: control_change channel=0 control=51 value=110 time=0
33.558 seconds: control_change channel=0 control=19 value=8 time=0
33.559 seconds: control_change channel=0 control=51 value=118 time=0
33.559 seconds: control_change channel=0 control=19 value=9 time=0
33.559 seconds: control_change channel=0 control=51 value=110 time=0
33.568 seconds: control_change channel=0 control=19 value=10 time=0
33.569 seconds: control_change channel=0 control=51 value=101 time=0
33.569 seconds: control_change channel=0 control=19 value=11 time=0
33.569 seconds: control_change channel=0 control=51 value=92 time=0
33.578 seconds: control_change channel=0 control=19 value=12 time=0
33.579 seconds: control_change channel=0 control=51 value=66 time=0
33.579 seconds: control_change channel=0 control=19 value=13 time=0
33.579 seconds: control_change channel=0 control=51 value=58 time=0
33.589 seconds: control_change channel=0 control=19 value=14 time=0
33.589 seconds: control_change channel=0 control=51 value=66 time=0
33.589 seconds: control_change channel=0 control=19 value=15 time=0
33.589 seconds: control_change channel=0 control=51 value=41 time=0
33.598 seconds: control_change channel=0 control=19 value=16 time=0
33.599 seconds: control_change channel=0 control=51 value=32 time=0
33.599 seconds: control_change channel=0 control=19 value=17 time=0
33.599 seconds: control_change channel=0 control=51 value=40 time=0
33.608 seconds: control_change channel=0 control=19 value=18 time=0
33.609 seconds: control_change channel=0 control=51 value=15 time=0
33.609 seconds: control_change channel=0 control=19 value=19 time=0
33.609 seconds: control_change channel=0 control=51 value=6 time=0
33.619 seconds: control_change channel=0 control=19 value=19 time=0
33.619 seconds: control_change channel=0 control=51 value=108 time=0
33.619 seconds: control_change channel=0 control=19 value=20 time=0
33.619 seconds: control_change channel=0 control=51 value=99 time=0
33.629 seconds: control_change channel=0 control=19 value=21 time=0
33.629 seconds: control_change channel=0 control=51 value=74 time=0
33.629 seconds: control_change channel=0 control=19 value=22 time=0
33.629 seconds: control_change channel=0 control=51 value=65 time=0
33.638 seconds: control_change channel=0 control=19 value=23 time=0
33.639 seconds: control_change channel=0 control=51 value=39 time=0
33.639 seconds: control_change channel=0 control=19 value=24 time=0
33.639 seconds: control_change channel=0 control=51 value=14 time=0
33.648 seconds: control_change channel=0 control=19 value=24 time=0
33.649 seconds: control_change channel=0 control=51 value=116 time=0
33.649 seconds: control_change channel=0 control=19 value=25 time=0
33.649 seconds: control_change channel=0 control=51 value=90 time=0
33.659 seconds: control_change channel=0 control=19 value=26 time=0
33.659 seconds: control_change channel=0 control=51 value=65 time=0
33.659 seconds: control_change channel=0 control=19 value=27 time=0
33.659 seconds: control_change channel=0 control=51 value=39 time=0
33.669 seconds: control_change channel=0 control=19 value=27 time=0
33.669 seconds: control_change channel=0 control=51 value=124 time=0
33.669 seconds: control_change channel=0 control=19 value=28 time=0
33.669 seconds: control_change channel=0 control=51 value=98 time=0
33.679 seconds: control_change channel=0 control=19 value=29 time=0
33.680 seconds: control_change channel=0 control=51 value=56 time=0
33.680 seconds: control_change channel=0 control=19 value=30 time=0
33.680 seconds: control_change channel=0 control=51 value=30 time=0
33.689 seconds: control_change channel=0 control=19 value=30 time=0
33.689 seconds: control_change channel=0 control=51 value=115 time=0
33.689 seconds: control_change channel=0 control=19 value=31 time=0
33.689 seconds: control_change channel=0 control=51 value=89 time=0
33.699 seconds: control_change channel=0 control=19 value=32 time=0
33.699 seconds: control_change channel=0 control=51 value=47 time=0
33.699 seconds: control_change channel=0 control=19 value=33 time=0
33.699 seconds: control_change channel=0 control=51 value=21 time=0
33.709 seconds: control_change channel=0 control=19 value=33 time=0
33.709 seconds: control_change channel=0 control=51 value=123 time=0
33.709 seconds: control_change channel=0 control=19 value=34 time=0
33.709 seconds: control_change channel=0 control=51 value=97 time=0
33.719 seconds: control_change channel=0 control=19 value=35 time=0
33.719 seconds: control_change channel=0 control=51 value=72 time=0
33.719 seconds: control_change channel=0 control=19 value=36 time=0
33.719 seconds: control_change channel=0 control=51 value=46 time=0
33.729 seconds: control_change channel=0 control=19 value=37 time=0
33.729 seconds: control_change channel=0 control=51 value=20 time=0
33.729 seconds: control_change channel=0 control=19 value=38 time=0
33.729 seconds: control_change channel=0 control=51 value=12 time=0
33.738 seconds: control_change channel=0 control=19 value=39 time=0
33.739 seconds: control_change channel=0 control=51 value=3 time=0
33.739 seconds: control_change channel=0 control=19 value=39 time=0
33.739 seconds: control_change channel=0 control=51 value=105 time=0
33.749 seconds: control_change channel=0 control=19 value=40 time=0
33.749 seconds: control_change channel=0 control=51 value=80 time=0
33.749 seconds: control_change channel=0 control=19 value=41 time=0
33.749 seconds: control_change channel=0 control=51 value=54 time=0
33.758 seconds: control_change channel=0 control=19 value=42 time=0
33.759 seconds: control_change channel=0 control=51 value=28 time=0
33.759 seconds: control_change channel=0 control=19 value=43 time=0
33.759 seconds: control_change channel=0 control=51 value=20 time=0
33.769 seconds: control_change channel=0 control=19 value=43 time=0
33.769 seconds: control_change channel=0 control=51 value=122 time=0
33.769 seconds: control_change channel=0 control=19 value=44 time=0
33.769 seconds: control_change channel=0 control=51 value=113 time=0
33.778 seconds: control_change channel=0 control=19 value=45 time=0
33.779 seconds: control_change channel=0 control=51 value=87 time=0
33.779 seconds: control_change channel=0 control=19 value=46 time=0
33.779 seconds: control_change channel=0 control=51 value=62 time=0
33.794 seconds: control_change channel=0 control=19 value=47 time=0
33.794 seconds: control_change channel=0 control=51 value=36 time=0
33.794 seconds: control_change channel=0 control=19 value=48 time=0
33.794 seconds: control_change channel=0 control=51 value=27 time=0
33.794 seconds: control_change channel=0 control=19 value=49 time=0
33.794 seconds: control_change channel=0 control=51 value=2 time=0
33.803 seconds: control_change channel=0 control=19 value=49 time=0
33.804 seconds: control_change channel=0 control=51 value=104 time=0
33.804 seconds: control_change channel=0 control=19 value=50 time=0
33.804 seconds: control_change channel=0 control=51 value=78 time=0
33.814 seconds: control_change channel=0 control=19 value=51 time=0
33.814 seconds: control_change channel=0 control=51 value=35 time=0
33.814 seconds: control_change channel=0 control=19 value=52 time=0
33.814 seconds: control_change channel=0 control=51 value=10 time=0
33.823 seconds: control_change channel=0 control=19 value=52 time=0
33.824 seconds: control_change channel=0 control=51 value=95 time=0
33.824 seconds: control_change channel=0 control=19 value=53 time=0
33.824 seconds: control_change channel=0 control=51 value=52 time=0
33.834 seconds: control_change channel=0 control=19 value=53 time=0
33.834 seconds: control_change channel=0 control=51 value=120 time=0
33.834 seconds: control_change channel=0 control=19 value=54 time=0
33.834 seconds: control_change channel=0 control=51 value=78 time=0
33.844 seconds: control_change channel=0 control=19 value=55 time=0
33.844 seconds: control_change channel=0 control=51 value=35 time=0
33.844 seconds: control_change channel=0 control=19 value=55 time=0
33.844 seconds: control_change channel=0 control=51 value=120 time=0
33.854 seconds: control_change channel=0 control=19 value=56 time=0
33.854 seconds: control_change channel=0 control=51 value=77 time=0
33.854 seconds: control_change channel=0 control=19 value=57 time=0
33.854 seconds: control_change channel=0 control=51 value=35 time=0
33.866 seconds: control_change channel=0 control=19 value=57 time=0
33.866 seconds: control_change channel=0 control=51 value=120 time=0
33.866 seconds: control_change channel=0 control=19 value=58 time=0
33.866 seconds: control_change channel=0 control=51 value=77 time=0
33.874 seconds: control_change channel=0 control=19 value=59 time=0
33.874 seconds: control_change channel=0 control=51 value=51 time=0
33.874 seconds: control_change channel=0 control=19 value=60 time=0
33.874 seconds: control_change channel=0 control=51 value=9 time=0
33.884 seconds: control_change channel=0 control=19 value=60 time=0
33.884 seconds: control_change channel=0 control=51 value=111 time=0
33.884 seconds: control_change channel=0 control=19 value=61 time=0
33.884 seconds: control_change channel=0 control=51 value=85 time=0
33.894 seconds: control_change channel=0 control=19 value=62 time=0
33.894 seconds: control_change channel=0 control=51 value=59 time=0
33.894 seconds: control_change channel=0 control=19 value=63 time=0
33.894 seconds: control_change channel=0 control=51 value=34 time=0
33.904 seconds: control_change channel=0 control=19 value=63 time=0
33.904 seconds: control_change channel=0 control=51 value=119 time=0
33.904 seconds: control_change channel=0 control=19 value=64 time=0
33.904 seconds: control_change channel=0 control=51 value=93 time=0
33.914 seconds: control_change channel=0 control=19 value=65 time=0
33.914 seconds: control_change channel=0 control=51 value=51 time=0
33.914 seconds: control_change channel=0 control=19 value=66 time=0
33.914 seconds: control_change channel=0 control=51 value=25 time=0
33.924 seconds: control_change channel=0 control=19 value=66 time=0
33.924 seconds: control_change channel=0 control=51 value=127 time=0
33.924 seconds: control_change channel=0 control=19 value=67 time=0
33.924 seconds: control_change channel=0 control=51 value=118 time=0
33.934 seconds: control_change channel=0 control=19 value=68 time=0
33.934 seconds: control_change channel=0 control=51 value=93 time=0
33.934 seconds: control_change channel=0 control=19 value=69 time=0
33.934 seconds: control_change channel=0 control=51 value=67 time=0
33.944 seconds: control_change channel=0 control=19 value=70 time=0
33.944 seconds: control_change channel=0 control=51 value=58 time=0
33.944 seconds: control_change channel=0 control=19 value=71 time=0
33.944 seconds: control_change channel=0 control=51 value=33 time=0
33.954 seconds: control_change channel=0 control=19 value=72 time=0
33.954 seconds: control_change channel=0 control=51 value=41 time=0
33.954 seconds: control_change channel=0 control=19 value=73 time=0
33.954 seconds: control_change channel=0 control=51 value=32 time=0
33.964 seconds: control_change channel=0 control=19 value=74 time=0
33.964 seconds: control_change channel=0 control=51 value=24 time=0
33.964 seconds: control_change channel=0 control=19 value=75 time=0
33.964 seconds: control_change channel=0 control=51 value=15 time=0
33.974 seconds: control_change channel=0 control=19 value=76 time=0
33.974 seconds: control_change channel=0 control=51 value=6 time=0
33.974 seconds: control_change channel=0 control=19 value=76 time=0
33.974 seconds: control_change channel=0 control=51 value=126 time=0
33.984 seconds: control_change channel=0 control=19 value=77 time=0
33.984 seconds: control_change channel=0 control=51 value=117 time=0
33.984 seconds: control_change channel=0 control=19 value=78 time=0
33.984 seconds: control_change channel=0 control=51 value=108 time=0
33.994 seconds: control_change channel=0 control=19 value=79 time=0
33.994 seconds: control_change channel=0 control=51 value=117 time=0
33.994 seconds: control_change channel=0 control=19 value=80 time=0
33.994 seconds: control_change channel=0 control=51 value=108 time=0
34.004 seconds: control_change channel=0 control=19 value=81 time=0
34.004 seconds: control_change channel=0 control=51 value=116 time=0
34.004 seconds: control_change channel=0 control=19 value=82 time=0
34.004 seconds: control_change channel=0 control=51 value=108 time=0
34.014 seconds: control_change channel=0 control=19 value=83 time=0
34.014 seconds: control_change channel=0 control=51 value=116 time=0
34.014 seconds: control_change channel=0 control=19 value=84 time=0
34.014 seconds: control_change channel=0 control=51 value=125 time=0
34.024 seconds: control_change channel=0 control=19 value=86 time=0
34.024 seconds: control_change channel=0 control=51 value=5 time=0
34.024 seconds: control_change channel=0 control=19 value=87 time=0
34.024 seconds: control_change channel=0 control=51 value=13 time=0
34.034 seconds: control_change channel=0 control=19 value=88 time=0
34.034 seconds: control_change channel=0 control=51 value=5 time=0
34.034 seconds: control_change channel=0 control=19 value=89 time=0
34.034 seconds: control_change channel=0 control=51 value=13 time=0
34.044 seconds: control_change channel=0 control=19 value=90 time=0
34.044 seconds: control_change channel=0 control=51 value=4 time=0
34.044 seconds: control_change channel=0 control=19 value=90 time=0
34.044 seconds: control_change channel=0 control=51 value=124 time=0
34.054 seconds: control_change channel=0 control=19 value=92 time=0
34.054 seconds: control_change channel=0 control=51 value=4 time=0
34.054 seconds: control_change channel=0 control=19 value=92 time=0
34.054 seconds: control_change channel=0 control=51 value=123 time=0
34.064 seconds: control_change channel=0 control=19 value=93 time=0
34.064 seconds: control_change channel=0 control=51 value=98 time=0
34.064 seconds: control_change channel=0 control=19 value=94 time=0
34.064 seconds: control_change channel=0 control=51 value=106 time=0
34.074 seconds: control_change channel=0 control=19 value=95 time=0
34.074 seconds: control_change channel=0 control=51 value=97 time=0
34.074 seconds: control_change channel=0 control=19 value=96 time=0
34.074 seconds: control_change channel=0 control=51 value=89 time=0
34.084 seconds: control_change channel=0 control=19 value=97 time=0
34.084 seconds: control_change channel=0 control=51 value=80 time=0
34.084 seconds: control_change channel=0 control=19 value=98 time=0
34.084 seconds: control_change channel=0 control=51 value=54 time=0
34.094 seconds: control_change channel=0 control=19 value=99 time=0
34.094 seconds: control_change channel=0 control=51 value=46 time=0
34.094 seconds: control_change channel=0 control=19 value=100 time=0
34.094 seconds: control_change channel=0 control=51 value=37 time=0
34.104 seconds: control_change channel=0 control=19 value=101 time=0
34.104 seconds: control_change channel=0 control=51 value=11 time=0
34.104 seconds: control_change channel=0 control=19 value=102 time=0
34.104 seconds: control_change channel=0 control=51 value=3 time=0
34.114 seconds: control_change channel=0 control=19 value=102 time=0
34.114 seconds: control_change channel=0 control=51 value=105 time=0
34.114 seconds: control_change channel=0 control=19 value=103 time=0
34.114 seconds: control_change channel=0 control=51 value=79 time=0
34.124 seconds: control_change channel=0 control=19 value=104 time=0
34.124 seconds: control_change channel=0 control=51 value=71 time=0
34.124 seconds: control_change channel=0 control=19 value=105 time=0
34.124 seconds: control_change channel=0 control=51 value=45 time=0
34.134 seconds: control_change channel=0 control=19 value=106 time=0
34.134 seconds: control_change channel=0 control=51 value=19 time=0
34.134 seconds: control_change channel=0 control=19 value=106 time=0
34.134 seconds: control_change channel=0 control=51 value=104 time=0
34.144 seconds: control_change channel=0 control=19 value=107 time=0
34.144 seconds: control_change channel=0 control=51 value=96 time=0
34.145 seconds: control_change channel=0 control=19 value=108 time=0
34.145 seconds: control_change channel=0 control=51 value=53 time=0
34.154 seconds: control_change channel=0 control=19 value=109 time=0
34.154 seconds: control_change channel=0 control=51 value=44 time=0
34.154 seconds: control_change channel=0 control=19 value=110 time=0
34.154 seconds: control_change channel=0 control=51 value=2 time=0
34.164 seconds: control_change channel=0 control=19 value=110 time=0
34.164 seconds: control_change channel=0 control=51 value=104 time=0
34.164 seconds: control_change channel=0 control=19 value=111 time=0
34.164 seconds: control_change channel=0 control=51 value=61 time=0
34.174 seconds: control_change channel=0 control=19 value=112 time=0
34.174 seconds: control_change channel=0 control=51 value=35 time=0
34.174 seconds: control_change channel=0 control=19 value=112 time=0
34.174 seconds: control_change channel=0 control=51 value=121 time=0
34.184 seconds: control_change channel=0 control=19 value=113 time=0
34.184 seconds: control_change channel=0 control=51 value=95 time=0
34.189 seconds: control_change channel=0 control=19 value=114 time=0
34.189 seconds: control_change channel=0 control=51 value=69 time=0
34.189 seconds: control_change channel=0 control=19 value=115 time=0
34.189 seconds: control_change channel=0 control=51 value=61 time=0
34.199 seconds: control_change channel=0 control=19 value=116 time=0
34.199 seconds: control_change channel=0 control=51 value=35 time=0
34.199 seconds: control_change channel=0 control=19 value=117 time=0
34.199 seconds: control_change channel=0 control=51 value=26 time=0
34.209 seconds: control_change channel=0 control=19 value=118 time=0
34.209 seconds: control_change channel=0 control=51 value=17 time=0
34.209 seconds: control_change channel=0 control=19 value=119 time=0
34.209 seconds: control_change channel=0 control=51 value=9 time=0
34.219 seconds: control_change channel=0 control=19 value=120 time=0
34.219 seconds: control_change channel=0 control=51 value=0 time=0
34.219 seconds: control_change channel=0 control=19 value=120 time=0
34.219 seconds: control_change channel=0 control=51 value=119 time=0
34.229 seconds: control_change channel=0 control=19 value=121 time=0
34.229 seconds: control_change channel=0 control=51 value=111 time=0
34.229 seconds: control_change channel=0 control=19 value=122 time=0
34.229 seconds: control_change channel=0 control=51 value=102 time=0
34.239 seconds: control_change channel=0 control=19 value=123 time=0
34.239 seconds: control_change channel=0 control=51 value=59 time=0
34.239 seconds: control_change channel=0 control=19 value=124 time=0
34.239 seconds: control_change channel=0 control=51 value=51 time=0
34.249 seconds: control_change channel=0 control=19 value=125 time=0
34.249 seconds: control_change channel=0 control=51 value=25 time=0
34.249 seconds: control_change channel=0 control=19 value=125 time=0
34.249 seconds: control_change channel=0 control=51 value=127 time=0
34.259 seconds: control_change channel=0 control=19 value=126 time=0
34.259 seconds: control_change channel=0 control=51 value=102 time=0
34.259 seconds: control_change channel=0 control=19 value=127 time=0
34.259 seconds: control_change channel=0 control=51 value=59 time=0
34.269 seconds: control_change channel=0 control=19 value=127 time=0
34.269 seconds: control_change channel=0 control=51 value=127 time=0
35.424 seconds: control_change channel=0 control=19 value=127 time=0
35.424 seconds: control_change channel=0 control=51 value=93 time=0
35.434 seconds: control_change channel=0 control=19 value=127 time=0
35.434 seconds: control_change channel=0 control=51 value=8 time=0
35.434 seconds: control_change channel=0 control=19 value=126 time=0
35.434 seconds: control_change channel=0 control=51 value=85 time=0
35.445 seconds: control_change channel=0 control=19 value=126 time=0
35.445 seconds: control_change channel=0 control=51 value=33 time=0
35.445 seconds: control_change channel=0 control=19 value=125 time=0
35.445 seconds: control_change channel=0 control=51 value=110 time=0
35.454 seconds: control_change channel=0 control=19 value=125 time=0
35.454 seconds: control_change channel=0 control=51 value=42 time=0
35.454 seconds: control_change channel=0 control=19 value=124 time=0
35.454 seconds: control_change channel=0 control=51 value=102 time=0
35.464 seconds: control_change channel=0 control=19 value=124 time=0
35.464 seconds: control_change channel=0 control=51 value=34 time=0
35.464 seconds: control_change channel=0 control=19 value=123 time=0
35.464 seconds: control_change channel=0 control=51 value=93 time=0
35.474 seconds: control_change channel=0 control=19 value=123 time=0
35.474 seconds: control_change channel=0 control=51 value=42 time=0
35.474 seconds: control_change channel=0 control=19 value=122 time=0
35.474 seconds: control_change channel=0 control=51 value=119 time=0
35.484 seconds: control_change channel=0 control=19 value=122 time=0
35.484 seconds: control_change channel=0 control=51 value=51 time=0
35.490 seconds: control_change channel=0 control=19 value=121 time=0
35.490 seconds: control_change channel=0 control=51 value=111 time=0
35.490 seconds: control_change channel=0 control=19 value=121 time=0
35.490 seconds: control_change channel=0 control=51 value=60 time=0
35.499 seconds: control_change channel=0 control=19 value=120 time=0
35.499 seconds: control_change channel=0 control=51 value=119 time=0
35.499 seconds: control_change channel=0 control=19 value=120 time=0
35.499 seconds: control_change channel=0 control=51 value=68 time=0
35.509 seconds: control_change channel=0 control=19 value=120 time=0
35.509 seconds: control_change channel=0 control=51 value=17 time=0
35.509 seconds: control_change channel=0 control=19 value=119 time=0
35.509 seconds: control_change channel=0 control=51 value=77 time=0
35.519 seconds: control_change channel=0 control=19 value=119 time=0
35.519 seconds: control_change channel=0 control=51 value=26 time=0
35.529 seconds: control_change channel=0 control=19 value=118 time=0
35.529 seconds: control_change channel=0 control=51 value=86 time=0
35.539 seconds: control_change channel=0 control=19 value=118 time=0
35.539 seconds: control_change channel=0 control=51 value=17 time=0
35.549 seconds: control_change channel=0 control=19 value=117 time=0
35.549 seconds: control_change channel=0 control=51 value=94 time=0
35.559 seconds: control_change channel=0 control=19 value=117 time=0
35.559 seconds: control_change channel=0 control=51 value=43 time=0
35.569 seconds: control_change channel=0 control=19 value=116 time=0
35.569 seconds: control_change channel=0 control=51 value=120 time=0
35.579 seconds: control_change channel=0 control=19 value=116 time=0
35.579 seconds: control_change channel=0 control=51 value=69 time=0
35.589 seconds: control_change channel=0 control=19 value=116 time=0
35.589 seconds: control_change channel=0 control=51 value=18 time=0
35.599 seconds: control_change channel=0 control=19 value=115 time=0
35.599 seconds: control_change channel=0 control=51 value=95 time=0
35.599 seconds: control_change channel=0 control=19 value=115 time=0
35.599 seconds: control_change channel=0 control=51 value=43 time=0
35.614 seconds: control_change channel=0 control=19 value=114 time=0
35.614 seconds: control_change channel=0 control=51 value=103 time=0
35.624 seconds: control_change channel=0 control=19 value=114 time=0
35.624 seconds: control_change channel=0 control=51 value=35 time=0
35.634 seconds: control_change channel=0 control=19 value=113 time=0
35.634 seconds: control_change channel=0 control=51 value=95 time=0
35.644 seconds: control_change channel=0 control=19 value=113 time=0
35.644 seconds: control_change channel=0 control=51 value=44 time=0
35.654 seconds: control_change channel=0 control=19 value=112 time=0
35.654 seconds: control_change channel=0 control=51 value=121 time=0
35.664 seconds: control_change channel=0 control=19 value=112 time=0
35.664 seconds: control_change channel=0 control=51 value=69 time=0
35.679 seconds: control_change channel=0 control=19 value=112 time=0
35.679 seconds: control_change channel=0 control=51 value=18 time=0
35.699 seconds: control_change channel=0 control=19 value=111 time=0
35.699 seconds: control_change channel=0 control=51 value=95 time=0
35.714 seconds: control_change channel=0 control=19 value=111 time=0
35.714 seconds: control_change channel=0 control=51 value=27 time=0
35.724 seconds: control_change channel=0 control=19 value=110 time=0
35.724 seconds: control_change channel=0 control=51 value=87 time=0
35.734 seconds: control_change channel=0 control=19 value=110 time=0
35.734 seconds: control_change channel=0 control=51 value=36 time=0
35.744 seconds: control_change channel=0 control=19 value=109 time=0
35.744 seconds: control_change channel=0 control=51 value=95 time=0
35.754 seconds: control_change channel=0 control=19 value=109 time=0
35.758 seconds: control_change channel=0 control=51 value=44 time=0
35.764 seconds: control_change channel=0 control=19 value=108 time=0
35.764 seconds: control_change channel=0 control=51 value=121 time=0
35.774 seconds: control_change channel=0 control=19 value=108 time=0
35.774 seconds: control_change channel=0 control=51 value=70 time=0
35.789 seconds: control_change channel=0 control=19 value=108 time=0
35.789 seconds: control_change channel=0 control=51 value=19 time=0
35.815 seconds: control_change channel=0 control=19 value=107 time=0
35.815 seconds: control_change channel=0 control=51 value=96 time=0
35.834 seconds: control_change channel=0 control=19 value=107 time=0
35.834 seconds: control_change channel=0 control=51 value=45 time=0
35.859 seconds: control_change channel=0 control=19 value=106 time=0
35.859 seconds: control_change channel=0 control=51 value=121 time=0
35.884 seconds: control_change channel=0 control=19 value=106 time=0
35.884 seconds: control_change channel=0 control=51 value=70 time=0
35.924 seconds: control_change channel=0 control=19 value=106 time=0
35.924 seconds: control_change channel=0 control=51 value=19 time=0
35.969 seconds: control_change channel=0 control=19 value=105 time=0
35.969 seconds: control_change channel=0 control=51 value=96 time=0
35.984 seconds: control_change channel=0 control=19 value=105 time=0
35.984 seconds: control_change channel=0 control=51 value=45 time=0
35.999 seconds: control_change channel=0 control=19 value=104 time=0
35.999 seconds: control_change channel=0 control=51 value=105 time=0
36.014 seconds: control_change channel=0 control=19 value=104 time=0
36.014 seconds: control_change channel=0 control=51 value=54 time=0
36.029 seconds: control_change channel=0 control=19 value=104 time=0
36.029 seconds: control_change channel=0 control=51 value=2 time=0
36.095 seconds: control_change channel=0 control=19 value=103 time=0
36.095 seconds: control_change channel=0 control=51 value=79 time=0
36.114 seconds: control_change channel=0 control=19 value=103 time=0
36.114 seconds: control_change channel=0 control=51 value=28 time=0
36.129 seconds: control_change channel=0 control=19 value=102 time=0
36.129 seconds: control_change channel=0 control=51 value=88 time=0
36.149 seconds: control_change channel=0 control=19 value=102 time=0
36.149 seconds: control_change channel=0 control=51 value=37 time=0
36.344 seconds: control_change channel=0 control=19 value=101 time=0
36.344 seconds: control_change channel=0 control=51 value=114 time=0
36.354 seconds: control_change channel=0 control=19 value=101 time=0
36.354 seconds: control_change channel=0 control=51 value=62 time=0
36.369 seconds: control_change channel=0 control=19 value=101 time=0
36.369 seconds: control_change channel=0 control=51 value=11 time=0
36.384 seconds: control_change channel=0 control=19 value=100 time=0
36.384 seconds: control_change channel=0 control=51 value=71 time=0
36.409 seconds: control_change channel=0 control=19 value=100 time=0
36.409 seconds: control_change channel=0 control=51 value=20 time=0
36.599 seconds: control_change channel=0 control=19 value=99 time=0
36.599 seconds: control_change channel=0 control=51 value=97 time=0
36.659 seconds: control_change channel=0 control=19 value=99 time=0
36.659 seconds: control_change channel=0 control=51 value=46 time=0
36.709 seconds: control_change channel=0 control=19 value=98 time=0
36.709 seconds: control_change channel=0 control=51 value=123 time=0
36.739 seconds: control_change channel=0 control=19 value=98 time=0
36.739 seconds: control_change channel=0 control=51 value=71 time=0
36.759 seconds: control_change channel=0 control=19 value=98 time=0
36.759 seconds: control_change channel=0 control=51 value=20 time=0
36.779 seconds: control_change channel=0 control=19 value=97 time=0
36.779 seconds: control_change channel=0 control=51 value=97 time=0
36.799 seconds: control_change channel=0 control=19 value=97 time=0
36.800 seconds: control_change channel=0 control=51 value=46 time=0
36.824 seconds: control_change channel=0 control=19 value=96 time=0
36.824 seconds: control_change channel=0 control=51 value=123 time=0
36.849 seconds: control_change channel=0 control=19 value=96 time=0
36.849 seconds: control_change channel=0 control=51 value=72 time=0
36.874 seconds: control_change channel=0 control=19 value=96 time=0
36.874 seconds: control_change channel=0 control=51 value=21 time=0
36.909 seconds: control_change channel=0 control=19 value=95 time=0
36.909 seconds: control_change channel=0 control=51 value=97 time=0
37.024 seconds: control_change channel=0 control=19 value=95 time=0
37.024 seconds: control_change channel=0 control=51 value=46 time=0
37.124 seconds: control_change channel=0 control=19 value=94 time=0
37.124 seconds: control_change channel=0 control=51 value=123 time=0
37.164 seconds: control_change channel=0 control=19 value=94 time=0
37.164 seconds: control_change channel=0 control=51 value=72 time=0
37.229 seconds: control_change channel=0 control=19 value=94 time=0
37.229 seconds: control_change channel=0 control=51 value=21 time=0
37.254 seconds: control_change channel=0 control=19 value=93 time=0
37.254 seconds: control_change channel=0 control=51 value=98 time=0
37.289 seconds: control_change channel=0 control=19 value=93 time=0
37.289 seconds: control_change channel=0 control=51 value=47 time=0
37.309 seconds: control_change channel=0 control=19 value=92 time=0
37.309 seconds: control_change channel=0 control=51 value=123 time=0
37.339 seconds: control_change channel=0 control=19 value=92 time=0
37.339 seconds: control_change channel=0 control=51 value=72 time=0
37.409 seconds: control_change channel=0 control=19 value=92 time=0
37.409 seconds: control_change channel=0 control=51 value=21 time=0
37.434 seconds: control_change channel=0 control=19 value=91 time=0
37.434 seconds: control_change channel=0 control=51 value=98 time=0
37.444 seconds: control_change channel=0 control=19 value=91 time=0
37.444 seconds: control_change channel=0 control=51 value=47 time=0
37.459 seconds: control_change channel=0 control=19 value=90 time=0
37.459 seconds: control_change channel=0 control=51 value=124 time=0
37.469 seconds: control_change channel=0 control=19 value=90 time=0
37.469 seconds: control_change channel=0 control=51 value=73 time=0
37.484 seconds: control_change channel=0 control=19 value=90 time=0
37.484 seconds: control_change channel=0 control=51 value=21 time=0
37.499 seconds: control_change channel=0 control=19 value=89 time=0
37.499 seconds: control_change channel=0 control=51 value=98 time=0
37.529 seconds: control_change channel=0 control=19 value=89 time=0
37.529 seconds: control_change channel=0 control=51 value=47 time=0
37.614 seconds: control_change channel=0 control=19 value=88 time=0
37.614 seconds: control_change channel=0 control=51 value=124 time=0
37.649 seconds: control_change channel=0 control=19 value=88 time=0
37.649 seconds: control_change channel=0 control=51 value=73 time=0
37.684 seconds: control_change channel=0 control=19 value=88 time=0
37.684 seconds: control_change channel=0 control=51 value=22 time=0
37.724 seconds: control_change channel=0 control=19 value=87 time=0
37.724 seconds: control_change channel=0 control=51 value=99 time=0
37.749 seconds: control_change channel=0 control=19 value=87 time=0
37.749 seconds: control_change channel=0 control=51 value=47 time=0
37.939 seconds: control_change channel=0 control=19 value=86 time=0
37.939 seconds: control_change channel=0 control=51 value=107 time=0
37.954 seconds: control_change channel=0 control=19 value=86 time=0
37.954 seconds: control_change channel=0 control=51 value=56 time=0
37.964 seconds: control_change channel=0 control=19 value=86 time=0
37.964 seconds: control_change channel=0 control=51 value=5 time=0
37.984 seconds: control_change channel=0 control=19 value=85 time=0
37.984 seconds: control_change channel=0 control=51 value=82 time=0
37.984 seconds: control_change channel=0 control=19 value=85 time=0
37.984 seconds: control_change channel=0 control=51 value=31 time=0
38.004 seconds: control_change channel=0 control=19 value=84 time=0
38.004 seconds: control_change channel=0 control=51 value=107 time=0
38.014 seconds: control_change channel=0 control=19 value=84 time=0
38.014 seconds: control_change channel=0 control=51 value=56 time=0
38.029 seconds: control_change channel=0 control=19 value=84 time=0
38.029 seconds: control_change channel=0 control=51 value=5 time=0
38.049 seconds: control_change channel=0 control=19 value=83 time=0
38.049 seconds: control_change channel=0 control=51 value=82 time=0
38.074 seconds: control_change channel=0 control=19 value=83 time=0
38.074 seconds: control_change channel=0 control=51 value=31 time=0
38.114 seconds: control_change channel=0 control=19 value=82 time=0
38.114 seconds: control_change channel=0 control=51 value=108 time=0
38.139 seconds: control_change channel=0 control=19 value=82 time=0
38.139 seconds: control_change channel=0 control=51 value=57 time=0
38.169 seconds: control_change channel=0 control=19 value=82 time=0
38.169 seconds: control_change channel=0 control=51 value=5 time=0
38.204 seconds: control_change channel=0 control=19 value=81 time=0
38.204 seconds: control_change channel=0 control=51 value=82 time=0
38.269 seconds: control_change channel=0 control=19 value=81 time=0
38.269 seconds: control_change channel=0 control=51 value=31 time=0
38.289 seconds: control_change channel=0 control=19 value=80 time=0
38.289 seconds: control_change channel=0 control=51 value=108 time=0
38.304 seconds: control_change channel=0 control=19 value=80 time=0
38.304 seconds: control_change channel=0 control=51 value=57 time=0
38.324 seconds: control_change channel=0 control=19 value=80 time=0
38.325 seconds: control_change channel=0 control=51 value=6 time=0
38.349 seconds: control_change channel=0 control=19 value=79 time=0
38.349 seconds: control_change channel=0 control=51 value=83 time=0
40.396 seconds: control_change channel=0 control=0 value=28 time=0
40.396 seconds: control_change channel=0 control=32 value=64 time=0
40.477 seconds: control_change channel=0 control=0 value=28 time=0
40.477 seconds: control_change channel=0 control=32 value=113 time=0
40.504 seconds: control_change channel=0 control=0 value=29 time=0
40.504 seconds: control_change channel=0 control=32 value=34 time=0
40.522 seconds: control_change channel=0 control=0 value=29 time=0
40.522 seconds: control_change channel=0 control=32 value=83 time=0
40.540 seconds: control_change channel=0 control=0 value=30 time=0
40.540 seconds: control_change channel=0 control=32 value=20 time=0
40.558 seconds: control_change channel=0 control=0 value=30 time=0
40.558 seconds: control_change channel=0 control=32 value=69 time=0
40.567 seconds: control_change channel=0 control=0 value=30 time=0
40.567 seconds: control_change channel=0 control=32 value=118 time=0
40.576 seconds: control_change channel=0 control=0 value=31 time=0
40.576 seconds: control_change channel=0 control=32 value=38 time=0
40.585 seconds: control_change channel=0 control=0 value=31 time=0
40.585 seconds: control_change channel=0 control=32 value=87 time=0
40.594 seconds: control_change channel=0 control=0 value=32 time=0
40.594 seconds: control_change channel=0 control=32 value=24 time=0
40.603 seconds: control_change channel=0 control=0 value=32 time=0
40.603 seconds: control_change channel=0 control=32 value=90 time=0
40.612 seconds: control_change channel=0 control=0 value=33 time=0
40.612 seconds: control_change channel=0 control=32 value=27 time=0
40.621 seconds: control_change channel=0 control=0 value=33 time=0
40.621 seconds: control_change channel=0 control=32 value=76 time=0
40.630 seconds: control_change channel=0 control=0 value=33 time=0
40.630 seconds: control_change channel=0 control=32 value=124 time=0
40.648 seconds: control_change channel=0 control=0 value=34 time=0
40.648 seconds: control_change channel=0 control=32 value=45 time=0
40.657 seconds: control_change channel=0 control=0 value=34 time=0
40.657 seconds: control_change channel=0 control=32 value=94 time=0
40.693 seconds: control_change channel=0 control=0 value=35 time=0
40.693 seconds: control_change channel=0 control=32 value=15 time=0
40.702 seconds: control_change channel=0 control=0 value=35 time=0
40.702 seconds: control_change channel=0 control=32 value=80 time=0
40.711 seconds: control_change channel=0 control=0 value=36 time=0
40.711 seconds: control_change channel=0 control=32 value=34 time=0
40.720 seconds: control_change channel=0 control=0 value=37 time=0
40.720 seconds: control_change channel=0 control=32 value=36 time=0
40.729 seconds: control_change channel=0 control=0 value=37 time=0
40.729 seconds: control_change channel=0 control=32 value=101 time=0
40.739 seconds: control_change channel=0 control=0 value=38 time=0
40.739 seconds: control_change channel=0 control=32 value=120 time=0
40.747 seconds: control_change channel=0 control=0 value=40 time=0
40.747 seconds: control_change channel=0 control=32 value=10 time=0
40.756 seconds: control_change channel=0 control=0 value=41 time=0
40.756 seconds: control_change channel=0 control=32 value=45 time=0
40.765 seconds: control_change channel=0 control=0 value=42 time=0
40.765 seconds: control_change channel=0 control=32 value=31 time=0
40.774 seconds: control_change channel=0 control=0 value=42 time=0
40.774 seconds: control_change channel=0 control=32 value=96 time=0
40.784 seconds: control_change channel=0 control=0 value=43 time=0
40.784 seconds: control_change channel=0 control=32 value=82 time=0
40.792 seconds: control_change channel=0 control=0 value=44 time=0
40.792 seconds: control_change channel=0 control=32 value=3 time=0
40.801 seconds: control_change channel=0 control=0 value=45 time=0
40.801 seconds: control_change channel=0 control=32 value=5 time=0
40.811 seconds: control_change channel=0 control=0 value=45 time=0
40.812 seconds: control_change channel=0 control=32 value=70 time=0
40.828 seconds: control_change channel=0 control=0 value=45 time=0
40.831 seconds: control_change channel=0 control=32 value=119 time=0
40.865 seconds: control_change channel=0 control=0 value=46 time=0
40.866 seconds: control_change channel=0 control=32 value=56 time=0
40.866 seconds: control_change channel=0 control=0 value=46 time=0
40.867 seconds: control_change channel=0 control=32 value=105 time=0
40.869 seconds: control_change channel=0 control=0 value=47 time=0
40.869 seconds: control_change channel=0 control=32 value=26 time=0
40.898 seconds: control_change channel=0 control=0 value=47 time=0
40.898 seconds: control_change channel=0 control=32 value=91 time=0
40.899 seconds: control_change channel=0 control=0 value=48 time=0
40.899 seconds: control_change channel=0 control=32 value=12 time=0
40.899 seconds: control_change channel=0 control=0 value=48 time=0
40.899 seconds: control_change channel=0 control=32 value=77 time=0
40.910 seconds: control_change channel=0 control=0 value=48 time=0
40.910 seconds: control_change channel=0 control=32 value=126 time=0
40.919 seconds: control_change channel=0 control=0 value=49 time=0
40.920 seconds: control_change channel=0 control=32 value=47 time=0
40.927 seconds: control_change channel=0 control=0 value=49 time=0
40.927 seconds: control_change channel=0 control=32 value=96 time=0
40.945 seconds: control_change channel=0 control=0 value=50 time=0
40.947 seconds: control_change channel=0 control=32 value=33 time=0
40.954 seconds: control_change channel=0 control=0 value=50 time=0
40.954 seconds: control_change channel=0 control=32 value=82 time=0
40.963 seconds: control_change channel=0 control=0 value=51 time=0
40.963 seconds: control_change channel=0 control=32 value=19 time=0
40.972 seconds: control_change channel=0 control=0 value=51 time=0
40.972 seconds: control_change channel=0 control=32 value=68 time=0
40.981 seconds: control_change channel=0 control=0 value=51 time=0
40.981 seconds: control_change channel=0 control=32 value=117 time=0
40.990 seconds: control_change channel=0 control=0 value=52 time=0
40.990 seconds: control_change channel=0 control=32 value=54 time=0
41.008 seconds: control_change channel=0 control=0 value=52 time=0
41.008 seconds: control_change channel=0 control=32 value=103 time=0
41.017 seconds: control_change channel=0 control=0 value=53 time=0
41.017 seconds: control_change channel=0 control=32 value=40 time=0
41.026 seconds: control_change channel=0 control=0 value=53 time=0
41.026 seconds: control_change channel=0 control=32 value=89 time=0
41.035 seconds: control_change channel=0 control=0 value=54 time=0
41.035 seconds: control_change channel=0 control=32 value=42 time=0
41.044 seconds: control_change channel=0 control=0 value=54 time=0
41.044 seconds: control_change channel=0 control=32 value=107 time=0
41.053 seconds: control_change channel=0 control=0 value=55 time=0
41.053 seconds: control_change channel=0 control=32 value=45 time=0
41.063 seconds: control_change channel=0 control=0 value=55 time=0
41.063 seconds: control_change channel=0 control=32 value=93 time=0
41.071 seconds: control_change channel=0 control=0 value=56 time=0
41.071 seconds: control_change channel=0 control=32 value=31 time=0
41.080 seconds: control_change channel=0 control=0 value=56 time=0
41.080 seconds: control_change channel=0 control=32 value=96 time=0
41.089 seconds: control_change channel=0 control=0 value=57 time=0
41.089 seconds: control_change channel=0 control=32 value=17 time=0
41.098 seconds: control_change channel=0 control=0 value=57 time=0
41.098 seconds: control_change channel=0 control=32 value=65 time=0
41.107 seconds: control_change channel=0 control=0 value=58 time=0
41.107 seconds: control_change channel=0 control=32 value=3 time=0
41.116 seconds: control_change channel=0 control=0 value=58 time=0
41.116 seconds: control_change channel=0 control=32 value=100 time=0
41.125 seconds: control_change channel=0 control=0 value=59 time=0
41.125 seconds: control_change channel=0 control=32 value=54 time=0
41.134 seconds: control_change channel=0 control=0 value=59 time=0
41.134 seconds: control_change channel=0 control=32 value=119 time=0
41.143 seconds: control_change channel=0 control=0 value=60 time=0
41.143 seconds: control_change channel=0 control=32 value=89 time=0
41.152 seconds: control_change channel=0 control=0 value=61 time=0
41.152 seconds: control_change channel=0 control=32 value=58 time=0
41.161 seconds: control_change channel=0 control=0 value=62 time=0
41.161 seconds: control_change channel=0 control=32 value=28 time=0
41.170 seconds: control_change channel=0 control=0 value=62 time=0
41.170 seconds: control_change channel=0 control=32 value=109 time=0
41.188 seconds: control_change channel=0 control=0 value=63 time=0
41.188 seconds: control_change channel=0 control=32 value=47 time=0
41.197 seconds: control_change channel=0 control=0 value=64 time=0
41.197 seconds: control_change channel=0 control=32 value=0 time=0
41.377 seconds: control_change channel=0 control=0 value=64 time=0
41.377 seconds: control_change channel=0 control=32 value=33 time=0
41.386 seconds: control_change channel=0 control=0 value=64 time=0
41.386 seconds: control_change channel=0 control=32 value=98 time=0
41.395 seconds: control_change channel=0 control=0 value=65 time=0
41.395 seconds: control_change channel=0 control=32 value=84 time=0
41.413 seconds: control_change channel=0 control=0 value=66 time=0
41.413 seconds: control_change channel=0 control=32 value=70 time=0
41.422 seconds: control_change channel=0 control=0 value=67 time=0
41.422 seconds: control_change channel=0 control=32 value=23 time=0
41.431 seconds: control_change channel=0 control=0 value=67 time=0
41.431 seconds: control_change channel=0 control=32 value=72 time=0
41.440 seconds: control_change channel=0 control=0 value=68 time=0
41.440 seconds: control_change channel=0 control=32 value=58 time=0
41.458 seconds: control_change channel=0 control=0 value=68 time=0
41.458 seconds: control_change channel=0 control=32 value=123 time=0
41.467 seconds: control_change channel=0 control=0 value=69 time=0
41.467 seconds: control_change channel=0 control=32 value=77 time=0
41.476 seconds: control_change channel=0 control=0 value=70 time=0
41.476 seconds: control_change channel=0 control=32 value=30 time=0
41.485 seconds: control_change channel=0 control=0 value=70 time=0
41.485 seconds: control_change channel=0 control=32 value=111 time=0
41.494 seconds: control_change channel=0 control=0 value=71 time=0
41.494 seconds: control_change channel=0 control=32 value=48 time=0
41.503 seconds: control_change channel=0 control=0 value=71 time=0
41.503 seconds: control_change channel=0 control=32 value=114 time=0
41.512 seconds: control_change channel=0 control=0 value=72 time=0
41.512 seconds: control_change channel=0 control=32 value=34 time=0
41.521 seconds: control_change channel=0 control=0 value=72 time=0
41.521 seconds: control_change channel=0 control=32 value=83 time=0
41.530 seconds: control_change channel=0 control=0 value=73 time=0
41.530 seconds: control_change channel=0 control=32 value=69 time=0
41.548 seconds: control_change channel=0 control=0 value=74 time=0
41.548 seconds: control_change channel=0 control=32 value=6 time=0
41.557 seconds: control_change channel=0 control=0 value=74 time=0
41.557 seconds: control_change channel=0 control=32 value=104 time=0
41.566 seconds: control_change channel=0 control=0 value=75 time=0
41.566 seconds: control_change channel=0 control=32 value=41 time=0
41.575 seconds: control_change channel=0 control=0 value=75 time=0
41.576 seconds: control_change channel=0 control=32 value=123 time=0
41.584 seconds: control_change channel=0 control=0 value=76 time=0
41.584 seconds: control_change channel=0 control=32 value=44 time=0
41.593 seconds: control_change channel=0 control=0 value=76 time=0
41.593 seconds: control_change channel=0 control=32 value=92 time=0
41.602 seconds: control_change channel=0 control=0 value=77 time=0
41.602 seconds: control_change channel=0 control=32 value=111 time=0
41.611 seconds: control_change channel=0 control=0 value=78 time=0
41.611 seconds: control_change channel=0 control=32 value=97 time=0
41.620 seconds: control_change channel=0 control=0 value=79 time=0
41.620 seconds: control_change channel=0 control=32 value=18 time=0
41.629 seconds: control_change channel=0 control=0 value=79 time=0
41.629 seconds: control_change channel=0 control=32 value=116 time=0
41.638 seconds: control_change channel=0 control=0 value=80 time=0
41.638 seconds: control_change channel=0 control=32 value=85 time=0
41.647 seconds: control_change channel=0 control=0 value=81 time=0
41.647 seconds: control_change channel=0 control=32 value=71 time=0
41.656 seconds: control_change channel=0 control=0 value=82 time=0
41.656 seconds: control_change channel=0 control=32 value=41 time=0
41.665 seconds: control_change channel=0 control=0 value=83 time=0
41.665 seconds: control_change channel=0 control=32 value=27 time=0
41.674 seconds: control_change channel=0 control=0 value=83 time=0
41.674 seconds: control_change channel=0 control=32 value=76 time=0
41.683 seconds: control_change channel=0 control=0 value=84 time=0
41.683 seconds: control_change channel=0 control=32 value=45 time=0
41.692 seconds: control_change channel=0 control=0 value=85 time=0
41.692 seconds: control_change channel=0 control=32 value=15 time=0
41.701 seconds: control_change channel=0 control=0 value=85 time=0
41.701 seconds: control_change channel=0 control=32 value=113 time=0
41.710 seconds: control_change channel=0 control=0 value=86 time=0
41.710 seconds: control_change channel=0 control=32 value=66 time=0
41.728 seconds: control_change channel=0 control=0 value=87 time=0
41.728 seconds: control_change channel=0 control=32 value=20 time=0
41.737 seconds: control_change channel=0 control=0 value=87 time=0
41.737 seconds: control_change channel=0 control=32 value=117 time=0
41.746 seconds: control_change channel=0 control=0 value=88 time=0
41.746 seconds: control_change channel=0 control=32 value=120 time=0
41.755 seconds: control_change channel=0 control=0 value=89 time=0
41.755 seconds: control_change channel=0 control=32 value=106 time=0
41.764 seconds: control_change channel=0 control=0 value=90 time=0
41.764 seconds: control_change channel=0 control=32 value=43 time=0
41.773 seconds: control_change channel=0 control=0 value=91 time=0
41.773 seconds: control_change channel=0 control=32 value=61 time=0
41.782 seconds: control_change channel=0 control=0 value=92 time=0
41.782 seconds: control_change channel=0 control=32 value=113 time=0
41.791 seconds: control_change channel=0 control=0 value=94 time=0
41.791 seconds: control_change channel=0 control=32 value=52 time=0
41.800 seconds: control_change channel=0 control=0 value=95 time=0
41.800 seconds: control_change channel=0 control=32 value=119 time=0
41.809 seconds: control_change channel=0 control=0 value=96 time=0
41.809 seconds: control_change channel=0 control=32 value=56 time=0
41.818 seconds: control_change channel=0 control=0 value=97 time=0
41.818 seconds: control_change channel=0 control=32 value=42 time=0
41.827 seconds: control_change channel=0 control=0 value=98 time=0
41.827 seconds: control_change channel=0 control=32 value=45 time=0
41.836 seconds: control_change channel=0 control=0 value=99 time=0
41.836 seconds: control_change channel=0 control=32 value=63 time=0
41.845 seconds: control_change channel=0 control=0 value=100 time=0
41.845 seconds: control_change channel=0 control=32 value=82 time=0
41.854 seconds: control_change channel=0 control=0 value=101 time=0
41.854 seconds: control_change channel=0 control=32 value=19 time=0
41.863 seconds: control_change channel=0 control=0 value=102 time=0
41.863 seconds: control_change channel=0 control=32 value=21 time=0
41.872 seconds: control_change channel=0 control=0 value=103 time=0
41.872 seconds: control_change channel=0 control=32 value=7 time=0
41.881 seconds: control_change channel=0 control=0 value=103 time=0
41.881 seconds: control_change channel=0 control=32 value=72 time=0
41.890 seconds: control_change channel=0 control=0 value=103 time=0
41.890 seconds: control_change channel=0 control=32 value=121 time=0
41.899 seconds: control_change channel=0 control=0 value=104 time=0
41.899 seconds: control_change channel=0 control=32 value=42 time=0
41.908 seconds: control_change channel=0 control=0 value=104 time=0
41.908 seconds: control_change channel=0 control=32 value=91 time=0
41.917 seconds: control_change channel=0 control=0 value=105 time=0
41.917 seconds: control_change channel=0 control=32 value=28 time=0
41.926 seconds: control_change channel=0 control=0 value=105 time=0
41.926 seconds: control_change channel=0 control=32 value=77 time=0
41.947 seconds: control_change channel=0 control=0 value=106 time=0
41.947 seconds: control_change channel=0 control=32 value=14 time=0
41.953 seconds: control_change channel=0 control=0 value=106 time=0
41.953 seconds: control_change channel=0 control=32 value=79 time=0
41.962 seconds: control_change channel=0 control=0 value=107 time=0
41.962 seconds: control_change channel=0 control=32 value=65 time=0
41.971 seconds: control_change channel=0 control=0 value=109 time=0
41.971 seconds: control_change channel=0 control=32 value=5 time=0
41.980 seconds: control_change channel=0 control=0 value=111 time=0
41.980 seconds: control_change channel=0 control=32 value=42 time=0
41.989 seconds: control_change channel=0 control=0 value=112 time=0
41.989 seconds: control_change channel=0 control=32 value=77 time=0
41.998 seconds: control_change channel=0 control=0 value=115 time=0
41.998 seconds: control_change channel=0 control=32 value=2 time=0
42.007 seconds: control_change channel=0 control=0 value=117 time=0
42.007 seconds: control_change channel=0 control=32 value=72 time=0
42.016 seconds: control_change channel=0 control=0 value=119 time=0
42.016 seconds: control_change channel=0 control=32 value=60 time=0
42.025 seconds: control_change channel=0 control=0 value=120 time=0
42.025 seconds: control_change channel=0 control=32 value=62 time=0
42.034 seconds: control_change channel=0 control=0 value=120 time=0
42.034 seconds: control_change channel=0 control=32 value=111 time=0
42.043 seconds: control_change channel=0 control=0 value=121 time=0
42.043 seconds: control_change channel=0 control=32 value=32 time=0
42.052 seconds: control_change channel=0 control=0 value=121 time=0
42.052 seconds: control_change channel=0 control=32 value=81 time=0
42.088 seconds: control_change channel=0 control=0 value=122 time=0
42.088 seconds: control_change channel=0 control=32 value=2 time=0
42.106 seconds: control_change channel=0 control=0 value=122 time=0
42.106 seconds: control_change channel=0 control=32 value=50 time=0
42.124 seconds: control_change channel=0 control=0 value=122 time=0
42.124 seconds: control_change channel=0 control=32 value=116 time=0
42.133 seconds: control_change channel=0 control=0 value=123 time=0
42.133 seconds: control_change channel=0 control=32 value=36 time=0
42.142 seconds: control_change channel=0 control=0 value=124 time=0
42.142 seconds: control_change channel=0 control=32 value=55 time=0
42.151 seconds: control_change channel=0 control=0 value=126 time=0
42.151 seconds: control_change channel=0 control=32 value=11 time=0
42.160 seconds: control_change channel=0 control=0 value=127 time=0
42.160 seconds: control_change channel=0 control=32 value=127 time=0
43.475 seconds: control_change channel=0 control=35 value=63 time=0
43.488 seconds: control_change channel=0 control=35 value=63 time=0
43.495 seconds: control_change channel=0 control=35 value=63 time=0
43.504 seconds: control_change channel=0 control=35 value=63 time=0
43.514 seconds: control_change channel=0 control=35 value=63 time=0
43.522 seconds: control_change channel=0 control=35 value=63 time=0
43.522 seconds: control_change channel=0 control=35 value=63 time=0
43.534 seconds: control_change channel=0 control=35 value=63 time=0
43.540 seconds: control_change channel=0 control=35 value=63 time=0
43.546 seconds: control_change channel=0 control=35 value=63 time=0
43.546 seconds: control_change channel=0 control=35 value=63 time=0
43.557 seconds: control_change channel=0 control=35 value=63 time=0
43.564 seconds: control_change channel=0 control=35 value=63 time=0
43.564 seconds: control_change channel=0 control=35 value=63 time=0
43.574 seconds: control_change channel=0 control=35 value=63 time=0
43.574 seconds: control_change channel=0 control=35 value=63 time=0
43.586 seconds: control_change channel=0 control=35 value=63 time=0
43.586 seconds: control_change channel=0 control=35 value=63 time=0
43.595 seconds: control_change channel=0 control=35 value=63 time=0
43.601 seconds: control_change channel=0 control=35 value=63 time=0
43.607 seconds: control_change channel=0 control=35 value=63 time=0
43.613 seconds: control_change channel=0 control=35 value=63 time=0
43.613 seconds: control_change channel=0 control=35 value=63 time=0
43.624 seconds: control_change channel=0 control=35 value=63 time=0
43.630 seconds: control_change channel=0 control=35 value=63 time=0
43.636 seconds: control_change channel=0 control=35 value=63 time=0
43.636 seconds: control_change channel=0 control=35 value=63 time=0
43.646 seconds: control_change channel=0 control=35 value=63 time=0
43.653 seconds: control_change channel=0 control=35 value=63 time=0
43.659 seconds: control_change channel=0 control=35 value=63 time=0
43.659 seconds: control_change channel=0 control=35 value=63 time=0
43.669 seconds: control_change channel=0 control=35 value=63 time=0
43.669 seconds: control_change channel=0 control=35 value=63 time=0
43.680 seconds: control_change channel=0 control=35 value=63 time=0
43.680 seconds: control_change channel=0 control=35 value=63 time=0
43.689 seconds: control_change channel=0 control=35 value=63 time=0
43.695 seconds: control_change channel=0 control=35 value=63 time=0
43.695 seconds: control_change channel=0 control=35 value=63 time=0
43.703 seconds: control_change channel=0 control=35 value=63 time=0
43.703 seconds: control_change channel=0 control=35 value=63 time=0
43.712 seconds: control_change channel=0 control=35 value=63 time=0
43.712 seconds: control_change channel=0 control=35 value=63 time=0
43.719 seconds: control_change channel=0 control=35 value=63 time=0
43.719 seconds: control_change channel=0 control=35 value=63 time=0
43.729 seconds: control_change channel=0 control=35 value=63 time=0
43.729 seconds: control_change channel=0 control=35 value=63 time=0
43.737 seconds: control_change channel=0 control=35 value=63 time=0
43.737 seconds: control_change channel=0 control=35 value=63 time=0
43.746 seconds: control_change channel=0 control=35 value=63 time=0
43.746 seconds: control_change channel=0 control=35 value=63 time=0
43.754 seconds: control_change channel=0 control=35 value=63 time=0
43.754 seconds: control_change channel=0 control=35 value=63 time=0
43.764 seconds: control_change channel=0 control=35 value=63 time=0
43.764 seconds: control_change channel=0 control=35 value=63 time=0
43.771 seconds: control_change channel=0 control=35 value=63 time=0
43.771 seconds: control_change channel=0 control=35 value=63 time=0
43.780 seconds: control_change channel=0 control=35 value=63 time=0
43.780 seconds: control_change channel=0 control=35 value=63 time=0
43.786 seconds: control_change channel=0 control=35 value=63 time=0
43.786 seconds: control_change channel=0 control=35 value=63 time=0
43.795 seconds: control_change channel=0 control=35 value=63 time=0
43.795 seconds: control_change channel=0 control=35 value=63 time=0
43.801 seconds: control_change channel=0 control=35 value=63 time=0
43.801 seconds: control_change channel=0 control=35 value=63 time=0
43.809 seconds: control_change channel=0 control=35 value=63 time=0
43.809 seconds: control_change channel=0 control=35 value=63 time=0
43.815 seconds: control_change channel=0 control=35 value=63 time=0
43.815 seconds: control_change channel=0 control=33 value=63 time=0
43.822 seconds: control_change channel=0 control=35 value=63 time=0
43.822 seconds: control_change channel=0 control=35 value=63 time=0
43.828 seconds: control_change channel=0 control=35 value=63 time=0
43.828 seconds: control_change channel=0 control=35 value=63 time=0
43.834 seconds: control_change channel=0 control=35 value=63 time=0
43.834 seconds: control_change channel=0 control=35 value=63 time=0
43.834 seconds: control_change channel=0 control=35 value=63 time=0
43.841 seconds: control_change channel=0 control=35 value=63 time=0
43.841 seconds: control_change channel=0 control=35 value=63 time=0
43.847 seconds: control_change channel=0 control=35 value=63 time=0
43.847 seconds: control_change channel=0 control=35 value=63 time=0
43.847 seconds: control_change channel=0 control=35 value=63 time=0
43.854 seconds: control_change channel=0 control=35 value=63 time=0
43.854 seconds: control_change channel=0 control=35 value=63 time=0
43.854 seconds: control_change channel=0 control=35 value=63 time=0
43.861 seconds: control_change channel=0 control=35 value=63 time=0
43.861 seconds: control_change channel=0 control=35 value=63 time=0
43.861 seconds: control_change channel=0 control=35 value=63 time=0
43.873 seconds: control_change channel=0 control=35 value=63 time=0
43.873 seconds: control_change channel=0 control=35 value=63 time=0
43.873 seconds: control_change channel=0 control=35 value=63 time=0
43.873 seconds: control_change channel=0 control=35 value=63 time=0
43.873 seconds: control_change channel=0 control=35 value=63 time=0
43.879 seconds: control_change channel=0 control=35 value=63 time=0
43.879 seconds: control_change channel=0 control=35 value=63 time=0
43.879 seconds: control_change channel=0 control=35 value=63 time=0
43.885 seconds: control_change channel=0 control=35 value=63 time=0
43.885 seconds: control_change channel=0 control=35 value=63 time=0
43.885 seconds: control_change channel=0 control=35 value=63 time=0
43.892 seconds: control_change channel=0 control=35 value=63 time=0
43.892 seconds: control_change channel=0 control=35 value=63 time=0
43.892 seconds: control_change channel=0 control=35 value=63 time=0
43.899 seconds: control_change channel=0 control=35 value=63 time=0
43.899 seconds: control_change channel=0 control=35 value=63 time=0
43.899 seconds: control_change channel=0 control=35 value=63 time=0
43.905 seconds: control_change channel=0 control=35 value=63 time=0
43.905 seconds: control_change channel=0 control=35 value=63 time=0
43.905 seconds: control_change channel=0 control=35 value=63 time=0
43.912 seconds: control_change channel=0 control=35 value=63 time=0
43.912 seconds: control_change channel=0 control=35 value=63 time=0
43.918 seconds: control_change channel=0 control=35 value=63 time=0
43.918 seconds: control_change channel=0 control=35 value=63 time=0
43.918 seconds: control_change channel=0 control=35 value=63 time=0
43.925 seconds: control_change channel=0 control=35 value=63 time=0
43.925 seconds: control_change channel=0 control=35 value=63 time=0
43.931 seconds: control_change channel=0 control=35 value=63 time=0
43.931 seconds: control_change channel=0 control=35 value=63 time=0
43.931 seconds: control_change channel=0 control=35 value=63 time=0
43.940 seconds: control_change channel=0 control=35 value=63 time=0
43.940 seconds: control_change channel=0 control=35 value=63 time=0
43.946 seconds: control_change channel=0 control=35 value=63 time=0
43.946 seconds: control_change channel=0 control=35 value=63 time=0
43.953 seconds: control_change channel=0 control=35 value=63 time=0
43.953 seconds: control_change channel=0 control=35 value=63 time=0
43.959 seconds: control_change channel=0 control=35 value=63 time=0
43.959 seconds: control_change channel=0 control=35 value=63 time=0
43.969 seconds: control_change channel=0 control=35 value=63 time=0
43.969 seconds: control_change channel=0 control=35 value=63 time=0
43.976 seconds: control_change channel=0 control=35 value=63 time=0
43.976 seconds: control_change channel=0 control=35 value=63 time=0
43.985 seconds: control_change channel=0 control=35 value=63 time=0
43.985 seconds: control_change channel=0 control=35 value=63 time=0
43.993 seconds: control_change channel=0 control=35 value=63 time=0
43.993 seconds: control_change channel=0 control=35 value=63 time=0
44.003 seconds: control_change channel=0 control=35 value=63 time=0
44.003 seconds: control_change channel=0 control=35 value=63 time=0
44.012 seconds: control_change channel=0 control=35 value=63 time=0
44.012 seconds: control_change channel=0 control=35 value=63 time=0
44.023 seconds: control_change channel=0 control=35 value=63 time=0
44.023 seconds: control_change channel=0 control=35 value=63 time=0
44.032 seconds: control_change channel=0 control=35 value=63 time=0
44.038 seconds: control_change channel=0 control=35 value=63 time=0
44.045 seconds: control_change channel=0 control=35 value=63 time=0
44.045 seconds: control_change channel=0 control=35 value=63 time=0
44.054 seconds: control_change channel=0 control=35 value=63 time=0
44.060 seconds: control_change channel=0 control=35 value=63 time=0
44.066 seconds: control_change channel=0 control=35 value=63 time=0
44.066 seconds: control_change channel=0 control=35 value=63 time=0
44.075 seconds: control_change channel=0 control=35 value=63 time=0
44.075 seconds: control_change channel=0 control=35 value=63 time=0
44.086 seconds: control_change channel=0 control=35 value=63 time=0
44.086 seconds: control_change channel=0 control=35 value=63 time=0
44.094 seconds: control_change channel=0 control=35 value=63 time=0
44.094 seconds: control_change channel=0 control=35 value=63 time=0
44.104 seconds: control_change channel=0 control=35 value=63 time=0
44.104 seconds: control_change channel=0 control=35 value=63 time=0
44.112 seconds: control_change channel=0 control=35 value=63 time=0
44.112 seconds: control_change channel=0 control=35 value=63 time=0
44.122 seconds: control_change channel=0 control=35 value=63 time=0
44.128 seconds: control_change channel=0 control=35 value=63 time=0
44.128 seconds: control_change channel=0 control=35 value=63 time=0
44.134 seconds: control_change channel=0 control=35 value=63 time=0
44.134 seconds: control_change channel=0 control=35 value=63 time=0
44.142 seconds: control_change channel=0 control=35 value=63 time=0
44.142 seconds: control_change channel=0 control=35 value=63 time=0
44.149 seconds: control_change channel=0 control=35 value=63 time=0
44.155 seconds: control_change channel=0 control=35 value=63 time=0
44.155 seconds: control_change channel=0 control=35 value=63 time=0
44.161 seconds: control_change channel=0 control=35 value=63 time=0
44.161 seconds: control_change channel=0 control=35 value=63 time=0
44.169 seconds: control_change channel=0 control=35 value=63 time=0
44.169 seconds: control_change channel=0 control=35 value=63 time=0
44.176 seconds: control_change channel=0 control=35 value=63 time=0
44.176 seconds: control_change channel=0 control=35 value=63 time=0
44.186 seconds: control_change channel=0 control=35 value=63 time=0
44.186 seconds: control_change channel=0 control=35 value=63 time=0
44.193 seconds: control_change channel=0 control=35 value=63 time=0
44.193 seconds: control_change channel=0 control=35 value=63 time=0
44.202 seconds: control_change channel=0 control=35 value=63 time=0
44.202 seconds: control_change channel=0 control=35 value=63 time=0
44.209 seconds: control_change channel=0 control=35 value=63 time=0
44.209 seconds: control_change channel=0 control=35 value=63 time=0
44.218 seconds: control_change channel=0 control=35 value=63 time=0
44.218 seconds: control_change channel=0 control=35 value=63 time=0
44.224 seconds: control_change channel=0 control=35 value=63 time=0
44.224 seconds: control_change channel=0 control=35 value=63 time=0
44.232 seconds: control_change channel=0 control=35 value=63 time=0
44.232 seconds: control_change channel=0 control=35 value=63 time=0
44.238 seconds: control_change channel=0 control=35 value=63 time=0
44.238 seconds: control_change channel=0 control=35 value=63 time=0
44.247 seconds: control_change channel=0 control=35 value=63 time=0
44.247 seconds: control_change channel=0 control=35 value=63 time=0
44.247 seconds: control_change channel=0 control=35 value=63 time=0
44.256 seconds: control_change channel=0 control=35 value=63 time=0
44.256 seconds: control_change channel=0 control=35 value=63 time=0
44.263 seconds: control_change channel=0 control=35 value=63 time=0
44.263 seconds: control_change channel=0 control=35 value=63 time=0
44.263 seconds: control_change channel=0 control=35 value=63 time=0
44.272 seconds: control_change channel=0 control=35 value=63 time=0
44.272 seconds: control_change channel=0 control=35 value=63 time=0
44.272 seconds: control_change channel=0 control=35 value=63 time=0
44.281 seconds: control_change channel=0 control=35 value=63 time=0
44.281 seconds: control_change channel=0 control=35 value=63 time=0
44.287 seconds: control_change channel=0 control=35 value=63 time=0
44.287 seconds: control_change channel=0 control=35 value=63 time=0
44.287 seconds: control_change channel=0 control=35 value=63 time=0
44.295 seconds: control_change channel=0 control=35 value=63 time=0
44.295 seconds: control_change channel=0 control=35 value=63 time=0
44.295 seconds: control_change channel=0 control=35 value=63 time=0
44.302 seconds: control_change channel=0 control=35 value=63 time=0
44.302 seconds: control_change channel=0 control=35 value=63 time=0
44.302 seconds: control_change channel=0 control=35 value=63 time=0
44.309 seconds: control_change channel=0 control=35 value=63 time=0
44.309 seconds: control_change channel=0 control=35 value=63 time=0
44.315 seconds: control_change channel=0 control=35 value=63 time=0
44.315 seconds: control_change channel=0 control=35 value=63 time=0
44.315 seconds: control_change channel=0 control=35 value=63 time=0
44.322 seconds: control_change channel=0 control=35 value=63 time=0
44.322 seconds: control_change channel=0 control=35 value=63 time=0
44.322 seconds: control_change channel=0 control=35 value=63 time=0
44.329 seconds: control_change channel=0 control=35 value=63 time=0
44.329 seconds: control_change channel=0 control=35 value=63 time=0
44.335 seconds: control_change channel=0 control=35 value=63 time=0
44.335 seconds: control_change channel=0 control=35 value=63 time=0
44.335 seconds: control_change channel=0 control=35 value=63 time=0
44.342 seconds: control_change channel=0 control=35 value=63 time=0
44.342 seconds: control_change channel=0 control=35 value=63 time=0
44.348 seconds: control_change channel=0 control=35 value=63 time=0
44.348 seconds: control_change channel=0 control=35 value=63 time=0
44.348 seconds: control_change channel=0 control=35 value=63 time=0
44.357 seconds: control_change channel=0 control=35 value=63 time=0
44.357 seconds: control_change channel=0 control=35 value=63 time=0
44.357 seconds: control_change channel=0 control=35 value=63 time=0
44.365 seconds: control_change channel=0 control=35 value=63 time=0
44.365 seconds: control_change channel=0 control=35 value=63 time=0
44.371 seconds: control_change channel=0 control=35 value=63 time=0
44.371 seconds: control_change channel=0 control=35 value=63 time=0
44.377 seconds: control_change channel=0 control=35 value=63 time=0
44.377 seconds: control_change channel=0 control=35 value=63 time=0
44.383 seconds: control_change channel=0 control=35 value=63 time=0
44.383 seconds: control_change channel=0 control=35 value=63 time=0
44.389 seconds: control_change channel=0 control=35 value=63 time=0
44.389 seconds: control_change channel=0 control=35 value=63 time=0
44.395 seconds: control_change channel=0 control=35 value=63 time=0
44.395 seconds: control_change channel=0 control=35 value=63 time=0
44.395 seconds: control_change channel=0 control=35 value=63 time=0
44.404 seconds: control_change channel=0 control=35 value=63 time=0
44.404 seconds: control_change channel=0 control=35 value=63 time=0
44.404 seconds: control_change channel=0 control=35 value=63 time=0
44.412 seconds: control_change channel=0 control=35 value=63 time=0
44.412 seconds: control_change channel=0 control=35 value=63 time=0
44.418 seconds: control_change channel=0 control=35 value=63 time=0
44.418 seconds: control_change channel=0 control=35 value=63 time=0
44.418 seconds: control_change channel=0 control=35 value=63 time=0
44.426 seconds: control_change channel=0 control=35 value=63 time=0
44.426 seconds: control_change channel=0 control=35 value=63 time=0
44.426 seconds: control_change channel=0 control=35 value=63 time=0
44.433 seconds: control_change channel=0 control=35 value=63 time=0
44.433 seconds: control_change channel=0 control=35 value=63 time=0
44.439 seconds: control_change channel=0 control=35 value=63 time=0
44.439 seconds: control_change channel=0 control=35 value=63 time=0
44.439 seconds: control_change channel=0 control=35 value=63 time=0
44.447 seconds: control_change channel=0 control=35 value=63 time=0
44.447 seconds: control_change channel=0 control=35 value=63 time=0
44.447 seconds: control_change channel=0 control=35 value=63 time=0
44.454 seconds: control_change channel=0 control=35 value=63 time=0
44.454 seconds: control_change channel=0 control=35 value=63 time=0
44.454 seconds: control_change channel=0 control=35 value=63 time=0
44.461 seconds: control_change channel=0 control=35 value=63 time=0
44.461 seconds: control_change channel=0 control=35 value=63 time=0
44.461 seconds: control_change channel=0 control=35 value=63 time=0
44.469 seconds: control_change channel=0 control=35 value=63 time=0
44.469 seconds: control_change channel=0 control=35 value=63 time=0
44.469 seconds: control_change channel=0 control=35 value=63 time=0
44.476 seconds: control_change channel=0 control=35 value=63 time=0
44.476 seconds: control_change channel=0 control=35 value=63 time=0
44.476 seconds: control_change channel=0 control=35 value=63 time=0
44.482 seconds: control_change channel=0 control=35 value=63 time=0
44.482 seconds: control_change channel=0 control=35 value=63 time=0
44.482 seconds: control_change channel=0 control=35 value=63 time=0
44.489 seconds: control_change channel=0 control=33 value=63 time=0
44.489 seconds: control_change channel=0 control=33 value=63 time=0
44.489 seconds: control_change channel=0 control=33 value=63 time=0
44.496 seconds: control_change channel=0 control=33 value=63 time=0
44.496 seconds: control_change channel=0 control=33 value=63 time=0
44.496 seconds: control_change channel=0 control=35 value=63 time=0
44.503 seconds: control_change channel=0 control=35 value=63 time=0
44.503 seconds: control_change channel=0 control=35 value=63 time=0
44.503 seconds: control_change channel=0 control=35 value=63 time=0
44.510 seconds: control_change channel=0 control=35 value=63 time=0
44.510 seconds: control_change channel=0 control=35 value=63 time=0
44.510 seconds: control_change channel=0 control=35 value=63 time=0
44.516 seconds: control_change channel=0 control=35 value=63 time=0
44.516 seconds: control_change channel=0 control=35 value=63 time=0
44.516 seconds: control_change channel=0 control=35 value=63 time=0
44.524 seconds: control_change channel=0 control=35 value=63 time=0
44.524 seconds: control_change channel=0 control=35 value=63 time=0
44.524 seconds: control_change channel=0 control=35 value=63 time=0
44.530 seconds: control_change channel=0 control=35 value=63 time=0
44.530 seconds: control_change channel=0 control=35 value=63 time=0
44.530 seconds: control_change channel=0 control=35 value=63 time=0
44.536 seconds: control_change channel=0 control=35 value=63 time=0
44.536 seconds: control_change channel=0 control=35 value=63 time=0
44.536 seconds: control_change channel=0 control=35 value=63 time=0
44.543 seconds: control_change channel=0 control=35 value=63 time=0
44.543 seconds: control_change channel=0 control=35 value=63 time=0
44.543 seconds: control_change channel=0 control=35 value=63 time=0
44.550 seconds: control_change channel=0 control=35 value=63 time=0
44.550 seconds: control_change channel=0 control=35 value=63 time=0
44.550 seconds: control_change channel=0 control=35 value=63 time=0
44.556 seconds: control_change channel=0 control=35 value=63 time=0
44.556 seconds: control_change channel=0 control=35 value=63 time=0
44.556 seconds: control_change channel=0 control=35 value=63 time=0
44.562 seconds: control_change channel=0 control=35 value=63 time=0
44.562 seconds: control_change channel=0 control=35 value=63 time=0
44.562 seconds: control_change channel=0 control=35 value=63 time=0
44.569 seconds: control_change channel=0 control=35 value=63 time=0
44.569 seconds: control_change channel=0 control=35 value=63 time=0
44.569 seconds: control_change channel=0 control=35 value=63 time=0
44.576 seconds: control_change channel=0 control=35 value=63 time=0
44.576 seconds: control_change channel=0 control=35 value=63 time=0
44.577 seconds: control_change channel=0 control=35 value=63 time=0
44.584 seconds: control_change channel=0 control=35 value=63 time=0
44.584 seconds: control_change channel=0 control=35 value=63 time=0
44.584 seconds: control_change channel=0 control=35 value=63 time=0
44.590 seconds: control_change channel=0 control=35 value=63 time=0
44.590 seconds: control_change channel=0 control=35 value=63 time=0
44.596 seconds: control_change channel=0 control=35 value=63 time=0
44.596 seconds: control_change channel=0 control=35 value=63 time=0
44.596 seconds: control_change channel=0 control=35 value=63 time=0
44.603 seconds: control_change channel=0 control=35 value=63 time=0
44.603 seconds: control_change channel=0 control=35 value=63 time=0
44.603 seconds: control_change channel=0 control=35 value=63 time=0
44.610 seconds: control_change channel=0 control=35 value=63 time=0
44.610 seconds: control_change channel=0 control=35 value=63 time=0
44.616 seconds: control_change channel=0 control=35 value=63 time=0
44.616 seconds: control_change channel=0 control=35 value=63 time=0
44.616 seconds: control_change channel=0 control=35 value=63 time=0
44.624 seconds: control_change channel=0 control=35 value=63 time=0
44.624 seconds: control_change channel=0 control=35 value=63 time=0
44.624 seconds: control_change channel=0 control=35 value=63 time=0
44.631 seconds: control_change channel=0 control=35 value=63 time=0
44.631 seconds: control_change channel=0 control=35 value=63 time=0
44.637 seconds: control_change channel=0 control=35 value=63 time=0
44.637 seconds: control_change channel=0 control=35 value=63 time=0
44.637 seconds: control_change channel=0 control=35 value=63 time=0
44.644 seconds: control_change channel=0 control=35 value=63 time=0
44.644 seconds: control_change channel=0 control=35 value=63 time=0
44.644 seconds: control_change channel=0 control=35 value=63 time=0
44.651 seconds: control_change channel=0 control=35 value=63 time=0
44.651 seconds: control_change channel=0 control=35 value=63 time=0
44.651 seconds: control_change channel=0 control=35 value=63 time=0
44.658 seconds: control_change channel=0 control=35 value=63 time=0
44.658 seconds: control_change channel=0 control=35 value=63 time=0
44.658 seconds: control_change channel=0 control=35 value=63 time=0
44.665 seconds: control_change channel=0 control=35 value=63 time=0
44.665 seconds: control_change channel=0 control=35 value=63 time=0
44.665 seconds: control_change channel=0 control=35 value=63 time=0
44.671 seconds: control_change channel=0 control=35 value=63 time=0
44.671 seconds: control_change channel=0 control=35 value=63 time=0
44.671 seconds: control_change channel=0 control=35 value=63 time=0
44.677 seconds: control_change channel=0 control=35 value=63 time=0
44.677 seconds: control_change channel=0 control=35 value=63 time=0
44.677 seconds: control_change channel=0 control=35 value=63 time=0
44.685 seconds: control_change channel=0 control=35 value=63 time=0
44.685 seconds: control_change channel=0 control=35 value=63 time=0
44.686 seconds: control_change channel=0 control=35 value=63 time=0
44.686 seconds: control_change channel=0 control=35 value=63 time=0
44.692 seconds: control_change channel=0 control=35 value=63 time=0
44.692 seconds: control_change channel=0 control=35 value=63 time=0
44.692 seconds: control_change channel=0 control=35 value=63 time=0
44.699 seconds: control_change channel=0 control=35 value=63 time=0
44.699 seconds: control_change channel=0 control=33 value=63 time=0
44.699 seconds: control_change channel=0 control=33 value=63 time=0
44.706 seconds: control_change channel=0 control=35 value=63 time=0
44.706 seconds: control_change channel=0 control=35 value=63 time=0
44.706 seconds: control_change channel=0 control=35 value=63 time=0
44.712 seconds: control_change channel=0 control=35 value=63 time=0
44.729 seconds: control_change channel=0 control=35 value=63 time=0
44.729 seconds: control_change channel=0 control=35 value=63 time=0
44.729 seconds: control_change channel=0 control=35 value=63 time=0
44.729 seconds: control_change channel=0 control=35 value=63 time=0
44.729 seconds: control_change channel=0 control=35 value=63 time=0
44.729 seconds: control_change channel=0 control=35 value=63 time=0
44.729 seconds: control_change channel=0 control=35 value=63 time=0
44.729 seconds: control_change channel=0 control=35 value=63 time=0
44.729 seconds: control_change channel=0 control=35 value=63 time=0
44.736 seconds: control_change channel=0 control=35 value=63 time=0
44.747 seconds: control_change channel=0 control=35 value=63 time=0
44.748 seconds: control_change channel=0 control=35 value=63 time=0
44.748 seconds: control_change channel=0 control=35 value=63 time=0
44.748 seconds: control_change channel=0 control=35 value=63 time=0
44.748 seconds: control_change channel=0 control=35 value=63 time=0
44.748 seconds: control_change channel=0 control=35 value=63 time=0
44.748 seconds: control_change channel=0 control=35 value=63 time=0
44.754 seconds: control_change channel=0 control=35 value=63 time=0
44.766 seconds: control_change channel=0 control=35 value=63 time=0
44.766 seconds: control_change channel=0 control=35 value=63 time=0
44.766 seconds: control_change channel=0 control=35 value=63 time=0
44.766 seconds: control_change channel=0 control=35 value=63 time=0
44.767 seconds: control_change channel=0 control=35 value=63 time=0
44.767 seconds: control_change channel=0 control=35 value=63 time=0
44.767 seconds: control_change channel=0 control=35 value=63 time=0
44.772 seconds: control_change channel=0 control=35 value=63 time=0
44.785 seconds: control_change channel=0 control=35 value=63 time=0
44.785 seconds: control_change channel=0 control=35 value=63 time=0
44.785 seconds: control_change channel=0 control=35 value=63 time=0
44.785 seconds: control_change channel=0 control=35 value=63 time=0
44.785 seconds: control_change channel=0 control=35 value=63 time=0
44.785 seconds: control_change channel=0 control=35 value=63 time=0
44.785 seconds: control_change channel=0 control=35 value=63 time=0
44.791 seconds: control_change channel=0 control=35 value=63 time=0
44.791 seconds: control_change channel=0 control=35 value=63 time=0
44.791 seconds: control_change channel=0 control=35 value=63 time=0
44.798 seconds: control_change channel=0 control=35 value=63 time=0
44.798 seconds: control_change channel=0 control=35 value=63 time=0
44.798 seconds: control_change channel=0 control=35 value=63 time=0
44.805 seconds: control_change channel=0 control=35 value=63 time=0
44.805 seconds: control_change channel=0 control=35 value=63 time=0
44.805 seconds: control_change channel=0 control=35 value=63 time=0
44.812 seconds: control_change channel=0 control=35 value=63 time=0
44.812 seconds: control_change channel=0 control=35 value=63 time=0
44.818 seconds: control_change channel=0 control=35 value=63 time=0
44.818 seconds: control_change channel=0 control=35 value=63 time=0
44.818 seconds: control_change channel=0 control=35 value=63 time=0
44.826 seconds: control_change channel=0 control=35 value=63 time=0
44.826 seconds: control_change channel=0 control=35 value=63 time=0
44.831 seconds: control_change channel=0 control=35 value=63 time=0
44.831 seconds: control_change channel=0 control=35 value=63 time=0
44.831 seconds: control_change channel=0 control=35 value=63 time=0
44.839 seconds: control_change channel=0 control=35 value=63 time=0
44.839 seconds: control_change channel=0 control=35 value=63 time=0
44.839 seconds: control_change channel=0 control=35 value=63 time=0
44.846 seconds: control_change channel=0 control=35 value=63 time=0
44.846 seconds: control_change channel=0 control=35 value=63 time=0
44.853 seconds: control_change channel=0 control=35 value=63 time=0
44.853 seconds: control_change channel=0 control=35 value=63 time=0
44.853 seconds: control_change channel=0 control=35 value=63 time=0
44.860 seconds: control_change channel=0 control=35 value=63 time=0
44.860 seconds: control_change channel=0 control=35 value=63 time=0
44.860 seconds: control_change channel=0 control=35 value=63 time=0
44.867 seconds: control_change channel=0 control=35 value=63 time=0
44.867 seconds: control_change channel=0 control=35 value=63 time=0
44.873 seconds: control_change channel=0 control=35 value=63 time=0
44.873 seconds: control_change channel=0 control=35 value=63 time=0
44.873 seconds: control_change channel=0 control=35 value=63 time=0
44.881 seconds: control_change channel=0 control=35 value=63 time=0
44.881 seconds: control_change channel=0 control=35 value=63 time=0
44.881 seconds: control_change channel=0 control=35 value=63 time=0
44.888 seconds: control_change channel=0 control=35 value=63 time=0
44.888 seconds: control_change channel=0 control=35 value=63 time=0
44.894 seconds: control_change channel=0 control=35 value=63 time=0
44.894 seconds: control_change channel=0 control=35 value=63 time=0
44.894 seconds: control_change channel=0 control=35 value=63 time=0
44.902 seconds: control_change channel=0 control=35 value=63 time=0
44.902 seconds: control_change channel=0 control=35 value=63 time=0
44.902 seconds: control_change channel=0 control=35 value=63 time=0
44.909 seconds: control_change channel=0 control=35 value=63 time=0
44.909 seconds: control_change channel=0 control=35 value=63 time=0
44.916 seconds: control_change channel=0 control=35 value=63 time=0
44.916 seconds: control_change channel=0 control=35 value=63 time=0
44.916 seconds: control_change channel=0 control=35 value=63 time=0
44.924 seconds: control_change channel=0 control=35 value=63 time=0
44.924 seconds: control_change channel=0 control=35 value=63 time=0
44.924 seconds: control_change channel=0 control=35 value=63 time=0
44.932 seconds: control_change channel=0 control=35 value=63 time=0
44.932 seconds: control_change channel=0 control=35 value=63 time=0
44.939 seconds: control_change channel=0 control=35 value=63 time=0
44.939 seconds: control_change channel=0 control=35 value=63 time=0
44.945 seconds: control_change channel=0 control=35 value=63 time=0
44.945 seconds: control_change channel=0 control=35 value=63 time=0
44.952 seconds: control_change channel=0 control=35 value=63 time=0
44.952 seconds: control_change channel=0 control=35 value=63 time=0
44.958 seconds: control_change channel=0 control=35 value=63 time=0
44.964 seconds: control_change channel=0 control=35 value=63 time=0
44.964 seconds: control_change channel=0 control=35 value=63 time=0
44.969 seconds: control_change channel=0 control=35 value=63 time=0
44.969 seconds: control_change channel=0 control=35 value=63 time=0
44.976 seconds: control_change channel=0 control=35 value=63 time=0
44.976 seconds: control_change channel=0 control=35 value=63 time=0
44.982 seconds: control_change channel=0 control=35 value=63 time=0
44.982 seconds: control_change channel=0 control=35 value=63 time=0
44.989 seconds: control_change channel=0 control=35 value=63 time=0
44.989 seconds: control_change channel=0 control=35 value=63 time=0
44.989 seconds: control_change channel=0 control=35 value=63 time=0
44.997 seconds: control_change channel=0 control=35 value=63 time=0
44.997 seconds: control_change channel=0 control=35 value=63 time=0
45.003 seconds: control_change channel=0 control=35 value=63 time=0
45.003 seconds: control_change channel=0 control=35 value=63 time=0
45.003 seconds: control_change channel=0 control=35 value=63 time=0
45.012 seconds: control_change channel=0 control=35 value=63 time=0
45.012 seconds: control_change channel=0 control=35 value=63 time=0
45.012 seconds: control_change channel=0 control=35 value=63 time=0
45.019 seconds: control_change channel=0 control=35 value=63 time=0
45.019 seconds: control_change channel=0 control=35 value=63 time=0
45.025 seconds: control_change channel=0 control=35 value=63 time=0
45.025 seconds: control_change channel=0 control=35 value=63 time=0
45.025 seconds: control_change channel=0 control=35 value=63 time=0
45.033 seconds: control_change channel=0 control=35 value=63 time=0
45.034 seconds: control_change channel=0 control=33 value=63 time=0
45.034 seconds: control_change channel=0 control=33 value=63 time=0
45.042 seconds: control_change channel=0 control=33 value=63 time=0
45.043 seconds: control_change channel=0 control=33 value=63 time=0
45.049 seconds: control_change channel=0 control=33 value=63 time=0
45.050 seconds: control_change channel=0 control=33 value=63 time=0
45.055 seconds: control_change channel=0 control=33 value=63 time=0
45.055 seconds: control_change channel=0 control=33 value=63 time=0
45.064 seconds: control_change channel=0 control=33 value=63 time=0
45.064 seconds: control_change channel=0 control=35 value=63 time=0
45.071 seconds: control_change channel=0 control=35 value=63 time=0
45.071 seconds: control_change channel=0 control=35 value=63 time=0
45.080 seconds: control_change channel=0 control=33 value=63 time=0
45.080 seconds: control_change channel=0 control=35 value=63 time=0
45.088 seconds: control_change channel=0 control=35 value=63 time=0
45.088 seconds: control_change channel=0 control=35 value=63 time=0
45.097 seconds: control_change channel=0 control=35 value=63 time=0
45.097 seconds: control_change channel=0 control=35 value=63 time=0
45.105 seconds: control_change channel=0 control=35 value=63 time=0
45.105 seconds: control_change channel=0 control=35 value=63 time=0
45.114 seconds: control_change channel=0 control=35 value=63 time=0
45.114 seconds: control_change channel=0 control=35 value=63 time=0
45.121 seconds: control_change channel=0 control=35 value=63 time=0
45.121 seconds: control_change channel=0 control=35 value=63 time=0
45.130 seconds: control_change channel=0 control=35 value=63 time=0
45.130 seconds: control_change channel=0 control=35 value=63 time=0
45.137 seconds: control_change channel=0 control=35 value=63 time=0
45.137 seconds: control_change channel=0 control=35 value=63 time=0
45.145 seconds: control_change channel=0 control=35 value=63 time=0
45.145 seconds: control_change channel=0 control=35 value=63 time=0
45.151 seconds: control_change channel=0 control=35 value=63 time=0
45.151 seconds: control_change channel=0 control=35 value=63 time=0
45.159 seconds: control_change channel=0 control=35 value=63 time=0
45.159 seconds: control_change channel=0 control=35 value=63 time=0
45.166 seconds: control_change channel=0 control=35 value=63 time=0
45.166 seconds: control_change channel=0 control=35 value=63 time=0
45.174 seconds: control_change channel=0 control=35 value=63 time=0
45.174 seconds: control_change channel=0 control=35 value=63 time=0
45.181 seconds: control_change channel=0 control=35 value=63 time=0
45.181 seconds: control_change channel=0 control=35 value=63 time=0
45.190 seconds: control_change channel=0 control=35 value=63 time=0
45.190 seconds: control_change channel=0 control=35 value=63 time=0
45.198 seconds: control_change channel=0 control=35 value=63 time=0
45.203 seconds: control_change channel=0 control=35 value=63 time=0
45.203 seconds: control_change channel=0 control=35 value=63 time=0
45.211 seconds: control_change channel=0 control=35 value=63 time=0
45.211 seconds: control_change channel=0 control=35 value=63 time=0
45.221 seconds: control_change channel=0 control=35 value=63 time=0
45.221 seconds: control_change channel=0 control=35 value=63 time=0
45.229 seconds: control_change channel=0 control=35 value=63 time=0
45.229 seconds: control_change channel=0 control=35 value=63 time=0
45.240 seconds: control_change channel=0 control=35 value=63 time=0
45.240 seconds: control_change channel=0 control=35 value=63 time=0
45.248 seconds: control_change channel=0 control=35 value=63 time=0
45.248 seconds: control_change channel=0 control=35 value=63 time=0
45.258 seconds: control_change channel=0 control=35 value=63 time=0
45.258 seconds: control_change channel=0 control=35 value=63 time=0
45.265 seconds: control_change channel=0 control=35 value=63 time=0
45.265 seconds: control_change channel=0 control=35 value=63 time=0
45.274 seconds: control_change channel=0 control=35 value=63 time=0
45.274 seconds: control_change channel=0 control=35 value=63 time=0
45.282 seconds: control_change channel=0 control=35 value=63 time=0
45.282 seconds: control_change channel=0 control=35 value=63 time=0
45.293 seconds: control_change channel=0 control=35 value=63 time=0
45.293 seconds: control_change channel=0 control=35 value=63 time=0
45.301 seconds: control_change channel=0 control=35 value=63 time=0
45.301 seconds: control_change channel=0 control=35 value=63 time=0
45.311 seconds: control_change channel=0 control=35 value=63 time=0
45.311 seconds: control_change channel=0 control=35 value=63 time=0
45.318 seconds: control_change channel=0 control=35 value=63 time=0
45.318 seconds: control_change channel=0 control=35 value=63 time=0
45.328 seconds: control_change channel=0 control=35 value=63 time=0
45.328 seconds: control_change channel=0 control=35 value=63 time=0
45.335 seconds: control_change channel=0 control=35 value=63 time=0
45.335 seconds: control_change channel=0 control=35 value=63 time=0
45.345 seconds: control_change channel=0 control=35 value=63 time=0
45.345 seconds: control_change channel=0 control=35 value=63 time=0
45.352 seconds: control_change channel=0 control=35 value=63 time=0
45.352 seconds: control_change channel=0 control=35 value=63 time=0
45.363 seconds: control_change channel=0 control=35 value=63 time=0
45.363 seconds: control_change channel=0 control=35 value=63 time=0
45.370 seconds: control_change channel=0 control=35 value=63 time=0
45.376 seconds: control_change channel=0 control=35 value=63 time=0
45.383 seconds: control_change channel=0 control=35 value=63 time=0
45.383 seconds: control_change channel=0 control=35 value=63 time=0
45.393 seconds: control_change channel=0 control=35 value=63 time=0
45.400 seconds: control_change channel=0 control=35 value=63 time=0
45.409 seconds: control_change channel=0 control=35 value=63 time=0
45.416 seconds: control_change channel=0 control=35 value=63 time=0
45.416 seconds: control_change channel=0 control=35 value=63 time=0
45.428 seconds: control_change channel=0 control=35 value=63 time=0
45.434 seconds: control_change channel=0 control=35 value=63 time=0
45.440 seconds: control_change channel=0 control=35 value=63 time=0
45.440 seconds: control_change channel=0 control=35 value=63 time=0
45.450 seconds: control_change channel=0 control=35 value=63 time=0
45.458 seconds: control_change channel=0 control=35 value=63 time=0
45.464 seconds: control_change channel=0 control=35 value=63 time=0
45.464 seconds: control_change channel=0 control=35 value=63 time=0
45.476 seconds: control_change channel=0 control=35 value=63 time=0
45.484 seconds: control_change channel=0 control=35 value=63 time=0
45.491 seconds: control_change channel=0 control=35 value=63 time=0
45.491 seconds: control_change channel=0 control=35 value=63 time=0
45.504 seconds: control_change channel=0 control=35 value=63 time=0
45.515 seconds: control_change channel=0 control=35 value=63 time=0
45.523 seconds: control_change channel=0 control=35 value=63 time=0
45.529 seconds: control_change channel=0 control=35 value=63 time=0
45.538 seconds: control_change channel=0 control=35 value=63 time=0
45.549 seconds: control_change channel=0 control=35 value=63 time=0
45.562 seconds: control_change channel=0 control=35 value=63 time=0
45.562 seconds: control_change channel=0 control=35 value=63 time=0
45.571 seconds: control_change channel=0 control=35 value=63 time=0
45.580 seconds: control_change channel=0 control=35 value=63 time=0
45.586 seconds: control_change channel=0 control=35 value=63 time=0
45.586 seconds: control_change channel=0 control=35 value=63 time=0
45.596 seconds: control_change channel=0 control=35 value=63 time=0
45.603 seconds: control_change channel=0 control=35 value=63 time=0
45.603 seconds: control_change channel=0 control=35 value=63 time=0
45.612 seconds: control_change channel=0 control=35 value=63 time=0
45.612 seconds: control_change channel=0 control=35 value=63 time=0
45.628 seconds: control_change channel=0 control=35 value=63 time=0
45.628 seconds: control_change channel=0 control=35 value=63 time=0
45.629 seconds: control_change channel=0 control=35 value=63 time=0
45.636 seconds: control_change channel=0 control=35 value=63 time=0
45.642 seconds: control_change channel=0 control=35 value=63 time=0
45.643 seconds: control_change channel=0 control=35 value=63 time=0
45.650 seconds: control_change channel=0 control=35 value=63 time=0
45.650 seconds: control_change channel=0 control=35 value=63 time=0
45.662 seconds: control_change channel=0 control=35 value=63 time=0
45.662 seconds: control_change channel=0 control=35 value=63 time=0
45.669 seconds: control_change channel=0 control=35 value=63 time=0
45.669 seconds: control_change channel=0 control=35 value=63 time=0
45.681 seconds: control_change channel=0 control=35 value=63 time=0
45.681 seconds: control_change channel=0 control=35 value=63 time=0
45.689 seconds: control_change channel=0 control=35 value=63 time=0
45.695 seconds: control_change channel=0 control=35 value=63 time=0
45.703 seconds: control_change channel=0 control=35 value=63 time=0
45.710 seconds: control_change channel=0 control=35 value=63 time=0
45.716 seconds: control_change channel=0 control=35 value=63 time=0
45.726 seconds: control_change channel=0 control=35 value=63 time=0
45.742 seconds: control_change channel=0 control=35 value=63 time=0
45.767 seconds: control_change channel=0 control=35 value=63 time=0
45.778 seconds: control_change channel=0 control=35 value=63 time=0
45.794 seconds: control_change channel=0 control=35 value=63 time=0
45.813 seconds: control_change channel=0 control=35 value=63 time=0
45.814 seconds: control_change channel=0 control=35 value=63 time=0
45.823 seconds: control_change channel=0 control=35 value=63 time=0
45.832 seconds: control_change channel=0 control=35 value=63 time=0
45.842 seconds: control_change channel=0 control=35 value=63 time=0
45.849 seconds: control_change channel=0 control=35 value=63 time=0
45.855 seconds: control_change channel=0 control=35 value=63 time=0
45.863 seconds: control_change channel=0 control=35 value=63 time=0
45.873 seconds: control_change channel=0 control=35 value=63 time=0
45.881 seconds: control_change channel=0 control=35 value=63 time=0
45.881 seconds: control_change channel=0 control=35 value=63 time=0
45.895 seconds: control_change channel=0 control=35 value=63 time=0
45.904 seconds: control_change channel=0 control=35 value=63 time=0
45.911 seconds: control_change channel=0 control=35 value=63 time=0
45.911 seconds: control_change channel=0 control=35 value=63 time=0
45.923 seconds: control_change channel=0 control=35 value=63 time=0
45.931 seconds: control_change channel=0 control=35 value=63 time=0
45.937 seconds: control_change channel=0 control=35 value=63 time=0
45.937 seconds: control_change channel=0 control=35 value=63 time=0
45.948 seconds: control_change channel=0 control=35 value=63 time=0
45.955 seconds: control_change channel=0 control=35 value=63 time=0
45.961 seconds: control_change channel=0 control=35 value=63 time=0
45.961 seconds: control_change channel=0 control=35 value=63 time=0
45.971 seconds: control_change channel=0 control=35 value=63 time=0
45.978 seconds: control_change channel=0 control=35 value=63 time=0
45.984 seconds: control_change channel=0 control=35 value=63 time=0
45.984 seconds: control_change channel=0 control=35 value=63 time=0
45.994 seconds: control_change channel=0 control=35 value=63 time=0
46.002 seconds: control_change channel=0 control=35 value=63 time=0
46.008 seconds: control_change channel=0 control=35 value=63 time=0
46.008 seconds: control_change channel=0 control=35 value=63 time=0
46.019 seconds: control_change channel=0 control=35 value=63 time=0
46.028 seconds: control_change channel=0 control=35 value=63 time=0
46.035 seconds: control_change channel=0 control=35 value=63 time=0
46.035 seconds: control_change channel=0 control=35 value=63 time=0
46.049 seconds: control_change channel=0 control=35 value=63 time=0
46.059 seconds: control_change channel=0 control=35 value=63 time=0
46.067 seconds: control_change channel=0 control=35 value=63 time=0
46.073 seconds: control_change channel=0 control=35 value=63 time=0
46.082 seconds: control_change channel=0 control=35 value=63 time=0
46.092 seconds: control_change channel=0 control=35 value=63 time=0
46.099 seconds: control_change channel=0 control=35 value=63 time=0
46.105 seconds: control_change channel=0 control=35 value=63 time=0
46.113 seconds: control_change channel=0 control=35 value=63 time=0
46.122 seconds: control_change channel=0 control=35 value=63 time=0
46.129 seconds: control_change channel=0 control=35 value=63 time=0
46.135 seconds: control_change channel=0 control=35 value=63 time=0
46.143 seconds: control_change channel=0 control=35 value=63 time=0
46.152 seconds: control_change channel=0 control=35 value=63 time=0
46.160 seconds: control_change channel=0 control=35 value=63 time=0
46.166 seconds: control_change channel=0 control=35 value=63 time=0
46.176 seconds: control_change channel=0 control=35 value=63 time=0
46.189 seconds: control_change channel=0 control=35 value=63 time=0
46.200 seconds: control_change channel=0 control=35 value=63 time=0
46.209 seconds: control_change channel=0 control=35 value=63 time=0
46.222 seconds: control_change channel=0 control=35 value=63 time=0
46.236 seconds: control_change channel=0 control=35 value=63 time=0
46.248 seconds: control_change channel=0 control=35 value=63 time=0
46.256 seconds: control_change channel=0 control=35 value=63 time=0
46.267 seconds: control_change channel=0 control=35 value=63 time=0
46.280 seconds: control_change channel=0 control=35 value=63 time=0
46.290 seconds: control_change channel=0 control=35 value=63 time=0
46.297 seconds: control_change channel=0 control=35 value=63 time=0
46.307 seconds: control_change channel=0 control=35 value=63 time=0
46.323 seconds: control_change channel=0 control=35 value=63 time=0
46.323 seconds: control_change channel=0 control=35 value=63 time=0
46.335 seconds: control_change channel=0 control=35 value=63 time=0
46.345 seconds: control_change channel=0 control=35 value=63 time=0
46.357 seconds: control_change channel=0 control=35 value=63 time=0
46.366 seconds: control_change channel=0 control=35 value=63 time=0
46.374 seconds: control_change channel=0 control=35 value=63 time=0
46.383 seconds: control_change channel=0 control=35 value=63 time=0
46.395 seconds: control_change channel=0 control=35 value=63 time=0
46.405 seconds: control_change channel=0 control=35 value=63 time=0
46.412 seconds: control_change channel=0 control=35 value=63 time=0
46.422 seconds: control_change channel=0 control=35 value=63 time=0
46.432 seconds: control_change channel=0 control=35 value=63 time=0
46.440 seconds: control_change channel=0 control=35 value=63 time=0
46.446 seconds: control_change channel=0 control=35 value=63 time=0
46.459 seconds: control_change channel=0 control=35 value=63 time=0
46.460 seconds: control_change channel=0 control=35 value=63 time=0
46.470 seconds: control_change channel=0 control=35 value=63 time=0
46.470 seconds: control_change channel=0 control=35 value=63 time=0
46.484 seconds: control_change channel=0 control=35 value=63 time=0
46.494 seconds: control_change channel=0 control=35 value=63 time=0
46.503 seconds: control_change channel=0 control=35 value=63 time=0
46.510 seconds: control_change channel=0 control=35 value=63 time=0
46.518 seconds: control_change channel=0 control=35 value=63 time=0
46.526 seconds: control_change channel=0 control=35 value=63 time=0
46.534 seconds: control_change channel=0 control=35 value=63 time=0
46.534 seconds: control_change channel=0 control=35 value=63 time=0
46.546 seconds: control_change channel=0 control=35 value=63 time=0
46.554 seconds: control_change channel=0 control=35 value=63 time=0
46.560 seconds: control_change channel=0 control=35 value=63 time=0
46.560 seconds: control_change channel=0 control=35 value=63 time=0
46.571 seconds: control_change channel=0 control=35 value=63 time=0
46.578 seconds: control_change channel=0 control=35 value=63 time=0
46.585 seconds: control_change channel=0 control=35 value=63 time=0
46.591 seconds: control_change channel=0 control=35 value=63 time=0
46.598 seconds: control_change channel=0 control=35 value=63 time=0
46.607 seconds: control_change channel=0 control=35 value=63 time=0
46.615 seconds: control_change channel=0 control=35 value=63 time=0
46.621 seconds: control_change channel=0 control=35 value=63 time=0
46.630 seconds: control_change channel=0 control=35 value=63 time=0
46.638 seconds: control_change channel=0 control=35 value=63 time=0
46.647 seconds: control_change channel=0 control=35 value=63 time=0
46.653 seconds: control_change channel=0 control=35 value=63 time=0
46.663 seconds: control_change channel=0 control=35 value=63 time=0
46.674 seconds: control_change channel=0 control=35 value=63 time=0
46.685 seconds: control_change channel=0 control=35 value=63 time=0
46.693 seconds: control_change channel=0 control=35 value=63 time=0
46.706 seconds: control_change channel=0 control=35 value=63 time=0
46.718 seconds: control_change channel=0 control=35 value=63 time=0
46.730 seconds: control_change channel=0 control=35 value=63 time=0
46.738 seconds: control_change channel=0 control=35 value=63 time=0
46.751 seconds: control_change channel=0 control=35 value=63 time=0
46.766 seconds: control_change channel=0 control=35 value=63 time=0
46.779 seconds: control_change channel=0 control=35 value=63 time=0
46.790 seconds: control_change channel=0 control=35 value=63 time=0
46.805 seconds: control_change channel=0 control=35 value=63 time=0
46.818 seconds: control_change channel=0 control=35 value=63 time=0
46.829 seconds: control_change channel=0 control=35 value=63 time=0
46.837 seconds: control_change channel=0 control=35 value=63 time=0
46.845 seconds: control_change channel=0 control=35 value=63 time=0
46.855 seconds: control_change channel=0 control=35 value=63 time=0
46.862 seconds: control_change channel=0 control=35 value=63 time=0
46.862 seconds: control_change channel=0 control=35 value=63 time=0
46.873 seconds: control_change channel=0 control=35 value=63 time=0
46.873 seconds: control_change channel=0 control=35 value=63 time=0
46.884 seconds: control_change channel=0 control=35 value=63 time=0
46.884 seconds: control_change channel=0 control=35 value=63 time=0
46.893 seconds: control_change channel=0 control=35 value=63 time=0
46.894 seconds: control_change channel=0 control=35 value=63 time=0
46.903 seconds: control_change channel=0 control=35 value=63 time=0
46.903 seconds: control_change channel=0 control=35 value=63 time=0
46.911 seconds: control_change channel=0 control=35 value=63 time=0
46.911 seconds: control_change channel=0 control=35 value=63 time=0
46.919 seconds: control_change channel=0 control=35 value=63 time=0
46.919 seconds: control_change channel=0 control=35 value=63 time=0
46.926 seconds: control_change channel=0 control=35 value=63 time=0
46.926 seconds: control_change channel=0 control=35 value=63 time=0
46.934 seconds: control_change channel=0 control=35 value=63 time=0
46.934 seconds: control_change channel=0 control=35 value=63 time=0
46.941 seconds: control_change channel=0 control=35 value=63 time=0
46.941 seconds: control_change channel=0 control=35 value=63 time=0
46.948 seconds: control_change channel=0 control=35 value=63 time=0
46.948 seconds: control_change channel=0 control=35 value=63 time=0
46.954 seconds: control_change channel=0 control=35 value=63 time=0
46.959 seconds: control_change channel=0 control=35 value=63 time=0
46.959 seconds: control_change channel=0 control=35 value=63 time=0
46.965 seconds: control_change channel=0 control=35 value=63 time=0
46.965 seconds: control_change channel=0 control=35 value=63 time=0
46.972 seconds: control_change channel=0 control=35 value=63 time=0
46.972 seconds: control_change channel=0 control=35 value=63 time=0
46.979 seconds: control_change channel=0 control=35 value=63 time=0
46.979 seconds: control_change channel=0 control=35 value=63 time=0
46.988 seconds: control_change channel=0 control=35 value=63 time=0
46.988 seconds: control_change channel=0 control=35 value=63 time=0
46.995 seconds: control_change channel=0 control=35 value=63 time=0
46.995 seconds: control_change channel=0 control=35 value=63 time=0
47.004 seconds: control_change channel=0 control=35 value=63 time=0
47.004 seconds: control_change channel=0 control=35 value=63 time=0
47.011 seconds: control_change channel=0 control=35 value=63 time=0
47.012 seconds: control_change channel=0 control=35 value=63 time=0
47.021 seconds: control_change channel=0 control=35 value=63 time=0
47.021 seconds: control_change channel=0 control=35 value=63 time=0
47.028 seconds: control_change channel=0 control=35 value=63 time=0
47.028 seconds: control_change channel=0 control=35 value=63 time=0
47.036 seconds: control_change channel=0 control=35 value=63 time=0
47.036 seconds: control_change channel=0 control=35 value=63 time=0
47.043 seconds: control_change channel=0 control=35 value=63 time=0
47.043 seconds: control_change channel=0 control=35 value=63 time=0
47.054 seconds: control_change channel=0 control=35 value=63 time=0
47.054 seconds: control_change channel=0 control=35 value=63 time=0
47.061 seconds: control_change channel=0 control=35 value=63 time=0
47.061 seconds: control_change channel=0 control=35 value=63 time=0
47.070 seconds: control_change channel=0 control=35 value=63 time=0
47.070 seconds: control_change channel=0 control=35 value=63 time=0
47.077 seconds: control_change channel=0 control=35 value=63 time=0
47.077 seconds: control_change channel=0 control=35 value=63 time=0
47.087 seconds: control_change channel=0 control=35 value=63 time=0
47.087 seconds: control_change channel=0 control=35 value=63 time=0
47.093 seconds: control_change channel=0 control=35 value=63 time=0
47.093 seconds: control_change channel=0 control=35 value=63 time=0
47.100 seconds: control_change channel=0 control=35 value=63 time=0
47.100 seconds: control_change channel=0 control=35 value=63 time=0
47.106 seconds: control_change channel=0 control=35 value=63 time=0
47.106 seconds: control_change channel=0 control=35 value=63 time=0
47.114 seconds: control_change channel=0 control=35 value=63 time=0
47.114 seconds: control_change channel=0 control=35 value=63 time=0
47.114 seconds: control_change channel=0 control=35 value=63 time=0
47.122 seconds: control_change channel=0 control=35 value=63 time=0
47.122 seconds: control_change channel=0 control=35 value=63 time=0
47.129 seconds: control_change channel=0 control=35 value=63 time=0
47.129 seconds: control_change channel=0 control=35 value=63 time=0
47.129 seconds: control_change channel=0 control=35 value=63 time=0
47.138 seconds: control_change channel=0 control=35 value=63 time=0
47.138 seconds: control_change channel=0 control=35 value=63 time=0
47.138 seconds: control_change channel=0 control=35 value=63 time=0
47.149 seconds: control_change channel=0 control=35 value=63 time=0
47.149 seconds: control_change channel=0 control=35 value=63 time=0
47.154 seconds: control_change channel=0 control=35 value=63 time=0
47.154 seconds: control_change channel=0 control=35 value=63 time=0
47.160 seconds: control_change channel=0 control=35 value=63 time=0
47.161 seconds: control_change channel=0 control=35 value=63 time=0
47.168 seconds: control_change channel=0 control=35 value=63 time=0
47.168 seconds: control_change channel=0 control=35 value=63 time=0
47.175 seconds: control_change channel=0 control=35 value=63 time=0
47.175 seconds: control_change channel=0 control=35 value=63 time=0
47.183 seconds: control_change channel=0 control=35 value=63 time=0
47.183 seconds: control_change channel=0 control=35 value=63 time=0
47.190 seconds: control_change channel=0 control=35 value=63 time=0
47.190 seconds: control_change channel=0 control=35 value=63 time=0
47.198 seconds: control_change channel=0 control=35 value=63 time=0
47.198 seconds: control_change channel=0 control=35 value=63 time=0
47.205 seconds: control_change channel=0 control=35 value=63 time=0
47.205 seconds: control_change channel=0 control=35 value=63 time=0
47.214 seconds: control_change channel=0 control=35 value=63 time=0
47.214 seconds: control_change channel=0 control=35 value=63 time=0
47.220 seconds: control_change channel=0 control=35 value=63 time=0
47.220 seconds: control_change channel=0 control=35 value=63 time=0
47.229 seconds: control_change channel=0 control=35 value=63 time=0
47.229 seconds: control_change channel=0 control=35 value=63 time=0
47.236 seconds: control_change channel=0 control=35 value=63 time=0
47.236 seconds: control_change channel=0 control=35 value=63 time=0
47.244 seconds: control_change channel=0 control=35 value=63 time=0
47.244 seconds: control_change channel=0 control=35 value=63 time=0
47.251 seconds: control_change channel=0 control=35 value=63 time=0
47.251 seconds: control_change channel=0 control=35 value=63 time=0
47.259 seconds: control_change channel=0 control=35 value=63 time=0
47.259 seconds: control_change channel=0 control=35 value=63 time=0
47.266 seconds: control_change channel=0 control=35 value=63 time=0
47.266 seconds: control_change channel=0 control=35 value=63 time=0
47.273 seconds: control_change channel=0 control=35 value=63 time=0
47.273 seconds: control_change channel=0 control=35 value=63 time=0
47.279 seconds: control_change channel=0 control=35 value=63 time=0
47.279 seconds: control_change channel=0 control=35 value=63 time=0
47.286 seconds: control_change channel=0 control=35 value=63 time=0
47.286 seconds: control_change channel=0 control=35 value=63 time=0
47.292 seconds: control_change channel=0 control=35 value=63 time=0
47.293 seconds: control_change channel=0 control=35 value=63 time=0
47.299 seconds: control_change channel=0 control=35 value=63 time=0
47.299 seconds: control_change channel=0 control=35 value=63 time=0
47.306 seconds: control_change channel=0 control=35 value=63 time=0
47.306 seconds: control_change channel=0 control=35 value=63 time=0
47.314 seconds: control_change channel=0 control=35 value=63 time=0
47.314 seconds: control_change channel=0 control=35 value=63 time=0
47.322 seconds: control_change channel=0 control=35 value=63 time=0
47.322 seconds: control_change channel=0 control=35 value=63 time=0
47.333 seconds: control_change channel=0 control=35 value=63 time=0
47.333 seconds: control_change channel=0 control=35 value=63 time=0
47.340 seconds: control_change channel=0 control=35 value=63 time=0
47.347 seconds: control_change channel=0 control=35 value=63 time=0
47.347 seconds: control_change channel=0 control=35 value=63 time=0
47.356 seconds: control_change channel=0 control=35 value=63 time=0
47.356 seconds: control_change channel=0 control=35 value=63 time=0
47.367 seconds: control_change channel=0 control=35 value=63 time=0
47.367 seconds: control_change channel=0 control=35 value=63 time=0
47.375 seconds: control_change channel=0 control=35 value=63 time=0
47.376 seconds: control_change channel=0 control=35 value=63 time=0
47.385 seconds: control_change channel=0 control=35 value=63 time=0
47.385 seconds: control_change channel=0 control=35 value=63 time=0
47.393 seconds: control_change channel=0 control=35 value=63 time=0
47.393 seconds: control_change channel=0 control=35 value=63 time=0
47.402 seconds: control_change channel=0 control=35 value=63 time=0
47.402 seconds: control_change channel=0 control=35 value=63 time=0
47.408 seconds: control_change channel=0 control=35 value=63 time=0
47.408 seconds: control_change channel=0 control=35 value=63 time=0
47.418 seconds: control_change channel=0 control=35 value=63 time=0
47.418 seconds: control_change channel=0 control=35 value=63 time=0
47.426 seconds: control_change channel=0 control=35 value=63 time=0
47.426 seconds: control_change channel=0 control=35 value=63 time=0
47.434 seconds: control_change channel=0 control=35 value=63 time=0
47.434 seconds: control_change channel=0 control=35 value=63 time=0
47.442 seconds: control_change channel=0 control=35 value=63 time=0
47.442 seconds: control_change channel=0 control=35 value=63 time=0
47.453 seconds: control_change channel=0 control=35 value=63 time=0
47.453 seconds: control_change channel=0 control=35 value=63 time=0
47.462 seconds: control_change channel=0 control=35 value=63 time=0
47.468 seconds: control_change channel=0 control=35 value=63 time=0
47.476 seconds: control_change channel=0 control=35 value=63 time=0
47.482 seconds: control_change channel=0 control=35 value=63 time=0
47.488 seconds: control_change channel=0 control=35 value=63 time=0
47.496 seconds: control_change channel=0 control=35 value=63 time=0
47.506 seconds: control_change channel=0 control=35 value=63 time=0
47.513 seconds: control_change channel=0 control=35 value=63 time=0
47.514 seconds: control_change channel=0 control=35 value=63 time=0
47.525 seconds: control_change channel=0 control=35 value=63 time=0
47.531 seconds: control_change channel=0 control=35 value=63 time=0
47.537 seconds: control_change channel=0 control=35 value=63 time=0
47.537 seconds: control_change channel=0 control=35 value=63 time=0
47.547 seconds: control_change channel=0 control=35 value=63 time=0
47.555 seconds: control_change channel=0 control=35 value=63 time=0
47.562 seconds: control_change channel=0 control=35 value=63 time=0
47.562 seconds: control_change channel=0 control=35 value=63 time=0
47.574 seconds: control_change channel=0 control=35 value=63 time=0
47.583 seconds: control_change channel=0 control=35 value=63 time=0
47.590 seconds: control_change channel=0 control=35 value=63 time=0
47.596 seconds: control_change channel=0 control=35 value=63 time=0
47.603 seconds: control_change channel=0 control=35 value=63 time=0
47.612 seconds: control_change channel=0 control=35 value=63 time=0
47.617 seconds: control_change channel=0 control=35 value=63 time=0
47.617 seconds: control_change channel=0 control=35 value=63 time=0
47.629 seconds: control_change channel=0 control=35 value=63 time=0
47.641 seconds: control_change channel=0 control=35 value=63 time=0
47.642 seconds: control_change channel=0 control=35 value=63 time=0
47.649 seconds: control_change channel=0 control=35 value=63 time=0
47.656 seconds: control_change channel=0 control=35 value=63 time=0
47.666 seconds: control_change channel=0 control=35 value=63 time=0
47.675 seconds: control_change channel=0 control=35 value=63 time=0
47.682 seconds: control_change channel=0 control=35 value=63 time=0
47.693 seconds: control_change channel=0 control=35 value=63 time=0
47.702 seconds: control_change channel=0 control=35 value=63 time=0
47.710 seconds: control_change channel=0 control=35 value=63 time=0
47.716 seconds: control_change channel=0 control=35 value=63 time=0
47.725 seconds: control_change channel=0 control=35 value=63 time=0
47.733 seconds: control_change channel=0 control=35 value=63 time=0
47.741 seconds: control_change channel=0 control=35 value=63 time=0
47.747 seconds: control_change channel=0 control=35 value=63 time=0
47.756 seconds: control_change channel=0 control=35 value=63 time=0
47.766 seconds: control_change channel=0 control=35 value=63 time=0
47.774 seconds: control_change channel=0 control=35 value=63 time=0
47.781 seconds: control_change channel=0 control=35 value=63 time=0
47.791 seconds: control_change channel=0 control=35 value=63 time=0
47.799 seconds: control_change channel=0 control=35 value=63 time=0
47.806 seconds: control_change channel=0 control=35 value=63 time=0
47.806 seconds: control_change channel=0 control=35 value=63 time=0
47.818 seconds: control_change channel=0 control=35 value=63 time=0
47.824 seconds: control_change channel=0 control=35 value=63 time=0
47.825 seconds: control_change channel=0 control=35 value=63 time=0
47.832 seconds: control_change channel=0 control=35 value=63 time=0
47.832 seconds: control_change channel=0 control=35 value=63 time=0
47.844 seconds: control_change channel=0 control=35 value=63 time=0
47.845 seconds: control_change channel=0 control=35 value=63 time=0
47.852 seconds: control_change channel=0 control=35 value=63 time=0
47.852 seconds: control_change channel=0 control=35 value=63 time=0
47.863 seconds: control_change channel=0 control=35 value=63 time=0
47.864 seconds: control_change channel=0 control=35 value=63 time=0
47.871 seconds: control_change channel=0 control=35 value=63 time=0
47.877 seconds: control_change channel=0 control=35 value=63 time=0
47.883 seconds: control_change channel=0 control=35 value=63 time=0
47.883 seconds: control_change channel=0 control=35 value=63 time=0
47.892 seconds: control_change channel=0 control=35 value=63 time=0
47.898 seconds: control_change channel=0 control=35 value=63 time=0
47.905 seconds: control_change channel=0 control=35 value=63 time=0
47.905 seconds: control_change channel=0 control=35 value=63 time=0
47.915 seconds: control_change channel=0 control=35 value=63 time=0
47.921 seconds: control_change channel=0 control=35 value=63 time=0
47.929 seconds: control_change channel=0 control=35 value=63 time=0
47.936 seconds: control_change channel=0 control=35 value=63 time=0
47.936 seconds: control_change channel=0 control=35 value=63 time=0
47.945 seconds: control_change channel=0 control=35 value=63 time=0
47.952 seconds: control_change channel=0 control=35 value=63 time=0
47.958 seconds: control_change channel=0 control=35 value=63 time=0
47.959 seconds: control_change channel=0 control=35 value=63 time=0
47.968 seconds: control_change channel=0 control=35 value=63 time=0
47.975 seconds: control_change channel=0 control=35 value=63 time=0
47.981 seconds: control_change channel=0 control=35 value=63 time=0
47.981 seconds: control_change channel=0 control=35 value=63 time=0
47.990 seconds: control_change channel=0 control=35 value=63 time=0
47.997 seconds: control_change channel=0 control=35 value=63 time=0
47.998 seconds: control_change channel=0 control=35 value=63 time=0
48.006 seconds: control_change channel=0 control=35 value=63 time=0
48.012 seconds: control_change channel=0 control=35 value=63 time=0
48.019 seconds: control_change channel=0 control=35 value=63 time=0
48.019 seconds: control_change channel=0 control=35 value=63 time=0
48.029 seconds: control_change channel=0 control=35 value=63 time=0
48.034 seconds: control_change channel=0 control=35 value=63 time=0
48.041 seconds: control_change channel=0 control=35 value=63 time=0
48.041 seconds: control_change channel=0 control=35 value=63 time=0
48.050 seconds: control_change channel=0 control=35 value=63 time=0
48.056 seconds: control_change channel=0 control=35 value=63 time=0
48.062 seconds: control_change channel=0 control=35 value=63 time=0
48.068 seconds: control_change channel=0 control=35 value=63 time=0
48.068 seconds: control_change channel=0 control=35 value=63 time=0
48.078 seconds: control_change channel=0 control=35 value=63 time=0
48.085 seconds: control_change channel=0 control=35 value=63 time=0
48.092 seconds: control_change channel=0 control=35 value=63 time=0
48.092 seconds: control_change channel=0 control=35 value=63 time=0
48.104 seconds: control_change channel=0 control=35 value=63 time=0
48.113 seconds: control_change channel=0 control=35 value=63 time=0
48.121 seconds: control_change channel=0 control=35 value=63 time=0
48.122 seconds: control_change channel=0 control=35 value=63 time=0
48.134 seconds: control_change channel=0 control=35 value=63 time=0
48.144 seconds: control_change channel=0 control=35 value=63 time=0
48.152 seconds: control_change channel=0 control=35 value=63 time=0
48.158 seconds: control_change channel=0 control=35 value=63 time=0
48.166 seconds: control_change channel=0 control=35 value=63 time=0
48.177 seconds: control_change channel=0 control=35 value=63 time=0
48.185 seconds: control_change channel=0 control=35 value=63 time=0
48.191 seconds: control_change channel=0 control=35 value=63 time=0
48.201 seconds: control_change channel=0 control=35 value=63 time=0
48.218 seconds: control_change channel=0 control=35 value=63 time=0
48.233 seconds: control_change channel=0 control=35 value=63 time=0
48.248 seconds: control_change channel=0 control=35 value=63 time=0
48.256 seconds: control_change channel=0 control=35 value=63 time=0
48.269 seconds: control_change channel=0 control=35 value=63 time=0
48.277 seconds: control_change channel=0 control=35 value=63 time=0
48.277 seconds: control_change channel=0 control=35 value=63 time=0
48.288 seconds: control_change channel=0 control=35 value=63 time=0
48.297 seconds: control_change channel=0 control=35 value=63 time=0
48.303 seconds: control_change channel=0 control=35 value=63 time=0
48.303 seconds: control_change channel=0 control=35 value=63 time=0
48.315 seconds: control_change channel=0 control=35 value=63 time=0
48.323 seconds: control_change channel=0 control=35 value=63 time=0
48.330 seconds: control_change channel=0 control=35 value=63 time=0
48.330 seconds: control_change channel=0 control=35 value=63 time=0
48.342 seconds: control_change channel=0 control=35 value=63 time=0
48.350 seconds: control_change channel=0 control=35 value=63 time=0
48.357 seconds: control_change channel=0 control=35 value=63 time=0
48.357 seconds: control_change channel=0 control=35 value=63 time=0
48.370 seconds: control_change channel=0 control=35 value=63 time=0
48.379 seconds: control_change channel=0 control=35 value=63 time=0
48.385 seconds: control_change channel=0 control=35 value=63 time=0
48.391 seconds: control_change channel=0 control=35 value=63 time=0
48.398 seconds: control_change channel=0 control=35 value=63 time=0
48.408 seconds: control_change channel=0 control=35 value=63 time=0
48.416 seconds: control_change channel=0 control=35 value=63 time=0
48.423 seconds: control_change channel=0 control=35 value=63 time=0
48.434 seconds: control_change channel=0 control=35 value=63 time=0
48.448 seconds: control_change channel=0 control=35 value=63 time=0
48.460 seconds: control_change channel=0 control=35 value=63 time=0
48.468 seconds: control_change channel=0 control=35 value=63 time=0
48.479 seconds: control_change channel=0 control=35 value=63 time=0
48.493 seconds: control_change channel=0 control=35 value=63 time=0
48.503 seconds: control_change channel=0 control=35 value=63 time=0
48.512 seconds: control_change channel=0 control=35 value=63 time=0
48.532 seconds: control_change channel=0 control=35 value=63 time=0
48.567 seconds: control_change channel=0 control=35 value=63 time=0
48.587 seconds: control_change channel=0 control=35 value=63 time=0
48.598 seconds: control_change channel=0 control=35 value=63 time=0
48.612 seconds: control_change channel=0 control=35 value=63 time=0
48.628 seconds: control_change channel=0 control=35 value=63 time=0
48.640 seconds: control_change channel=0 control=35 value=63 time=0
48.649 seconds: control_change channel=0 control=35 value=63 time=0
48.661 seconds: control_change channel=0 control=35 value=63 time=0
48.673 seconds: control_change channel=0 control=35 value=63 time=0
48.682 seconds: control_change channel=0 control=35 value=63 time=0
48.689 seconds: control_change channel=0 control=35 value=63 time=0
48.699 seconds: control_change channel=0 control=35 value=63 time=0
48.714 seconds: control_change channel=0 control=35 value=63 time=0
48.735 seconds: control_change channel=0 control=35 value=63 time=0
48.761 seconds: control_change channel=0 control=35 value=63 time=0
48.793 seconds: control_change channel=0 control=35 value=63 time=0
48.954 seconds: control_change channel=0 control=35 value=65 time=0
48.984 seconds: control_change channel=0 control=35 value=65 time=0
49.045 seconds: control_change channel=0 control=35 value=65 time=0
49.080 seconds: control_change channel=0 control=35 value=65 time=0
49.113 seconds: control_change channel=0 control=35 value=65 time=0
49.158 seconds: control_change channel=0 control=35 value=65 time=0
49.174 seconds: control_change channel=0 control=35 value=65 time=0
49.212 seconds: control_change channel=0 control=35 value=65 time=0
49.237 seconds: control_change channel=0 control=35 value=65 time=0
49.267 seconds: control_change channel=0 control=35 value=65 time=0
49.286 seconds: control_change channel=0 control=35 value=65 time=0
49.302 seconds: control_change channel=0 control=35 value=65 time=0
49.318 seconds: control_change channel=0 control=35 value=65 time=0
49.329 seconds: control_change channel=0 control=35 value=65 time=0
49.334 seconds: control_change channel=0 control=35 value=65 time=0
49.342 seconds: control_change channel=0 control=35 value=65 time=0
49.352 seconds: control_change channel=0 control=35 value=65 time=0
49.361 seconds: control_change channel=0 control=35 value=65 time=0
49.367 seconds: control_change channel=0 control=35 value=65 time=0
49.376 seconds: control_change channel=0 control=35 value=65 time=0
49.387 seconds: control_change channel=0 control=35 value=65 time=0
49.398 seconds: control_change channel=0 control=35 value=65 time=0
49.407 seconds: control_change channel=0 control=35 value=65 time=0
49.422 seconds: control_change channel=0 control=35 value=65 time=0
49.449 seconds: control_change channel=0 control=35 value=65 time=0
49.469 seconds: control_change channel=0 control=35 value=65 time=0
49.481 seconds: control_change channel=0 control=35 value=65 time=0
49.493 seconds: control_change channel=0 control=35 value=65 time=0
49.570 seconds: control_change channel=0 control=35 value=65 time=0
49.591 seconds: control_change channel=0 control=35 value=65 time=0
49.592 seconds: control_change channel=0 control=35 value=65 time=0
49.629 seconds: control_change channel=0 control=35 value=63 time=0
49.637 seconds: control_change channel=0 control=35 value=63 time=0
49.652 seconds: control_change channel=0 control=33 value=63 time=0
50.786 seconds: control_change channel=0 control=7 value=125 time=0
50.787 seconds: control_change channel=0 control=39 value=92 time=0
50.804 seconds: control_change channel=0 control=7 value=126 time=0
50.805 seconds: control_change channel=0 control=39 value=16 time=0
50.814 seconds: control_change channel=0 control=7 value=126 time=0
50.814 seconds: control_change channel=0 control=39 value=84 time=0
50.822 seconds: control_change channel=0 control=7 value=127 time=0
50.822 seconds: control_change channel=0 control=39 value=42 time=0
50.831 seconds: control_change channel=0 control=7 value=127 time=0
50.832 seconds: control_change channel=0 control=39 value=127 time=0
51.669 seconds: control_change channel=0 control=11 value=84 time=0
51.669 seconds: control_change channel=0 control=43 value=96 time=0
51.677 seconds: control_change channel=0 control=11 value=83 time=0
51.678 seconds: control_change channel=0 control=43 value=52 time=0
51.687 seconds: control_change channel=0 control=11 value=81 time=0
51.687 seconds: control_change channel=0 control=43 value=120 time=0
51.696 seconds: control_change channel=0 control=11 value=81 time=0
51.696 seconds: control_change channel=0 control=43 value=34 time=0
51.704 seconds: control_change channel=0 control=11 value=79 time=0
51.705 seconds: control_change channel=0 control=43 value=67 time=0
51.713 seconds: control_change channel=0 control=11 value=77 time=0
51.714 seconds: control_change channel=0 control=43 value=49 time=0
51.722 seconds: control_change channel=0 control=11 value=74 time=0
51.722 seconds: control_change channel=0 control=43 value=108 time=0
51.731 seconds: control_change channel=0 control=11 value=72 time=0
51.732 seconds: control_change channel=0 control=43 value=4 time=0
51.740 seconds: control_change channel=0 control=11 value=70 time=0
51.741 seconds: control_change channel=0 control=43 value=71 time=0
51.749 seconds: control_change channel=0 control=11 value=67 time=0
51.750 seconds: control_change channel=0 control=43 value=112 time=0
51.758 seconds: control_change channel=0 control=11 value=65 time=0
51.759 seconds: control_change channel=0 control=43 value=43 time=0
51.767 seconds: control_change channel=0 control=11 value=64 time=0
51.768 seconds: control_change channel=0 control=43 value=0 time=0
52.254 seconds: control_change channel=0 control=11 value=64 time=0
52.254 seconds: control_change channel=0 control=43 value=119 time=0
52.263 seconds: control_change channel=0 control=11 value=68 time=0
52.263 seconds: control_change channel=0 control=43 value=36 time=0
52.272 seconds: control_change channel=0 control=11 value=71 time=0
52.272 seconds: control_change channel=0 control=43 value=80 time=0
52.281 seconds: control_change channel=0 control=11 value=73 time=0
52.281 seconds: control_change channel=0 control=43 value=13 time=0
52.295 seconds: control_change channel=0 control=11 value=76 time=0
52.295 seconds: control_change channel=0 control=43 value=74 time=0
52.295 seconds: control_change channel=0 control=11 value=79 time=0
52.295 seconds: control_change channel=0 control=43 value=50 time=0
52.307 seconds: control_change channel=0 control=11 value=82 time=0
52.308 seconds: control_change channel=0 control=43 value=43 time=0
52.317 seconds: control_change channel=0 control=11 value=84 time=0
52.317 seconds: control_change channel=0 control=43 value=113 time=0
52.326 seconds: control_change channel=0 control=11 value=86 time=0
52.326 seconds: control_change channel=0 control=43 value=28 time=0
52.335 seconds: control_change channel=0 control=11 value=88 time=0
52.335 seconds: control_change channel=0 control=43 value=98 time=0
52.343 seconds: control_change channel=0 control=11 value=91 time=0
52.344 seconds: control_change channel=0 control=43 value=5 time=0
52.352 seconds: control_change channel=0 control=11 value=93 time=0
52.353 seconds: control_change channel=0 control=43 value=41 time=0
52.361 seconds: control_change channel=0 control=11 value=95 time=0
52.362 seconds: control_change channel=0 control=43 value=25 time=0
52.370 seconds: control_change channel=0 control=11 value=95 time=0
52.371 seconds: control_change channel=0 control=43 value=127 time=0
52.380 seconds: control_change channel=0 control=11 value=97 time=0
52.380 seconds: control_change channel=0 control=43 value=43 time=0
52.388 seconds: control_change channel=0 control=11 value=98 time=0
52.389 seconds: control_change channel=0 control=43 value=1 time=0
52.398 seconds: control_change channel=0 control=11 value=98 time=0
52.398 seconds: control_change channel=0 control=43 value=120 time=0
52.406 seconds: control_change channel=0 control=11 value=100 time=0
52.407 seconds: control_change channel=0 control=43 value=53 time=0
52.415 seconds: control_change channel=0 control=11 value=100 time=0
52.416 seconds: control_change channel=0 control=43 value=104 time=0
52.425 seconds: control_change channel=0 control=11 value=101 time=0
52.425 seconds: control_change channel=0 control=43 value=96 time=0
52.433 seconds: control_change channel=0 control=11 value=102 time=0
52.434 seconds: control_change channel=0 control=43 value=105 time=0
52.443 seconds: control_change channel=0 control=11 value=104 time=0
52.443 seconds: control_change channel=0 control=43 value=38 time=0
52.451 seconds: control_change channel=0 control=11 value=105 time=0
52.452 seconds: control_change channel=0 control=43 value=99 time=0
52.461 seconds: control_change channel=0 control=11 value=106 time=0
52.461 seconds: control_change channel=0 control=43 value=56 time=0
52.469 seconds: control_change channel=0 control=11 value=107 time=0
52.470 seconds: control_change channel=0 control=43 value=100 time=0
52.479 seconds: control_change channel=0 control=11 value=109 time=0
52.479 seconds: control_change channel=0 control=43 value=32 time=0
52.487 seconds: control_change channel=0 control=11 value=110 time=0
52.488 seconds: control_change channel=0 control=43 value=75 time=0
52.497 seconds: control_change channel=0 control=11 value=111 time=0
52.497 seconds: control_change channel=0 control=43 value=119 time=0
52.506 seconds: control_change channel=0 control=11 value=112 time=0
52.506 seconds: control_change channel=0 control=43 value=59 time=0
52.525 seconds: control_change channel=0 control=11 value=113 time=0
52.525 seconds: control_change channel=0 control=43 value=86 time=0
52.525 seconds: control_change channel=0 control=11 value=114 time=0
52.525 seconds: control_change channel=0 control=43 value=112 time=0
52.532 seconds: control_change channel=0 control=11 value=116 time=0
52.533 seconds: control_change channel=0 control=43 value=10 time=0
52.541 seconds: control_change channel=0 control=11 value=117 time=0
52.542 seconds: control_change channel=0 control=43 value=54 time=0
52.550 seconds: control_change channel=0 control=11 value=117 time=0
52.551 seconds: control_change channel=0 control=43 value=122 time=0
52.559 seconds: control_change channel=0 control=11 value=119 time=0
52.560 seconds: control_change channel=0 control=43 value=20 time=0
52.569 seconds: control_change channel=0 control=11 value=120 time=0
52.569 seconds: control_change channel=0 control=43 value=98 time=0
52.577 seconds: control_change channel=0 control=11 value=122 time=0
52.578 seconds: control_change channel=0 control=43 value=48 time=0
52.592 seconds: control_change channel=0 control=11 value=124 time=0
52.592 seconds: control_change channel=0 control=43 value=14 time=0
52.592 seconds: control_change channel=0 control=11 value=125 time=0
52.592 seconds: control_change channel=0 control=43 value=6 time=0
52.605 seconds: control_change channel=0 control=11 value=126 time=0
52.605 seconds: control_change channel=0 control=43 value=101 time=0
52.614 seconds: control_change channel=0 control=11 value=127 time=0
52.614 seconds: control_change channel=0 control=43 value=59 time=0
52.623 seconds: control_change channel=0 control=11 value=127 time=0
52.623 seconds: control_change channel=0 control=43 value=127 time=0
53.778 seconds: control_change channel=1 control=11 value=64 time=0
53.778 seconds: control_change channel=1 control=43 value=34 time=0
53.787 seconds: control_change channel=1 control=11 value=68 time=0
53.787 seconds: control_change channel=1 control=43 value=70 time=0
53.796 seconds: control_change channel=1 control=11 value=72 time=0
53.796 seconds: control_change channel=1 control=43 value=89 time=0
53.805 seconds: control_change channel=1 control=11 value=77 time=0
53.805 seconds: control_change channel=1 control=43 value=84 time=0
53.814 seconds: control_change channel=1 control=11 value=80 time=0
53.814 seconds: control_change channel=1 control=43 value=25 time=0
53.823 seconds: control_change channel=1 control=11 value=85 time=0
53.823 seconds: control_change channel=1 control=43 value=88 time=0
53.832 seconds: control_change channel=1 control=11 value=90 time=0
53.832 seconds: control_change channel=1 control=43 value=31 time=0
53.841 seconds: control_change channel=1 control=11 value=93 time=0
53.841 seconds: control_change channel=1 control=43 value=41 time=0
53.850 seconds: control_change channel=1 control=11 value=95 time=0
53.850 seconds: control_change channel=1 control=43 value=25 time=0
53.859 seconds: control_change channel=1 control=11 value=95 time=0
53.859 seconds: control_change channel=1 control=43 value=110 time=0
53.868 seconds: control_change channel=1 control=11 value=97 time=0
53.868 seconds: control_change channel=1 control=43 value=26 time=0
53.877 seconds: control_change channel=1 control=11 value=98 time=0
53.877 seconds: control_change channel=1 control=43 value=52 time=0
53.886 seconds: control_change channel=1 control=11 value=99 time=0
53.886 seconds: control_change channel=1 control=43 value=112 time=0
53.895 seconds: control_change channel=1 control=11 value=101 time=0
53.895 seconds: control_change channel=1 control=43 value=45 time=0
53.904 seconds: control_change channel=1 control=11 value=102 time=0
53.904 seconds: control_change channel=1 control=43 value=20 time=0
53.913 seconds: control_change channel=1 control=11 value=103 time=0
53.913 seconds: control_change channel=1 control=43 value=80 time=0
53.922 seconds: control_change channel=1 control=11 value=104 time=0
53.922 seconds: control_change channel=1 control=43 value=124 time=0
53.931 seconds: control_change channel=1 control=11 value=106 time=0
53.931 seconds: control_change channel=1 control=43 value=90 time=0
53.940 seconds: control_change channel=1 control=11 value=108 time=0
53.940 seconds: control_change channel=1 control=43 value=57 time=0
53.949 seconds: control_change channel=1 control=11 value=109 time=0
53.949 seconds: control_change channel=1 control=43 value=49 time=0
53.958 seconds: control_change channel=1 control=11 value=111 time=0
53.958 seconds: control_change channel=1 control=43 value=119 time=0
53.967 seconds: control_change channel=1 control=11 value=114 time=0
53.967 seconds: control_change channel=1 control=43 value=60 time=0
53.976 seconds: control_change channel=1 control=11 value=117 time=0
53.976 seconds: control_change channel=1 control=43 value=54 time=0
53.985 seconds: control_change channel=1 control=11 value=120 time=0
53.985 seconds: control_change channel=1 control=43 value=115 time=0
53.994 seconds: control_change channel=1 control=11 value=122 time=0
53.994 seconds: control_change channel=1 control=43 value=116 time=0
54.002 seconds: control_change channel=1 control=11 value=127 time=0
54.003 seconds: control_change channel=1 control=43 value=76 time=0
54.012 seconds: control_change channel=1 control=11 value=127 time=0
54.012 seconds: control_change channel=1 control=43 value=127 time=0
54.543 seconds: control_change channel=1 control=11 value=126 time=0
54.543 seconds: control_change channel=1 control=43 value=101 time=0
54.552 seconds: control_change channel=1 control=11 value=122 time=0
54.552 seconds: control_change channel=1 control=43 value=116 time=0
54.561 seconds: control_change channel=1 control=11 value=119 time=0
54.561 seconds: control_change channel=1 control=43 value=106 time=0
54.570 seconds: control_change channel=1 control=11 value=117 time=0
54.570 seconds: control_change channel=1 control=43 value=36 time=0
54.579 seconds: control_change channel=1 control=11 value=116 time=0
54.579 seconds: control_change channel=1 control=43 value=10 time=0
54.588 seconds: control_change channel=1 control=11 value=113 time=0
54.588 seconds: control_change channel=1 control=43 value=103 time=0
54.597 seconds: control_change channel=1 control=11 value=111 time=0
54.597 seconds: control_change channel=1 control=43 value=16 time=0
54.606 seconds: control_change channel=1 control=11 value=108 time=0
54.606 seconds: control_change channel=1 control=43 value=6 time=0
54.615 seconds: control_change channel=1 control=11 value=104 time=0
54.615 seconds: control_change channel=1 control=43 value=38 time=0
54.624 seconds: control_change channel=1 control=11 value=102 time=0
54.624 seconds: control_change channel=1 control=43 value=20 time=0
54.633 seconds: control_change channel=1 control=11 value=97 time=0
54.633 seconds: control_change channel=1 control=43 value=26 time=0
54.642 seconds: control_change channel=1 control=11 value=92 time=0
54.642 seconds: control_change channel=1 control=43 value=66 time=0
54.651 seconds: control_change channel=1 control=11 value=88 time=0
54.651 seconds: control_change channel=1 control=43 value=47 time=0
54.660 seconds: control_change channel=1 control=11 value=84 time=0
54.660 seconds: control_change channel=1 control=43 value=96 time=0
54.669 seconds: control_change channel=1 control=11 value=82 time=0
54.669 seconds: control_change channel=1 control=43 value=95 time=0
54.678 seconds: control_change channel=1 control=11 value=79 time=0
54.678 seconds: control_change channel=1 control=43 value=33 time=0
54.686 seconds: control_change channel=1 control=11 value=75 time=0
54.687 seconds: control_change channel=1 control=43 value=117 time=0
54.696 seconds: control_change channel=1 control=11 value=72 time=0
54.696 seconds: control_change channel=1 control=43 value=21 time=0
54.705 seconds: control_change channel=1 control=11 value=68 time=0
54.705 seconds: control_change channel=1 control=43 value=104 time=0
54.714 seconds: control_change channel=1 control=11 value=67 time=0
54.714 seconds: control_change channel=1 control=43 value=27 time=0
54.723 seconds: control_change channel=1 control=11 value=64 time=0
54.723 seconds: control_change channel=1 control=43 value=0 time=0
54.750 seconds: control_change channel=1 control=11 value=62 time=0
54.750 seconds: control_change channel=1 control=43 value=67 time=0
54.759 seconds: control_change channel=1 control=11 value=60 time=0
54.759 seconds: control_change channel=1 control=43 value=117 time=0
54.768 seconds: control_change channel=1 control=11 value=58 time=0
54.768 seconds: control_change channel=1 control=43 value=65 time=0
54.777 seconds: control_change channel=1 control=11 value=55 time=0
54.777 seconds: control_change channel=1 control=43 value=123 time=0
54.786 seconds: control_change channel=1 control=11 value=53 time=0
54.786 seconds: control_change channel=1 control=43 value=54 time=0
54.795 seconds: control_change channel=1 control=11 value=51 time=0
54.795 seconds: control_change channel=1 control=43 value=87 time=0
54.804 seconds: control_change channel=1 control=11 value=50 time=0
54.804 seconds: control_change channel=1 control=43 value=95 time=0
54.813 seconds: control_change channel=1 control=11 value=48 time=0
54.813 seconds: control_change channel=1 control=43 value=111 time=0
54.822 seconds: control_change channel=1 control=11 value=47 time=0
54.822 seconds: control_change channel=1 control=43 value=50 time=0
54.831 seconds: control_change channel=1 control=11 value=45 time=0
54.831 seconds: control_change channel=1 control=43 value=118 time=0
54.840 seconds: control_change channel=1 control=11 value=44 time=0
54.840 seconds: control_change channel=1 control=43 value=40 time=0
54.849 seconds: control_change channel=1 control=11 value=43 time=0
54.849 seconds: control_change channel=1 control=43 value=82 time=0
54.858 seconds: control_change channel=1 control=11 value=42 time=0
54.858 seconds: control_change channel=1 control=43 value=56 time=0
54.867 seconds: control_change channel=1 control=11 value=41 time=0
54.867 seconds: control_change channel=1 control=43 value=47 time=0
54.876 seconds: control_change channel=1 control=11 value=40 time=0
54.876 seconds: control_change channel=1 control=43 value=89 time=0
54.885 seconds: control_change channel=1 control=11 value=40 time=0
54.885 seconds: control_change channel=1 control=43 value=38 time=0
54.894 seconds: control_change channel=1 control=11 value=39 time=0
54.894 seconds: control_change channel=1 control=43 value=115 time=0
55.101 seconds: control_change channel=1 control=11 value=39 time=0
55.101 seconds: control_change channel=1 control=43 value=63 time=0
55.110 seconds: control_change channel=1 control=11 value=38 time=0
55.110 seconds: control_change channel=1 control=43 value=123 time=0
55.119 seconds: control_change channel=1 control=11 value=38 time=0
55.119 seconds: control_change channel=1 control=43 value=3 time=0
55.128 seconds: control_change channel=1 control=11 value=37 time=0
55.128 seconds: control_change channel=1 control=43 value=45 time=0
55.137 seconds: control_change channel=1 control=11 value=36 time=0
55.137 seconds: control_change channel=1 control=43 value=87 time=0
55.146 seconds: control_change channel=1 control=11 value=35 time=0
55.146 seconds: control_change channel=1 control=43 value=61 time=0
55.155 seconds: control_change channel=1 control=11 value=34 time=0
55.155 seconds: control_change channel=1 control=43 value=52 time=0
55.164 seconds: control_change channel=1 control=11 value=33 time=0
55.164 seconds: control_change channel=1 control=43 value=94 time=0
55.173 seconds: control_change channel=1 control=11 value=32 time=0
55.173 seconds: control_change channel=1 control=43 value=17 time=0
55.182 seconds: control_change channel=1 control=11 value=29 time=0
55.182 seconds: control_change channel=1 control=43 value=75 time=0
55.196 seconds: control_change channel=1 control=11 value=26 time=0
55.196 seconds: control_change channel=1 control=43 value=48 time=0
55.196 seconds: control_change channel=1 control=11 value=22 time=0
55.196 seconds: control_change channel=1 control=43 value=11 time=0
55.209 seconds: control_change channel=1 control=11 value=19 time=0
55.209 seconds: control_change channel=1 control=43 value=104 time=0
55.218 seconds: control_change channel=1 control=11 value=14 time=0
55.218 seconds: control_change channel=1 control=43 value=93 time=0
55.229 seconds: control_change channel=1 control=11 value=9 time=0
55.229 seconds: control_change channel=1 control=43 value=99 time=0
55.236 seconds: control_change channel=1 control=11 value=5 time=0
55.236 seconds: control_change channel=1 control=43 value=28 time=0
55.245 seconds: control_change channel=1 control=11 value=1 time=0
55.245 seconds: control_change channel=1 control=43 value=60 time=0
55.254 seconds: control_change channel=1 control=11 value=0 time=0
55.254 seconds: control_change channel=1 control=43 value=85 time=0
55.263 seconds: control_change channel=1 control=11 value=0 time=0
55.263 seconds: control_change channel=1 control=43 value=0 time=0
63.840 seconds: note_on channel=0 note=27 velocity=127 time=0
64.008 seconds: note_on channel=0 note=27 velocity=0 time=0
65.464 seconds: note_on channel=0 note=27 velocity=127 time=0
65.656 seconds: note_on channel=0 note=27 velocity=0 time=0
66.384 seconds: note_on channel=0 note=27 velocity=127 time=0
66.556 seconds: note_on channel=0 note=27 velocity=0 time=0
68.512 seconds: note_on channel=0 note=27 velocity=127 time=0
68.652 seconds: note_on channel=0 note=27 velocity=0 time=0
69.328 seconds: note_on channel=0 note=27 velocity=127 time=0
69.428 seconds: note_on channel=0 note=27 velocity=0 time=0
69.820 seconds: note_on channel=0 note=27 velocity=127 time=0
69.960 seconds: note_on channel=0 note=27 velocity=0 time=0
70.517 seconds: note_on channel=0 note=109 velocity=127 time=0
70.665 seconds: note_on channel=0 note=109 velocity=0 time=0
71.441 seconds: note_on channel=0 note=109 velocity=127 time=0
71.581 seconds: note_on channel=0 note=109 velocity=0 time=0
72.221 seconds: note_on channel=0 note=109 velocity=127 time=0
72.385 seconds: note_on channel=0 note=109 velocity=0 time=0
72.909 seconds: note_on channel=0 note=109 velocity=127 time=0
73.077 seconds: note_on channel=0 note=109 velocity=0 time=0
73.677 seconds: note_on channel=0 note=109 velocity=127 time=0
73.833 seconds: note_on channel=0 note=109 velocity=0 time=0
74.380 seconds: note_on channel=0 note=27 velocity=127 time=0
74.508 seconds: note_on channel=0 note=27 velocity=0 time=0
75.117 seconds: note_on channel=0 note=109 velocity=127 time=0
75.273 seconds: note_on channel=0 note=109 velocity=0 time=0
75.727 seconds: note_on channel=0 note=32 velocity=127 time=0
75.883 seconds: note_on channel=0 note=32 velocity=0 time=0
76.492 seconds: note_on channel=7 note=34 velocity=127 time=0
76.552 seconds: note_on channel=7 note=34 velocity=0 time=0
76.552 seconds: note_on channel=7 note=34 velocity=127 time=0
76.644 seconds: note_on channel=7 note=34 velocity=0 time=0
77.064 seconds: note_on channel=7 note=33 velocity=127 time=0
77.212 seconds: note_on channel=7 note=33 velocity=0 time=0
77.592 seconds: control_change channel=0 control=35 value=65 time=0
77.607 seconds: control_change channel=0 control=35 value=65 time=0
77.623 seconds: control_change channel=0 control=35 value=65 time=0
77.638 seconds: control_change channel=0 control=35 value=63 time=0
77.776 seconds: control_change channel=0 control=35 value=65 time=0
77.794 seconds: control_change channel=0 control=35 value=65 time=0
77.810 seconds: control_change channel=0 control=35 value=65 time=0
77.822 seconds: control_change channel=0 control=35 value=65 time=0
77.832 seconds: control_change channel=0 control=35 value=65 time=0
77.846 seconds: control_change channel=0 control=35 value=65 time=0
77.941 seconds: control_change channel=0 control=35 value=63 time=0
77.969 seconds: control_change channel=0 control=35 value=63 time=0
77.991 seconds: control_change channel=0 control=35 value=63 time=0
78.027 seconds: control_change channel=0 control=35 value=63 time=0
78.071 seconds: control_change channel=0 control=35 value=63 time=0
79.999 seconds: note_on channel=7 note=32 velocity=127 time=0
80.209 seconds: note_on channel=7 note=32 velocity=0 time=0
80.848 seconds: note_on channel=7 note=33 velocity=127 time=0
81.004 seconds: note_on channel=7 note=33 velocity=0 time=0
81.329 seconds: control_change channel=0 control=33 value=65 time=0
81.396 seconds: control_change channel=0 control=33 value=63 time=0
81.475 seconds: control_change channel=0 control=33 value=63 time=0
81.496 seconds: control_change channel=0 control=33 value=63 time=0
81.506 seconds: control_change channel=0 control=33 value=63 time=0
81.520 seconds: control_change channel=0 control=33 value=63 time=0
81.528 seconds: control_change channel=0 control=33 value=63 time=0
81.534 seconds: control_change channel=0 control=33 value=63 time=0
81.543 seconds: control_change channel=0 control=33 value=63 time=0
81.553 seconds: control_change channel=0 control=33 value=63 time=0
81.561 seconds: control_change channel=0 control=33 value=63 time=0
81.567 seconds: control_change channel=0 control=33 value=63 time=0
81.576 seconds: control_change channel=0 control=33 value=63 time=0
81.588 seconds: control_change channel=0 control=33 value=63 time=0
81.596 seconds: control_change channel=0 control=33 value=63 time=0
81.603 seconds: control_change channel=0 control=33 value=63 time=0
81.613 seconds: control_change channel=0 control=33 value=63 time=0
81.626 seconds: control_change channel=0 control=33 value=63 time=0
81.640 seconds: control_change channel=0 control=33 value=63 time=0
81.686 seconds: control_change channel=0 control=33 value=65 time=0
81.705 seconds: control_change channel=0 control=33 value=65 time=0
81.728 seconds: control_change channel=0 control=33 value=65 time=0
81.760 seconds: control_change channel=0 control=33 value=65 time=0
81.815 seconds: control_change channel=0 control=33 value=63 time=0
81.830 seconds: control_change channel=0 control=33 value=63 time=0
81.842 seconds: control_change channel=0 control=33 value=63 time=0
81.851 seconds: control_change channel=0 control=33 value=63 time=0
81.859 seconds: control_change channel=0 control=33 value=63 time=0
81.872 seconds: control_change channel=0 control=33 value=63 time=0
82.594 seconds: control_change channel=0 control=35 value=65 time=0
82.616 seconds: control_change channel=0 control=35 value=65 time=0
82.625 seconds: control_change channel=0 control=35 value=65 time=0
82.634 seconds: control_change channel=0 control=35 value=65 time=0
82.644 seconds: control_change channel=0 control=35 value=65 time=0
82.652 seconds: control_change channel=0 control=35 value=65 time=0
82.652 seconds: control_change channel=0 control=35 value=65 time=0
82.663 seconds: control_change channel=0 control=35 value=65 time=0
82.670 seconds: control_change channel=0 control=35 value=65 time=0
82.676 seconds: control_change channel=0 control=35 value=65 time=0
82.676 seconds: control_change channel=0 control=35 value=65 time=0
82.683 seconds: control_change channel=0 control=35 value=65 time=0
82.683 seconds: control_change channel=0 control=35 value=65 time=0
82.691 seconds: control_change channel=0 control=35 value=65 time=0
82.691 seconds: control_change channel=0 control=35 value=65 time=0
82.697 seconds: control_change channel=0 control=35 value=65 time=0
82.697 seconds: control_change channel=0 control=35 value=65 time=0
82.705 seconds: control_change channel=0 control=35 value=65 time=0
82.705 seconds: control_change channel=0 control=35 value=65 time=0
82.705 seconds: control_change channel=0 control=35 value=65 time=0
82.713 seconds: control_change channel=0 control=35 value=65 time=0
82.713 seconds: control_change channel=0 control=35 value=65 time=0
82.719 seconds: control_change channel=0 control=35 value=65 time=0
82.719 seconds: control_change channel=0 control=35 value=65 time=0
82.726 seconds: control_change channel=0 control=35 value=65 time=0
82.726 seconds: control_change channel=0 control=35 value=65 time=0
82.732 seconds: control_change channel=0 control=35 value=65 time=0
82.732 seconds: control_change channel=0 control=35 value=65 time=0
82.741 seconds: control_change channel=0 control=35 value=65 time=0
82.741 seconds: control_change channel=0 control=35 value=65 time=0
82.749 seconds: control_change channel=0 control=35 value=65 time=0
82.749 seconds: control_change channel=0 control=35 value=65 time=0
82.762 seconds: control_change channel=0 control=35 value=65 time=0
82.769 seconds: control_change channel=0 control=35 value=65 time=0
82.775 seconds: control_change channel=0 control=35 value=65 time=0
82.785 seconds: control_change channel=0 control=33 value=65 time=0
82.820 seconds: control_change channel=0 control=33 value=65 time=0
83.128 seconds: control_change channel=0 control=33 value=63 time=0
83.156 seconds: control_change channel=0 control=35 value=63 time=0
83.165 seconds: control_change channel=0 control=35 value=63 time=0
83.171 seconds: control_change channel=0 control=35 value=63 time=0
83.179 seconds: control_change channel=0 control=35 value=63 time=0
83.194 seconds: control_change channel=0 control=35 value=63 time=0
83.212 seconds: control_change channel=0 control=35 value=65 time=0
83.226 seconds: control_change channel=0 control=35 value=65 time=0
83.232 seconds: control_change channel=0 control=35 value=65 time=0
83.232 seconds: control_change channel=0 control=35 value=65 time=0
83.239 seconds: control_change channel=0 control=35 value=65 time=0
83.239 seconds: control_change channel=0 control=35 value=65 time=0
83.247 seconds: control_change channel=0 control=35 value=65 time=0
83.247 seconds: control_change channel=0 control=35 value=65 time=0
83.247 seconds: control_change channel=0 control=35 value=65 time=0
83.255 seconds: control_change channel=0 control=35 value=65 time=0
83.255 seconds: control_change channel=0 control=35 value=65 time=0
83.255 seconds: control_change channel=0 control=35 value=65 time=0
83.262 seconds: control_change channel=0 control=35 value=65 time=0
83.262 seconds: control_change channel=0 control=35 value=65 time=0
83.262 seconds: control_change channel=0 control=35 value=65 time=0
83.268 seconds: control_change channel=0 control=35 value=65 time=0
83.268 seconds: control_change channel=0 control=35 value=65 time=0
83.268 seconds: control_change channel=0 control=35 value=65 time=0
83.275 seconds: control_change channel=0 control=35 value=65 time=0
83.275 seconds: control_change channel=0 control=35 value=65 time=0
83.275 seconds: control_change channel=0 control=35 value=65 time=0
83.281 seconds: control_change channel=0 control=35 value=65 time=0
83.281 seconds: control_change channel=0 control=35 value=65 time=0
83.281 seconds: control_change channel=0 control=35 value=65 time=0
83.281 seconds: control_change channel=0 control=35 value=65 time=0
83.288 seconds: control_change channel=0 control=35 value=65 time=0
83.288 seconds: control_change channel=0 control=35 value=65 time=0
83.288 seconds: control_change channel=0 control=35 value=65 time=0
83.288 seconds: control_change channel=0 control=35 value=65 time=0
83.295 seconds: control_change channel=0 control=35 value=65 time=0
83.295 seconds: control_change channel=0 control=35 value=65 time=0
83.295 seconds: control_change channel=0 control=35 value=65 time=0
83.295 seconds: control_change channel=0 control=35 value=65 time=0
83.302 seconds: control_change channel=0 control=35 value=65 time=0
83.302 seconds: control_change channel=0 control=35 value=65 time=0
83.302 seconds: control_change channel=0 control=35 value=65 time=0
83.302 seconds: control_change channel=0 control=35 value=65 time=0
83.309 seconds: control_change channel=0 control=35 value=65 time=0
83.309 seconds: control_change channel=0 control=35 value=65 time=0
83.309 seconds: control_change channel=0 control=35 value=65 time=0
83.309 seconds: control_change channel=0 control=35 value=65 time=0
83.316 seconds: control_change channel=0 control=35 value=65 time=0
83.317 seconds: control_change channel=0 control=35 value=65 time=0
83.317 seconds: control_change channel=0 control=35 value=65 time=0
83.317 seconds: control_change channel=0 control=35 value=65 time=0
83.323 seconds: control_change channel=0 control=35 value=65 time=0
83.324 seconds: control_change channel=0 control=35 value=65 time=0
83.324 seconds: control_change channel=0 control=35 value=65 time=0
83.324 seconds: control_change channel=0 control=35 value=65 time=0
83.325 seconds: control_change channel=0 control=35 value=65 time=0
83.331 seconds: control_change channel=0 control=35 value=65 time=0
83.331 seconds: control_change channel=0 control=35 value=65 time=0
83.331 seconds: control_change channel=0 control=35 value=65 time=0
83.331 seconds: control_change channel=0 control=35 value=65 time=0
83.337 seconds: control_change channel=0 control=35 value=65 time=0
83.337 seconds: control_change channel=0 control=35 value=65 time=0
83.337 seconds: control_change channel=0 control=35 value=65 time=0
83.337 seconds: control_change channel=0 control=35 value=65 time=0
83.344 seconds: control_change channel=0 control=35 value=65 time=0
83.344 seconds: control_change channel=0 control=35 value=65 time=0
83.344 seconds: control_change channel=0 control=35 value=65 time=0
83.344 seconds: control_change channel=0 control=35 value=65 time=0
83.344 seconds: control_change channel=0 control=35 value=65 time=0
83.351 seconds: control_change channel=0 control=35 value=65 time=0
83.351 seconds: control_change channel=0 control=35 value=65 time=0
83.351 seconds: control_change channel=0 control=35 value=65 time=0
83.351 seconds: control_change channel=0 control=35 value=65 time=0
83.351 seconds: control_change channel=0 control=35 value=65 time=0
83.357 seconds: control_change channel=0 control=35 value=65 time=0
83.357 seconds: control_change channel=0 control=35 value=65 time=0
83.357 seconds: control_change channel=0 control=35 value=65 time=0
83.357 seconds: control_change channel=0 control=35 value=65 time=0
83.363 seconds: control_change channel=0 control=35 value=65 time=0
83.363 seconds: control_change channel=0 control=35 value=65 time=0
83.363 seconds: control_change channel=0 control=35 value=65 time=0
83.363 seconds: control_change channel=0 control=35 value=65 time=0
83.363 seconds: control_change channel=0 control=35 value=65 time=0
83.370 seconds: control_change channel=0 control=35 value=65 time=0
83.370 seconds: control_change channel=0 control=35 value=65 time=0
83.370 seconds: control_change channel=0 control=35 value=65 time=0
83.370 seconds: control_change channel=0 control=35 value=65 time=0
83.370 seconds: control_change channel=0 control=35 value=65 time=0
83.376 seconds: control_change channel=0 control=35 value=65 time=0
83.376 seconds: control_change channel=0 control=35 value=65 time=0
83.376 seconds: control_change channel=0 control=35 value=65 time=0
83.376 seconds: control_change channel=0 control=35 value=65 time=0
83.382 seconds: control_change channel=0 control=35 value=65 time=0
83.382 seconds: control_change channel=0 control=35 value=65 time=0
83.382 seconds: control_change channel=0 control=35 value=65 time=0
83.382 seconds: control_change channel=0 control=35 value=65 time=0
83.382 seconds: control_change channel=0 control=35 value=65 time=0
83.388 seconds: control_change channel=0 control=35 value=65 time=0
83.388 seconds: control_change channel=0 control=35 value=65 time=0
83.388 seconds: control_change channel=0 control=35 value=65 time=0
83.388 seconds: control_change channel=0 control=35 value=65 time=0
83.388 seconds: control_change channel=0 control=35 value=65 time=0
83.395 seconds: control_change channel=0 control=35 value=65 time=0
83.395 seconds: control_change channel=0 control=35 value=65 time=0
83.395 seconds: control_change channel=0 control=35 value=65 time=0
83.395 seconds: control_change channel=0 control=35 value=65 time=0
83.395 seconds: control_change channel=0 control=35 value=65 time=0
83.402 seconds: control_change channel=0 control=35 value=65 time=0
83.402 seconds: control_change channel=0 control=35 value=65 time=0
83.402 seconds: control_change channel=0 control=35 value=65 time=0
83.402 seconds: control_change channel=0 control=35 value=65 time=0
83.408 seconds: control_change channel=0 control=35 value=65 time=0
83.408 seconds: control_change channel=0 control=35 value=65 time=0
83.408 seconds: control_change channel=0 control=35 value=65 time=0
83.408 seconds: control_change channel=0 control=35 value=65 time=0
83.414 seconds: control_change channel=0 control=35 value=65 time=0
83.414 seconds: control_change channel=0 control=35 value=65 time=0
83.414 seconds: control_change channel=0 control=35 value=65 time=0
83.414 seconds: control_change channel=0 control=35 value=65 time=0
83.414 seconds: control_change channel=0 control=35 value=65 time=0
83.421 seconds: control_change channel=0 control=35 value=65 time=0
83.421 seconds: control_change channel=0 control=35 value=65 time=0
83.421 seconds: control_change channel=0 control=35 value=65 time=0
83.421 seconds: control_change channel=0 control=35 value=65 time=0
83.428 seconds: control_change channel=0 control=35 value=65 time=0
83.428 seconds: control_change channel=0 control=35 value=65 time=0
83.428 seconds: control_change channel=0 control=35 value=65 time=0
83.428 seconds: control_change channel=0 control=35 value=65 time=0
83.434 seconds: control_change channel=0 control=35 value=65 time=0
83.434 seconds: control_change channel=0 control=35 value=65 time=0
83.434 seconds: control_change channel=0 control=35 value=65 time=0
83.440 seconds: control_change channel=0 control=35 value=65 time=0
83.440 seconds: control_change channel=0 control=35 value=65 time=0
83.440 seconds: control_change channel=0 control=35 value=65 time=0
83.440 seconds: control_change channel=0 control=35 value=65 time=0
83.447 seconds: control_change channel=0 control=35 value=65 time=0
83.447 seconds: control_change channel=0 control=35 value=65 time=0
83.447 seconds: control_change channel=0 control=35 value=65 time=0
83.453 seconds: control_change channel=0 control=35 value=65 time=0
83.453 seconds: control_change channel=0 control=35 value=65 time=0
83.453 seconds: control_change channel=0 control=35 value=65 time=0
83.459 seconds: control_change channel=0 control=35 value=65 time=0
83.459 seconds: control_change channel=0 control=35 value=65 time=0
83.465 seconds: control_change channel=0 control=35 value=65 time=0
83.465 seconds: control_change channel=0 control=35 value=65 time=0
83.465 seconds: control_change channel=0 control=35 value=65 time=0
83.465 seconds: control_change channel=0 control=35 value=65 time=0
83.473 seconds: control_change channel=0 control=35 value=65 time=0
83.473 seconds: control_change channel=0 control=35 value=65 time=0
83.473 seconds: control_change channel=0 control=35 value=65 time=0
83.479 seconds: control_change channel=0 control=35 value=65 time=0
83.479 seconds: control_change channel=0 control=35 value=65 time=0
83.479 seconds: control_change channel=0 control=35 value=65 time=0
83.486 seconds: control_change channel=0 control=35 value=65 time=0
83.486 seconds: control_change channel=0 control=35 value=65 time=0
83.492 seconds: control_change channel=0 control=35 value=65 time=0
83.492 seconds: control_change channel=0 control=35 value=65 time=0
83.492 seconds: control_change channel=0 control=35 value=65 time=0
83.498 seconds: control_change channel=0 control=35 value=65 time=0
83.498 seconds: control_change channel=0 control=35 value=65 time=0
83.504 seconds: control_change channel=0 control=35 value=65 time=0
83.504 seconds: control_change channel=0 control=35 value=65 time=0
83.504 seconds: control_change channel=0 control=35 value=65 time=0
83.511 seconds: control_change channel=0 control=35 value=65 time=0
83.511 seconds: control_change channel=0 control=35 value=65 time=0
83.511 seconds: control_change channel=0 control=35 value=65 time=0
83.518 seconds: control_change channel=0 control=35 value=65 time=0
83.518 seconds: control_change channel=0 control=35 value=65 time=0
83.524 seconds: control_change channel=0 control=35 value=65 time=0
83.524 seconds: control_change channel=0 control=35 value=65 time=0
83.524 seconds: control_change channel=0 control=35 value=65 time=0
83.531 seconds: control_change channel=0 control=35 value=65 time=0
83.531 seconds: control_change channel=0 control=35 value=65 time=0
83.531 seconds: control_change channel=0 control=35 value=65 time=0
83.538 seconds: control_change channel=0 control=35 value=65 time=0
83.538 seconds: control_change channel=0 control=35 value=65 time=0
83.538 seconds: control_change channel=0 control=35 value=65 time=0
83.545 seconds: control_change channel=0 control=35 value=65 time=0
83.545 seconds: control_change channel=0 control=35 value=65 time=0
83.551 seconds: control_change channel=0 control=35 value=65 time=0
83.551 seconds: control_change channel=0 control=35 value=65 time=0
83.551 seconds: control_change channel=0 control=35 value=65 time=0
83.558 seconds: control_change channel=0 control=35 value=65 time=0
83.558 seconds: control_change channel=0 control=35 value=65 time=0
83.564 seconds: control_change channel=0 control=35 value=65 time=0
83.564 seconds: control_change channel=0 control=35 value=65 time=0
83.564 seconds: control_change channel=0 control=35 value=65 time=0
83.573 seconds: control_change channel=0 control=35 value=65 time=0
83.573 seconds: control_change channel=0 control=35 value=65 time=0
83.573 seconds: control_change channel=0 control=35 value=65 time=0
83.581 seconds: control_change channel=0 control=35 value=65 time=0
83.581 seconds: control_change channel=0 control=35 value=65 time=0
83.589 seconds: control_change channel=0 control=35 value=65 time=0
83.589 seconds: control_change channel=0 control=35 value=65 time=0
83.596 seconds: control_change channel=0 control=35 value=65 time=0
83.603 seconds: control_change channel=0 control=35 value=65 time=0
83.609 seconds: control_change channel=0 control=35 value=65 time=0
83.609 seconds: control_change channel=0 control=35 value=65 time=0
83.623 seconds: control_change channel=0 control=33 value=65 time=0
83.637 seconds: control_change channel=0 control=33 value=65 time=0
84.115 seconds: control_change channel=0 control=35 value=63 time=0
84.131 seconds: control_change channel=0 control=35 value=63 time=0
84.141 seconds: control_change channel=0 control=35 value=63 time=0
84.147 seconds: control_change channel=0 control=35 value=63 time=0
84.154 seconds: control_change channel=0 control=35 value=63 time=0
84.163 seconds: control_change channel=0 control=35 value=63 time=0
84.163 seconds: control_change channel=0 control=35 value=63 time=0
84.172 seconds: control_change channel=0 control=35 value=63 time=0
84.172 seconds: control_change channel=0 control=35 value=63 time=0
84.182 seconds: control_change channel=0 control=35 value=63 time=0
84.182 seconds: control_change channel=0 control=35 value=63 time=0
84.189 seconds: control_change channel=0 control=35 value=63 time=0
84.189 seconds: control_change channel=0 control=35 value=63 time=0
84.198 seconds: control_change channel=0 control=35 value=63 time=0
84.198 seconds: control_change channel=0 control=35 value=63 time=0
84.198 seconds: control_change channel=0 control=35 value=63 time=0
84.207 seconds: control_change channel=0 control=35 value=63 time=0
84.207 seconds: control_change channel=0 control=35 value=63 time=0
84.213 seconds: control_change channel=0 control=35 value=63 time=0
84.213 seconds: control_change channel=0 control=35 value=63 time=0
84.213 seconds: control_change channel=0 control=35 value=63 time=0
84.221 seconds: control_change channel=0 control=35 value=63 time=0
84.221 seconds: control_change channel=0 control=35 value=63 time=0
84.221 seconds: control_change channel=0 control=35 value=63 time=0
84.227 seconds: control_change channel=0 control=35 value=63 time=0
84.227 seconds: control_change channel=0 control=35 value=63 time=0
84.227 seconds: control_change channel=0 control=35 value=63 time=0
84.233 seconds: control_change channel=0 control=35 value=63 time=0
84.233 seconds: control_change channel=0 control=35 value=63 time=0
84.233 seconds: control_change channel=0 control=35 value=63 time=0
84.240 seconds: control_change channel=0 control=35 value=63 time=0
84.240 seconds: control_change channel=0 control=35 value=63 time=0
84.240 seconds: control_change channel=0 control=35 value=63 time=0
84.246 seconds: control_change channel=0 control=35 value=63 time=0
84.246 seconds: control_change channel=0 control=35 value=63 time=0
84.246 seconds: control_change channel=0 control=35 value=63 time=0
84.246 seconds: control_change channel=0 control=35 value=63 time=0
84.253 seconds: control_change channel=0 control=35 value=63 time=0
84.253 seconds: control_change channel=0 control=35 value=63 time=0
84.253 seconds: control_change channel=0 control=35 value=63 time=0
84.253 seconds: control_change channel=0 control=35 value=63 time=0
84.260 seconds: control_change channel=0 control=35 value=63 time=0
84.260 seconds: control_change channel=0 control=35 value=63 time=0
84.260 seconds: control_change channel=0 control=35 value=63 time=0
84.260 seconds: control_change channel=0 control=35 value=63 time=0
84.266 seconds: control_change channel=0 control=35 value=63 time=0
84.266 seconds: control_change channel=0 control=35 value=63 time=0
84.266 seconds: control_change channel=0 control=35 value=63 time=0
84.266 seconds: control_change channel=0 control=35 value=63 time=0
84.272 seconds: control_change channel=0 control=35 value=63 time=0
84.272 seconds: control_change channel=0 control=35 value=63 time=0
84.272 seconds: control_change channel=0 control=35 value=63 time=0
84.272 seconds: control_change channel=0 control=35 value=63 time=0
84.278 seconds: control_change channel=0 control=35 value=63 time=0
84.278 seconds: control_change channel=0 control=35 value=63 time=0
84.278 seconds: control_change channel=0 control=35 value=63 time=0
84.278 seconds: control_change channel=0 control=35 value=63 time=0
84.284 seconds: control_change channel=0 control=35 value=63 time=0
84.284 seconds: control_change channel=0 control=35 value=63 time=0
84.284 seconds: control_change channel=0 control=35 value=63 time=0
84.284 seconds: control_change channel=0 control=35 value=63 time=0
84.284 seconds: control_change channel=0 control=35 value=63 time=0
84.290 seconds: control_change channel=0 control=35 value=63 time=0
84.290 seconds: control_change channel=0 control=35 value=63 time=0
84.290 seconds: control_change channel=0 control=35 value=63 time=0
84.290 seconds: control_change channel=0 control=35 value=63 time=0
84.296 seconds: control_change channel=0 control=35 value=63 time=0
84.296 seconds: control_change channel=0 control=35 value=63 time=0
84.296 seconds: control_change channel=0 control=35 value=63 time=0
84.296 seconds: control_change channel=0 control=35 value=63 time=0
84.296 seconds: control_change channel=0 control=35 value=63 time=0
84.302 seconds: control_change channel=0 control=35 value=63 time=0
84.302 seconds: control_change channel=0 control=35 value=63 time=0
84.302 seconds: control_change channel=0 control=35 value=63 time=0
84.302 seconds: control_change channel=0 control=35 value=63 time=0
84.302 seconds: control_change channel=0 control=35 value=63 time=0
84.308 seconds: control_change channel=0 control=35 value=63 time=0
84.308 seconds: control_change channel=0 control=35 value=63 time=0
84.308 seconds: control_change channel=0 control=35 value=63 time=0
84.308 seconds: control_change channel=0 control=35 value=63 time=0
84.308 seconds: control_change channel=0 control=35 value=63 time=0
84.314 seconds: control_change channel=0 control=35 value=63 time=0
84.314 seconds: control_change channel=0 control=35 value=63 time=0
84.314 seconds: control_change channel=0 control=35 value=63 time=0
84.314 seconds: control_change channel=0 control=35 value=63 time=0
84.314 seconds: control_change channel=0 control=35 value=63 time=0
84.321 seconds: control_change channel=0 control=35 value=63 time=0
84.321 seconds: control_change channel=0 control=35 value=63 time=0
84.321 seconds: control_change channel=0 control=35 value=63 time=0
84.321 seconds: control_change channel=0 control=35 value=63 time=0
84.321 seconds: control_change channel=0 control=35 value=63 time=0
84.327 seconds: control_change channel=0 control=35 value=63 time=0
84.327 seconds: control_change channel=0 control=35 value=63 time=0
84.327 seconds: control_change channel=0 control=35 value=63 time=0
84.327 seconds: control_change channel=0 control=35 value=62 time=0
84.333 seconds: control_change channel=0 control=35 value=63 time=0
84.333 seconds: control_change channel=0 control=35 value=63 time=0
84.333 seconds: control_change channel=0 control=35 value=63 time=0
84.333 seconds: control_change channel=0 control=35 value=63 time=0
84.333 seconds: control_change channel=0 control=35 value=63 time=0
84.339 seconds: control_change channel=0 control=35 value=63 time=0
84.339 seconds: control_change channel=0 control=35 value=62 time=0
84.339 seconds: control_change channel=0 control=35 value=63 time=0
84.339 seconds: control_change channel=0 control=35 value=63 time=0
84.345 seconds: control_change channel=0 control=35 value=63 time=0
84.345 seconds: control_change channel=0 control=35 value=63 time=0
84.345 seconds: control_change channel=0 control=35 value=63 time=0
84.345 seconds: control_change channel=0 control=35 value=63 time=0
84.351 seconds: control_change channel=0 control=35 value=63 time=0
84.351 seconds: control_change channel=0 control=35 value=63 time=0
84.351 seconds: control_change channel=0 control=35 value=63 time=0
84.351 seconds: control_change channel=0 control=35 value=63 time=0
84.351 seconds: control_change channel=0 control=35 value=63 time=0
84.357 seconds: control_change channel=0 control=35 value=63 time=0
84.357 seconds: control_change channel=0 control=35 value=63 time=0
84.357 seconds: control_change channel=0 control=35 value=63 time=0
84.357 seconds: control_change channel=0 control=35 value=63 time=0
84.357 seconds: control_change channel=0 control=35 value=63 time=0
84.364 seconds: control_change channel=0 control=35 value=63 time=0
84.364 seconds: control_change channel=0 control=35 value=63 time=0
84.364 seconds: control_change channel=0 control=35 value=63 time=0
84.364 seconds: control_change channel=0 control=35 value=63 time=0
84.364 seconds: control_change channel=0 control=35 value=63 time=0
84.371 seconds: control_change channel=0 control=35 value=63 time=0
84.371 seconds: control_change channel=0 control=35 value=63 time=0
84.371 seconds: control_change channel=0 control=35 value=63 time=0
84.371 seconds: control_change channel=0 control=35 value=63 time=0
84.371 seconds: control_change channel=0 control=35 value=63 time=0
84.378 seconds: control_change channel=0 control=35 value=63 time=0
84.378 seconds: control_change channel=0 control=35 value=63 time=0
84.378 seconds: control_change channel=0 control=35 value=63 time=0
84.378 seconds: control_change channel=0 control=35 value=63 time=0
84.378 seconds: control_change channel=0 control=35 value=63 time=0
84.384 seconds: control_change channel=0 control=35 value=63 time=0
84.384 seconds: control_change channel=0 control=35 value=63 time=0
84.384 seconds: control_change channel=0 control=35 value=63 time=0
84.384 seconds: control_change channel=0 control=35 value=63 time=0
84.390 seconds: control_change channel=0 control=35 value=63 time=0
84.390 seconds: control_change channel=0 control=35 value=63 time=0
84.390 seconds: control_change channel=0 control=35 value=63 time=0
84.390 seconds: control_change channel=0 control=35 value=63 time=0
84.396 seconds: control_change channel=0 control=35 value=63 time=0
84.396 seconds: control_change channel=0 control=35 value=63 time=0
84.396 seconds: control_change channel=0 control=35 value=63 time=0
84.396 seconds: control_change channel=0 control=35 value=63 time=0
84.403 seconds: control_change channel=0 control=35 value=63 time=0
84.403 seconds: control_change channel=0 control=35 value=63 time=0
84.403 seconds: control_change channel=0 control=35 value=63 time=0
84.403 seconds: control_change channel=0 control=35 value=63 time=0
84.414 seconds: control_change channel=0 control=35 value=63 time=0
84.414 seconds: control_change channel=0 control=35 value=63 time=0
84.414 seconds: control_change channel=0 control=35 value=63 time=0
84.414 seconds: control_change channel=0 control=35 value=63 time=0
84.414 seconds: control_change channel=0 control=35 value=63 time=0
84.414 seconds: control_change channel=0 control=35 value=63 time=0
84.420 seconds: control_change channel=0 control=35 value=63 time=0
84.420 seconds: control_change channel=0 control=35 value=63 time=0
84.420 seconds: control_change channel=0 control=35 value=63 time=0
84.426 seconds: control_change channel=0 control=35 value=63 time=0
84.426 seconds: control_change channel=0 control=35 value=63 time=0
84.426 seconds: control_change channel=0 control=35 value=63 time=0
84.426 seconds: control_change channel=0 control=35 value=63 time=0
84.433 seconds: control_change channel=0 control=35 value=63 time=0
84.433 seconds: control_change channel=0 control=35 value=63 time=0
84.438 seconds: control_change channel=0 control=35 value=63 time=0
84.438 seconds: control_change channel=0 control=35 value=63 time=0
84.438 seconds: control_change channel=0 control=35 value=63 time=0
84.445 seconds: control_change channel=0 control=35 value=63 time=0
84.445 seconds: control_change channel=0 control=35 value=63 time=0
84.445 seconds: control_change channel=0 control=35 value=63 time=0
84.451 seconds: control_change channel=0 control=35 value=63 time=0
84.451 seconds: control_change channel=0 control=35 value=63 time=0
84.457 seconds: control_change channel=0 control=35 value=63 time=0
84.457 seconds: control_change channel=0 control=35 value=63 time=0
84.457 seconds: control_change channel=0 control=35 value=63 time=0
84.464 seconds: control_change channel=0 control=35 value=63 time=0
84.464 seconds: control_change channel=0 control=35 value=63 time=0
84.464 seconds: control_change channel=0 control=35 value=63 time=0
84.471 seconds: control_change channel=0 control=35 value=63 time=0
84.471 seconds: control_change channel=0 control=35 value=63 time=0
84.477 seconds: control_change channel=0 control=35 value=63 time=0
84.477 seconds: control_change channel=0 control=35 value=63 time=0
84.477 seconds: control_change channel=0 control=35 value=63 time=0
84.486 seconds: control_change channel=0 control=35 value=63 time=0
84.486 seconds: control_change channel=0 control=35 value=63 time=0
84.486 seconds: control_change channel=0 control=35 value=63 time=0
84.494 seconds: control_change channel=0 control=35 value=63 time=0
84.494 seconds: control_change channel=0 control=35 value=63 time=0
84.500 seconds: control_change channel=0 control=35 value=63 time=0
84.500 seconds: control_change channel=0 control=35 value=63 time=0
84.506 seconds: control_change channel=0 control=35 value=63 time=0
84.506 seconds: control_change channel=0 control=35 value=63 time=0
84.513 seconds: control_change channel=0 control=35 value=63 time=0
84.513 seconds: control_change channel=0 control=35 value=63 time=0
84.519 seconds: control_change channel=0 control=35 value=63 time=0
84.519 seconds: control_change channel=0 control=35 value=63 time=0
84.527 seconds: control_change channel=0 control=35 value=63 time=0
84.527 seconds: control_change channel=0 control=35 value=63 time=0
84.533 seconds: control_change channel=0 control=35 value=63 time=0
84.533 seconds: control_change channel=0 control=35 value=63 time=0
84.542 seconds: control_change channel=0 control=35 value=63 time=0
84.542 seconds: control_change channel=0 control=35 value=63 time=0
84.549 seconds: control_change channel=0 control=35 value=63 time=0
84.555 seconds: control_change channel=0 control=35 value=63 time=0
84.555 seconds: control_change channel=0 control=33 value=63 time=0
84.564 seconds: control_change channel=0 control=33 value=63 time=0
84.570 seconds: control_change channel=0 control=33 value=63 time=0
84.580 seconds: control_change channel=0 control=33 value=63 time=0
84.588 seconds: control_change channel=0 control=33 value=63 time=0
84.597 seconds: control_change channel=0 control=33 value=63 time=0
84.612 seconds: control_change channel=0 control=33 value=63 time=0
84.630 seconds: control_change channel=0 control=33 value=63 time=0
84.641 seconds: control_change channel=0 control=35 value=63 time=0
84.648 seconds: control_change channel=0 control=35 value=63 time=0
84.655 seconds: control_change channel=0 control=35 value=63 time=0
84.663 seconds: control_change channel=0 control=35 value=63 time=0
84.669 seconds: control_change channel=0 control=35 value=63 time=0
84.669 seconds: control_change channel=0 control=35 value=63 time=0
84.677 seconds: control_change channel=0 control=35 value=63 time=0
84.677 seconds: control_change channel=0 control=35 value=63 time=0
84.686 seconds: control_change channel=0 control=35 value=63 time=0
84.686 seconds: control_change channel=0 control=35 value=63 time=0
84.693 seconds: control_change channel=0 control=35 value=63 time=0
84.693 seconds: control_change channel=0 control=35 value=63 time=0
84.700 seconds: control_change channel=0 control=35 value=63 time=0
84.700 seconds: control_change channel=0 control=35 value=63 time=0
84.706 seconds: control_change channel=0 control=35 value=63 time=0
84.706 seconds: control_change channel=0 control=35 value=63 time=0
84.712 seconds: control_change channel=0 control=35 value=63 time=0
84.712 seconds: control_change channel=0 control=35 value=63 time=0
84.712 seconds: control_change channel=0 control=35 value=63 time=0
84.725 seconds: control_change channel=0 control=35 value=63 time=0
84.725 seconds: control_change channel=0 control=35 value=63 time=0
84.725 seconds: control_change channel=0 control=35 value=63 time=0
84.725 seconds: control_change channel=0 control=35 value=63 time=0
84.731 seconds: control_change channel=0 control=35 value=63 time=0
84.731 seconds: control_change channel=0 control=35 value=63 time=0
84.731 seconds: control_change channel=0 control=35 value=63 time=0
84.737 seconds: control_change channel=0 control=35 value=63 time=0
84.737 seconds: control_change channel=0 control=35 value=63 time=0
84.737 seconds: control_change channel=0 control=35 value=63 time=0
84.744 seconds: control_change channel=0 control=35 value=63 time=0
84.744 seconds: control_change channel=0 control=35 value=63 time=0
84.744 seconds: control_change channel=0 control=35 value=63 time=0
84.751 seconds: control_change channel=0 control=35 value=63 time=0
84.751 seconds: control_change channel=0 control=35 value=63 time=0
84.751 seconds: control_change channel=0 control=35 value=63 time=0
84.757 seconds: control_change channel=0 control=35 value=63 time=0
84.757 seconds: control_change channel=0 control=35 value=63 time=0
84.757 seconds: control_change channel=0 control=35 value=63 time=0
84.764 seconds: control_change channel=0 control=35 value=63 time=0
84.764 seconds: control_change channel=0 control=35 value=63 time=0
84.764 seconds: control_change channel=0 control=35 value=63 time=0
84.764 seconds: control_change channel=0 control=35 value=63 time=0
84.771 seconds: control_change channel=0 control=35 value=63 time=0
84.771 seconds: control_change channel=0 control=35 value=63 time=0
84.771 seconds: control_change channel=0 control=35 value=63 time=0
84.777 seconds: control_change channel=0 control=35 value=63 time=0
84.777 seconds: control_change channel=0 control=35 value=63 time=0
84.777 seconds: control_change channel=0 control=35 value=63 time=0
84.783 seconds: control_change channel=0 control=35 value=63 time=0
84.783 seconds: control_change channel=0 control=35 value=63 time=0
84.783 seconds: control_change channel=0 control=35 value=63 time=0
84.783 seconds: control_change channel=0 control=35 value=63 time=0
84.790 seconds: control_change channel=0 control=35 value=63 time=0
84.790 seconds: control_change channel=0 control=35 value=63 time=0
84.790 seconds: control_change channel=0 control=35 value=63 time=0
84.790 seconds: control_change channel=0 control=35 value=63 time=0
84.797 seconds: control_change channel=0 control=35 value=63 time=0
84.797 seconds: control_change channel=0 control=35 value=63 time=0
84.797 seconds: control_change channel=0 control=35 value=63 time=0
84.797 seconds: control_change channel=0 control=35 value=63 time=0
84.809 seconds: control_change channel=0 control=35 value=63 time=0
84.809 seconds: control_change channel=0 control=35 value=63 time=0
84.809 seconds: control_change channel=0 control=35 value=63 time=0
84.809 seconds: control_change channel=0 control=35 value=63 time=0
84.809 seconds: control_change channel=0 control=35 value=63 time=0
84.809 seconds: control_change channel=0 control=35 value=63 time=0
84.809 seconds: control_change channel=0 control=35 value=63 time=0
84.816 seconds: control_change channel=0 control=35 value=63 time=0
84.816 seconds: control_change channel=0 control=35 value=63 time=0
84.816 seconds: control_change channel=0 control=35 value=63 time=0
84.816 seconds: control_change channel=0 control=35 value=63 time=0
84.822 seconds: control_change channel=0 control=35 value=63 time=0
84.822 seconds: control_change channel=0 control=35 value=63 time=0
84.822 seconds: control_change channel=0 control=35 value=63 time=0
84.822 seconds: control_change channel=0 control=35 value=63 time=0
84.828 seconds: control_change channel=0 control=35 value=63 time=0
84.828 seconds: control_change channel=0 control=35 value=63 time=0
84.828 seconds: control_change channel=0 control=35 value=63 time=0
84.828 seconds: control_change channel=0 control=35 value=63 time=0
84.835 seconds: control_change channel=0 control=35 value=63 time=0
84.835 seconds: control_change channel=0 control=35 value=63 time=0
84.835 seconds: control_change channel=0 control=35 value=63 time=0
84.835 seconds: control_change channel=0 control=35 value=63 time=0
84.841 seconds: control_change channel=0 control=35 value=63 time=0
84.841 seconds: control_change channel=0 control=35 value=63 time=0
84.841 seconds: control_change channel=0 control=35 value=63 time=0
84.841 seconds: control_change channel=0 control=35 value=63 time=0
84.841 seconds: control_change channel=0 control=35 value=63 time=0
84.848 seconds: control_change channel=0 control=35 value=63 time=0
84.848 seconds: control_change channel=0 control=35 value=63 time=0
84.848 seconds: control_change channel=0 control=35 value=63 time=0
84.848 seconds: control_change channel=0 control=35 value=63 time=0
84.854 seconds: control_change channel=0 control=35 value=63 time=0
84.854 seconds: control_change channel=0 control=35 value=63 time=0
84.854 seconds: control_change channel=0 control=35 value=63 time=0
84.854 seconds: control_change channel=0 control=35 value=63 time=0
84.854 seconds: control_change channel=0 control=35 value=63 time=0
84.860 seconds: control_change channel=0 control=35 value=63 time=0
84.860 seconds: control_change channel=0 control=35 value=63 time=0
84.860 seconds: control_change channel=0 control=35 value=63 time=0
84.860 seconds: control_change channel=0 control=35 value=63 time=0
84.866 seconds: control_change channel=0 control=35 value=63 time=0
84.866 seconds: control_change channel=0 control=35 value=63 time=0
84.866 seconds: control_change channel=0 control=35 value=63 time=0
84.866 seconds: control_change channel=0 control=35 value=63 time=0
84.866 seconds: control_change channel=0 control=35 value=63 time=0
84.873 seconds: control_change channel=0 control=35 value=63 time=0
84.873 seconds: control_change channel=0 control=35 value=63 time=0
84.873 seconds: control_change channel=0 control=35 value=62 time=0
84.873 seconds: control_change channel=0 control=35 value=63 time=0
84.879 seconds: control_change channel=0 control=35 value=63 time=0
84.879 seconds: control_change channel=0 control=35 value=63 time=0
84.879 seconds: control_change channel=0 control=35 value=63 time=0
84.879 seconds: control_change channel=0 control=35 value=63 time=0
84.885 seconds: control_change channel=0 control=35 value=63 time=0
84.885 seconds: control_change channel=0 control=35 value=63 time=0
84.885 seconds: control_change channel=0 control=35 value=63 time=0
84.885 seconds: control_change channel=0 control=35 value=63 time=0
84.885 seconds: control_change channel=0 control=35 value=63 time=0
84.891 seconds: control_change channel=0 control=35 value=63 time=0
84.891 seconds: control_change channel=0 control=35 value=63 time=0
84.891 seconds: control_change channel=0 control=35 value=63 time=0
84.891 seconds: control_change channel=0 control=35 value=63 time=0
84.891 seconds: control_change channel=0 control=35 value=63 time=0
84.897 seconds: control_change channel=0 control=35 value=63 time=0
84.897 seconds: control_change channel=0 control=35 value=63 time=0
84.897 seconds: control_change channel=0 control=35 value=63 time=0
84.903 seconds: control_change channel=0 control=35 value=63 time=0
84.903 seconds: control_change channel=0 control=35 value=63 time=0
84.903 seconds: control_change channel=0 control=35 value=63 time=0
84.903 seconds: control_change channel=0 control=35 value=63 time=0
84.903 seconds: control_change channel=0 control=35 value=63 time=0
84.903 seconds: control_change channel=0 control=35 value=63 time=0
84.909 seconds: control_change channel=0 control=35 value=63 time=0
84.909 seconds: control_change channel=0 control=35 value=63 time=0
84.909 seconds: control_change channel=0 control=35 value=63 time=0
84.909 seconds: control_change channel=0 control=35 value=63 time=0
84.915 seconds: control_change channel=0 control=35 value=63 time=0
84.915 seconds: control_change channel=0 control=35 value=63 time=0
84.915 seconds: control_change channel=0 control=35 value=63 time=0
84.915 seconds: control_change channel=0 control=35 value=63 time=0
84.915 seconds: control_change channel=0 control=35 value=63 time=0
84.922 seconds: control_change channel=0 control=35 value=63 time=0
84.922 seconds: control_change channel=0 control=35 value=63 time=0
84.922 seconds: control_change channel=0 control=35 value=63 time=0
84.922 seconds: control_change channel=0 control=35 value=63 time=0
84.922 seconds: control_change channel=0 control=35 value=63 time=0
84.928 seconds: control_change channel=0 control=35 value=63 time=0
84.928 seconds: control_change channel=0 control=35 value=63 time=0
84.928 seconds: control_change channel=0 control=35 value=63 time=0
84.928 seconds: control_change channel=0 control=35 value=63 time=0
84.934 seconds: control_change channel=0 control=35 value=63 time=0
84.934 seconds: control_change channel=0 control=35 value=63 time=0
84.934 seconds: control_change channel=0 control=35 value=63 time=0
84.934 seconds: control_change channel=0 control=35 value=63 time=0
84.934 seconds: control_change channel=0 control=35 value=63 time=0
84.940 seconds: control_change channel=0 control=35 value=63 time=0
84.940 seconds: control_change channel=0 control=35 value=63 time=0
84.940 seconds: control_change channel=0 control=35 value=63 time=0
84.940 seconds: control_change channel=0 control=35 value=63 time=0
84.940 seconds: control_change channel=0 control=35 value=63 time=0
84.947 seconds: control_change channel=0 control=35 value=63 time=0
84.947 seconds: control_change channel=0 control=35 value=63 time=0
84.947 seconds: control_change channel=0 control=35 value=63 time=0
84.947 seconds: control_change channel=0 control=35 value=63 time=0
84.947 seconds: control_change channel=0 control=35 value=63 time=0
84.953 seconds: control_change channel=0 control=35 value=63 time=0
84.953 seconds: control_change channel=0 control=35 value=63 time=0
84.953 seconds: control_change channel=0 control=35 value=63 time=0
84.953 seconds: control_change channel=0 control=35 value=63 time=0
84.953 seconds: control_change channel=0 control=35 value=63 time=0
84.959 seconds: control_change channel=0 control=35 value=63 time=0
84.959 seconds: control_change channel=0 control=35 value=63 time=0
84.959 seconds: control_change channel=0 control=35 value=63 time=0
84.959 seconds: control_change channel=0 control=35 value=63 time=0
84.959 seconds: control_change channel=0 control=35 value=63 time=0
84.965 seconds: control_change channel=0 control=35 value=63 time=0
84.965 seconds: control_change channel=0 control=35 value=63 time=0
84.965 seconds: control_change channel=0 control=35 value=63 time=0
84.965 seconds: control_change channel=0 control=35 value=63 time=0
84.965 seconds: control_change channel=0 control=35 value=63 time=0
84.971 seconds: control_change channel=0 control=35 value=63 time=0
84.971 seconds: control_change channel=0 control=35 value=63 time=0
84.971 seconds: control_change channel=0 control=35 value=63 time=0
84.971 seconds: control_change channel=0 control=35 value=63 time=0
84.971 seconds: control_change channel=0 control=35 value=63 time=0
84.978 seconds: control_change channel=0 control=35 value=63 time=0
84.978 seconds: control_change channel=0 control=35 value=62 time=0
84.978 seconds: control_change channel=0 control=35 value=63 time=0
84.978 seconds: control_change channel=0 control=35 value=63 time=0
84.978 seconds: control_change channel=0 control=35 value=63 time=0
84.984 seconds: control_change channel=0 control=35 value=63 time=0
84.984 seconds: control_change channel=0 control=35 value=63 time=0
84.984 seconds: control_change channel=0 control=35 value=63 time=0
84.984 seconds: control_change channel=0 control=35 value=63 time=0
84.984 seconds: control_change channel=0 control=35 value=63 time=0
84.990 seconds: control_change channel=0 control=35 value=63 time=0
84.990 seconds: control_change channel=0 control=35 value=63 time=0
84.990 seconds: control_change channel=0 control=35 value=63 time=0
84.990 seconds: control_change channel=0 control=35 value=63 time=0
84.990 seconds: control_change channel=0 control=35 value=63 time=0
84.996 seconds: control_change channel=0 control=35 value=63 time=0
84.996 seconds: control_change channel=0 control=35 value=62 time=0
84.996 seconds: control_change channel=0 control=35 value=63 time=0
84.996 seconds: control_change channel=0 control=35 value=63 time=0
84.996 seconds: control_change channel=0 control=35 value=63 time=0
85.002 seconds: control_change channel=0 control=35 value=63 time=0
85.002 seconds: control_change channel=0 control=35 value=63 time=0
85.002 seconds: control_change channel=0 control=35 value=63 time=0
85.002 seconds: control_change channel=0 control=35 value=63 time=0
85.002 seconds: control_change channel=0 control=35 value=63 time=0
85.002 seconds: control_change channel=0 control=35 value=63 time=0
85.008 seconds: control_change channel=0 control=35 value=63 time=0
85.008 seconds: control_change channel=0 control=35 value=63 time=0
85.008 seconds: control_change channel=0 control=35 value=63 time=0
85.008 seconds: control_change channel=0 control=35 value=63 time=0
85.008 seconds: control_change channel=0 control=35 value=62 time=0
85.014 seconds: control_change channel=0 control=35 value=63 time=0
85.014 seconds: control_change channel=0 control=35 value=63 time=0
85.014 seconds: control_change channel=0 control=35 value=63 time=0
85.014 seconds: control_change channel=0 control=35 value=63 time=0
85.014 seconds: control_change channel=0 control=35 value=63 time=0
85.014 seconds: control_change channel=0 control=35 value=63 time=0
85.020 seconds: control_change channel=0 control=35 value=63 time=0
85.020 seconds: control_change channel=0 control=35 value=63 time=0
85.020 seconds: control_change channel=0 control=35 value=63 time=0
85.020 seconds: control_change channel=0 control=35 value=63 time=0
85.020 seconds: control_change channel=0 control=35 value=63 time=0
85.020 seconds: control_change channel=0 control=35 value=63 time=0
85.026 seconds: control_change channel=0 control=35 value=63 time=0
85.026 seconds: control_change channel=0 control=35 value=63 time=0
85.026 seconds: control_change channel=0 control=35 value=63 time=0
85.026 seconds: control_change channel=0 control=35 value=63 time=0
85.026 seconds: control_change channel=0 control=35 value=63 time=0
85.026 seconds: control_change channel=0 control=35 value=63 time=0
85.032 seconds: control_change channel=0 control=35 value=63 time=0
85.032 seconds: control_change channel=0 control=35 value=63 time=0
85.032 seconds: control_change channel=0 control=35 value=63 time=0
85.032 seconds: control_change channel=0 control=35 value=63 time=0
85.032 seconds: control_change channel=0 control=35 value=63 time=0
85.032 seconds: control_change channel=0 control=35 value=63 time=0
85.038 seconds: control_change channel=0 control=35 value=63 time=0
85.038 seconds: control_change channel=0 control=35 value=63 time=0
85.038 seconds: control_change channel=0 control=35 value=63 time=0
85.038 seconds: control_change channel=0 control=35 value=62 time=0
85.043 seconds: control_change channel=0 control=35 value=63 time=0
85.044 seconds: control_change channel=0 control=35 value=63 time=0
85.044 seconds: control_change channel=0 control=35 value=63 time=0
85.044 seconds: control_change channel=0 control=35 value=63 time=0
85.044 seconds: control_change channel=0 control=35 value=63 time=0
85.044 seconds: control_change channel=0 control=35 value=63 time=0
85.044 seconds: control_change channel=0 control=35 value=63 time=0
85.044 seconds: control_change channel=0 control=35 value=63 time=0
85.050 seconds: control_change channel=0 control=35 value=63 time=0
85.050 seconds: control_change channel=0 control=35 value=63 time=0
85.050 seconds: control_change channel=0 control=35 value=62 time=0
85.050 seconds: control_change channel=0 control=35 value=63 time=0
85.050 seconds: control_change channel=0 control=35 value=62 time=0
85.056 seconds: control_change channel=0 control=35 value=63 time=0
85.056 seconds: control_change channel=0 control=35 value=63 time=0
85.056 seconds: control_change channel=0 control=35 value=63 time=0
85.056 seconds: control_change channel=0 control=35 value=63 time=0
85.056 seconds: control_change channel=0 control=35 value=63 time=0
85.056 seconds: control_change channel=0 control=35 value=63 time=0
85.062 seconds: control_change channel=0 control=35 value=63 time=0
85.062 seconds: control_change channel=0 control=35 value=63 time=0
85.062 seconds: control_change channel=0 control=35 value=62 time=0
85.062 seconds: control_change channel=0 control=35 value=63 time=0
85.062 seconds: control_change channel=0 control=35 value=62 time=0
85.068 seconds: control_change channel=0 control=35 value=63 time=0
85.068 seconds: control_change channel=0 control=35 value=63 time=0
85.068 seconds: control_change channel=0 control=35 value=63 time=0
85.068 seconds: control_change channel=0 control=35 value=63 time=0
85.068 seconds: control_change channel=0 control=35 value=63 time=0
85.068 seconds: control_change channel=0 control=35 value=63 time=0
85.074 seconds: control_change channel=0 control=35 value=63 time=0
85.074 seconds: control_change channel=0 control=35 value=63 time=0
85.074 seconds: control_change channel=0 control=35 value=63 time=0
85.074 seconds: control_change channel=0 control=35 value=63 time=0
85.074 seconds: control_change channel=0 control=35 value=62 time=0
85.074 seconds: control_change channel=0 control=35 value=63 time=0
85.080 seconds: control_change channel=0 control=35 value=63 time=0
85.080 seconds: control_change channel=0 control=35 value=63 time=0
85.080 seconds: control_change channel=0 control=35 value=63 time=0
85.080 seconds: control_change channel=0 control=35 value=63 time=0
85.080 seconds: control_change channel=0 control=35 value=63 time=0
85.080 seconds: control_change channel=0 control=35 value=63 time=0
85.086 seconds: control_change channel=0 control=35 value=63 time=0
85.086 seconds: control_change channel=0 control=35 value=63 time=0
85.086 seconds: control_change channel=0 control=35 value=63 time=0
85.086 seconds: control_change channel=0 control=35 value=62 time=0
85.086 seconds: control_change channel=0 control=35 value=63 time=0
85.086 seconds: control_change channel=0 control=35 value=63 time=0
85.092 seconds: control_change channel=0 control=35 value=63 time=0
85.092 seconds: control_change channel=0 control=35 value=63 time=0
85.092 seconds: control_change channel=0 control=35 value=63 time=0
85.092 seconds: control_change channel=0 control=35 value=63 time=0
85.092 seconds: control_change channel=0 control=35 value=63 time=0
85.092 seconds: control_change channel=0 control=35 value=63 time=0
85.098 seconds: control_change channel=0 control=35 value=63 time=0
85.098 seconds: control_change channel=0 control=35 value=63 time=0
85.098 seconds: control_change channel=0 control=35 value=62 time=0
85.098 seconds: control_change channel=0 control=35 value=63 time=0
85.098 seconds: control_change channel=0 control=35 value=63 time=0
85.104 seconds: control_change channel=0 control=35 value=62 time=0
85.104 seconds: control_change channel=0 control=35 value=63 time=0
85.104 seconds: control_change channel=0 control=35 value=63 time=0
85.104 seconds: control_change channel=0 control=35 value=63 time=0
85.104 seconds: control_change channel=0 control=35 value=63 time=0
85.104 seconds: control_change channel=0 control=35 value=63 time=0
85.110 seconds: control_change channel=0 control=35 value=63 time=0
85.110 seconds: control_change channel=0 control=35 value=63 time=0
85.110 seconds: control_change channel=0 control=35 value=63 time=0
85.110 seconds: control_change channel=0 control=35 value=63 time=0
85.110 seconds: control_change channel=0 control=35 value=63 time=0
85.110 seconds: control_change channel=0 control=35 value=63 time=0
85.116 seconds: control_change channel=0 control=35 value=63 time=0
85.116 seconds: control_change channel=0 control=35 value=63 time=0
85.116 seconds: control_change channel=0 control=35 value=63 time=0
85.116 seconds: control_change channel=0 control=35 value=63 time=0
85.116 seconds: control_change channel=0 control=35 value=63 time=0
85.116 seconds: control_change channel=0 control=35 value=63 time=0
85.122 seconds: control_change channel=0 control=35 value=63 time=0
85.122 seconds: control_change channel=0 control=35 value=63 time=0
85.122 seconds: control_change channel=0 control=35 value=63 time=0
85.122 seconds: control_change channel=0 control=35 value=63 time=0
85.122 seconds: control_change channel=0 control=35 value=63 time=0
85.122 seconds: control_change channel=0 control=35 value=63 time=0
85.128 seconds: control_change channel=0 control=35 value=63 time=0
85.128 seconds: control_change channel=0 control=35 value=63 time=0
85.128 seconds: control_change channel=0 control=35 value=63 time=0
85.128 seconds: control_change channel=0 control=35 value=63 time=0
85.128 seconds: control_change channel=0 control=35 value=63 time=0
85.128 seconds: control_change channel=0 control=35 value=63 time=0
85.136 seconds: control_change channel=0 control=35 value=63 time=0
85.136 seconds: control_change channel=0 control=35 value=63 time=0
85.136 seconds: control_change channel=0 control=35 value=63 time=0
85.136 seconds: control_change channel=0 control=35 value=63 time=0
85.136 seconds: control_change channel=0 control=35 value=63 time=0
85.136 seconds: control_change channel=0 control=35 value=63 time=0
85.136 seconds: control_change channel=0 control=35 value=63 time=0
85.136 seconds: control_change channel=0 control=35 value=63 time=0
85.142 seconds: control_change channel=0 control=35 value=63 time=0
85.142 seconds: control_change channel=0 control=35 value=62 time=0
85.142 seconds: control_change channel=0 control=35 value=63 time=0
85.142 seconds: control_change channel=0 control=35 value=63 time=0
85.148 seconds: control_change channel=0 control=35 value=63 time=0
85.148 seconds: control_change channel=0 control=35 value=63 time=0
85.148 seconds: control_change channel=0 control=35 value=63 time=0
85.148 seconds: control_change channel=0 control=35 value=63 time=0
85.148 seconds: control_change channel=0 control=35 value=63 time=0
85.148 seconds: control_change channel=0 control=35 value=63 time=0
85.154 seconds: control_change channel=0 control=35 value=63 time=0
85.154 seconds: control_change channel=0 control=35 value=63 time=0
85.154 seconds: control_change channel=0 control=35 value=63 time=0
85.154 seconds: control_change channel=0 control=35 value=63 time=0
85.154 seconds: control_change channel=0 control=35 value=63 time=0
85.160 seconds: control_change channel=0 control=35 value=63 time=0
85.160 seconds: control_change channel=0 control=35 value=63 time=0
85.160 seconds: control_change channel=0 control=35 value=63 time=0
85.160 seconds: control_change channel=0 control=35 value=63 time=0
85.160 seconds: control_change channel=0 control=35 value=63 time=0
85.160 seconds: control_change channel=0 control=35 value=63 time=0
85.166 seconds: control_change channel=0 control=35 value=63 time=0
85.166 seconds: control_change channel=0 control=35 value=63 time=0
85.166 seconds: control_change channel=0 control=35 value=63 time=0
85.166 seconds: control_change channel=0 control=35 value=63 time=0
85.166 seconds: control_change channel=0 control=35 value=63 time=0
85.166 seconds: control_change channel=0 control=35 value=63 time=0
85.173 seconds: control_change channel=0 control=35 value=63 time=0
85.173 seconds: control_change channel=0 control=35 value=63 time=0
85.173 seconds: control_change channel=0 control=35 value=63 time=0
85.173 seconds: control_change channel=0 control=35 value=63 time=0
85.173 seconds: control_change channel=0 control=35 value=63 time=0
85.173 seconds: control_change channel=0 control=35 value=63 time=0
85.179 seconds: control_change channel=0 control=35 value=63 time=0
85.179 seconds: control_change channel=0 control=35 value=63 time=0
85.179 seconds: control_change channel=0 control=35 value=63 time=0
85.179 seconds: control_change channel=0 control=35 value=63 time=0
85.179 seconds: control_change channel=0 control=35 value=63 time=0
85.179 seconds: control_change channel=0 control=35 value=63 time=0
85.185 seconds: control_change channel=0 control=35 value=63 time=0
85.185 seconds: control_change channel=0 control=35 value=63 time=0
85.185 seconds: control_change channel=0 control=35 value=63 time=0
85.185 seconds: control_change channel=0 control=35 value=63 time=0
85.185 seconds: control_change channel=0 control=35 value=63 time=0
85.191 seconds: control_change channel=0 control=35 value=62 time=0
85.191 seconds: control_change channel=0 control=35 value=63 time=0
85.191 seconds: control_change channel=0 control=35 value=63 time=0
85.191 seconds: control_change channel=0 control=35 value=62 time=0
85.197 seconds: control_change channel=0 control=35 value=63 time=0
85.197 seconds: control_change channel=0 control=35 value=63 time=0
85.197 seconds: control_change channel=0 control=35 value=63 time=0
85.197 seconds: control_change channel=0 control=35 value=63 time=0
85.197 seconds: control_change channel=0 control=35 value=63 time=0
85.197 seconds: control_change channel=0 control=35 value=63 time=0
85.203 seconds: control_change channel=0 control=35 value=63 time=0
85.203 seconds: control_change channel=0 control=35 value=63 time=0
85.203 seconds: control_change channel=0 control=35 value=63 time=0
85.203 seconds: control_change channel=0 control=35 value=63 time=0
85.203 seconds: control_change channel=0 control=35 value=63 time=0
85.203 seconds: control_change channel=0 control=35 value=63 time=0
85.209 seconds: control_change channel=0 control=35 value=63 time=0
85.209 seconds: control_change channel=0 control=35 value=63 time=0
85.209 seconds: control_change channel=0 control=35 value=63 time=0
85.209 seconds: control_change channel=0 control=35 value=63 time=0
85.209 seconds: control_change channel=0 control=35 value=63 time=0
85.209 seconds: control_change channel=0 control=35 value=63 time=0
85.215 seconds: control_change channel=0 control=35 value=63 time=0
85.215 seconds: control_change channel=0 control=35 value=63 time=0
85.215 seconds: control_change channel=0 control=35 value=63 time=0
85.215 seconds: control_change channel=0 control=35 value=63 time=0
85.215 seconds: control_change channel=0 control=35 value=63 time=0
85.215 seconds: control_change channel=0 control=35 value=63 time=0
85.221 seconds: control_change channel=0 control=35 value=63 time=0
85.221 seconds: control_change channel=0 control=35 value=63 time=0
85.221 seconds: control_change channel=0 control=35 value=63 time=0
85.221 seconds: control_change channel=0 control=35 value=63 time=0
85.221 seconds: control_change channel=0 control=35 value=63 time=0
85.221 seconds: control_change channel=0 control=35 value=63 time=0
85.229 seconds: control_change channel=0 control=35 value=62 time=0
85.229 seconds: control_change channel=0 control=35 value=63 time=0
85.229 seconds: control_change channel=0 control=35 value=63 time=0
85.229 seconds: control_change channel=0 control=35 value=62 time=0
85.229 seconds: control_change channel=0 control=35 value=63 time=0
85.230 seconds: control_change channel=0 control=35 value=63 time=0
85.230 seconds: control_change channel=0 control=35 value=63 time=0
85.230 seconds: control_change channel=0 control=35 value=63 time=0
85.236 seconds: control_change channel=0 control=35 value=63 time=0
85.236 seconds: control_change channel=0 control=35 value=63 time=0
85.236 seconds: control_change channel=0 control=35 value=63 time=0
85.236 seconds: control_change channel=0 control=35 value=63 time=0
85.236 seconds: control_change channel=0 control=35 value=63 time=0
85.236 seconds: control_change channel=0 control=35 value=63 time=0
85.242 seconds: control_change channel=0 control=35 value=62 time=0
85.242 seconds: control_change channel=0 control=35 value=63 time=0
85.242 seconds: control_change channel=0 control=35 value=63 time=0
85.242 seconds: control_change channel=0 control=35 value=62 time=0
85.242 seconds: control_change channel=0 control=35 value=63 time=0
85.248 seconds: control_change channel=0 control=35 value=63 time=0
85.248 seconds: control_change channel=0 control=35 value=63 time=0
85.248 seconds: control_change channel=0 control=35 value=63 time=0
85.248 seconds: control_change channel=0 control=35 value=63 time=0
85.248 seconds: control_change channel=0 control=35 value=63 time=0
85.248 seconds: control_change channel=0 control=35 value=63 time=0
85.254 seconds: control_change channel=0 control=35 value=63 time=0
85.254 seconds: control_change channel=0 control=35 value=63 time=0
85.254 seconds: control_change channel=0 control=35 value=63 time=0
85.254 seconds: control_change channel=0 control=35 value=62 time=0
85.254 seconds: control_change channel=0 control=35 value=63 time=0
85.260 seconds: control_change channel=0 control=35 value=62 time=0
85.260 seconds: control_change channel=0 control=35 value=63 time=0
85.260 seconds: control_change channel=0 control=35 value=63 time=0
85.260 seconds: control_change channel=0 control=35 value=63 time=0
85.260 seconds: control_change channel=0 control=35 value=63 time=0
85.260 seconds: control_change channel=0 control=35 value=63 time=0
85.266 seconds: control_change channel=0 control=35 value=63 time=0
85.266 seconds: control_change channel=0 control=35 value=63 time=0
85.266 seconds: control_change channel=0 control=35 value=62 time=0
85.266 seconds: control_change channel=0 control=35 value=63 time=0
85.266 seconds: control_change channel=0 control=35 value=63 time=0
85.266 seconds: control_change channel=0 control=35 value=63 time=0
85.272 seconds: control_change channel=0 control=35 value=63 time=0
85.272 seconds: control_change channel=0 control=35 value=63 time=0
85.272 seconds: control_change channel=0 control=35 value=63 time=0
85.272 seconds: control_change channel=0 control=35 value=63 time=0
85.272 seconds: control_change channel=0 control=35 value=63 time=0
85.272 seconds: control_change channel=0 control=35 value=62 time=0
85.278 seconds: control_change channel=0 control=35 value=63 time=0
85.278 seconds: control_change channel=0 control=35 value=63 time=0
85.278 seconds: control_change channel=0 control=35 value=63 time=0
85.278 seconds: control_change channel=0 control=35 value=63 time=0
85.278 seconds: control_change channel=0 control=35 value=63 time=0
85.278 seconds: control_change channel=0 control=35 value=63 time=0
85.284 seconds: control_change channel=0 control=35 value=62 time=0
85.284 seconds: control_change channel=0 control=35 value=63 time=0
85.284 seconds: control_change channel=0 control=35 value=63 time=0
85.284 seconds: control_change channel=0 control=35 value=63 time=0
85.284 seconds: control_change channel=0 control=35 value=63 time=0
85.284 seconds: control_change channel=0 control=35 value=62 time=0
85.290 seconds: control_change channel=0 control=35 value=63 time=0
85.290 seconds: control_change channel=0 control=35 value=63 time=0
85.290 seconds: control_change channel=0 control=35 value=63 time=0
85.290 seconds: control_change channel=0 control=35 value=63 time=0
85.290 seconds: control_change channel=0 control=35 value=63 time=0
85.290 seconds: control_change channel=0 control=35 value=62 time=0
85.296 seconds: control_change channel=0 control=35 value=63 time=0
85.296 seconds: control_change channel=0 control=35 value=63 time=0
85.296 seconds: control_change channel=0 control=35 value=63 time=0
85.296 seconds: control_change channel=0 control=35 value=62 time=0
85.296 seconds: control_change channel=0 control=35 value=63 time=0
85.296 seconds: control_change channel=0 control=35 value=63 time=0
85.302 seconds: control_change channel=0 control=35 value=63 time=0
85.302 seconds: control_change channel=0 control=35 value=62 time=0
85.302 seconds: control_change channel=0 control=35 value=63 time=0
85.302 seconds: control_change channel=0 control=35 value=63 time=0
85.302 seconds: control_change channel=0 control=35 value=63 time=0
85.302 seconds: control_change channel=0 control=35 value=63 time=0
85.308 seconds: control_change channel=0 control=35 value=62 time=0
85.308 seconds: control_change channel=0 control=35 value=63 time=0
85.308 seconds: control_change channel=0 control=35 value=63 time=0
85.308 seconds: control_change channel=0 control=35 value=63 time=0
85.308 seconds: control_change channel=0 control=35 value=62 time=0
85.308 seconds: control_change channel=0 control=35 value=63 time=0
85.314 seconds: control_change channel=0 control=35 value=63 time=0
85.314 seconds: control_change channel=0 control=35 value=62 time=0
85.314 seconds: control_change channel=0 control=35 value=63 time=0
85.314 seconds: control_change channel=0 control=35 value=63 time=0
85.314 seconds: control_change channel=0 control=35 value=63 time=0
85.314 seconds: control_change channel=0 control=35 value=62 time=0
85.321 seconds: control_change channel=0 control=35 value=63 time=0
85.321 seconds: control_change channel=0 control=35 value=63 time=0
85.321 seconds: control_change channel=0 control=35 value=63 time=0
85.321 seconds: control_change channel=0 control=35 value=63 time=0
85.321 seconds: control_change channel=0 control=35 value=62 time=0
85.321 seconds: control_change channel=0 control=35 value=63 time=0
85.321 seconds: control_change channel=0 control=35 value=63 time=0
85.327 seconds: control_change channel=0 control=35 value=63 time=0
85.327 seconds: control_change channel=0 control=35 value=62 time=0
85.327 seconds: control_change channel=0 control=35 value=63 time=0
85.327 seconds: control_change channel=0 control=35 value=63 time=0
85.327 seconds: control_change channel=0 control=35 value=62 time=0
85.327 seconds: control_change channel=0 control=35 value=63 time=0
85.333 seconds: control_change channel=0 control=35 value=63 time=0
85.333 seconds: control_change channel=0 control=35 value=63 time=0
85.333 seconds: control_change channel=0 control=35 value=63 time=0
85.333 seconds: control_change channel=0 control=35 value=63 time=0
85.333 seconds: control_change channel=0 control=35 value=62 time=0
85.333 seconds: control_change channel=0 control=35 value=63 time=0
85.339 seconds: control_change channel=0 control=35 value=63 time=0
85.339 seconds: control_change channel=0 control=35 value=63 time=0
85.339 seconds: control_change channel=0 control=35 value=62 time=0
85.339 seconds: control_change channel=0 control=35 value=63 time=0
85.339 seconds: control_change channel=0 control=35 value=63 time=0
85.339 seconds: control_change channel=0 control=35 value=62 time=0
85.345 seconds: control_change channel=0 control=35 value=63 time=0
85.345 seconds: control_change channel=0 control=35 value=63 time=0
85.345 seconds: control_change channel=0 control=35 value=62 time=0
85.345 seconds: control_change channel=0 control=35 value=63 time=0
85.345 seconds: control_change channel=0 control=35 value=63 time=0
85.345 seconds: control_change channel=0 control=35 value=62 time=0
85.351 seconds: control_change channel=0 control=35 value=63 time=0
85.351 seconds: control_change channel=0 control=35 value=63 time=0
85.351 seconds: control_change channel=0 control=35 value=63 time=0
85.351 seconds: control_change channel=0 control=35 value=62 time=0
85.351 seconds: control_change channel=0 control=35 value=63 time=0
85.351 seconds: control_change channel=0 control=35 value=63 time=0
85.357 seconds: control_change channel=0 control=35 value=62 time=0
85.357 seconds: control_change channel=0 control=35 value=63 time=0
85.357 seconds: control_change channel=0 control=35 value=63 time=0
85.357 seconds: control_change channel=0 control=35 value=62 time=0
85.357 seconds: control_change channel=0 control=35 value=63 time=0
85.357 seconds: control_change channel=0 control=35 value=63 time=0
85.363 seconds: control_change channel=0 control=35 value=62 time=0
85.363 seconds: control_change channel=0 control=35 value=63 time=0
85.363 seconds: control_change channel=0 control=35 value=63 time=0
85.363 seconds: control_change channel=0 control=35 value=62 time=0
85.363 seconds: control_change channel=0 control=35 value=63 time=0
85.363 seconds: control_change channel=0 control=35 value=62 time=0
85.369 seconds: control_change channel=0 control=35 value=63 time=0
85.369 seconds: control_change channel=0 control=35 value=63 time=0
85.369 seconds: control_change channel=0 control=35 value=62 time=0
85.369 seconds: control_change channel=0 control=35 value=63 time=0
85.369 seconds: control_change channel=0 control=35 value=63 time=0
85.369 seconds: control_change channel=0 control=35 value=62 time=0
85.375 seconds: control_change channel=0 control=35 value=63 time=0
85.375 seconds: control_change channel=0 control=35 value=63 time=0
85.375 seconds: control_change channel=0 control=35 value=62 time=0
85.375 seconds: control_change channel=0 control=35 value=63 time=0
85.375 seconds: control_change channel=0 control=35 value=63 time=0
85.375 seconds: control_change channel=0 control=35 value=62 time=0
85.381 seconds: control_change channel=0 control=35 value=63 time=0
85.381 seconds: control_change channel=0 control=35 value=62 time=0
85.381 seconds: control_change channel=0 control=35 value=63 time=0
85.381 seconds: control_change channel=0 control=35 value=63 time=0
85.381 seconds: control_change channel=0 control=35 value=62 time=0
85.381 seconds: control_change channel=0 control=35 value=63 time=0
85.387 seconds: control_change channel=0 control=35 value=63 time=0
85.387 seconds: control_change channel=0 control=35 value=62 time=0
85.387 seconds: control_change channel=0 control=35 value=63 time=0
85.387 seconds: control_change channel=0 control=35 value=62 time=0
85.387 seconds: control_change channel=0 control=35 value=63 time=0
85.387 seconds: control_change channel=0 control=35 value=62 time=0
85.393 seconds: control_change channel=0 control=35 value=63 time=0
85.393 seconds: control_change channel=0 control=35 value=63 time=0
85.393 seconds: control_change channel=0 control=35 value=62 time=0
85.393 seconds: control_change channel=0 control=35 value=63 time=0
85.393 seconds: control_change channel=0 control=35 value=63 time=0
85.393 seconds: control_change channel=0 control=35 value=62 time=0
85.399 seconds: control_change channel=0 control=35 value=63 time=0
85.399 seconds: control_change channel=0 control=35 value=62 time=0
85.399 seconds: control_change channel=0 control=35 value=63 time=0
85.399 seconds: control_change channel=0 control=35 value=63 time=0
85.399 seconds: control_change channel=0 control=35 value=62 time=0
85.399 seconds: control_change channel=0 control=35 value=63 time=0
85.405 seconds: control_change channel=0 control=35 value=63 time=0
85.405 seconds: control_change channel=0 control=35 value=62 time=0
85.405 seconds: control_change channel=0 control=35 value=63 time=0
85.405 seconds: control_change channel=0 control=35 value=63 time=0
85.405 seconds: control_change channel=0 control=35 value=62 time=0
85.405 seconds: control_change channel=0 control=35 value=63 time=0
85.411 seconds: control_change channel=0 control=35 value=63 time=0
85.411 seconds: control_change channel=0 control=35 value=62 time=0
85.411 seconds: control_change channel=0 control=35 value=63 time=0
85.411 seconds: control_change channel=0 control=35 value=63 time=0
85.411 seconds: control_change channel=0 control=35 value=63 time=0
85.411 seconds: control_change channel=0 control=35 value=62 time=0
85.417 seconds: control_change channel=0 control=35 value=63 time=0
85.417 seconds: control_change channel=0 control=35 value=63 time=0
85.417 seconds: control_change channel=0 control=35 value=62 time=0
85.417 seconds: control_change channel=0 control=35 value=63 time=0
85.417 seconds: control_change channel=0 control=35 value=63 time=0
85.417 seconds: control_change channel=0 control=35 value=63 time=0
85.423 seconds: control_change channel=0 control=35 value=63 time=0
85.423 seconds: control_change channel=0 control=35 value=62 time=0
85.423 seconds: control_change channel=0 control=35 value=63 time=0
85.423 seconds: control_change channel=0 control=35 value=63 time=0
85.423 seconds: control_change channel=0 control=35 value=62 time=0
85.423 seconds: control_change channel=0 control=35 value=63 time=0
85.429 seconds: control_change channel=0 control=35 value=63 time=0
85.429 seconds: control_change channel=0 control=35 value=63 time=0
85.429 seconds: control_change channel=0 control=35 value=62 time=0
85.429 seconds: control_change channel=0 control=35 value=63 time=0
85.429 seconds: control_change channel=0 control=35 value=63 time=0
85.429 seconds: control_change channel=0 control=35 value=62 time=0
85.435 seconds: control_change channel=0 control=35 value=63 time=0
85.435 seconds: control_change channel=0 control=35 value=63 time=0
85.435 seconds: control_change channel=0 control=35 value=63 time=0
85.435 seconds: control_change channel=0 control=35 value=63 time=0
85.435 seconds: control_change channel=0 control=35 value=63 time=0
85.435 seconds: control_change channel=0 control=35 value=62 time=0
85.441 seconds: control_change channel=0 control=35 value=63 time=0
85.441 seconds: control_change channel=0 control=35 value=63 time=0
85.441 seconds: control_change channel=0 control=35 value=63 time=0
85.441 seconds: control_change channel=0 control=35 value=62 time=0
85.441 seconds: control_change channel=0 control=35 value=63 time=0
85.441 seconds: control_change channel=0 control=35 value=63 time=0
85.447 seconds: control_change channel=0 control=35 value=63 time=0
85.447 seconds: control_change channel=0 control=35 value=63 time=0
85.447 seconds: control_change channel=0 control=35 value=63 time=0
85.447 seconds: control_change channel=0 control=35 value=62 time=0
85.447 seconds: control_change channel=0 control=35 value=63 time=0
85.447 seconds: control_change channel=0 control=35 value=63 time=0
85.453 seconds: control_change channel=0 control=35 value=63 time=0
85.453 seconds: control_change channel=0 control=35 value=62 time=0
85.453 seconds: control_change channel=0 control=35 value=63 time=0
85.453 seconds: control_change channel=0 control=35 value=63 time=0
85.453 seconds: control_change channel=0 control=35 value=63 time=0
85.453 seconds: control_change channel=0 control=35 value=63 time=0
85.460 seconds: control_change channel=0 control=35 value=63 time=0
85.460 seconds: control_change channel=0 control=35 value=63 time=0
85.460 seconds: control_change channel=0 control=35 value=63 time=0
85.460 seconds: control_change channel=0 control=35 value=62 time=0
85.460 seconds: control_change channel=0 control=35 value=62 time=0
85.460 seconds: control_change channel=0 control=35 value=63 time=0
85.466 seconds: control_change channel=0 control=35 value=63 time=0
85.466 seconds: control_change channel=0 control=35 value=63 time=0
85.466 seconds: control_change channel=0 control=35 value=63 time=0
85.466 seconds: control_change channel=0 control=35 value=63 time=0
85.466 seconds: control_change channel=0 control=35 value=63 time=0
85.466 seconds: control_change channel=0 control=35 value=63 time=0
85.472 seconds: control_change channel=0 control=35 value=63 time=0
85.472 seconds: control_change channel=0 control=35 value=63 time=0
85.472 seconds: control_change channel=0 control=35 value=63 time=0
85.472 seconds: control_change channel=0 control=35 value=63 time=0
85.472 seconds: control_change channel=0 control=35 value=63 time=0
85.472 seconds: control_change channel=0 control=35 value=63 time=0
85.478 seconds: control_change channel=0 control=35 value=63 time=0
85.478 seconds: control_change channel=0 control=35 value=63 time=0
85.478 seconds: control_change channel=0 control=35 value=63 time=0
85.478 seconds: control_change channel=0 control=35 value=63 time=0
85.478 seconds: control_change channel=0 control=35 value=63 time=0
85.478 seconds: control_change channel=0 control=35 value=63 time=0
85.484 seconds: control_change channel=0 control=35 value=63 time=0
85.484 seconds: control_change channel=0 control=35 value=63 time=0
85.484 seconds: control_change channel=0 control=35 value=63 time=0
85.484 seconds: control_change channel=0 control=35 value=63 time=0
85.484 seconds: control_change channel=0 control=35 value=63 time=0
85.490 seconds: control_change channel=0 control=35 value=63 time=0
85.490 seconds: control_change channel=0 control=35 value=63 time=0
85.490 seconds: control_change channel=0 control=35 value=63 time=0
85.490 seconds: control_change channel=0 control=35 value=63 time=0
85.490 seconds: control_change channel=0 control=35 value=63 time=0
85.496 seconds: control_change channel=0 control=35 value=63 time=0
85.496 seconds: control_change channel=0 control=35 value=63 time=0
85.496 seconds: control_change channel=0 control=35 value=63 time=0
85.496 seconds: control_change channel=0 control=35 value=63 time=0
85.507 seconds: control_change channel=0 control=35 value=63 time=0
85.507 seconds: control_change channel=0 control=35 value=63 time=0
85.507 seconds: control_change channel=0 control=35 value=63 time=0
85.507 seconds: control_change channel=0 control=35 value=63 time=0
85.507 seconds: control_change channel=0 control=35 value=63 time=0
85.507 seconds: control_change channel=0 control=35 value=63 time=0
85.507 seconds: control_change channel=0 control=35 value=63 time=0
85.507 seconds: control_change channel=0 control=35 value=63 time=0
85.514 seconds: control_change channel=0 control=35 value=63 time=0
85.514 seconds: control_change channel=0 control=35 value=63 time=0
85.514 seconds: control_change channel=0 control=35 value=63 time=0
85.520 seconds: control_change channel=0 control=35 value=63 time=0
85.520 seconds: control_change channel=0 control=35 value=63 time=0
85.520 seconds: control_change channel=0 control=35 value=63 time=0
85.526 seconds: control_change channel=0 control=35 value=63 time=0
85.526 seconds: control_change channel=0 control=35 value=63 time=0
85.526 seconds: control_change channel=0 control=35 value=63 time=0
85.533 seconds: control_change channel=0 control=35 value=63 time=0
85.533 seconds: control_change channel=0 control=35 value=63 time=0
85.533 seconds: control_change channel=0 control=35 value=63 time=0
85.533 seconds: control_change channel=0 control=35 value=63 time=0
85.541 seconds: control_change channel=0 control=35 value=63 time=0
85.541 seconds: control_change channel=0 control=35 value=63 time=0
85.541 seconds: control_change channel=0 control=35 value=63 time=0
85.541 seconds: control_change channel=0 control=35 value=63 time=0
85.549 seconds: control_change channel=0 control=35 value=63 time=0
85.549 seconds: control_change channel=0 control=35 value=63 time=0
85.549 seconds: control_change channel=0 control=35 value=63 time=0
85.549 seconds: control_change channel=0 control=35 value=63 time=0
85.556 seconds: control_change channel=0 control=35 value=63 time=0
85.556 seconds: control_change channel=0 control=35 value=63 time=0
85.556 seconds: control_change channel=0 control=35 value=63 time=0
85.556 seconds: control_change channel=0 control=35 value=63 time=0
85.563 seconds: control_change channel=0 control=35 value=63 time=0
85.563 seconds: control_change channel=0 control=35 value=63 time=0
85.563 seconds: control_change channel=0 control=35 value=63 time=0
85.563 seconds: control_change channel=0 control=35 value=63 time=0
85.569 seconds: control_change channel=0 control=35 value=63 time=0
85.569 seconds: control_change channel=0 control=35 value=63 time=0
85.569 seconds: control_change channel=0 control=35 value=63 time=0
85.569 seconds: control_change channel=0 control=35 value=63 time=0
85.575 seconds: control_change channel=0 control=35 value=63 time=0
85.575 seconds: control_change channel=0 control=35 value=63 time=0
85.575 seconds: control_change channel=0 control=35 value=63 time=0
85.575 seconds: control_change channel=0 control=35 value=63 time=0
85.581 seconds: control_change channel=0 control=35 value=63 time=0
85.581 seconds: control_change channel=0 control=35 value=63 time=0
85.581 seconds: control_change channel=0 control=35 value=63 time=0
85.581 seconds: control_change channel=0 control=35 value=63 time=0
85.587 seconds: control_change channel=0 control=35 value=63 time=0
85.587 seconds: control_change channel=0 control=35 value=63 time=0
85.587 seconds: control_change channel=0 control=35 value=63 time=0
85.587 seconds: control_change channel=0 control=35 value=63 time=0
85.593 seconds: control_change channel=0 control=35 value=63 time=0
85.593 seconds: control_change channel=0 control=35 value=63 time=0
85.593 seconds: control_change channel=0 control=35 value=63 time=0
85.593 seconds: control_change channel=0 control=35 value=63 time=0
85.600 seconds: control_change channel=0 control=35 value=63 time=0
85.600 seconds: control_change channel=0 control=35 value=63 time=0
85.600 seconds: control_change channel=0 control=35 value=63 time=0
85.600 seconds: control_change channel=0 control=35 value=63 time=0
85.600 seconds: control_change channel=0 control=35 value=63 time=0
85.606 seconds: control_change channel=0 control=35 value=63 time=0
85.606 seconds: control_change channel=0 control=35 value=63 time=0
85.606 seconds: control_change channel=0 control=35 value=63 time=0
85.606 seconds: control_change channel=0 control=35 value=63 time=0
85.612 seconds: control_change channel=0 control=35 value=63 time=0
85.612 seconds: control_change channel=0 control=35 value=63 time=0
85.612 seconds: control_change channel=0 control=35 value=63 time=0
85.612 seconds: control_change channel=0 control=35 value=63 time=0
85.612 seconds: control_change channel=0 control=35 value=63 time=0
85.619 seconds: control_change channel=0 control=35 value=63 time=0
85.619 seconds: control_change channel=0 control=35 value=63 time=0
85.619 seconds: control_change channel=0 control=35 value=63 time=0
85.619 seconds: control_change channel=0 control=35 value=63 time=0
85.619 seconds: control_change channel=0 control=35 value=63 time=0
85.626 seconds: control_change channel=0 control=35 value=63 time=0
85.626 seconds: control_change channel=0 control=35 value=63 time=0
85.626 seconds: control_change channel=0 control=35 value=63 time=0
85.626 seconds: control_change channel=0 control=35 value=63 time=0
85.632 seconds: control_change channel=0 control=35 value=63 time=0
85.632 seconds: control_change channel=0 control=35 value=63 time=0
85.632 seconds: control_change channel=0 control=35 value=63 time=0
85.632 seconds: control_change channel=0 control=35 value=63 time=0
85.638 seconds: control_change channel=0 control=35 value=63 time=0
85.638 seconds: control_change channel=0 control=35 value=63 time=0
85.638 seconds: control_change channel=0 control=35 value=63 time=0
85.638 seconds: control_change channel=0 control=35 value=63 time=0
85.638 seconds: control_change channel=0 control=35 value=63 time=0
85.646 seconds: control_change channel=0 control=35 value=63 time=0
85.646 seconds: control_change channel=0 control=35 value=63 time=0
85.646 seconds: control_change channel=0 control=35 value=63 time=0
85.646 seconds: control_change channel=0 control=35 value=63 time=0
85.646 seconds: control_change channel=0 control=35 value=63 time=0
85.652 seconds: control_change channel=0 control=35 value=63 time=0
85.652 seconds: control_change channel=0 control=35 value=63 time=0
85.652 seconds: control_change channel=0 control=35 value=63 time=0
85.652 seconds: control_change channel=0 control=35 value=63 time=0
85.658 seconds: control_change channel=0 control=35 value=63 time=0
85.658 seconds: control_change channel=0 control=35 value=63 time=0
85.658 seconds: control_change channel=0 control=35 value=63 time=0
85.658 seconds: control_change channel=0 control=35 value=63 time=0
85.664 seconds: control_change channel=0 control=35 value=63 time=0
85.664 seconds: control_change channel=0 control=35 value=63 time=0
85.664 seconds: control_change channel=0 control=35 value=63 time=0
85.664 seconds: control_change channel=0 control=35 value=63 time=0
85.670 seconds: control_change channel=0 control=35 value=63 time=0
85.670 seconds: control_change channel=0 control=35 value=63 time=0
85.670 seconds: control_change channel=0 control=35 value=63 time=0
85.670 seconds: control_change channel=0 control=35 value=63 time=0
85.670 seconds: control_change channel=0 control=35 value=63 time=0
85.681 seconds: control_change channel=0 control=35 value=63 time=0
85.681 seconds: control_change channel=0 control=35 value=63 time=0
85.681 seconds: control_change channel=0 control=35 value=63 time=0
85.681 seconds: control_change channel=0 control=35 value=63 time=0
85.681 seconds: control_change channel=0 control=35 value=63 time=0
85.681 seconds: control_change channel=0 control=35 value=63 time=0
85.681 seconds: control_change channel=0 control=35 value=63 time=0
85.681 seconds: control_change channel=0 control=35 value=63 time=0
85.688 seconds: control_change channel=0 control=35 value=63 time=0
85.688 seconds: control_change channel=0 control=35 value=63 time=0
85.688 seconds: control_change channel=0 control=35 value=63 time=0
85.689 seconds: control_change channel=0 control=35 value=63 time=0
85.689 seconds: control_change channel=0 control=35 value=63 time=0
85.695 seconds: control_change channel=0 control=35 value=63 time=0
85.695 seconds: control_change channel=0 control=35 value=63 time=0
85.695 seconds: control_change channel=0 control=35 value=63 time=0
85.695 seconds: control_change channel=0 control=35 value=63 time=0
85.701 seconds: control_change channel=0 control=35 value=63 time=0
85.701 seconds: control_change channel=0 control=35 value=63 time=0
85.701 seconds: control_change channel=0 control=35 value=63 time=0
85.701 seconds: control_change channel=0 control=35 value=63 time=0
85.707 seconds: control_change channel=0 control=35 value=63 time=0
85.707 seconds: control_change channel=0 control=35 value=63 time=0
85.707 seconds: control_change channel=0 control=35 value=63 time=0
85.707 seconds: control_change channel=0 control=35 value=63 time=0
85.713 seconds: control_change channel=0 control=35 value=63 time=0
85.713 seconds: control_change channel=0 control=35 value=63 time=0
85.713 seconds: control_change channel=0 control=35 value=63 time=0
85.713 seconds: control_change channel=0 control=35 value=63 time=0
85.719 seconds: control_change channel=0 control=35 value=63 time=0
85.719 seconds: control_change channel=0 control=35 value=63 time=0
85.719 seconds: control_change channel=0 control=35 value=63 time=0
85.719 seconds: control_change channel=0 control=35 value=63 time=0
85.726 seconds: control_change channel=0 control=35 value=63 time=0
85.726 seconds: control_change channel=0 control=35 value=63 time=0
85.726 seconds: control_change channel=0 control=35 value=63 time=0
85.726 seconds: control_change channel=0 control=35 value=63 time=0
85.732 seconds: control_change channel=0 control=35 value=63 time=0
85.732 seconds: control_change channel=0 control=35 value=63 time=0
85.732 seconds: control_change channel=0 control=35 value=63 time=0
85.732 seconds: control_change channel=0 control=35 value=63 time=0
85.739 seconds: control_change channel=0 control=35 value=63 time=0
85.739 seconds: control_change channel=0 control=35 value=63 time=0
85.739 seconds: control_change channel=0 control=35 value=63 time=0
85.739 seconds: control_change channel=0 control=35 value=63 time=0
85.745 seconds: control_change channel=0 control=35 value=63 time=0
85.745 seconds: control_change channel=0 control=35 value=63 time=0
85.745 seconds: control_change channel=0 control=35 value=63 time=0
85.745 seconds: control_change channel=0 control=35 value=63 time=0
85.751 seconds: control_change channel=0 control=35 value=63 time=0
85.751 seconds: control_change channel=0 control=35 value=63 time=0
85.751 seconds: control_change channel=0 control=35 value=63 time=0
85.751 seconds: control_change channel=0 control=35 value=63 time=0
85.758 seconds: control_change channel=0 control=35 value=63 time=0
85.758 seconds: control_change channel=0 control=35 value=63 time=0
85.758 seconds: control_change channel=0 control=35 value=63 time=0
85.758 seconds: control_change channel=0 control=35 value=63 time=0
85.764 seconds: control_change channel=0 control=35 value=63 time=0
85.764 seconds: control_change channel=0 control=35 value=63 time=0
85.764 seconds: control_change channel=0 control=35 value=63 time=0
85.764 seconds: control_change channel=0 control=35 value=63 time=0
85.770 seconds: control_change channel=0 control=35 value=63 time=0
85.770 seconds: control_change channel=0 control=35 value=63 time=0
85.770 seconds: control_change channel=0 control=35 value=63 time=0
85.770 seconds: control_change channel=0 control=35 value=63 time=0
85.770 seconds: control_change channel=0 control=35 value=63 time=0
85.777 seconds: control_change channel=0 control=35 value=63 time=0
85.777 seconds: control_change channel=0 control=35 value=63 time=0
85.777 seconds: control_change channel=0 control=35 value=63 time=0
85.777 seconds: control_change channel=0 control=35 value=63 time=0
85.783 seconds: control_change channel=0 control=35 value=63 time=0
85.783 seconds: control_change channel=0 control=35 value=63 time=0
85.783 seconds: control_change channel=0 control=35 value=63 time=0
85.783 seconds: control_change channel=0 control=35 value=63 time=0
85.783 seconds: control_change channel=0 control=35 value=63 time=0
85.790 seconds: control_change channel=0 control=35 value=62 time=0
85.790 seconds: control_change channel=0 control=35 value=63 time=0
85.790 seconds: control_change channel=0 control=35 value=63 time=0
85.790 seconds: control_change channel=0 control=35 value=63 time=0
85.796 seconds: control_change channel=0 control=35 value=63 time=0
85.796 seconds: control_change channel=0 control=35 value=63 time=0
85.796 seconds: control_change channel=0 control=35 value=63 time=0
85.796 seconds: control_change channel=0 control=35 value=63 time=0
85.796 seconds: control_change channel=0 control=35 value=63 time=0
85.803 seconds: control_change channel=0 control=35 value=63 time=0
85.803 seconds: control_change channel=0 control=35 value=63 time=0
85.803 seconds: control_change channel=0 control=35 value=63 time=0
85.803 seconds: control_change channel=0 control=35 value=63 time=0
85.803 seconds: control_change channel=0 control=35 value=63 time=0
85.810 seconds: control_change channel=0 control=35 value=63 time=0
85.810 seconds: control_change channel=0 control=35 value=63 time=0
85.810 seconds: control_change channel=0 control=35 value=63 time=0
85.810 seconds: control_change channel=0 control=35 value=63 time=0
85.810 seconds: control_change channel=0 control=35 value=63 time=0
85.816 seconds: control_change channel=0 control=35 value=63 time=0
85.816 seconds: control_change channel=0 control=35 value=63 time=0
85.816 seconds: control_change channel=0 control=35 value=63 time=0
85.816 seconds: control_change channel=0 control=35 value=63 time=0
85.816 seconds: control_change channel=0 control=35 value=63 time=0
85.822 seconds: control_change channel=0 control=35 value=63 time=0
85.822 seconds: control_change channel=0 control=35 value=63 time=0
85.822 seconds: control_change channel=0 control=35 value=63 time=0
85.822 seconds: control_change channel=0 control=35 value=63 time=0
85.822 seconds: control_change channel=0 control=35 value=63 time=0
85.829 seconds: control_change channel=0 control=35 value=63 time=0
85.829 seconds: control_change channel=0 control=35 value=63 time=0
85.829 seconds: control_change channel=0 control=35 value=62 time=0
85.829 seconds: control_change channel=0 control=35 value=63 time=0
85.840 seconds: control_change channel=0 control=35 value=63 time=0
85.840 seconds: control_change channel=0 control=35 value=63 time=0
85.840 seconds: control_change channel=0 control=35 value=63 time=0
85.840 seconds: control_change channel=0 control=35 value=63 time=0
85.840 seconds: control_change channel=0 control=35 value=63 time=0
85.840 seconds: control_change channel=0 control=35 value=63 time=0
85.840 seconds: control_change channel=0 control=35 value=63 time=0
85.840 seconds: control_change channel=0 control=35 value=63 time=0
85.840 seconds: control_change channel=0 control=35 value=63 time=0
85.846 seconds: control_change channel=0 control=35 value=63 time=0
85.846 seconds: control_change channel=0 control=35 value=63 time=0
85.846 seconds: control_change channel=0 control=35 value=63 time=0
85.846 seconds: control_change channel=0 control=35 value=63 time=0
85.846 seconds: control_change channel=0 control=35 value=63 time=0
85.852 seconds: control_change channel=0 control=35 value=63 time=0
85.852 seconds: control_change channel=0 control=35 value=63 time=0
85.852 seconds: control_change channel=0 control=35 value=63 time=0
85.852 seconds: control_change channel=0 control=35 value=63 time=0
85.852 seconds: control_change channel=0 control=35 value=63 time=0
85.852 seconds: control_change channel=0 control=35 value=63 time=0
85.859 seconds: control_change channel=0 control=35 value=63 time=0
85.859 seconds: control_change channel=0 control=35 value=63 time=0
85.859 seconds: control_change channel=0 control=35 value=63 time=0
85.859 seconds: control_change channel=0 control=35 value=63 time=0
85.859 seconds: control_change channel=0 control=35 value=63 time=0
85.859 seconds: control_change channel=0 control=35 value=63 time=0
85.865 seconds: control_change channel=0 control=35 value=63 time=0
85.865 seconds: control_change channel=0 control=35 value=63 time=0
85.865 seconds: control_change channel=0 control=35 value=63 time=0
85.865 seconds: control_change channel=0 control=35 value=62 time=0
85.871 seconds: control_change channel=0 control=35 value=63 time=0
85.871 seconds: control_change channel=0 control=35 value=63 time=0
85.871 seconds: control_change channel=0 control=35 value=63 time=0
85.871 seconds: control_change channel=0 control=35 value=63 time=0
85.871 seconds: control_change channel=0 control=35 value=63 time=0
85.871 seconds: control_change channel=0 control=35 value=63 time=0
85.878 seconds: control_change channel=0 control=35 value=63 time=0
85.878 seconds: control_change channel=0 control=35 value=63 time=0
85.878 seconds: control_change channel=0 control=35 value=63 time=0
85.878 seconds: control_change channel=0 control=35 value=63 time=0
85.878 seconds: control_change channel=0 control=35 value=63 time=0
85.878 seconds: control_change channel=0 control=35 value=63 time=0
85.878 seconds: control_change channel=0 control=35 value=63 time=0
85.884 seconds: control_change channel=0 control=35 value=63 time=0
85.884 seconds: control_change channel=0 control=35 value=63 time=0
85.884 seconds: control_change channel=0 control=35 value=63 time=0
85.884 seconds: control_change channel=0 control=35 value=63 time=0
85.884 seconds: control_change channel=0 control=35 value=63 time=0
85.884 seconds: control_change channel=0 control=35 value=63 time=0
85.895 seconds: control_change channel=0 control=35 value=63 time=0
85.895 seconds: control_change channel=0 control=35 value=63 time=0
85.895 seconds: control_change channel=0 control=35 value=63 time=0
85.895 seconds: control_change channel=0 control=35 value=63 time=0
85.895 seconds: control_change channel=0 control=35 value=63 time=0
85.895 seconds: control_change channel=0 control=35 value=63 time=0
85.895 seconds: control_change channel=0 control=35 value=63 time=0
85.895 seconds: control_change channel=0 control=35 value=63 time=0
85.895 seconds: control_change channel=0 control=35 value=63 time=0
85.895 seconds: control_change channel=0 control=35 value=63 time=0
85.895 seconds: control_change channel=0 control=35 value=63 time=0
85.901 seconds: control_change channel=0 control=35 value=63 time=0
85.901 seconds: control_change channel=0 control=35 value=63 time=0
85.901 seconds: control_change channel=0 control=35 value=63 time=0
85.901 seconds: control_change channel=0 control=35 value=63 time=0
85.901 seconds: control_change channel=0 control=35 value=62 time=0
85.901 seconds: control_change channel=0 control=35 value=63 time=0
85.907 seconds: control_change channel=0 control=35 value=63 time=0
85.907 seconds: control_change channel=0 control=35 value=63 time=0
85.907 seconds: control_change channel=0 control=35 value=63 time=0
85.907 seconds: control_change channel=0 control=35 value=63 time=0
85.907 seconds: control_change channel=0 control=35 value=63 time=0
85.907 seconds: control_change channel=0 control=35 value=62 time=0
85.913 seconds: control_change channel=0 control=35 value=63 time=0
85.913 seconds: control_change channel=0 control=35 value=63 time=0
85.913 seconds: control_change channel=0 control=35 value=63 time=0
85.913 seconds: control_change channel=0 control=35 value=63 time=0
85.913 seconds: control_change channel=0 control=35 value=63 time=0
85.913 seconds: control_change channel=0 control=35 value=63 time=0
85.919 seconds: control_change channel=0 control=35 value=62 time=0
85.919 seconds: control_change channel=0 control=35 value=63 time=0
85.919 seconds: control_change channel=0 control=35 value=63 time=0
85.919 seconds: control_change channel=0 control=35 value=62 time=0
85.919 seconds: control_change channel=0 control=35 value=63 time=0
85.924 seconds: control_change channel=0 control=35 value=63 time=0
85.924 seconds: control_change channel=0 control=35 value=63 time=0
85.924 seconds: control_change channel=0 control=35 value=63 time=0
85.924 seconds: control_change channel=0 control=35 value=62 time=0
85.924 seconds: control_change channel=0 control=35 value=63 time=0
85.925 seconds: control_change channel=0 control=35 value=63 time=0
85.930 seconds: control_change channel=0 control=35 value=63 time=0
85.930 seconds: control_change channel=0 control=35 value=62 time=0
85.930 seconds: control_change channel=0 control=35 value=63 time=0
85.930 seconds: control_change channel=0 control=35 value=63 time=0
85.930 seconds: control_change channel=0 control=35 value=62 time=0
85.930 seconds: control_change channel=0 control=35 value=63 time=0
85.936 seconds: control_change channel=0 control=35 value=63 time=0
85.936 seconds: control_change channel=0 control=35 value=63 time=0
85.936 seconds: control_change channel=0 control=35 value=62 time=0
85.936 seconds: control_change channel=0 control=35 value=63 time=0
85.936 seconds: control_change channel=0 control=35 value=63 time=0
85.936 seconds: control_change channel=0 control=35 value=62 time=0
85.942 seconds: control_change channel=0 control=35 value=63 time=0
85.942 seconds: control_change channel=0 control=35 value=63 time=0
85.942 seconds: control_change channel=0 control=35 value=62 time=0
85.942 seconds: control_change channel=0 control=35 value=63 time=0
85.942 seconds: control_change channel=0 control=35 value=62 time=0
85.942 seconds: control_change channel=0 control=35 value=63 time=0
85.948 seconds: control_change channel=0 control=35 value=63 time=0
85.948 seconds: control_change channel=0 control=35 value=63 time=0
85.948 seconds: control_change channel=0 control=35 value=62 time=0
85.948 seconds: control_change channel=0 control=35 value=63 time=0
85.948 seconds: control_change channel=0 control=35 value=62 time=0
85.948 seconds: control_change channel=0 control=35 value=63 time=0
85.954 seconds: control_change channel=0 control=35 value=63 time=0
85.954 seconds: control_change channel=0 control=35 value=63 time=0
85.954 seconds: control_change channel=0 control=35 value=62 time=0
85.954 seconds: control_change channel=0 control=35 value=63 time=0
85.954 seconds: control_change channel=0 control=35 value=63 time=0
85.954 seconds: control_change channel=0 control=35 value=62 time=0
85.960 seconds: control_change channel=0 control=35 value=63 time=0
85.960 seconds: control_change channel=0 control=35 value=63 time=0
85.960 seconds: control_change channel=0 control=35 value=62 time=0
85.960 seconds: control_change channel=0 control=35 value=63 time=0
85.960 seconds: control_change channel=0 control=35 value=63 time=0
85.960 seconds: control_change channel=0 control=35 value=62 time=0
85.966 seconds: control_change channel=0 control=35 value=63 time=0
85.966 seconds: control_change channel=0 control=35 value=63 time=0
85.966 seconds: control_change channel=0 control=35 value=63 time=0
85.966 seconds: control_change channel=0 control=35 value=63 time=0
85.971 seconds: control_change channel=0 control=35 value=62 time=0
85.971 seconds: control_change channel=0 control=35 value=63 time=0
85.971 seconds: control_change channel=0 control=35 value=63 time=0
85.971 seconds: control_change channel=0 control=35 value=63 time=0
85.971 seconds: control_change channel=0 control=35 value=63 time=0
85.971 seconds: control_change channel=0 control=35 value=62 time=0
85.971 seconds: control_change channel=0 control=35 value=63 time=0
85.977 seconds: control_change channel=0 control=35 value=63 time=0
85.977 seconds: control_change channel=0 control=35 value=63 time=0
85.977 seconds: control_change channel=0 control=35 value=63 time=0
85.977 seconds: control_change channel=0 control=35 value=63 time=0
85.977 seconds: control_change channel=0 control=35 value=63 time=0
85.977 seconds: control_change channel=0 control=35 value=63 time=0
85.983 seconds: control_change channel=0 control=35 value=63 time=0
85.983 seconds: control_change channel=0 control=35 value=63 time=0
85.983 seconds: control_change channel=0 control=35 value=63 time=0
85.983 seconds: control_change channel=0 control=35 value=63 time=0
85.983 seconds: control_change channel=0 control=35 value=63 time=0
85.983 seconds: control_change channel=0 control=35 value=63 time=0
85.989 seconds: control_change channel=0 control=35 value=63 time=0
85.989 seconds: control_change channel=0 control=35 value=63 time=0
85.989 seconds: control_change channel=0 control=35 value=63 time=0
85.989 seconds: control_change channel=0 control=35 value=63 time=0
85.989 seconds: control_change channel=0 control=35 value=63 time=0
85.989 seconds: control_change channel=0 control=35 value=63 time=0
85.995 seconds: control_change channel=0 control=35 value=63 time=0
85.995 seconds: control_change channel=0 control=35 value=63 time=0
85.995 seconds: control_change channel=0 control=35 value=63 time=0
85.995 seconds: control_change channel=0 control=35 value=63 time=0
85.995 seconds: control_change channel=0 control=35 value=63 time=0
85.995 seconds: control_change channel=0 control=35 value=63 time=0
86.002 seconds: control_change channel=0 control=35 value=63 time=0
86.002 seconds: control_change channel=0 control=35 value=62 time=0
86.002 seconds: control_change channel=0 control=35 value=63 time=0
86.002 seconds: control_change channel=0 control=35 value=63 time=0
86.002 seconds: control_change channel=0 control=35 value=63 time=0
86.008 seconds: control_change channel=0 control=35 value=63 time=0
86.008 seconds: control_change channel=0 control=35 value=63 time=0
86.008 seconds: control_change channel=0 control=35 value=63 time=0
86.008 seconds: control_change channel=0 control=35 value=63 time=0
86.008 seconds: control_change channel=0 control=35 value=63 time=0
86.008 seconds: control_change channel=0 control=35 value=63 time=0
86.015 seconds: control_change channel=0 control=35 value=63 time=0
86.015 seconds: control_change channel=0 control=35 value=62 time=0
86.015 seconds: control_change channel=0 control=35 value=63 time=0
86.015 seconds: control_change channel=0 control=35 value=63 time=0
86.015 seconds: control_change channel=0 control=35 value=62 time=0
86.022 seconds: control_change channel=0 control=35 value=63 time=0
86.022 seconds: control_change channel=0 control=35 value=63 time=0
86.022 seconds: control_change channel=0 control=35 value=63 time=0
86.022 seconds: control_change channel=0 control=35 value=63 time=0
86.022 seconds: control_change channel=0 control=35 value=63 time=0
86.022 seconds: control_change channel=0 control=35 value=63 time=0
86.028 seconds: control_change channel=0 control=35 value=63 time=0
86.028 seconds: control_change channel=0 control=35 value=63 time=0
86.028 seconds: control_change channel=0 control=35 value=63 time=0
86.028 seconds: control_change channel=0 control=35 value=63 time=0
86.028 seconds: control_change channel=0 control=35 value=63 time=0
86.028 seconds: control_change channel=0 control=35 value=63 time=0
86.034 seconds: control_change channel=0 control=35 value=63 time=0
86.034 seconds: control_change channel=0 control=35 value=63 time=0
86.034 seconds: control_change channel=0 control=35 value=62 time=0
86.034 seconds: control_change channel=0 control=35 value=63 time=0
86.034 seconds: control_change channel=0 control=35 value=63 time=0
86.045 seconds: control_change channel=0 control=35 value=63 time=0
86.045 seconds: control_change channel=0 control=35 value=63 time=0
86.045 seconds: control_change channel=0 control=35 value=63 time=0
86.045 seconds: control_change channel=0 control=35 value=63 time=0
86.045 seconds: control_change channel=0 control=35 value=62 time=0
86.045 seconds: control_change channel=0 control=35 value=63 time=0
86.045 seconds: control_change channel=0 control=35 value=63 time=0
86.045 seconds: control_change channel=0 control=35 value=62 time=0
86.045 seconds: control_change channel=0 control=35 value=63 time=0
86.045 seconds: control_change channel=0 control=35 value=63 time=0
86.051 seconds: control_change channel=0 control=35 value=63 time=0
86.051 seconds: control_change channel=0 control=35 value=63 time=0
86.051 seconds: control_change channel=0 control=35 value=63 time=0
86.051 seconds: control_change channel=0 control=35 value=63 time=0
86.051 seconds: control_change channel=0 control=35 value=63 time=0
86.051 seconds: control_change channel=0 control=35 value=63 time=0
86.057 seconds: control_change channel=0 control=35 value=63 time=0
86.057 seconds: control_change channel=0 control=35 value=63 time=0
86.057 seconds: control_change channel=0 control=35 value=63 time=0
86.057 seconds: control_change channel=0 control=35 value=63 time=0
86.057 seconds: control_change channel=0 control=35 value=63 time=0
86.057 seconds: control_change channel=0 control=35 value=63 time=0
86.065 seconds: control_change channel=0 control=35 value=63 time=0
86.065 seconds: control_change channel=0 control=35 value=63 time=0
86.065 seconds: control_change channel=0 control=35 value=63 time=0
86.065 seconds: control_change channel=0 control=35 value=62 time=0
86.065 seconds: control_change channel=0 control=35 value=63 time=0
86.065 seconds: control_change channel=0 control=35 value=63 time=0
86.065 seconds: control_change channel=0 control=35 value=63 time=0
86.071 seconds: control_change channel=0 control=35 value=63 time=0
86.071 seconds: control_change channel=0 control=35 value=63 time=0
86.071 seconds: control_change channel=0 control=35 value=63 time=0
86.071 seconds: control_change channel=0 control=35 value=63 time=0
86.071 seconds: control_change channel=0 control=35 value=63 time=0
86.071 seconds: control_change channel=0 control=35 value=63 time=0
86.077 seconds: control_change channel=0 control=35 value=63 time=0
86.077 seconds: control_change channel=0 control=35 value=63 time=0
86.077 seconds: control_change channel=0 control=35 value=63 time=0
86.077 seconds: control_change channel=0 control=35 value=63 time=0
86.077 seconds: control_change channel=0 control=35 value=63 time=0
86.077 seconds: control_change channel=0 control=35 value=63 time=0
86.088 seconds: control_change channel=0 control=35 value=63 time=0
86.088 seconds: control_change channel=0 control=35 value=63 time=0
86.088 seconds: control_change channel=0 control=35 value=63 time=0
86.088 seconds: control_change channel=0 control=35 value=63 time=0
86.088 seconds: control_change channel=0 control=35 value=63 time=0
86.088 seconds: control_change channel=0 control=35 value=63 time=0
86.088 seconds: control_change channel=0 control=35 value=63 time=0
86.088 seconds: control_change channel=0 control=35 value=63 time=0
86.088 seconds: control_change channel=0 control=35 value=62 time=0
86.088 seconds: control_change channel=0 control=35 value=63 time=0
86.094 seconds: control_change channel=0 control=35 value=63 time=0
86.094 seconds: control_change channel=0 control=35 value=63 time=0
86.094 seconds: control_change channel=0 control=35 value=63 time=0
86.094 seconds: control_change channel=0 control=35 value=63 time=0
86.094 seconds: control_change channel=0 control=35 value=63 time=0
86.094 seconds: control_change channel=0 control=35 value=62 time=0
86.101 seconds: control_change channel=0 control=35 value=63 time=0
86.101 seconds: control_change channel=0 control=35 value=63 time=0
86.101 seconds: control_change channel=0 control=35 value=63 time=0
86.101 seconds: control_change channel=0 control=35 value=63 time=0
86.101 seconds: control_change channel=0 control=35 value=63 time=0
86.101 seconds: control_change channel=0 control=35 value=63 time=0
86.107 seconds: control_change channel=0 control=35 value=63 time=0
86.107 seconds: control_change channel=0 control=35 value=63 time=0
86.107 seconds: control_change channel=0 control=35 value=63 time=0
86.107 seconds: control_change channel=0 control=35 value=63 time=0
86.107 seconds: control_change channel=0 control=35 value=63 time=0
86.107 seconds: control_change channel=0 control=35 value=63 time=0
86.113 seconds: control_change channel=0 control=35 value=63 time=0
86.114 seconds: control_change channel=0 control=35 value=63 time=0
86.114 seconds: control_change channel=0 control=35 value=63 time=0
86.114 seconds: control_change channel=0 control=35 value=63 time=0
86.114 seconds: control_change channel=0 control=35 value=63 time=0
86.114 seconds: control_change channel=0 control=35 value=63 time=0
86.114 seconds: control_change channel=0 control=35 value=63 time=0
86.120 seconds: control_change channel=0 control=35 value=63 time=0
86.120 seconds: control_change channel=0 control=35 value=63 time=0
86.120 seconds: control_change channel=0 control=35 value=63 time=0
86.120 seconds: control_change channel=0 control=35 value=62 time=0
86.126 seconds: control_change channel=0 control=35 value=63 time=0
86.126 seconds: control_change channel=0 control=35 value=63 time=0
86.126 seconds: control_change channel=0 control=35 value=63 time=0
86.126 seconds: control_change channel=0 control=35 value=63 time=0
86.126 seconds: control_change channel=0 control=35 value=63 time=0
86.126 seconds: control_change channel=0 control=35 value=63 time=0
86.132 seconds: control_change channel=0 control=35 value=63 time=0
86.132 seconds: control_change channel=0 control=35 value=63 time=0
86.132 seconds: control_change channel=0 control=35 value=63 time=0
86.132 seconds: control_change channel=0 control=35 value=63 time=0
86.132 seconds: control_change channel=0 control=35 value=63 time=0
86.132 seconds: control_change channel=0 control=35 value=63 time=0
86.138 seconds: control_change channel=0 control=35 value=63 time=0
86.138 seconds: control_change channel=0 control=35 value=63 time=0
86.138 seconds: control_change channel=0 control=35 value=62 time=0
86.138 seconds: control_change channel=0 control=35 value=63 time=0
86.144 seconds: control_change channel=0 control=35 value=63 time=0
86.144 seconds: control_change channel=0 control=35 value=63 time=0
86.144 seconds: control_change channel=0 control=35 value=63 time=0
86.144 seconds: control_change channel=0 control=35 value=63 time=0
86.144 seconds: control_change channel=0 control=35 value=63 time=0
86.144 seconds: control_change channel=0 control=35 value=63 time=0
86.150 seconds: control_change channel=0 control=35 value=63 time=0
86.150 seconds: control_change channel=0 control=35 value=63 time=0
86.150 seconds: control_change channel=0 control=35 value=63 time=0
86.150 seconds: control_change channel=0 control=35 value=63 time=0
86.150 seconds: control_change channel=0 control=35 value=63 time=0
86.150 seconds: control_change channel=0 control=35 value=63 time=0
86.157 seconds: control_change channel=0 control=35 value=63 time=0
86.157 seconds: control_change channel=0 control=35 value=63 time=0
86.157 seconds: control_change channel=0 control=35 value=63 time=0
86.157 seconds: control_change channel=0 control=35 value=63 time=0
86.157 seconds: control_change channel=0 control=35 value=63 time=0
86.157 seconds: control_change channel=0 control=35 value=63 time=0
86.157 seconds: control_change channel=0 control=35 value=63 time=0
86.163 seconds: control_change channel=0 control=35 value=63 time=0
86.163 seconds: control_change channel=0 control=35 value=63 time=0
86.163 seconds: control_change channel=0 control=35 value=63 time=0
86.163 seconds: control_change channel=0 control=35 value=63 time=0
86.163 seconds: control_change channel=0 control=35 value=63 time=0
86.163 seconds: control_change channel=0 control=35 value=63 time=0
86.169 seconds: control_change channel=0 control=35 value=63 time=0
86.169 seconds: control_change channel=0 control=35 value=63 time=0
86.169 seconds: control_change channel=0 control=35 value=63 time=0
86.169 seconds: control_change channel=0 control=35 value=63 time=0
86.169 seconds: control_change channel=0 control=35 value=63 time=0
86.169 seconds: control_change channel=0 control=35 value=63 time=0
86.175 seconds: control_change channel=0 control=35 value=63 time=0
86.175 seconds: control_change channel=0 control=35 value=63 time=0
86.175 seconds: control_change channel=0 control=35 value=62 time=0
86.175 seconds: control_change channel=0 control=35 value=63 time=0
86.175 seconds: control_change channel=0 control=35 value=62 time=0
86.181 seconds: control_change channel=0 control=35 value=63 time=0
86.181 seconds: control_change channel=0 control=35 value=63 time=0
86.181 seconds: control_change channel=0 control=35 value=63 time=0
86.181 seconds: control_change channel=0 control=35 value=63 time=0
86.181 seconds: control_change channel=0 control=35 value=63 time=0
86.181 seconds: control_change channel=0 control=35 value=63 time=0
86.187 seconds: control_change channel=0 control=35 value=63 time=0
86.187 seconds: control_change channel=0 control=35 value=62 time=0
86.187 seconds: control_change channel=0 control=35 value=63 time=0
86.187 seconds: control_change channel=0 control=35 value=62 time=0
86.187 seconds: control_change channel=0 control=35 value=63 time=0
86.193 seconds: control_change channel=0 control=35 value=63 time=0
86.193 seconds: control_change channel=0 control=35 value=63 time=0
86.193 seconds: control_change channel=0 control=35 value=63 time=0
86.193 seconds: control_change channel=0 control=35 value=63 time=0
86.193 seconds: control_change channel=0 control=35 value=63 time=0
86.193 seconds: control_change channel=0 control=35 value=63 time=0
86.199 seconds: control_change channel=0 control=35 value=62 time=0
86.199 seconds: control_change channel=0 control=35 value=63 time=0
86.199 seconds: control_change channel=0 control=35 value=63 time=0
86.199 seconds: control_change channel=0 control=35 value=63 time=0
86.199 seconds: control_change channel=0 control=35 value=63 time=0
86.199 seconds: control_change channel=0 control=35 value=63 time=0
86.205 seconds: control_change channel=0 control=35 value=63 time=0
86.205 seconds: control_change channel=0 control=35 value=62 time=0
86.205 seconds: control_change channel=0 control=35 value=63 time=0
86.205 seconds: control_change channel=0 control=35 value=63 time=0
86.205 seconds: control_change channel=0 control=35 value=63 time=0
86.205 seconds: control_change channel=0 control=35 value=63 time=0
86.211 seconds: control_change channel=0 control=35 value=63 time=0
86.211 seconds: control_change channel=0 control=35 value=63 time=0
86.211 seconds: control_change channel=0 control=35 value=62 time=0
86.211 seconds: control_change channel=0 control=35 value=63 time=0
86.211 seconds: control_change channel=0 control=35 value=63 time=0
86.211 seconds: control_change channel=0 control=35 value=63 time=0
86.217 seconds: control_change channel=0 control=35 value=63 time=0
86.217 seconds: control_change channel=0 control=35 value=63 time=0
86.217 seconds: control_change channel=0 control=35 value=63 time=0
86.217 seconds: control_change channel=0 control=35 value=63 time=0
86.217 seconds: control_change channel=0 control=35 value=63 time=0
86.217 seconds: control_change channel=0 control=35 value=63 time=0
86.223 seconds: control_change channel=0 control=35 value=63 time=0
86.223 seconds: control_change channel=0 control=35 value=62 time=0
86.223 seconds: control_change channel=0 control=35 value=63 time=0
86.223 seconds: control_change channel=0 control=35 value=63 time=0
86.223 seconds: control_change channel=0 control=35 value=63 time=0
86.223 seconds: control_change channel=0 control=35 value=63 time=0
86.229 seconds: control_change channel=0 control=35 value=63 time=0
86.229 seconds: control_change channel=0 control=35 value=63 time=0
86.229 seconds: control_change channel=0 control=35 value=62 time=0
86.229 seconds: control_change channel=0 control=35 value=63 time=0
86.229 seconds: control_change channel=0 control=35 value=63 time=0
86.235 seconds: control_change channel=0 control=35 value=62 time=0
86.235 seconds: control_change channel=0 control=35 value=63 time=0
86.235 seconds: control_change channel=0 control=35 value=63 time=0
86.235 seconds: control_change channel=0 control=35 value=63 time=0
86.235 seconds: control_change channel=0 control=35 value=63 time=0
86.235 seconds: control_change channel=0 control=35 value=63 time=0
86.241 seconds: control_change channel=0 control=35 value=63 time=0
86.241 seconds: control_change channel=0 control=35 value=63 time=0
86.241 seconds: control_change channel=0 control=35 value=63 time=0
86.241 seconds: control_change channel=0 control=35 value=63 time=0
86.241 seconds: control_change channel=0 control=35 value=63 time=0
86.241 seconds: control_change channel=0 control=35 value=63 time=0
86.247 seconds: control_change channel=0 control=35 value=63 time=0
86.247 seconds: control_change channel=0 control=35 value=63 time=0
86.247 seconds: control_change channel=0 control=35 value=63 time=0
86.247 seconds: control_change channel=0 control=35 value=63 time=0
86.247 seconds: control_change channel=0 control=35 value=63 time=0
86.247 seconds: control_change channel=0 control=35 value=63 time=0
86.253 seconds: control_change channel=0 control=35 value=63 time=0
86.253 seconds: control_change channel=0 control=35 value=63 time=0
86.253 seconds: control_change channel=0 control=35 value=63 time=0
86.253 seconds: control_change channel=0 control=35 value=63 time=0
86.253 seconds: control_change channel=0 control=35 value=63 time=0
86.259 seconds: control_change channel=0 control=35 value=62 time=0
86.259 seconds: control_change channel=0 control=35 value=63 time=0
86.259 seconds: control_change channel=0 control=35 value=63 time=0
86.259 seconds: control_change channel=0 control=35 value=63 time=0
86.259 seconds: control_change channel=0 control=35 value=63 time=0
86.265 seconds: control_change channel=0 control=35 value=63 time=0
86.265 seconds: control_change channel=0 control=35 value=63 time=0
86.265 seconds: control_change channel=0 control=35 value=63 time=0
86.265 seconds: control_change channel=0 control=35 value=63 time=0
86.271 seconds: control_change channel=0 control=35 value=63 time=0
86.271 seconds: control_change channel=0 control=35 value=63 time=0
86.271 seconds: control_change channel=0 control=35 value=63 time=0
86.271 seconds: control_change channel=0 control=35 value=63 time=0
86.271 seconds: control_change channel=0 control=35 value=63 time=0
86.278 seconds: control_change channel=0 control=35 value=63 time=0
86.278 seconds: control_change channel=0 control=35 value=63 time=0
86.278 seconds: control_change channel=0 control=35 value=63 time=0
86.278 seconds: control_change channel=0 control=35 value=63 time=0
86.284 seconds: control_change channel=0 control=35 value=63 time=0
86.284 seconds: control_change channel=0 control=35 value=63 time=0
86.284 seconds: control_change channel=0 control=35 value=63 time=0
86.284 seconds: control_change channel=0 control=35 value=63 time=0
86.290 seconds: control_change channel=0 control=35 value=63 time=0
86.290 seconds: control_change channel=0 control=35 value=63 time=0
86.290 seconds: control_change channel=0 control=35 value=63 time=0
86.296 seconds: control_change channel=0 control=35 value=63 time=0
86.296 seconds: control_change channel=0 control=35 value=63 time=0
86.296 seconds: control_change channel=0 control=35 value=63 time=0
86.296 seconds: control_change channel=0 control=35 value=63 time=0
86.302 seconds: control_change channel=0 control=35 value=63 time=0
86.302 seconds: control_change channel=0 control=35 value=63 time=0
86.302 seconds: control_change channel=0 control=35 value=63 time=0
86.302 seconds: control_change channel=0 control=35 value=63 time=0
86.309 seconds: control_change channel=0 control=35 value=63 time=0
86.309 seconds: control_change channel=0 control=35 value=63 time=0
86.309 seconds: control_change channel=0 control=35 value=63 time=0
86.309 seconds: control_change channel=0 control=35 value=63 time=0
86.316 seconds: control_change channel=0 control=35 value=63 time=0
86.316 seconds: control_change channel=0 control=35 value=63 time=0
86.316 seconds: control_change channel=0 control=35 value=63 time=0
86.316 seconds: control_change channel=0 control=35 value=63 time=0
86.322 seconds: control_change channel=0 control=35 value=63 time=0
86.322 seconds: control_change channel=0 control=35 value=63 time=0
86.322 seconds: control_change channel=0 control=35 value=63 time=0
86.322 seconds: control_change channel=0 control=35 value=63 time=0
86.328 seconds: control_change channel=0 control=35 value=63 time=0
86.328 seconds: control_change channel=0 control=35 value=63 time=0
86.328 seconds: control_change channel=0 control=35 value=63 time=0
86.328 seconds: control_change channel=0 control=35 value=63 time=0
86.334 seconds: control_change channel=0 control=35 value=63 time=0
86.334 seconds: control_change channel=0 control=35 value=63 time=0
86.334 seconds: control_change channel=0 control=35 value=63 time=0
86.334 seconds: control_change channel=0 control=35 value=63 time=0
86.334 seconds: control_change channel=0 control=35 value=63 time=0
86.341 seconds: control_change channel=0 control=35 value=63 time=0
86.341 seconds: control_change channel=0 control=35 value=63 time=0
86.341 seconds: control_change channel=0 control=35 value=63 time=0
86.341 seconds: control_change channel=0 control=35 value=63 time=0
86.341 seconds: control_change channel=0 control=35 value=63 time=0
86.347 seconds: control_change channel=0 control=35 value=63 time=0
86.347 seconds: control_change channel=0 control=35 value=63 time=0
86.347 seconds: control_change channel=0 control=35 value=63 time=0
86.347 seconds: control_change channel=0 control=35 value=63 time=0
86.347 seconds: control_change channel=0 control=35 value=62 time=0
86.354 seconds: control_change channel=0 control=35 value=63 time=0
86.354 seconds: control_change channel=0 control=35 value=63 time=0
86.354 seconds: control_change channel=0 control=35 value=63 time=0
86.354 seconds: control_change channel=0 control=35 value=63 time=0
86.354 seconds: control_change channel=0 control=35 value=63 time=0
86.360 seconds: control_change channel=0 control=35 value=63 time=0
86.360 seconds: control_change channel=0 control=35 value=63 time=0
86.360 seconds: control_change channel=0 control=35 value=63 time=0
86.360 seconds: control_change channel=0 control=35 value=63 time=0
86.360 seconds: control_change channel=0 control=35 value=63 time=0
86.360 seconds: control_change channel=0 control=35 value=63 time=0
86.366 seconds: control_change channel=0 control=35 value=63 time=0
86.366 seconds: control_change channel=0 control=35 value=63 time=0
86.366 seconds: control_change channel=0 control=35 value=63 time=0
86.366 seconds: control_change channel=0 control=35 value=62 time=0
86.372 seconds: control_change channel=0 control=35 value=63 time=0
86.372 seconds: control_change channel=0 control=35 value=63 time=0
86.372 seconds: control_change channel=0 control=35 value=63 time=0
86.372 seconds: control_change channel=0 control=35 value=63 time=0
86.372 seconds: control_change channel=0 control=35 value=63 time=0
86.372 seconds: control_change channel=0 control=35 value=63 time=0
86.378 seconds: control_change channel=0 control=35 value=63 time=0
86.378 seconds: control_change channel=0 control=35 value=63 time=0
86.378 seconds: control_change channel=0 control=35 value=63 time=0
86.378 seconds: control_change channel=0 control=35 value=63 time=0
86.378 seconds: control_change channel=0 control=35 value=63 time=0
86.384 seconds: control_change channel=0 control=35 value=63 time=0
86.384 seconds: control_change channel=0 control=35 value=63 time=0
86.384 seconds: control_change channel=0 control=35 value=63 time=0
86.384 seconds: control_change channel=0 control=35 value=63 time=0
86.384 seconds: control_change channel=0 control=35 value=63 time=0
86.384 seconds: control_change channel=0 control=35 value=63 time=0
86.391 seconds: control_change channel=0 control=35 value=63 time=0
86.391 seconds: control_change channel=0 control=35 value=63 time=0
86.391 seconds: control_change channel=0 control=35 value=63 time=0
86.391 seconds: control_change channel=0 control=35 value=63 time=0
86.391 seconds: control_change channel=0 control=35 value=63 time=0
86.391 seconds: control_change channel=0 control=35 value=63 time=0
86.397 seconds: control_change channel=0 control=35 value=63 time=0
86.397 seconds: control_change channel=0 control=35 value=63 time=0
86.397 seconds: control_change channel=0 control=35 value=63 time=0
86.397 seconds: control_change channel=0 control=35 value=63 time=0
86.397 seconds: control_change channel=0 control=35 value=63 time=0
86.403 seconds: control_change channel=0 control=35 value=63 time=0
86.403 seconds: control_change channel=0 control=35 value=63 time=0
86.403 seconds: control_change channel=0 control=35 value=63 time=0
86.403 seconds: control_change channel=0 control=35 value=63 time=0
86.403 seconds: control_change channel=0 control=35 value=63 time=0
86.409 seconds: control_change channel=0 control=35 value=63 time=0
86.409 seconds: control_change channel=0 control=35 value=62 time=0
86.409 seconds: control_change channel=0 control=35 value=63 time=0
86.409 seconds: control_change channel=0 control=35 value=63 time=0
86.415 seconds: control_change channel=0 control=35 value=63 time=0
86.415 seconds: control_change channel=0 control=35 value=63 time=0
86.415 seconds: control_change channel=0 control=35 value=63 time=0
86.415 seconds: control_change channel=0 control=35 value=63 time=0
86.421 seconds: control_change channel=0 control=35 value=62 time=0
86.421 seconds: control_change channel=0 control=35 value=63 time=0
86.421 seconds: control_change channel=0 control=35 value=63 time=0
86.421 seconds: control_change channel=0 control=35 value=63 time=0
86.427 seconds: control_change channel=0 control=35 value=63 time=0
86.427 seconds: control_change channel=0 control=35 value=63 time=0
86.427 seconds: control_change channel=0 control=35 value=63 time=0
86.427 seconds: control_change channel=0 control=35 value=63 time=0
86.427 seconds: control_change channel=0 control=35 value=63 time=0
86.433 seconds: control_change channel=0 control=35 value=63 time=0
86.433 seconds: control_change channel=0 control=35 value=63 time=0
86.433 seconds: control_change channel=0 control=35 value=63 time=0
86.433 seconds: control_change channel=0 control=35 value=63 time=0
86.444 seconds: control_change channel=0 control=35 value=63 time=0
86.444 seconds: control_change channel=0 control=35 value=63 time=0
86.444 seconds: control_change channel=0 control=35 value=63 time=0
86.444 seconds: control_change channel=0 control=35 value=63 time=0
86.444 seconds: control_change channel=0 control=35 value=63 time=0
86.444 seconds: control_change channel=0 control=35 value=63 time=0
86.444 seconds: control_change channel=0 control=35 value=63 time=0
86.444 seconds: control_change channel=0 control=35 value=63 time=0
86.450 seconds: control_change channel=0 control=35 value=63 time=0
86.450 seconds: control_change channel=0 control=35 value=63 time=0
86.450 seconds: control_change channel=0 control=35 value=63 time=0
86.450 seconds: control_change channel=0 control=35 value=63 time=0
86.450 seconds: control_change channel=0 control=35 value=63 time=0
86.457 seconds: control_change channel=0 control=35 value=63 time=0
86.457 seconds: control_change channel=0 control=35 value=63 time=0
86.457 seconds: control_change channel=0 control=35 value=63 time=0
86.457 seconds: control_change channel=0 control=35 value=63 time=0
86.463 seconds: control_change channel=0 control=35 value=63 time=0
86.463 seconds: control_change channel=0 control=35 value=63 time=0
86.463 seconds: control_change channel=0 control=35 value=63 time=0
86.463 seconds: control_change channel=0 control=35 value=63 time=0
86.470 seconds: control_change channel=0 control=35 value=63 time=0
86.470 seconds: control_change channel=0 control=35 value=63 time=0
86.470 seconds: control_change channel=0 control=35 value=63 time=0
86.470 seconds: control_change channel=0 control=35 value=63 time=0
86.478 seconds: control_change channel=0 control=35 value=63 time=0
86.478 seconds: control_change channel=0 control=35 value=63 time=0
86.478 seconds: control_change channel=0 control=35 value=63 time=0
86.478 seconds: control_change channel=0 control=35 value=63 time=0
86.486 seconds: control_change channel=0 control=35 value=63 time=0
86.486 seconds: control_change channel=0 control=35 value=63 time=0
86.486 seconds: control_change channel=0 control=35 value=63 time=0
86.492 seconds: control_change channel=0 control=35 value=63 time=0
86.492 seconds: control_change channel=0 control=35 value=63 time=0
86.498 seconds: control_change channel=0 control=35 value=63 time=0
86.498 seconds: control_change channel=0 control=35 value=63 time=0
86.498 seconds: control_change channel=0 control=35 value=63 time=0
86.504 seconds: control_change channel=0 control=35 value=63 time=0
86.504 seconds: control_change channel=0 control=35 value=63 time=0
86.504 seconds: control_change channel=0 control=35 value=63 time=0
86.511 seconds: control_change channel=0 control=35 value=63 time=0
86.511 seconds: control_change channel=0 control=35 value=63 time=0
86.511 seconds: control_change channel=0 control=35 value=63 time=0
86.518 seconds: control_change channel=0 control=35 value=63 time=0
86.518 seconds: control_change channel=0 control=35 value=63 time=0
86.518 seconds: control_change channel=0 control=35 value=63 time=0
86.525 seconds: control_change channel=0 control=35 value=63 time=0
86.525 seconds: control_change channel=0 control=35 value=63 time=0
86.525 seconds: control_change channel=0 control=35 value=63 time=0
86.531 seconds: control_change channel=0 control=35 value=63 time=0
86.531 seconds: control_change channel=0 control=35 value=63 time=0
86.531 seconds: control_change channel=0 control=35 value=63 time=0
86.537 seconds: control_change channel=0 control=35 value=63 time=0
86.537 seconds: control_change channel=0 control=35 value=63 time=0
86.537 seconds: control_change channel=0 control=35 value=63 time=0
86.543 seconds: control_change channel=0 control=35 value=63 time=0
86.543 seconds: control_change channel=0 control=35 value=63 time=0
86.543 seconds: control_change channel=0 control=35 value=63 time=0
86.549 seconds: control_change channel=0 control=35 value=63 time=0
86.549 seconds: control_change channel=0 control=35 value=63 time=0
86.549 seconds: control_change channel=0 control=35 value=63 time=0
86.555 seconds: control_change channel=0 control=35 value=63 time=0
86.555 seconds: control_change channel=0 control=35 value=63 time=0
86.555 seconds: control_change channel=0 control=35 value=63 time=0
86.555 seconds: control_change channel=0 control=35 value=63 time=0
86.562 seconds: control_change channel=0 control=35 value=63 time=0
86.562 seconds: control_change channel=0 control=35 value=63 time=0
86.562 seconds: control_change channel=0 control=35 value=63 time=0
86.562 seconds: control_change channel=0 control=35 value=63 time=0
86.569 seconds: control_change channel=0 control=35 value=63 time=0
86.569 seconds: control_change channel=0 control=35 value=63 time=0
86.569 seconds: control_change channel=0 control=35 value=63 time=0
86.574 seconds: control_change channel=0 control=35 value=63 time=0
86.574 seconds: control_change channel=0 control=35 value=63 time=0
86.575 seconds: control_change channel=0 control=35 value=63 time=0
86.575 seconds: control_change channel=0 control=35 value=63 time=0
86.580 seconds: control_change channel=0 control=35 value=63 time=0
86.580 seconds: control_change channel=0 control=35 value=63 time=0
86.580 seconds: control_change channel=0 control=35 value=63 time=0
86.580 seconds: control_change channel=0 control=35 value=63 time=0
86.587 seconds: control_change channel=0 control=35 value=63 time=0
86.587 seconds: control_change channel=0 control=35 value=63 time=0
86.587 seconds: control_change channel=0 control=35 value=63 time=0
86.587 seconds: control_change channel=0 control=35 value=63 time=0
86.593 seconds: control_change channel=0 control=35 value=63 time=0
86.593 seconds: control_change channel=0 control=35 value=63 time=0
86.593 seconds: control_change channel=0 control=35 value=63 time=0
86.593 seconds: control_change channel=0 control=35 value=63 time=0
86.604 seconds: control_change channel=0 control=35 value=63 time=0
86.604 seconds: control_change channel=0 control=35 value=63 time=0
86.604 seconds: control_change channel=0 control=35 value=63 time=0
86.604 seconds: control_change channel=0 control=35 value=63 time=0
86.604 seconds: control_change channel=0 control=35 value=63 time=0
86.604 seconds: control_change channel=0 control=35 value=63 time=0
86.604 seconds: control_change channel=0 control=35 value=63 time=0
86.610 seconds: control_change channel=0 control=35 value=63 time=0
86.610 seconds: control_change channel=0 control=35 value=63 time=0
86.610 seconds: control_change channel=0 control=35 value=63 time=0
86.610 seconds: control_change channel=0 control=35 value=63 time=0
86.616 seconds: control_change channel=0 control=35 value=63 time=0
86.616 seconds: control_change channel=0 control=35 value=63 time=0
86.616 seconds: control_change channel=0 control=35 value=63 time=0
86.622 seconds: control_change channel=0 control=35 value=63 time=0
86.622 seconds: control_change channel=0 control=35 value=63 time=0
86.622 seconds: control_change channel=0 control=35 value=63 time=0
86.622 seconds: control_change channel=0 control=35 value=63 time=0
86.622 seconds: control_change channel=0 control=35 value=63 time=0
86.622 seconds: control_change channel=0 control=35 value=63 time=0
86.628 seconds: control_change channel=0 control=35 value=63 time=0
86.628 seconds: control_change channel=0 control=35 value=63 time=0
86.628 seconds: control_change channel=0 control=35 value=63 time=0
86.628 seconds: control_change channel=0 control=35 value=63 time=0
86.634 seconds: control_change channel=0 control=35 value=63 time=0
86.634 seconds: control_change channel=0 control=35 value=63 time=0
86.634 seconds: control_change channel=0 control=35 value=63 time=0
86.634 seconds: control_change channel=0 control=35 value=63 time=0
86.634 seconds: control_change channel=0 control=35 value=63 time=0
86.641 seconds: control_change channel=0 control=35 value=63 time=0
86.641 seconds: control_change channel=0 control=35 value=63 time=0
86.641 seconds: control_change channel=0 control=35 value=63 time=0
86.641 seconds: control_change channel=0 control=35 value=63 time=0
86.641 seconds: control_change channel=0 control=35 value=63 time=0
86.648 seconds: control_change channel=0 control=35 value=63 time=0
86.648 seconds: control_change channel=0 control=35 value=63 time=0
86.648 seconds: control_change channel=0 control=35 value=63 time=0
86.648 seconds: control_change channel=0 control=35 value=63 time=0
86.648 seconds: control_change channel=0 control=35 value=63 time=0
86.654 seconds: control_change channel=0 control=35 value=63 time=0
86.654 seconds: control_change channel=0 control=35 value=63 time=0
86.654 seconds: control_change channel=0 control=35 value=63 time=0
86.654 seconds: control_change channel=0 control=35 value=63 time=0
86.660 seconds: control_change channel=0 control=35 value=63 time=0
86.660 seconds: control_change channel=0 control=35 value=63 time=0
86.660 seconds: control_change channel=0 control=35 value=63 time=0
86.660 seconds: control_change channel=0 control=35 value=63 time=0
86.666 seconds: control_change channel=0 control=35 value=63 time=0
86.666 seconds: control_change channel=0 control=35 value=63 time=0
86.666 seconds: control_change channel=0 control=35 value=63 time=0
86.666 seconds: control_change channel=0 control=35 value=63 time=0
86.672 seconds: control_change channel=0 control=35 value=63 time=0
86.672 seconds: control_change channel=0 control=35 value=63 time=0
86.672 seconds: control_change channel=0 control=35 value=63 time=0
86.672 seconds: control_change channel=0 control=35 value=63 time=0
86.678 seconds: control_change channel=0 control=35 value=63 time=0
86.678 seconds: control_change channel=0 control=35 value=63 time=0
86.678 seconds: control_change channel=0 control=35 value=63 time=0
86.678 seconds: control_change channel=0 control=35 value=63 time=0
86.685 seconds: control_change channel=0 control=35 value=63 time=0
86.685 seconds: control_change channel=0 control=35 value=63 time=0
86.685 seconds: control_change channel=0 control=35 value=63 time=0
86.691 seconds: control_change channel=0 control=35 value=63 time=0
86.691 seconds: control_change channel=0 control=35 value=63 time=0
86.691 seconds: control_change channel=0 control=35 value=63 time=0
86.697 seconds: control_change channel=0 control=35 value=63 time=0
86.697 seconds: control_change channel=0 control=35 value=63 time=0
86.697 seconds: control_change channel=0 control=35 value=63 time=0
86.703 seconds: control_change channel=0 control=35 value=63 time=0
86.703 seconds: control_change channel=0 control=35 value=63 time=0
86.709 seconds: control_change channel=0 control=35 value=63 time=0
86.709 seconds: control_change channel=0 control=35 value=63 time=0
86.721 seconds: control_change channel=0 control=35 value=63 time=0
86.721 seconds: control_change channel=0 control=35 value=63 time=0
86.721 seconds: control_change channel=0 control=35 value=63 time=0
86.721 seconds: control_change channel=0 control=35 value=63 time=0
86.727 seconds: control_change channel=0 control=35 value=63 time=0
86.727 seconds: control_change channel=0 control=35 value=63 time=0
86.737 seconds: control_change channel=0 control=35 value=63 time=0
86.737 seconds: control_change channel=0 control=35 value=63 time=0
86.746 seconds: control_change channel=0 control=35 value=63 time=0
86.753 seconds: control_change channel=0 control=35 value=63 time=0
86.760 seconds: control_change channel=0 control=35 value=63 time=0
86.760 seconds: control_change channel=0 control=35 value=63 time=0
86.773 seconds: control_change channel=0 control=35 value=63 time=0
86.785 seconds: control_change channel=0 control=35 value=63 time=0
86.800 seconds: control_change channel=0 control=35 value=63 time=0
86.823 seconds: control_change channel=0 control=35 value=63 time=0
86.834 seconds: control_change channel=0 control=35 value=65 time=0
86.856 seconds: control_change channel=0 control=35 value=65 time=0
86.868 seconds: control_change channel=0 control=35 value=65 time=0
86.879 seconds: control_change channel=0 control=35 value=65 time=0
86.886 seconds: control_change channel=0 control=35 value=65 time=0
86.886 seconds: control_change channel=0 control=35 value=65 time=0
86.897 seconds: control_change channel=0 control=35 value=65 time=0
86.905 seconds: control_change channel=0 control=35 value=65 time=0
86.911 seconds: control_change channel=0 control=35 value=65 time=0
86.911 seconds: control_change channel=0 control=35 value=65 time=0
86.920 seconds: control_change channel=0 control=35 value=65 time=0
86.926 seconds: control_change channel=0 control=35 value=65 time=0
86.926 seconds: control_change channel=0 control=35 value=65 time=0
86.934 seconds: control_change channel=0 control=35 value=65 time=0
86.934 seconds: control_change channel=0 control=35 value=65 time=0
86.943 seconds: control_change channel=0 control=35 value=65 time=0
86.943 seconds: control_change channel=0 control=35 value=65 time=0
86.950 seconds: control_change channel=0 control=35 value=65 time=0
86.950 seconds: control_change channel=0 control=35 value=65 time=0
86.957 seconds: control_change channel=0 control=35 value=65 time=0
86.957 seconds: control_change channel=0 control=35 value=65 time=0
86.957 seconds: control_change channel=0 control=35 value=65 time=0
86.965 seconds: control_change channel=0 control=35 value=65 time=0
86.965 seconds: control_change channel=0 control=35 value=65 time=0
86.965 seconds: control_change channel=0 control=35 value=65 time=0
86.972 seconds: control_change channel=0 control=35 value=65 time=0
86.972 seconds: control_change channel=0 control=35 value=65 time=0
86.972 seconds: control_change channel=0 control=35 value=65 time=0
86.979 seconds: control_change channel=0 control=35 value=65 time=0
86.979 seconds: control_change channel=0 control=35 value=65 time=0
86.979 seconds: control_change channel=0 control=35 value=65 time=0
86.979 seconds: control_change channel=0 control=35 value=65 time=0
86.986 seconds: control_change channel=0 control=35 value=65 time=0
86.986 seconds: control_change channel=0 control=35 value=65 time=0
86.986 seconds: control_change channel=0 control=35 value=65 time=0
86.986 seconds: control_change channel=0 control=35 value=65 time=0
86.993 seconds: control_change channel=0 control=35 value=65 time=0
86.993 seconds: control_change channel=0 control=35 value=65 time=0
86.993 seconds: control_change channel=0 control=35 value=65 time=0
86.993 seconds: control_change channel=0 control=35 value=65 time=0
86.993 seconds: control_change channel=0 control=35 value=65 time=0
86.993 seconds: control_change channel=0 control=35 value=65 time=0
86.999 seconds: control_change channel=0 control=35 value=65 time=0
86.999 seconds: control_change channel=0 control=35 value=65 time=0
86.999 seconds: control_change channel=0 control=35 value=65 time=0
86.999 seconds: control_change channel=0 control=35 value=65 time=0
86.999 seconds: control_change channel=0 control=35 value=65 time=0
87.005 seconds: control_change channel=0 control=35 value=65 time=0
87.005 seconds: control_change channel=0 control=35 value=66 time=0
87.005 seconds: control_change channel=0 control=35 value=65 time=0
87.005 seconds: control_change channel=0 control=35 value=65 time=0
87.011 seconds: control_change channel=0 control=35 value=65 time=0
87.011 seconds: control_change channel=0 control=35 value=66 time=0
87.011 seconds: control_change channel=0 control=35 value=65 time=0
87.011 seconds: control_change channel=0 control=35 value=66 time=0
87.011 seconds: control_change channel=0 control=35 value=65 time=0
87.017 seconds: control_change channel=0 control=35 value=65 time=0
87.017 seconds: control_change channel=0 control=35 value=65 time=0
87.017 seconds: control_change channel=0 control=35 value=65 time=0
87.017 seconds: control_change channel=0 control=35 value=65 time=0
87.017 seconds: control_change channel=0 control=35 value=65 time=0
87.017 seconds: control_change channel=0 control=35 value=65 time=0
87.023 seconds: control_change channel=0 control=35 value=66 time=0
87.023 seconds: control_change channel=0 control=35 value=65 time=0
87.023 seconds: control_change channel=0 control=35 value=65 time=0
87.023 seconds: control_change channel=0 control=35 value=65 time=0
87.023 seconds: control_change channel=0 control=35 value=65 time=0
87.023 seconds: control_change channel=0 control=35 value=66 time=0
87.029 seconds: control_change channel=0 control=35 value=65 time=0
87.029 seconds: control_change channel=0 control=35 value=65 time=0
87.029 seconds: control_change channel=0 control=35 value=65 time=0
87.029 seconds: control_change channel=0 control=35 value=66 time=0
87.029 seconds: control_change channel=0 control=35 value=65 time=0
87.029 seconds: control_change channel=0 control=35 value=65 time=0
87.035 seconds: control_change channel=0 control=35 value=66 time=0
87.035 seconds: control_change channel=0 control=35 value=65 time=0
87.035 seconds: control_change channel=0 control=35 value=66 time=0
87.035 seconds: control_change channel=0 control=35 value=65 time=0
87.035 seconds: control_change channel=0 control=35 value=66 time=0
87.035 seconds: control_change channel=0 control=35 value=65 time=0
87.041 seconds: control_change channel=0 control=35 value=66 time=0
87.041 seconds: control_change channel=0 control=35 value=65 time=0
87.041 seconds: control_change channel=0 control=35 value=66 time=0
87.041 seconds: control_change channel=0 control=35 value=65 time=0
87.041 seconds: control_change channel=0 control=35 value=66 time=0
87.041 seconds: control_change channel=0 control=35 value=65 time=0
87.047 seconds: control_change channel=0 control=35 value=66 time=0
87.047 seconds: control_change channel=0 control=35 value=66 time=0
87.047 seconds: control_change channel=0 control=35 value=65 time=0
87.047 seconds: control_change channel=0 control=35 value=66 time=0
87.047 seconds: control_change channel=0 control=35 value=66 time=0
87.047 seconds: control_change channel=0 control=35 value=65 time=0
87.058 seconds: control_change channel=0 control=35 value=66 time=0
87.058 seconds: control_change channel=0 control=35 value=65 time=0
87.058 seconds: control_change channel=0 control=35 value=66 time=0
87.058 seconds: control_change channel=0 control=35 value=66 time=0
87.058 seconds: control_change channel=0 control=35 value=66 time=0
87.058 seconds: control_change channel=0 control=35 value=66 time=0
87.058 seconds: control_change channel=0 control=35 value=65 time=0
87.058 seconds: control_change channel=0 control=35 value=66 time=0
87.058 seconds: control_change channel=0 control=35 value=66 time=0
87.058 seconds: control_change channel=0 control=35 value=66 time=0
87.058 seconds: control_change channel=0 control=35 value=65 time=0
87.064 seconds: control_change channel=0 control=35 value=66 time=0
87.064 seconds: control_change channel=0 control=35 value=66 time=0
87.064 seconds: control_change channel=0 control=35 value=66 time=0
87.064 seconds: control_change channel=0 control=35 value=66 time=0
87.064 seconds: control_change channel=0 control=35 value=66 time=0
87.064 seconds: control_change channel=0 control=35 value=66 time=0
87.070 seconds: control_change channel=0 control=35 value=65 time=0
87.070 seconds: control_change channel=0 control=35 value=67 time=0
87.070 seconds: control_change channel=0 control=35 value=65 time=0
87.070 seconds: control_change channel=0 control=35 value=66 time=0
87.070 seconds: control_change channel=0 control=35 value=66 time=0
87.070 seconds: control_change channel=0 control=35 value=66 time=0
87.076 seconds: control_change channel=0 control=35 value=66 time=0
87.076 seconds: control_change channel=0 control=35 value=66 time=0
87.076 seconds: control_change channel=0 control=35 value=66 time=0
87.076 seconds: control_change channel=0 control=35 value=66 time=0
87.076 seconds: control_change channel=0 control=35 value=66 time=0
87.076 seconds: control_change channel=0 control=35 value=66 time=0
87.082 seconds: control_change channel=0 control=35 value=66 time=0
87.082 seconds: control_change channel=0 control=35 value=66 time=0
87.082 seconds: control_change channel=0 control=35 value=66 time=0
87.082 seconds: control_change channel=0 control=35 value=66 time=0
87.082 seconds: control_change channel=0 control=35 value=66 time=0
87.082 seconds: control_change channel=0 control=35 value=66 time=0
87.088 seconds: control_change channel=0 control=35 value=66 time=0
87.088 seconds: control_change channel=0 control=35 value=66 time=0
87.088 seconds: control_change channel=0 control=35 value=66 time=0
87.088 seconds: control_change channel=0 control=35 value=66 time=0
87.088 seconds: control_change channel=0 control=35 value=65 time=0
87.088 seconds: control_change channel=0 control=35 value=67 time=0
87.094 seconds: control_change channel=0 control=35 value=65 time=0
87.094 seconds: control_change channel=0 control=35 value=67 time=0
87.094 seconds: control_change channel=0 control=35 value=65 time=0
87.094 seconds: control_change channel=0 control=35 value=66 time=0
87.094 seconds: control_change channel=0 control=35 value=66 time=0
87.094 seconds: control_change channel=0 control=35 value=66 time=0
87.100 seconds: control_change channel=0 control=35 value=66 time=0
87.100 seconds: control_change channel=0 control=35 value=66 time=0
87.100 seconds: control_change channel=0 control=35 value=66 time=0
87.100 seconds: control_change channel=0 control=35 value=66 time=0
87.100 seconds: control_change channel=0 control=35 value=66 time=0
87.100 seconds: control_change channel=0 control=35 value=66 time=0
87.106 seconds: control_change channel=0 control=35 value=66 time=0
87.106 seconds: control_change channel=0 control=35 value=65 time=0
87.106 seconds: control_change channel=0 control=35 value=67 time=0
87.106 seconds: control_change channel=0 control=35 value=65 time=0
87.106 seconds: control_change channel=0 control=35 value=66 time=0
87.106 seconds: control_change channel=0 control=35 value=66 time=0
87.112 seconds: control_change channel=0 control=35 value=66 time=0
87.112 seconds: control_change channel=0 control=35 value=66 time=0
87.112 seconds: control_change channel=0 control=35 value=66 time=0
87.112 seconds: control_change channel=0 control=35 value=65 time=0
87.112 seconds: control_change channel=0 control=35 value=66 time=0
87.112 seconds: control_change channel=0 control=35 value=66 time=0
87.118 seconds: control_change channel=0 control=35 value=66 time=0
87.118 seconds: control_change channel=0 control=35 value=66 time=0
87.118 seconds: control_change channel=0 control=35 value=66 time=0
87.118 seconds: control_change channel=0 control=35 value=66 time=0
87.118 seconds: control_change channel=0 control=35 value=65 time=0
87.118 seconds: control_change channel=0 control=35 value=66 time=0
87.124 seconds: control_change channel=0 control=35 value=66 time=0
87.124 seconds: control_change channel=0 control=35 value=66 time=0
87.124 seconds: control_change channel=0 control=35 value=66 time=0
87.124 seconds: control_change channel=0 control=35 value=66 time=0
87.124 seconds: control_change channel=0 control=35 value=65 time=0
87.124 seconds: control_change channel=0 control=35 value=66 time=0
87.130 seconds: control_change channel=0 control=35 value=66 time=0
87.130 seconds: control_change channel=0 control=35 value=66 time=0
87.130 seconds: control_change channel=0 control=35 value=66 time=0
87.130 seconds: control_change channel=0 control=35 value=65 time=0
87.130 seconds: control_change channel=0 control=35 value=66 time=0
87.130 seconds: control_change channel=0 control=35 value=66 time=0
87.136 seconds: control_change channel=0 control=35 value=66 time=0
87.136 seconds: control_change channel=0 control=35 value=66 time=0
87.136 seconds: control_change channel=0 control=35 value=66 time=0
87.136 seconds: control_change channel=0 control=35 value=65 time=0
87.136 seconds: control_change channel=0 control=33 value=66 time=0
87.136 seconds: control_change channel=0 control=33 value=66 time=0
87.142 seconds: control_change channel=0 control=33 value=66 time=0
87.142 seconds: control_change channel=0 control=33 value=66 time=0
87.142 seconds: control_change channel=0 control=33 value=65 time=0
87.142 seconds: control_change channel=0 control=33 value=66 time=0
87.142 seconds: control_change channel=0 control=33 value=66 time=0
87.142 seconds: control_change channel=0 control=33 value=66 time=0
87.148 seconds: control_change channel=0 control=33 value=65 time=0
87.148 seconds: control_change channel=0 control=33 value=66 time=0
87.148 seconds: control_change channel=0 control=33 value=66 time=0
87.148 seconds: control_change channel=0 control=33 value=65 time=0
87.148 seconds: control_change channel=0 control=33 value=66 time=0
87.148 seconds: control_change channel=0 control=33 value=65 time=0
87.154 seconds: control_change channel=0 control=33 value=66 time=0
87.154 seconds: control_change channel=0 control=33 value=66 time=0
87.154 seconds: control_change channel=0 control=33 value=65 time=0
87.154 seconds: control_change channel=0 control=33 value=66 time=0
87.154 seconds: control_change channel=0 control=33 value=65 time=0
87.154 seconds: control_change channel=0 control=33 value=66 time=0
87.160 seconds: control_change channel=0 control=33 value=65 time=0
87.160 seconds: control_change channel=0 control=33 value=66 time=0
87.160 seconds: control_change channel=0 control=33 value=65 time=0
87.160 seconds: control_change channel=0 control=33 value=66 time=0
87.160 seconds: control_change channel=0 control=33 value=65 time=0
87.160 seconds: control_change channel=0 control=33 value=66 time=0
87.166 seconds: control_change channel=0 control=33 value=65 time=0
87.166 seconds: control_change channel=0 control=33 value=65 time=0
87.166 seconds: control_change channel=0 control=33 value=66 time=0
87.166 seconds: control_change channel=0 control=33 value=65 time=0
87.166 seconds: control_change channel=0 control=33 value=65 time=0
87.166 seconds: control_change channel=0 control=33 value=66 time=0
87.172 seconds: control_change channel=0 control=33 value=65 time=0
87.172 seconds: control_change channel=0 control=33 value=66 time=0
87.172 seconds: control_change channel=0 control=33 value=65 time=0
87.172 seconds: control_change channel=0 control=33 value=65 time=0
87.172 seconds: control_change channel=0 control=33 value=65 time=0
87.172 seconds: control_change channel=0 control=33 value=66 time=0
87.179 seconds: control_change channel=0 control=33 value=65 time=0
87.179 seconds: control_change channel=0 control=33 value=65 time=0
87.179 seconds: control_change channel=0 control=33 value=66 time=0
87.179 seconds: control_change channel=0 control=33 value=65 time=0
87.179 seconds: control_change channel=0 control=33 value=65 time=0
87.179 seconds: control_change channel=0 control=33 value=65 time=0
87.179 seconds: control_change channel=0 control=33 value=66 time=0
87.185 seconds: control_change channel=0 control=33 value=65 time=0
87.185 seconds: control_change channel=0 control=33 value=65 time=0
87.185 seconds: control_change channel=0 control=33 value=65 time=0
87.185 seconds: control_change channel=0 control=33 value=65 time=0
87.185 seconds: control_change channel=0 control=33 value=65 time=0
87.185 seconds: control_change channel=0 control=33 value=65 time=0
87.191 seconds: control_change channel=0 control=33 value=66 time=0
87.191 seconds: control_change channel=0 control=33 value=65 time=0
87.191 seconds: control_change channel=0 control=33 value=66 time=0
87.191 seconds: control_change channel=0 control=33 value=65 time=0
87.191 seconds: control_change channel=0 control=33 value=65 time=0
87.197 seconds: control_change channel=0 control=33 value=65 time=0
87.197 seconds: control_change channel=0 control=33 value=65 time=0
87.197 seconds: control_change channel=0 control=33 value=65 time=0
87.197 seconds: control_change channel=0 control=33 value=65 time=0
87.197 seconds: control_change channel=0 control=33 value=65 time=0
87.197 seconds: control_change channel=0 control=33 value=65 time=0
87.203 seconds: control_change channel=0 control=33 value=65 time=0
87.203 seconds: control_change channel=0 control=33 value=65 time=0
87.203 seconds: control_change channel=0 control=33 value=65 time=0
87.203 seconds: control_change channel=0 control=33 value=65 time=0
87.203 seconds: control_change channel=0 control=33 value=65 time=0
87.209 seconds: control_change channel=0 control=33 value=65 time=0
87.209 seconds: control_change channel=0 control=33 value=65 time=0
87.209 seconds: control_change channel=0 control=33 value=65 time=0
87.209 seconds: control_change channel=0 control=33 value=65 time=0
87.209 seconds: control_change channel=0 control=33 value=65 time=0
87.209 seconds: control_change channel=0 control=33 value=65 time=0
87.215 seconds: control_change channel=0 control=33 value=65 time=0
87.215 seconds: control_change channel=0 control=33 value=65 time=0
87.215 seconds: control_change channel=0 control=33 value=65 time=0
87.215 seconds: control_change channel=0 control=33 value=65 time=0
87.215 seconds: control_change channel=0 control=33 value=65 time=0
87.221 seconds: control_change channel=0 control=33 value=65 time=0
87.221 seconds: control_change channel=0 control=33 value=65 time=0
87.221 seconds: control_change channel=0 control=33 value=65 time=0
87.221 seconds: control_change channel=0 control=33 value=65 time=0
87.227 seconds: control_change channel=0 control=33 value=65 time=0
87.227 seconds: control_change channel=0 control=33 value=65 time=0
87.227 seconds: control_change channel=0 control=33 value=65 time=0
87.227 seconds: control_change channel=0 control=33 value=65 time=0
87.227 seconds: control_change channel=0 control=33 value=65 time=0
87.234 seconds: control_change channel=0 control=33 value=65 time=0
87.234 seconds: control_change channel=0 control=33 value=65 time=0
87.234 seconds: control_change channel=0 control=33 value=65 time=0
87.234 seconds: control_change channel=0 control=33 value=65 time=0
87.241 seconds: control_change channel=0 control=33 value=65 time=0
87.241 seconds: control_change channel=0 control=33 value=65 time=0
87.241 seconds: control_change channel=0 control=33 value=65 time=0
87.241 seconds: control_change channel=0 control=33 value=65 time=0
87.247 seconds: control_change channel=0 control=33 value=65 time=0
87.247 seconds: control_change channel=0 control=33 value=65 time=0
87.247 seconds: control_change channel=0 control=33 value=65 time=0
87.253 seconds: control_change channel=0 control=33 value=65 time=0
87.253 seconds: control_change channel=0 control=33 value=65 time=0
87.253 seconds: control_change channel=0 control=33 value=65 time=0
87.259 seconds: control_change channel=0 control=33 value=65 time=0
87.259 seconds: control_change channel=0 control=33 value=65 time=0
87.259 seconds: control_change channel=0 control=33 value=65 time=0
87.267 seconds: control_change channel=0 control=33 value=65 time=0
87.267 seconds: control_change channel=0 control=33 value=65 time=0
87.267 seconds: control_change channel=0 control=33 value=65 time=0
87.274 seconds: control_change channel=0 control=33 value=65 time=0
87.274 seconds: control_change channel=0 control=33 value=65 time=0
87.280 seconds: control_change channel=0 control=33 value=65 time=0
87.280 seconds: control_change channel=0 control=33 value=65 time=0
87.286 seconds: control_change channel=0 control=33 value=65 time=0
87.286 seconds: control_change channel=0 control=33 value=65 time=0
87.293 seconds: control_change channel=0 control=33 value=65 time=0
87.293 seconds: control_change channel=0 control=33 value=65 time=0
87.303 seconds: control_change channel=0 control=33 value=65 time=0
87.303 seconds: control_change channel=0 control=33 value=65 time=0
87.313 seconds: control_change channel=0 control=33 value=65 time=0
87.319 seconds: control_change channel=0 control=33 value=65 time=0
87.329 seconds: control_change channel=0 control=33 value=65 time=0
87.340 seconds: control_change channel=0 control=33 value=65 time=0
87.352 seconds: control_change channel=0 control=33 value=65 time=0
87.602 seconds: control_change channel=0 control=35 value=65 time=0
87.608 seconds: control_change channel=0 control=35 value=65 time=0
87.608 seconds: control_change channel=0 control=35 value=65 time=0
87.608 seconds: control_change channel=0 control=35 value=65 time=0
87.614 seconds: control_change channel=0 control=35 value=65 time=0
87.614 seconds: control_change channel=0 control=35 value=65 time=0
87.614 seconds: control_change channel=0 control=35 value=65 time=0
87.614 seconds: control_change channel=0 control=35 value=65 time=0
87.614 seconds: control_change channel=0 control=35 value=65 time=0
87.621 seconds: control_change channel=0 control=35 value=65 time=0
87.621 seconds: control_change channel=0 control=35 value=65 time=0
87.621 seconds: control_change channel=0 control=35 value=65 time=0
87.621 seconds: control_change channel=0 control=35 value=65 time=0
87.621 seconds: control_change channel=0 control=35 value=65 time=0
87.621 seconds: control_change channel=0 control=35 value=66 time=0
87.627 seconds: control_change channel=0 control=35 value=65 time=0
87.627 seconds: control_change channel=0 control=35 value=65 time=0
87.627 seconds: control_change channel=0 control=35 value=66 time=0
87.627 seconds: control_change channel=0 control=35 value=65 time=0
87.627 seconds: control_change channel=0 control=35 value=65 time=0
87.627 seconds: control_change channel=0 control=35 value=66 time=0
87.633 seconds: control_change channel=0 control=35 value=66 time=0
87.633 seconds: control_change channel=0 control=35 value=65 time=0
87.633 seconds: control_change channel=0 control=35 value=66 time=0
87.633 seconds: control_change channel=0 control=35 value=66 time=0
87.633 seconds: control_change channel=0 control=35 value=66 time=0
87.633 seconds: control_change channel=0 control=35 value=65 time=0
87.639 seconds: control_change channel=0 control=35 value=66 time=0
87.639 seconds: control_change channel=0 control=35 value=66 time=0
87.639 seconds: control_change channel=0 control=35 value=66 time=0
87.639 seconds: control_change channel=0 control=35 value=66 time=0
87.639 seconds: control_change channel=0 control=35 value=67 time=0
87.639 seconds: control_change channel=0 control=35 value=66 time=0
87.645 seconds: control_change channel=0 control=35 value=66 time=0
87.645 seconds: control_change channel=0 control=35 value=66 time=0
87.645 seconds: control_change channel=0 control=35 value=66 time=0
87.645 seconds: control_change channel=0 control=35 value=67 time=0
87.645 seconds: control_change channel=0 control=35 value=66 time=0
87.645 seconds: control_change channel=0 control=35 value=67 time=0
87.651 seconds: control_change channel=0 control=35 value=66 time=0
87.651 seconds: control_change channel=0 control=35 value=67 time=0
87.651 seconds: control_change channel=0 control=35 value=67 time=0
87.651 seconds: control_change channel=0 control=35 value=66 time=0
87.651 seconds: control_change channel=0 control=35 value=67 time=0
87.651 seconds: control_change channel=0 control=35 value=67 time=0
87.657 seconds: control_change channel=0 control=35 value=67 time=0
87.657 seconds: control_change channel=0 control=35 value=66 time=0
87.657 seconds: control_change channel=0 control=35 value=67 time=0
87.657 seconds: control_change channel=0 control=35 value=67 time=0
87.657 seconds: control_change channel=0 control=35 value=67 time=0
87.657 seconds: control_change channel=0 control=35 value=67 time=0
87.663 seconds: control_change channel=0 control=35 value=67 time=0
87.663 seconds: control_change channel=0 control=35 value=67 time=0
87.663 seconds: control_change channel=0 control=35 value=67 time=0
87.663 seconds: control_change channel=0 control=35 value=67 time=0
87.663 seconds: control_change channel=0 control=35 value=67 time=0
87.663 seconds: control_change channel=0 control=35 value=67 time=0
87.669 seconds: control_change channel=0 control=35 value=67 time=0
87.669 seconds: control_change channel=0 control=35 value=67 time=0
87.669 seconds: control_change channel=0 control=35 value=67 time=0
87.669 seconds: control_change channel=0 control=35 value=68 time=0
87.669 seconds: control_change channel=0 control=35 value=67 time=0
87.669 seconds: control_change channel=0 control=35 value=66 time=0
87.675 seconds: control_change channel=0 control=35 value=68 time=0
87.675 seconds: control_change channel=0 control=35 value=67 time=0
87.675 seconds: control_change channel=0 control=33 value=67 time=0
87.675 seconds: control_change channel=0 control=33 value=67 time=0
87.675 seconds: control_change channel=0 control=33 value=67 time=0
87.675 seconds: control_change channel=0 control=33 value=67 time=0
87.681 seconds: control_change channel=0 control=33 value=67 time=0
87.681 seconds: control_change channel=0 control=33 value=66 time=0
87.681 seconds: control_change channel=0 control=33 value=67 time=0
87.681 seconds: control_change channel=0 control=33 value=67 time=0
87.681 seconds: control_change channel=0 control=33 value=67 time=0
87.681 seconds: control_change channel=0 control=33 value=67 time=0
87.687 seconds: control_change channel=0 control=33 value=67 time=0
87.687 seconds: control_change channel=0 control=33 value=67 time=0
87.687 seconds: control_change channel=0 control=33 value=66 time=0
87.687 seconds: control_change channel=0 control=33 value=67 time=0
87.687 seconds: control_change channel=0 control=33 value=67 time=0
87.687 seconds: control_change channel=0 control=33 value=66 time=0
87.693 seconds: control_change channel=0 control=33 value=67 time=0
87.693 seconds: control_change channel=0 control=33 value=67 time=0
87.693 seconds: control_change channel=0 control=33 value=66 time=0
87.693 seconds: control_change channel=0 control=33 value=67 time=0
87.693 seconds: control_change channel=0 control=33 value=67 time=0
87.693 seconds: control_change channel=0 control=33 value=66 time=0
87.699 seconds: control_change channel=0 control=33 value=67 time=0
87.699 seconds: control_change channel=0 control=33 value=66 time=0
87.699 seconds: control_change channel=0 control=33 value=67 time=0
87.699 seconds: control_change channel=0 control=33 value=67 time=0
87.699 seconds: control_change channel=0 control=33 value=66 time=0
87.699 seconds: control_change channel=0 control=33 value=66 time=0
87.705 seconds: control_change channel=0 control=33 value=67 time=0
87.705 seconds: control_change channel=0 control=33 value=66 time=0
87.705 seconds: control_change channel=0 control=33 value=67 time=0
87.705 seconds: control_change channel=0 control=33 value=66 time=0
87.705 seconds: control_change channel=0 control=33 value=66 time=0
87.705 seconds: control_change channel=0 control=33 value=67 time=0
87.711 seconds: control_change channel=0 control=33 value=66 time=0
87.711 seconds: control_change channel=0 control=33 value=67 time=0
87.711 seconds: control_change channel=0 control=33 value=66 time=0
87.711 seconds: control_change channel=0 control=33 value=66 time=0
87.711 seconds: control_change channel=0 control=33 value=67 time=0
87.711 seconds: control_change channel=0 control=33 value=66 time=0
87.717 seconds: control_change channel=0 control=33 value=66 time=0
87.717 seconds: control_change channel=0 control=33 value=66 time=0
87.717 seconds: control_change channel=0 control=33 value=66 time=0
87.717 seconds: control_change channel=0 control=33 value=66 time=0
87.717 seconds: control_change channel=0 control=33 value=67 time=0
87.717 seconds: control_change channel=0 control=33 value=66 time=0
87.723 seconds: control_change channel=0 control=33 value=66 time=0
87.723 seconds: control_change channel=0 control=33 value=66 time=0
87.723 seconds: control_change channel=0 control=33 value=66 time=0
87.723 seconds: control_change channel=0 control=33 value=66 time=0
87.723 seconds: control_change channel=0 control=33 value=66 time=0
87.723 seconds: control_change channel=0 control=33 value=66 time=0
87.729 seconds: control_change channel=0 control=33 value=66 time=0
87.729 seconds: control_change channel=0 control=33 value=67 time=0
87.729 seconds: control_change channel=0 control=33 value=65 time=0
87.729 seconds: control_change channel=0 control=33 value=66 time=0
87.729 seconds: control_change channel=0 control=33 value=66 time=0
87.729 seconds: control_change channel=0 control=33 value=66 time=0
87.736 seconds: control_change channel=0 control=33 value=66 time=0
87.736 seconds: control_change channel=0 control=33 value=66 time=0
87.736 seconds: control_change channel=0 control=33 value=66 time=0
87.736 seconds: control_change channel=0 control=33 value=66 time=0
87.736 seconds: control_change channel=0 control=33 value=66 time=0
87.736 seconds: control_change channel=0 control=33 value=65 time=0
87.736 seconds: control_change channel=0 control=33 value=67 time=0
87.742 seconds: control_change channel=0 control=33 value=65 time=0
87.742 seconds: control_change channel=0 control=33 value=66 time=0
87.742 seconds: control_change channel=0 control=33 value=66 time=0
87.742 seconds: control_change channel=0 control=33 value=66 time=0
87.742 seconds: control_change channel=0 control=33 value=65 time=0
87.742 seconds: control_change channel=0 control=33 value=66 time=0
87.748 seconds: control_change channel=0 control=33 value=66 time=0
87.748 seconds: control_change channel=0 control=33 value=65 time=0
87.748 seconds: control_change channel=0 control=33 value=66 time=0
87.748 seconds: control_change channel=0 control=33 value=66 time=0
87.748 seconds: control_change channel=0 control=33 value=66 time=0
87.748 seconds: control_change channel=0 control=33 value=65 time=0
87.754 seconds: control_change channel=0 control=33 value=66 time=0
87.754 seconds: control_change channel=0 control=33 value=66 time=0
87.754 seconds: control_change channel=0 control=33 value=65 time=0
87.754 seconds: control_change channel=0 control=33 value=66 time=0
87.754 seconds: control_change channel=0 control=33 value=65 time=0
87.754 seconds: control_change channel=0 control=33 value=66 time=0
87.760 seconds: control_change channel=0 control=33 value=66 time=0
87.760 seconds: control_change channel=0 control=33 value=65 time=0
87.760 seconds: control_change channel=0 control=33 value=66 time=0
87.760 seconds: control_change channel=0 control=33 value=65 time=0
87.760 seconds: control_change channel=0 control=33 value=65 time=0
87.760 seconds: control_change channel=0 control=33 value=66 time=0
87.766 seconds: control_change channel=0 control=33 value=65 time=0
87.766 seconds: control_change channel=0 control=33 value=66 time=0
87.766 seconds: control_change channel=0 control=33 value=66 time=0
87.766 seconds: control_change channel=0 control=33 value=65 time=0
87.766 seconds: control_change channel=0 control=33 value=65 time=0
87.766 seconds: control_change channel=0 control=33 value=66 time=0
87.772 seconds: control_change channel=0 control=33 value=65 time=0
87.772 seconds: control_change channel=0 control=33 value=65 time=0
87.772 seconds: control_change channel=0 control=33 value=66 time=0
87.772 seconds: control_change channel=0 control=33 value=65 time=0
87.772 seconds: control_change channel=0 control=33 value=66 time=0
87.772 seconds: control_change channel=0 control=33 value=65 time=0
87.778 seconds: control_change channel=0 control=33 value=65 time=0
87.778 seconds: control_change channel=0 control=33 value=65 time=0
87.778 seconds: control_change channel=0 control=33 value=66 time=0
87.778 seconds: control_change channel=0 control=33 value=65 time=0
87.778 seconds: control_change channel=0 control=33 value=65 time=0
87.778 seconds: control_change channel=0 control=33 value=66 time=0
87.784 seconds: control_change channel=0 control=33 value=65 time=0
87.784 seconds: control_change channel=0 control=33 value=65 time=0
87.784 seconds: control_change channel=0 control=33 value=65 time=0
87.784 seconds: control_change channel=0 control=33 value=65 time=0
87.784 seconds: control_change channel=0 control=33 value=65 time=0
87.784 seconds: control_change channel=0 control=33 value=66 time=0
87.790 seconds: control_change channel=0 control=33 value=65 time=0
87.790 seconds: control_change channel=0 control=33 value=65 time=0
87.790 seconds: control_change channel=0 control=33 value=65 time=0
87.790 seconds: control_change channel=0 control=33 value=65 time=0
87.790 seconds: control_change channel=0 control=33 value=65 time=0
87.790 seconds: control_change channel=0 control=33 value=65 time=0
87.796 seconds: control_change channel=0 control=33 value=66 time=0
87.796 seconds: control_change channel=0 control=33 value=65 time=0
87.796 seconds: control_change channel=0 control=33 value=65 time=0
87.796 seconds: control_change channel=0 control=33 value=65 time=0
87.796 seconds: control_change channel=0 control=33 value=65 time=0
87.796 seconds: control_change channel=0 control=33 value=65 time=0
87.802 seconds: control_change channel=0 control=33 value=65 time=0
87.802 seconds: control_change channel=0 control=33 value=65 time=0
87.802 seconds: control_change channel=0 control=33 value=65 time=0
87.802 seconds: control_change channel=0 control=33 value=65 time=0
87.802 seconds: control_change channel=0 control=33 value=65 time=0
87.802 seconds: control_change channel=0 control=33 value=65 time=0
87.808 seconds: control_change channel=0 control=33 value=65 time=0
87.808 seconds: control_change channel=0 control=33 value=65 time=0
87.808 seconds: control_change channel=0 control=33 value=65 time=0
87.808 seconds: control_change channel=0 control=33 value=66 time=0
87.814 seconds: control_change channel=0 control=33 value=65 time=0
87.814 seconds: control_change channel=0 control=33 value=65 time=0
87.814 seconds: control_change channel=0 control=33 value=65 time=0
87.814 seconds: control_change channel=0 control=33 value=65 time=0
87.814 seconds: control_change channel=0 control=33 value=65 time=0
87.820 seconds: control_change channel=0 control=33 value=65 time=0
87.820 seconds: control_change channel=0 control=33 value=65 time=0
87.820 seconds: control_change channel=0 control=33 value=65 time=0
87.820 seconds: control_change channel=0 control=33 value=65 time=0
87.820 seconds: control_change channel=0 control=33 value=65 time=0
87.826 seconds: control_change channel=0 control=33 value=65 time=0
87.826 seconds: control_change channel=0 control=33 value=65 time=0
87.826 seconds: control_change channel=0 control=33 value=65 time=0
87.826 seconds: control_change channel=0 control=33 value=65 time=0
87.826 seconds: control_change channel=0 control=33 value=65 time=0
87.832 seconds: control_change channel=0 control=33 value=65 time=0
87.832 seconds: control_change channel=0 control=33 value=65 time=0
87.832 seconds: control_change channel=0 control=33 value=65 time=0
87.832 seconds: control_change channel=0 control=33 value=65 time=0
87.838 seconds: control_change channel=0 control=33 value=65 time=0
87.838 seconds: control_change channel=0 control=33 value=65 time=0
87.838 seconds: control_change channel=0 control=33 value=65 time=0
87.838 seconds: control_change channel=0 control=33 value=65 time=0
87.844 seconds: control_change channel=0 control=33 value=65 time=0
87.844 seconds: control_change channel=0 control=33 value=65 time=0
87.844 seconds: control_change channel=0 control=33 value=65 time=0
87.850 seconds: control_change channel=0 control=33 value=65 time=0
87.850 seconds: control_change channel=0 control=33 value=65 time=0
87.850 seconds: control_change channel=0 control=33 value=65 time=0
87.850 seconds: control_change channel=0 control=33 value=65 time=0
87.857 seconds: control_change channel=0 control=33 value=65 time=0
87.857 seconds: control_change channel=0 control=33 value=65 time=0
87.857 seconds: control_change channel=0 control=33 value=65 time=0
87.863 seconds: control_change channel=0 control=33 value=65 time=0
87.863 seconds: control_change channel=0 control=33 value=65 time=0
87.863 seconds: control_change channel=0 control=33 value=65 time=0
87.869 seconds: control_change channel=0 control=33 value=65 time=0
87.869 seconds: control_change channel=0 control=33 value=65 time=0
87.875 seconds: control_change channel=0 control=33 value=65 time=0
87.875 seconds: control_change channel=0 control=33 value=65 time=0
87.875 seconds: control_change channel=0 control=33 value=65 time=0
87.883 seconds: control_change channel=0 control=33 value=65 time=0
87.883 seconds: control_change channel=0 control=33 value=65 time=0
87.889 seconds: control_change channel=0 control=33 value=65 time=0
87.889 seconds: control_change channel=0 control=33 value=65 time=0
87.896 seconds: control_change channel=0 control=33 value=65 time=0
87.896 seconds: control_change channel=0 control=33 value=65 time=0
87.903 seconds: control_change channel=0 control=33 value=65 time=0
87.903 seconds: control_change channel=0 control=33 value=65 time=0
87.913 seconds: control_change channel=0 control=33 value=65 time=0
87.919 seconds: control_change channel=0 control=33 value=65 time=0
87.919 seconds: control_change channel=0 control=33 value=65 time=0
87.931 seconds: control_change channel=0 control=33 value=65 time=0
87.942 seconds: control_change channel=0 control=33 value=65 time=0
87.956 seconds: control_change channel=0 control=33 value=65 time=0
87.972 seconds: control_change channel=0 control=33 value=65 time=0
88.288 seconds: control_change channel=0 control=35 value=65 time=0
88.288 seconds: control_change channel=0 control=35 value=65 time=0
88.295 seconds: control_change channel=0 control=35 value=65 time=0
88.295 seconds: control_change channel=0 control=35 value=65 time=0
88.295 seconds: control_change channel=0 control=35 value=65 time=0
88.301 seconds: control_change channel=0 control=35 value=65 time=0
88.301 seconds: control_change channel=0 control=35 value=65 time=0
88.301 seconds: control_change channel=0 control=35 value=65 time=0
88.301 seconds: control_change channel=0 control=35 value=65 time=0
88.307 seconds: control_change channel=0 control=35 value=65 time=0
88.307 seconds: control_change channel=0 control=35 value=65 time=0
88.307 seconds: control_change channel=0 control=35 value=65 time=0
88.307 seconds: control_change channel=0 control=35 value=65 time=0
88.313 seconds: control_change channel=0 control=35 value=65 time=0
88.313 seconds: control_change channel=0 control=35 value=65 time=0
88.313 seconds: control_change channel=0 control=35 value=65 time=0
88.313 seconds: control_change channel=0 control=35 value=65 time=0
88.313 seconds: control_change channel=0 control=35 value=65 time=0
88.313 seconds: control_change channel=0 control=35 value=65 time=0
88.319 seconds: control_change channel=0 control=35 value=65 time=0
88.319 seconds: control_change channel=0 control=35 value=65 time=0
88.319 seconds: control_change channel=0 control=35 value=65 time=0
88.319 seconds: control_change channel=0 control=35 value=65 time=0
88.319 seconds: control_change channel=0 control=35 value=66 time=0
88.325 seconds: control_change channel=0 control=35 value=66 time=0
88.325 seconds: control_change channel=0 control=35 value=65 time=0
88.325 seconds: control_change channel=0 control=35 value=65 time=0
88.325 seconds: control_change channel=0 control=35 value=65 time=0
88.325 seconds: control_change channel=0 control=35 value=66 time=0
88.325 seconds: control_change channel=0 control=35 value=65 time=0
88.331 seconds: control_change channel=0 control=35 value=65 time=0
88.331 seconds: control_change channel=0 control=35 value=66 time=0
88.331 seconds: control_change channel=0 control=35 value=65 time=0
88.331 seconds: control_change channel=0 control=35 value=65 time=0
88.331 seconds: control_change channel=0 control=35 value=66 time=0
88.331 seconds: control_change channel=0 control=35 value=65 time=0
88.337 seconds: control_change channel=0 control=35 value=66 time=0
88.337 seconds: control_change channel=0 control=35 value=66 time=0
88.337 seconds: control_change channel=0 control=35 value=65 time=0
88.337 seconds: control_change channel=0 control=35 value=66 time=0
88.337 seconds: control_change channel=0 control=35 value=65 time=0
88.337 seconds: control_change channel=0 control=35 value=66 time=0
88.343 seconds: control_change channel=0 control=35 value=66 time=0
88.343 seconds: control_change channel=0 control=35 value=65 time=0
88.343 seconds: control_change channel=0 control=35 value=66 time=0
88.343 seconds: control_change channel=0 control=35 value=65 time=0
88.343 seconds: control_change channel=0 control=35 value=66 time=0
88.343 seconds: control_change channel=0 control=35 value=66 time=0
88.349 seconds: control_change channel=0 control=35 value=65 time=0
88.349 seconds: control_change channel=0 control=35 value=67 time=0
88.349 seconds: control_change channel=0 control=35 value=65 time=0
88.349 seconds: control_change channel=0 control=35 value=66 time=0
88.349 seconds: control_change channel=0 control=35 value=66 time=0
88.349 seconds: control_change channel=0 control=35 value=66 time=0
88.355 seconds: control_change channel=0 control=35 value=65 time=0
88.355 seconds: control_change channel=0 control=35 value=66 time=0
88.355 seconds: control_change channel=0 control=35 value=66 time=0
88.355 seconds: control_change channel=0 control=35 value=66 time=0
88.355 seconds: control_change channel=0 control=35 value=66 time=0
88.355 seconds: control_change channel=0 control=35 value=65 time=0
88.361 seconds: control_change channel=0 control=35 value=67 time=0
88.361 seconds: control_change channel=0 control=35 value=65 time=0
88.361 seconds: control_change channel=0 control=35 value=66 time=0
88.361 seconds: control_change channel=0 control=35 value=66 time=0
88.361 seconds: control_change channel=0 control=35 value=66 time=0
88.361 seconds: control_change channel=0 control=35 value=66 time=0
88.367 seconds: control_change channel=0 control=35 value=66 time=0
88.367 seconds: control_change channel=0 control=35 value=65 time=0
88.367 seconds: control_change channel=0 control=35 value=66 time=0
88.367 seconds: control_change channel=0 control=35 value=66 time=0
88.367 seconds: control_change channel=0 control=35 value=66 time=0
88.367 seconds: control_change channel=0 control=35 value=66 time=0
88.373 seconds: control_change channel=0 control=35 value=65 time=0
88.373 seconds: control_change channel=0 control=33 value=66 time=0
88.373 seconds: control_change channel=0 control=33 value=66 time=0
88.373 seconds: control_change channel=0 control=33 value=65 time=0
88.373 seconds: control_change channel=0 control=33 value=66 time=0
88.373 seconds: control_change channel=0 control=33 value=66 time=0
88.379 seconds: control_change channel=0 control=33 value=65 time=0
88.379 seconds: control_change channel=0 control=33 value=66 time=0
88.379 seconds: control_change channel=0 control=33 value=66 time=0
88.379 seconds: control_change channel=0 control=33 value=65 time=0
88.379 seconds: control_change channel=0 control=33 value=66 time=0
88.379 seconds: control_change channel=0 control=33 value=66 time=0
88.386 seconds: control_change channel=0 control=33 value=65 time=0
88.386 seconds: control_change channel=0 control=33 value=66 time=0
88.386 seconds: control_change channel=0 control=33 value=65 time=0
88.386 seconds: control_change channel=0 control=33 value=65 time=0
88.386 seconds: control_change channel=0 control=33 value=66 time=0
88.386 seconds: control_change channel=0 control=33 value=65 time=0
88.386 seconds: control_change channel=0 control=33 value=66 time=0
88.392 seconds: control_change channel=0 control=33 value=66 time=0
88.392 seconds: control_change channel=0 control=33 value=65 time=0
88.392 seconds: control_change channel=0 control=33 value=66 time=0
88.392 seconds: control_change channel=0 control=33 value=65 time=0
88.392 seconds: control_change channel=0 control=33 value=65 time=0
88.392 seconds: control_change channel=0 control=33 value=66 time=0
88.398 seconds: control_change channel=0 control=33 value=65 time=0
88.398 seconds: control_change channel=0 control=33 value=65 time=0
88.398 seconds: control_change channel=0 control=33 value=66 time=0
88.398 seconds: control_change channel=0 control=33 value=65 time=0
88.398 seconds: control_change channel=0 control=33 value=65 time=0
88.398 seconds: control_change channel=0 control=33 value=66 time=0
88.404 seconds: control_change channel=0 control=33 value=65 time=0
88.404 seconds: control_change channel=0 control=33 value=65 time=0
88.404 seconds: control_change channel=0 control=33 value=66 time=0
88.404 seconds: control_change channel=0 control=33 value=65 time=0
88.404 seconds: control_change channel=0 control=33 value=65 time=0
88.404 seconds: control_change channel=0 control=33 value=66 time=0
88.410 seconds: control_change channel=0 control=33 value=65 time=0
88.410 seconds: control_change channel=0 control=33 value=65 time=0
88.410 seconds: control_change channel=0 control=33 value=65 time=0
88.410 seconds: control_change channel=0 control=33 value=66 time=0
88.410 seconds: control_change channel=0 control=33 value=66 time=0
88.416 seconds: control_change channel=0 control=33 value=65 time=0
88.416 seconds: control_change channel=0 control=33 value=65 time=0
88.416 seconds: control_change channel=0 control=33 value=65 time=0
88.416 seconds: control_change channel=0 control=33 value=65 time=0
88.416 seconds: control_change channel=0 control=33 value=66 time=0
88.422 seconds: control_change channel=0 control=33 value=65 time=0
88.422 seconds: control_change channel=0 control=33 value=66 time=0
88.422 seconds: control_change channel=0 control=33 value=65 time=0
88.422 seconds: control_change channel=0 control=33 value=65 time=0
88.422 seconds: control_change channel=0 control=33 value=65 time=0
88.422 seconds: control_change channel=0 control=33 value=65 time=0
88.428 seconds: control_change channel=0 control=33 value=65 time=0
88.428 seconds: control_change channel=0 control=33 value=65 time=0
88.428 seconds: control_change channel=0 control=33 value=65 time=0
88.428 seconds: control_change channel=0 control=33 value=65 time=0
88.428 seconds: control_change channel=0 control=33 value=65 time=0
88.428 seconds: control_change channel=0 control=33 value=65 time=0
88.434 seconds: control_change channel=0 control=33 value=65 time=0
88.434 seconds: control_change channel=0 control=33 value=65 time=0
88.434 seconds: control_change channel=0 control=33 value=65 time=0
88.434 seconds: control_change channel=0 control=33 value=65 time=0
88.434 seconds: control_change channel=0 control=33 value=66 time=0
88.440 seconds: control_change channel=0 control=33 value=65 time=0
88.440 seconds: control_change channel=0 control=33 value=65 time=0
88.440 seconds: control_change channel=0 control=33 value=65 time=0
88.440 seconds: control_change channel=0 control=33 value=65 time=0
88.440 seconds: control_change channel=0 control=33 value=65 time=0
88.447 seconds: control_change channel=0 control=33 value=65 time=0
88.447 seconds: control_change channel=0 control=33 value=65 time=0
88.447 seconds: control_change channel=0 control=33 value=65 time=0
88.447 seconds: control_change channel=0 control=33 value=65 time=0
88.447 seconds: control_change channel=0 control=33 value=65 time=0
88.453 seconds: control_change channel=0 control=33 value=65 time=0
88.453 seconds: control_change channel=0 control=33 value=65 time=0
88.453 seconds: control_change channel=0 control=33 value=65 time=0
88.453 seconds: control_change channel=0 control=33 value=65 time=0
88.453 seconds: control_change channel=0 control=33 value=65 time=0
88.459 seconds: control_change channel=0 control=33 value=65 time=0
88.459 seconds: control_change channel=0 control=33 value=65 time=0
88.459 seconds: control_change channel=0 control=33 value=65 time=0
88.459 seconds: control_change channel=0 control=33 value=65 time=0
88.465 seconds: control_change channel=0 control=33 value=65 time=0
88.465 seconds: control_change channel=0 control=33 value=65 time=0
88.465 seconds: control_change channel=0 control=33 value=65 time=0
88.465 seconds: control_change channel=0 control=33 value=65 time=0
88.471 seconds: control_change channel=0 control=33 value=65 time=0
88.471 seconds: control_change channel=0 control=33 value=65 time=0
88.471 seconds: control_change channel=0 control=33 value=65 time=0
88.477 seconds: control_change channel=0 control=33 value=65 time=0
88.477 seconds: control_change channel=0 control=33 value=65 time=0
88.477 seconds: control_change channel=0 control=33 value=65 time=0
88.477 seconds: control_change channel=0 control=33 value=65 time=0
88.484 seconds: control_change channel=0 control=33 value=65 time=0
88.484 seconds: control_change channel=0 control=33 value=65 time=0
88.484 seconds: control_change channel=0 control=33 value=65 time=0
88.490 seconds: control_change channel=0 control=33 value=65 time=0
88.490 seconds: control_change channel=0 control=33 value=65 time=0
88.490 seconds: control_change channel=0 control=33 value=65 time=0
88.496 seconds: control_change channel=0 control=33 value=65 time=0
88.496 seconds: control_change channel=0 control=33 value=65 time=0
88.502 seconds: control_change channel=0 control=33 value=65 time=0
88.502 seconds: control_change channel=0 control=33 value=65 time=0
88.502 seconds: control_change channel=0 control=33 value=65 time=0
88.510 seconds: control_change channel=0 control=33 value=65 time=0
88.510 seconds: control_change channel=0 control=33 value=65 time=0
88.516 seconds: control_change channel=0 control=33 value=65 time=0
88.516 seconds: control_change channel=0 control=33 value=65 time=0
88.525 seconds: control_change channel=0 control=33 value=65 time=0
88.525 seconds: control_change channel=0 control=33 value=65 time=0
88.531 seconds: control_change channel=0 control=33 value=65 time=0
88.531 seconds: control_change channel=0 control=33 value=65 time=0
88.541 seconds: control_change channel=0 control=33 value=65 time=0
88.547 seconds: control_change channel=0 control=33 value=65 time=0
88.547 seconds: control_change channel=0 control=33 value=65 time=0
88.559 seconds: control_change channel=0 control=33 value=65 time=0
88.573 seconds: control_change channel=0 control=33 value=65 time=0
88.585 seconds: control_change channel=0 control=33 value=65 time=0
88.601 seconds: control_change channel=0 control=33 value=65 time=0
88.910 seconds: control_change channel=0 control=35 value=65 time=0
88.917 seconds: control_change channel=0 control=35 value=65 time=0
88.917 seconds: control_change channel=0 control=35 value=65 time=0
88.924 seconds: control_change channel=0 control=35 value=65 time=0
88.924 seconds: control_change channel=0 control=35 value=65 time=0
88.924 seconds: control_change channel=0 control=35 value=65 time=0
88.931 seconds: control_change channel=0 control=35 value=65 time=0
88.931 seconds: control_change channel=0 control=35 value=65 time=0
88.931 seconds: control_change channel=0 control=35 value=65 time=0
88.931 seconds: control_change channel=0 control=35 value=65 time=0
88.938 seconds: control_change channel=0 control=35 value=65 time=0
88.938 seconds: control_change channel=0 control=35 value=65 time=0
88.938 seconds: control_change channel=0 control=35 value=65 time=0
88.949 seconds: control_change channel=0 control=35 value=65 time=0
88.950 seconds: control_change channel=0 control=35 value=65 time=0
88.950 seconds: control_change channel=0 control=35 value=65 time=0
88.950 seconds: control_change channel=0 control=35 value=65 time=0
88.950 seconds: control_change channel=0 control=35 value=65 time=0
88.950 seconds: control_change channel=0 control=35 value=65 time=0
88.950 seconds: control_change channel=0 control=35 value=65 time=0
88.950 seconds: control_change channel=0 control=35 value=65 time=0
88.950 seconds: control_change channel=0 control=35 value=65 time=0
88.950 seconds: control_change channel=0 control=35 value=65 time=0
88.950 seconds: control_change channel=0 control=35 value=65 time=0
88.950 seconds: control_change channel=0 control=35 value=65 time=0
88.956 seconds: control_change channel=0 control=35 value=65 time=0
88.956 seconds: control_change channel=0 control=35 value=65 time=0
88.956 seconds: control_change channel=0 control=35 value=65 time=0
88.956 seconds: control_change channel=0 control=35 value=65 time=0
88.956 seconds: control_change channel=0 control=35 value=65 time=0
88.956 seconds: control_change channel=0 control=35 value=65 time=0
88.962 seconds: control_change channel=0 control=35 value=65 time=0
88.962 seconds: control_change channel=0 control=35 value=65 time=0
88.962 seconds: control_change channel=0 control=35 value=65 time=0
88.962 seconds: control_change channel=0 control=35 value=65 time=0
88.962 seconds: control_change channel=0 control=35 value=65 time=0
88.962 seconds: control_change channel=0 control=35 value=65 time=0
88.968 seconds: control_change channel=0 control=35 value=65 time=0
88.968 seconds: control_change channel=0 control=35 value=65 time=0
88.968 seconds: control_change channel=0 control=35 value=65 time=0
88.968 seconds: control_change channel=0 control=35 value=65 time=0
88.968 seconds: control_change channel=0 control=35 value=65 time=0
88.968 seconds: control_change channel=0 control=35 value=65 time=0
88.974 seconds: control_change channel=0 control=35 value=66 time=0
88.974 seconds: control_change channel=0 control=35 value=65 time=0
88.974 seconds: control_change channel=0 control=35 value=66 time=0
88.974 seconds: control_change channel=0 control=35 value=65 time=0
88.974 seconds: control_change channel=0 control=35 value=65 time=0
88.980 seconds: control_change channel=0 control=35 value=65 time=0
88.980 seconds: control_change channel=0 control=35 value=66 time=0
88.980 seconds: control_change channel=0 control=35 value=66 time=0
88.980 seconds: control_change channel=0 control=35 value=65 time=0
88.980 seconds: control_change channel=0 control=35 value=65 time=0
88.986 seconds: control_change channel=0 control=35 value=65 time=0
88.986 seconds: control_change channel=0 control=35 value=66 time=0
88.986 seconds: control_change channel=0 control=35 value=65 time=0
88.986 seconds: control_change channel=0 control=35 value=65 time=0
88.986 seconds: control_change channel=0 control=35 value=65 time=0
88.986 seconds: control_change channel=0 control=35 value=66 time=0
88.992 seconds: control_change channel=0 control=35 value=65 time=0
88.992 seconds: control_change channel=0 control=35 value=65 time=0
88.992 seconds: control_change channel=0 control=35 value=65 time=0
88.992 seconds: control_change channel=0 control=35 value=65 time=0
88.992 seconds: control_change channel=0 control=35 value=66 time=0
88.992 seconds: control_change channel=0 control=35 value=65 time=0
88.998 seconds: control_change channel=0 control=35 value=65 time=0
88.998 seconds: control_change channel=0 control=35 value=66 time=0
88.998 seconds: control_change channel=0 control=35 value=65 time=0
88.998 seconds: control_change channel=0 control=35 value=65 time=0
88.998 seconds: control_change channel=0 control=35 value=65 time=0
88.998 seconds: control_change channel=0 control=35 value=66 time=0
89.004 seconds: control_change channel=0 control=35 value=65 time=0
89.004 seconds: control_change channel=0 control=35 value=65 time=0
89.004 seconds: control_change channel=0 control=35 value=66 time=0
89.004 seconds: control_change channel=0 control=35 value=65 time=0
89.004 seconds: control_change channel=0 control=35 value=65 time=0
89.004 seconds: control_change channel=0 control=35 value=66 time=0
89.010 seconds: control_change channel=0 control=35 value=65 time=0
89.010 seconds: control_change channel=0 control=35 value=66 time=0
89.010 seconds: control_change channel=0 control=35 value=65 time=0
89.010 seconds: control_change channel=0 control=35 value=65 time=0
89.010 seconds: control_change channel=0 control=35 value=66 time=0
89.010 seconds: control_change channel=0 control=35 value=65 time=0
89.021 seconds: control_change channel=0 control=35 value=65 time=0
89.021 seconds: control_change channel=0 control=35 value=66 time=0
89.021 seconds: control_change channel=0 control=35 value=65 time=0
89.021 seconds: control_change channel=0 control=35 value=65 time=0
89.021 seconds: control_change channel=0 control=35 value=66 time=0
89.021 seconds: control_change channel=0 control=35 value=65 time=0
89.021 seconds: control_change channel=0 control=35 value=66 time=0
89.021 seconds: control_change channel=0 control=35 value=65 time=0
89.021 seconds: control_change channel=0 control=35 value=66 time=0
89.021 seconds: control_change channel=0 control=35 value=65 time=0
89.021 seconds: control_change channel=0 control=35 value=65 time=0
89.027 seconds: control_change channel=0 control=35 value=66 time=0
89.027 seconds: control_change channel=0 control=35 value=65 time=0
89.027 seconds: control_change channel=0 control=35 value=65 time=0
89.027 seconds: control_change channel=0 control=35 value=66 time=0
89.027 seconds: control_change channel=0 control=35 value=65 time=0
89.027 seconds: control_change channel=0 control=35 value=65 time=0
89.033 seconds: control_change channel=0 control=35 value=66 time=0
89.033 seconds: control_change channel=0 control=35 value=65 time=0
89.033 seconds: control_change channel=0 control=35 value=65 time=0
89.033 seconds: control_change channel=0 control=35 value=66 time=0
89.033 seconds: control_change channel=0 control=35 value=65 time=0
89.033 seconds: control_change channel=0 control=35 value=65 time=0
89.039 seconds: control_change channel=0 control=35 value=66 time=0
89.039 seconds: control_change channel=0 control=35 value=65 time=0
89.039 seconds: control_change channel=0 control=35 value=65 time=0
89.039 seconds: control_change channel=0 control=35 value=66 time=0
89.039 seconds: control_change channel=0 control=35 value=65 time=0
89.039 seconds: control_change channel=0 control=35 value=65 time=0
89.045 seconds: control_change channel=0 control=35 value=65 time=0
89.045 seconds: control_change channel=0 control=35 value=66 time=0
89.045 seconds: control_change channel=0 control=35 value=65 time=0
89.045 seconds: control_change channel=0 control=35 value=65 time=0
89.045 seconds: control_change channel=0 control=35 value=65 time=0
89.045 seconds: control_change channel=0 control=35 value=65 time=0
89.051 seconds: control_change channel=0 control=35 value=66 time=0
89.051 seconds: control_change channel=0 control=35 value=65 time=0
89.051 seconds: control_change channel=0 control=35 value=65 time=0
89.051 seconds: control_change channel=0 control=35 value=66 time=0
89.051 seconds: control_change channel=0 control=35 value=65 time=0
89.051 seconds: control_change channel=0 control=35 value=65 time=0
89.057 seconds: control_change channel=0 control=35 value=65 time=0
89.057 seconds: control_change channel=0 control=35 value=65 time=0
89.057 seconds: control_change channel=0 control=35 value=65 time=0
89.057 seconds: control_change channel=0 control=35 value=66 time=0
89.057 seconds: control_change channel=0 control=35 value=65 time=0
89.057 seconds: control_change channel=0 control=35 value=65 time=0
89.063 seconds: control_change channel=0 control=35 value=65 time=0
89.063 seconds: control_change channel=0 control=35 value=65 time=0
89.063 seconds: control_change channel=0 control=35 value=65 time=0
89.063 seconds: control_change channel=0 control=35 value=65 time=0
89.063 seconds: control_change channel=0 control=35 value=65 time=0
89.063 seconds: control_change channel=0 control=35 value=66 time=0
89.069 seconds: control_change channel=0 control=35 value=65 time=0
89.069 seconds: control_change channel=0 control=35 value=65 time=0
89.069 seconds: control_change channel=0 control=35 value=65 time=0
89.069 seconds: control_change channel=0 control=35 value=65 time=0
89.069 seconds: control_change channel=0 control=35 value=65 time=0
89.069 seconds: control_change channel=0 control=35 value=65 time=0
89.075 seconds: control_change channel=0 control=35 value=65 time=0
89.075 seconds: control_change channel=0 control=35 value=65 time=0
89.075 seconds: control_change channel=0 control=35 value=65 time=0
89.075 seconds: control_change channel=0 control=35 value=65 time=0
89.075 seconds: control_change channel=0 control=35 value=65 time=0
89.075 seconds: control_change channel=0 control=35 value=65 time=0
89.081 seconds: control_change channel=0 control=35 value=65 time=0
89.081 seconds: control_change channel=0 control=35 value=65 time=0
89.081 seconds: control_change channel=0 control=35 value=65 time=0
89.081 seconds: control_change channel=0 control=35 value=65 time=0
89.081 seconds: control_change channel=0 control=35 value=65 time=0
89.087 seconds: control_change channel=0 control=35 value=65 time=0
89.087 seconds: control_change channel=0 control=35 value=65 time=0
89.087 seconds: control_change channel=0 control=35 value=65 time=0
89.087 seconds: control_change channel=0 control=35 value=65 time=0
89.087 seconds: control_change channel=0 control=35 value=65 time=0
89.087 seconds: control_change channel=0 control=35 value=65 time=0
89.093 seconds: control_change channel=0 control=35 value=65 time=0
89.093 seconds: control_change channel=0 control=35 value=65 time=0
89.093 seconds: control_change channel=0 control=35 value=65 time=0
89.093 seconds: control_change channel=0 control=35 value=65 time=0
89.093 seconds: control_change channel=0 control=35 value=65 time=0
89.099 seconds: control_change channel=0 control=35 value=65 time=0
89.099 seconds: control_change channel=0 control=35 value=65 time=0
89.099 seconds: control_change channel=0 control=35 value=65 time=0
89.099 seconds: control_change channel=0 control=35 value=65 time=0
89.115 seconds: control_change channel=0 control=35 value=65 time=0
89.115 seconds: control_change channel=0 control=35 value=65 time=0
89.115 seconds: control_change channel=0 control=35 value=65 time=0
89.115 seconds: control_change channel=0 control=35 value=65 time=0
89.115 seconds: control_change channel=0 control=35 value=65 time=0
89.115 seconds: control_change channel=0 control=35 value=65 time=0
89.115 seconds: control_change channel=0 control=35 value=65 time=0
89.115 seconds: control_change channel=0 control=35 value=65 time=0
89.115 seconds: control_change channel=0 control=35 value=65 time=0
89.115 seconds: control_change channel=0 control=35 value=65 time=0
89.115 seconds: control_change channel=0 control=35 value=65 time=0
89.122 seconds: control_change channel=0 control=35 value=65 time=0
89.122 seconds: control_change channel=0 control=35 value=65 time=0
89.122 seconds: control_change channel=0 control=35 value=65 time=0
89.122 seconds: control_change channel=0 control=35 value=65 time=0
89.129 seconds: control_change channel=0 control=35 value=65 time=0
89.129 seconds: control_change channel=0 control=35 value=65 time=0
89.130 seconds: control_change channel=0 control=35 value=65 time=0
89.130 seconds: control_change channel=0 control=35 value=65 time=0
89.136 seconds: control_change channel=0 control=35 value=65 time=0
89.136 seconds: control_change channel=0 control=35 value=65 time=0
89.136 seconds: control_change channel=0 control=35 value=65 time=0
89.142 seconds: control_change channel=0 control=35 value=65 time=0
89.142 seconds: control_change channel=0 control=35 value=65 time=0
89.142 seconds: control_change channel=0 control=35 value=65 time=0
89.142 seconds: control_change channel=0 control=35 value=65 time=0
89.150 seconds: control_change channel=0 control=35 value=65 time=0
89.150 seconds: control_change channel=0 control=35 value=65 time=0
89.150 seconds: control_change channel=0 control=35 value=65 time=0
89.150 seconds: control_change channel=0 control=35 value=65 time=0
89.157 seconds: control_change channel=0 control=35 value=65 time=0
89.157 seconds: control_change channel=0 control=35 value=65 time=0
89.157 seconds: control_change channel=0 control=35 value=65 time=0
89.163 seconds: control_change channel=0 control=35 value=65 time=0
89.163 seconds: control_change channel=0 control=35 value=65 time=0
89.163 seconds: control_change channel=0 control=35 value=65 time=0
89.169 seconds: control_change channel=0 control=35 value=65 time=0
89.169 seconds: control_change channel=0 control=35 value=65 time=0
89.169 seconds: control_change channel=0 control=35 value=65 time=0
89.176 seconds: control_change channel=0 control=35 value=65 time=0
89.176 seconds: control_change channel=0 control=35 value=65 time=0
89.176 seconds: control_change channel=0 control=35 value=65 time=0
89.184 seconds: control_change channel=0 control=35 value=65 time=0
89.184 seconds: control_change channel=0 control=35 value=65 time=0
89.184 seconds: control_change channel=0 control=35 value=65 time=0
89.191 seconds: control_change channel=0 control=35 value=65 time=0
89.191 seconds: control_change channel=0 control=35 value=65 time=0
89.197 seconds: control_change channel=0 control=35 value=65 time=0
89.197 seconds: control_change channel=0 control=35 value=65 time=0
89.205 seconds: control_change channel=0 control=35 value=65 time=0
89.205 seconds: control_change channel=0 control=35 value=65 time=0
89.214 seconds: control_change channel=0 control=35 value=65 time=0
89.228 seconds: control_change channel=0 control=35 value=65 time=0
89.229 seconds: control_change channel=0 control=35 value=65 time=0
89.253 seconds: control_change channel=0 control=35 value=65 time=0
89.282 seconds: control_change channel=0 control=35 value=65 time=0
89.306 seconds: control_change channel=0 control=35 value=65 time=0
89.348 seconds: control_change channel=0 control=35 value=65 time=0
89.368 seconds: control_change channel=0 control=35 value=63 time=0
89.390 seconds: control_change channel=0 control=35 value=63 time=0
89.399 seconds: control_change channel=0 control=35 value=63 time=0
89.399 seconds: control_change channel=0 control=35 value=63 time=0
89.415 seconds: control_change channel=0 control=35 value=63 time=0
89.415 seconds: control_change channel=0 control=35 value=63 time=0
89.415 seconds: control_change channel=0 control=35 value=63 time=0
89.423 seconds: control_change channel=0 control=35 value=63 time=0
89.423 seconds: control_change channel=0 control=35 value=63 time=0
89.433 seconds: control_change channel=0 control=35 value=63 time=0
89.433 seconds: control_change channel=0 control=35 value=63 time=0
89.440 seconds: control_change channel=0 control=35 value=63 time=0
89.440 seconds: control_change channel=0 control=35 value=63 time=0
89.448 seconds: control_change channel=0 control=35 value=63 time=0
89.448 seconds: control_change channel=0 control=35 value=63 time=0
89.454 seconds: control_change channel=0 control=35 value=63 time=0
89.454 seconds: control_change channel=0 control=35 value=63 time=0
89.463 seconds: control_change channel=0 control=35 value=63 time=0
89.463 seconds: control_change channel=0 control=35 value=63 time=0
89.470 seconds: control_change channel=0 control=35 value=63 time=0
89.470 seconds: control_change channel=0 control=35 value=63 time=0
89.478 seconds: control_change channel=0 control=35 value=63 time=0
89.478 seconds: control_change channel=0 control=35 value=63 time=0
89.485 seconds: control_change channel=0 control=35 value=63 time=0
89.485 seconds: control_change channel=0 control=35 value=63 time=0
89.496 seconds: control_change channel=0 control=35 value=63 time=0
89.502 seconds: control_change channel=0 control=35 value=63 time=0
89.502 seconds: control_change channel=0 control=35 value=63 time=0
89.511 seconds: control_change channel=0 control=35 value=63 time=0
89.517 seconds: control_change channel=0 control=35 value=63 time=0
89.523 seconds: control_change channel=0 control=35 value=63 time=0
89.523 seconds: control_change channel=0 control=35 value=63 time=0
89.535 seconds: control_change channel=0 control=35 value=63 time=0
89.543 seconds: control_change channel=0 control=35 value=63 time=0
89.550 seconds: control_change channel=0 control=35 value=63 time=0
89.550 seconds: control_change channel=0 control=35 value=63 time=0
89.562 seconds: control_change channel=0 control=35 value=63 time=0
89.562 seconds: control_change channel=0 control=35 value=63 time=0
89.573 seconds: control_change channel=0 control=35 value=63 time=0
89.573 seconds: control_change channel=0 control=35 value=63 time=0
89.582 seconds: control_change channel=0 control=35 value=63 time=0
89.588 seconds: control_change channel=0 control=35 value=63 time=0
89.588 seconds: control_change channel=0 control=35 value=63 time=0
89.596 seconds: control_change channel=0 control=35 value=63 time=0
89.596 seconds: control_change channel=0 control=35 value=63 time=0
89.607 seconds: control_change channel=0 control=35 value=63 time=0
89.613 seconds: control_change channel=0 control=35 value=63 time=0
89.613 seconds: control_change channel=0 control=35 value=63 time=0
89.626 seconds: control_change channel=0 control=33 value=63 time=0
89.641 seconds: control_change channel=0 control=33 value=63 time=0
89.660 seconds: control_change channel=0 control=33 value=63 time=0
90.239 seconds: control_change channel=0 control=35 value=65 time=0
90.281 seconds: control_change channel=0 control=35 value=65 time=0
90.363 seconds: control_change channel=0 control=35 value=65 time=0
90.396 seconds: control_change channel=0 control=35 value=65 time=0
90.411 seconds: control_change channel=0 control=35 value=65 time=0
90.427 seconds: control_change channel=0 control=35 value=65 time=0
90.487 seconds: control_change channel=0 control=35 value=63 time=0
90.566 seconds: control_change channel=0 control=35 value=65 time=0
91.114 seconds: control_change channel=0 control=35 value=65 time=0
91.114 seconds: control_change channel=0 control=35 value=65 time=0
91.115 seconds: control_change channel=0 control=35 value=65 time=0
91.121 seconds: control_change channel=0 control=35 value=65 time=0
91.121 seconds: control_change channel=0 control=35 value=65 time=0
91.127 seconds: control_change channel=0 control=35 value=65 time=0
91.127 seconds: control_change channel=0 control=35 value=65 time=0
91.127 seconds: control_change channel=0 control=35 value=65 time=0
91.134 seconds: control_change channel=0 control=35 value=65 time=0
91.134 seconds: control_change channel=0 control=35 value=65 time=0
91.141 seconds: control_change channel=0 control=35 value=65 time=0
91.141 seconds: control_change channel=0 control=35 value=65 time=0
91.154 seconds: control_change channel=0 control=35 value=65 time=0
91.168 seconds: control_change channel=0 control=35 value=65 time=0
91.206 seconds: control_change channel=0 control=35 value=63 time=0
91.227 seconds: control_change channel=0 control=35 value=63 time=0
91.244 seconds: control_change channel=0 control=35 value=63 time=0
91.261 seconds: control_change channel=0 control=35 value=63 time=0
91.306 seconds: control_change channel=0 control=35 value=65 time=0
91.332 seconds: control_change channel=0 control=35 value=65 time=0
91.355 seconds: control_change channel=0 control=35 value=65 time=0
91.397 seconds: control_change channel=0 control=35 value=65 time=0
91.800 seconds: control_change channel=0 control=33 value=63 time=0
91.808 seconds: control_change channel=0 control=33 value=63 time=0
91.814 seconds: control_change channel=0 control=33 value=63 time=0
91.814 seconds: control_change channel=0 control=33 value=63 time=0
91.824 seconds: control_change channel=0 control=33 value=63 time=0
91.824 seconds: control_change channel=0 control=33 value=63 time=0
91.836 seconds: control_change channel=0 control=33 value=63 time=0
91.843 seconds: control_change channel=0 control=33 value=63 time=0
91.843 seconds: control_change channel=0 control=33 value=63 time=0
91.856 seconds: control_change channel=0 control=33 value=63 time=0
91.867 seconds: control_change channel=0 control=33 value=63 time=0
91.876 seconds: control_change channel=0 control=33 value=63 time=0
91.883 seconds: control_change channel=0 control=33 value=63 time=0
91.894 seconds: control_change channel=0 control=33 value=63 time=0
91.905 seconds: control_change channel=0 control=33 value=63 time=0
91.917 seconds: control_change channel=0 control=33 value=63 time=0
91.925 seconds: control_change channel=0 control=33 value=63 time=0
91.935 seconds: control_change channel=0 control=33 value=63 time=0
91.947 seconds: control_change channel=0 control=33 value=63 time=0
91.956 seconds: control_change channel=0 control=33 value=63 time=0
91.962 seconds: control_change channel=0 control=33 value=63 time=0
91.970 seconds: control_change channel=0 control=33 value=63 time=0
91.978 seconds: control_change channel=0 control=33 value=63 time=0
91.984 seconds: control_change channel=0 control=33 value=63 time=0
91.984 seconds: control_change channel=0 control=33 value=63 time=0
91.997 seconds: control_change channel=0 control=33 value=63 time=0
92.005 seconds: control_change channel=0 control=33 value=63 time=0
92.012 seconds: control_change channel=0 control=33 value=63 time=0
92.018 seconds: control_change channel=0 control=33 value=63 time=0
92.027 seconds: control_change channel=0 control=33 value=63 time=0
92.036 seconds: control_change channel=0 control=33 value=63 time=0
92.046 seconds: control_change channel=0 control=33 value=63 time=0
92.054 seconds: control_change channel=0 control=33 value=63 time=0
92.069 seconds: control_change channel=0 control=33 value=63 time=0
92.092 seconds: control_change channel=0 control=33 value=63 time=0
92.155 seconds: control_change channel=0 control=33 value=65 time=0
92.172 seconds: control_change channel=0 control=33 value=65 time=0
92.182 seconds: control_change channel=0 control=33 value=65 time=0
92.188 seconds: control_change channel=0 control=33 value=65 time=0
92.195 seconds: control_change channel=0 control=33 value=65 time=0
92.201 seconds: control_change channel=0 control=33 value=65 time=0
92.207 seconds: control_change channel=0 control=33 value=65 time=0
92.207 seconds: control_change channel=0 control=33 value=65 time=0
92.216 seconds: control_change channel=0 control=33 value=65 time=0
92.222 seconds: control_change channel=0 control=33 value=65 time=0
92.222 seconds: control_change channel=0 control=33 value=65 time=0
92.229 seconds: control_change channel=0 control=33 value=65 time=0
92.229 seconds: control_change channel=0 control=33 value=65 time=0
92.237 seconds: control_change channel=0 control=33 value=65 time=0
92.237 seconds: control_change channel=0 control=33 value=65 time=0
92.244 seconds: control_change channel=0 control=33 value=65 time=0
92.244 seconds: control_change channel=0 control=33 value=65 time=0
92.252 seconds: control_change channel=0 control=33 value=65 time=0
92.252 seconds: control_change channel=0 control=33 value=65 time=0
92.252 seconds: control_change channel=0 control=33 value=65 time=0
92.260 seconds: control_change channel=0 control=33 value=65 time=0
92.260 seconds: control_change channel=0 control=33 value=65 time=0
92.267 seconds: control_change channel=0 control=33 value=65 time=0
92.267 seconds: control_change channel=0 control=33 value=65 time=0
92.267 seconds: control_change channel=0 control=33 value=65 time=0
92.275 seconds: control_change channel=0 control=33 value=65 time=0
92.275 seconds: control_change channel=0 control=33 value=65 time=0
92.275 seconds: control_change channel=0 control=33 value=65 time=0
92.283 seconds: control_change channel=0 control=33 value=65 time=0
92.283 seconds: control_change channel=0 control=33 value=65 time=0
92.283 seconds: control_change channel=0 control=33 value=65 time=0
92.291 seconds: control_change channel=0 control=33 value=65 time=0
92.291 seconds: control_change channel=0 control=33 value=65 time=0
92.297 seconds: control_change channel=0 control=33 value=65 time=0
92.297 seconds: control_change channel=0 control=33 value=65 time=0
92.297 seconds: control_change channel=0 control=33 value=65 time=0
92.305 seconds: control_change channel=0 control=33 value=65 time=0
92.305 seconds: control_change channel=0 control=33 value=65 time=0
92.312 seconds: control_change channel=0 control=33 value=65 time=0
92.312 seconds: control_change channel=0 control=33 value=65 time=0
92.318 seconds: control_change channel=0 control=33 value=65 time=0
92.318 seconds: control_change channel=0 control=33 value=65 time=0
92.325 seconds: control_change channel=0 control=33 value=65 time=0
92.325 seconds: control_change channel=0 control=33 value=65 time=0
92.332 seconds: control_change channel=0 control=33 value=65 time=0
92.332 seconds: control_change channel=0 control=33 value=65 time=0
92.340 seconds: control_change channel=0 control=33 value=65 time=0
92.340 seconds: control_change channel=0 control=33 value=65 time=0
92.348 seconds: control_change channel=0 control=33 value=65 time=0
92.355 seconds: control_change channel=0 control=33 value=65 time=0
92.362 seconds: control_change channel=0 control=33 value=65 time=0
92.369 seconds: control_change channel=0 control=33 value=65 time=0
92.404 seconds: control_change channel=0 control=33 value=63 time=0
92.410 seconds: control_change channel=0 control=33 value=63 time=0
92.416 seconds: control_change channel=0 control=33 value=63 time=0
92.422 seconds: control_change channel=0 control=33 value=63 time=0
92.422 seconds: control_change channel=0 control=33 value=63 time=0
92.429 seconds: control_change channel=0 control=33 value=63 time=0
92.429 seconds: control_change channel=0 control=33 value=63 time=0
92.436 seconds: control_change channel=0 control=33 value=63 time=0
92.436 seconds: control_change channel=0 control=33 value=63 time=0
92.442 seconds: control_change channel=0 control=33 value=63 time=0
92.442 seconds: control_change channel=0 control=33 value=63 time=0
92.448 seconds: control_change channel=0 control=33 value=63 time=0
92.448 seconds: control_change channel=0 control=33 value=63 time=0
92.448 seconds: control_change channel=0 control=33 value=63 time=0
92.456 seconds: control_change channel=0 control=33 value=63 time=0
92.456 seconds: control_change channel=0 control=33 value=63 time=0
92.456 seconds: control_change channel=0 control=33 value=63 time=0
92.463 seconds: control_change channel=0 control=33 value=63 time=0
92.463 seconds: control_change channel=0 control=33 value=63 time=0
92.463 seconds: control_change channel=0 control=33 value=63 time=0
92.470 seconds: control_change channel=0 control=33 value=63 time=0
92.470 seconds: control_change channel=0 control=33 value=63 time=0
92.470 seconds: control_change channel=0 control=33 value=63 time=0
92.476 seconds: control_change channel=0 control=33 value=63 time=0
92.476 seconds: control_change channel=0 control=33 value=63 time=0
92.476 seconds: control_change channel=0 control=33 value=63 time=0
92.482 seconds: control_change channel=0 control=33 value=63 time=0
92.482 seconds: control_change channel=0 control=33 value=63 time=0
92.482 seconds: control_change channel=0 control=33 value=63 time=0
92.488 seconds: control_change channel=0 control=33 value=63 time=0
92.488 seconds: control_change channel=0 control=33 value=63 time=0
92.488 seconds: control_change channel=0 control=33 value=63 time=0
92.494 seconds: control_change channel=0 control=33 value=63 time=0
92.494 seconds: control_change channel=0 control=33 value=63 time=0
92.494 seconds: control_change channel=0 control=33 value=63 time=0
92.500 seconds: control_change channel=0 control=33 value=63 time=0
92.500 seconds: control_change channel=0 control=33 value=63 time=0
92.500 seconds: control_change channel=0 control=33 value=63 time=0
92.506 seconds: control_change channel=0 control=33 value=63 time=0
92.506 seconds: control_change channel=0 control=33 value=63 time=0
92.506 seconds: control_change channel=0 control=33 value=63 time=0
92.506 seconds: control_change channel=0 control=33 value=63 time=0
92.514 seconds: control_change channel=0 control=33 value=63 time=0
92.514 seconds: control_change channel=0 control=33 value=63 time=0
92.514 seconds: control_change channel=0 control=33 value=63 time=0
92.520 seconds: control_change channel=0 control=33 value=63 time=0
92.520 seconds: control_change channel=0 control=33 value=63 time=0
92.520 seconds: control_change channel=0 control=33 value=63 time=0
92.526 seconds: control_change channel=0 control=33 value=63 time=0
92.526 seconds: control_change channel=0 control=33 value=63 time=0
92.526 seconds: control_change channel=0 control=33 value=63 time=0
92.532 seconds: control_change channel=0 control=33 value=63 time=0
92.532 seconds: control_change channel=0 control=33 value=63 time=0
92.532 seconds: control_change channel=0 control=33 value=63 time=0
92.532 seconds: control_change channel=0 control=33 value=63 time=0
92.540 seconds: control_change channel=0 control=33 value=63 time=0
92.540 seconds: control_change channel=0 control=33 value=63 time=0
92.540 seconds: control_change channel=0 control=33 value=63 time=0
92.540 seconds: control_change channel=0 control=33 value=63 time=0
92.548 seconds: control_change channel=0 control=33 value=63 time=0
92.548 seconds: control_change channel=0 control=33 value=63 time=0
92.548 seconds: control_change channel=0 control=33 value=63 time=0
92.554 seconds: control_change channel=0 control=33 value=63 time=0
92.554 seconds: control_change channel=0 control=33 value=63 time=0
92.554 seconds: control_change channel=0 control=33 value=63 time=0
92.561 seconds: control_change channel=0 control=33 value=63 time=0
92.561 seconds: control_change channel=0 control=33 value=63 time=0
92.567 seconds: control_change channel=0 control=33 value=63 time=0
92.567 seconds: control_change channel=0 control=33 value=63 time=0
92.567 seconds: control_change channel=0 control=33 value=63 time=0
92.573 seconds: control_change channel=0 control=33 value=63 time=0
92.573 seconds: control_change channel=0 control=33 value=63 time=0
92.579 seconds: control_change channel=0 control=33 value=63 time=0
92.579 seconds: control_change channel=0 control=33 value=63 time=0
92.579 seconds: control_change channel=0 control=33 value=63 time=0
92.589 seconds: control_change channel=0 control=33 value=63 time=0
92.589 seconds: control_change channel=0 control=33 value=63 time=0
92.595 seconds: control_change channel=0 control=33 value=63 time=0
92.595 seconds: control_change channel=0 control=33 value=63 time=0
92.606 seconds: control_change channel=0 control=33 value=63 time=0
92.616 seconds: control_change channel=0 control=33 value=63 time=0
92.627 seconds: control_change channel=0 control=33 value=65 time=0
92.637 seconds: control_change channel=0 control=33 value=65 time=0
92.637 seconds: control_change channel=0 control=33 value=65 time=0
92.647 seconds: control_change channel=0 control=33 value=65 time=0
92.647 seconds: control_change channel=0 control=33 value=65 time=0
92.653 seconds: control_change channel=0 control=33 value=65 time=0
92.653 seconds: control_change channel=0 control=33 value=65 time=0
92.660 seconds: control_change channel=0 control=33 value=65 time=0
92.660 seconds: control_change channel=0 control=33 value=65 time=0
92.660 seconds: control_change channel=0 control=33 value=65 time=0
92.667 seconds: control_change channel=0 control=33 value=65 time=0
92.667 seconds: control_change channel=0 control=33 value=65 time=0
92.667 seconds: control_change channel=0 control=33 value=65 time=0
92.673 seconds: control_change channel=0 control=33 value=65 time=0
92.673 seconds: control_change channel=0 control=33 value=65 time=0
92.673 seconds: control_change channel=0 control=33 value=65 time=0
92.679 seconds: control_change channel=0 control=33 value=65 time=0
92.679 seconds: control_change channel=0 control=33 value=65 time=0
92.679 seconds: control_change channel=0 control=33 value=65 time=0
92.685 seconds: control_change channel=0 control=33 value=65 time=0
92.685 seconds: control_change channel=0 control=33 value=65 time=0
92.685 seconds: control_change channel=0 control=33 value=65 time=0
92.691 seconds: control_change channel=0 control=33 value=65 time=0
92.691 seconds: control_change channel=0 control=33 value=65 time=0
92.691 seconds: control_change channel=0 control=33 value=65 time=0
92.691 seconds: control_change channel=0 control=33 value=65 time=0
92.697 seconds: control_change channel=0 control=33 value=65 time=0
92.697 seconds: control_change channel=0 control=33 value=65 time=0
92.697 seconds: control_change channel=0 control=33 value=65 time=0
92.697 seconds: control_change channel=0 control=33 value=65 time=0
92.704 seconds: control_change channel=0 control=33 value=65 time=0
92.704 seconds: control_change channel=0 control=33 value=65 time=0
92.704 seconds: control_change channel=0 control=33 value=65 time=0
92.704 seconds: control_change channel=0 control=33 value=65 time=0
92.710 seconds: control_change channel=0 control=33 value=65 time=0
92.710 seconds: control_change channel=0 control=33 value=65 time=0
92.710 seconds: control_change channel=0 control=33 value=65 time=0
92.710 seconds: control_change channel=0 control=33 value=65 time=0
92.717 seconds: control_change channel=0 control=33 value=65 time=0
92.717 seconds: control_change channel=0 control=33 value=65 time=0
92.717 seconds: control_change channel=0 control=33 value=65 time=0
92.717 seconds: control_change channel=0 control=33 value=65 time=0
92.724 seconds: control_change channel=0 control=33 value=65 time=0
92.724 seconds: control_change channel=0 control=33 value=65 time=0
92.724 seconds: control_change channel=0 control=33 value=65 time=0
92.724 seconds: control_change channel=0 control=33 value=65 time=0
92.732 seconds: control_change channel=0 control=33 value=65 time=0
92.732 seconds: control_change channel=0 control=33 value=65 time=0
92.732 seconds: control_change channel=0 control=33 value=65 time=0
92.738 seconds: control_change channel=0 control=33 value=65 time=0
92.738 seconds: control_change channel=0 control=33 value=65 time=0
92.738 seconds: control_change channel=0 control=33 value=65 time=0
92.745 seconds: control_change channel=0 control=33 value=65 time=0
92.745 seconds: control_change channel=0 control=33 value=65 time=0
92.752 seconds: control_change channel=0 control=33 value=65 time=0
92.752 seconds: control_change channel=0 control=33 value=65 time=0
92.752 seconds: control_change channel=0 control=33 value=65 time=0
92.762 seconds: control_change channel=0 control=33 value=65 time=0
92.768 seconds: control_change channel=0 control=33 value=65 time=0
92.783 seconds: control_change channel=0 control=33 value=63 time=0
92.791 seconds: control_change channel=0 control=33 value=63 time=0
92.791 seconds: control_change channel=0 control=33 value=63 time=0
92.799 seconds: control_change channel=0 control=33 value=63 time=0
92.799 seconds: control_change channel=0 control=33 value=63 time=0
92.807 seconds: control_change channel=0 control=33 value=63 time=0
92.807 seconds: control_change channel=0 control=33 value=63 time=0
92.807 seconds: control_change channel=0 control=33 value=63 time=0
92.815 seconds: control_change channel=0 control=33 value=63 time=0
92.815 seconds: control_change channel=0 control=33 value=63 time=0
92.815 seconds: control_change channel=0 control=33 value=63 time=0
92.822 seconds: control_change channel=0 control=33 value=63 time=0
92.822 seconds: control_change channel=0 control=33 value=63 time=0
92.822 seconds: control_change channel=0 control=33 value=63 time=0
92.829 seconds: control_change channel=0 control=33 value=63 time=0
92.829 seconds: control_change channel=0 control=33 value=63 time=0
92.829 seconds: control_change channel=0 control=33 value=63 time=0
92.836 seconds: control_change channel=0 control=33 value=63 time=0
92.836 seconds: control_change channel=0 control=33 value=63 time=0
92.836 seconds: control_change channel=0 control=33 value=63 time=0
92.842 seconds: control_change channel=0 control=33 value=63 time=0
92.842 seconds: control_change channel=0 control=33 value=63 time=0
92.842 seconds: control_change channel=0 control=33 value=63 time=0
92.848 seconds: control_change channel=0 control=33 value=63 time=0
92.848 seconds: control_change channel=0 control=33 value=63 time=0
92.848 seconds: control_change channel=0 control=33 value=63 time=0
92.854 seconds: control_change channel=0 control=33 value=63 time=0
92.854 seconds: control_change channel=0 control=33 value=63 time=0
92.854 seconds: control_change channel=0 control=33 value=63 time=0
92.861 seconds: control_change channel=0 control=33 value=63 time=0
92.861 seconds: control_change channel=0 control=33 value=63 time=0
92.861 seconds: control_change channel=0 control=33 value=63 time=0
92.867 seconds: control_change channel=0 control=33 value=63 time=0
92.867 seconds: control_change channel=0 control=33 value=63 time=0
92.867 seconds: control_change channel=0 control=33 value=63 time=0
92.878 seconds: control_change channel=0 control=33 value=63 time=0
92.878 seconds: control_change channel=0 control=33 value=63 time=0
92.878 seconds: control_change channel=0 control=33 value=63 time=0
92.878 seconds: control_change channel=0 control=33 value=63 time=0
92.878 seconds: control_change channel=0 control=33 value=63 time=0
92.885 seconds: control_change channel=0 control=33 value=63 time=0
92.885 seconds: control_change channel=0 control=33 value=63 time=0
92.885 seconds: control_change channel=0 control=33 value=63 time=0
92.891 seconds: control_change channel=0 control=33 value=63 time=0
92.891 seconds: control_change channel=0 control=33 value=63 time=0
92.897 seconds: control_change channel=0 control=33 value=63 time=0
92.897 seconds: control_change channel=0 control=33 value=63 time=0
92.897 seconds: control_change channel=0 control=33 value=63 time=0
92.904 seconds: control_change channel=0 control=33 value=63 time=0
92.904 seconds: control_change channel=0 control=33 value=63 time=0
92.915 seconds: control_change channel=0 control=33 value=63 time=0
92.915 seconds: control_change channel=0 control=33 value=63 time=0
92.915 seconds: control_change channel=0 control=33 value=63 time=0
92.915 seconds: control_change channel=0 control=33 value=63 time=0
92.922 seconds: control_change channel=0 control=33 value=63 time=0
92.922 seconds: control_change channel=0 control=33 value=63 time=0
92.939 seconds: control_change channel=0 control=33 value=63 time=0
92.939 seconds: control_change channel=0 control=33 value=63 time=0
92.939 seconds: control_change channel=0 control=33 value=63 time=0
92.939 seconds: control_change channel=0 control=33 value=63 time=0
92.947 seconds: control_change channel=0 control=33 value=63 time=0
92.955 seconds: control_change channel=0 control=33 value=63 time=0
92.990 seconds: control_change channel=0 control=33 value=65 time=0
92.999 seconds: control_change channel=0 control=33 value=65 time=0
93.005 seconds: control_change channel=0 control=33 value=65 time=0
93.005 seconds: control_change channel=0 control=33 value=65 time=0
93.012 seconds: control_change channel=0 control=33 value=65 time=0
93.012 seconds: control_change channel=0 control=33 value=65 time=0
93.020 seconds: control_change channel=0 control=33 value=65 time=0
93.020 seconds: control_change channel=0 control=33 value=65 time=0
93.026 seconds: control_change channel=0 control=33 value=65 time=0
93.031 seconds: control_change channel=0 control=33 value=65 time=0
93.031 seconds: control_change channel=0 control=33 value=65 time=0
93.031 seconds: control_change channel=0 control=33 value=65 time=0
93.037 seconds: control_change channel=0 control=33 value=65 time=0
93.037 seconds: control_change channel=0 control=33 value=65 time=0
93.037 seconds: control_change channel=0 control=33 value=65 time=0
93.044 seconds: control_change channel=0 control=33 value=65 time=0
93.044 seconds: control_change channel=0 control=33 value=65 time=0
93.044 seconds: control_change channel=0 control=33 value=65 time=0
93.052 seconds: control_change channel=0 control=33 value=65 time=0
93.052 seconds: control_change channel=0 control=33 value=65 time=0
93.052 seconds: control_change channel=0 control=33 value=65 time=0
93.058 seconds: control_change channel=0 control=33 value=65 time=0
93.058 seconds: control_change channel=0 control=33 value=65 time=0
93.058 seconds: control_change channel=0 control=33 value=65 time=0
93.065 seconds: control_change channel=0 control=33 value=65 time=0
93.065 seconds: control_change channel=0 control=33 value=65 time=0
93.065 seconds: control_change channel=0 control=33 value=65 time=0
93.072 seconds: control_change channel=0 control=33 value=65 time=0
93.072 seconds: control_change channel=0 control=33 value=65 time=0
93.078 seconds: control_change channel=0 control=33 value=65 time=0
93.078 seconds: control_change channel=0 control=33 value=65 time=0
93.078 seconds: control_change channel=0 control=33 value=65 time=0
93.086 seconds: control_change channel=0 control=33 value=65 time=0
93.086 seconds: control_change channel=0 control=33 value=65 time=0
93.094 seconds: control_change channel=0 control=33 value=65 time=0
93.094 seconds: control_change channel=0 control=33 value=65 time=0
93.103 seconds: control_change channel=0 control=33 value=65 time=0
93.110 seconds: control_change channel=0 control=33 value=65 time=0
93.127 seconds: control_change channel=0 control=33 value=63 time=0
93.135 seconds: control_change channel=0 control=33 value=63 time=0
93.141 seconds: control_change channel=0 control=33 value=63 time=0
93.141 seconds: control_change channel=0 control=33 value=63 time=0
93.148 seconds: control_change channel=0 control=33 value=63 time=0
93.148 seconds: control_change channel=0 control=33 value=63 time=0
93.155 seconds: control_change channel=0 control=33 value=63 time=0
93.155 seconds: control_change channel=0 control=33 value=63 time=0
93.155 seconds: control_change channel=0 control=33 value=63 time=0
93.163 seconds: control_change channel=0 control=33 value=63 time=0
93.163 seconds: control_change channel=0 control=33 value=63 time=0
93.163 seconds: control_change channel=0 control=33 value=63 time=0
93.169 seconds: control_change channel=0 control=33 value=63 time=0
93.169 seconds: control_change channel=0 control=33 value=63 time=0
93.175 seconds: control_change channel=0 control=33 value=63 time=0
93.175 seconds: control_change channel=0 control=33 value=63 time=0
93.175 seconds: control_change channel=0 control=33 value=63 time=0
93.181 seconds: control_change channel=0 control=33 value=63 time=0
93.181 seconds: control_change channel=0 control=33 value=63 time=0
93.181 seconds: control_change channel=0 control=33 value=63 time=0
93.187 seconds: control_change channel=0 control=33 value=63 time=0
93.187 seconds: control_change channel=0 control=33 value=63 time=0
93.187 seconds: control_change channel=0 control=33 value=63 time=0
93.193 seconds: control_change channel=0 control=33 value=63 time=0
93.193 seconds: control_change channel=0 control=33 value=63 time=0
93.193 seconds: control_change channel=0 control=33 value=63 time=0
93.200 seconds: control_change channel=0 control=33 value=63 time=0
93.200 seconds: control_change channel=0 control=33 value=63 time=0
93.200 seconds: control_change channel=0 control=33 value=63 time=0
93.206 seconds: control_change channel=0 control=33 value=63 time=0
93.206 seconds: control_change channel=0 control=33 value=63 time=0
93.206 seconds: control_change channel=0 control=33 value=63 time=0
93.213 seconds: control_change channel=0 control=33 value=63 time=0
93.213 seconds: control_change channel=0 control=33 value=63 time=0
93.213 seconds: control_change channel=0 control=33 value=63 time=0
93.219 seconds: control_change channel=0 control=33 value=63 time=0
93.219 seconds: control_change channel=0 control=33 value=63 time=0
93.225 seconds: control_change channel=0 control=33 value=63 time=0
93.225 seconds: control_change channel=0 control=33 value=63 time=0
93.225 seconds: control_change channel=0 control=33 value=63 time=0
93.232 seconds: control_change channel=0 control=33 value=63 time=0
93.232 seconds: control_change channel=0 control=33 value=63 time=0
93.232 seconds: control_change channel=0 control=33 value=63 time=0
93.239 seconds: control_change channel=0 control=33 value=63 time=0
93.239 seconds: control_change channel=0 control=33 value=63 time=0
93.246 seconds: control_change channel=0 control=33 value=63 time=0
93.246 seconds: control_change channel=0 control=33 value=63 time=0
93.252 seconds: control_change channel=0 control=33 value=63 time=0
93.252 seconds: control_change channel=0 control=33 value=63 time=0
93.262 seconds: control_change channel=0 control=33 value=63 time=0
93.262 seconds: control_change channel=0 control=33 value=63 time=0
93.272 seconds: control_change channel=0 control=33 value=63 time=0
93.298 seconds: control_change channel=0 control=33 value=65 time=0
93.298 seconds: control_change channel=0 control=33 value=65 time=0
93.309 seconds: control_change channel=0 control=33 value=65 time=0
93.309 seconds: control_change channel=0 control=33 value=65 time=0
93.318 seconds: control_change channel=0 control=33 value=65 time=0
93.318 seconds: control_change channel=0 control=33 value=65 time=0
93.324 seconds: control_change channel=0 control=33 value=65 time=0
93.324 seconds: control_change channel=0 control=33 value=65 time=0
93.331 seconds: control_change channel=0 control=33 value=65 time=0
93.331 seconds: control_change channel=0 control=33 value=65 time=0
93.331 seconds: control_change channel=0 control=33 value=65 time=0
93.338 seconds: control_change channel=0 control=33 value=65 time=0
93.338 seconds: control_change channel=0 control=33 value=65 time=0
93.338 seconds: control_change channel=0 control=33 value=65 time=0
93.345 seconds: control_change channel=0 control=33 value=65 time=0
93.345 seconds: control_change channel=0 control=33 value=65 time=0
93.345 seconds: control_change channel=0 control=33 value=65 time=0
93.351 seconds: control_change channel=0 control=33 value=65 time=0
93.351 seconds: control_change channel=0 control=33 value=65 time=0
93.351 seconds: control_change channel=0 control=33 value=65 time=0
93.357 seconds: control_change channel=0 control=33 value=65 time=0
93.357 seconds: control_change channel=0 control=33 value=65 time=0
93.357 seconds: control_change channel=0 control=33 value=65 time=0
93.363 seconds: control_change channel=0 control=33 value=65 time=0
93.363 seconds: control_change channel=0 control=33 value=65 time=0
93.363 seconds: control_change channel=0 control=33 value=65 time=0
93.363 seconds: control_change channel=0 control=33 value=65 time=0
93.370 seconds: control_change channel=0 control=33 value=65 time=0
93.370 seconds: control_change channel=0 control=33 value=65 time=0
93.370 seconds: control_change channel=0 control=33 value=65 time=0
93.376 seconds: control_change channel=0 control=33 value=65 time=0
93.376 seconds: control_change channel=0 control=33 value=65 time=0
93.376 seconds: control_change channel=0 control=33 value=65 time=0
93.382 seconds: control_change channel=0 control=33 value=65 time=0
93.382 seconds: control_change channel=0 control=33 value=65 time=0
93.382 seconds: control_change channel=0 control=33 value=65 time=0
93.389 seconds: control_change channel=0 control=33 value=65 time=0
93.389 seconds: control_change channel=0 control=33 value=65 time=0
93.389 seconds: control_change channel=0 control=33 value=65 time=0
93.397 seconds: control_change channel=0 control=33 value=65 time=0
93.397 seconds: control_change channel=0 control=33 value=65 time=0
93.397 seconds: control_change channel=0 control=33 value=65 time=0
93.405 seconds: control_change channel=0 control=33 value=65 time=0
93.405 seconds: control_change channel=0 control=33 value=65 time=0
93.414 seconds: control_change channel=0 control=33 value=65 time=0
93.414 seconds: control_change channel=0 control=33 value=65 time=0
93.442 seconds: control_change channel=0 control=33 value=63 time=0
93.447 seconds: control_change channel=0 control=33 value=63 time=0
93.448 seconds: control_change channel=0 control=33 value=63 time=0
93.457 seconds: control_change channel=0 control=33 value=63 time=0
93.457 seconds: control_change channel=0 control=33 value=63 time=0
93.463 seconds: control_change channel=0 control=33 value=63 time=0
93.463 seconds: control_change channel=0 control=33 value=63 time=0
93.470 seconds: control_change channel=0 control=33 value=63 time=0
93.470 seconds: control_change channel=0 control=33 value=63 time=0
93.470 seconds: control_change channel=0 control=33 value=63 time=0
93.477 seconds: control_change channel=0 control=33 value=63 time=0
93.477 seconds: control_change channel=0 control=33 value=63 time=0
93.483 seconds: control_change channel=0 control=33 value=63 time=0
93.483 seconds: control_change channel=0 control=33 value=63 time=0
93.483 seconds: control_change channel=0 control=33 value=63 time=0
93.490 seconds: control_change channel=0 control=33 value=63 time=0
93.490 seconds: control_change channel=0 control=33 value=63 time=0
93.495 seconds: control_change channel=0 control=33 value=63 time=0
93.495 seconds: control_change channel=0 control=33 value=63 time=0
93.495 seconds: control_change channel=0 control=33 value=63 time=0
93.502 seconds: control_change channel=0 control=33 value=63 time=0
93.502 seconds: control_change channel=0 control=33 value=63 time=0
93.502 seconds: control_change channel=0 control=33 value=63 time=0
93.509 seconds: control_change channel=0 control=33 value=63 time=0
93.509 seconds: control_change channel=0 control=33 value=63 time=0
93.509 seconds: control_change channel=0 control=33 value=63 time=0
93.515 seconds: control_change channel=0 control=33 value=63 time=0
93.515 seconds: control_change channel=0 control=33 value=63 time=0
93.515 seconds: control_change channel=0 control=33 value=63 time=0
93.522 seconds: control_change channel=0 control=33 value=63 time=0
93.522 seconds: control_change channel=0 control=33 value=63 time=0
93.528 seconds: control_change channel=0 control=33 value=63 time=0
93.528 seconds: control_change channel=0 control=33 value=63 time=0
93.528 seconds: control_change channel=0 control=33 value=63 time=0
93.537 seconds: control_change channel=0 control=33 value=63 time=0
93.537 seconds: control_change channel=0 control=33 value=63 time=0
93.545 seconds: control_change channel=0 control=33 value=63 time=0
93.545 seconds: control_change channel=0 control=33 value=63 time=0
93.553 seconds: control_change channel=0 control=33 value=63 time=0
93.566 seconds: control_change channel=0 control=33 value=63 time=0
93.574 seconds: control_change channel=0 control=33 value=65 time=0
93.588 seconds: control_change channel=0 control=33 value=65 time=0
93.588 seconds: control_change channel=0 control=33 value=65 time=0
93.596 seconds: control_change channel=0 control=33 value=65 time=0
93.596 seconds: control_change channel=0 control=33 value=65 time=0
93.603 seconds: control_change channel=0 control=33 value=65 time=0
93.603 seconds: control_change channel=0 control=33 value=65 time=0
93.609 seconds: control_change channel=0 control=33 value=65 time=0
93.609 seconds: control_change channel=0 control=33 value=65 time=0
93.615 seconds: control_change channel=0 control=33 value=65 time=0
93.615 seconds: control_change channel=0 control=33 value=65 time=0
93.615 seconds: control_change channel=0 control=33 value=65 time=0
93.621 seconds: control_change channel=0 control=33 value=65 time=0
93.621 seconds: control_change channel=0 control=33 value=65 time=0
93.621 seconds: control_change channel=0 control=33 value=65 time=0
93.627 seconds: control_change channel=0 control=33 value=65 time=0
93.627 seconds: control_change channel=0 control=33 value=65 time=0
93.627 seconds: control_change channel=0 control=33 value=65 time=0
93.634 seconds: control_change channel=0 control=33 value=65 time=0
93.634 seconds: control_change channel=0 control=33 value=65 time=0
93.634 seconds: control_change channel=0 control=33 value=65 time=0
93.640 seconds: control_change channel=0 control=33 value=65 time=0
93.640 seconds: control_change channel=0 control=33 value=65 time=0
93.640 seconds: control_change channel=0 control=33 value=65 time=0
93.646 seconds: control_change channel=0 control=33 value=65 time=0
93.646 seconds: control_change channel=0 control=33 value=65 time=0
93.646 seconds: control_change channel=0 control=33 value=65 time=0
93.652 seconds: control_change channel=0 control=33 value=65 time=0
93.652 seconds: control_change channel=0 control=33 value=65 time=0
93.652 seconds: control_change channel=0 control=33 value=65 time=0
93.659 seconds: control_change channel=0 control=33 value=65 time=0
93.659 seconds: control_change channel=0 control=33 value=65 time=0
93.659 seconds: control_change channel=0 control=33 value=65 time=0
93.667 seconds: control_change channel=0 control=33 value=65 time=0
93.667 seconds: control_change channel=0 control=33 value=65 time=0
93.667 seconds: control_change channel=0 control=33 value=65 time=0
93.676 seconds: control_change channel=0 control=33 value=65 time=0
93.676 seconds: control_change channel=0 control=33 value=65 time=0
93.686 seconds: control_change channel=0 control=33 value=65 time=0
93.692 seconds: control_change channel=0 control=33 value=65 time=0
93.706 seconds: control_change channel=0 control=33 value=63 time=0
93.713 seconds: control_change channel=0 control=33 value=63 time=0
93.720 seconds: control_change channel=0 control=33 value=63 time=0
93.720 seconds: control_change channel=0 control=33 value=63 time=0
93.729 seconds: control_change channel=0 control=33 value=63 time=0
93.729 seconds: control_change channel=0 control=33 value=63 time=0
93.735 seconds: control_change channel=0 control=33 value=63 time=0
93.735 seconds: control_change channel=0 control=33 value=63 time=0
93.742 seconds: control_change channel=0 control=33 value=63 time=0
93.742 seconds: control_change channel=0 control=33 value=63 time=0
93.742 seconds: control_change channel=0 control=33 value=63 time=0
93.749 seconds: control_change channel=0 control=33 value=63 time=0
93.749 seconds: control_change channel=0 control=33 value=63 time=0
93.749 seconds: control_change channel=0 control=33 value=63 time=0
93.756 seconds: control_change channel=0 control=33 value=63 time=0
93.756 seconds: control_change channel=0 control=33 value=63 time=0
93.762 seconds: control_change channel=0 control=33 value=63 time=0
93.762 seconds: control_change channel=0 control=33 value=63 time=0
93.762 seconds: control_change channel=0 control=33 value=63 time=0
93.768 seconds: control_change channel=0 control=33 value=63 time=0
93.768 seconds: control_change channel=0 control=33 value=63 time=0
93.773 seconds: control_change channel=0 control=33 value=63 time=0
93.773 seconds: control_change channel=0 control=33 value=63 time=0
93.773 seconds: control_change channel=0 control=33 value=63 time=0
93.780 seconds: control_change channel=0 control=33 value=63 time=0
93.780 seconds: control_change channel=0 control=33 value=63 time=0
93.780 seconds: control_change channel=0 control=33 value=63 time=0
93.786 seconds: control_change channel=0 control=33 value=63 time=0
93.786 seconds: control_change channel=0 control=33 value=63 time=0
93.786 seconds: control_change channel=0 control=33 value=63 time=0
93.792 seconds: control_change channel=0 control=33 value=63 time=0
93.792 seconds: control_change channel=0 control=33 value=63 time=0
93.798 seconds: control_change channel=0 control=33 value=63 time=0
93.798 seconds: control_change channel=0 control=33 value=63 time=0
93.798 seconds: control_change channel=0 control=33 value=63 time=0
93.805 seconds: control_change channel=0 control=33 value=63 time=0
93.805 seconds: control_change channel=0 control=33 value=63 time=0
93.805 seconds: control_change channel=0 control=33 value=63 time=0
93.812 seconds: control_change channel=0 control=33 value=63 time=0
93.812 seconds: control_change channel=0 control=33 value=63 time=0
93.819 seconds: control_change channel=0 control=33 value=63 time=0
93.819 seconds: control_change channel=0 control=33 value=63 time=0
93.826 seconds: control_change channel=0 control=33 value=63 time=0
93.826 seconds: control_change channel=0 control=33 value=63 time=0
93.838 seconds: control_change channel=0 control=33 value=63 time=0
93.857 seconds: control_change channel=0 control=33 value=65 time=0
93.864 seconds: control_change channel=0 control=33 value=65 time=0
93.864 seconds: control_change channel=0 control=33 value=65 time=0
93.873 seconds: control_change channel=0 control=33 value=65 time=0
93.873 seconds: control_change channel=0 control=33 value=65 time=0
93.873 seconds: control_change channel=0 control=33 value=65 time=0
93.882 seconds: control_change channel=0 control=33 value=65 time=0
93.882 seconds: control_change channel=0 control=33 value=65 time=0
93.882 seconds: control_change channel=0 control=33 value=65 time=0
93.889 seconds: control_change channel=0 control=33 value=65 time=0
93.889 seconds: control_change channel=0 control=33 value=65 time=0
93.889 seconds: control_change channel=0 control=33 value=65 time=0
93.895 seconds: control_change channel=0 control=33 value=65 time=0
93.895 seconds: control_change channel=0 control=33 value=65 time=0
93.895 seconds: control_change channel=0 control=33 value=65 time=0
93.902 seconds: control_change channel=0 control=33 value=65 time=0
93.902 seconds: control_change channel=0 control=33 value=65 time=0
93.902 seconds: control_change channel=0 control=33 value=65 time=0
93.908 seconds: control_change channel=0 control=33 value=65 time=0
93.908 seconds: control_change channel=0 control=33 value=65 time=0
93.908 seconds: control_change channel=0 control=33 value=65 time=0
93.914 seconds: control_change channel=0 control=33 value=65 time=0
93.914 seconds: control_change channel=0 control=33 value=65 time=0
93.920 seconds: control_change channel=0 control=33 value=65 time=0
93.920 seconds: control_change channel=0 control=33 value=65 time=0
93.920 seconds: control_change channel=0 control=33 value=65 time=0
93.926 seconds: control_change channel=0 control=33 value=65 time=0
93.926 seconds: control_change channel=0 control=33 value=65 time=0
93.926 seconds: control_change channel=0 control=33 value=65 time=0
93.934 seconds: control_change channel=0 control=33 value=65 time=0
93.934 seconds: control_change channel=0 control=33 value=65 time=0
93.943 seconds: control_change channel=0 control=33 value=65 time=0
93.943 seconds: control_change channel=0 control=33 value=65 time=0
93.954 seconds: control_change channel=0 control=33 value=65 time=0
93.971 seconds: control_change channel=0 control=33 value=63 time=0
93.979 seconds: control_change channel=0 control=33 value=63 time=0
93.979 seconds: control_change channel=0 control=33 value=63 time=0
93.988 seconds: control_change channel=0 control=33 value=63 time=0
93.988 seconds: control_change channel=0 control=33 value=63 time=0
93.997 seconds: control_change channel=0 control=33 value=63 time=0
93.997 seconds: control_change channel=0 control=33 value=63 time=0
93.997 seconds: control_change channel=0 control=33 value=63 time=0
94.005 seconds: control_change channel=0 control=33 value=63 time=0
94.005 seconds: control_change channel=0 control=33 value=63 time=0
94.005 seconds: control_change channel=0 control=33 value=63 time=0
94.013 seconds: control_change channel=0 control=33 value=63 time=0
94.013 seconds: control_change channel=0 control=33 value=63 time=0
94.019 seconds: control_change channel=0 control=33 value=63 time=0
94.019 seconds: control_change channel=0 control=33 value=63 time=0
94.019 seconds: control_change channel=0 control=33 value=63 time=0
94.026 seconds: control_change channel=0 control=33 value=63 time=0
94.026 seconds: control_change channel=0 control=33 value=63 time=0
94.026 seconds: control_change channel=0 control=33 value=63 time=0
94.033 seconds: control_change channel=0 control=33 value=63 time=0
94.033 seconds: control_change channel=0 control=33 value=63 time=0
94.039 seconds: control_change channel=0 control=33 value=63 time=0
94.039 seconds: control_change channel=0 control=33 value=63 time=0
94.039 seconds: control_change channel=0 control=33 value=63 time=0
94.046 seconds: control_change channel=0 control=33 value=63 time=0
94.046 seconds: control_change channel=0 control=33 value=63 time=0
94.051 seconds: control_change channel=0 control=33 value=63 time=0
94.051 seconds: control_change channel=0 control=33 value=63 time=0
94.058 seconds: control_change channel=0 control=33 value=63 time=0
94.058 seconds: control_change channel=0 control=33 value=63 time=0
94.058 seconds: control_change channel=0 control=33 value=63 time=0
94.067 seconds: control_change channel=0 control=33 value=63 time=0
94.068 seconds: control_change channel=0 control=33 value=63 time=0
94.076 seconds: control_change channel=0 control=33 value=63 time=0
94.076 seconds: control_change channel=0 control=33 value=63 time=0
94.103 seconds: control_change channel=0 control=33 value=65 time=0
94.103 seconds: control_change channel=0 control=33 value=65 time=0
94.111 seconds: control_change channel=0 control=33 value=65 time=0
94.111 seconds: control_change channel=0 control=33 value=65 time=0
94.119 seconds: control_change channel=0 control=33 value=65 time=0
94.119 seconds: control_change channel=0 control=33 value=65 time=0
94.119 seconds: control_change channel=0 control=33 value=65 time=0
94.127 seconds: control_change channel=0 control=33 value=65 time=0
94.127 seconds: control_change channel=0 control=33 value=65 time=0
94.127 seconds: control_change channel=0 control=33 value=65 time=0
94.133 seconds: control_change channel=0 control=33 value=65 time=0
94.133 seconds: control_change channel=0 control=33 value=65 time=0
94.133 seconds: control_change channel=0 control=33 value=65 time=0
94.139 seconds: control_change channel=0 control=33 value=65 time=0
94.139 seconds: control_change channel=0 control=33 value=65 time=0
94.146 seconds: control_change channel=0 control=33 value=65 time=0
94.146 seconds: control_change channel=0 control=33 value=65 time=0
94.146 seconds: control_change channel=0 control=33 value=65 time=0
94.146 seconds: control_change channel=0 control=33 value=65 time=0
94.146 seconds: control_change channel=0 control=33 value=65 time=0
94.153 seconds: control_change channel=0 control=33 value=65 time=0
94.153 seconds: control_change channel=0 control=33 value=65 time=0
94.153 seconds: control_change channel=0 control=33 value=65 time=0
94.159 seconds: control_change channel=0 control=33 value=65 time=0
94.159 seconds: control_change channel=0 control=33 value=65 time=0
94.159 seconds: control_change channel=0 control=33 value=65 time=0
94.165 seconds: control_change channel=0 control=33 value=65 time=0
94.165 seconds: control_change channel=0 control=33 value=65 time=0
94.165 seconds: control_change channel=0 control=33 value=65 time=0
94.171 seconds: control_change channel=0 control=33 value=65 time=0
94.171 seconds: control_change channel=0 control=33 value=65 time=0
94.177 seconds: control_change channel=0 control=33 value=65 time=0
94.177 seconds: control_change channel=0 control=33 value=65 time=0
94.177 seconds: control_change channel=0 control=33 value=65 time=0
94.185 seconds: control_change channel=0 control=33 value=65 time=0
94.185 seconds: control_change channel=0 control=33 value=65 time=0
94.194 seconds: control_change channel=0 control=33 value=65 time=0
94.194 seconds: control_change channel=0 control=33 value=65 time=0
94.207 seconds: control_change channel=0 control=33 value=65 time=0
94.225 seconds: control_change channel=0 control=33 value=63 time=0
94.236 seconds: control_change channel=0 control=33 value=63 time=0
94.236 seconds: control_change channel=0 control=33 value=63 time=0
94.248 seconds: control_change channel=0 control=33 value=63 time=0
94.255 seconds: control_change channel=0 control=33 value=63 time=0
94.261 seconds: control_change channel=0 control=33 value=63 time=0
94.261 seconds: control_change channel=0 control=33 value=63 time=0
94.271 seconds: control_change channel=0 control=33 value=63 time=0
94.280 seconds: control_change channel=0 control=33 value=63 time=0
94.289 seconds: control_change channel=0 control=33 value=63 time=0
94.298 seconds: control_change channel=0 control=33 value=63 time=0
94.335 seconds: control_change channel=0 control=33 value=65 time=0
94.371 seconds: control_change channel=0 control=33 value=63 time=0
95.419 seconds: note_on channel=7 note=39 velocity=127 time=0
95.605 seconds: note_on channel=7 note=39 velocity=0 time=0
96.153 seconds: note_on channel=7 note=39 velocity=127 time=0
96.301 seconds: note_on channel=7 note=39 velocity=0 time=0
96.848 seconds: note_on channel=7 note=38 velocity=127 time=0
97.014 seconds: note_on channel=7 note=38 velocity=0 time=0
97.576 seconds: note_on channel=7 note=37 velocity=127 time=0
97.752 seconds: note_on channel=7 note=37 velocity=0 time=0
98.977 seconds: note_on channel=7 note=36 velocity=127 time=0
99.115 seconds: note_on channel=7 note=36 velocity=0 time=0
100.015 seconds: note_on channel=7 note=32 velocity=127 time=0
100.169 seconds: note_on channel=7 note=32 velocity=0 time=0
100.422 seconds: note_on channel=7 note=33 velocity=127 time=0
100.570 seconds: note_on channel=7 note=33 velocity=0 time=0
100.760 seconds: note_on channel=7 note=34 velocity=127 time=0
100.896 seconds: note_on channel=7 note=34 velocity=0 time=0
101.069 seconds: note_on channel=7 note=35 velocity=127 time=0
101.184 seconds: note_on channel=7 note=35 velocity=0 time=0
103.519 seconds: note_on channel=7 note=32 velocity=127 time=0
103.677 seconds: note_on channel=7 note=32 velocity=0 time=0
103.996 seconds: note_on channel=7 note=33 velocity=127 time=0
104.154 seconds: note_on channel=7 note=33 velocity=0 time=0
104.244 seconds: note_on channel=7 note=34 velocity=127 time=0
104.336 seconds: note_on channel=7 note=34 velocity=0 time=0
104.565 seconds: note_on channel=7 note=35 velocity=127 time=0
104.647 seconds: note_on channel=7 note=35 velocity=0 time=0
105.059 seconds: note_on channel=7 note=39 velocity=127 time=0
105.215 seconds: note_on channel=7 note=39 velocity=0 time=0
105.348 seconds: note_on channel=7 note=38 velocity=127 time=0
105.484 seconds: note_on channel=7 note=38 velocity=0 time=0
105.606 seconds: note_on channel=7 note=37 velocity=127 time=0
105.804 seconds: note_on channel=7 note=37 velocity=0 time=0
106.019 seconds: note_on channel=7 note=36 velocity=127 time=0
106.101 seconds: note_on channel=7 note=36 velocity=0 time=0
107.558 seconds: note_on channel=0 note=11 velocity=127 time=0
107.782 seconds: note_on channel=0 note=11 velocity=0 time=0
108.695 seconds: note_on channel=0 note=12 velocity=127 time=0
108.803 seconds: note_on channel=0 note=12 velocity=0 time=0
110.182 seconds: note_on channel=0 note=11 velocity=127 time=0
110.270 seconds: note_on channel=0 note=11 velocity=0 time=0
110.879 seconds: note_on channel=0 note=12 velocity=127 time=0
111.011 seconds: note_on channel=0 note=12 velocity=0 time=0
111.608 seconds: note_on channel=0 note=63 velocity=127 time=0
111.736 seconds: note_on channel=0 note=63 velocity=0 time=0
112.340 seconds: note_on channel=0 note=63 velocity=127 time=0
112.536 seconds: note_on channel=0 note=63 velocity=0 time=0
113.028 seconds: note_on channel=0 note=63 velocity=127 time=0
113.520 seconds: note_on channel=0 note=63 velocity=0 time=0
113.776 seconds: note_on channel=0 note=63 velocity=127 time=0
114.112 seconds: note_on channel=0 note=63 velocity=0 time=0
114.540 seconds: note_on channel=0 note=63 velocity=127 time=0
114.860 seconds: note_on channel=0 note=63 velocity=0 time=0
115.492 seconds: note_on channel=0 note=27 velocity=127 time=0
115.645 seconds: note_on channel=0 note=27 velocity=0 time=0
116.293 seconds: note_on channel=0 note=109 velocity=127 time=0
116.444 seconds: note_on channel=0 note=109 velocity=0 time=0
116.831 seconds: note_on channel=0 note=32 velocity=127 time=0
116.999 seconds: note_on channel=0 note=32 velocity=0 time=0
117.318 seconds: note_on channel=0 note=34 velocity=127 time=0
117.498 seconds: note_on channel=0 note=34 velocity=0 time=0
118.591 seconds: note_on channel=9 note=0 velocity=127 time=0
118.785 seconds: note_on channel=9 note=0 velocity=0 time=0
119.364 seconds: note_on channel=9 note=1 velocity=127 time=0
119.486 seconds: note_on channel=9 note=1 velocity=0 time=0
120.098 seconds: note_on channel=9 note=3 velocity=127 time=0
120.256 seconds: note_on channel=9 note=3 velocity=0 time=0
120.710 seconds: note_on channel=9 note=2 velocity=127 time=0
120.880 seconds: note_on channel=9 note=2 velocity=0 time=0
